<?xml version="1.0" encoding="UTF-8" standalone="no"?>
<!-- Created with Inkscape (http://www.inkscape.org/) -->

<svg
   xmlns:dc="http://purl.org/dc/elements/1.1/"
   xmlns:cc="http://creativecommons.org/ns#"
   xmlns:rdf="http://www.w3.org/1999/02/22-rdf-syntax-ns#"
   xmlns:svg="http://www.w3.org/2000/svg"
   xmlns="http://www.w3.org/2000/svg"
   xmlns:sodipodi="http://sodipodi.sourceforge.net/DTD/sodipodi-0.dtd"
   xmlns:inkscape="http://www.inkscape.org/namespaces/inkscape"
   width="210mm"
   height="297mm"
   viewBox="0 0 210 297"
   version="1.1"
   id="svg8"
   inkscape:export-filename="C:\Users\Utilisateur\source\repos\Schmou-TSE\rc\Hangar\hex.png"
   inkscape:export-xdpi="96"
   inkscape:export-ydpi="96"
   inkscape:version="0.92.1 r15371"
   sodipodi:docname="icones.svg">
  <defs
     id="defs2" />
  <sodipodi:namedview
     id="base"
     pagecolor="#ffffff"
     bordercolor="#666666"
     borderopacity="1.0"
     inkscape:pageopacity="0.0"
     inkscape:pageshadow="2"
     inkscape:zoom="1.4"
     inkscape:cx="156.55429"
     inkscape:cy="755.08861"
     inkscape:document-units="mm"
     inkscape:current-layer="layer1"
     showgrid="false"
     inkscape:snap-to-guides="true"
     inkscape:snap-grids="true"
     inkscape:snap-nodes="true"
     inkscape:snap-global="false"
     inkscape:window-width="1920"
     inkscape:window-height="1017"
     inkscape:window-x="1672"
     inkscape:window-y="-8"
     inkscape:window-maximized="1" />
  <metadata
     id="metadata5">
    <rdf:RDF>
      <cc:Work
         rdf:about="">
        <dc:format>image/svg+xml</dc:format>
        <dc:type
           rdf:resource="http://purl.org/dc/dcmitype/StillImage" />
        <dc:title />
      </cc:Work>
    </rdf:RDF>
  </metadata>
  <g
     inkscape:label="Calque 1"
     inkscape:groupmode="layer"
     id="layer1">
    <path
       style="fill:#000000;fill-opacity:1;stroke:none;stroke-width:0.38915342;stroke-miterlimit:4;stroke-dasharray:none;stroke-opacity:1"
       d="m 34.387394,18.837559 c -1.918061,0.02052 -3.496921,0.105171 -3.735689,0.257865 -0.636714,0.407185 -5.853885,9.245811 -5.896281,9.896037 -0.04239,0.650225 5.054755,9.614652 5.622396,10.053649 0.567642,0.438998 11.054238,0.420027 11.517643,0.15813 0.463405,-0.261895 5.924015,-8.974668 5.895763,-9.89552 -0.02825,-0.920851 -4.907599,-9.564501 -5.621878,-10.054166 -0.446425,-0.30604 -4.585184,-0.450194 -7.781954,-0.415995 z m 1.229382,2.971911 a 8.2004865,8.2335525 0 0 1 8.200534,8.233606 8.2004865,8.2335525 0 0 1 -1.390613,4.581116 8.4319519,8.4659514 0 0 0 0.663008,-3.290239 8.4319519,8.4659514 0 0 0 -8.431526,-8.46615 8.4319519,8.4659514 0 0 0 -5.373832,1.950269 8.2004865,8.2335525 0 0 1 6.332429,-3.008602 z m -0.999422,3.437517 a 6.290489,6.3158536 0 0 1 6.291089,6.315376 6.290489,6.3158536 0 0 1 -1.067118,3.514514 6.4680432,6.4941238 0 0 0 0.508496,-2.52491 6.4680432,6.4941238 0 0 0 -6.467305,-6.493661 6.4680432,6.4941238 0 0 0 -4.122229,1.496033 6.290489,6.3158536 0 0 1 4.857067,-2.307352 z m -0.787032,3.787882 c 0.172061,-0.0099 0.471019,0.112101 0.769462,0.326595 l 2.070675,1.487248 c 0.39792,0.28599 0.639249,0.625835 0.541569,0.76171 l -0.498161,0.692465 c -0.09766,0.135876 -0.496071,0.01521 -0.894002,-0.270785 l -2.070158,-1.488281 c -0.397931,-0.28599 -0.640282,-0.625318 -0.542602,-0.761194 l 0.49816,-0.692981 c 0.02443,-0.03398 0.06768,-0.05148 0.125057,-0.05478 z m -1.032495,1.436605 c 0.172061,-0.0099 0.471536,0.111585 0.769979,0.326078 l 2.069641,1.487764 c 0.39792,0.28599 0.639766,0.625319 0.542086,0.761194 l -0.497644,0.692981 c -0.09765,0.135876 -0.496588,0.01521 -0.894519,-0.270784 l -2.070675,-1.487765 c -0.39792,-0.285991 -0.639249,-0.625835 -0.541569,-0.76171 l 0.497644,-0.692464 c 0.02442,-0.03398 0.06768,-0.05199 0.125057,-0.05529 z m -1.032495,1.436605 c 0.172062,-0.0099 0.471019,0.111585 0.769462,0.326078 l 2.070158,1.488281 c 0.39792,0.285989 0.640283,0.625319 0.542603,0.761194 l -0.498161,0.692464 c -0.09766,0.135876 -0.496599,0.01469 -0.894519,-0.271301 L 31.6842,33.41703 c -0.39792,-0.285991 -0.639249,-0.625318 -0.541569,-0.761193 l 0.497644,-0.692465 c 0.02444,-0.03398 0.06768,-0.05199 0.125057,-0.05529 z"
       id="path26"
       inkscape:connector-curvature="0"
       inkscape:export-xdpi="96"
       inkscape:export-ydpi="96" />
    <path
       style="fill:#ff00ff;fill-opacity:1;stroke:none;stroke-width:0.09134767;stroke-miterlimit:4;stroke-dasharray:none;stroke-opacity:1"
       d="m 189.62407,44.140872 a 5.7120604,5.7350926 0 0 0 -4.41057,2.095555 5.873288,5.8969704 0 0 1 3.74275,-1.358619 5.873288,5.8969704 0 0 1 5.87322,5.89709 5.873288,5.8969704 0 0 1 -0.46208,2.292036 5.7120604,5.7350926 0 0 0 0.96886,-3.191073 5.7120604,5.7350926 0 0 0 -5.71218,-5.734989 z"
       id="path3711"
       inkscape:connector-curvature="0" />
    <path
       inkscape:connector-curvature="0"
       id="path3716"
       d="m 190.53132,41.020025 a 7.4464281,7.4764536 0 0 0 -5.74976,2.731834 7.6566097,7.6874828 0 0 1 4.87917,-1.77114 7.6566097,7.6874828 0 0 1 7.65652,7.687639 7.6566097,7.6874828 0 0 1 -0.60238,2.987972 7.4464281,7.4764536 0 0 0 1.26305,-4.159986 7.4464281,7.4764536 0 0 0 -7.4466,-7.476319 z"
       style="fill:#ff00ff;fill-opacity:1;stroke:none;stroke-width:0.1190838;stroke-miterlimit:4;stroke-dasharray:none;stroke-opacity:1" />
    <rect
       style="fill:#ff00ff;fill-opacity:1;stroke:none;stroke-width:0.15485239;stroke-miterlimit:4;stroke-dasharray:none;stroke-opacity:1"
       id="rect3718"
       width="3.9215028"
       height="1.3229166"
       x="181.10593"
       y="-68.567719"
       rx="0.80319935"
       ry="0.2742632"
       transform="rotate(35.705236)" />
    <rect
       ry="0.2742632"
       rx="0.80319935"
       y="-70.174118"
       x="181.10593"
       height="1.3229166"
       width="3.9215028"
       id="rect3720"
       style="fill:#ff00ff;fill-opacity:1;stroke:none;stroke-width:0.15485239;stroke-miterlimit:4;stroke-dasharray:none;stroke-opacity:1"
       transform="rotate(35.705236)" />
    <rect
       style="fill:#ff00ff;fill-opacity:1;stroke:none;stroke-width:0.15485239;stroke-miterlimit:4;stroke-dasharray:none;stroke-opacity:1"
       id="rect3722"
       width="3.9215028"
       height="1.3229166"
       x="181.10593"
       y="-71.780518"
       rx="0.80319935"
       ry="0.2742632"
       transform="rotate(35.705236)" />
    <path
       inkscape:export-ydpi="96"
       inkscape:export-xdpi="96"
       sodipodi:nodetypes="zzzzzzz"
       inkscape:connector-curvature="0"
       id="path3737"
       d="m 197.13381,26.116409 c -0.46341,0.261897 -10.95012,0.280826 -11.51776,-0.158171 -0.56764,-0.438997 -5.66432,-9.403504 -5.62193,-10.053729 0.0424,-0.650226 5.2591,-9.4884168 5.89582,-9.8956018 0.63671,-0.407185 10.80347,-0.331494 11.51775,0.158171 0.71428,0.489665 5.59369,9.1328778 5.62194,10.0537288 0.0283,0.920851 -5.43242,9.633706 -5.89582,9.895602 z"
       inkscape:transform-center-y="-7.1367886"
       inkscape:transform-center-x="-1.904988"
       style="fill:#000000;fill-opacity:1;stroke:none;stroke-width:0.38915342;stroke-miterlimit:4;stroke-dasharray:none;stroke-opacity:1" />
    <path
       style="fill:#ff00ff;fill-opacity:1;stroke:none;stroke-width:0.21870077;stroke-miterlimit:4;stroke-dasharray:none;stroke-opacity:1"
       d="m 201.70726,62.046933 1.99396,-0.05849 -0.91632,2.210369 2.15433,0.559294 -3.076,4.594996 1.06254,-3.805403 -2.11533,-0.608033 z"
       id="rect3769"
       inkscape:connector-curvature="0"
       sodipodi:nodetypes="cccccccc" />
    <path
       style="fill:#000000;fill-opacity:1;stroke:none;stroke-width:0.38915342;stroke-miterlimit:4;stroke-dasharray:none;stroke-opacity:1"
       d="m 62.921276,19.072788 c -1.91806,0.02052 -3.49692,0.105169 -3.73569,0.257865 -0.63672,0.407183 -5.85336,9.245293 -5.89576,9.89552 -0.0424,0.650224 5.05423,9.614651 5.62188,10.053651 0.56764,0.43899 11.05423,0.42002 11.51764,0.15813 0.4634,-0.2619 5.92406,-8.974671 5.89576,-9.895522 -0.0282,-0.920851 -4.9076,-9.563984 -5.62188,-10.053651 -0.44642,-0.306041 -4.58518,-0.450193 -7.78195,-0.415993 z m 1.15703,4.077787 h 1.53635 c 0.37342,0 0.67437,0.300958 0.67437,0.674378 v 0.3669 h 0.37155 c 0.93034,0 1.67897,0.749155 1.67897,1.679485 v 7.992793 c 0,0.930328 -0.74863,1.680005 -1.67897,1.680005 h -3.65713 c -0.93033,0 -1.67949,-0.749677 -1.67949,-1.680005 v -7.992793 c 0,-0.93033 0.74916,-1.679485 1.67949,-1.679485 h 0.401 v -0.3669 c 0,-0.37342 0.30045,-0.674378 0.67386,-0.674378 z m 1.79576,2.753836 -2.27583,0.06666 -1.02371,3.301608 2.41484,0.693497 -1.21285,4.343405 3.51038,-5.244642 -2.45876,-0.638204 z"
       id="path3777"
       inkscape:connector-curvature="0"
       inkscape:export-xdpi="96"
       inkscape:export-ydpi="96" />
    <path
       style="fill:#000000;fill-opacity:1;stroke:none;stroke-width:0.38915342;stroke-miterlimit:4;stroke-dasharray:none;stroke-opacity:1"
       d="m 89.982493,18.9843 c -1.91806,0.02052 -3.496921,0.105171 -3.735689,0.257865 -0.63672,0.407186 -5.853364,9.245296 -5.895764,9.89552 -0.04239,0.650227 5.054238,9.61517 5.62188,10.054166 0.56764,0.439 11.054231,0.420029 11.517643,0.158131 0.4634,-0.261895 5.924067,-8.975185 5.895767,-9.896035 -0.0282,-0.920851 -4.907603,-9.563987 -5.621883,-10.053651 -0.446424,-0.306041 -4.585184,-0.450194 -7.781954,-0.415996 z m 2.621028,3.191536 6.566525,1.854668 v 8.703345 L 95.444691,31.681717 V 25.74978 l -2.84117,-0.803053 z m -4.20026,2.021583 6.566524,1.854669 v 8.70386 L 92.170473,33.96478 v -6.073013 l -3.767212,-1.064535 z m -3.450434,2.114601 6.566525,1.855184 v 8.703344 L 84.952827,35.01588 Z"
       id="path3796"
       inkscape:connector-curvature="0"
       inkscape:export-xdpi="96"
       inkscape:export-ydpi="96" />
    <ellipse
       style="fill:#000000;fill-opacity:1;stroke:none;stroke-width:0.26499999;stroke-miterlimit:4;stroke-dasharray:none;stroke-opacity:1"
       id="path3867"
       cx="101.76287"
       cy="95.011047"
       r="21.849283" />
    <path
       sodipodi:nodetypes="ccccc"
       inkscape:connector-curvature="0"
       id="path42"
       d="m 184.59591,79.980634 6.56645,1.854829 v 8.703434 l -6.56645,-1.854836 z"
       style="fill:#ff00ff;fill-opacity:1;stroke:none;stroke-width:0.11813267;stroke-miterlimit:4;stroke-dasharray:none;stroke-opacity:1" />
    <path
       style="fill:#ff00ff;fill-opacity:1;stroke:none;stroke-width:0.11813267;stroke-miterlimit:4;stroke-dasharray:none;stroke-opacity:1"
       d="m 184.59591,79.980634 6.56645,1.854829 v 8.703434 l -6.56645,-1.854836 z"
       id="path44"
       inkscape:connector-curvature="0"
       sodipodi:nodetypes="ccccc" />
    <path
       inkscape:connector-curvature="0"
       id="path46"
       d="m 188.04646,77.865927 v 2.629956 l 3.76702,1.064122 v 6.073361 l 2.79951,0.790827 v -8.703504 z"
       style="fill:#ff00ff;fill-opacity:1;stroke:none;stroke-width:0.11813267;stroke-miterlimit:4;stroke-dasharray:none;stroke-opacity:1" />
    <path
       inkscape:connector-curvature="0"
       id="path48"
       d="m 192.24647,75.84417 v 2.771203 l 2.84135,0.802596 v 5.932298 l 3.72518,1.052166 v -8.703499 z m 0,5.401343 v 3.302158 l 0.0418,0.01178 V 81.25729 Z"
       style="fill:#ff00ff;fill-opacity:1;stroke:none;stroke-width:0.11813267;stroke-miterlimit:4;stroke-dasharray:none;stroke-opacity:1" />
    <path
       style="fill:#999999;fill-opacity:1;stroke:none;stroke-width:0.38915342;stroke-miterlimit:4;stroke-dasharray:none;stroke-opacity:1"
       inkscape:transform-center-x="-1.904988"
       inkscape:transform-center-y="-7.1367886"
       d="m 40.388774,71.057981 c -0.46341,0.2619 -10.95012,0.28083 -11.51776,-0.15817 -0.56764,-0.439 -5.66432,-9.403503 -5.62193,-10.053728 0.0424,-0.650226 5.2591,-9.488417 5.89582,-9.895602 0.63671,-0.407185 10.80347,-0.331494 11.51775,0.158171 0.71428,0.489665 5.59369,9.132878 5.62194,10.053729 0.0283,0.920851 -5.43242,9.63371 -5.89582,9.8956 z"
       id="path57"
       inkscape:connector-curvature="0"
       sodipodi:nodetypes="zzzzzzz"
       inkscape:export-xdpi="96"
       inkscape:export-ydpi="96" />
    <rect
       style="fill:#f2f2f2;fill-opacity:1;stroke:none;stroke-width:0.34060037;stroke-miterlimit:4;stroke-dasharray:none;stroke-opacity:1"
       id="rect52"
       width="7.045186"
       height="0.65649575"
       x="31.118217"
       y="56.191204" />
    <path
       style="fill:#f2f2f2;fill-opacity:1;stroke:none;stroke-width:0.3001937;stroke-miterlimit:4;stroke-dasharray:none;stroke-opacity:1"
       d="m 33.577201,53.419182 h 2.156535 l 0.08295,14.125391 -1.078268,2.244866 -1.078268,-2.244866 z"
       id="rect54"
       inkscape:connector-curvature="0"
       sodipodi:nodetypes="cccccc" />
    <path
       style="fill:#999999;fill-opacity:1;stroke:none;stroke-width:0.38915342;stroke-miterlimit:4;stroke-dasharray:none;stroke-opacity:1"
       inkscape:transform-center-x="-1.904988"
       inkscape:transform-center-y="-7.1367886"
       d="m 68.309897,71.552228 c -0.46341,0.261897 -10.95012,0.280826 -11.51776,-0.158171 -0.56764,-0.438997 -5.66432,-9.403504 -5.62193,-10.053729 0.0424,-0.650226 5.2591,-9.488416 5.89582,-9.895601 0.63671,-0.407185 10.80347,-0.331494 11.51775,0.158171 0.71428,0.489665 5.59369,9.132877 5.62194,10.053728 0.0283,0.920851 -5.43242,9.633706 -5.89582,9.895602 z"
       id="path77"
       inkscape:connector-curvature="0"
       sodipodi:nodetypes="zzzzzzz"
       inkscape:export-xdpi="96"
       inkscape:export-ydpi="96" />
    <path
       style="fill:#ff00ff;fill-opacity:1;stroke:none;stroke-width:0.26499999;stroke-miterlimit:4;stroke-dasharray:none;stroke-opacity:1"
       d="m 25.513393,101.96429 c 0,0 10.394345,2.64583 15.874999,2.64583 5.480655,0 17.008928,-2.64583 17.008928,-2.64583 -1.476028,14.64424 -3.340093,44.55361 -18.89881,40.63244 -15.558716,-3.92117 -12.262989,-26.08781 -13.985117,-40.63244 z"
       id="rect79"
       inkscape:connector-curvature="0"
       sodipodi:nodetypes="csszc" />
  </g>
</svg>
