<?xml version="1.0" encoding="UTF-8" standalone="no"?>
<!-- Created with Inkscape (http://www.inkscape.org/) -->

<svg
   xmlns:dc="http://purl.org/dc/elements/1.1/"
   xmlns:cc="http://creativecommons.org/ns#"
   xmlns:rdf="http://www.w3.org/1999/02/22-rdf-syntax-ns#"
   xmlns:svg="http://www.w3.org/2000/svg"
   xmlns="http://www.w3.org/2000/svg"
   xmlns:sodipodi="http://sodipodi.sourceforge.net/DTD/sodipodi-0.dtd"
   xmlns:inkscape="http://www.inkscape.org/namespaces/inkscape"
   width="210mm"
   height="297mm"
   viewBox="0 0 210 297"
   version="1.1"
   id="svg8"
   inkscape:version="0.92.2 (5c3e80d, 2017-08-06)"
   sodipodi:docname="dessin.svg">
  <defs
     id="defs2" />
  <sodipodi:namedview
     id="base"
     pagecolor="#ffffff"
     bordercolor="#666666"
     borderopacity="1.0"
     inkscape:pageopacity="0.0"
     inkscape:pageshadow="2"
     inkscape:zoom="0.35"
     inkscape:cx="9.8454574"
     inkscape:cy="684.78654"
     inkscape:document-units="mm"
     inkscape:current-layer="layer1"
     showgrid="false"
     inkscape:measure-start="0,0"
     inkscape:measure-end="0,0"
     inkscape:pagecheckerboard="false"
     showguides="false"
     inkscape:window-width="1920"
     inkscape:window-height="1018"
     inkscape:window-x="-8"
     inkscape:window-y="-8"
     inkscape:window-maximized="1" />
  <metadata
     id="metadata5">
    <rdf:RDF>
      <cc:Work
         rdf:about="">
        <dc:format>image/svg+xml</dc:format>
        <dc:type
           rdf:resource="http://purl.org/dc/dcmitype/StillImage" />
        <dc:title></dc:title>
      </cc:Work>
    </rdf:RDF>
  </metadata>
  <g
     inkscape:label="Calque 1"
     inkscape:groupmode="layer"
     id="layer1">
    <path
       style="fill:#000000;stroke-width:0.1119187"
       d="m 168.91079,1.8157039 a 7.0159031,5.0692135 0 0 0 -7.01586,5.069177 7.0159031,5.0692135 0 0 0 0.089,0.782802 7.0159031,5.0692135 0 0 1 6.99348,-4.746987 7.0159031,5.0692135 0 0 1 6.92714,4.286744 7.0159031,5.0692135 0 0 0 0.0224,-0.322559 7.0159031,5.0692135 0 0 0 -7.01611,-5.069177 z"
       id="path4015"
       inkscape:connector-curvature="0" />
    <path
       inkscape:connector-curvature="0"
       id="path4020"
       d="m 168.82728,3.8202249 a 5.996949,4.3329868 0 0 0 -5.9969,4.332956 5.996949,4.3329868 0 0 0 0.0761,0.6691112 5.996949,4.3329868 0 0 1 5.97778,-4.0575582 5.996949,4.3329868 0 0 1 5.92107,3.6641592 5.996949,4.3329868 0 0 0 0.0191,-0.2757122 5.996949,4.3329868 0 0 0 -5.99712,-4.332956 z"
       style="fill:#000000;stroke-width:0.0956642" />
    <path
       style="fill:#000000;stroke-width:0.08609316"
       d="m 168.87741,5.8915639 a 5.47912,3.8410084 0 0 0 -5.47909,3.8409812 5.47912,3.8410084 0 0 0 0.0695,0.5931379 5.47912,3.8410084 0 0 1 5.46161,-3.5968521 5.47912,3.8410084 0 0 1 5.4098,3.2481212 5.47912,3.8410084 0 0 0 0.0175,-0.244407 5.47912,3.8410084 0 0 0 -5.47928,-3.8409812 z"
       id="path4022"
       inkscape:connector-curvature="0" />
    <path
       style="fill:#000000;stroke-width:0.06373807"
       d="m 142.10813,34.854224 c 0.003,-0.04411 4.27644,-14.192971 4.4101,-14.596416 0.0243,-0.07331 0.60625,-8.4e-5 -2.59962,-0.342181 l -4.09073,-0.436521 2.73407,-8.308515 2.87073,-8.9147388 c 1.66973,0.05584 3.36798,0.291625 4.59548,0.354841 l 3.13508,0.167764 -0.32845,0.570053 c -1.1734,2.036481 -6.47588,12.2629578 -6.50852,12.3575738 -0.0361,0.10472 -0.12871,0.104362 3.36745,0.294935 2.13074,0.116149 3.8726,0.232526 3.8708,0.258593 -0.002,0.03394 -11.27582,18.385314 -11.43933,18.621371 -0.0115,0.01667 -0.0192,0.0047 -0.0171,-0.02674 z"
       id="path4049"
       inkscape:connector-curvature="0"
       sodipodi:nodetypes="ccscccccscssccc" />
    <path
       inkscape:connector-curvature="0"
       id="path4858"
       d="m 174.53017,20.218446 c 0,3.282294 -0.59155,4.739772 -1.52756,5.384684 0.25652,0.889836 0.84699,0.807701 1.54719,0.807701 0.94102,0 1.72341,0.151297 1.72341,-2.112531 0,-2.263828 -0.76308,-2.853068 -1.74304,-4.079854 z"
       style="fill:#000000;stroke-width:0.10904759" />
    <path
       id="path4860"
       d="m 169.12031,10.367589 c -2.42495,3.118302 -4.03955,4.405357 -4.03955,9.898105 0,5.492747 1.80388,5.126302 4.08709,5.126302 2.28321,0 4.18114,0.366445 4.18114,-5.126302 0,-5.492748 -1.85098,-6.921543 -4.22868,-9.898105 z m -0.42323,5.56917 h 0.94671 c 0.70719,0 1.27693,0.569216 1.27693,1.276408 v 1.213879 c 0,0.707191 -0.56974,1.276924 -1.27693,1.276924 h -0.94671 c -0.70719,0 -1.27641,-0.569733 -1.27641,-1.276924 v -1.213879 c 0,-0.707192 0.56922,-1.276408 1.27641,-1.276408 z"
       style="fill:#000000;stroke-width:0.26458332"
       inkscape:connector-curvature="0" />
    <path
       id="path4862"
       d="m 163.86895,20.72768 c -0.79234,0.987907 -1.31568,1.664838 -1.31568,3.639055 0,2.263826 0.74311,2.112532 1.68413,2.112532 0.63912,0 1.20439,0.06767 1.50172,-0.596863 -1.09617,-0.472438 -1.80921,-1.763925 -1.87017,-5.154724 z"
       style="fill:#000000;stroke-width:0.10904759"
       inkscape:connector-curvature="0" />
    <path
       sodipodi:nodetypes="ssscs"
       inkscape:connector-curvature="0"
       id="path4864"
       d="m 167.21602,28.552238 c 0.0352,-2.559417 0.90102,-2.376257 1.94526,-2.36133 1.04423,0.01493 1.8715,-0.144031 1.83625,2.415385 -0.0352,2.559418 -0.78198,3.14865 -1.91106,4.58581 -1.06835,-1.402512 -1.9057,-2.080447 -1.87045,-4.639865 z"
       style="fill:#000000;stroke-width:0.12215389" />
    <path
       style="fill:#000000;stroke:none;stroke-width:0.21985333"
       d="m 206.1468,177.52724 a 6.873345,12.411693 47.585531 0 0 -0.81591,-0.0925 6.873345,12.411693 47.585531 0 0 -2.45511,0.23518 l -0.009,-0.0249 -0.26264,0.096 a 6.873345,12.411693 47.585531 0 0 -2.80419,1.02501 l -8.04399,2.94105 3.1804,0.26866 -5.92283,1.4994 1.7892,1.21199 -7.32945,2.39252 4.05766,1.29773 -4.25769,2.02449 6.06333,0.12085 -6.10413,5.57675 -9.76792,8.84461 5.71842,6.31492 15.35057,-13.89951 -0.20382,5.80483 2.48139,-4.59096 1.16115,5.21224 3.04308,-7.08329 1.04633,1.89039 2.02757,-5.76474 -0.0194,3.19364 4.18135,-8.86504 a 6.873345,12.411693 47.585531 0 0 0.77807,-1.64832 l 0.0875,-0.18637 -0.0113,-0.005 a 6.873345,12.411693 47.585531 0 0 -0.42966,-6.4742 6.873345,12.411693 47.585531 0 0 -2.52949,-1.31484 z m 1.04865,2.37406 c -0.002,0.009 -0.003,0.0172 -0.005,0.0264 l -0.0492,-0.0198 c 0.0191,-0.002 0.0352,-0.004 0.0544,-0.007 z"
       id="path4866"
       inkscape:connector-curvature="0"
       inkscape:export-xdpi="96"
       inkscape:export-ydpi="96" />
    <path
       inkscape:connector-curvature="0"
       id="path4858-5"
       d="m 202.43906,58.410693 c 0,3.282294 -0.29617,4.739772 -0.7648,5.384684 0.12843,0.889836 0.42406,0.807701 0.77463,0.807701 0.47113,0 0.86285,0.151297 0.86285,-2.112531 0,-2.263828 -0.38205,-2.853068 -0.87268,-4.079854 z"
       style="fill:#000000;stroke-width:0.07715971"
       inkscape:export-xdpi="96"
       inkscape:export-ydpi="96" />
    <path
       id="path4860-5"
       d="m 199.73052,48.465342 c -1.21409,3.118302 -2.02247,4.405357 -2.02247,9.898105 0,5.492747 0.90314,5.126302 2.04627,5.126302 1.14313,0 2.09336,0.366445 2.09336,-5.126302 0,-5.492748 -0.92673,-6.921543 -2.11716,-9.898105 z m -0.2119,5.56917 h 0.47399 c 0.35406,0 0.63931,0.569216 0.63931,1.276408 v 1.213879 c 0,0.707191 -0.28525,1.276924 -0.63931,1.276924 h -0.47399 c -0.35407,0 -0.63905,-0.569733 -0.63905,-1.276924 V 55.31092 c 0,-0.707192 0.28498,-1.276408 0.63905,-1.276408 z"
       style="fill:#000000;stroke:none;stroke-width:0.18721341"
       inkscape:connector-curvature="0"
       inkscape:export-xdpi="96"
       inkscape:export-ydpi="96" />
    <path
       id="path4862-5"
       d="m 197.10134,58.825433 c -0.3967,0.987907 -0.65872,1.664838 -0.65872,3.639055 0,2.263826 0.37205,2.112532 0.84319,2.112532 0.31998,0 0.603,0.06767 0.75186,-0.596863 -0.54882,-0.472438 -0.90581,-1.763925 -0.93633,-5.154724 z"
       style="fill:#000000;stroke-width:0.07715971"
       inkscape:connector-curvature="0"
       inkscape:export-xdpi="96"
       inkscape:export-ydpi="96" />
    <rect
       style="fill:#000000;stroke:none;stroke-width:0.18721341"
       id="rect5012"
       width="1.8421344"
       height="4.1754656"
       x="198.8334"
       y="53.776825"
       inkscape:export-xdpi="96"
       inkscape:export-ydpi="96" />
    <path
       style="fill:#000000;stroke-width:0.10904759"
       d="m 181.88008,56.166197 c 0,3.282294 -0.59155,4.739772 -1.52756,5.384684 0.25652,0.889836 0.84699,0.807701 1.54719,0.807701 0.94102,0 1.72341,0.151297 1.72341,-2.112531 0,-2.263828 -0.76308,-2.853068 -1.74304,-4.079854 z"
       id="path5040"
       inkscape:connector-curvature="0"
       inkscape:export-xdpi="96"
       inkscape:export-ydpi="96" />
    <path
       inkscape:connector-curvature="0"
       style="fill:#000000;stroke-width:0.26458332"
       d="m 176.47022,46.31534 c -2.42495,3.118302 -4.03955,4.405357 -4.03955,9.898105 0,5.492747 1.80388,5.126302 4.08709,5.126302 2.28321,0 4.18114,0.366445 4.18114,-5.126302 0,-5.492748 -1.85098,-6.921543 -4.22868,-9.898105 z m -0.42323,5.56917 h 0.94671 c 0.70719,0 1.27693,0.569216 1.27693,1.276408 v 1.213879 c 0,0.707191 -0.56974,1.276924 -1.27693,1.276924 h -0.94671 c -0.70719,0 -1.27641,-0.569733 -1.27641,-1.276924 v -1.213879 c 0,-0.707192 0.56922,-1.276408 1.27641,-1.276408 z"
       id="path5042"
       inkscape:export-xdpi="96"
       inkscape:export-ydpi="96" />
    <path
       inkscape:connector-curvature="0"
       style="fill:#000000;stroke-width:0.10904759"
       d="m 171.21886,56.675431 c -0.79234,0.987907 -1.31568,1.664838 -1.31568,3.639055 0,2.263826 0.74311,2.112532 1.68413,2.112532 0.63912,0 1.20439,0.06767 1.50172,-0.596863 -1.09617,-0.472438 -1.80921,-1.763925 -1.87017,-5.154724 z"
       id="path5044"
       inkscape:export-xdpi="96"
       inkscape:export-ydpi="96" />
    <path
       style="fill:#000000;stroke-width:0.12215389"
       d="m 174.56593,64.499989 c 0.0352,-2.559417 0.90102,-2.376257 1.94526,-2.36133 1.04423,0.01493 1.8715,-0.144031 1.83625,2.415385 -0.0352,2.559418 -0.78198,3.14865 -1.91106,4.58581 -1.06835,-1.402512 -1.9057,-2.080447 -1.87045,-4.639865 z"
       id="path5046"
       inkscape:connector-curvature="0"
       sodipodi:nodetypes="ssscs"
       inkscape:export-xdpi="96"
       inkscape:export-ydpi="96" />
    <path
       style="fill:#000000;stroke:none;stroke-width:0.26264361"
       d="M 176.3977,42.070143 A 14.968722,15.345294 0 0 0 161.42937,57.415714 14.968722,15.345294 0 0 0 176.3977,72.760799 14.968722,15.345294 0 0 0 191.36652,57.415714 14.968722,15.345294 0 0 0 176.3977,42.070143 Z m 0,1.162921 a 13.834368,14.182402 0 0 1 13.83466,14.18265 13.834368,14.182402 0 0 1 -13.83466,14.182167 13.834368,14.182402 0 0 1 -13.83416,-14.182167 13.834368,14.182402 0 0 1 13.83416,-14.18265 z"
       id="circle5050"
       inkscape:connector-curvature="0"
       inkscape:export-xdpi="96"
       inkscape:export-ydpi="96" />
    <path
       style="fill:#000000;stroke:none;stroke-width:0.34268749"
       d="m 197.60492,85.650984 -6.96694,0.01215 0.032,8.13444 h -7.86106 v 6.712336 h 7.88812 l 0.0315,8.00355 6.96694,-0.0116 -0.0315,-7.99195 h 7.99581 v -6.712337 h -8.02288 z m -0.84277,0.965374 0.026,8.002445 h 7.94335 v 5.034528 h -7.92679 l 0.0254,7.884259 -5.22506,0.0105 -0.0254,-7.894752 h -7.8423 v -5.034525 h 7.82572 l -0.026,-7.991399 z"
       id="rect5056"
       inkscape:connector-curvature="0"
       inkscape:export-xdpi="96"
       inkscape:export-ydpi="96" />
    <path
       style="fill:#000000;stroke-width:0.038072"
       d="m 194.06798,133.6152 c -0.72231,-0.38719 -2.02522,-1.37362 -3.09998,-2.34697 -1.70021,-1.5398 -2.91535,-2.95973 -4.05332,-4.73645 -0.42966,-0.67082 -1.10762,-1.90438 -1.29985,-2.36507 -0.0393,-0.0943 -0.15078,-0.35468 -0.24767,-0.5787 -0.6589,-1.52351 -1.10974,-3.26072 -1.32612,-5.10995 -0.0709,-0.60567 -0.0872,-0.96315 -0.0897,-1.96251 -0.003,-1.18094 -1.6e-4,-1.22781 0.0824,-1.39685 0.113,-0.23139 0.24705,-0.30242 0.79442,-0.42093 0.87434,-0.18929 2.20858,-0.55896 2.81935,-0.78113 1.18353,-0.43052 1.58666,-0.59473 2.50526,-1.02047 0.68652,-0.31818 1.76964,-0.87044 2.16742,-1.10513 0.132,-0.0779 0.3721,-0.21772 0.53358,-0.31078 0.16147,-0.0931 0.45212,-0.27614 0.64589,-0.40685 0.72142,-0.48667 0.94185,-0.56871 1.19518,-0.44478 0.0723,0.0354 0.44363,0.25798 0.82519,0.49469 0.38155,0.23672 0.75243,0.46251 0.82418,0.50176 2.44333,1.33663 3.90699,1.97811 5.94345,2.60484 0.33371,0.10271 0.97991,0.27359 1.43601,0.37975 0.45609,0.10615 0.88446,0.22476 0.95192,0.26357 0.0718,0.0413 0.1581,0.14313 0.20808,0.24546 0.0825,0.16891 0.0854,0.21676 0.0832,1.39685 -0.002,1.0147 -0.0172,1.34716 -0.0904,1.96028 -0.14353,1.20133 -0.3729,2.34343 -0.64002,3.18669 -0.0645,0.20366 -0.15963,0.50359 -0.21136,0.66651 -0.0855,0.26914 -0.19119,0.55527 -0.41729,1.12938 -0.46946,1.19202 -1.42442,2.89616 -2.29285,4.09166 -0.35278,0.48564 -0.81347,1.0768 -1.03881,1.33302 -0.0896,0.10184 -0.20869,0.24347 -0.26474,0.31475 -0.42044,0.5347 -2.14717,2.20542 -2.91176,2.81732 -0.42824,0.34272 -1.17902,0.91047 -1.35615,1.02554 -0.0715,0.0465 -0.2445,0.16436 -0.38445,0.26202 -0.38221,0.26674 -0.75061,0.44972 -0.90409,0.44906 -0.0804,-3.3e-4 -0.23379,-0.0545 -0.38696,-0.13658 z m 0.47748,-1.27422 c 0.12362,-0.0626 0.6446,-0.43299 1.15735,-0.82286 1.68506,-1.28122 3.45975,-3.11565 4.62694,-4.78268 0.19963,-0.28512 0.39287,-0.56006 0.42943,-0.61097 0.19214,-0.2676 0.79372,-1.30725 1.05845,-1.82921 1.24255,-2.44993 1.87721,-5.07907 1.87887,-7.78336 l 3.9e-4,-0.63314 -0.34252,-0.0845 c -0.53378,-0.13164 -1.24251,-0.32627 -1.69301,-0.46491 -0.68312,-0.21024 -1.11538,-0.36687 -2.34869,-0.85105 -0.43672,-0.17145 -1.87563,-0.84461 -2.38783,-1.11709 -1.01463,-0.53977 -1.61188,-0.87826 -2.08941,-1.18418 -0.16958,-0.10863 -0.33692,-0.19736 -0.37187,-0.19718 -0.035,1.9e-4 -0.21561,0.096 -0.40143,0.21292 -1.79695,1.13059 -3.76363,2.07952 -5.88616,2.84008 -0.68372,0.245 -1.68279,0.53838 -2.53462,0.74429 l -0.42081,0.10173 3.9e-4,0.63307 c 0.001,2.38397 0.51037,4.77962 1.47564,6.94644 0.60706,1.36273 1.58154,2.95567 2.53307,4.14073 0.63937,0.79628 1.5685,1.80124 2.29321,2.48036 0.56186,0.52652 1.52407,1.33695 1.92258,1.61931 0.0563,0.0399 0.24125,0.1716 0.41102,0.29269 0.33576,0.23949 0.56447,0.3908 0.59073,0.3908 0.009,0 0.0534,-0.0186 0.0983,-0.0413 z m -0.42447,-1.75495 c -0.16949,-0.11223 -0.36982,-0.24375 -0.44517,-0.29229 -0.24533,-0.15801 -1.05827,-0.81119 -1.52449,-1.2249 -0.89756,-0.79646 -2.06314,-2.07419 -2.64771,-2.90247 -0.22206,-0.31463 -0.52394,-0.76633 -0.63432,-0.94911 -0.0615,-0.10183 -0.15237,-0.25179 -0.20196,-0.33325 -0.0496,-0.0815 -0.20958,-0.37307 -0.35555,-0.648 -0.59369,-1.11828 -1.02312,-2.29326 -1.32625,-3.6288 -0.1999,-0.88075 -0.33515,-2.51739 -0.28138,-3.40501 l 0.0234,-0.38718 0.52845,-0.11612 c 1.3235,-0.2908 2.57016,-0.7161 3.91448,-1.33544 0.98871,-0.45549 1.86246,-0.923 2.62687,-1.40552 l 0.66875,-0.42213 0.35836,0.2328 c 0.81941,0.53231 1.62918,0.97255 2.76577,1.50365 1.49883,0.70038 2.74972,1.13444 4.20806,1.46023 l 0.39145,0.0874 0.0234,0.38472 c 0.0512,0.83966 -0.0473,2.14287 -0.24169,3.19889 -0.25385,1.37886 -0.95243,3.20253 -1.7092,4.46194 -0.20887,0.34761 -0.26293,0.43552 -0.3415,0.55543 -0.70181,1.07112 -1.58504,2.14144 -2.50558,3.03635 -0.39835,0.38726 -0.9858,0.92118 -1.19049,1.08201 -0.27007,0.2122 -0.99489,0.76262 -1.08634,0.82496 -0.29033,0.19789 -0.65452,0.42583 -0.68038,0.42583 -0.0159,0 -0.1676,-0.0918 -0.33709,-0.20404 z"
       id="path5113"
       inkscape:connector-curvature="0"
       inkscape:export-xdpi="96"
       inkscape:export-ydpi="96" />
    <path
       style="fill:#000000;stroke:none;stroke-width:0.15497023"
       d="m 194.20162,136.6888 a 11.622768,11.622768 0 0 0 -11.62277,11.62277 11.622768,11.622768 0 0 0 11.62277,11.62277 11.622768,11.622768 0 0 0 11.62277,-11.62277 11.622768,11.622768 0 0 0 -11.62277,-11.62277 z m 0,1.32845 a 10.294452,10.294452 0 0 1 10.29462,10.29432 10.294452,10.294452 0 0 1 -10.29462,10.29463 10.294452,10.294452 0 0 1 -10.29432,-10.29463 10.294452,10.294452 0 0 1 10.29432,-10.29432 z"
       id="path5197"
       inkscape:connector-curvature="0"
       inkscape:export-xdpi="96"
       inkscape:export-ydpi="96" />
    <circle
       r="9.0309315"
       cy="148.31163"
       cx="194.20171"
       id="circle5199"
       style="fill:#000000;stroke:none;stroke-width:0.12041242"
       inkscape:export-xdpi="96"
       inkscape:export-ydpi="96" />
    <rect
       y="95.676903"
       x="185.15831"
       height="2.8721013"
       width="18.152172"
       id="rect5214"
       style="fill:#000000;stroke:none;stroke-width:0.1997893"
       inkscape:export-xdpi="96"
       inkscape:export-ydpi="96" />
    <rect
       transform="matrix(0.0021109,0.99999777,-0.99999489,0.00319588,0,0)"
       y="-195.49063"
       x="88.532707"
       height="2.9810083"
       width="18.339836"
       id="rect5216"
       style="fill:#000000;stroke:none;stroke-width:0.20459139"
       inkscape:export-xdpi="96"
       inkscape:export-ydpi="96" />
    <path
       inkscape:connector-curvature="0"
       inkscape:export-ydpi="96"
       inkscape:export-xdpi="96"
       id="path5260"
       d="m 202.47028,4.6621227 a 6.873345,12.411693 40.864291 0 0 -2.41075,0.52073 l -0.0116,-0.02347 -0.24921,0.125927 a 6.873345,12.411693 40.864291 0 0 -2.66533,1.346179 l -7.64411,3.8620623 3.18993,-0.10531 -5.70688,2.18245 1.91897,0.9943 -6.99914,3.23397 4.18181,0.81365 -3.99163,2.50914 6.03575,-0.58999 -10.89295,12.5909 a 6.6425561,18.151722 38.846698 0 1 6.75265,-0.27076 6.6425561,18.151722 38.846698 0 1 0.26193,5.09874 l 9.82928,-11.36242 0.4873,5.91415 1.927,-4.85012 1.7632,5.04085 2.19348,-7.39097 1.26015,1.75505 1.33883,-5.9623 0.35458,3.17357 3.11531,-9.29321 a 6.873345,12.411693 40.864291 0 0 0.57969,-1.72805 l 0.0651,-0.19541 -0.012,-0.004 a 6.873345,12.411693 40.864291 0 0 -1.18447,-6.3796483 6.873345,12.411693 40.864291 0 0 -3.48705,-1.006138 z m 2.14055,2.231108 c -0.3004,3.2009223 -0.0226,5.1021223 -3.18257,8.7546523 -3.15995,3.65254 -4.07699,2.43394 -5.43287,1.26089 -1.35593,-1.173 -2.63726,-1.85588 0.52268,-5.50842 3.15996,-3.6525333 4.85876,-3.6793833 8.09276,-4.5071223 z m -4.00445,3.2636323 c -0.33334,-0.0222 -0.6889,0.12167 -0.94319,0.41559 l -0.69804,0.80666 c -0.40681,0.47029 -0.39662,1.14188 0.0234,1.50521 l 0.56225,0.48629 c 0.41998,0.3633 1.08652,0.27713 1.49336,-0.19313 l 0.69804,-0.80666 c 0.40682,-0.4703 0.39558,-1.14185 -0.0244,-1.50518 l -0.5617,-0.48634 c -0.15751,-0.13622 -0.34969,-0.20915 -0.54967,-0.22247 z m -5.07391,0.92763 c -1.91451,2.28611 -2.23408,3.51152 -1.85489,4.38884 -0.5589,0.28918 -0.85613,-0.0461 -1.23567,-0.37445 -0.55864,-0.48367 -1.08674,-0.76492 0.21563,-2.27031 1.13576,-1.3128 1.83604,-1.49422 2.87493,-1.74408 z m 6.62404,5.13925 c -0.12382,1.31925 -0.01,2.10277 -1.31234,3.60817 -1.30238,1.50536 -1.67929,1.00313 -2.23812,0.51967 -0.41553,-0.36007 -0.814,-0.60849 -0.45441,-1.332 0.92685,0.052 2.11659,-0.61319 4.00487,-2.79584 z m -7.5677,0.66208 c 0.28238,-0.007 0.49886,0.15209 0.72126,0.34962 0.0728,0.0644 0.14564,0.13244 0.2222,0.2006 0.61186,0.54605 1.19451,0.86607 -0.29884,2.5499 -1.49332,1.68388 -2.27546,1.69201 -3.77276,2.06761 0.17241,-1.48151 0.0648,-2.36238 1.55816,-4.04622 0.73502,-0.82877 1.20718,-1.11271 1.57024,-1.12181 z"
       style="fill:#000000;stroke:none;stroke-width:0.21985333" />
    <path
       style="fill:#000000;stroke:none;stroke-width:0.23015201"
       d="m 174.63166,202.0065 3.62149,7.30328 -5.06519,1.76087 -1.38186,-2.44118 z"
       id="rect5275"
       inkscape:connector-curvature="0"
       sodipodi:nodetypes="ccccc"
       inkscape:export-xdpi="96"
       inkscape:export-ydpi="96" />
    <path
       style="fill:#000000;stroke:none;stroke-width:0.23015201"
       d="m 171.47793,200.73662 5.36129,8.72228 c 0.66551,-0.53947 -2.17184,1.60279 -3.3822,2.45732 l -2.15596,-2.36778 z"
       id="rect5275-9"
       inkscape:connector-curvature="0"
       sodipodi:nodetypes="ccccc"
       inkscape:export-xdpi="96"
       inkscape:export-ydpi="96" />
    <path
       sodipodi:nodetypes="ccccc"
       inkscape:connector-curvature="0"
       id="path5293"
       d="m 182.34718,210.47756 -6.93418,-4.28605 -2.22504,4.87914 2.35174,1.42999 z"
       style="fill:#000000;stroke:none;stroke-width:0.23015201"
       inkscape:export-xdpi="96"
       inkscape:export-ydpi="96" />
    <path
       sodipodi:nodetypes="ccccc"
       inkscape:connector-curvature="0"
       id="path5295"
       d="m 183.31777,213.73587 -8.18496,-6.15047 c 0.59912,-0.61236 -1.77452,2.02162 -2.73808,3.14712 l 2.13301,2.35866 z"
       style="fill:#000000;stroke:none;stroke-width:0.23015201"
       inkscape:export-xdpi="96"
       inkscape:export-ydpi="96" />
    <path
       style="fill:#000000;stroke:none;stroke-width:0.13377365"
       d="m 189.40647,221.74697 a 16.62121,16.62121 0 0 0 -16.62112,16.62111 16.62121,16.62121 0 0 0 0.0847,1.53056 h 33.08128 a 16.62121,16.62121 0 0 0 0.0766,-1.53056 16.62121,16.62121 0 0 0 -16.62138,-16.62111 z m 7.7398,7.07092 a 3.5305024,3.5305024 0 0 1 3.53063,3.53038 3.5305024,3.5305024 0 0 1 -3.53063,3.53063 3.5305024,3.5305024 0 0 1 -3.53037,-3.53063 3.5305024,3.5305024 0 0 1 3.53037,-3.53038 z m 0.66886,2.19761 a 0.75947661,0.75947661 0 0 0 -0.75953,0.75952 0.75947661,0.75947661 0 0 0 0.75953,0.75954 0.75947661,0.75947661 0 0 0 0.75954,-0.75954 0.75947661,0.75947661 0 0 0 -0.75954,-0.75952 z m -24.89862,9.26539 a 16.62121,16.62121 0 0 0 16.48996,14.70831 16.62121,16.62121 0 0 0 16.49988,-14.70831 z"
       id="path5297"
       inkscape:connector-curvature="0" />
    <path
       style="fill:#1a1a1a;stroke:none;stroke-width:0.05225684"
       d="m 189.49953,260.77485 h 1.01938 l -0.0121,4.04699 1.15947,8.12514 0.0425,7.59169 -1.6631,0.0119 h -1.52163 l 0.0182,-7.54863 0.9452,-8.18008 z"
       id="rect5319"
       inkscape:connector-curvature="0"
       sodipodi:nodetypes="cccccccccc" />
    <rect
       style="fill:#1a1a1a;stroke:none;stroke-width:0.06732449"
       id="rect5322"
       width="30.793413"
       height="5.2496972"
       x="174.83022"
       y="277.66983" />
    <rect
       style="fill:#1a1a1a;stroke:none;stroke-width:0.08136498"
       id="rect5324"
       width="1.0688747"
       height="22.62587"
       x="174.54604"
       y="265.116" />
    <rect
       y="265.23605"
       x="205.37004"
       height="22.62587"
       width="1.0688747"
       id="rect5326"
       style="fill:#1a1a1a;stroke:none;stroke-width:0.08136498" />
    <path
       style="fill:#1a1a1a;stroke:none;stroke-width:0.08136498"
       d="m 188.40761,278.41378 h 1.84381 1.84381 l 2.53196,6.77557 v 6.73088 l -4.37577,-0.0447 -4.56472,-0.0447 v -6.73088 z"
       id="rect5328"
       inkscape:connector-curvature="0"
       sodipodi:nodetypes="ccccccccc" />
    <path
       style="fill:#1a1a1a;stroke:none;stroke-width:0.21327662"
       d="m 78.437588,76.627288 c -1.324919,0.01476 -3.437517,2.005047 -3.437517,2.005047 L 60.184439,94.008656 c 0,0 -0.713356,0.717566 -0.917257,1.236618 -0.241975,0.615974 -0.234093,1.993159 -0.234093,1.993159 l 0.03359,63.590947 19.37091,-0.42788 19.37091,0.42788 0.03359,-63.590947 c 0,0 0.0079,-1.377185 -0.234095,-1.993159 -0.203902,-0.519052 -0.917258,-1.236618 -0.917258,-1.236618 L 81.875105,78.632335 c 0,0 -2.112597,-1.990286 -3.437517,-2.005047 z m -0.267165,8.285284 c 0.777449,0.01 2.016929,1.354955 2.016929,1.354955 l 8.693525,10.391614 c 0,0 0.41882,0.484828 0.53847,0.835607 0.141983,0.41628 0.137459,1.347205 0.137459,1.347205 l -1.02371,3.050457 c 0,0 -0.664247,1.69023 -1.637625,2.389 -0.973376,0.69878 -3.357417,0.65423 -3.357417,0.65423 l -9.681065,0.0176 c 0,0 -2.583651,-0.008 -3.632853,-0.64441 -1.049203,-0.63664 -1.861902,-2.40243 -1.861902,-2.40243 l -1.578197,-3.064418 c 0,0 -0.0045,-0.930925 0.137459,-1.347205 0.119649,-0.350779 0.53795,-0.835607 0.53795,-0.835607 l 8.693529,-10.391614 c 0,0 1.239996,-1.344953 2.017448,-1.354955 z"
       id="rect5372"
       inkscape:connector-curvature="0" />
    <path
       style="fill:#1a1a1a;stroke:none;stroke-width:0.26458332"
       d="m 62.5495,146.70004 h 29.619419 c 2.722184,0 5.921493,2.38494 4.91369,4.91369 l -5.746295,14.41846 c -1.007803,2.52875 -2.191506,4.91369 -4.91369,4.91369 H 69.231238 c -2.722185,0 -3.769118,-2.44383 -4.913691,-4.91369 l -6.681738,-14.41846 c -1.144573,-2.46986 2.191506,-4.91369 4.913691,-4.91369 z"
       id="rect5384"
       inkscape:connector-curvature="0"
       sodipodi:nodetypes="sssssssss" />
    <rect
       style="fill:#1a1a1a;stroke:none;stroke-width:0.22458003"
       id="rect5387"
       width="5.3453903"
       height="24.455162"
       x="22.851543"
       y="133.1441"
       ry="2.6726952" />
    <rect
       ry="2.6726952"
       y="116.03886"
       x="44.233105"
       height="24.455162"
       width="5.3453903"
       id="rect5389"
       style="fill:#1a1a1a;stroke:none;stroke-width:0.22458003" />
    <path
       style="fill:#1a1a1a;stroke:none;stroke-width:0.41324988"
       inkscape:transform-center-x="4.494568"
       inkscape:transform-center-y="-148.42643"
       d="m 59.066678,160.82938 -12.67121,-0.1583 -12.67121,-0.15831 -20.956571,-0.1583 c 0,0 -2.16092,-0.0698 -2.28336,-0.67802 -0.12243,-0.60824 1.89596,-2.69852 1.89596,-2.69852 l 21.370961,-19.78897 12.68471,-11.50359 12.6847,-11.5036 -0.0135,11.6619 -0.0135,11.6619 -0.0135,11.6619 z"
       id="path5398"
       inkscape:connector-curvature="0"
       sodipodi:nodetypes="cccczcccccccc" />
    <rect
       ry="2.6726952"
       y="133.1441"
       x="-134.02364"
       height="24.455162"
       width="5.3453903"
       id="rect5400"
       style="fill:#1a1a1a;stroke:none;stroke-width:0.22458003"
       transform="scale(-1,1)" />
    <rect
       style="fill:#1a1a1a;stroke:none;stroke-width:0.22458003"
       id="rect5402"
       width="5.3453903"
       height="24.455162"
       x="-112.64207"
       y="116.03886"
       ry="2.6726952"
       transform="scale(-1,1)" />
    <path
       sodipodi:nodetypes="cccczcccccccc"
       inkscape:connector-curvature="0"
       id="path5404"
       d="m 97.808497,160.82938 12.671213,-0.1583 12.67121,-0.15831 20.95657,-0.1583 c 0,0 2.16092,-0.0698 2.28336,-0.67802 0.12243,-0.60824 -1.89596,-2.69852 -1.89596,-2.69852 l -21.37096,-19.78897 -12.68471,-11.50359 -12.684703,-11.5036 0.0135,11.6619 0.0135,11.6619 0.0135,11.6619 z"
       inkscape:transform-center-y="-148.42643"
       inkscape:transform-center-x="-4.4945677"
       style="fill:#1a1a1a;stroke:none;stroke-width:0.41324988" />
    <path
       id="path5417"
       d="m 78.437588,178.30289 c -1.324919,0.0148 -3.437517,2.00505 -3.437517,2.00505 l -14.815632,15.37632 c 0,0 -0.713356,0.71756 -0.917257,1.23661 -0.241975,0.61598 -0.234093,1.99316 -0.234093,1.99316 l 0.03359,63.59095 19.37091,-0.42788 19.370911,0.42788 0.03359,-63.59095 c 0,0 0.0079,-1.37718 -0.234095,-1.99316 -0.203901,-0.51905 -0.917258,-1.23661 -0.917258,-1.23661 L 81.875105,180.30794 c 0,0 -2.112597,-1.99029 -3.437517,-2.00505 z"
       style="fill:#1a1a1a;stroke:none;stroke-width:0.21327662"
       inkscape:connector-curvature="0" />
    <path
       sodipodi:nodetypes="sssssssss"
       inkscape:connector-curvature="0"
       id="path5419"
       d="m 62.5495,248.37565 h 29.619419 c 2.722184,0 5.921493,2.38494 4.91369,4.91369 l -5.746295,14.41846 c -1.007803,2.52875 -2.191506,4.91369 -4.91369,4.91369 H 69.231238 c -2.722185,0 -3.769118,-2.44383 -4.913691,-4.91369 l -6.681738,-14.41846 c -1.144573,-2.46986 2.191506,-4.91369 4.913691,-4.91369 z"
       style="fill:#1a1a1a;stroke:none;stroke-width:0.26458332" />
    <rect
       ry="2.6726952"
       y="234.8197"
       x="22.851543"
       height="24.455162"
       width="5.3453903"
       id="rect5421"
       style="fill:#1a1a1a;stroke:none;stroke-width:0.22458003" />
    <rect
       style="fill:#1a1a1a;stroke:none;stroke-width:0.22458003"
       id="rect5423"
       width="5.3453903"
       height="24.455162"
       x="44.233105"
       y="217.71445"
       ry="2.6726952" />
    <path
       sodipodi:nodetypes="cccczcccccccc"
       inkscape:connector-curvature="0"
       id="path5425"
       d="m 59.066678,262.50499 -12.67121,-0.1583 -12.67121,-0.15831 -20.956571,-0.1583 c 0,0 -2.16092,-0.0698 -2.28336,-0.67802 -0.12243,-0.60824 1.89596,-2.69852 1.89596,-2.69852 l 21.370961,-19.78897 12.68471,-11.5036 12.6847,-11.5036 -0.0135,11.6619 -0.0135,11.66191 -0.0135,11.6619 z"
       inkscape:transform-center-y="-148.42643"
       inkscape:transform-center-x="4.494568"
       style="fill:#1a1a1a;stroke:none;stroke-width:0.41324988" />
    <rect
       transform="scale(-1,1)"
       style="fill:#1a1a1a;stroke:none;stroke-width:0.22458003"
       id="rect5427"
       width="5.3453903"
       height="24.455162"
       x="-134.02364"
       y="234.8197"
       ry="2.6726952" />
    <rect
       transform="scale(-1,1)"
       ry="2.6726952"
       y="217.71445"
       x="-112.64207"
       height="24.455162"
       width="5.3453903"
       id="rect5429"
       style="fill:#1a1a1a;stroke:none;stroke-width:0.22458003" />
    <path
       style="fill:#1a1a1a;stroke:none;stroke-width:0.41324988"
       inkscape:transform-center-x="-4.4945677"
       inkscape:transform-center-y="-148.42643"
       d="m 97.808497,262.50499 12.671213,-0.1583 12.67121,-0.15831 20.95657,-0.1583 c 0,0 2.16092,-0.0698 2.28336,-0.67802 0.12243,-0.60824 -1.89596,-2.69852 -1.89596,-2.69852 l -21.37096,-19.78897 -12.68471,-11.5036 -12.684703,-11.5036 0.0135,11.6619 0.0135,11.66191 0.0135,11.6619 z"
       id="path5431"
       inkscape:connector-curvature="0"
       sodipodi:nodetypes="cccczcccccccc" />
  </g>
</svg>
