<?xml version="1.0" encoding="UTF-8" standalone="no"?>
<!-- Created with Inkscape (http://www.inkscape.org/) -->

<svg
   xmlns:dc="http://purl.org/dc/elements/1.1/"
   xmlns:cc="http://creativecommons.org/ns#"
   xmlns:rdf="http://www.w3.org/1999/02/22-rdf-syntax-ns#"
   xmlns:svg="http://www.w3.org/2000/svg"
   xmlns="http://www.w3.org/2000/svg"
   xmlns:xlink="http://www.w3.org/1999/xlink"
   xmlns:sodipodi="http://sodipodi.sourceforge.net/DTD/sodipodi-0.dtd"
   xmlns:inkscape="http://www.inkscape.org/namespaces/inkscape"
   width="210mm"
   height="297mm"
   viewBox="0 0 210 297"
   version="1.1"
   id="svg8"
   inkscape:version="0.92.3 (2405546, 2018-03-11)"
   sodipodi:docname="vaisseaux ennemis.svg">
  <defs
     id="defs2" />
  <sodipodi:namedview
     id="base"
     pagecolor="#ffffff"
     bordercolor="#666666"
     borderopacity="1.0"
     inkscape:pageopacity="0.0"
     inkscape:pageshadow="2"
     inkscape:zoom="1"
     inkscape:cx="657.77596"
     inkscape:cy="479.53983"
     inkscape:document-units="mm"
     inkscape:current-layer="layer2"
     showgrid="false"
     showguides="true"
     inkscape:guide-bbox="true"
     inkscape:measure-start="0,0"
     inkscape:measure-end="0,0"
     inkscape:window-width="1920"
     inkscape:window-height="1018"
     inkscape:window-x="-8"
     inkscape:window-y="-8"
     inkscape:window-maximized="1">
    <sodipodi:guide
       position="74.718436,106.89967"
       orientation="1,0"
       id="guide4675"
       inkscape:locked="false" />
  </sodipodi:namedview>
  <metadata
     id="metadata5">
    <rdf:RDF>
      <cc:Work
         rdf:about="">
        <dc:format>image/svg+xml</dc:format>
        <dc:type
           rdf:resource="http://purl.org/dc/dcmitype/StillImage" />
        <dc:title></dc:title>
      </cc:Work>
    </rdf:RDF>
  </metadata>
  <g
     inkscape:label="Calque 1"
     inkscape:groupmode="layer"
     id="layer1" />
  <g
     inkscape:groupmode="layer"
     id="layer2"
     inkscape:label="Calque 2">
    <path
       style="fill:#999999;stroke-width:0.26458332"
       d="m 24.019862,51.311164 c -10e-5,-3.9e-4 -4.2e-4,-6.5e-4 -5.2e-4,-10e-4 0,-4.2e-4 0,-6.1e-4 0,-10e-4 -2.90792,-11.26645 -3.95131,-16.51715 -10.789003,-20.1874 0.25599,-6.86863 2.195103,-12.84011 5.646163,-18.34203 -1.89439,10.59466 1.84471,14.2111 5.14284,16.15767 3.29813,-1.94657 7.03723,-5.56301 5.14284,-16.15767 3.45106,5.50192 5.39018,11.4734 5.64617,18.34203 -6.8377,3.67025 -7.88057,8.92095 -10.78849,20.1874 0,8.4e-4 0,10e-4 0,0.002 z m -0.001,-27.5146 c -1.77647,-0.0216 -2.39055,-1.45623 -2.39055,-5.34903 0,-3.89314 0.0247,-7.18138 2.39055,-9.6175005 v -0.002 c 2.6e-4,2.6e-4 2.6e-4,7.6e-4 5.2e-4,10e-4 3.4e-4,-3.5e-4 6.9e-4,-6.8e-4 0.001,-10e-4 v 0.002 c 2.36581,2.4361205 2.39004,5.7243605 2.39004,9.6175005 0,3.8928 -0.61356,5.32744 -2.39004,5.34903 -5.3e-4,0 -0.001,-10e-6 -0.002,0 z"
       id="path14"
       inkscape:connector-curvature="0" />
    <path
       style="fill:#999999;stroke-width:0.26458332"
       d="m 35.028265,95.47201 c -2.90835,-11.26797 -3.95138,-16.51897 -10.78952,-20.18946 0.25599,-6.86864 2.19562,-12.84063 5.64668,-18.34255 -1.89439,10.59465 1.84471,14.21162 5.14284,16.15818 3.29813,-1.94656 7.03723,-5.56353 5.14284,-16.15818 3.45106,5.50192 5.39069,11.47391 5.64668,18.34255 -6.83814,3.67049 -7.88117,8.92149 -10.78952,20.18946 z m -6.48281,-1.08624 c -1.12374,-0.004 -2.54484,-0.20289 -3.60598,-0.54053 0.40048,-0.67796 4.77965,-3.28249 5.93039,-3.28249 1.15073,0 1.88515,1.18339 1.90169,2.16628 -0.19887,0.65258 -1.5269,1.32904 -3.22564,1.59318 -0.28427,0.0442 -0.62588,0.0648 -1.00046,0.0636 z m 12.96562,0 c -0.37458,0.001 -0.71619,-0.0194 -1.00046,-0.0636 -1.69874,-0.26413 -3.02677,-0.9406 -3.22564,-1.59318 0.0165,-0.98289 0.75096,-2.16628 1.90169,-2.16628 1.15074,0 5.52991,2.60454 5.93039,3.28249 -1.06114,0.33764 -2.48224,0.5367 -3.60598,0.54053 z m -21.35942,-3.93412 c -0.29081,-0.003 -0.58268,-0.0118 -0.87489,-0.0274 C 14.601605,90.1745 6.9781145,86.23602 5.1556645,82.17875 13.291045,81.63807 18.591325,80.76848 23.411915,76.92016 c 3.67966,1.49641 6.8278,5.96139 7.07761,10.02109 -1.83881,2.18152 -5.9757,3.55321 -10.33787,3.51039 z m 29.75322,0 c -4.36217,0.0428 -8.49906,-1.32887 -10.33787,-3.51039 0.24981,-4.0597 3.39794,-8.52468 7.0776,-10.02109 4.82059,3.84832 10.12088,4.71791 18.25625,5.25859 -1.82245,4.05727 -9.44593,7.99575 -14.1211,8.2455 -0.2922,0.0156 -0.58407,0.0245 -0.87488,0.0274 z"
       id="path14-1"
       inkscape:connector-curvature="0" />
    <path
       style="fill:#999999;stroke-width:0.36299366"
       d="m 134.68932,5.0022982 v 0.0269 c -2.1683,2.00813 -3.67779,6.4018498 -3.69796,14.2125698 -0.0175,6.79161 1.79243,14.37912 3.68194,16.11839 v 0.0563 c 0.01,-0.008 0.0196,-0.0192 0.0294,-0.0279 0.01,0.009 0.0196,0.0195 0.0295,0.0279 v -0.0563 c 1.88952,-1.73927 3.69947,-9.32678 3.68195,-16.11839 -0.0202,-7.81072 -1.52966,-12.2044398 -3.69797,-14.2125698 v -0.0269 c -0.005,0.004 -0.009,0.009 -0.0134,0.0134 -0.004,-0.004 -0.009,-0.009 -0.0134,-0.0134 z M 122.21463,16.757128 c -10.55078,7.11608 -15.4371,18.10034 -19.99309,32.82126 24.52891,5.317616 32.46985,42.403846 32.46985,75.936442 0.006,-5.71863 0.006,-4.43585 0.0114,-8.50388 0.005,4.06803 0.005,2.78525 0.0114,8.50388 0,-33.532596 7.94093,-70.618826 32.46985,-75.936442 -4.55599,-14.72092 -9.44231,-25.70518 -19.9931,-32.82126 -0.91268,14.67107 -5.65684,20.6643 -12.48812,29.12484 -6.83134,-8.46054 -11.5755,-14.45377 -12.48819,-29.12484 z m -21.84156,36.813776 c -5.757729,3.32797 -23.413208,6.20763 -35.897548,0.31936 0.577519,8.64856 6.014675,17.51326 13.227616,21.10672 7.918799,0 29.120982,-8.02905 31.798062,-16.5039 -3.26867,-2.46571 -4.81883,-3.36608 -9.12813,-4.92218 z m 68.65937,0 c -4.3093,1.5561 -5.85945,2.45647 -9.12812,4.92218 2.67708,8.47485 23.87927,16.5039 31.79806,16.5039 7.21295,-3.59346 12.65009,-12.45816 13.22761,-21.10672 -12.48433,5.88827 -30.13982,3.00861 -35.89755,-0.31936 z m -55.85395,8.67492 c -3.00949,4.88651 -17.462625,14.66479 -31.502467,16.0538 4.170974,2.68473 12.440166,6.96582 19.823597,8.18503 8.78641,-0.31534 16.33061,-6.25982 19.39003,-13.01833 -2.50258,-5.12313 -4.37037,-7.3062 -7.71116,-11.2205 z m 43.04854,0 c -3.34079,3.9143 -5.20858,6.09737 -7.71116,11.2205 3.05942,6.75851 10.60362,12.70299 19.39003,13.01833 7.38343,-1.21921 15.65261,-5.5003 19.8236,-8.18503 -14.03985,-1.38901 -28.49298,-11.16729 -31.50247,-16.0538 z m -33.10651,16.46049 c -2.97246,3.96321 -6.52768,7.95339 -14.35881,9.63042 4.0383,1.0199 11.80421,1.8745 18.31051,2.19212 -0.80783,-3.64647 -2.49327,-8.24383 -3.9517,-11.82254 z m 23.16448,0 c -1.45843,3.57871 -3.14387,8.17607 -3.9517,11.82254 6.5063,-0.31762 14.27221,-1.17222 18.31051,-2.19212 -7.83113,-1.67703 -11.38635,-5.66721 -14.35881,-9.63042 z"
       id="path3793"
       inkscape:connector-curvature="0" />
    <path
       style="fill:#999999;stroke-width:0.26490849"
       d="m 117.69876,153.03802 v 0.002 c -2.36586,2.44211 -2.39056,5.73845 -2.39056,9.64116 0,3.90238 0.71984,6.3487 2.39107,6.90955 0,-5.03873 4e-5,-11.72114 0.001,-16.55071 v -0.002 l -0.001,0.001 c -2.6e-4,-2.4e-4 -2.3e-4,-8e-4 -5.3e-4,-0.001 z m -23.408958,1.96462 c -0.9765,0.49093 -1.656241,1.49756 -1.99781,2.68032 0.185859,2.03653 1.56442,4.67127 1.99781,5.24356 0.43339,-0.57229 1.811951,-3.20703 1.997811,-5.24356 -0.341569,-1.18276 -1.021311,-2.18939 -1.997811,-2.68032 z m 14.931948,1.61448 c -6.1872,2.80001 -7.12638,3.0044 -12.332107,3.28976 -0.809122,2.53567 -2.109629,4.94172 -2.617928,5.61291 -0.510818,-0.67452 -1.821116,-3.10122 -2.629297,-5.65071 -4.851003,-0.34189 -8.142027,-3.36749 -11.591955,-4.77915 1.917652,10.39695 10.735367,17.64694 23.149437,19.66309 0.25331,-6.98619 3.6879,-14.92439 6.02185,-18.1359 z m 3.33468,0.38232 c -3.45106,5.51544 -5.39017,11.50162 -5.64616,18.38714 6.83769,3.67928 7.88108,8.94288 10.789,20.23705 v 0.001 c 1e-4,2.7e-4 5.3e-4,5.4e-4 5.3e-4,0.001 v -0.002 c -5.3e-4,-14.37983 -5.3e-4,-16.50045 -5.3e-4,-22.4268 -3.29813,-1.95134 -7.03723,-5.57667 -5.14284,-16.19739 z"
       id="path4677"
       inkscape:connector-curvature="0"
       sodipodi:nodetypes="ccscccccccccccccccccccccccccc" />
    <use
       x="0"
       y="0"
       xlink:href="#path4677"
       id="use4679"
       transform="matrix(-1,0,0,1,235.39854,1.2290043e-6)"
       width="100%"
       height="100%" />
  </g>
</svg>
