<?xml version="1.0" encoding="UTF-8" standalone="no"?>
<!-- Created with Inkscape (http://www.inkscape.org/) -->

<svg
   xmlns:dc="http://purl.org/dc/elements/1.1/"
   xmlns:cc="http://creativecommons.org/ns#"
   xmlns:rdf="http://www.w3.org/1999/02/22-rdf-syntax-ns#"
   xmlns:svg="http://www.w3.org/2000/svg"
   xmlns="http://www.w3.org/2000/svg"
   xmlns:xlink="http://www.w3.org/1999/xlink"
   xmlns:sodipodi="http://sodipodi.sourceforge.net/DTD/sodipodi-0.dtd"
   xmlns:inkscape="http://www.inkscape.org/namespaces/inkscape"
   width="210mm"
   height="297mm"
   viewBox="0 0 210 297"
   version="1.1"
   id="svg8"
   inkscape:version="0.92.3 (2405546, 2018-03-11)"
   sodipodi:docname="vaisseaux ennemis.svg">
  <defs
     id="defs2" />
  <sodipodi:namedview
     id="base"
     pagecolor="#ffffff"
     bordercolor="#666666"
     borderopacity="1.0"
     inkscape:pageopacity="0.0"
     inkscape:pageshadow="2"
     inkscape:zoom="0.70710678"
     inkscape:cx="160.82048"
     inkscape:cy="538.39594"
     inkscape:document-units="mm"
     inkscape:current-layer="layer2"
     showgrid="false"
     showguides="true"
     inkscape:guide-bbox="true"
     inkscape:measure-start="0,0"
     inkscape:measure-end="0,0"
     inkscape:window-width="1920"
     inkscape:window-height="1018"
     inkscape:window-x="-8"
     inkscape:window-y="-8"
     inkscape:window-maximized="1">
    <sodipodi:guide
       position="76.439083,184.68325"
       orientation="0,1"
       id="guide10"
       inkscape:locked="false" />
    <sodipodi:guide
       position="76.425721,226.1902"
       orientation="1,0"
       id="guide12"
       inkscape:locked="false" />
  </sodipodi:namedview>
  <metadata
     id="metadata5">
    <rdf:RDF>
      <cc:Work
         rdf:about="">
        <dc:format>image/svg+xml</dc:format>
        <dc:type
           rdf:resource="http://purl.org/dc/dcmitype/StillImage" />
        <dc:title></dc:title>
      </cc:Work>
    </rdf:RDF>
  </metadata>
  <g
     inkscape:label="Calque 1"
     inkscape:groupmode="layer"
     id="layer1" />
  <g
     inkscape:groupmode="layer"
     id="layer2"
     inkscape:label="Calque 2">
    <path
       style="fill:#999999;stroke-width:0.26458332"
       d="m 186.58706,202.54422 c -1e-4,3.9e-4 -4.2e-4,6.5e-4 -5.2e-4,0.001 0,4.2e-4 0,6.1e-4 0,0.001 -2.90792,11.26645 -3.95131,16.51715 -10.789,20.1874 0.25599,6.86863 2.1951,12.84011 5.64616,18.34203 -1.89439,-10.59466 1.84471,-14.2111 5.14284,-16.15767 3.29813,1.94657 7.03723,5.56301 5.14284,16.15767 3.45106,-5.50192 5.39018,-11.4734 5.64617,-18.34203 -6.8377,-3.67025 -7.88057,-8.92095 -10.78849,-20.1874 0,-8.4e-4 0,-0.001 0,-0.002 z m -0.001,27.5146 c -1.77647,0.0216 -2.39055,1.45623 -2.39055,5.34903 0,3.89314 0.0247,7.18138 2.39055,9.6175 v 0.002 c 2.6e-4,-2.6e-4 2.6e-4,-7.6e-4 5.2e-4,-0.001 3.4e-4,3.5e-4 6.9e-4,6.8e-4 0.001,0.001 v -0.002 c 2.36581,-2.43612 2.39004,-5.72436 2.39004,-9.6175 0,-3.8928 -0.61356,-5.32744 -2.39004,-5.34903 -5.3e-4,0 -0.001,1e-5 -0.002,0 z"
       id="path14"
       inkscape:connector-curvature="0" />
    <path
       style="fill:#999999;stroke-width:0.26458332"
       d="m 176.4673,257.12487 c -2.90835,11.26797 -3.95138,16.51897 -10.78952,20.18946 0.25599,6.86864 2.19562,12.84063 5.64668,18.34255 -1.89439,-10.59465 1.84471,-14.21162 5.14284,-16.15818 3.29813,1.94656 7.03723,5.56353 5.14284,16.15818 3.45106,-5.50192 5.39069,-11.47391 5.64668,-18.34255 -6.83814,-3.67049 -7.88117,-8.92149 -10.78952,-20.18946 z m -6.48281,1.08624 c -1.12374,0.004 -2.54484,0.20289 -3.60598,0.54053 0.40048,0.67796 4.77965,3.28249 5.93039,3.28249 1.15073,0 1.88515,-1.18339 1.90169,-2.16628 -0.19887,-0.65258 -1.5269,-1.32904 -3.22564,-1.59318 -0.28427,-0.0442 -0.62588,-0.0648 -1.00046,-0.0636 z m 12.96562,0 c -0.37458,-0.001 -0.71619,0.0194 -1.00046,0.0636 -1.69874,0.26413 -3.02677,0.9406 -3.22564,1.59318 0.0165,0.98289 0.75096,2.16628 1.90169,2.16628 1.15074,0 5.52991,-2.60454 5.93039,-3.28249 -1.06114,-0.33764 -2.48224,-0.5367 -3.60598,-0.54053 z m -21.35942,3.93412 c -0.29081,0.003 -0.58268,0.0118 -0.87489,0.0274 -4.67516,0.24975 -12.29865,4.18823 -14.1211,8.2455 8.13538,0.54068 13.43566,1.41027 18.25625,5.25859 3.67966,-1.49641 6.8278,-5.96139 7.07761,-10.02109 -1.83881,-2.18152 -5.9757,-3.55321 -10.33787,-3.51039 z m 29.75322,0 c -4.36217,-0.0428 -8.49906,1.32887 -10.33787,3.51039 0.24981,4.0597 3.39794,8.52468 7.0776,10.02109 4.82059,-3.84832 10.12088,-4.71791 18.25625,-5.25859 -1.82245,-4.05727 -9.44593,-7.99575 -14.1211,-8.2455 -0.2922,-0.0156 -0.58407,-0.0245 -0.87488,-0.0274 z"
       id="path14-1"
       inkscape:connector-curvature="0" />
    <path
       style="fill:#999999;stroke-width:0.36299366"
       d="m 76.409492,11.190154 c -2.182924,1.996466 -4.149613,11.22689 -4.149613,24.996935 0,13.770045 2.238934,23.427979 4.149613,25.061454 z M 63.928746,42.589107 c -10.550774,7.116077 -15.415045,18.100226 -19.971034,32.821151 24.52891,5.317611 32.470213,42.403972 32.470213,75.936572 0.05576,-53.547158 0.05576,-26.083 0,-79.618972 C 69.590464,63.259785 64.841947,57.268408 63.928746,42.589107 Z M 42.109272,79.403156 c -5.75773,3.327968 -23.412879,6.207539 -35.8972181,0.319264 0.57752,8.648564 6.0146681,17.513171 13.2276101,21.10663 7.918798,0 29.120532,-8.029083 31.797611,-16.503932 -3.268671,-2.465715 -4.818701,-3.365866 -9.128003,-4.921962 z m 12.805441,8.67455 c -3.009494,4.886505 -17.46262,14.664954 -31.502464,16.053964 4.170975,2.68473 12.440138,6.96587 19.823567,8.18508 8.786411,-0.31534 16.330966,-6.25964 19.390385,-13.018143 -2.502583,-5.123144 -4.370698,-7.306602 -7.711488,-11.220901 z m 9.941914,16.460914 c -2.972457,3.9632 -6.527679,7.95294 -14.35881,9.62997 4.038297,1.0199 11.804318,1.87452 18.31062,2.19214 -0.807835,-3.64647 -2.493382,-8.24341 -3.95181,-11.82211 z"
       id="path3793"
       inkscape:connector-curvature="0"
       sodipodi:nodetypes="csccccccccccccccccccccc" />
    <use
       x="0"
       y="0"
       xlink:href="#path3793"
       id="use3796"
       transform="matrix(-1,0,0,1,152.87816,0)"
       width="100%"
       height="100%" />
  </g>
</svg>
