<?xml version="1.0" encoding="UTF-8" standalone="no"?>
<!-- Created with Inkscape (http://www.inkscape.org/) -->

<svg
   xmlns:dc="http://purl.org/dc/elements/1.1/"
   xmlns:cc="http://creativecommons.org/ns#"
   xmlns:rdf="http://www.w3.org/1999/02/22-rdf-syntax-ns#"
   xmlns:svg="http://www.w3.org/2000/svg"
   xmlns="http://www.w3.org/2000/svg"
   xmlns:sodipodi="http://sodipodi.sourceforge.net/DTD/sodipodi-0.dtd"
   xmlns:inkscape="http://www.inkscape.org/namespaces/inkscape"
   width="210mm"
   height="297mm"
   viewBox="0 0 210 297"
   version="1.1"
   id="svg8"
   inkscape:version="0.92.1 r15371"
   sodipodi:docname="vaisseaux ennemis.svg">
  <defs
     id="defs2" />
  <sodipodi:namedview
     id="base"
     pagecolor="#ffffff"
     bordercolor="#666666"
     borderopacity="1.0"
     inkscape:pageopacity="0.0"
     inkscape:pageshadow="2"
     inkscape:zoom="0.5"
     inkscape:cx="687.14464"
     inkscape:cy="414.42724"
     inkscape:document-units="mm"
     inkscape:current-layer="layer2"
     showgrid="false"
     showguides="true"
     inkscape:guide-bbox="true"
     inkscape:measure-start="0,0"
     inkscape:measure-end="0,0"
     inkscape:window-width="1920"
     inkscape:window-height="1017"
     inkscape:window-x="-8"
     inkscape:window-y="-8"
     inkscape:window-maximized="1" />
  <metadata
     id="metadata5">
    <rdf:RDF>
      <cc:Work
         rdf:about="">
        <dc:format>image/svg+xml</dc:format>
        <dc:type
           rdf:resource="http://purl.org/dc/dcmitype/StillImage" />
        <dc:title />
      </cc:Work>
    </rdf:RDF>
  </metadata>
  <g
     inkscape:label="Calque 1"
     inkscape:groupmode="layer"
     id="layer1" />
  <g
     inkscape:groupmode="layer"
     id="layer2"
     inkscape:label="Calque 2">
    <path
       style="fill:#999999;stroke-width:0.26458332"
       d="m 24.019862,51.311164 c -10e-5,-3.9e-4 -4.2e-4,-6.5e-4 -5.2e-4,-10e-4 v -10e-4 c -2.90792,-11.26645 -3.95131,-16.51715 -10.789003,-20.1874 0.25599,-6.86863 2.195103,-12.84011 5.646163,-18.34203 -1.89439,10.59466 1.84471,14.2111 5.14284,16.15767 3.29813,-1.94657 7.03723,-5.56301 5.14284,-16.15767 3.45106,5.50192 5.39018,11.4734 5.64617,18.34203 -6.8377,3.67025 -7.88057,8.92095 -10.78849,20.1874 z m -0.001,-27.5146 c -0.883501,-0.286183 -2.39055,-1.45623 -2.39055,-5.34903 0,-3.89314 0.0247,-7.18138 2.39055,-9.6175005 v -0.002 c 2.6e-4,2.6e-4 2.6e-4,7.6e-4 5.2e-4,10e-4 3.4e-4,-3.5e-4 6.9e-4,-6.8e-4 0.001,-10e-4 v 0.002 c 2.36581,2.4361205 2.39004,5.7243605 2.39004,9.6175005 0,3.8928 -1.440383,4.930565 -2.39004,5.34903 -5.3e-4,0 -0.001,-10e-6 -0.002,0 z"
       id="path14"
       inkscape:connector-curvature="0"
       sodipodi:nodetypes="cccccccccccscccccsccc"
       inkscape:export-xdpi="96"
       inkscape:export-ydpi="96" />
    <path
       style="fill:#999999;stroke-width:0.26458332"
       d="m 114.4803,239.69429 c -2.90835,-11.26797 -3.95138,-16.51897 -10.78952,-20.18946 0.25599,-6.86864 2.19562,-12.84063 5.64668,-18.34255 -1.89439,10.59465 1.84471,14.21162 5.14284,16.15818 3.29813,-1.94656 7.03723,-5.56353 5.14284,-16.15818 3.45106,5.50192 5.3907,11.47391 5.64669,18.34255 -6.83815,3.67049 -7.88118,8.92149 -10.78953,20.18946 z m -6.48281,-1.08624 c -1.12374,-0.004 -2.54484,-0.20289 -3.60598,-0.54053 0.40048,-0.67796 4.77965,-3.28249 5.93039,-3.28249 1.15073,0 1.88515,1.18339 1.90169,2.16628 -0.19887,0.65258 -1.5269,1.32904 -3.22564,1.59318 -0.28427,0.0442 -0.62588,0.0648 -1.00046,0.0636 z m 12.96562,0 c -0.37458,0.001 -0.71619,-0.0194 -1.00046,-0.0636 -1.69874,-0.26413 -3.02677,-0.9406 -3.22564,-1.59318 0.0165,-0.98289 0.75096,-2.16628 1.90169,-2.16628 1.15074,0 5.52992,2.60454 5.9304,3.28249 -1.06114,0.33764 -2.48225,0.5367 -3.60599,0.54053 z m -21.359417,-3.93412 c -0.29081,-0.003 -0.58268,-0.0118 -0.87489,-0.0274 -4.67516,-0.24975 -12.29865,-4.18823 -14.1211,-8.2455 8.13538,-0.54068 12.37733,-0.8811 17.197917,-4.72942 3.67966,1.49641 6.8278,5.96139 7.07761,10.02109 -1.83881,2.18152 -4.91737,3.02404 -9.279537,2.98122 z m 29.753227,0 c -4.36217,0.0428 -7.11001,-0.74528 -8.94882,-2.9268 0.24981,-4.0597 3.39794,-8.52468 7.07761,-10.02109 4.82059,3.84832 8.73182,4.13432 16.86719,4.675 -1.82245,4.05727 -9.44593,7.99575 -14.1211,8.2455 -0.2922,0.0156 -0.58407,0.0245 -0.87488,0.0274 z"
       id="path14-1"
       inkscape:connector-curvature="0"
       inkscape:export-xdpi="96"
       inkscape:export-ydpi="96"
       sodipodi:nodetypes="cccccccccscccccscsccccccccccccccccc" />
    <path
       style="fill:#999999;stroke-width:0.36299366"
       d="m 132.44426,49.903579 v 0.0269 c -2.1683,2.00813 -3.67779,6.40185 -3.69796,14.21257 -0.0175,6.79161 1.79243,14.37912 3.68194,16.11839 v 0.0563 c 0.01,-0.008 0.0196,-0.0192 0.0294,-0.0279 0.01,0.009 0.0196,0.0195 0.0295,0.0279 v -0.0563 c 1.88952,-1.73927 3.69947,-9.32678 3.68195,-16.11839 -0.0202,-7.81072 -1.52966,-12.20444 -3.69797,-14.21257 v -0.0269 c -0.005,0.004 -0.009,0.009 -0.0134,0.0134 -0.004,-0.004 -0.009,-0.009 -0.0134,-0.0134 z m -12.47469,11.75483 c -10.55078,7.11608 -15.4371,18.10034 -19.993094,32.82126 24.528914,5.317616 32.469854,42.403841 32.469854,75.936441 0.006,-5.71863 0.006,-4.43585 0.0114,-8.50388 0.005,4.06803 0.005,2.78525 0.0114,8.50388 0,-33.5326 7.94093,-70.618825 32.46985,-75.936441 -4.55599,-14.72092 -9.44231,-25.70518 -19.9931,-32.82126 -0.91268,14.67107 -5.65684,20.6643 -12.48812,29.12484 -6.83134,-8.46054 -11.5755,-14.45377 -12.48819,-29.12484 z M 98.128006,98.472185 c -5.757729,3.327965 -23.413208,6.207625 -35.897548,0.31936 0.577519,8.648555 6.014675,17.513255 13.227616,21.106715 7.918799,0 29.120986,-8.02905 31.798066,-16.5039 -3.26867,-2.46571 -4.81883,-3.36608 -9.128134,-4.922175 z m 68.659374,0 c -4.3093,1.556095 -5.85945,2.456465 -9.12812,4.922175 2.67708,8.47485 23.87927,16.5039 31.79806,16.5039 7.21295,-3.59346 12.65009,-12.45816 13.22761,-21.106715 -12.48433,5.888265 -30.13982,3.008605 -35.89755,-0.31936 z m -55.85395,8.674915 c -3.00949,4.88651 -17.462629,14.66479 -31.502471,16.0538 4.170974,2.68473 12.440166,6.96582 19.823597,8.18503 8.786414,-0.31534 16.330614,-6.25982 19.390034,-13.01833 -2.50258,-5.12313 -4.37037,-7.3062 -7.71116,-11.2205 z m 43.04854,0 c -3.34079,3.9143 -5.20858,6.09737 -7.71116,11.2205 3.05942,6.75851 10.60362,12.70299 19.39003,13.01833 7.38343,-1.21921 15.65261,-5.5003 19.8236,-8.18503 -14.03985,-1.38901 -28.49298,-11.16729 -31.50247,-16.0538 z m -33.10651,16.46049 c -2.97246,3.96321 -6.52768,7.95339 -14.35881,9.63042 4.0383,1.0199 11.80421,1.8745 18.31051,2.19212 -0.80783,-3.64647 -2.49327,-8.24383 -3.9517,-11.82254 z m 23.16448,0 c -1.45843,3.57871 -3.14387,8.17607 -3.9517,11.82254 6.5063,-0.31762 14.27221,-1.17222 18.31051,-2.19212 -7.83113,-1.67703 -11.38635,-5.66721 -14.35881,-9.63042 z"
       id="path3793"
       inkscape:connector-curvature="0" />
    <path
       style="fill:#999999;stroke-width:0.26490849"
       d="m 49.994843,137.07643 c 0,0.001 0,-3.5e-4 0,0.001 0,1.95544 2.67e-4,1.95819 5.16e-4,1.46865 2.49e-4,0.48954 5.16e-4,0.48679 5.16e-4,-1.46865 0,-0.001 0,3.5e-4 0,-0.001 -1.7e-4,1.7e-4 -3.44e-4,3.4e-4 -5.16e-4,5.1e-4 -1.72e-4,-1.7e-4 -3.47e-4,-3.4e-4 -5.16e-4,-5.1e-4 z m 10e-4,0.001 c -5.08e-4,5.68314 -5.35e-4,10.32146 -5.16e-4,16.55145 1.67123,-0.56085 2.391069,-3.00728 2.391069,-6.90966 0,-3.90215 -0.02571,-7.19978 -2.390553,-9.64179 z m -5.16e-4,16.55145 c 1.8e-5,-6.22999 -8e-6,-10.86831 -5.16e-4,-16.55145 -2.364843,2.44201 -2.390553,5.73964 -2.390553,9.64179 0,3.90238 0.719839,6.34881 2.391069,6.90966 z M 26.585936,139.04065 c -0.9765,0.49093 -1.656242,1.49769 -1.997811,2.68046 0.18586,2.03653 1.564421,4.67131 1.997811,5.2436 0.43339,-0.57229 1.811951,-3.20707 1.99781,-5.2436 -0.341569,-1.18277 -1.02131,-2.18953 -1.99781,-2.68046 z m 46.818849,0 c -0.9765,0.49093 -1.65625,1.49769 -1.99781,2.68046 0.18585,2.03653 1.56442,4.67131 1.99781,5.2436 0.43339,-0.57229 1.81195,-3.20707 1.99781,-5.2436 -0.34157,-1.18277 -1.02131,-2.18953 -1.99781,-2.68046 z m -61.058291,0.0873 c 1.917652,10.39695 10.735422,17.64725 23.149492,19.6634 0.253309,-6.98619 3.687905,-14.92433 6.021856,-18.13584 -6.187202,2.80001 -7.126338,3.00436 -12.332065,3.28972 -0.809123,2.53567 -2.109629,4.94139 -2.617928,5.61258 -0.510818,-0.67452 -1.821117,-3.10081 -2.629297,-5.65031 -4.851004,-0.34188 -8.14213,-3.36789 -11.592058,-4.77955 z m 75.297731,0 c -3.44993,1.41166 -6.74106,4.43767 -11.59206,4.77955 -0.80818,2.5495 -2.11848,4.97579 -2.6293,5.65031 -0.5083,-0.67119 -1.8088,-3.07691 -2.617924,-5.61258 -5.205727,-0.28536 -6.144863,-0.48971 -12.332062,-3.28972 2.333947,3.21151 5.768543,11.14965 6.021853,18.13584 12.414063,-2.01615 21.231843,-9.26645 23.149493,-19.6634 z m -42.791705,1.90944 c -3.451061,5.51545 -5.390176,11.50199 -5.646166,18.38751 6.837688,3.67928 9.057984,15.9547 10.789005,20.23701 1.73102,-4.28231 3.951316,-16.55773 10.789004,-20.23701 -0.255989,-6.88552 -2.195105,-12.87206 -5.646166,-18.38751 1.894391,10.62073 -1.844709,14.24613 -5.142838,16.19747 -3.298129,-1.95134 -7.037229,-5.57674 -5.142839,-16.19747 z"
       id="path4677"
       inkscape:connector-curvature="0"
       inkscape:export-xdpi="96"
       inkscape:export-ydpi="96" />
  </g>
</svg>
