<?xml version="1.0" encoding="UTF-8" standalone="no"?>
<!DOCTYPE svg PUBLIC "-//W3C//DTD SVG 1.1//EN"
 "http://www.w3.org/Graphics/SVG/1.1/DTD/svg11.dtd">
<!-- Generated by graphviz version 2.38.0 (20140413.2041)
 -->
<!-- Title: src/Capacites/_Capacites.h Pages: 1 -->
<!--zoomable 308 -->
<svg id="main" version="1.1" xmlns="http://www.w3.org/2000/svg" xmlns:xlink="http://www.w3.org/1999/xlink" xml:space="preserve" onload="init(evt)">
<style type="text/css"><![CDATA[
.edge:hover path { stroke: red; }
.edge:hover polygon { stroke: red; fill: red; }
]]></style>
<script type="text/javascript"><![CDATA[
var edges = document.getElementsByTagName('g');
if (edges && edges.length) {
  for (var i=0;i<edges.length;i++) {
    if (edges[i].id.substr(0,4)=='edge') {
      edges[i].setAttribute('class','edge');
    }
  }
}
]]></script>
        <defs>
                <circle id="rim" cx="0" cy="0" r="7"/>
                <circle id="rim2" cx="0" cy="0" r="3.5"/>
                <g id="zoomPlus">
                        <use xlink:href="#rim" fill="#404040">
                                <set attributeName="fill" to="#808080" begin="zoomplus.mouseover" end="zoomplus.mouseout"/>
                        </use>
                        <path d="M-4,0h8M0,-4v8" fill="none" stroke="white" stroke-width="1.5" pointer-events="none"/>
                </g>
                <g id="zoomMin">
                        <use xlink:href="#rim" fill="#404040">
                                <set attributeName="fill" to="#808080" begin="zoomminus.mouseover" end="zoomminus.mouseout"/>
                        </use>
                        <path d="M-4,0h8" fill="none" stroke="white" stroke-width="1.5" pointer-events="none"/>
                </g>
                <g id="dirArrow">
                        <path fill="none" stroke="white" stroke-width="1.5" d="M0,-3.0v7 M-2.5,-0.5L0,-3.0L2.5,-0.5"/>
                </g>
               <g id="resetDef">
                       <use xlink:href="#rim2" fill="#404040">
                               <set attributeName="fill" to="#808080" begin="reset.mouseover" end="reset.mouseout"/>
                       </use>
               </g>
        </defs>

<script type="text/javascript">
var viewWidth = 681;
var viewHeight = 308;
var sectionId = 'dynsection-0';
</script>
<script xlink:href="svgpan.js"/>
<svg id="graph" class="graph">
<g id="viewport">
<title>src/Capacites/_Capacites.h</title>
<polygon fill="white" stroke="none" points="-4,4 -4,-304 677.497,-304 677.497,4 -4,4"/>
<!-- Node0 -->
<g id="node1" class="node"><title>Node0</title>
<polygon fill="#bfbfbf" stroke="black" points="181.997,-280.5 181.997,-299.5 319.997,-299.5 319.997,-280.5 181.997,-280.5"/>
<text text-anchor="middle" x="250.997" y="-287.5" font-family="Helvetica,sans-Serif" font-size="10.00">src/Capacites/_Capacites.h</text>
</g>
<!-- Node1 -->
<g id="node2" class="node"><title>Node1</title>
<g id="a_node2"><a xlink:href="_cap_test_8h.html" target="_top" xlink:title="CapTest.h">
<polygon fill="white" stroke="black" points="219.997,-224.5 219.997,-243.5 281.997,-243.5 281.997,-224.5 219.997,-224.5"/>
<text text-anchor="middle" x="250.997" y="-231.5" font-family="Helvetica,sans-Serif" font-size="10.00">CapTest.h</text>
</a>
</g>
</g>
<!-- Node0&#45;&gt;Node1 -->
<g id="edge1" class="edge"><title>Node0&#45;&gt;Node1</title>
<path fill="none" stroke="midnightblue" d="M250.997,-280.083C250.997,-273.006 250.997,-262.861 250.997,-253.986"/>
<polygon fill="midnightblue" stroke="midnightblue" points="254.497,-253.751 250.997,-243.751 247.497,-253.751 254.497,-253.751"/>
</g>
<!-- Node13 -->
<g id="node14" class="node"><title>Node13</title>
<g id="a_node14"><a xlink:href="_cap_piou_8h.html" target="_top" xlink:title="CapPiou.h">
<polygon fill="white" stroke="black" points="91.9974,-224.5 91.9974,-243.5 153.997,-243.5 153.997,-224.5 91.9974,-224.5"/>
<text text-anchor="middle" x="122.997" y="-231.5" font-family="Helvetica,sans-Serif" font-size="10.00">CapPiou.h</text>
</a>
</g>
</g>
<!-- Node0&#45;&gt;Node13 -->
<g id="edge20" class="edge"><title>Node0&#45;&gt;Node13</title>
<path fill="none" stroke="midnightblue" d="M230.715,-280.444C209.65,-271.557 176.481,-257.563 152.512,-247.451"/>
<polygon fill="midnightblue" stroke="midnightblue" points="153.759,-244.179 143.184,-243.516 151.038,-250.628 153.759,-244.179"/>
</g>
<!-- Node15 -->
<g id="node16" class="node"><title>Node15</title>
<g id="a_node16"><a xlink:href="_cap_dash_8h.html" target="_top" xlink:title="CapDash.h">
<polygon fill="white" stroke="black" points="313.997,-224.5 313.997,-243.5 379.997,-243.5 379.997,-224.5 313.997,-224.5"/>
<text text-anchor="middle" x="346.997" y="-231.5" font-family="Helvetica,sans-Serif" font-size="10.00">CapDash.h</text>
</a>
</g>
</g>
<!-- Node0&#45;&gt;Node15 -->
<g id="edge25" class="edge"><title>Node0&#45;&gt;Node15</title>
<path fill="none" stroke="midnightblue" d="M266.421,-280.324C281.537,-271.822 304.813,-258.729 322.469,-248.797"/>
<polygon fill="midnightblue" stroke="midnightblue" points="324.612,-251.608 331.612,-243.655 321.18,-245.507 324.612,-251.608"/>
</g>
<!-- Node2 -->
<g id="node3" class="node"><title>Node2</title>
<g id="a_node3"><a xlink:href="_capacite_8h.html" target="_top" xlink:title="Capacite.h">
<polygon fill="white" stroke="black" points="328.997,-168.5 328.997,-187.5 392.997,-187.5 392.997,-168.5 328.997,-168.5"/>
<text text-anchor="middle" x="360.997" y="-175.5" font-family="Helvetica,sans-Serif" font-size="10.00">Capacite.h</text>
</a>
</g>
</g>
<!-- Node1&#45;&gt;Node2 -->
<g id="edge2" class="edge"><title>Node1&#45;&gt;Node2</title>
<path fill="none" stroke="midnightblue" d="M268.671,-224.324C286.392,-215.625 313.901,-202.12 334.286,-192.113"/>
<polygon fill="midnightblue" stroke="midnightblue" points="335.934,-195.203 343.368,-187.655 332.849,-188.919 335.934,-195.203"/>
</g>
<!-- Node6 -->
<g id="node7" class="node"><title>Node6</title>
<g id="a_node7"><a xlink:href="_projectile_8h.html" target="_top" xlink:title="../Projectiles/Projectile.h">
<polygon fill="white" stroke="black" points="125.497,-112.5 125.497,-131.5 248.497,-131.5 248.497,-112.5 125.497,-112.5"/>
<text text-anchor="middle" x="186.997" y="-119.5" font-family="Helvetica,sans-Serif" font-size="10.00">../Projectiles/Projectile.h</text>
</a>
</g>
</g>
<!-- Node1&#45;&gt;Node6 -->
<g id="edge17" class="edge"><title>Node1&#45;&gt;Node6</title>
<path fill="none" stroke="midnightblue" d="M227.209,-224.499C211.276,-217.413 191.534,-205.605 181.997,-188 174.256,-173.708 176.773,-154.996 180.476,-141.321"/>
<polygon fill="midnightblue" stroke="midnightblue" points="183.867,-142.203 183.526,-131.614 177.189,-140.104 183.867,-142.203"/>
</g>
<!-- Node12 -->
<g id="node13" class="node"><title>Node12</title>
<g id="a_node13"><a xlink:href="_proj_test_8h.html" target="_top" xlink:title="../Projectiles/ProjTest.h">
<polygon fill="white" stroke="black" points="191.497,-168.5 191.497,-187.5 310.497,-187.5 310.497,-168.5 191.497,-168.5"/>
<text text-anchor="middle" x="250.997" y="-175.5" font-family="Helvetica,sans-Serif" font-size="10.00">../Projectiles/ProjTest.h</text>
</a>
</g>
</g>
<!-- Node1&#45;&gt;Node12 -->
<g id="edge18" class="edge"><title>Node1&#45;&gt;Node12</title>
<path fill="none" stroke="midnightblue" d="M250.997,-224.083C250.997,-217.006 250.997,-206.861 250.997,-197.986"/>
<polygon fill="midnightblue" stroke="midnightblue" points="254.497,-197.751 250.997,-187.751 247.497,-197.751 254.497,-197.751"/>
</g>
<!-- Node3 -->
<g id="node4" class="node"><title>Node3</title>
<polygon fill="white" stroke="#bfbfbf" points="229.997,-0.5 229.997,-19.5 273.997,-19.5 273.997,-0.5 229.997,-0.5"/>
<text text-anchor="middle" x="251.997" y="-7.5" font-family="Helvetica,sans-Serif" font-size="10.00">vector</text>
</g>
<!-- Node2&#45;&gt;Node3 -->
<g id="edge3" class="edge"><title>Node2&#45;&gt;Node3</title>
<path fill="none" stroke="midnightblue" d="M361.372,-168.396C361.855,-147.099 360.367,-91.1076 333.997,-56 321.605,-39.502 301.314,-28.2954 284.017,-21.1918"/>
<polygon fill="midnightblue" stroke="midnightblue" points="284.852,-17.7646 274.262,-17.4744 282.36,-24.3058 284.852,-17.7646"/>
</g>
<!-- Node4 -->
<g id="node5" class="node"><title>Node4</title>
<polygon fill="white" stroke="#bfbfbf" points="283.497,-56.5 283.497,-75.5 324.497,-75.5 324.497,-56.5 283.497,-56.5"/>
<text text-anchor="middle" x="303.997" y="-63.5" font-family="Helvetica,sans-Serif" font-size="10.00">string</text>
</g>
<!-- Node2&#45;&gt;Node4 -->
<g id="edge4" class="edge"><title>Node2&#45;&gt;Node4</title>
<path fill="none" stroke="midnightblue" d="M356.525,-168.368C347.201,-150.376 325.528,-108.55 313.131,-84.6267"/>
<polygon fill="midnightblue" stroke="midnightblue" points="316.158,-82.8599 308.449,-75.5914 309.943,-86.0805 316.158,-82.8599"/>
</g>
<!-- Node5 -->
<g id="node6" class="node"><title>Node5</title>
<polygon fill="white" stroke="#bfbfbf" points="208.997,-56.5 208.997,-75.5 264.997,-75.5 264.997,-56.5 208.997,-56.5"/>
<text text-anchor="middle" x="236.997" y="-63.5" font-family="Helvetica,sans-Serif" font-size="10.00">algorithm</text>
</g>
<!-- Node2&#45;&gt;Node5 -->
<g id="edge5" class="edge"><title>Node2&#45;&gt;Node5</title>
<path fill="none" stroke="midnightblue" d="M351.267,-168.368C330.351,-149.814 280.863,-105.913 254.4,-82.4376"/>
<polygon fill="midnightblue" stroke="midnightblue" points="256.486,-79.6093 246.682,-75.5914 251.84,-84.8459 256.486,-79.6093"/>
</g>
<!-- Node2&#45;&gt;Node6 -->
<g id="edge6" class="edge"><title>Node2&#45;&gt;Node6</title>
<path fill="none" stroke="midnightblue" d="M333.427,-168.444C303.9,-159.28 256.88,-144.688 224.115,-134.519"/>
<polygon fill="midnightblue" stroke="midnightblue" points="225.027,-131.138 214.439,-131.516 222.952,-137.823 225.027,-131.138"/>
</g>
<!-- Node7 -->
<g id="node8" class="node"><title>Node7</title>
<g id="a_node8"><a xlink:href="_entite_8h.html" target="_top" xlink:title="../Entite.h">
<polygon fill="white" stroke="black" points="381.497,-56.5 381.497,-75.5 440.497,-75.5 440.497,-56.5 381.497,-56.5"/>
<text text-anchor="middle" x="410.997" y="-63.5" font-family="Helvetica,sans-Serif" font-size="10.00">../Entite.h</text>
</a>
</g>
</g>
<!-- Node2&#45;&gt;Node7 -->
<g id="edge16" class="edge"><title>Node2&#45;&gt;Node7</title>
<path fill="none" stroke="midnightblue" d="M364.921,-168.368C373.063,-150.456 391.941,-108.923 402.839,-84.9482"/>
<polygon fill="midnightblue" stroke="midnightblue" points="406.14,-86.1434 407.092,-75.5914 399.768,-83.2468 406.14,-86.1434"/>
</g>
<!-- Node6&#45;&gt;Node3 -->
<g id="edge7" class="edge"><title>Node6&#45;&gt;Node3</title>
<path fill="none" stroke="midnightblue" d="M186.986,-112.383C187.332,-99.3164 189.456,-74.0987 199.997,-56 207.039,-43.9104 218.53,-33.4595 228.922,-25.6804"/>
<polygon fill="midnightblue" stroke="midnightblue" points="231.112,-28.4185 237.27,-19.797 227.08,-22.6966 231.112,-28.4185"/>
</g>
<!-- Node6&#45;&gt;Node4 -->
<g id="edge8" class="edge"><title>Node6&#45;&gt;Node4</title>
<path fill="none" stroke="midnightblue" d="M205.536,-112.444C224.62,-103.636 254.572,-89.8116 276.433,-79.722"/>
<polygon fill="midnightblue" stroke="midnightblue" points="277.932,-82.8849 285.545,-75.5164 274.999,-76.5292 277.932,-82.8849"/>
</g>
<!-- Node6&#45;&gt;Node5 -->
<g id="edge9" class="edge"><title>Node6&#45;&gt;Node5</title>
<path fill="none" stroke="midnightblue" d="M195.254,-112.083C202.462,-104.298 213.107,-92.8015 221.843,-83.3665"/>
<polygon fill="midnightblue" stroke="midnightblue" points="224.669,-85.4666 228.895,-75.7511 219.532,-80.7108 224.669,-85.4666"/>
</g>
<!-- Node6&#45;&gt;Node7 -->
<g id="edge10" class="edge"><title>Node6&#45;&gt;Node7</title>
<path fill="none" stroke="midnightblue" d="M222.491,-112.444C263.063,-102.663 329.292,-86.6968 371.476,-76.5274"/>
<polygon fill="midnightblue" stroke="midnightblue" points="372.492,-79.883 381.393,-74.1368 370.851,-73.0779 372.492,-79.883"/>
</g>
<!-- Node7&#45;&gt;Node3 -->
<g id="edge11" class="edge"><title>Node7&#45;&gt;Node3</title>
<path fill="none" stroke="midnightblue" d="M385.803,-56.4435C358.111,-47.0385 313.578,-31.9142 283.574,-21.7242"/>
<polygon fill="midnightblue" stroke="midnightblue" points="284.596,-18.3748 274.001,-18.473 282.345,-25.003 284.596,-18.3748"/>
</g>
<!-- Node8 -->
<g id="node9" class="node"><title>Node8</title>
<polygon fill="white" stroke="#bfbfbf" points="291.997,-0.5 291.997,-19.5 343.997,-19.5 343.997,-0.5 291.997,-0.5"/>
<text text-anchor="middle" x="317.997" y="-7.5" font-family="Helvetica,sans-Serif" font-size="10.00">memory</text>
</g>
<!-- Node7&#45;&gt;Node8 -->
<g id="edge12" class="edge"><title>Node7&#45;&gt;Node8</title>
<path fill="none" stroke="midnightblue" d="M396.055,-56.324C381.412,-47.8215 358.864,-34.7288 341.76,-24.7975"/>
<polygon fill="midnightblue" stroke="midnightblue" points="343.308,-21.6491 332.902,-19.6545 339.793,-27.7027 343.308,-21.6491"/>
</g>
<!-- Node9 -->
<g id="node10" class="node"><title>Node9</title>
<polygon fill="white" stroke="#bfbfbf" points="361.997,-0.5 361.997,-19.5 459.997,-19.5 459.997,-0.5 361.997,-0.5"/>
<text text-anchor="middle" x="410.997" y="-7.5" font-family="Helvetica,sans-Serif" font-size="10.00">SFML/System.hpp</text>
</g>
<!-- Node7&#45;&gt;Node9 -->
<g id="edge13" class="edge"><title>Node7&#45;&gt;Node9</title>
<path fill="none" stroke="midnightblue" d="M410.997,-56.083C410.997,-49.0059 410.997,-38.8611 410.997,-29.9865"/>
<polygon fill="midnightblue" stroke="midnightblue" points="414.497,-29.751 410.997,-19.7511 407.497,-29.7511 414.497,-29.751"/>
</g>
<!-- Node10 -->
<g id="node11" class="node"><title>Node10</title>
<polygon fill="white" stroke="#bfbfbf" points="477.997,-0.5 477.997,-19.5 581.997,-19.5 581.997,-0.5 477.997,-0.5"/>
<text text-anchor="middle" x="529.997" y="-7.5" font-family="Helvetica,sans-Serif" font-size="10.00">SFML/Graphics.hpp</text>
</g>
<!-- Node7&#45;&gt;Node10 -->
<g id="edge14" class="edge"><title>Node7&#45;&gt;Node10</title>
<path fill="none" stroke="midnightblue" d="M429.853,-56.4435C449.263,-47.6356 479.727,-33.8116 501.962,-23.722"/>
<polygon fill="midnightblue" stroke="midnightblue" points="503.57,-26.836 511.23,-19.5164 500.677,-20.4615 503.57,-26.836"/>
</g>
<!-- Node11 -->
<g id="node12" class="node"><title>Node11</title>
<g id="a_node12"><a xlink:href="constantes_8h.html" target="_top" xlink:title="constantes.h">
<polygon fill="white" stroke="black" points="600.497,-0.5 600.497,-19.5 673.497,-19.5 673.497,-0.5 600.497,-0.5"/>
<text text-anchor="middle" x="636.997" y="-7.5" font-family="Helvetica,sans-Serif" font-size="10.00">constantes.h</text>
</a>
</g>
</g>
<!-- Node7&#45;&gt;Node11 -->
<g id="edge15" class="edge"><title>Node7&#45;&gt;Node11</title>
<path fill="none" stroke="midnightblue" d="M440.543,-57.9404C478.919,-48.7709 546.31,-32.6686 591.303,-21.9181"/>
<polygon fill="midnightblue" stroke="midnightblue" points="592.192,-25.3042 601.105,-19.576 590.565,-18.4959 592.192,-25.3042"/>
</g>
<!-- Node12&#45;&gt;Node6 -->
<g id="edge19" class="edge"><title>Node12&#45;&gt;Node6</title>
<path fill="none" stroke="midnightblue" d="M240.715,-168.324C231.161,-160.263 216.718,-148.077 205.213,-138.369"/>
<polygon fill="midnightblue" stroke="midnightblue" points="207.367,-135.608 197.467,-131.834 202.853,-140.958 207.367,-135.608"/>
</g>
<!-- Node13&#45;&gt;Node2 -->
<g id="edge21" class="edge"><title>Node13&#45;&gt;Node2</title>
<path fill="none" stroke="midnightblue" d="M154.112,-225.94C196.254,-216.379 271.621,-199.279 318.822,-188.569"/>
<polygon fill="midnightblue" stroke="midnightblue" points="319.756,-191.946 328.733,-186.32 318.207,-185.12 319.756,-191.946"/>
</g>
<!-- Node13&#45;&gt;Node6 -->
<g id="edge22" class="edge"><title>Node13&#45;&gt;Node6</title>
<path fill="none" stroke="midnightblue" d="M91.7295,-227.996C48.9246,-219.804 -19.8358,-201.042 5.99737,-168 19.7181,-150.45 70.977,-138.766 115.459,-131.712"/>
<polygon fill="midnightblue" stroke="midnightblue" points="116.059,-135.161 125.416,-130.19 115.002,-128.241 116.059,-135.161"/>
</g>
<!-- Node14 -->
<g id="node15" class="node"><title>Node14</title>
<g id="a_node15"><a xlink:href="_proj_piou_8h.html" target="_top" xlink:title="../Projectiles/ProjPiou.h">
<polygon fill="white" stroke="black" points="15.4974,-168.5 15.4974,-187.5 134.497,-187.5 134.497,-168.5 15.4974,-168.5"/>
<text text-anchor="middle" x="74.9974" y="-175.5" font-family="Helvetica,sans-Serif" font-size="10.00">../Projectiles/ProjPiou.h</text>
</a>
</g>
</g>
<!-- Node13&#45;&gt;Node14 -->
<g id="edge23" class="edge"><title>Node13&#45;&gt;Node14</title>
<path fill="none" stroke="midnightblue" d="M115.071,-224.083C108.151,-216.298 97.932,-204.801 89.5454,-195.367"/>
<polygon fill="midnightblue" stroke="midnightblue" points="92.0357,-192.9 82.7761,-187.751 86.8038,-197.55 92.0357,-192.9"/>
</g>
<!-- Node14&#45;&gt;Node6 -->
<g id="edge24" class="edge"><title>Node14&#45;&gt;Node6</title>
<path fill="none" stroke="midnightblue" d="M92.9921,-168.324C111.035,-159.625 139.044,-146.12 159.8,-136.113"/>
<polygon fill="midnightblue" stroke="midnightblue" points="161.56,-139.15 169.047,-131.655 158.52,-132.845 161.56,-139.15"/>
</g>
<!-- Node15&#45;&gt;Node2 -->
<g id="edge26" class="edge"><title>Node15&#45;&gt;Node2</title>
<path fill="none" stroke="midnightblue" d="M349.309,-224.083C351.164,-216.927 353.833,-206.635 356.152,-197.691"/>
<polygon fill="midnightblue" stroke="midnightblue" points="359.607,-198.309 358.729,-187.751 352.831,-196.553 359.607,-198.309"/>
</g>
<!-- Node15&#45;&gt;Node7 -->
<g id="edge27" class="edge"><title>Node15&#45;&gt;Node7</title>
<path fill="none" stroke="midnightblue" d="M363.605,-224.38C376.505,-216.708 393.571,-204.199 401.997,-188 419.033,-155.25 416.962,-110.636 413.961,-85.7481"/>
<polygon fill="midnightblue" stroke="midnightblue" points="417.384,-84.9544 412.537,-75.5334 410.451,-85.9208 417.384,-84.9544"/>
</g>
<!-- Node15&#45;&gt;Node12 -->
<g id="edge28" class="edge"><title>Node15&#45;&gt;Node12</title>
<path fill="none" stroke="midnightblue" d="M331.573,-224.324C316.458,-215.822 293.182,-202.729 275.526,-192.797"/>
<polygon fill="midnightblue" stroke="midnightblue" points="276.815,-189.507 266.383,-187.655 273.383,-195.608 276.815,-189.507"/>
</g>
</g>
</svg>
        <g id="navigator" transform="translate(0 0)" fill="#404254">
                <rect fill="#f2f5e9" fill-opacity="0.5" stroke="#606060" stroke-width=".5" x="0" y="0" width="60" height="60"/>
                <use id="zoomplus" xlink:href="#zoomPlus" x="17" y="9" onmousedown="handleZoom(evt,'in')"/>
                <use id="zoomminus" xlink:href="#zoomMin" x="42" y="9" onmousedown="handleZoom(evt,'out')"/>
                <use id="reset" xlink:href="#resetDef" x="30" y="36" onmousedown="handleReset()"/>
                <g id="arrowUp" xlink:href="#dirArrow" transform="translate(30 24)" onmousedown="handlePan(0,-1)">
                  <use xlink:href="#rim" fill="#404040">
                        <set attributeName="fill" to="#808080" begin="arrowUp.mouseover" end="arrowUp.mouseout"/>
                  </use>
                  <path fill="none" stroke="white" stroke-width="1.5" d="M0,-3.0v7 M-2.5,-0.5L0,-3.0L2.5,-0.5"/>
                </g>
                <g id="arrowRight" xlink:href="#dirArrow" transform="rotate(90) translate(36 -43)" onmousedown="handlePan(1,0)">
                  <use xlink:href="#rim" fill="#404040">
                        <set attributeName="fill" to="#808080" begin="arrowRight.mouseover" end="arrowRight.mouseout"/>
                  </use>
                  <path fill="none" stroke="white" stroke-width="1.5" d="M0,-3.0v7 M-2.5,-0.5L0,-3.0L2.5,-0.5"/>
                </g>
                <g id="arrowDown" xlink:href="#dirArrow" transform="rotate(180) translate(-30 -48)" onmousedown="handlePan(0,1)">
                  <use xlink:href="#rim" fill="#404040">
                        <set attributeName="fill" to="#808080" begin="arrowDown.mouseover" end="arrowDown.mouseout"/>
                  </use>
                  <path fill="none" stroke="white" stroke-width="1.5" d="M0,-3.0v7 M-2.5,-0.5L0,-3.0L2.5,-0.5"/>
                </g>
                <g id="arrowLeft" xlink:href="#dirArrow" transform="rotate(270) translate(-36 17)" onmousedown="handlePan(-1,0)">
                  <use xlink:href="#rim" fill="#404040">
                        <set attributeName="fill" to="#808080" begin="arrowLeft.mouseover" end="arrowLeft.mouseout"/>
                  </use>
                  <path fill="none" stroke="white" stroke-width="1.5" d="M0,-3.0v7 M-2.5,-0.5L0,-3.0L2.5,-0.5"/>
                </g>
        </g>
        <svg viewBox="0 0 15 15" width="100%" height="30px" preserveAspectRatio="xMaxYMin meet">
         <g id="arrow_out" transform="scale(0.3 0.3)">
          <a xlink:href="___capacites_8h__incl_org.svg" target="_base">
           <rect id="button" ry="5" rx="5" y="6" x="6" height="38" width="38"
                fill="#f2f5e9" fill-opacity="0.5" stroke="#606060" stroke-width="1.0"/>
           <path id="arrow"
             d="M 11.500037,31.436501 C 11.940474,20.09759 22.043105,11.32322 32.158766,21.979434 L 37.068811,17.246167 C 37.068811,17.246167 37.088388,32 37.088388,32 L 22.160133,31.978069 C 22.160133,31.978069 26.997745,27.140456 26.997745,27.140456 C 18.528582,18.264221 13.291696,25.230495 11.500037,31.436501 z"
             style="fill:#404040;"/>
          </a>
         </g>
        </svg>
</svg>
