<?xml version="1.0" encoding="UTF-8" standalone="no"?>
<!DOCTYPE svg PUBLIC "-//W3C//DTD SVG 1.1//EN"
 "http://www.w3.org/Graphics/SVG/1.1/DTD/svg11.dtd">
<!-- Generated by graphviz version 2.38.0 (20140413.2041)
 -->
<!-- Title: src/Capacites/_Capacites.h Pages: 1 -->
<svg width="365pt" height="252pt"
 viewBox="0.00 0.00 364.50 252.00" xmlns="http://www.w3.org/2000/svg" xmlns:xlink="http://www.w3.org/1999/xlink">
<g id="graph0" class="graph" transform="scale(1 1) rotate(0) translate(4 248)">
<title>src/Capacites/_Capacites.h</title>
<polygon fill="white" stroke="none" points="-4,4 -4,-248 360.5,-248 360.5,4 -4,4"/>
<!-- Node18 -->
<g id="node1" class="node"><title>Node18</title>
<polygon fill="#bfbfbf" stroke="black" points="0,-224.5 0,-243.5 138,-243.5 138,-224.5 0,-224.5"/>
<text text-anchor="middle" x="69" y="-231.5" font-family="Helvetica,sans-Serif" font-size="10.00">src/Capacites/_Capacites.h</text>
</g>
<!-- Node19 -->
<g id="node2" class="node"><title>Node19</title>
<g id="a_node2"><a xlink:href="_partie_8cpp.html" target="_top" target="_top" xlink:title="src/Partie.cpp">
<polygon fill="white" stroke="black" points="1.5,-0.5 1.5,-19.5 78.5,-19.5 78.5,-0.5 1.5,-0.5"/>
<text text-anchor="middle" x="40" y="-7.5" font-family="Helvetica,sans-Serif" font-size="10.00">src/Partie.cpp</text>
</a>
</g>
</g>
<!-- Node18&#45;&gt;Node19 -->
<g id="edge1" class="edge"><title>Node18&#45;&gt;Node19</title>
<path fill="none" stroke="midnightblue" d="M54.0247,-216.473C47.7757,-208.479 41.2286,-198.378 38,-188 18.7377,-126.084 32.5868,-45.9902 38.0508,-19.7453"/>
<polygon fill="midnightblue" stroke="midnightblue" points="51.4162,-218.81 60.5173,-224.234 56.7851,-214.318 51.4162,-218.81"/>
</g>
<!-- Node20 -->
<g id="node3" class="node"><title>Node20</title>
<g id="a_node3"><a xlink:href="_vaisseau_test_8h.html" target="_top" target="_top" xlink:title="src/Vaisseau/VaisseauTest.h">
<polygon fill="white" stroke="black" points="47.5,-168.5 47.5,-187.5 192.5,-187.5 192.5,-168.5 47.5,-168.5"/>
<text text-anchor="middle" x="120" y="-175.5" font-family="Helvetica,sans-Serif" font-size="10.00">src/Vaisseau/VaisseauTest.h</text>
</a>
</g>
</g>
<!-- Node18&#45;&gt;Node20 -->
<g id="edge2" class="edge"><title>Node18&#45;&gt;Node20</title>
<path fill="none" stroke="midnightblue" d="M84.3779,-216.718C93.3669,-207.2 104.359,-195.561 111.735,-187.751"/>
<polygon fill="midnightblue" stroke="midnightblue" points="81.7433,-214.41 77.4216,-224.083 86.8324,-219.216 81.7433,-214.41"/>
</g>
<!-- Node21 -->
<g id="node4" class="node"><title>Node21</title>
<g id="a_node4"><a xlink:href="__vaisseaux_8h.html" target="_top" target="_top" xlink:title="src/Vaisseau/_vaisseaux.h">
<polygon fill="white" stroke="black" points="49,-112.5 49,-131.5 183,-131.5 183,-112.5 49,-112.5"/>
<text text-anchor="middle" x="116" y="-119.5" font-family="Helvetica,sans-Serif" font-size="10.00">src/Vaisseau/_vaisseaux.h</text>
</a>
</g>
</g>
<!-- Node20&#45;&gt;Node21 -->
<g id="edge3" class="edge"><title>Node20&#45;&gt;Node21</title>
<path fill="none" stroke="midnightblue" d="M118.6,-158.101C117.936,-149.136 117.175,-138.858 116.648,-131.751"/>
<polygon fill="midnightblue" stroke="midnightblue" points="115.11,-158.369 119.339,-168.083 122.091,-157.852 115.11,-158.369"/>
</g>
<!-- Node24 -->
<g id="node7" class="node"><title>Node24</title>
<g id="a_node7"><a xlink:href="_vaisseau_test_8cpp.html" target="_top" target="_top" xlink:title="src/Vaisseau/VaisseauTest.cpp">
<polygon fill="white" stroke="black" points="201.5,-112.5 201.5,-131.5 356.5,-131.5 356.5,-112.5 201.5,-112.5"/>
<text text-anchor="middle" x="279" y="-119.5" font-family="Helvetica,sans-Serif" font-size="10.00">src/Vaisseau/VaisseauTest.cpp</text>
</a>
</g>
</g>
<!-- Node20&#45;&gt;Node24 -->
<g id="edge8" class="edge"><title>Node20&#45;&gt;Node24</title>
<path fill="none" stroke="midnightblue" d="M154.827,-165.172C184.766,-155.004 227.221,-140.585 253.924,-131.516"/>
<polygon fill="midnightblue" stroke="midnightblue" points="153.537,-161.914 145.194,-168.444 155.788,-168.542 153.537,-161.914"/>
</g>
<!-- Node21&#45;&gt;Node19 -->
<g id="edge4" class="edge"><title>Node21&#45;&gt;Node19</title>
<path fill="none" stroke="midnightblue" d="M99.9732,-104.748C92.2609,-96.5006 83.1588,-86.1083 76,-76 62.5801,-57.051 50.2341,-32.614 44.0864,-19.7746"/>
<polygon fill="midnightblue" stroke="midnightblue" points="97.6551,-107.388 107.099,-112.191 102.711,-102.547 97.6551,-107.388"/>
</g>
<!-- Node22 -->
<g id="node5" class="node"><title>Node22</title>
<g id="a_node5"><a xlink:href="vague_8h.html" target="_top" target="_top" xlink:title="src/vague.h">
<polygon fill="white" stroke="black" points="85,-56.5 85,-75.5 153,-75.5 153,-56.5 85,-56.5"/>
<text text-anchor="middle" x="119" y="-63.5" font-family="Helvetica,sans-Serif" font-size="10.00">src/vague.h</text>
</a>
</g>
</g>
<!-- Node21&#45;&gt;Node22 -->
<g id="edge5" class="edge"><title>Node21&#45;&gt;Node22</title>
<path fill="none" stroke="midnightblue" d="M117.066,-101.805C117.561,-92.9102 118.123,-82.7798 118.514,-75.7511"/>
<polygon fill="midnightblue" stroke="midnightblue" points="113.556,-101.904 116.495,-112.083 120.545,-102.293 113.556,-101.904"/>
</g>
<!-- Node22&#45;&gt;Node19 -->
<g id="edge6" class="edge"><title>Node22&#45;&gt;Node19</title>
<path fill="none" stroke="midnightblue" d="M97.9657,-50.6221C83.5339,-40.7574 64.8585,-27.9919 52.6612,-19.6545"/>
<polygon fill="midnightblue" stroke="midnightblue" points="96.0765,-53.5703 106.307,-56.324 100.027,-47.7914 96.0765,-53.5703"/>
</g>
<!-- Node23 -->
<g id="node6" class="node"><title>Node23</title>
<g id="a_node6"><a xlink:href="vague_8cpp.html" target="_top" target="_top" xlink:title="src/vague.cpp">
<polygon fill="white" stroke="black" points="97,-0.5 97,-19.5 175,-19.5 175,-0.5 97,-0.5"/>
<text text-anchor="middle" x="136" y="-7.5" font-family="Helvetica,sans-Serif" font-size="10.00">src/vague.cpp</text>
</a>
</g>
</g>
<!-- Node22&#45;&gt;Node23 -->
<g id="edge7" class="edge"><title>Node22&#45;&gt;Node23</title>
<path fill="none" stroke="midnightblue" d="M124.857,-46.3956C127.701,-37.362 130.983,-26.936 133.245,-19.7511"/>
<polygon fill="midnightblue" stroke="midnightblue" points="121.472,-45.4935 121.807,-56.083 128.149,-47.5955 121.472,-45.4935"/>
</g>
</g>
</svg>
