<?xml version="1.0" encoding="UTF-8" standalone="no"?>
<!DOCTYPE svg PUBLIC "-//W3C//DTD SVG 1.1//EN"
 "http://www.w3.org/Graphics/SVG/1.1/DTD/svg11.dtd">
<!-- Generated by graphviz version 2.38.0 (20140413.2041)
 -->
<!-- Title: src/Capacites/_Capacites.h Pages: 1 -->
<!--zoomable 308 -->
<svg id="main" version="1.1" xmlns="http://www.w3.org/2000/svg" xmlns:xlink="http://www.w3.org/1999/xlink" xml:space="preserve" onload="init(evt)">
<style type="text/css"><![CDATA[
.edge:hover path { stroke: red; }
.edge:hover polygon { stroke: red; fill: red; }
]]></style>
<script type="text/javascript"><![CDATA[
var edges = document.getElementsByTagName('g');
if (edges && edges.length) {
  for (var i=0;i<edges.length;i++) {
    if (edges[i].id.substr(0,4)=='edge') {
      edges[i].setAttribute('class','edge');
    }
  }
}
]]></script>
        <defs>
                <circle id="rim" cx="0" cy="0" r="7"/>
                <circle id="rim2" cx="0" cy="0" r="3.5"/>
                <g id="zoomPlus">
                        <use xlink:href="#rim" target="_top" fill="#404040">
                                <set attributeName="fill" to="#808080" begin="zoomplus.mouseover" end="zoomplus.mouseout"/>
                        </use>
                        <path d="M-4,0h8M0,-4v8" fill="none" stroke="white" stroke-width="1.5" pointer-events="none"/>
                </g>
                <g id="zoomMin">
                        <use xlink:href="#rim" target="_top" fill="#404040">
                                <set attributeName="fill" to="#808080" begin="zoomminus.mouseover" end="zoomminus.mouseout"/>
                        </use>
                        <path d="M-4,0h8" fill="none" stroke="white" stroke-width="1.5" pointer-events="none"/>
                </g>
                <g id="dirArrow">
                        <path fill="none" stroke="white" stroke-width="1.5" d="M0,-3.0v7 M-2.5,-0.5L0,-3.0L2.5,-0.5"/>
                </g>
               <g id="resetDef">
                       <use xlink:href="#rim2" target="_top" fill="#404040">
                               <set attributeName="fill" to="#808080" begin="reset.mouseover" end="reset.mouseout"/>
                       </use>
               </g>
        </defs>

<script type="text/javascript">
var viewWidth = 764;
var viewHeight = 308;
var sectionId = 'dynsection-0';
</script>
<script xlink:href="svgpan.js" target="_top"/>
<svg id="graph" class="graph">
<g id="viewport">
<title>src/Capacites/_Capacites.h</title>
<polygon fill="white" stroke="none" points="-4,4 -4,-304 759.5,-304 759.5,4 -4,4"/>
<!-- Node0 -->
<g id="node1" class="node"><title>Node0</title>
<polygon fill="#bfbfbf" stroke="black" points="283.5,-280.5 283.5,-299.5 421.5,-299.5 421.5,-280.5 283.5,-280.5"/>
<text text-anchor="middle" x="352.5" y="-287.5" font-family="Helvetica,sans-Serif" font-size="10.00">src/Capacites/_Capacites.h</text>
</g>
<!-- Node1 -->
<g id="node2" class="node"><title>Node1</title>
<g id="a_node2"><a xlink:href="_cap_test_8h.html" target="_top" target="_top" xlink:title="CapTest.h">
<polygon fill="white" stroke="black" points="364.5,-224.5 364.5,-243.5 426.5,-243.5 426.5,-224.5 364.5,-224.5"/>
<text text-anchor="middle" x="395.5" y="-231.5" font-family="Helvetica,sans-Serif" font-size="10.00">CapTest.h</text>
</a>
</g>
</g>
<!-- Node0&#45;&gt;Node1 -->
<g id="edge1" class="edge"><title>Node0&#45;&gt;Node1</title>
<path fill="none" stroke="midnightblue" d="M359.601,-280.083C365.737,-272.377 374.77,-261.033 382.239,-251.653"/>
<polygon fill="midnightblue" stroke="midnightblue" points="385.04,-253.754 388.532,-243.751 379.564,-249.394 385.04,-253.754"/>
</g>
<!-- Node13 -->
<g id="node14" class="node"><title>Node13</title>
<g id="a_node14"><a xlink:href="_cap_piou_8h.html" target="_top" target="_top" xlink:title="CapPiou.h">
<polygon fill="white" stroke="black" points="154.5,-224.5 154.5,-243.5 216.5,-243.5 216.5,-224.5 154.5,-224.5"/>
<text text-anchor="middle" x="185.5" y="-231.5" font-family="Helvetica,sans-Serif" font-size="10.00">CapPiou.h</text>
</a>
</g>
</g>
<!-- Node0&#45;&gt;Node13 -->
<g id="edge20" class="edge"><title>Node0&#45;&gt;Node13</title>
<path fill="none" stroke="midnightblue" d="M326.038,-280.444C297.822,-271.32 252.96,-256.813 221.532,-246.651"/>
<polygon fill="midnightblue" stroke="midnightblue" points="222.43,-243.263 211.838,-243.516 220.276,-249.923 222.43,-243.263"/>
</g>
<!-- Node15 -->
<g id="node16" class="node"><title>Node15</title>
<g id="a_node16"><a xlink:href="_cap_dash_8h.html" target="_top" target="_top" xlink:title="CapDash.h">
<polygon fill="white" stroke="black" points="458.5,-224.5 458.5,-243.5 524.5,-243.5 524.5,-224.5 458.5,-224.5"/>
<text text-anchor="middle" x="491.5" y="-231.5" font-family="Helvetica,sans-Serif" font-size="10.00">CapDash.h</text>
</a>
</g>
</g>
<!-- Node0&#45;&gt;Node15 -->
<g id="edge25" class="edge"><title>Node0&#45;&gt;Node15</title>
<path fill="none" stroke="midnightblue" d="M374.525,-280.444C397.604,-271.478 434.062,-257.314 460.141,-247.183"/>
<polygon fill="midnightblue" stroke="midnightblue" points="461.524,-250.4 469.578,-243.516 458.989,-243.875 461.524,-250.4"/>
</g>
<!-- Node16 -->
<g id="node17" class="node"><title>Node16</title>
<g id="a_node17"><a xlink:href="_cap_missile_8h.html" target="_top" target="_top" xlink:title="CapMissile.h">
<polygon fill="white" stroke="black" points="272.5,-224.5 272.5,-243.5 346.5,-243.5 346.5,-224.5 272.5,-224.5"/>
<text text-anchor="middle" x="309.5" y="-231.5" font-family="Helvetica,sans-Serif" font-size="10.00">CapMissile.h</text>
</a>
</g>
</g>
<!-- Node0&#45;&gt;Node16 -->
<g id="edge29" class="edge"><title>Node0&#45;&gt;Node16</title>
<path fill="none" stroke="midnightblue" d="M345.399,-280.083C339.263,-272.377 330.23,-261.033 322.761,-251.653"/>
<polygon fill="midnightblue" stroke="midnightblue" points="325.436,-249.394 316.468,-243.751 319.96,-253.754 325.436,-249.394"/>
</g>
<!-- Node2 -->
<g id="node3" class="node"><title>Node2</title>
<g id="a_node3"><a xlink:href="_capacite_8h.html" target="_top" target="_top" xlink:title="Capacite.h">
<polygon fill="white" stroke="black" points="363.5,-168.5 363.5,-187.5 427.5,-187.5 427.5,-168.5 363.5,-168.5"/>
<text text-anchor="middle" x="395.5" y="-175.5" font-family="Helvetica,sans-Serif" font-size="10.00">Capacite.h</text>
</a>
</g>
</g>
<!-- Node1&#45;&gt;Node2 -->
<g id="edge2" class="edge"><title>Node1&#45;&gt;Node2</title>
<path fill="none" stroke="midnightblue" d="M395.5,-224.083C395.5,-217.006 395.5,-206.861 395.5,-197.986"/>
<polygon fill="midnightblue" stroke="midnightblue" points="399,-197.751 395.5,-187.751 392,-197.751 399,-197.751"/>
</g>
<!-- Node6 -->
<g id="node7" class="node"><title>Node6</title>
<g id="a_node7"><a xlink:href="_projectile_8h.html" target="_top" target="_top" xlink:title="../Projectiles/Projectile.h">
<polygon fill="white" stroke="black" points="206,-112.5 206,-131.5 329,-131.5 329,-112.5 206,-112.5"/>
<text text-anchor="middle" x="267.5" y="-119.5" font-family="Helvetica,sans-Serif" font-size="10.00">../Projectiles/Projectile.h</text>
</a>
</g>
</g>
<!-- Node1&#45;&gt;Node6 -->
<g id="edge17" class="edge"><title>Node1&#45;&gt;Node6</title>
<path fill="none" stroke="midnightblue" d="M385.456,-224.368C363.772,-205.733 312.338,-161.532 285.11,-138.134"/>
<polygon fill="midnightblue" stroke="midnightblue" points="287.363,-135.455 277.497,-131.591 282.8,-140.764 287.363,-135.455"/>
</g>
<!-- Node12 -->
<g id="node13" class="node"><title>Node12</title>
<g id="a_node13"><a xlink:href="_proj_test_8h.html" target="_top" target="_top" xlink:title="../Projectiles/ProjTest.h">
<polygon fill="white" stroke="black" points="446,-168.5 446,-187.5 565,-187.5 565,-168.5 446,-168.5"/>
<text text-anchor="middle" x="505.5" y="-175.5" font-family="Helvetica,sans-Serif" font-size="10.00">../Projectiles/ProjTest.h</text>
</a>
</g>
</g>
<!-- Node1&#45;&gt;Node12 -->
<g id="edge18" class="edge"><title>Node1&#45;&gt;Node12</title>
<path fill="none" stroke="midnightblue" d="M413.173,-224.324C430.894,-215.625 458.403,-202.12 478.788,-192.113"/>
<polygon fill="midnightblue" stroke="midnightblue" points="480.436,-195.203 487.87,-187.655 477.351,-188.919 480.436,-195.203"/>
</g>
<!-- Node3 -->
<g id="node4" class="node"><title>Node3</title>
<polygon fill="white" stroke="#bfbfbf" points="311.5,-0.5 311.5,-19.5 355.5,-19.5 355.5,-0.5 311.5,-0.5"/>
<text text-anchor="middle" x="333.5" y="-7.5" font-family="Helvetica,sans-Serif" font-size="10.00">vector</text>
</g>
<!-- Node2&#45;&gt;Node3 -->
<g id="edge3" class="edge"><title>Node2&#45;&gt;Node3</title>
<path fill="none" stroke="midnightblue" d="M400.421,-168.372C411.617,-147.49 436.391,-93.2041 414.5,-56 408.655,-46.0655 383.971,-33.1522 363.372,-23.7082"/>
<polygon fill="midnightblue" stroke="midnightblue" points="364.541,-20.3969 353.984,-19.5079 361.683,-26.7866 364.541,-20.3969"/>
</g>
<!-- Node4 -->
<g id="node5" class="node"><title>Node4</title>
<polygon fill="white" stroke="#bfbfbf" points="290,-56.5 290,-75.5 331,-75.5 331,-56.5 290,-56.5"/>
<text text-anchor="middle" x="310.5" y="-63.5" font-family="Helvetica,sans-Serif" font-size="10.00">string</text>
</g>
<!-- Node2&#45;&gt;Node4 -->
<g id="edge4" class="edge"><title>Node2&#45;&gt;Node4</title>
<path fill="none" stroke="midnightblue" d="M388.83,-168.368C374.741,-150.135 341.738,-107.426 323.385,-83.6752"/>
<polygon fill="midnightblue" stroke="midnightblue" points="326.023,-81.3642 317.139,-75.5914 320.484,-85.6444 326.023,-81.3642"/>
</g>
<!-- Node5 -->
<g id="node6" class="node"><title>Node5</title>
<polygon fill="white" stroke="#bfbfbf" points="349.5,-56.5 349.5,-75.5 405.5,-75.5 405.5,-56.5 349.5,-56.5"/>
<text text-anchor="middle" x="377.5" y="-63.5" font-family="Helvetica,sans-Serif" font-size="10.00">algorithm</text>
</g>
<!-- Node2&#45;&gt;Node5 -->
<g id="edge5" class="edge"><title>Node2&#45;&gt;Node5</title>
<path fill="none" stroke="midnightblue" d="M394.088,-168.368C391.183,-150.617 384.482,-109.666 380.543,-85.5974"/>
<polygon fill="midnightblue" stroke="midnightblue" points="383.975,-84.8949 378.906,-75.5914 377.067,-86.0254 383.975,-84.8949"/>
</g>
<!-- Node2&#45;&gt;Node6 -->
<g id="edge6" class="edge"><title>Node2&#45;&gt;Node6</title>
<path fill="none" stroke="midnightblue" d="M375.218,-168.444C354.153,-159.557 320.983,-145.563 297.014,-135.451"/>
<polygon fill="midnightblue" stroke="midnightblue" points="298.261,-132.179 287.687,-131.516 295.54,-138.628 298.261,-132.179"/>
</g>
<!-- Node7 -->
<g id="node8" class="node"><title>Node7</title>
<g id="a_node8"><a xlink:href="_entite_8h.html" target="_top" target="_top" xlink:title="../Entite.h">
<polygon fill="white" stroke="black" points="462,-56.5 462,-75.5 521,-75.5 521,-56.5 462,-56.5"/>
<text text-anchor="middle" x="491.5" y="-63.5" font-family="Helvetica,sans-Serif" font-size="10.00">../Entite.h</text>
</a>
</g>
</g>
<!-- Node2&#45;&gt;Node7 -->
<g id="edge16" class="edge"><title>Node2&#45;&gt;Node7</title>
<path fill="none" stroke="midnightblue" d="M407.02,-168.466C418.101,-159.939 434.973,-146.104 447.5,-132 460.753,-117.079 473.243,-97.9566 481.505,-84.3237"/>
<polygon fill="midnightblue" stroke="midnightblue" points="484.643,-85.8938 486.724,-75.5055 478.619,-82.3282 484.643,-85.8938"/>
</g>
<!-- Node6&#45;&gt;Node3 -->
<g id="edge7" class="edge"><title>Node6&#45;&gt;Node3</title>
<path fill="none" stroke="midnightblue" d="M267.467,-112.371C267.786,-99.2876 269.873,-74.0489 280.5,-56 287.677,-43.8105 299.389,-33.3512 309.981,-25.5923"/>
<polygon fill="midnightblue" stroke="midnightblue" points="312.24,-28.2863 318.49,-19.7313 308.269,-22.5215 312.24,-28.2863"/>
</g>
<!-- Node6&#45;&gt;Node4 -->
<g id="edge8" class="edge"><title>Node6&#45;&gt;Node4</title>
<path fill="none" stroke="midnightblue" d="M274.601,-112.083C280.737,-104.377 289.77,-93.0333 297.239,-83.6531"/>
<polygon fill="midnightblue" stroke="midnightblue" points="300.04,-85.7542 303.532,-75.7511 294.564,-81.3936 300.04,-85.7542"/>
</g>
<!-- Node6&#45;&gt;Node5 -->
<g id="edge9" class="edge"><title>Node6&#45;&gt;Node5</title>
<path fill="none" stroke="midnightblue" d="M285.173,-112.324C302.894,-103.625 330.403,-90.1202 350.788,-80.113"/>
<polygon fill="midnightblue" stroke="midnightblue" points="352.436,-83.2031 359.87,-75.6545 349.351,-76.9195 352.436,-83.2031"/>
</g>
<!-- Node6&#45;&gt;Node7 -->
<g id="edge10" class="edge"><title>Node6&#45;&gt;Node7</title>
<path fill="none" stroke="midnightblue" d="M302.993,-112.444C343.565,-102.663 409.795,-86.6968 451.979,-76.5274"/>
<polygon fill="midnightblue" stroke="midnightblue" points="452.994,-79.883 461.895,-74.1368 451.354,-73.0779 452.994,-79.883"/>
</g>
<!-- Node7&#45;&gt;Node3 -->
<g id="edge11" class="edge"><title>Node7&#45;&gt;Node3</title>
<path fill="none" stroke="midnightblue" d="M466.464,-56.4435C439.024,-47.0652 394.945,-32.0001 365.133,-21.8112"/>
<polygon fill="midnightblue" stroke="midnightblue" points="366.209,-18.4802 355.614,-18.558 363.945,-25.104 366.209,-18.4802"/>
</g>
<!-- Node8 -->
<g id="node9" class="node"><title>Node8</title>
<polygon fill="white" stroke="#bfbfbf" points="465.5,-0.5 465.5,-19.5 517.5,-19.5 517.5,-0.5 465.5,-0.5"/>
<text text-anchor="middle" x="491.5" y="-7.5" font-family="Helvetica,sans-Serif" font-size="10.00">memory</text>
</g>
<!-- Node7&#45;&gt;Node8 -->
<g id="edge12" class="edge"><title>Node7&#45;&gt;Node8</title>
<path fill="none" stroke="midnightblue" d="M491.5,-56.083C491.5,-49.0059 491.5,-38.8611 491.5,-29.9865"/>
<polygon fill="midnightblue" stroke="midnightblue" points="495,-29.751 491.5,-19.7511 488,-29.7511 495,-29.751"/>
</g>
<!-- Node9 -->
<g id="node10" class="node"><title>Node9</title>
<polygon fill="white" stroke="#bfbfbf" points="535.5,-0.5 535.5,-19.5 633.5,-19.5 633.5,-0.5 535.5,-0.5"/>
<text text-anchor="middle" x="584.5" y="-7.5" font-family="Helvetica,sans-Serif" font-size="10.00">SFML/System.hpp</text>
</g>
<!-- Node7&#45;&gt;Node9 -->
<g id="edge13" class="edge"><title>Node7&#45;&gt;Node9</title>
<path fill="none" stroke="midnightblue" d="M506.442,-56.324C521.085,-47.8215 543.634,-34.7288 560.738,-24.7975"/>
<polygon fill="midnightblue" stroke="midnightblue" points="562.705,-27.7027 569.595,-19.6545 559.19,-21.6491 562.705,-27.7027"/>
</g>
<!-- Node10 -->
<g id="node11" class="node"><title>Node10</title>
<polygon fill="white" stroke="#bfbfbf" points="651.5,-0.5 651.5,-19.5 755.5,-19.5 755.5,-0.5 651.5,-0.5"/>
<text text-anchor="middle" x="703.5" y="-7.5" font-family="Helvetica,sans-Serif" font-size="10.00">SFML/Graphics.hpp</text>
</g>
<!-- Node7&#45;&gt;Node10 -->
<g id="edge14" class="edge"><title>Node7&#45;&gt;Node10</title>
<path fill="none" stroke="midnightblue" d="M521.425,-57.3776C557.592,-48.1653 618.732,-32.592 660.08,-22.0597"/>
<polygon fill="midnightblue" stroke="midnightblue" points="661.053,-25.4238 669.88,-19.5637 659.325,-18.6404 661.053,-25.4238"/>
</g>
<!-- Node11 -->
<g id="node12" class="node"><title>Node11</title>
<g id="a_node12"><a xlink:href="constantes_8h.html" target="_top" target="_top" xlink:title="constantes.h">
<polygon fill="white" stroke="black" points="374,-0.5 374,-19.5 447,-19.5 447,-0.5 374,-0.5"/>
<text text-anchor="middle" x="410.5" y="-7.5" font-family="Helvetica,sans-Serif" font-size="10.00">constantes.h</text>
</a>
</g>
</g>
<!-- Node7&#45;&gt;Node11 -->
<g id="edge15" class="edge"><title>Node7&#45;&gt;Node11</title>
<path fill="none" stroke="midnightblue" d="M478.486,-56.324C465.968,-47.979 446.818,-35.2122 432.029,-25.3524"/>
<polygon fill="midnightblue" stroke="midnightblue" points="433.744,-22.2894 423.482,-19.6545 429.861,-28.1137 433.744,-22.2894"/>
</g>
<!-- Node12&#45;&gt;Node6 -->
<g id="edge19" class="edge"><title>Node12&#45;&gt;Node6</title>
<path fill="none" stroke="midnightblue" d="M467.788,-168.444C426.357,-159.043 359.743,-143.929 314.833,-133.739"/>
<polygon fill="midnightblue" stroke="midnightblue" points="315.562,-130.316 305.035,-131.516 314.013,-137.142 315.562,-130.316"/>
</g>
<!-- Node13&#45;&gt;Node2 -->
<g id="edge21" class="edge"><title>Node13&#45;&gt;Node2</title>
<path fill="none" stroke="midnightblue" d="M216.939,-224.916C253.225,-215.585 313.063,-200.198 353.358,-189.837"/>
<polygon fill="midnightblue" stroke="midnightblue" points="354.342,-193.198 363.155,-187.317 352.598,-186.418 354.342,-193.198"/>
</g>
<!-- Node13&#45;&gt;Node6 -->
<g id="edge22" class="edge"><title>Node13&#45;&gt;Node6</title>
<path fill="none" stroke="midnightblue" d="M178.734,-224.345C169.367,-211.229 154.848,-185.947 166.5,-168 176.907,-151.97 194.496,-141.602 212.107,-134.916"/>
<polygon fill="midnightblue" stroke="midnightblue" points="213.528,-138.129 221.847,-131.569 211.252,-131.509 213.528,-138.129"/>
</g>
<!-- Node14 -->
<g id="node15" class="node"><title>Node14</title>
<g id="a_node15"><a xlink:href="_proj_piou_8h.html" target="_top" target="_top" xlink:title="../Projectiles/ProjPiou.h">
<polygon fill="white" stroke="black" points="0,-168.5 0,-187.5 119,-187.5 119,-168.5 0,-168.5"/>
<text text-anchor="middle" x="59.5" y="-175.5" font-family="Helvetica,sans-Serif" font-size="10.00">../Projectiles/ProjPiou.h</text>
</a>
</g>
</g>
<!-- Node13&#45;&gt;Node14 -->
<g id="edge23" class="edge"><title>Node13&#45;&gt;Node14</title>
<path fill="none" stroke="midnightblue" d="M165.535,-224.444C144.891,-215.596 112.437,-201.687 88.8684,-191.586"/>
<polygon fill="midnightblue" stroke="midnightblue" points="89.9419,-188.239 79.3717,-187.516 87.1844,-194.673 89.9419,-188.239"/>
</g>
<!-- Node14&#45;&gt;Node6 -->
<g id="edge24" class="edge"><title>Node14&#45;&gt;Node6</title>
<path fill="none" stroke="midnightblue" d="M92.4582,-168.444C128.287,-159.142 185.663,-144.246 224.891,-134.062"/>
<polygon fill="midnightblue" stroke="midnightblue" points="225.896,-137.417 234.696,-131.516 224.137,-130.642 225.896,-137.417"/>
</g>
<!-- Node15&#45;&gt;Node2 -->
<g id="edge26" class="edge"><title>Node15&#45;&gt;Node2</title>
<path fill="none" stroke="midnightblue" d="M476.076,-224.324C460.96,-215.822 437.685,-202.729 420.029,-192.797"/>
<polygon fill="midnightblue" stroke="midnightblue" points="421.317,-189.507 410.886,-187.655 417.886,-195.608 421.317,-189.507"/>
</g>
<!-- Node15&#45;&gt;Node7 -->
<g id="edge27" class="edge"><title>Node15&#45;&gt;Node7</title>
<path fill="none" stroke="midnightblue" d="M523.685,-224.488C542.039,-217.801 563.516,-206.45 574.5,-188 598.323,-147.985 545.795,-103.416 513.814,-81.2026"/>
<polygon fill="midnightblue" stroke="midnightblue" points="515.669,-78.2324 505.419,-75.5525 511.761,-84.0397 515.669,-78.2324"/>
</g>
<!-- Node15&#45;&gt;Node12 -->
<g id="edge28" class="edge"><title>Node15&#45;&gt;Node12</title>
<path fill="none" stroke="midnightblue" d="M493.812,-224.083C495.667,-216.927 498.335,-206.635 500.654,-197.691"/>
<polygon fill="midnightblue" stroke="midnightblue" points="504.109,-198.309 503.231,-187.751 497.334,-196.553 504.109,-198.309"/>
</g>
<!-- Node16&#45;&gt;Node2 -->
<g id="edge30" class="edge"><title>Node16&#45;&gt;Node2</title>
<path fill="none" stroke="midnightblue" d="M323.317,-224.324C336.733,-215.9 357.324,-202.971 373.086,-193.074"/>
<polygon fill="midnightblue" stroke="midnightblue" points="375.109,-195.936 381.717,-187.655 371.387,-190.008 375.109,-195.936"/>
</g>
<!-- Node17 -->
<g id="node18" class="node"><title>Node17</title>
<g id="a_node18"><a xlink:href="_proj_missile_8h.html" target="_top" target="_top" xlink:title="../Projectiles/ProjMissile.h">
<polygon fill="white" stroke="black" points="176,-168.5 176,-187.5 307,-187.5 307,-168.5 176,-168.5"/>
<text text-anchor="middle" x="241.5" y="-175.5" font-family="Helvetica,sans-Serif" font-size="10.00">../Projectiles/ProjMissile.h</text>
</a>
</g>
</g>
<!-- Node16&#45;&gt;Node17 -->
<g id="edge31" class="edge"><title>Node16&#45;&gt;Node17</title>
<path fill="none" stroke="midnightblue" d="M298.575,-224.324C288.325,-216.185 272.779,-203.839 260.499,-194.087"/>
<polygon fill="midnightblue" stroke="midnightblue" points="262.632,-191.312 252.624,-187.834 258.279,-196.794 262.632,-191.312"/>
</g>
<!-- Node17&#45;&gt;Node6 -->
<g id="edge32" class="edge"><title>Node17&#45;&gt;Node6</title>
<path fill="none" stroke="midnightblue" d="M245.793,-168.083C249.352,-160.691 254.522,-149.953 258.924,-140.811"/>
<polygon fill="midnightblue" stroke="midnightblue" points="262.102,-142.279 263.287,-131.751 255.795,-139.243 262.102,-142.279"/>
</g>
</g>
</svg>
        <g id="navigator" transform="translate(0 0)" fill="#404254">
                <rect fill="#f2f5e9" fill-opacity="0.5" stroke="#606060" stroke-width=".5" x="0" y="0" width="60" height="60"/>
                <use id="zoomplus" xlink:href="#zoomPlus" target="_top" x="17" y="9" onmousedown="handleZoom(evt,'in')"/>
                <use id="zoomminus" xlink:href="#zoomMin" target="_top" x="42" y="9" onmousedown="handleZoom(evt,'out')"/>
                <use id="reset" xlink:href="#resetDef" target="_top" x="30" y="36" onmousedown="handleReset()"/>
                <g id="arrowUp" xlink:href="#dirArrow" target="_top" transform="translate(30 24)" onmousedown="handlePan(0,-1)">
                  <use xlink:href="#rim" target="_top" fill="#404040">
                        <set attributeName="fill" to="#808080" begin="arrowUp.mouseover" end="arrowUp.mouseout"/>
                  </use>
                  <path fill="none" stroke="white" stroke-width="1.5" d="M0,-3.0v7 M-2.5,-0.5L0,-3.0L2.5,-0.5"/>
                </g>
                <g id="arrowRight" xlink:href="#dirArrow" target="_top" transform="rotate(90) translate(36 -43)" onmousedown="handlePan(1,0)">
                  <use xlink:href="#rim" target="_top" fill="#404040">
                        <set attributeName="fill" to="#808080" begin="arrowRight.mouseover" end="arrowRight.mouseout"/>
                  </use>
                  <path fill="none" stroke="white" stroke-width="1.5" d="M0,-3.0v7 M-2.5,-0.5L0,-3.0L2.5,-0.5"/>
                </g>
                <g id="arrowDown" xlink:href="#dirArrow" target="_top" transform="rotate(180) translate(-30 -48)" onmousedown="handlePan(0,1)">
                  <use xlink:href="#rim" target="_top" fill="#404040">
                        <set attributeName="fill" to="#808080" begin="arrowDown.mouseover" end="arrowDown.mouseout"/>
                  </use>
                  <path fill="none" stroke="white" stroke-width="1.5" d="M0,-3.0v7 M-2.5,-0.5L0,-3.0L2.5,-0.5"/>
                </g>
                <g id="arrowLeft" xlink:href="#dirArrow" target="_top" transform="rotate(270) translate(-36 17)" onmousedown="handlePan(-1,0)">
                  <use xlink:href="#rim" target="_top" fill="#404040">
                        <set attributeName="fill" to="#808080" begin="arrowLeft.mouseover" end="arrowLeft.mouseout"/>
                  </use>
                  <path fill="none" stroke="white" stroke-width="1.5" d="M0,-3.0v7 M-2.5,-0.5L0,-3.0L2.5,-0.5"/>
                </g>
        </g>
        <svg viewBox="0 0 15 15" width="100%" height="30px" preserveAspectRatio="xMaxYMin meet">
         <g id="arrow_out" transform="scale(0.3 0.3)">
          <a xlink:href="___capacites_8h__incl_org.svg" target="_top" target="_base">
           <rect id="button" ry="5" rx="5" y="6" x="6" height="38" width="38"
                fill="#f2f5e9" fill-opacity="0.5" stroke="#606060" stroke-width="1.0"/>
           <path id="arrow"
             d="M 11.500037,31.436501 C 11.940474,20.09759 22.043105,11.32322 32.158766,21.979434 L 37.068811,17.246167 C 37.068811,17.246167 37.088388,32 37.088388,32 L 22.160133,31.978069 C 22.160133,31.978069 26.997745,27.140456 26.997745,27.140456 C 18.528582,18.264221 13.291696,25.230495 11.500037,31.436501 z"
             style="fill:#404040;"/>
          </a>
         </g>
        </svg>
</svg>
