<?xml version="1.0" encoding="UTF-8" standalone="no"?>
<!DOCTYPE svg PUBLIC "-//W3C//DTD SVG 1.1//EN"
 "http://www.w3.org/Graphics/SVG/1.1/DTD/svg11.dtd">
<!-- Generated by graphviz version 2.38.0 (20140413.2041)
 -->
<!-- Title: src/Capacites/_Capacites.h Pages: 1 -->
<svg width="636pt" height="308pt"
 viewBox="0.00 0.00 636.00 308.00" xmlns="http://www.w3.org/2000/svg" xmlns:xlink="http://www.w3.org/1999/xlink">
<g id="graph0" class="graph" transform="scale(1 1) rotate(0) translate(4 304)">
<title>src/Capacites/_Capacites.h</title>
<polygon fill="white" stroke="none" points="-4,4 -4,-304 631.997,-304 631.997,4 -4,4"/>
<!-- Node0 -->
<g id="node1" class="node"><title>Node0</title>
<polygon fill="#bfbfbf" stroke="black" points="181.997,-280.5 181.997,-299.5 319.997,-299.5 319.997,-280.5 181.997,-280.5"/>
<text text-anchor="middle" x="250.997" y="-287.5" font-family="Helvetica,sans-Serif" font-size="10.00">src/Capacites/_Capacites.h</text>
</g>
<!-- Node1 -->
<g id="node2" class="node"><title>Node1</title>
<g id="a_node2"><a xlink:href="_cap_test_8h.html" target="_top" xlink:title="CapTest.h">
<polygon fill="white" stroke="black" points="219.997,-224.5 219.997,-243.5 281.997,-243.5 281.997,-224.5 219.997,-224.5"/>
<text text-anchor="middle" x="250.997" y="-231.5" font-family="Helvetica,sans-Serif" font-size="10.00">CapTest.h</text>
</a>
</g>
</g>
<!-- Node0&#45;&gt;Node1 -->
<g id="edge1" class="edge"><title>Node0&#45;&gt;Node1</title>
<path fill="none" stroke="midnightblue" d="M250.997,-280.083C250.997,-273.006 250.997,-262.861 250.997,-253.986"/>
<polygon fill="midnightblue" stroke="midnightblue" points="254.497,-253.751 250.997,-243.751 247.497,-253.751 254.497,-253.751"/>
</g>
<!-- Node12 -->
<g id="node13" class="node"><title>Node12</title>
<g id="a_node13"><a xlink:href="_cap_piou_8h.html" target="_top" xlink:title="CapPiou.h">
<polygon fill="white" stroke="black" points="91.9974,-224.5 91.9974,-243.5 153.997,-243.5 153.997,-224.5 91.9974,-224.5"/>
<text text-anchor="middle" x="122.997" y="-231.5" font-family="Helvetica,sans-Serif" font-size="10.00">CapPiou.h</text>
</a>
</g>
</g>
<!-- Node0&#45;&gt;Node12 -->
<g id="edge19" class="edge"><title>Node0&#45;&gt;Node12</title>
<path fill="none" stroke="midnightblue" d="M230.715,-280.444C209.65,-271.557 176.481,-257.563 152.512,-247.451"/>
<polygon fill="midnightblue" stroke="midnightblue" points="153.759,-244.179 143.184,-243.516 151.038,-250.628 153.759,-244.179"/>
</g>
<!-- Node14 -->
<g id="node15" class="node"><title>Node14</title>
<g id="a_node15"><a xlink:href="_cap_dash_8h.html" target="_top" xlink:title="CapDash.h">
<polygon fill="white" stroke="black" points="313.997,-224.5 313.997,-243.5 379.997,-243.5 379.997,-224.5 313.997,-224.5"/>
<text text-anchor="middle" x="346.997" y="-231.5" font-family="Helvetica,sans-Serif" font-size="10.00">CapDash.h</text>
</a>
</g>
</g>
<!-- Node0&#45;&gt;Node14 -->
<g id="edge24" class="edge"><title>Node0&#45;&gt;Node14</title>
<path fill="none" stroke="midnightblue" d="M266.421,-280.324C281.537,-271.822 304.813,-258.729 322.469,-248.797"/>
<polygon fill="midnightblue" stroke="midnightblue" points="324.612,-251.608 331.612,-243.655 321.18,-245.507 324.612,-251.608"/>
</g>
<!-- Node2 -->
<g id="node3" class="node"><title>Node2</title>
<g id="a_node3"><a xlink:href="_capacite_8h.html" target="_top" xlink:title="Capacite.h">
<polygon fill="white" stroke="black" points="328.997,-168.5 328.997,-187.5 392.997,-187.5 392.997,-168.5 328.997,-168.5"/>
<text text-anchor="middle" x="360.997" y="-175.5" font-family="Helvetica,sans-Serif" font-size="10.00">Capacite.h</text>
</a>
</g>
</g>
<!-- Node1&#45;&gt;Node2 -->
<g id="edge2" class="edge"><title>Node1&#45;&gt;Node2</title>
<path fill="none" stroke="midnightblue" d="M268.671,-224.324C286.392,-215.625 313.901,-202.12 334.286,-192.113"/>
<polygon fill="midnightblue" stroke="midnightblue" points="335.934,-195.203 343.368,-187.655 332.849,-188.919 335.934,-195.203"/>
</g>
<!-- Node6 -->
<g id="node7" class="node"><title>Node6</title>
<g id="a_node7"><a xlink:href="_projectile_8h.html" target="_top" xlink:title="../Projectiles/Projectile.h">
<polygon fill="white" stroke="black" points="125.497,-112.5 125.497,-131.5 248.497,-131.5 248.497,-112.5 125.497,-112.5"/>
<text text-anchor="middle" x="186.997" y="-119.5" font-family="Helvetica,sans-Serif" font-size="10.00">../Projectiles/Projectile.h</text>
</a>
</g>
</g>
<!-- Node1&#45;&gt;Node6 -->
<g id="edge16" class="edge"><title>Node1&#45;&gt;Node6</title>
<path fill="none" stroke="midnightblue" d="M227.209,-224.499C211.276,-217.413 191.534,-205.605 181.997,-188 174.256,-173.708 176.773,-154.996 180.476,-141.321"/>
<polygon fill="midnightblue" stroke="midnightblue" points="183.867,-142.203 183.526,-131.614 177.189,-140.104 183.867,-142.203"/>
</g>
<!-- Node11 -->
<g id="node12" class="node"><title>Node11</title>
<g id="a_node12"><a xlink:href="_proj_test_8h.html" target="_top" xlink:title="../Projectiles/ProjTest.h">
<polygon fill="white" stroke="black" points="191.497,-168.5 191.497,-187.5 310.497,-187.5 310.497,-168.5 191.497,-168.5"/>
<text text-anchor="middle" x="250.997" y="-175.5" font-family="Helvetica,sans-Serif" font-size="10.00">../Projectiles/ProjTest.h</text>
</a>
</g>
</g>
<!-- Node1&#45;&gt;Node11 -->
<g id="edge17" class="edge"><title>Node1&#45;&gt;Node11</title>
<path fill="none" stroke="midnightblue" d="M250.997,-224.083C250.997,-217.006 250.997,-206.861 250.997,-197.986"/>
<polygon fill="midnightblue" stroke="midnightblue" points="254.497,-197.751 250.997,-187.751 247.497,-197.751 254.497,-197.751"/>
</g>
<!-- Node3 -->
<g id="node4" class="node"><title>Node3</title>
<polygon fill="white" stroke="#bfbfbf" points="275.997,-0.5 275.997,-19.5 319.997,-19.5 319.997,-0.5 275.997,-0.5"/>
<text text-anchor="middle" x="297.997" y="-7.5" font-family="Helvetica,sans-Serif" font-size="10.00">vector</text>
</g>
<!-- Node2&#45;&gt;Node3 -->
<g id="edge3" class="edge"><title>Node2&#45;&gt;Node3</title>
<path fill="none" stroke="midnightblue" d="M360.41,-168.353C358.739,-147.876 352.797,-95.2032 333.997,-56 328.989,-45.5551 321.147,-35.3533 314.059,-27.3113"/>
<polygon fill="midnightblue" stroke="midnightblue" points="316.459,-24.7516 307.096,-19.7928 311.323,-29.5079 316.459,-24.7516"/>
</g>
<!-- Node4 -->
<g id="node5" class="node"><title>Node4</title>
<polygon fill="white" stroke="#bfbfbf" points="283.497,-56.5 283.497,-75.5 324.497,-75.5 324.497,-56.5 283.497,-56.5"/>
<text text-anchor="middle" x="303.997" y="-63.5" font-family="Helvetica,sans-Serif" font-size="10.00">string</text>
</g>
<!-- Node2&#45;&gt;Node4 -->
<g id="edge4" class="edge"><title>Node2&#45;&gt;Node4</title>
<path fill="none" stroke="midnightblue" d="M356.525,-168.368C347.201,-150.376 325.528,-108.55 313.131,-84.6267"/>
<polygon fill="midnightblue" stroke="midnightblue" points="316.158,-82.8599 308.449,-75.5914 309.943,-86.0805 316.158,-82.8599"/>
</g>
<!-- Node5 -->
<g id="node6" class="node"><title>Node5</title>
<polygon fill="white" stroke="#bfbfbf" points="208.997,-56.5 208.997,-75.5 264.997,-75.5 264.997,-56.5 208.997,-56.5"/>
<text text-anchor="middle" x="236.997" y="-63.5" font-family="Helvetica,sans-Serif" font-size="10.00">algorithm</text>
</g>
<!-- Node2&#45;&gt;Node5 -->
<g id="edge5" class="edge"><title>Node2&#45;&gt;Node5</title>
<path fill="none" stroke="midnightblue" d="M351.267,-168.368C330.351,-149.814 280.863,-105.913 254.4,-82.4376"/>
<polygon fill="midnightblue" stroke="midnightblue" points="256.486,-79.6093 246.682,-75.5914 251.84,-84.8459 256.486,-79.6093"/>
</g>
<!-- Node2&#45;&gt;Node6 -->
<g id="edge6" class="edge"><title>Node2&#45;&gt;Node6</title>
<path fill="none" stroke="midnightblue" d="M333.427,-168.444C303.9,-159.28 256.88,-144.688 224.115,-134.519"/>
<polygon fill="midnightblue" stroke="midnightblue" points="225.027,-131.138 214.439,-131.516 222.952,-137.823 225.027,-131.138"/>
</g>
<!-- Node7 -->
<g id="node8" class="node"><title>Node7</title>
<g id="a_node8"><a xlink:href="_entite_8h.html" target="_top" xlink:title="../Entite.h">
<polygon fill="white" stroke="black" points="381.497,-56.5 381.497,-75.5 440.497,-75.5 440.497,-56.5 381.497,-56.5"/>
<text text-anchor="middle" x="410.997" y="-63.5" font-family="Helvetica,sans-Serif" font-size="10.00">../Entite.h</text>
</a>
</g>
</g>
<!-- Node2&#45;&gt;Node7 -->
<g id="edge15" class="edge"><title>Node2&#45;&gt;Node7</title>
<path fill="none" stroke="midnightblue" d="M364.921,-168.368C373.063,-150.456 391.941,-108.923 402.839,-84.9482"/>
<polygon fill="midnightblue" stroke="midnightblue" points="406.14,-86.1434 407.092,-75.5914 399.768,-83.2468 406.14,-86.1434"/>
</g>
<!-- Node6&#45;&gt;Node3 -->
<g id="edge7" class="edge"><title>Node6&#45;&gt;Node3</title>
<path fill="none" stroke="midnightblue" d="M186.388,-112.41C185.896,-98.9236 186.867,-72.6124 199.997,-56 216.233,-35.4589 243.977,-23.9311 265.81,-17.699"/>
<polygon fill="midnightblue" stroke="midnightblue" points="266.879,-21.0371 275.669,-15.1217 265.109,-14.2647 266.879,-21.0371"/>
</g>
<!-- Node6&#45;&gt;Node4 -->
<g id="edge8" class="edge"><title>Node6&#45;&gt;Node4</title>
<path fill="none" stroke="midnightblue" d="M205.536,-112.444C224.62,-103.636 254.572,-89.8116 276.433,-79.722"/>
<polygon fill="midnightblue" stroke="midnightblue" points="277.932,-82.8849 285.545,-75.5164 274.999,-76.5292 277.932,-82.8849"/>
</g>
<!-- Node6&#45;&gt;Node5 -->
<g id="edge9" class="edge"><title>Node6&#45;&gt;Node5</title>
<path fill="none" stroke="midnightblue" d="M195.254,-112.083C202.462,-104.298 213.107,-92.8015 221.843,-83.3665"/>
<polygon fill="midnightblue" stroke="midnightblue" points="224.669,-85.4666 228.895,-75.7511 219.532,-80.7108 224.669,-85.4666"/>
</g>
<!-- Node6&#45;&gt;Node7 -->
<g id="edge10" class="edge"><title>Node6&#45;&gt;Node7</title>
<path fill="none" stroke="midnightblue" d="M222.491,-112.444C263.063,-102.663 329.292,-86.6968 371.476,-76.5274"/>
<polygon fill="midnightblue" stroke="midnightblue" points="372.492,-79.883 381.393,-74.1368 370.851,-73.0779 372.492,-79.883"/>
</g>
<!-- Node7&#45;&gt;Node3 -->
<g id="edge11" class="edge"><title>Node7&#45;&gt;Node3</title>
<path fill="none" stroke="midnightblue" d="M393.092,-56.4435C374.743,-47.6751 345.992,-33.9355 324.904,-23.8579"/>
<polygon fill="midnightblue" stroke="midnightblue" points="326.351,-20.6703 315.819,-19.5164 323.332,-26.9862 326.351,-20.6703"/>
</g>
<!-- Node8 -->
<g id="node9" class="node"><title>Node8</title>
<polygon fill="white" stroke="#bfbfbf" points="337.997,-0.5 337.997,-19.5 389.997,-19.5 389.997,-0.5 337.997,-0.5"/>
<text text-anchor="middle" x="363.997" y="-7.5" font-family="Helvetica,sans-Serif" font-size="10.00">memory</text>
</g>
<!-- Node7&#45;&gt;Node8 -->
<g id="edge12" class="edge"><title>Node7&#45;&gt;Node8</title>
<path fill="none" stroke="midnightblue" d="M403.236,-56.083C396.461,-48.2982 386.454,-36.8015 378.242,-27.3665"/>
<polygon fill="midnightblue" stroke="midnightblue" points="380.819,-24.9963 371.614,-19.7511 375.539,-29.592 380.819,-24.9963"/>
</g>
<!-- Node9 -->
<g id="node10" class="node"><title>Node9</title>
<polygon fill="white" stroke="#bfbfbf" points="407.997,-0.5 407.997,-19.5 505.997,-19.5 505.997,-0.5 407.997,-0.5"/>
<text text-anchor="middle" x="456.997" y="-7.5" font-family="Helvetica,sans-Serif" font-size="10.00">SFML/System.hpp</text>
</g>
<!-- Node7&#45;&gt;Node9 -->
<g id="edge13" class="edge"><title>Node7&#45;&gt;Node9</title>
<path fill="none" stroke="midnightblue" d="M418.593,-56.083C425.225,-48.2982 435.018,-36.8015 443.056,-27.3665"/>
<polygon fill="midnightblue" stroke="midnightblue" points="445.722,-29.6332 449.543,-19.7511 440.394,-25.0939 445.722,-29.6332"/>
</g>
<!-- Node10 -->
<g id="node11" class="node"><title>Node10</title>
<polygon fill="white" stroke="#bfbfbf" points="523.997,-0.5 523.997,-19.5 627.997,-19.5 627.997,-0.5 523.997,-0.5"/>
<text text-anchor="middle" x="575.997" y="-7.5" font-family="Helvetica,sans-Serif" font-size="10.00">SFML/Graphics.hpp</text>
</g>
<!-- Node7&#45;&gt;Node10 -->
<g id="edge14" class="edge"><title>Node7&#45;&gt;Node10</title>
<path fill="none" stroke="midnightblue" d="M437.142,-56.4435C465.021,-47.3196 509.346,-32.8133 540.397,-22.6509"/>
<polygon fill="midnightblue" stroke="midnightblue" points="541.56,-25.9533 549.975,-19.5164 539.382,-19.3005 541.56,-25.9533"/>
</g>
<!-- Node11&#45;&gt;Node6 -->
<g id="edge18" class="edge"><title>Node11&#45;&gt;Node6</title>
<path fill="none" stroke="midnightblue" d="M240.715,-168.324C231.161,-160.263 216.718,-148.077 205.213,-138.369"/>
<polygon fill="midnightblue" stroke="midnightblue" points="207.367,-135.608 197.467,-131.834 202.853,-140.958 207.367,-135.608"/>
</g>
<!-- Node12&#45;&gt;Node2 -->
<g id="edge20" class="edge"><title>Node12&#45;&gt;Node2</title>
<path fill="none" stroke="midnightblue" d="M154.112,-225.94C196.254,-216.379 271.621,-199.279 318.822,-188.569"/>
<polygon fill="midnightblue" stroke="midnightblue" points="319.756,-191.946 328.733,-186.32 318.207,-185.12 319.756,-191.946"/>
</g>
<!-- Node12&#45;&gt;Node6 -->
<g id="edge21" class="edge"><title>Node12&#45;&gt;Node6</title>
<path fill="none" stroke="midnightblue" d="M91.7295,-227.996C48.9246,-219.804 -19.8358,-201.042 5.99737,-168 19.7181,-150.45 70.977,-138.766 115.459,-131.712"/>
<polygon fill="midnightblue" stroke="midnightblue" points="116.059,-135.161 125.416,-130.19 115.002,-128.241 116.059,-135.161"/>
</g>
<!-- Node13 -->
<g id="node14" class="node"><title>Node13</title>
<g id="a_node14"><a xlink:href="_proj_piou_8h.html" target="_top" xlink:title="../Projectiles/ProjPiou.h">
<polygon fill="white" stroke="black" points="15.4974,-168.5 15.4974,-187.5 134.497,-187.5 134.497,-168.5 15.4974,-168.5"/>
<text text-anchor="middle" x="74.9974" y="-175.5" font-family="Helvetica,sans-Serif" font-size="10.00">../Projectiles/ProjPiou.h</text>
</a>
</g>
</g>
<!-- Node12&#45;&gt;Node13 -->
<g id="edge22" class="edge"><title>Node12&#45;&gt;Node13</title>
<path fill="none" stroke="midnightblue" d="M115.071,-224.083C108.151,-216.298 97.932,-204.801 89.5454,-195.367"/>
<polygon fill="midnightblue" stroke="midnightblue" points="92.0357,-192.9 82.7761,-187.751 86.8038,-197.55 92.0357,-192.9"/>
</g>
<!-- Node13&#45;&gt;Node6 -->
<g id="edge23" class="edge"><title>Node13&#45;&gt;Node6</title>
<path fill="none" stroke="midnightblue" d="M92.9921,-168.324C111.035,-159.625 139.044,-146.12 159.8,-136.113"/>
<polygon fill="midnightblue" stroke="midnightblue" points="161.56,-139.15 169.047,-131.655 158.52,-132.845 161.56,-139.15"/>
</g>
<!-- Node14&#45;&gt;Node2 -->
<g id="edge25" class="edge"><title>Node14&#45;&gt;Node2</title>
<path fill="none" stroke="midnightblue" d="M349.309,-224.083C351.164,-216.927 353.833,-206.635 356.152,-197.691"/>
<polygon fill="midnightblue" stroke="midnightblue" points="359.607,-198.309 358.729,-187.751 352.831,-196.553 359.607,-198.309"/>
</g>
<!-- Node14&#45;&gt;Node7 -->
<g id="edge26" class="edge"><title>Node14&#45;&gt;Node7</title>
<path fill="none" stroke="midnightblue" d="M363.605,-224.38C376.505,-216.708 393.571,-204.199 401.997,-188 419.033,-155.25 416.962,-110.636 413.961,-85.7481"/>
<polygon fill="midnightblue" stroke="midnightblue" points="417.384,-84.9544 412.537,-75.5334 410.451,-85.9208 417.384,-84.9544"/>
</g>
<!-- Node14&#45;&gt;Node11 -->
<g id="edge27" class="edge"><title>Node14&#45;&gt;Node11</title>
<path fill="none" stroke="midnightblue" d="M331.573,-224.324C316.458,-215.822 293.182,-202.729 275.526,-192.797"/>
<polygon fill="midnightblue" stroke="midnightblue" points="276.815,-189.507 266.383,-187.655 273.383,-195.608 276.815,-189.507"/>
</g>
</g>
</svg>
