<?xml version="1.0" encoding="UTF-8" standalone="no"?>
<!DOCTYPE svg PUBLIC "-//W3C//DTD SVG 1.1//EN"
 "http://www.w3.org/Graphics/SVG/1.1/DTD/svg11.dtd">
<!-- Generated by graphviz version 2.38.0 (20140413.2041)
 -->
<!-- Title: src/Projectiles/_projectiles.h Pages: 1 -->
<svg width="376pt" height="252pt"
 viewBox="0.00 0.00 376.00 252.00" xmlns="http://www.w3.org/2000/svg" xmlns:xlink="http://www.w3.org/1999/xlink">
<g id="graph0" class="graph" transform="scale(1 1) rotate(0) translate(4 248)">
<title>src/Projectiles/_projectiles.h</title>
<polygon fill="white" stroke="none" points="-4,4 -4,-248 372,-248 372,4 -4,4"/>
<!-- Node0 -->
<g id="node1" class="node"><title>Node0</title>
<polygon fill="#bfbfbf" stroke="black" points="17,-224.5 17,-243.5 157,-243.5 157,-224.5 17,-224.5"/>
<text text-anchor="middle" x="87" y="-231.5" font-family="Helvetica,sans-Serif" font-size="10.00">src/Projectiles/_projectiles.h</text>
</g>
<!-- Node1 -->
<g id="node2" class="node"><title>Node1</title>
<g id="a_node2"><a xlink:href="_proj_test_8h.html" target="_top" xlink:title="ProjTest.h">
<polygon fill="white" stroke="black" points="16,-168.5 16,-187.5 78,-187.5 78,-168.5 16,-168.5"/>
<text text-anchor="middle" x="47" y="-175.5" font-family="Helvetica,sans-Serif" font-size="10.00">ProjTest.h</text>
</a>
</g>
</g>
<!-- Node0&#45;&gt;Node1 -->
<g id="edge1" class="edge"><title>Node0&#45;&gt;Node1</title>
<path fill="none" stroke="midnightblue" d="M80.3948,-224.083C74.7448,-216.455 66.4552,-205.264 59.5488,-195.941"/>
<polygon fill="midnightblue" stroke="midnightblue" points="62.2471,-193.703 53.4823,-187.751 56.6221,-197.87 62.2471,-193.703"/>
</g>
<!-- Node10 -->
<g id="node11" class="node"><title>Node10</title>
<g id="a_node11"><a xlink:href="_proj_piou_8h.html" target="_top" xlink:title="ProjPiou.h">
<polygon fill="white" stroke="black" points="96,-168.5 96,-187.5 158,-187.5 158,-168.5 96,-168.5"/>
<text text-anchor="middle" x="127" y="-175.5" font-family="Helvetica,sans-Serif" font-size="10.00">ProjPiou.h</text>
</a>
</g>
</g>
<!-- Node0&#45;&gt;Node10 -->
<g id="edge11" class="edge"><title>Node0&#45;&gt;Node10</title>
<path fill="none" stroke="midnightblue" d="M93.6052,-224.083C99.2552,-216.455 107.545,-205.264 114.451,-195.941"/>
<polygon fill="midnightblue" stroke="midnightblue" points="117.378,-197.87 120.518,-187.751 111.753,-193.703 117.378,-197.87"/>
</g>
<!-- Node2 -->
<g id="node3" class="node"><title>Node2</title>
<g id="a_node3"><a xlink:href="_projectile_8h.html" target="_top" xlink:title="Projectile.h">
<polygon fill="white" stroke="black" points="54.5,-112.5 54.5,-131.5 119.5,-131.5 119.5,-112.5 54.5,-112.5"/>
<text text-anchor="middle" x="87" y="-119.5" font-family="Helvetica,sans-Serif" font-size="10.00">Projectile.h</text>
</a>
</g>
</g>
<!-- Node1&#45;&gt;Node2 -->
<g id="edge2" class="edge"><title>Node1&#45;&gt;Node2</title>
<path fill="none" stroke="midnightblue" d="M53.6052,-168.083C59.2552,-160.455 67.5448,-149.264 74.4512,-139.941"/>
<polygon fill="midnightblue" stroke="midnightblue" points="77.3779,-141.87 80.5177,-131.751 71.7529,-137.703 77.3779,-141.87"/>
</g>
<!-- Node3 -->
<g id="node4" class="node"><title>Node3</title>
<polygon fill="white" stroke="#bfbfbf" points="0,-0.5 0,-19.5 44,-19.5 44,-0.5 0,-0.5"/>
<text text-anchor="middle" x="22" y="-7.5" font-family="Helvetica,sans-Serif" font-size="10.00">vector</text>
</g>
<!-- Node2&#45;&gt;Node3 -->
<g id="edge3" class="edge"><title>Node2&#45;&gt;Node3</title>
<path fill="none" stroke="midnightblue" d="M66.6125,-112.5C51.9138,-105.176 33.1202,-93.0718 24,-76 16.4358,-61.8408 16.6572,-43.3583 18.3492,-29.7229"/>
<polygon fill="midnightblue" stroke="midnightblue" points="21.8431,-30.0399 19.9777,-19.6106 14.9322,-28.9269 21.8431,-30.0399"/>
</g>
<!-- Node4 -->
<g id="node5" class="node"><title>Node4</title>
<polygon fill="white" stroke="#bfbfbf" points="33.5,-56.5 33.5,-75.5 74.5,-75.5 74.5,-56.5 33.5,-56.5"/>
<text text-anchor="middle" x="54" y="-63.5" font-family="Helvetica,sans-Serif" font-size="10.00">string</text>
</g>
<!-- Node2&#45;&gt;Node4 -->
<g id="edge4" class="edge"><title>Node2&#45;&gt;Node4</title>
<path fill="none" stroke="midnightblue" d="M81.5507,-112.083C76.9855,-104.613 70.3316,-93.7244 64.7066,-84.5199"/>
<polygon fill="midnightblue" stroke="midnightblue" points="67.5489,-82.4588 59.3479,-75.7511 61.5759,-86.109 67.5489,-82.4588"/>
</g>
<!-- Node5 -->
<g id="node6" class="node"><title>Node5</title>
<polygon fill="white" stroke="#bfbfbf" points="93,-56.5 93,-75.5 149,-75.5 149,-56.5 93,-56.5"/>
<text text-anchor="middle" x="121" y="-63.5" font-family="Helvetica,sans-Serif" font-size="10.00">algorithm</text>
</g>
<!-- Node2&#45;&gt;Node5 -->
<g id="edge5" class="edge"><title>Node2&#45;&gt;Node5</title>
<path fill="none" stroke="midnightblue" d="M92.6144,-112.083C97.3674,-104.534 104.318,-93.4948 110.152,-84.2298"/>
<polygon fill="midnightblue" stroke="midnightblue" points="113.124,-86.0783 115.49,-75.7511 107.2,-82.3486 113.124,-86.0783"/>
</g>
<!-- Node6 -->
<g id="node7" class="node"><title>Node6</title>
<g id="a_node7"><a xlink:href="_entite_8h.html" target="_top" xlink:title="../Entite.h">
<polygon fill="white" stroke="black" points="167.5,-56.5 167.5,-75.5 226.5,-75.5 226.5,-56.5 167.5,-56.5"/>
<text text-anchor="middle" x="197" y="-63.5" font-family="Helvetica,sans-Serif" font-size="10.00">../Entite.h</text>
</a>
</g>
</g>
<!-- Node2&#45;&gt;Node6 -->
<g id="edge6" class="edge"><title>Node2&#45;&gt;Node6</title>
<path fill="none" stroke="midnightblue" d="M104.673,-112.324C122.394,-103.625 149.903,-90.1202 170.288,-80.113"/>
<polygon fill="midnightblue" stroke="midnightblue" points="171.936,-83.2031 179.37,-75.6545 168.851,-76.9195 171.936,-83.2031"/>
</g>
<!-- Node6&#45;&gt;Node3 -->
<g id="edge7" class="edge"><title>Node6&#45;&gt;Node3</title>
<path fill="none" stroke="midnightblue" d="M169.271,-56.4435C137.828,-46.7411 86.6593,-30.952 53.6708,-20.7727"/>
<polygon fill="midnightblue" stroke="midnightblue" points="54.646,-17.4109 44.0586,-17.8067 52.582,-24.0997 54.646,-17.4109"/>
</g>
<!-- Node7 -->
<g id="node8" class="node"><title>Node7</title>
<polygon fill="white" stroke="#bfbfbf" points="78,-0.5 78,-19.5 130,-19.5 130,-0.5 78,-0.5"/>
<text text-anchor="middle" x="104" y="-7.5" font-family="Helvetica,sans-Serif" font-size="10.00">memory</text>
</g>
<!-- Node6&#45;&gt;Node7 -->
<g id="edge8" class="edge"><title>Node6&#45;&gt;Node7</title>
<path fill="none" stroke="midnightblue" d="M182.058,-56.324C167.415,-47.8215 144.866,-34.7288 127.762,-24.7975"/>
<polygon fill="midnightblue" stroke="midnightblue" points="129.31,-21.6491 118.905,-19.6545 125.795,-27.7027 129.31,-21.6491"/>
</g>
<!-- Node8 -->
<g id="node9" class="node"><title>Node8</title>
<polygon fill="white" stroke="#bfbfbf" points="148,-0.5 148,-19.5 246,-19.5 246,-0.5 148,-0.5"/>
<text text-anchor="middle" x="197" y="-7.5" font-family="Helvetica,sans-Serif" font-size="10.00">SFML/System.hpp</text>
</g>
<!-- Node6&#45;&gt;Node8 -->
<g id="edge9" class="edge"><title>Node6&#45;&gt;Node8</title>
<path fill="none" stroke="midnightblue" d="M197,-56.083C197,-49.0059 197,-38.8611 197,-29.9865"/>
<polygon fill="midnightblue" stroke="midnightblue" points="200.5,-29.751 197,-19.7511 193.5,-29.7511 200.5,-29.751"/>
</g>
<!-- Node9 -->
<g id="node10" class="node"><title>Node9</title>
<polygon fill="white" stroke="#bfbfbf" points="264,-0.5 264,-19.5 368,-19.5 368,-0.5 264,-0.5"/>
<text text-anchor="middle" x="316" y="-7.5" font-family="Helvetica,sans-Serif" font-size="10.00">SFML/Graphics.hpp</text>
</g>
<!-- Node6&#45;&gt;Node9 -->
<g id="edge10" class="edge"><title>Node6&#45;&gt;Node9</title>
<path fill="none" stroke="midnightblue" d="M215.856,-56.4435C235.266,-47.6356 265.73,-33.8116 287.965,-23.722"/>
<polygon fill="midnightblue" stroke="midnightblue" points="289.572,-26.836 297.232,-19.5164 286.68,-20.4615 289.572,-26.836"/>
</g>
<!-- Node10&#45;&gt;Node2 -->
<g id="edge12" class="edge"><title>Node10&#45;&gt;Node2</title>
<path fill="none" stroke="midnightblue" d="M120.395,-168.083C114.745,-160.455 106.455,-149.264 99.5488,-139.941"/>
<polygon fill="midnightblue" stroke="midnightblue" points="102.247,-137.703 93.4823,-131.751 96.6221,-141.87 102.247,-137.703"/>
</g>
</g>
</svg>
