<?xml version="1.0" encoding="UTF-8" standalone="no"?>
<!DOCTYPE svg PUBLIC "-//W3C//DTD SVG 1.1//EN"
 "http://www.w3.org/Graphics/SVG/1.1/DTD/svg11.dtd">
<!-- Generated by graphviz version 2.38.0 (20140413.2041)
 -->
<!-- Title: src/Projectiles/_projectiles.h Pages: 1 -->
<svg width="483pt" height="252pt"
 viewBox="0.00 0.00 482.50 252.00" xmlns="http://www.w3.org/2000/svg" xmlns:xlink="http://www.w3.org/1999/xlink">
<g id="graph0" class="graph" transform="scale(1 1) rotate(0) translate(4 248)">
<title>src/Projectiles/_projectiles.h</title>
<polygon fill="white" stroke="none" points="-4,4 -4,-248 478.5,-248 478.5,4 -4,4"/>
<!-- Node0 -->
<g id="node1" class="node"><title>Node0</title>
<polygon fill="#bfbfbf" stroke="black" points="41,-224.5 41,-243.5 181,-243.5 181,-224.5 41,-224.5"/>
<text text-anchor="middle" x="111" y="-231.5" font-family="Helvetica,sans-Serif" font-size="10.00">src/Projectiles/_projectiles.h</text>
</g>
<!-- Node1 -->
<g id="node2" class="node"><title>Node1</title>
<g id="a_node2"><a xlink:href="_proj_test_8h.html" target="_top" xlink:title="ProjTest.h">
<polygon fill="white" stroke="black" points="0,-168.5 0,-187.5 62,-187.5 62,-168.5 0,-168.5"/>
<text text-anchor="middle" x="31" y="-175.5" font-family="Helvetica,sans-Serif" font-size="10.00">ProjTest.h</text>
</a>
</g>
</g>
<!-- Node0&#45;&gt;Node1 -->
<g id="edge1" class="edge"><title>Node0&#45;&gt;Node1</title>
<path fill="none" stroke="midnightblue" d="M98.1466,-224.324C85.7836,-215.979 66.8699,-203.212 52.2628,-193.352"/>
<polygon fill="midnightblue" stroke="midnightblue" points="54.0682,-190.348 43.8215,-187.655 50.1518,-196.15 54.0682,-190.348"/>
</g>
<!-- Node11 -->
<g id="node12" class="node"><title>Node11</title>
<g id="a_node12"><a xlink:href="_proj_piou_8h.html" target="_top" xlink:title="ProjPiou.h">
<polygon fill="white" stroke="black" points="80,-168.5 80,-187.5 142,-187.5 142,-168.5 80,-168.5"/>
<text text-anchor="middle" x="111" y="-175.5" font-family="Helvetica,sans-Serif" font-size="10.00">ProjPiou.h</text>
</a>
</g>
</g>
<!-- Node0&#45;&gt;Node11 -->
<g id="edge12" class="edge"><title>Node0&#45;&gt;Node11</title>
<path fill="none" stroke="midnightblue" d="M111,-224.083C111,-217.006 111,-206.861 111,-197.986"/>
<polygon fill="midnightblue" stroke="midnightblue" points="114.5,-197.751 111,-187.751 107.5,-197.751 114.5,-197.751"/>
</g>
<!-- Node12 -->
<g id="node13" class="node"><title>Node12</title>
<g id="a_node13"><a xlink:href="_proj_missile_8h.html" target="_top" xlink:title="ProjMissile.h">
<polygon fill="white" stroke="black" points="160.5,-168.5 160.5,-187.5 233.5,-187.5 233.5,-168.5 160.5,-168.5"/>
<text text-anchor="middle" x="197" y="-175.5" font-family="Helvetica,sans-Serif" font-size="10.00">ProjMissile.h</text>
</a>
</g>
</g>
<!-- Node0&#45;&gt;Node12 -->
<g id="edge14" class="edge"><title>Node0&#45;&gt;Node12</title>
<path fill="none" stroke="midnightblue" d="M124.817,-224.324C138.233,-215.9 158.824,-202.971 174.586,-193.074"/>
<polygon fill="midnightblue" stroke="midnightblue" points="176.609,-195.936 183.217,-187.655 172.887,-190.008 176.609,-195.936"/>
</g>
<!-- Node2 -->
<g id="node3" class="node"><title>Node2</title>
<g id="a_node3"><a xlink:href="_projectile_8h.html" target="_top" xlink:title="Projectile.h">
<polygon fill="white" stroke="black" points="78.5,-112.5 78.5,-131.5 143.5,-131.5 143.5,-112.5 78.5,-112.5"/>
<text text-anchor="middle" x="111" y="-119.5" font-family="Helvetica,sans-Serif" font-size="10.00">Projectile.h</text>
</a>
</g>
</g>
<!-- Node1&#45;&gt;Node2 -->
<g id="edge2" class="edge"><title>Node1&#45;&gt;Node2</title>
<path fill="none" stroke="midnightblue" d="M43.8534,-168.324C56.2164,-159.979 75.1301,-147.212 89.7372,-137.352"/>
<polygon fill="midnightblue" stroke="midnightblue" points="91.8482,-140.15 98.1785,-131.655 87.9318,-134.348 91.8482,-140.15"/>
</g>
<!-- Node3 -->
<g id="node4" class="node"><title>Node3</title>
<polygon fill="white" stroke="#bfbfbf" points="23,-0.5 23,-19.5 67,-19.5 67,-0.5 23,-0.5"/>
<text text-anchor="middle" x="45" y="-7.5" font-family="Helvetica,sans-Serif" font-size="10.00">vector</text>
</g>
<!-- Node2&#45;&gt;Node3 -->
<g id="edge3" class="edge"><title>Node2&#45;&gt;Node3</title>
<path fill="none" stroke="midnightblue" d="M90.6876,-112.459C76.0283,-105.114 57.2511,-93.0013 48,-76 40.3227,-61.891 40.2482,-43.4029 41.6993,-29.7527"/>
<polygon fill="midnightblue" stroke="midnightblue" points="45.1965,-30.0208 43.1438,-19.6267 38.2666,-29.0322 45.1965,-30.0208"/>
</g>
<!-- Node4 -->
<g id="node5" class="node"><title>Node4</title>
<polygon fill="white" stroke="#bfbfbf" points="57.5,-56.5 57.5,-75.5 98.5,-75.5 98.5,-56.5 57.5,-56.5"/>
<text text-anchor="middle" x="78" y="-63.5" font-family="Helvetica,sans-Serif" font-size="10.00">string</text>
</g>
<!-- Node2&#45;&gt;Node4 -->
<g id="edge4" class="edge"><title>Node2&#45;&gt;Node4</title>
<path fill="none" stroke="midnightblue" d="M105.551,-112.083C100.986,-104.613 94.3316,-93.7244 88.7066,-84.5199"/>
<polygon fill="midnightblue" stroke="midnightblue" points="91.5489,-82.4588 83.3479,-75.7511 85.5759,-86.109 91.5489,-82.4588"/>
</g>
<!-- Node5 -->
<g id="node6" class="node"><title>Node5</title>
<polygon fill="white" stroke="#bfbfbf" points="117,-56.5 117,-75.5 173,-75.5 173,-56.5 117,-56.5"/>
<text text-anchor="middle" x="145" y="-63.5" font-family="Helvetica,sans-Serif" font-size="10.00">algorithm</text>
</g>
<!-- Node2&#45;&gt;Node5 -->
<g id="edge5" class="edge"><title>Node2&#45;&gt;Node5</title>
<path fill="none" stroke="midnightblue" d="M116.614,-112.083C121.367,-104.534 128.318,-93.4948 134.152,-84.2298"/>
<polygon fill="midnightblue" stroke="midnightblue" points="137.124,-86.0783 139.49,-75.7511 131.2,-82.3486 137.124,-86.0783"/>
</g>
<!-- Node6 -->
<g id="node7" class="node"><title>Node6</title>
<g id="a_node7"><a xlink:href="_entite_8h.html" target="_top" xlink:title="../Entite.h">
<polygon fill="white" stroke="black" points="191.5,-56.5 191.5,-75.5 250.5,-75.5 250.5,-56.5 191.5,-56.5"/>
<text text-anchor="middle" x="221" y="-63.5" font-family="Helvetica,sans-Serif" font-size="10.00">../Entite.h</text>
</a>
</g>
</g>
<!-- Node2&#45;&gt;Node6 -->
<g id="edge6" class="edge"><title>Node2&#45;&gt;Node6</title>
<path fill="none" stroke="midnightblue" d="M128.673,-112.324C146.394,-103.625 173.903,-90.1202 194.288,-80.113"/>
<polygon fill="midnightblue" stroke="midnightblue" points="195.936,-83.2031 203.37,-75.6545 192.851,-76.9195 195.936,-83.2031"/>
</g>
<!-- Node6&#45;&gt;Node3 -->
<g id="edge7" class="edge"><title>Node6&#45;&gt;Node3</title>
<path fill="none" stroke="midnightblue" d="M193.112,-56.4435C161.489,-46.7411 110.029,-30.952 76.8518,-20.7727"/>
<polygon fill="midnightblue" stroke="midnightblue" points="77.7714,-17.3939 67.1846,-17.8067 75.7181,-24.086 77.7714,-17.3939"/>
</g>
<!-- Node7 -->
<g id="node8" class="node"><title>Node7</title>
<polygon fill="white" stroke="#bfbfbf" points="93,-0.5 93,-19.5 145,-19.5 145,-0.5 93,-0.5"/>
<text text-anchor="middle" x="119" y="-7.5" font-family="Helvetica,sans-Serif" font-size="10.00">memory</text>
</g>
<!-- Node6&#45;&gt;Node7 -->
<g id="edge8" class="edge"><title>Node6&#45;&gt;Node7</title>
<path fill="none" stroke="midnightblue" d="M204.612,-56.324C188.329,-47.7034 163.133,-34.3643 144.284,-24.3855"/>
<polygon fill="midnightblue" stroke="midnightblue" points="145.823,-21.2402 135.347,-19.6545 142.548,-27.4267 145.823,-21.2402"/>
</g>
<!-- Node8 -->
<g id="node9" class="node"><title>Node8</title>
<polygon fill="white" stroke="#bfbfbf" points="163,-0.5 163,-19.5 261,-19.5 261,-0.5 163,-0.5"/>
<text text-anchor="middle" x="212" y="-7.5" font-family="Helvetica,sans-Serif" font-size="10.00">SFML/System.hpp</text>
</g>
<!-- Node6&#45;&gt;Node8 -->
<g id="edge9" class="edge"><title>Node6&#45;&gt;Node8</title>
<path fill="none" stroke="midnightblue" d="M219.514,-56.083C218.321,-48.9272 216.606,-38.6353 215.115,-29.6911"/>
<polygon fill="midnightblue" stroke="midnightblue" points="218.555,-29.0396 213.459,-19.7511 211.65,-30.1904 218.555,-29.0396"/>
</g>
<!-- Node9 -->
<g id="node10" class="node"><title>Node9</title>
<polygon fill="white" stroke="#bfbfbf" points="279,-0.5 279,-19.5 383,-19.5 383,-0.5 279,-0.5"/>
<text text-anchor="middle" x="331" y="-7.5" font-family="Helvetica,sans-Serif" font-size="10.00">SFML/Graphics.hpp</text>
</g>
<!-- Node6&#45;&gt;Node9 -->
<g id="edge10" class="edge"><title>Node6&#45;&gt;Node9</title>
<path fill="none" stroke="midnightblue" d="M238.673,-56.324C256.394,-47.6247 283.903,-34.1202 304.288,-24.113"/>
<polygon fill="midnightblue" stroke="midnightblue" points="305.936,-27.2031 313.37,-19.6545 302.851,-20.9195 305.936,-27.2031"/>
</g>
<!-- Node10 -->
<g id="node11" class="node"><title>Node10</title>
<g id="a_node11"><a xlink:href="constantes_8h.html" target="_top" xlink:title="constantes.h">
<polygon fill="white" stroke="black" points="401.5,-0.5 401.5,-19.5 474.5,-19.5 474.5,-0.5 401.5,-0.5"/>
<text text-anchor="middle" x="438" y="-7.5" font-family="Helvetica,sans-Serif" font-size="10.00">constantes.h</text>
</a>
</g>
</g>
<!-- Node6&#45;&gt;Node10 -->
<g id="edge11" class="edge"><title>Node6&#45;&gt;Node10</title>
<path fill="none" stroke="midnightblue" d="M250.718,-57.6048C287.684,-48.4057 351.123,-32.6193 393.799,-21.9994"/>
<polygon fill="midnightblue" stroke="midnightblue" points="394.779,-25.3622 403.638,-19.5509 393.089,-18.5694 394.779,-25.3622"/>
</g>
<!-- Node11&#45;&gt;Node2 -->
<g id="edge13" class="edge"><title>Node11&#45;&gt;Node2</title>
<path fill="none" stroke="midnightblue" d="M111,-168.083C111,-161.006 111,-150.861 111,-141.986"/>
<polygon fill="midnightblue" stroke="midnightblue" points="114.5,-141.751 111,-131.751 107.5,-141.751 114.5,-141.751"/>
</g>
<!-- Node12&#45;&gt;Node2 -->
<g id="edge15" class="edge"><title>Node12&#45;&gt;Node2</title>
<path fill="none" stroke="midnightblue" d="M183.183,-168.324C169.767,-159.9 149.176,-146.971 133.414,-137.074"/>
<polygon fill="midnightblue" stroke="midnightblue" points="135.113,-134.008 124.783,-131.655 131.391,-139.936 135.113,-134.008"/>
</g>
</g>
</svg>
