<?xml version="1.0" encoding="UTF-8" standalone="no"?>
<!DOCTYPE svg PUBLIC "-//W3C//DTD SVG 1.1//EN"
 "http://www.w3.org/Graphics/SVG/1.1/DTD/svg11.dtd">
<!-- Generated by graphviz version 2.38.0 (20140413.2041)
 -->
<!-- Title: src/Projectiles/_projectiles.h Pages: 1 -->
<svg width="334pt" height="252pt"
 viewBox="0.00 0.00 334.00 252.00" xmlns="http://www.w3.org/2000/svg" xmlns:xlink="http://www.w3.org/1999/xlink">
<g id="graph0" class="graph" transform="scale(1 1) rotate(0) translate(4 248)">
<title>src/Projectiles/_projectiles.h</title>
<polygon fill="white" stroke="none" points="-4,4 -4,-248 330,-248 330,4 -4,4"/>
<!-- Node0 -->
<g id="node1" class="node"><title>Node0</title>
<polygon fill="#bfbfbf" stroke="black" points="1,-224.5 1,-243.5 141,-243.5 141,-224.5 1,-224.5"/>
<text text-anchor="middle" x="71" y="-231.5" font-family="Helvetica,sans-Serif" font-size="10.00">src/Projectiles/_projectiles.h</text>
</g>
<!-- Node1 -->
<g id="node2" class="node"><title>Node1</title>
<g id="a_node2"><a xlink:href="_proj_test_8h.html" target="_top" xlink:title="ProjTest.h">
<polygon fill="white" stroke="black" points="0,-168.5 0,-187.5 62,-187.5 62,-168.5 0,-168.5"/>
<text text-anchor="middle" x="31" y="-175.5" font-family="Helvetica,sans-Serif" font-size="10.00">ProjTest.h</text>
</a>
</g>
</g>
<!-- Node0&#45;&gt;Node1 -->
<g id="edge1" class="edge"><title>Node0&#45;&gt;Node1</title>
<path fill="none" stroke="midnightblue" d="M64.3948,-224.083C58.7448,-216.455 50.4552,-205.264 43.5488,-195.941"/>
<polygon fill="midnightblue" stroke="midnightblue" points="46.2471,-193.703 37.4823,-187.751 40.6221,-197.87 46.2471,-193.703"/>
</g>
<!-- Node9 -->
<g id="node10" class="node"><title>Node9</title>
<g id="a_node10"><a xlink:href="_proj_piou_8h.html" target="_top" xlink:title="ProjPiou.h">
<polygon fill="white" stroke="black" points="80,-168.5 80,-187.5 142,-187.5 142,-168.5 80,-168.5"/>
<text text-anchor="middle" x="111" y="-175.5" font-family="Helvetica,sans-Serif" font-size="10.00">ProjPiou.h</text>
</a>
</g>
</g>
<!-- Node0&#45;&gt;Node9 -->
<g id="edge10" class="edge"><title>Node0&#45;&gt;Node9</title>
<path fill="none" stroke="midnightblue" d="M77.6052,-224.083C83.2552,-216.455 91.5448,-205.264 98.4512,-195.941"/>
<polygon fill="midnightblue" stroke="midnightblue" points="101.378,-197.87 104.518,-187.751 95.7529,-193.703 101.378,-197.87"/>
</g>
<!-- Node2 -->
<g id="node3" class="node"><title>Node2</title>
<g id="a_node3"><a xlink:href="_projectile_8h.html" target="_top" xlink:title="Projectile.h">
<polygon fill="white" stroke="black" points="38.5,-112.5 38.5,-131.5 103.5,-131.5 103.5,-112.5 38.5,-112.5"/>
<text text-anchor="middle" x="71" y="-119.5" font-family="Helvetica,sans-Serif" font-size="10.00">Projectile.h</text>
</a>
</g>
</g>
<!-- Node1&#45;&gt;Node2 -->
<g id="edge2" class="edge"><title>Node1&#45;&gt;Node2</title>
<path fill="none" stroke="midnightblue" d="M37.6052,-168.083C43.2552,-160.455 51.5448,-149.264 58.4512,-139.941"/>
<polygon fill="midnightblue" stroke="midnightblue" points="61.3779,-141.87 64.5177,-131.751 55.7529,-137.703 61.3779,-141.87"/>
</g>
<!-- Node3 -->
<g id="node4" class="node"><title>Node3</title>
<polygon fill="white" stroke="#bfbfbf" points="18,-0.5 18,-19.5 62,-19.5 62,-0.5 18,-0.5"/>
<text text-anchor="middle" x="40" y="-7.5" font-family="Helvetica,sans-Serif" font-size="10.00">vector</text>
</g>
<!-- Node2&#45;&gt;Node3 -->
<g id="edge3" class="edge"><title>Node2&#45;&gt;Node3</title>
<path fill="none" stroke="midnightblue" d="M50.1527,-112.427C35.4221,-105.129 16.7951,-93.0905 8,-76 -0.483992,-59.514 11.4119,-40.4626 23.0309,-27.2661"/>
<polygon fill="midnightblue" stroke="midnightblue" points="25.696,-29.5424 30.0449,-19.8813 20.6204,-24.7217 25.696,-29.5424"/>
</g>
<!-- Node4 -->
<g id="node5" class="node"><title>Node4</title>
<polygon fill="white" stroke="#bfbfbf" points="17.5,-56.5 17.5,-75.5 58.5,-75.5 58.5,-56.5 17.5,-56.5"/>
<text text-anchor="middle" x="38" y="-63.5" font-family="Helvetica,sans-Serif" font-size="10.00">string</text>
</g>
<!-- Node2&#45;&gt;Node4 -->
<g id="edge4" class="edge"><title>Node2&#45;&gt;Node4</title>
<path fill="none" stroke="midnightblue" d="M65.5507,-112.083C60.9855,-104.613 54.3316,-93.7244 48.7066,-84.5199"/>
<polygon fill="midnightblue" stroke="midnightblue" points="51.5489,-82.4588 43.3479,-75.7511 45.5759,-86.109 51.5489,-82.4588"/>
</g>
<!-- Node5 -->
<g id="node6" class="node"><title>Node5</title>
<polygon fill="white" stroke="#bfbfbf" points="77,-56.5 77,-75.5 133,-75.5 133,-56.5 77,-56.5"/>
<text text-anchor="middle" x="105" y="-63.5" font-family="Helvetica,sans-Serif" font-size="10.00">algorithm</text>
</g>
<!-- Node2&#45;&gt;Node5 -->
<g id="edge5" class="edge"><title>Node2&#45;&gt;Node5</title>
<path fill="none" stroke="midnightblue" d="M76.6144,-112.083C81.3674,-104.534 88.3181,-93.4948 94.1516,-84.2298"/>
<polygon fill="midnightblue" stroke="midnightblue" points="97.1237,-86.0783 99.4901,-75.7511 91.2001,-82.3486 97.1237,-86.0783"/>
</g>
<!-- Node6 -->
<g id="node7" class="node"><title>Node6</title>
<g id="a_node7"><a xlink:href="_entite_8h.html" target="_top" xlink:title="../Entite.h">
<polygon fill="white" stroke="black" points="151.5,-56.5 151.5,-75.5 210.5,-75.5 210.5,-56.5 151.5,-56.5"/>
<text text-anchor="middle" x="181" y="-63.5" font-family="Helvetica,sans-Serif" font-size="10.00">../Entite.h</text>
</a>
</g>
</g>
<!-- Node2&#45;&gt;Node6 -->
<g id="edge6" class="edge"><title>Node2&#45;&gt;Node6</title>
<path fill="none" stroke="midnightblue" d="M88.6734,-112.324C106.394,-103.625 133.903,-90.1202 154.288,-80.113"/>
<polygon fill="midnightblue" stroke="midnightblue" points="155.936,-83.2031 163.37,-75.6545 152.851,-76.9195 155.936,-83.2031"/>
</g>
<!-- Node6&#45;&gt;Node3 -->
<g id="edge7" class="edge"><title>Node6&#45;&gt;Node3</title>
<path fill="none" stroke="midnightblue" d="M158.658,-56.4435C135.247,-47.4776 98.2644,-33.314 71.8104,-23.1827"/>
<polygon fill="midnightblue" stroke="midnightblue" points="72.8277,-19.8245 62.2373,-19.5164 70.3241,-26.3615 72.8277,-19.8245"/>
</g>
<!-- Node7 -->
<g id="node8" class="node"><title>Node7</title>
<polygon fill="white" stroke="#bfbfbf" points="106,-0.5 106,-19.5 204,-19.5 204,-0.5 106,-0.5"/>
<text text-anchor="middle" x="155" y="-7.5" font-family="Helvetica,sans-Serif" font-size="10.00">SFML/System.hpp</text>
</g>
<!-- Node6&#45;&gt;Node7 -->
<g id="edge8" class="edge"><title>Node6&#45;&gt;Node7</title>
<path fill="none" stroke="midnightblue" d="M176.707,-56.083C173.148,-48.6913 167.978,-37.9533 163.576,-28.8111"/>
<polygon fill="midnightblue" stroke="midnightblue" points="166.705,-27.2427 159.213,-19.7511 160.398,-30.2795 166.705,-27.2427"/>
</g>
<!-- Node8 -->
<g id="node9" class="node"><title>Node8</title>
<polygon fill="white" stroke="#bfbfbf" points="222,-0.5 222,-19.5 326,-19.5 326,-0.5 222,-0.5"/>
<text text-anchor="middle" x="274" y="-7.5" font-family="Helvetica,sans-Serif" font-size="10.00">SFML/Graphics.hpp</text>
</g>
<!-- Node6&#45;&gt;Node8 -->
<g id="edge9" class="edge"><title>Node6&#45;&gt;Node8</title>
<path fill="none" stroke="midnightblue" d="M195.942,-56.324C210.585,-47.8215 233.134,-34.7288 250.238,-24.7975"/>
<polygon fill="midnightblue" stroke="midnightblue" points="252.205,-27.7027 259.095,-19.6545 248.69,-21.6491 252.205,-27.7027"/>
</g>
<!-- Node9&#45;&gt;Node2 -->
<g id="edge11" class="edge"><title>Node9&#45;&gt;Node2</title>
<path fill="none" stroke="midnightblue" d="M104.395,-168.083C98.7448,-160.455 90.4552,-149.264 83.5488,-139.941"/>
<polygon fill="midnightblue" stroke="midnightblue" points="86.2471,-137.703 77.4823,-131.751 80.6221,-141.87 86.2471,-137.703"/>
</g>
</g>
</svg>
