<?xml version="1.0" encoding="UTF-8" standalone="no"?>
<!DOCTYPE svg PUBLIC "-//W3C//DTD SVG 1.1//EN"
 "http://www.w3.org/Graphics/SVG/1.1/DTD/svg11.dtd">
<!-- Generated by graphviz version 2.38.0 (20140413.2041)
 -->
<!-- Title: src/Vaisseau/_vaisseaux.h Pages: 1 -->
<svg width="182pt" height="140pt"
 viewBox="0.00 0.00 181.50 140.00" xmlns="http://www.w3.org/2000/svg" xmlns:xlink="http://www.w3.org/1999/xlink">
<g id="graph0" class="graph" transform="scale(1 1) rotate(0) translate(4 136)">
<title>src/Vaisseau/_vaisseaux.h</title>
<polygon fill="white" stroke="none" points="-4,4 -4,-136 177.5,-136 177.5,4 -4,4"/>
<!-- Node30 -->
<g id="node1" class="node"><title>Node30</title>
<polygon fill="#bfbfbf" stroke="black" points="2.5,-112.5 2.5,-131.5 136.5,-131.5 136.5,-112.5 2.5,-112.5"/>
<text text-anchor="middle" x="69.5" y="-119.5" font-family="Helvetica,sans-Serif" font-size="10.00">src/Vaisseau/_vaisseaux.h</text>
</g>
<!-- Node31 -->
<g id="node2" class="node"><title>Node31</title>
<g id="a_node2"><a xlink:href="_partie_8cpp.html" target="_top" xlink:title="src/Partie.cpp">
<polygon fill="white" stroke="black" points="0,-0.5 0,-19.5 77,-19.5 77,-0.5 0,-0.5"/>
<text text-anchor="middle" x="38.5" y="-7.5" font-family="Helvetica,sans-Serif" font-size="10.00">src/Partie.cpp</text>
</a>
</g>
</g>
<!-- Node30&#45;&gt;Node31 -->
<g id="edge1" class="edge"><title>Node30&#45;&gt;Node31</title>
<path fill="none" stroke="midnightblue" d="M64.3354,-102.674C57.5579,-78.6248 45.9367,-37.3881 40.9212,-19.5914"/>
<polygon fill="midnightblue" stroke="midnightblue" points="60.9861,-103.693 67.0675,-112.368 67.7237,-101.794 60.9861,-103.693"/>
</g>
<!-- Node32 -->
<g id="node3" class="node"><title>Node32</title>
<g id="a_node3"><a xlink:href="vague_8h.html" target="_top" xlink:title="src/vague.h">
<polygon fill="white" stroke="black" points="66.5,-56.5 66.5,-75.5 134.5,-75.5 134.5,-56.5 66.5,-56.5"/>
<text text-anchor="middle" x="100.5" y="-63.5" font-family="Helvetica,sans-Serif" font-size="10.00">src/vague.h</text>
</a>
</g>
</g>
<!-- Node30&#45;&gt;Node32 -->
<g id="edge2" class="edge"><title>Node30&#45;&gt;Node32</title>
<path fill="none" stroke="midnightblue" d="M79.6756,-103.275C84.9739,-94.0454 91.217,-83.1703 95.4762,-75.7511"/>
<polygon fill="midnightblue" stroke="midnightblue" points="76.5624,-101.668 74.619,-112.083 82.6331,-105.153 76.5624,-101.668"/>
</g>
<!-- Node32&#45;&gt;Node31 -->
<g id="edge3" class="edge"><title>Node32&#45;&gt;Node31</title>
<path fill="none" stroke="midnightblue" d="M82.7464,-49.5372C71.6915,-39.9087 57.8685,-27.8694 48.6426,-19.8339"/>
<polygon fill="midnightblue" stroke="midnightblue" points="80.699,-52.3954 90.5386,-56.324 85.2965,-47.1168 80.699,-52.3954"/>
</g>
<!-- Node33 -->
<g id="node4" class="node"><title>Node33</title>
<g id="a_node4"><a xlink:href="vague_8cpp.html" target="_top" xlink:title="src/vague.cpp">
<polygon fill="white" stroke="black" points="95.5,-0.5 95.5,-19.5 173.5,-19.5 173.5,-0.5 95.5,-0.5"/>
<text text-anchor="middle" x="134.5" y="-7.5" font-family="Helvetica,sans-Serif" font-size="10.00">src/vague.cpp</text>
</a>
</g>
</g>
<!-- Node32&#45;&gt;Node33 -->
<g id="edge4" class="edge"><title>Node32&#45;&gt;Node33</title>
<path fill="none" stroke="midnightblue" d="M111.477,-47.5656C117.327,-38.2747 124.27,-27.2484 128.99,-19.7511"/>
<polygon fill="midnightblue" stroke="midnightblue" points="108.481,-45.7558 106.114,-56.083 114.404,-49.4855 108.481,-45.7558"/>
</g>
</g>
</svg>
