<?xml version="1.0" encoding="UTF-8" standalone="no"?>
<!DOCTYPE svg PUBLIC "-//W3C//DTD SVG 1.1//EN"
 "http://www.w3.org/Graphics/SVG/1.1/DTD/svg11.dtd">
<!-- Generated by graphviz version 2.38.0 (20140413.2041)
 -->
<!-- Title: src/Vaisseau/_vaisseaux.h Pages: 1 -->
<!--zoomable 420 -->
<svg id="main" version="1.1" xmlns="http://www.w3.org/2000/svg" xmlns:xlink="http://www.w3.org/1999/xlink" xml:space="preserve" onload="init(evt)">
<style type="text/css"><![CDATA[
.edge:hover path { stroke: red; }
.edge:hover polygon { stroke: red; fill: red; }
]]></style>
<script type="text/javascript"><![CDATA[
var edges = document.getElementsByTagName('g');
if (edges && edges.length) {
  for (var i=0;i<edges.length;i++) {
    if (edges[i].id.substr(0,4)=='edge') {
      edges[i].setAttribute('class','edge');
    }
  }
}
]]></script>
        <defs>
                <circle id="rim" cx="0" cy="0" r="7"/>
                <circle id="rim2" cx="0" cy="0" r="3.5"/>
                <g id="zoomPlus">
                        <use xlink:href="#rim" fill="#404040">
                                <set attributeName="fill" to="#808080" begin="zoomplus.mouseover" end="zoomplus.mouseout"/>
                        </use>
                        <path d="M-4,0h8M0,-4v8" fill="none" stroke="white" stroke-width="1.5" pointer-events="none"/>
                </g>
                <g id="zoomMin">
                        <use xlink:href="#rim" fill="#404040">
                                <set attributeName="fill" to="#808080" begin="zoomminus.mouseover" end="zoomminus.mouseout"/>
                        </use>
                        <path d="M-4,0h8" fill="none" stroke="white" stroke-width="1.5" pointer-events="none"/>
                </g>
                <g id="dirArrow">
                        <path fill="none" stroke="white" stroke-width="1.5" d="M0,-3.0v7 M-2.5,-0.5L0,-3.0L2.5,-0.5"/>
                </g>
               <g id="resetDef">
                       <use xlink:href="#rim2" fill="#404040">
                               <set attributeName="fill" to="#808080" begin="reset.mouseover" end="reset.mouseout"/>
                       </use>
               </g>
        </defs>

<script type="text/javascript">
var viewWidth = 1240;
var viewHeight = 420;
var sectionId = 'dynsection-0';
</script>
<script xlink:href="svgpan.js"/>
<svg id="graph" class="graph">
<g id="viewport">
<title>src/Vaisseau/_vaisseaux.h</title>
<polygon fill="white" stroke="none" points="-4,4 -4,-416 1236,-416 1236,4 -4,4"/>
<!-- Node0 -->
<g id="node1" class="node"><title>Node0</title>
<polygon fill="#bfbfbf" stroke="black" points="811,-392.5 811,-411.5 945,-411.5 945,-392.5 811,-392.5"/>
<text text-anchor="middle" x="878" y="-399.5" font-family="Helvetica,sans-Serif" font-size="10.00">src/Vaisseau/_vaisseaux.h</text>
</g>
<!-- Node1 -->
<g id="node2" class="node"><title>Node1</title>
<g id="a_node2"><a xlink:href="_vaisseau_eclaireur_8h.html" target="_top" xlink:title="VaisseauEclaireur.h">
<polygon fill="white" stroke="black" points="1011,-280.5 1011,-299.5 1115,-299.5 1115,-280.5 1011,-280.5"/>
<text text-anchor="middle" x="1063" y="-287.5" font-family="Helvetica,sans-Serif" font-size="10.00">VaisseauEclaireur.h</text>
</a>
</g>
</g>
<!-- Node0&#45;&gt;Node1 -->
<g id="edge1" class="edge"><title>Node0&#45;&gt;Node1</title>
<path fill="none" stroke="midnightblue" d="M892.517,-392.368C924.398,-373.412 1000.77,-328.001 1039.55,-304.942"/>
<polygon fill="midnightblue" stroke="midnightblue" points="1041.74,-307.711 1048.55,-299.591 1038.17,-301.694 1041.74,-307.711"/>
</g>
<!-- Node18 -->
<g id="node19" class="node"><title>Node18</title>
<g id="a_node19"><a xlink:href="_vaisseau_test_8h.html" target="_top" xlink:title="VaisseauTest.h">
<polygon fill="white" stroke="black" points="520.5,-336.5 520.5,-355.5 605.5,-355.5 605.5,-336.5 520.5,-336.5"/>
<text text-anchor="middle" x="563" y="-343.5" font-family="Helvetica,sans-Serif" font-size="10.00">VaisseauTest.h</text>
</a>
</g>
</g>
<!-- Node0&#45;&gt;Node18 -->
<g id="edge34" class="edge"><title>Node0&#45;&gt;Node18</title>
<path fill="none" stroke="midnightblue" d="M828.087,-392.444C770.034,-382.492 674.626,-366.136 615.492,-355.999"/>
<polygon fill="midnightblue" stroke="midnightblue" points="616.055,-352.544 605.608,-354.304 614.873,-359.444 616.055,-352.544"/>
</g>
<!-- Node27 -->
<g id="node28" class="node"><title>Node27</title>
<g id="a_node28"><a xlink:href="_vaisseau_attaquant_8h.html" target="_top" xlink:title="VaisseauAttaquant.h">
<polygon fill="white" stroke="black" points="885.5,-280.5 885.5,-299.5 992.5,-299.5 992.5,-280.5 885.5,-280.5"/>
<text text-anchor="middle" x="939" y="-287.5" font-family="Helvetica,sans-Serif" font-size="10.00">VaisseauAttaquant.h</text>
</a>
</g>
</g>
<!-- Node0&#45;&gt;Node27 -->
<g id="edge56" class="edge"><title>Node0&#45;&gt;Node27</title>
<path fill="none" stroke="midnightblue" d="M882.787,-392.368C892.764,-374.376 915.958,-332.55 929.225,-308.627"/>
<polygon fill="midnightblue" stroke="midnightblue" points="932.447,-310.034 934.236,-299.591 926.325,-306.639 932.447,-310.034"/>
</g>
<!-- Node28 -->
<g id="node29" class="node"><title>Node28</title>
<g id="a_node29"><a xlink:href="_vaisseau_defenseur_8h.html" target="_top" xlink:title="VaisseauDefenseur.h">
<polygon fill="white" stroke="black" points="773,-336.5 773,-355.5 883,-355.5 883,-336.5 773,-336.5"/>
<text text-anchor="middle" x="828" y="-343.5" font-family="Helvetica,sans-Serif" font-size="10.00">VaisseauDefenseur.h</text>
</a>
</g>
</g>
<!-- Node0&#45;&gt;Node28 -->
<g id="edge61" class="edge"><title>Node0&#45;&gt;Node28</title>
<path fill="none" stroke="midnightblue" d="M869.744,-392.083C862.535,-384.298 851.89,-372.801 843.154,-363.367"/>
<polygon fill="midnightblue" stroke="midnightblue" points="845.465,-360.711 836.103,-355.751 840.329,-365.467 845.465,-360.711"/>
</g>
<!-- Node2 -->
<g id="node3" class="node"><title>Node2</title>
<polygon fill="white" stroke="#bfbfbf" points="652,-0.5 652,-19.5 696,-19.5 696,-0.5 652,-0.5"/>
<text text-anchor="middle" x="674" y="-7.5" font-family="Helvetica,sans-Serif" font-size="10.00">vector</text>
</g>
<!-- Node1&#45;&gt;Node2 -->
<g id="edge2" class="edge"><title>Node1&#45;&gt;Node2</title>
<path fill="none" stroke="midnightblue" d="M1065.97,-280.448C1072.74,-259.268 1086.97,-203.523 1063,-168 1041.67,-136.392 794.899,-51.4266 705.82,-21.559"/>
<polygon fill="midnightblue" stroke="midnightblue" points="706.839,-18.2093 696.245,-18.3574 704.619,-24.848 706.839,-18.2093"/>
</g>
<!-- Node3 -->
<g id="node4" class="node"><title>Node3</title>
<g id="a_node4"><a xlink:href="constantes_8h.html" target="_top" xlink:title="../constantes.h">
<polygon fill="white" stroke="black" points="1150,-0.5 1150,-19.5 1232,-19.5 1232,-0.5 1150,-0.5"/>
<text text-anchor="middle" x="1191" y="-7.5" font-family="Helvetica,sans-Serif" font-size="10.00">../constantes.h</text>
</a>
</g>
</g>
<!-- Node1&#45;&gt;Node3 -->
<g id="edge3" class="edge"><title>Node1&#45;&gt;Node3</title>
<path fill="none" stroke="midnightblue" d="M1078.69,-280.396C1105.67,-264.314 1158,-226.943 1158,-179 1158,-179 1158,-179 1158,-121 1158,-87.2454 1172.43,-50.0285 1182.21,-28.6908"/>
<polygon fill="midnightblue" stroke="midnightblue" points="1185.41,-30.1095 1186.55,-19.5762 1179.09,-27.0993 1185.41,-30.1095"/>
</g>
<!-- Node4 -->
<g id="node5" class="node"><title>Node4</title>
<g id="a_node5"><a xlink:href="_vaisseau_8h.html" target="_top" xlink:title="Vaisseau.h">
<polygon fill="white" stroke="black" points="777.5,-224.5 777.5,-243.5 842.5,-243.5 842.5,-224.5 777.5,-224.5"/>
<text text-anchor="middle" x="810" y="-231.5" font-family="Helvetica,sans-Serif" font-size="10.00">Vaisseau.h</text>
</a>
</g>
</g>
<!-- Node1&#45;&gt;Node4 -->
<g id="edge4" class="edge"><title>Node1&#45;&gt;Node4</title>
<path fill="none" stroke="midnightblue" d="M1022.91,-280.444C976.44,-270.525 900.164,-254.245 852.635,-244.1"/>
<polygon fill="midnightblue" stroke="midnightblue" points="853.171,-240.636 842.66,-241.971 851.709,-247.481 853.171,-240.636"/>
</g>
<!-- Node16 -->
<g id="node17" class="node"><title>Node16</title>
<g id="a_node17"><a xlink:href="_trajectoire_8h.html" target="_top" xlink:title="../Utilitaires/Trajectoire.h">
<polygon fill="white" stroke="black" points="887,-224.5 887,-243.5 1011,-243.5 1011,-224.5 887,-224.5"/>
<text text-anchor="middle" x="949" y="-231.5" font-family="Helvetica,sans-Serif" font-size="10.00">../Utilitaires/Trajectoire.h</text>
</a>
</g>
</g>
<!-- Node1&#45;&gt;Node16 -->
<g id="edge30" class="edge"><title>Node1&#45;&gt;Node16</title>
<path fill="none" stroke="midnightblue" d="M1044.94,-280.444C1026.43,-271.675 997.419,-257.935 976.145,-247.858"/>
<polygon fill="midnightblue" stroke="midnightblue" points="977.515,-244.634 966.979,-243.516 974.518,-250.96 977.515,-244.634"/>
</g>
<!-- Node4&#45;&gt;Node2 -->
<g id="edge5" class="edge"><title>Node4&#45;&gt;Node2</title>
<path fill="none" stroke="midnightblue" d="M808.467,-224.223C805.999,-211.381 800.441,-186.94 791,-168 762.827,-111.479 713.926,-54.3093 689.22,-27.1991"/>
<polygon fill="midnightblue" stroke="midnightblue" points="691.733,-24.7608 682.379,-19.7847 686.588,-29.5077 691.733,-24.7608"/>
</g>
<!-- Node5 -->
<g id="node6" class="node"><title>Node5</title>
<polygon fill="white" stroke="#bfbfbf" points="528.5,-56.5 528.5,-75.5 569.5,-75.5 569.5,-56.5 528.5,-56.5"/>
<text text-anchor="middle" x="549" y="-63.5" font-family="Helvetica,sans-Serif" font-size="10.00">string</text>
</g>
<!-- Node4&#45;&gt;Node5 -->
<g id="edge6" class="edge"><title>Node4&#45;&gt;Node5</title>
<path fill="none" stroke="midnightblue" d="M796.335,-224.309C753.788,-197.248 623.407,-114.324 571.076,-81.0406"/>
<polygon fill="midnightblue" stroke="midnightblue" points="572.846,-78.0185 562.53,-75.6051 569.089,-83.9251 572.846,-78.0185"/>
</g>
<!-- Node6 -->
<g id="node7" class="node"><title>Node6</title>
<polygon fill="white" stroke="#bfbfbf" points="588,-56.5 588,-75.5 644,-75.5 644,-56.5 588,-56.5"/>
<text text-anchor="middle" x="616" y="-63.5" font-family="Helvetica,sans-Serif" font-size="10.00">algorithm</text>
</g>
<!-- Node4&#45;&gt;Node6 -->
<g id="edge7" class="edge"><title>Node4&#45;&gt;Node6</title>
<path fill="none" stroke="midnightblue" d="M805.807,-224.208C799.16,-210.913 785.179,-185.401 768,-168 730.075,-129.586 675.306,-97.5676 642.91,-80.4464"/>
<polygon fill="midnightblue" stroke="midnightblue" points="644.106,-77.1236 633.618,-75.6206 640.88,-83.3358 644.106,-77.1236"/>
</g>
<!-- Node7 -->
<g id="node8" class="node"><title>Node7</title>
<g id="a_node8"><a xlink:href="_capacite_8h.html" target="_top" xlink:title="../Capacites/Capacite.h">
<polygon fill="white" stroke="black" points="380,-168.5 380,-187.5 500,-187.5 500,-168.5 380,-168.5"/>
<text text-anchor="middle" x="440" y="-175.5" font-family="Helvetica,sans-Serif" font-size="10.00">../Capacites/Capacite.h</text>
</a>
</g>
</g>
<!-- Node4&#45;&gt;Node7 -->
<g id="edge8" class="edge"><title>Node4&#45;&gt;Node7</title>
<path fill="none" stroke="midnightblue" d="M777.489,-228.255C717.54,-219.506 588.411,-200.66 508.401,-188.983"/>
<polygon fill="midnightblue" stroke="midnightblue" points="508.814,-185.506 498.413,-187.525 507.803,-192.433 508.814,-185.506"/>
</g>
<!-- Node8 -->
<g id="node9" class="node"><title>Node8</title>
<g id="a_node9"><a xlink:href="_projectile_8h.html" target="_top" xlink:title="../Projectiles/Projectile.h">
<polygon fill="white" stroke="black" points="412.5,-112.5 412.5,-131.5 535.5,-131.5 535.5,-112.5 412.5,-112.5"/>
<text text-anchor="middle" x="474" y="-119.5" font-family="Helvetica,sans-Serif" font-size="10.00">../Projectiles/Projectile.h</text>
</a>
</g>
</g>
<!-- Node4&#45;&gt;Node8 -->
<g id="edge24" class="edge"><title>Node4&#45;&gt;Node8</title>
<path fill="none" stroke="midnightblue" d="M792.581,-224.433C764.702,-210.979 708.095,-184.711 658,-168 614.942,-153.637 564.828,-141.68 527.782,-133.711"/>
<polygon fill="midnightblue" stroke="midnightblue" points="528.205,-130.223 517.696,-131.57 526.752,-137.07 528.205,-130.223"/>
</g>
<!-- Node9 -->
<g id="node10" class="node"><title>Node9</title>
<g id="a_node10"><a xlink:href="_entite_8h.html" target="_top" xlink:title="../Entite.h">
<polygon fill="white" stroke="black" points="878.5,-56.5 878.5,-75.5 937.5,-75.5 937.5,-56.5 878.5,-56.5"/>
<text text-anchor="middle" x="908" y="-63.5" font-family="Helvetica,sans-Serif" font-size="10.00">../Entite.h</text>
</a>
</g>
</g>
<!-- Node4&#45;&gt;Node9 -->
<g id="edge23" class="edge"><title>Node4&#45;&gt;Node9</title>
<path fill="none" stroke="midnightblue" d="M817.209,-224.338C824.41,-215.491 835.588,-201.217 844,-188 866.341,-152.897 888.06,-109.21 899.557,-85.1009"/>
<polygon fill="midnightblue" stroke="midnightblue" points="902.855,-86.3126 903.958,-75.7753 896.525,-83.3247 902.855,-86.3126"/>
</g>
<!-- Node13 -->
<g id="node14" class="node"><title>Node13</title>
<g id="a_node14"><a xlink:href="_input_8h.html" target="_top" xlink:title="../Interface/Input.h">
<polygon fill="white" stroke="black" points="994.5,-56.5 994.5,-75.5 1091.5,-75.5 1091.5,-56.5 994.5,-56.5"/>
<text text-anchor="middle" x="1043" y="-63.5" font-family="Helvetica,sans-Serif" font-size="10.00">../Interface/Input.h</text>
</a>
</g>
</g>
<!-- Node4&#45;&gt;Node13 -->
<g id="edge25" class="edge"><title>Node4&#45;&gt;Node13</title>
<path fill="none" stroke="midnightblue" d="M822.199,-224.309C860.025,-197.36 975.613,-115.01 1022.71,-81.4566"/>
<polygon fill="midnightblue" stroke="midnightblue" points="1024.81,-84.2582 1030.92,-75.6051 1020.75,-78.5571 1024.81,-84.2582"/>
</g>
<!-- Node7&#45;&gt;Node2 -->
<g id="edge9" class="edge"><title>Node7&#45;&gt;Node2</title>
<path fill="none" stroke="midnightblue" d="M428.621,-168.178C413.958,-155.687 391.628,-132.122 403,-112 450.658,-27.6717 580.385,-13.0835 641.425,-11.0145"/>
<polygon fill="midnightblue" stroke="midnightblue" points="641.733,-14.5081 651.644,-10.7648 641.561,-7.5102 641.733,-14.5081"/>
</g>
<!-- Node7&#45;&gt;Node5 -->
<g id="edge10" class="edge"><title>Node7&#45;&gt;Node5</title>
<path fill="none" stroke="midnightblue" d="M486.062,-168.425C507.173,-162.03 530.462,-150.979 544,-132 553.542,-118.622 553.869,-99.5115 552.364,-85.4736"/>
<polygon fill="midnightblue" stroke="midnightblue" points="555.817,-84.8969 550.906,-75.5094 548.891,-85.9109 555.817,-84.8969"/>
</g>
<!-- Node7&#45;&gt;Node6 -->
<g id="edge11" class="edge"><title>Node7&#45;&gt;Node6</title>
<path fill="none" stroke="midnightblue" d="M478.207,-168.444C503.583,-161.488 536.747,-149.856 562,-132 580.081,-119.215 595.612,-98.9106 605.316,-84.3977"/>
<polygon fill="midnightblue" stroke="midnightblue" points="608.357,-86.1391 610.819,-75.8342 602.468,-82.3548 608.357,-86.1391"/>
</g>
<!-- Node7&#45;&gt;Node8 -->
<g id="edge12" class="edge"><title>Node7&#45;&gt;Node8</title>
<path fill="none" stroke="midnightblue" d="M445.614,-168.083C450.367,-160.534 457.318,-149.495 463.152,-140.23"/>
<polygon fill="midnightblue" stroke="midnightblue" points="466.124,-142.078 468.49,-131.751 460.2,-138.349 466.124,-142.078"/>
</g>
<!-- Node7&#45;&gt;Node9 -->
<g id="edge22" class="edge"><title>Node7&#45;&gt;Node9</title>
<path fill="none" stroke="midnightblue" d="M476.334,-168.46C562.582,-148.188 779.108,-97.2952 868.475,-76.2901"/>
<polygon fill="midnightblue" stroke="midnightblue" points="869.542,-79.6347 878.476,-73.9394 867.941,-72.8204 869.542,-79.6347"/>
</g>
<!-- Node8&#45;&gt;Node2 -->
<g id="edge13" class="edge"><title>Node8&#45;&gt;Node2</title>
<path fill="none" stroke="midnightblue" d="M477.606,-112.423C483.914,-98.4692 498.281,-70.9141 519,-56 555.938,-29.4115 608.398,-18.4474 641.815,-13.9845"/>
<polygon fill="midnightblue" stroke="midnightblue" points="642.447,-17.4335 651.952,-12.7524 641.603,-10.4847 642.447,-17.4335"/>
</g>
<!-- Node8&#45;&gt;Node5 -->
<g id="edge14" class="edge"><title>Node8&#45;&gt;Node5</title>
<path fill="none" stroke="midnightblue" d="M486.05,-112.324C497.463,-104.107 514.831,-91.6017 528.435,-81.8069"/>
<polygon fill="midnightblue" stroke="midnightblue" points="530.66,-84.5174 536.731,-75.8339 526.57,-78.8366 530.66,-84.5174"/>
</g>
<!-- Node8&#45;&gt;Node6 -->
<g id="edge15" class="edge"><title>Node8&#45;&gt;Node6</title>
<path fill="none" stroke="midnightblue" d="M496.5,-112.444C520.077,-103.478 557.322,-89.314 583.964,-79.1827"/>
<polygon fill="midnightblue" stroke="midnightblue" points="585.502,-82.3424 593.605,-75.5164 583.014,-75.7995 585.502,-82.3424"/>
</g>
<!-- Node8&#45;&gt;Node9 -->
<g id="edge16" class="edge"><title>Node8&#45;&gt;Node9</title>
<path fill="none" stroke="midnightblue" d="M535.721,-113.32C626.242,-102.057 792.468,-81.3749 868.347,-71.9338"/>
<polygon fill="midnightblue" stroke="midnightblue" points="868.945,-75.3864 878.437,-70.6784 868.081,-68.44 868.945,-75.3864"/>
</g>
<!-- Node9&#45;&gt;Node2 -->
<g id="edge17" class="edge"><title>Node9&#45;&gt;Node2</title>
<path fill="none" stroke="midnightblue" d="M878.449,-58.6948C833.916,-49.1543 750.796,-31.1894 706.03,-20.1164"/>
<polygon fill="midnightblue" stroke="midnightblue" points="706.856,-16.7152 696.304,-17.6615 705.143,-23.5023 706.856,-16.7152"/>
</g>
<!-- Node9&#45;&gt;Node3 -->
<g id="edge21" class="edge"><title>Node9&#45;&gt;Node3</title>
<path fill="none" stroke="midnightblue" d="M937.751,-59.3231C985.777,-50.1591 1080.96,-31.9974 1139.97,-20.7364"/>
<polygon fill="midnightblue" stroke="midnightblue" points="1140.67,-24.1667 1149.84,-18.8543 1139.36,-17.2907 1140.67,-24.1667"/>
</g>
<!-- Node10 -->
<g id="node11" class="node"><title>Node10</title>
<polygon fill="white" stroke="#bfbfbf" points="714,-0.5 714,-19.5 766,-19.5 766,-0.5 714,-0.5"/>
<text text-anchor="middle" x="740" y="-7.5" font-family="Helvetica,sans-Serif" font-size="10.00">memory</text>
</g>
<!-- Node9&#45;&gt;Node10 -->
<g id="edge18" class="edge"><title>Node9&#45;&gt;Node10</title>
<path fill="none" stroke="midnightblue" d="M881.38,-56.4435C852.911,-47.2928 807.598,-32.7279 775.969,-22.5614"/>
<polygon fill="midnightblue" stroke="midnightblue" points="776.81,-19.1556 766.219,-19.4275 774.668,-25.8198 776.81,-19.1556"/>
</g>
<!-- Node11 -->
<g id="node12" class="node"><title>Node11</title>
<polygon fill="white" stroke="#bfbfbf" points="784,-0.5 784,-19.5 882,-19.5 882,-0.5 784,-0.5"/>
<text text-anchor="middle" x="833" y="-7.5" font-family="Helvetica,sans-Serif" font-size="10.00">SFML/System.hpp</text>
</g>
<!-- Node9&#45;&gt;Node11 -->
<g id="edge19" class="edge"><title>Node9&#45;&gt;Node11</title>
<path fill="none" stroke="midnightblue" d="M895.95,-56.324C884.537,-48.1066 867.169,-35.6017 853.565,-25.8069"/>
<polygon fill="midnightblue" stroke="midnightblue" points="855.43,-22.8366 845.269,-19.8339 851.34,-28.5174 855.43,-22.8366"/>
</g>
<!-- Node12 -->
<g id="node13" class="node"><title>Node12</title>
<polygon fill="white" stroke="#bfbfbf" points="900,-0.5 900,-19.5 1004,-19.5 1004,-0.5 900,-0.5"/>
<text text-anchor="middle" x="952" y="-7.5" font-family="Helvetica,sans-Serif" font-size="10.00">SFML/Graphics.hpp</text>
</g>
<!-- Node9&#45;&gt;Node12 -->
<g id="edge20" class="edge"><title>Node9&#45;&gt;Node12</title>
<path fill="none" stroke="midnightblue" d="M915.266,-56.083C921.545,-48.3768 930.788,-37.0333 938.431,-27.6531"/>
<polygon fill="midnightblue" stroke="midnightblue" points="941.266,-29.7143 944.869,-19.7511 935.839,-25.2926 941.266,-29.7143"/>
</g>
<!-- Node13&#45;&gt;Node3 -->
<g id="edge29" class="edge"><title>Node13&#45;&gt;Node3</title>
<path fill="none" stroke="midnightblue" d="M1066.45,-56.4435C1091.13,-47.4381 1130.19,-33.1891 1157.98,-23.049"/>
<polygon fill="midnightblue" stroke="midnightblue" points="1159.46,-26.2321 1167.66,-19.5164 1157.06,-19.6561 1159.46,-26.2321"/>
</g>
<!-- Node13&#45;&gt;Node12 -->
<g id="edge26" class="edge"><title>Node13&#45;&gt;Node12</title>
<path fill="none" stroke="midnightblue" d="M1028.38,-56.324C1014.05,-47.8215 991.987,-34.7288 975.251,-24.7975"/>
<polygon fill="midnightblue" stroke="midnightblue" points="976.97,-21.7478 966.584,-19.6545 973.398,-27.7677 976.97,-21.7478"/>
</g>
<!-- Node14 -->
<g id="node15" class="node"><title>Node14</title>
<polygon fill="white" stroke="#bfbfbf" points="1082,-0.5 1082,-19.5 1132,-19.5 1132,-0.5 1082,-0.5"/>
<text text-anchor="middle" x="1107" y="-7.5" font-family="Helvetica,sans-Serif" font-size="10.00">optional</text>
</g>
<!-- Node13&#45;&gt;Node14 -->
<g id="edge27" class="edge"><title>Node13&#45;&gt;Node14</title>
<path fill="none" stroke="midnightblue" d="M1053.28,-56.324C1062.84,-48.2631 1077.28,-36.0765 1088.78,-26.3695"/>
<polygon fill="midnightblue" stroke="midnightblue" points="1091.14,-28.9577 1096.53,-19.8339 1086.63,-23.6076 1091.14,-28.9577"/>
</g>
<!-- Node15 -->
<g id="node16" class="node"><title>Node15</title>
<polygon fill="white" stroke="#bfbfbf" points="1022.5,-0.5 1022.5,-19.5 1063.5,-19.5 1063.5,-0.5 1022.5,-0.5"/>
<text text-anchor="middle" x="1043" y="-7.5" font-family="Helvetica,sans-Serif" font-size="10.00">bitset</text>
</g>
<!-- Node13&#45;&gt;Node15 -->
<g id="edge28" class="edge"><title>Node13&#45;&gt;Node15</title>
<path fill="none" stroke="midnightblue" d="M1043,-56.083C1043,-49.0059 1043,-38.8611 1043,-29.9865"/>
<polygon fill="midnightblue" stroke="midnightblue" points="1046.5,-29.751 1043,-19.7511 1039.5,-29.7511 1046.5,-29.751"/>
</g>
<!-- Node16&#45;&gt;Node2 -->
<g id="edge31" class="edge"><title>Node16&#45;&gt;Node2</title>
<path fill="none" stroke="midnightblue" d="M939.071,-224.25C909.162,-197.992 817.049,-117.865 737,-56 723.307,-45.4177 707.452,-34.0975 695.074,-25.4582"/>
<polygon fill="midnightblue" stroke="midnightblue" points="696.967,-22.5121 686.755,-19.6903 692.978,-28.2646 696.967,-22.5121"/>
</g>
<!-- Node16&#45;&gt;Node12 -->
<g id="edge32" class="edge"><title>Node16&#45;&gt;Node12</title>
<path fill="none" stroke="midnightblue" d="M951.235,-224.449C953.462,-215.453 956.728,-200.844 958,-188 963.694,-130.501 957.795,-62.0407 954.255,-29.6955"/>
<polygon fill="midnightblue" stroke="midnightblue" points="957.702,-29.0351 953.084,-19.5001 950.748,-29.8343 957.702,-29.0351"/>
</g>
<!-- Node17 -->
<g id="node18" class="node"><title>Node17</title>
<polygon fill="white" stroke="#bfbfbf" points="1010,-168.5 1010,-187.5 1054,-187.5 1054,-168.5 1010,-168.5"/>
<text text-anchor="middle" x="1032" y="-175.5" font-family="Helvetica,sans-Serif" font-size="10.00">cmath</text>
</g>
<!-- Node16&#45;&gt;Node17 -->
<g id="edge33" class="edge"><title>Node16&#45;&gt;Node17</title>
<path fill="none" stroke="midnightblue" d="M962.335,-224.324C975.162,-215.979 994.785,-203.212 1009.94,-193.352"/>
<polygon fill="midnightblue" stroke="midnightblue" points="1012.22,-196.042 1018.7,-187.655 1008.41,-190.174 1012.22,-196.042"/>
</g>
<!-- Node18&#45;&gt;Node4 -->
<g id="edge35" class="edge"><title>Node18&#45;&gt;Node4</title>
<path fill="none" stroke="midnightblue" d="M574.218,-336.308C592.255,-322.682 629.212,-296.183 664,-280 697.452,-264.439 737.656,-252.502 767.398,-244.846"/>
<polygon fill="midnightblue" stroke="midnightblue" points="768.609,-248.15 777.454,-242.317 766.902,-241.362 768.609,-248.15"/>
</g>
<!-- Node18&#45;&gt;Node7 -->
<g id="edge36" class="edge"><title>Node18&#45;&gt;Node7</title>
<path fill="none" stroke="midnightblue" d="M556.779,-336.464C542.327,-316.65 505.328,-266.023 474,-224 466.963,-214.561 459.037,-204.062 452.608,-195.581"/>
<polygon fill="midnightblue" stroke="midnightblue" points="455.385,-193.451 446.551,-187.602 449.81,-197.683 455.385,-193.451"/>
</g>
<!-- Node19 -->
<g id="node20" class="node"><title>Node19</title>
<g id="a_node20"><a xlink:href="___capacites_8h.html" target="_top" xlink:title="../Capacites/_Capacites.h">
<polygon fill="white" stroke="black" points="359.5,-280.5 359.5,-299.5 490.5,-299.5 490.5,-280.5 359.5,-280.5"/>
<text text-anchor="middle" x="425" y="-287.5" font-family="Helvetica,sans-Serif" font-size="10.00">../Capacites/_Capacites.h</text>
</a>
</g>
</g>
<!-- Node18&#45;&gt;Node19 -->
<g id="edge37" class="edge"><title>Node18&#45;&gt;Node19</title>
<path fill="none" stroke="midnightblue" d="M541.133,-336.444C518.221,-327.478 482.025,-313.314 456.134,-303.183"/>
<polygon fill="midnightblue" stroke="midnightblue" points="457.352,-299.901 446.764,-299.516 454.801,-306.42 457.352,-299.901"/>
</g>
<!-- Node20 -->
<g id="node21" class="node"><title>Node20</title>
<g id="a_node21"><a xlink:href="_cap_test_8h.html" target="_top" xlink:title="CapTest.h">
<polygon fill="white" stroke="black" points="299,-224.5 299,-243.5 361,-243.5 361,-224.5 299,-224.5"/>
<text text-anchor="middle" x="330" y="-231.5" font-family="Helvetica,sans-Serif" font-size="10.00">CapTest.h</text>
</a>
</g>
</g>
<!-- Node19&#45;&gt;Node20 -->
<g id="edge38" class="edge"><title>Node19&#45;&gt;Node20</title>
<path fill="none" stroke="midnightblue" d="M409.737,-280.324C394.779,-271.822 371.745,-258.729 354.273,-248.797"/>
<polygon fill="midnightblue" stroke="midnightblue" points="355.649,-245.553 345.226,-243.655 352.19,-251.639 355.649,-245.553"/>
</g>
<!-- Node22 -->
<g id="node23" class="node"><title>Node22</title>
<g id="a_node23"><a xlink:href="_cap_piou_8h.html" target="_top" xlink:title="CapPiou.h">
<polygon fill="white" stroke="black" points="176,-224.5 176,-243.5 238,-243.5 238,-224.5 176,-224.5"/>
<text text-anchor="middle" x="207" y="-231.5" font-family="Helvetica,sans-Serif" font-size="10.00">CapPiou.h</text>
</a>
</g>
</g>
<!-- Node19&#45;&gt;Node22 -->
<g id="edge43" class="edge"><title>Node19&#45;&gt;Node22</title>
<path fill="none" stroke="midnightblue" d="M390.457,-280.444C351.748,-270.855 289.042,-255.322 247.911,-245.134"/>
<polygon fill="midnightblue" stroke="midnightblue" points="248.751,-241.736 238.202,-242.729 247.067,-248.531 248.751,-241.736"/>
</g>
<!-- Node24 -->
<g id="node25" class="node"><title>Node24</title>
<g id="a_node25"><a xlink:href="_cap_dash_8h.html" target="_top" xlink:title="CapDash.h">
<polygon fill="white" stroke="black" points="399,-224.5 399,-243.5 465,-243.5 465,-224.5 399,-224.5"/>
<text text-anchor="middle" x="432" y="-231.5" font-family="Helvetica,sans-Serif" font-size="10.00">CapDash.h</text>
</a>
</g>
</g>
<!-- Node19&#45;&gt;Node24 -->
<g id="edge48" class="edge"><title>Node19&#45;&gt;Node24</title>
<path fill="none" stroke="midnightblue" d="M426.156,-280.083C427.084,-272.927 428.418,-262.635 429.577,-253.691"/>
<polygon fill="midnightblue" stroke="midnightblue" points="433.051,-254.118 430.866,-243.751 426.109,-253.218 433.051,-254.118"/>
</g>
<!-- Node25 -->
<g id="node26" class="node"><title>Node25</title>
<g id="a_node26"><a xlink:href="_cap_missile_8h.html" target="_top" xlink:title="CapMissile.h">
<polygon fill="white" stroke="black" points="547,-224.5 547,-243.5 621,-243.5 621,-224.5 547,-224.5"/>
<text text-anchor="middle" x="584" y="-231.5" font-family="Helvetica,sans-Serif" font-size="10.00">CapMissile.h</text>
</a>
</g>
</g>
<!-- Node19&#45;&gt;Node25 -->
<g id="edge52" class="edge"><title>Node19&#45;&gt;Node25</title>
<path fill="none" stroke="midnightblue" d="M450.194,-280.444C476.943,-271.359 519.403,-256.939 549.305,-246.783"/>
<polygon fill="midnightblue" stroke="midnightblue" points="550.581,-250.046 558.924,-243.516 548.329,-243.418 550.581,-250.046"/>
</g>
<!-- Node20&#45;&gt;Node7 -->
<g id="edge39" class="edge"><title>Node20&#45;&gt;Node7</title>
<path fill="none" stroke="midnightblue" d="M347.673,-224.324C365.394,-215.625 392.903,-202.12 413.288,-192.113"/>
<polygon fill="midnightblue" stroke="midnightblue" points="414.936,-195.203 422.37,-187.655 411.851,-188.919 414.936,-195.203"/>
</g>
<!-- Node20&#45;&gt;Node8 -->
<g id="edge40" class="edge"><title>Node20&#45;&gt;Node8</title>
<path fill="none" stroke="midnightblue" d="M298.956,-225.44C262.768,-215.178 210.593,-194.978 233,-168 254.188,-142.489 338.874,-131.362 401.906,-126.56"/>
<polygon fill="midnightblue" stroke="midnightblue" points="402.496,-130.027 412.217,-125.816 401.991,-123.045 402.496,-130.027"/>
</g>
<!-- Node21 -->
<g id="node22" class="node"><title>Node21</title>
<g id="a_node22"><a xlink:href="_proj_test_8h.html" target="_top" xlink:title="../Projectiles/ProjTest.h">
<polygon fill="white" stroke="black" points="242.5,-168.5 242.5,-187.5 361.5,-187.5 361.5,-168.5 242.5,-168.5"/>
<text text-anchor="middle" x="302" y="-175.5" font-family="Helvetica,sans-Serif" font-size="10.00">../Projectiles/ProjTest.h</text>
</a>
</g>
</g>
<!-- Node20&#45;&gt;Node21 -->
<g id="edge41" class="edge"><title>Node20&#45;&gt;Node21</title>
<path fill="none" stroke="midnightblue" d="M325.376,-224.083C321.544,-216.691 315.976,-205.953 311.235,-196.811"/>
<polygon fill="midnightblue" stroke="midnightblue" points="314.248,-195.018 306.538,-187.751 308.034,-198.24 314.248,-195.018"/>
</g>
<!-- Node21&#45;&gt;Node8 -->
<g id="edge42" class="edge"><title>Node21&#45;&gt;Node8</title>
<path fill="none" stroke="midnightblue" d="M329.254,-168.444C358.441,-159.28 404.921,-144.688 437.309,-134.519"/>
<polygon fill="midnightblue" stroke="midnightblue" points="438.381,-137.851 446.874,-131.516 436.284,-131.173 438.381,-137.851"/>
</g>
<!-- Node22&#45;&gt;Node7 -->
<g id="edge44" class="edge"><title>Node22&#45;&gt;Node7</title>
<path fill="none" stroke="midnightblue" d="M238.423,-225.717C278.15,-216.51 346.896,-200.578 392.908,-189.914"/>
<polygon fill="midnightblue" stroke="midnightblue" points="393.984,-193.257 402.936,-187.59 392.404,-186.438 393.984,-193.257"/>
</g>
<!-- Node22&#45;&gt;Node8 -->
<g id="edge45" class="edge"><title>Node22&#45;&gt;Node8</title>
<path fill="none" stroke="midnightblue" d="M206.546,-224.383C206.317,-210.37 208.075,-182.734 224,-168 249.427,-144.476 337.79,-132.877 402.273,-127.427"/>
<polygon fill="midnightblue" stroke="midnightblue" points="402.719,-130.902 412.403,-126.604 402.153,-123.925 402.719,-130.902"/>
</g>
<!-- Node23 -->
<g id="node24" class="node"><title>Node23</title>
<g id="a_node24"><a xlink:href="_proj_piou_8h.html" target="_top" xlink:title="../Projectiles/ProjPiou.h">
<polygon fill="white" stroke="black" points="28.5,-168.5 28.5,-187.5 147.5,-187.5 147.5,-168.5 28.5,-168.5"/>
<text text-anchor="middle" x="88" y="-175.5" font-family="Helvetica,sans-Serif" font-size="10.00">../Projectiles/ProjPiou.h</text>
</a>
</g>
</g>
<!-- Node22&#45;&gt;Node23 -->
<g id="edge46" class="edge"><title>Node22&#45;&gt;Node23</title>
<path fill="none" stroke="midnightblue" d="M188.144,-224.444C168.734,-215.636 138.27,-201.812 116.035,-191.722"/>
<polygon fill="midnightblue" stroke="midnightblue" points="117.32,-188.462 106.768,-187.516 114.428,-194.836 117.32,-188.462"/>
</g>
<!-- Node23&#45;&gt;Node8 -->
<g id="edge47" class="edge"><title>Node23&#45;&gt;Node8</title>
<path fill="none" stroke="midnightblue" d="M147.889,-168.622C216.754,-158.988 329.702,-143.187 402.95,-132.94"/>
<polygon fill="midnightblue" stroke="midnightblue" points="403.595,-136.384 413.014,-131.532 402.625,-129.451 403.595,-136.384"/>
</g>
<!-- Node24&#45;&gt;Node7 -->
<g id="edge49" class="edge"><title>Node24&#45;&gt;Node7</title>
<path fill="none" stroke="midnightblue" d="M433.321,-224.083C434.381,-216.927 435.906,-206.635 437.231,-197.691"/>
<polygon fill="midnightblue" stroke="midnightblue" points="440.7,-198.156 438.704,-187.751 433.776,-197.13 440.7,-198.156"/>
</g>
<!-- Node24&#45;&gt;Node9 -->
<g id="edge50" class="edge"><title>Node24&#45;&gt;Node9</title>
<path fill="none" stroke="midnightblue" d="M465.241,-229.073C509.922,-223.192 591.434,-210.33 658,-188 745.34,-158.702 841.556,-105.742 884.755,-80.7559"/>
<polygon fill="midnightblue" stroke="midnightblue" points="886.743,-83.6484 893.62,-75.589 883.218,-77.6007 886.743,-83.6484"/>
</g>
<!-- Node24&#45;&gt;Node21 -->
<g id="edge51" class="edge"><title>Node24&#45;&gt;Node21</title>
<path fill="none" stroke="midnightblue" d="M411.401,-224.444C390.007,-215.557 356.319,-201.563 331.976,-191.451"/>
<polygon fill="midnightblue" stroke="midnightblue" points="333.08,-188.12 322.503,-187.516 330.395,-194.585 333.08,-188.12"/>
</g>
<!-- Node25&#45;&gt;Node7 -->
<g id="edge53" class="edge"><title>Node25&#45;&gt;Node7</title>
<path fill="none" stroke="midnightblue" d="M561.183,-224.444C537.168,-215.438 499.171,-201.189 472.131,-191.049"/>
<polygon fill="midnightblue" stroke="midnightblue" points="473.303,-187.751 462.71,-187.516 470.845,-194.305 473.303,-187.751"/>
</g>
<!-- Node26 -->
<g id="node27" class="node"><title>Node26</title>
<g id="a_node27"><a xlink:href="_proj_missile_8h.html" target="_top" xlink:title="../Projectiles/ProjMissile.h">
<polygon fill="white" stroke="black" points="518.5,-168.5 518.5,-187.5 649.5,-187.5 649.5,-168.5 518.5,-168.5"/>
<text text-anchor="middle" x="584" y="-175.5" font-family="Helvetica,sans-Serif" font-size="10.00">../Projectiles/ProjMissile.h</text>
</a>
</g>
</g>
<!-- Node25&#45;&gt;Node26 -->
<g id="edge54" class="edge"><title>Node25&#45;&gt;Node26</title>
<path fill="none" stroke="midnightblue" d="M584,-224.083C584,-217.006 584,-206.861 584,-197.986"/>
<polygon fill="midnightblue" stroke="midnightblue" points="587.5,-197.751 584,-187.751 580.5,-197.751 587.5,-197.751"/>
</g>
<!-- Node26&#45;&gt;Node8 -->
<g id="edge55" class="edge"><title>Node26&#45;&gt;Node8</title>
<path fill="none" stroke="midnightblue" d="M566.327,-168.324C548.606,-159.625 521.097,-146.12 500.712,-136.113"/>
<polygon fill="midnightblue" stroke="midnightblue" points="502.149,-132.919 491.63,-131.655 499.064,-139.203 502.149,-132.919"/>
</g>
<!-- Node27&#45;&gt;Node3 -->
<g id="edge57" class="edge"><title>Node27&#45;&gt;Node3</title>
<path fill="none" stroke="midnightblue" d="M959.762,-280.348C977.056,-272.498 1001.72,-259.757 1020,-244 1040.12,-226.65 1144.01,-78.4983 1179.28,-27.8756"/>
<polygon fill="midnightblue" stroke="midnightblue" points="1182.19,-29.8193 1185.03,-19.6117 1176.44,-25.8213 1182.19,-29.8193"/>
</g>
<!-- Node27&#45;&gt;Node4 -->
<g id="edge58" class="edge"><title>Node27&#45;&gt;Node4</title>
<path fill="none" stroke="midnightblue" d="M918.56,-280.444C897.33,-271.557 863.901,-257.563 839.745,-247.451"/>
<polygon fill="midnightblue" stroke="midnightblue" points="840.921,-244.149 830.345,-243.516 838.218,-250.606 840.921,-244.149"/>
</g>
<!-- Node27&#45;&gt;Node16 -->
<g id="edge60" class="edge"><title>Node27&#45;&gt;Node16</title>
<path fill="none" stroke="midnightblue" d="M940.651,-280.083C941.976,-272.927 943.882,-262.635 945.539,-253.691"/>
<polygon fill="midnightblue" stroke="midnightblue" points="949,-254.221 947.379,-243.751 942.117,-252.947 949,-254.221"/>
</g>
<!-- Node27&#45;&gt;Node25 -->
<g id="edge59" class="edge"><title>Node27&#45;&gt;Node25</title>
<path fill="none" stroke="midnightblue" d="M885.469,-280.857C816.337,-270.341 697.096,-252.203 631.198,-242.179"/>
<polygon fill="midnightblue" stroke="midnightblue" points="631.509,-238.686 621.096,-240.643 630.456,-245.607 631.509,-238.686"/>
</g>
<!-- Node28&#45;&gt;Node2 -->
<g id="edge62" class="edge"><title>Node28&#45;&gt;Node2</title>
<path fill="none" stroke="midnightblue" d="M772.71,-340.571C587.42,-325.368 0,-274.086 0,-235 0,-235 0,-235 0,-121 0,-55.1294 507.916,-20.728 641.912,-12.7986"/>
<polygon fill="midnightblue" stroke="midnightblue" points="642.179,-16.289 651.958,-12.2125 641.771,-9.30092 642.179,-16.289"/>
</g>
<!-- Node28&#45;&gt;Node3 -->
<g id="edge63" class="edge"><title>Node28&#45;&gt;Node3</title>
<path fill="none" stroke="midnightblue" d="M883.291,-340.418C956.844,-333.672 1082.43,-319.703 1124,-300 1162.96,-281.536 1196,-278.111 1196,-235 1196,-235 1196,-235 1196,-121 1196,-88.9149 1193.85,-51.6198 1192.37,-29.7371"/>
<polygon fill="midnightblue" stroke="midnightblue" points="1195.85,-29.2813 1191.65,-19.5518 1188.86,-29.7729 1195.85,-29.2813"/>
</g>
<!-- Node28&#45;&gt;Node4 -->
<g id="edge64" class="edge"><title>Node28&#45;&gt;Node4</title>
<path fill="none" stroke="midnightblue" d="M826.588,-336.368C823.683,-318.617 816.982,-277.666 813.043,-253.597"/>
<polygon fill="midnightblue" stroke="midnightblue" points="816.475,-252.895 811.406,-243.591 809.567,-254.025 816.475,-252.895"/>
</g>
<!-- Node28&#45;&gt;Node16 -->
<g id="edge65" class="edge"><title>Node28&#45;&gt;Node16</title>
<path fill="none" stroke="midnightblue" d="M833.003,-336.179C840.875,-322.845 857.208,-297.283 876,-280 889.754,-267.351 907.568,-256.289 922.155,-248.297"/>
<polygon fill="midnightblue" stroke="midnightblue" points="924.003,-251.279 931.2,-243.504 920.725,-245.094 924.003,-251.279"/>
</g>
<!-- Node29 -->
<g id="node30" class="node"><title>Node29</title>
<g id="a_node30"><a xlink:href="_vaisseau_defenseur_b_8h.html" target="_top" xlink:title="VaisseauDefenseurB.h">
<polygon fill="white" stroke="black" points="673.5,-280.5 673.5,-299.5 790.5,-299.5 790.5,-280.5 673.5,-280.5"/>
<text text-anchor="middle" x="732" y="-287.5" font-family="Helvetica,sans-Serif" font-size="10.00">VaisseauDefenseurB.h</text>
</a>
</g>
</g>
<!-- Node28&#45;&gt;Node29 -->
<g id="edge66" class="edge"><title>Node28&#45;&gt;Node29</title>
<path fill="none" stroke="midnightblue" d="M812.576,-336.324C797.46,-327.822 774.185,-314.729 756.529,-304.797"/>
<polygon fill="midnightblue" stroke="midnightblue" points="757.817,-301.507 747.386,-299.655 754.386,-307.608 757.817,-301.507"/>
</g>
<!-- Node29&#45;&gt;Node4 -->
<g id="edge67" class="edge"><title>Node29&#45;&gt;Node4</title>
<path fill="none" stroke="midnightblue" d="M744.532,-280.324C756.586,-271.979 775.027,-259.212 789.269,-249.352"/>
<polygon fill="midnightblue" stroke="midnightblue" points="791.269,-252.224 797.499,-243.655 787.285,-246.469 791.269,-252.224"/>
</g>
</g>
</svg>
        <g id="navigator" transform="translate(0 0)" fill="#404254">
                <rect fill="#f2f5e9" fill-opacity="0.5" stroke="#606060" stroke-width=".5" x="0" y="0" width="60" height="60"/>
                <use id="zoomplus" xlink:href="#zoomPlus" x="17" y="9" onmousedown="handleZoom(evt,'in')"/>
                <use id="zoomminus" xlink:href="#zoomMin" x="42" y="9" onmousedown="handleZoom(evt,'out')"/>
                <use id="reset" xlink:href="#resetDef" x="30" y="36" onmousedown="handleReset()"/>
                <g id="arrowUp" xlink:href="#dirArrow" transform="translate(30 24)" onmousedown="handlePan(0,-1)">
                  <use xlink:href="#rim" fill="#404040">
                        <set attributeName="fill" to="#808080" begin="arrowUp.mouseover" end="arrowUp.mouseout"/>
                  </use>
                  <path fill="none" stroke="white" stroke-width="1.5" d="M0,-3.0v7 M-2.5,-0.5L0,-3.0L2.5,-0.5"/>
                </g>
                <g id="arrowRight" xlink:href="#dirArrow" transform="rotate(90) translate(36 -43)" onmousedown="handlePan(1,0)">
                  <use xlink:href="#rim" fill="#404040">
                        <set attributeName="fill" to="#808080" begin="arrowRight.mouseover" end="arrowRight.mouseout"/>
                  </use>
                  <path fill="none" stroke="white" stroke-width="1.5" d="M0,-3.0v7 M-2.5,-0.5L0,-3.0L2.5,-0.5"/>
                </g>
                <g id="arrowDown" xlink:href="#dirArrow" transform="rotate(180) translate(-30 -48)" onmousedown="handlePan(0,1)">
                  <use xlink:href="#rim" fill="#404040">
                        <set attributeName="fill" to="#808080" begin="arrowDown.mouseover" end="arrowDown.mouseout"/>
                  </use>
                  <path fill="none" stroke="white" stroke-width="1.5" d="M0,-3.0v7 M-2.5,-0.5L0,-3.0L2.5,-0.5"/>
                </g>
                <g id="arrowLeft" xlink:href="#dirArrow" transform="rotate(270) translate(-36 17)" onmousedown="handlePan(-1,0)">
                  <use xlink:href="#rim" fill="#404040">
                        <set attributeName="fill" to="#808080" begin="arrowLeft.mouseover" end="arrowLeft.mouseout"/>
                  </use>
                  <path fill="none" stroke="white" stroke-width="1.5" d="M0,-3.0v7 M-2.5,-0.5L0,-3.0L2.5,-0.5"/>
                </g>
        </g>
        <svg viewBox="0 0 15 15" width="100%" height="30px" preserveAspectRatio="xMaxYMin meet">
         <g id="arrow_out" transform="scale(0.3 0.3)">
          <a xlink:href="__vaisseaux_8h__incl_org.svg" target="_base">
           <rect id="button" ry="5" rx="5" y="6" x="6" height="38" width="38"
                fill="#f2f5e9" fill-opacity="0.5" stroke="#606060" stroke-width="1.0"/>
           <path id="arrow"
             d="M 11.500037,31.436501 C 11.940474,20.09759 22.043105,11.32322 32.158766,21.979434 L 37.068811,17.246167 C 37.068811,17.246167 37.088388,32 37.088388,32 L 22.160133,31.978069 C 22.160133,31.978069 26.997745,27.140456 26.997745,27.140456 C 18.528582,18.264221 13.291696,25.230495 11.500037,31.436501 z"
             style="fill:#404040;"/>
          </a>
         </g>
        </svg>
</svg>
