<?xml version="1.0" encoding="UTF-8" standalone="no"?>
<!DOCTYPE svg PUBLIC "-//W3C//DTD SVG 1.1//EN"
 "http://www.w3.org/Graphics/SVG/1.1/DTD/svg11.dtd">
<!-- Generated by graphviz version 2.38.0 (20140413.2041)
 -->
<!-- Title: src/Vaisseau/_vaisseaux.h Pages: 1 -->
<svg width="466pt" height="364pt"
 viewBox="0.00 0.00 466.31 364.00" xmlns="http://www.w3.org/2000/svg" xmlns:xlink="http://www.w3.org/1999/xlink">
<g id="graph0" class="graph" transform="scale(1 1) rotate(0) translate(4 360)">
<title>src/Vaisseau/_vaisseaux.h</title>
<polygon fill="white" stroke="none" points="-4,4 -4,-360 462.314,-360 462.314,4 -4,4"/>
<!-- Node0 -->
<g id="node1" class="node"><title>Node0</title>
<polygon fill="#bfbfbf" stroke="black" points="184,-336.5 184,-355.5 318,-355.5 318,-336.5 184,-336.5"/>
<text text-anchor="middle" x="251" y="-343.5" font-family="Helvetica,sans-Serif" font-size="10.00">src/Vaisseau/_vaisseaux.h</text>
</g>
<!-- Node1 -->
<g id="node2" class="node"><title>Node1</title>
<g id="a_node2"><a xlink:href="_vaisseau_eclaireur_8h.html" target="_top" xlink:title="VaisseauEclaireur.h">
<polygon fill="white" stroke="black" points="143,-280.5 143,-299.5 247,-299.5 247,-280.5 143,-280.5"/>
<text text-anchor="middle" x="195" y="-287.5" font-family="Helvetica,sans-Serif" font-size="10.00">VaisseauEclaireur.h</text>
</a>
</g>
</g>
<!-- Node0&#45;&gt;Node1 -->
<g id="edge1" class="edge"><title>Node0&#45;&gt;Node1</title>
<path fill="none" stroke="midnightblue" d="M242.003,-336.324C233.806,-328.42 221.494,-316.548 211.528,-306.938"/>
<polygon fill="midnightblue" stroke="midnightblue" points="213.789,-304.256 204.161,-299.834 208.93,-309.295 213.789,-304.256"/>
</g>
<!-- Node13 -->
<g id="node14" class="node"><title>Node13</title>
<g id="a_node14"><a xlink:href="_vaisseau_test_8h.html" target="_top" xlink:title="VaisseauTest.h">
<polygon fill="white" stroke="black" points="265.5,-280.5 265.5,-299.5 350.5,-299.5 350.5,-280.5 265.5,-280.5"/>
<text text-anchor="middle" x="308" y="-287.5" font-family="Helvetica,sans-Serif" font-size="10.00">VaisseauTest.h</text>
</a>
</g>
</g>
<!-- Node0&#45;&gt;Node13 -->
<g id="edge24" class="edge"><title>Node0&#45;&gt;Node13</title>
<path fill="none" stroke="midnightblue" d="M260.158,-336.324C268.501,-328.42 281.032,-316.548 291.177,-306.938"/>
<polygon fill="midnightblue" stroke="midnightblue" points="293.823,-309.252 298.675,-299.834 289.009,-304.171 293.823,-309.252"/>
</g>
<!-- Node2 -->
<g id="node3" class="node"><title>Node2</title>
<g id="a_node3"><a xlink:href="constantes_8h.html" target="_top" xlink:title="../constantes.h">
<polygon fill="white" stroke="black" points="0,-0.5 0,-19.5 82,-19.5 82,-0.5 0,-0.5"/>
<text text-anchor="middle" x="41" y="-7.5" font-family="Helvetica,sans-Serif" font-size="10.00">../constantes.h</text>
</a>
</g>
</g>
<!-- Node1&#45;&gt;Node2 -->
<g id="edge2" class="edge"><title>Node1&#45;&gt;Node2</title>
<path fill="none" stroke="midnightblue" d="M163.537,-280.482C120.891,-266.804 50,-235.56 50,-179 50,-179 50,-179 50,-121 50,-88.8409 46.1316,-51.5688 43.4671,-29.7107"/>
<polygon fill="midnightblue" stroke="midnightblue" points="46.9074,-29.0183 42.1766,-19.5383 39.9631,-29.8993 46.9074,-29.0183"/>
</g>
<!-- Node3 -->
<g id="node4" class="node"><title>Node3</title>
<g id="a_node4"><a xlink:href="_vaisseau_8h.html" target="_top" xlink:title="Vaisseau.h">
<polygon fill="white" stroke="black" points="238.5,-224.5 238.5,-243.5 303.5,-243.5 303.5,-224.5 238.5,-224.5"/>
<text text-anchor="middle" x="271" y="-231.5" font-family="Helvetica,sans-Serif" font-size="10.00">Vaisseau.h</text>
</a>
</g>
</g>
<!-- Node1&#45;&gt;Node3 -->
<g id="edge3" class="edge"><title>Node1&#45;&gt;Node3</title>
<path fill="none" stroke="midnightblue" d="M207.211,-280.324C218.776,-272.107 236.375,-259.602 250.161,-249.807"/>
<polygon fill="midnightblue" stroke="midnightblue" points="252.443,-252.479 258.567,-243.834 248.388,-246.773 252.443,-252.479"/>
</g>
<!-- Node4 -->
<g id="node5" class="node"><title>Node4</title>
<polygon fill="white" stroke="#bfbfbf" points="408,-0.5 408,-19.5 452,-19.5 452,-0.5 408,-0.5"/>
<text text-anchor="middle" x="430" y="-7.5" font-family="Helvetica,sans-Serif" font-size="10.00">vector</text>
</g>
<!-- Node3&#45;&gt;Node4 -->
<g id="edge4" class="edge"><title>Node3&#45;&gt;Node4</title>
<path fill="none" stroke="midnightblue" d="M303.728,-228.951C347.809,-222.747 422.64,-209.319 439,-188 475.328,-140.66 451.449,-63.4647 437.736,-28.8177"/>
<polygon fill="midnightblue" stroke="midnightblue" points="440.942,-27.4128 433.884,-19.5113 434.474,-30.0897 440.942,-27.4128"/>
</g>
<!-- Node5 -->
<g id="node6" class="node"><title>Node5</title>
<polygon fill="white" stroke="#bfbfbf" points="360.5,-56.5 360.5,-75.5 401.5,-75.5 401.5,-56.5 360.5,-56.5"/>
<text text-anchor="middle" x="381" y="-63.5" font-family="Helvetica,sans-Serif" font-size="10.00">string</text>
</g>
<!-- Node3&#45;&gt;Node5 -->
<g id="edge5" class="edge"><title>Node3&#45;&gt;Node5</title>
<path fill="none" stroke="midnightblue" d="M303.593,-233.651C338.986,-232.381 394.059,-224.21 421,-188 444.983,-155.766 414.816,-108.38 395.252,-83.5557"/>
<polygon fill="midnightblue" stroke="midnightblue" points="397.926,-81.2958 388.881,-75.778 392.51,-85.7317 397.926,-81.2958"/>
</g>
<!-- Node6 -->
<g id="node7" class="node"><title>Node6</title>
<polygon fill="white" stroke="#bfbfbf" points="286,-56.5 286,-75.5 342,-75.5 342,-56.5 286,-56.5"/>
<text text-anchor="middle" x="314" y="-63.5" font-family="Helvetica,sans-Serif" font-size="10.00">algorithm</text>
</g>
<!-- Node3&#45;&gt;Node6 -->
<g id="edge6" class="edge"><title>Node3&#45;&gt;Node6</title>
<path fill="none" stroke="midnightblue" d="M257.776,-224.357C228.765,-204.318 164.329,-153.252 193,-112 211.569,-85.2823 247.989,-74.3957 276.042,-69.977"/>
<polygon fill="midnightblue" stroke="midnightblue" points="276.516,-73.4449 285.951,-68.6244 275.569,-66.5092 276.516,-73.4449"/>
</g>
<!-- Node7 -->
<g id="node8" class="node"><title>Node7</title>
<g id="a_node8"><a xlink:href="_capacite_8h.html" target="_top" xlink:title="../Capacites/Capacite.h">
<polygon fill="white" stroke="black" points="292,-168.5 292,-187.5 412,-187.5 412,-168.5 292,-168.5"/>
<text text-anchor="middle" x="352" y="-175.5" font-family="Helvetica,sans-Serif" font-size="10.00">../Capacites/Capacite.h</text>
</a>
</g>
</g>
<!-- Node3&#45;&gt;Node7 -->
<g id="edge7" class="edge"><title>Node3&#45;&gt;Node7</title>
<path fill="none" stroke="midnightblue" d="M284.014,-224.324C296.532,-215.979 315.682,-203.212 330.471,-193.352"/>
<polygon fill="midnightblue" stroke="midnightblue" points="332.639,-196.114 339.018,-187.655 328.756,-190.289 332.639,-196.114"/>
</g>
<!-- Node8 -->
<g id="node9" class="node"><title>Node8</title>
<g id="a_node9"><a xlink:href="_projectile_8h.html" target="_top" xlink:title="../Projectiles/Projectile.h">
<polygon fill="white" stroke="black" points="202.5,-112.5 202.5,-131.5 325.5,-131.5 325.5,-112.5 202.5,-112.5"/>
<text text-anchor="middle" x="264" y="-119.5" font-family="Helvetica,sans-Serif" font-size="10.00">../Projectiles/Projectile.h</text>
</a>
</g>
</g>
<!-- Node3&#45;&gt;Node8 -->
<g id="edge23" class="edge"><title>Node3&#45;&gt;Node8</title>
<path fill="none" stroke="midnightblue" d="M270.451,-224.368C269.321,-206.617 266.715,-165.666 265.183,-141.597"/>
<polygon fill="midnightblue" stroke="midnightblue" points="268.675,-141.349 264.547,-131.591 261.689,-141.794 268.675,-141.349"/>
</g>
<!-- Node9 -->
<g id="node10" class="node"><title>Node9</title>
<g id="a_node10"><a xlink:href="_entite_8h.html" target="_top" xlink:title="../Entite.h">
<polygon fill="white" stroke="black" points="157.5,-56.5 157.5,-75.5 216.5,-75.5 216.5,-56.5 157.5,-56.5"/>
<text text-anchor="middle" x="187" y="-63.5" font-family="Helvetica,sans-Serif" font-size="10.00">../Entite.h</text>
</a>
</g>
</g>
<!-- Node3&#45;&gt;Node9 -->
<g id="edge22" class="edge"><title>Node3&#45;&gt;Node9</title>
<path fill="none" stroke="midnightblue" d="M246.05,-224.389C229.091,-217.251 207.537,-205.426 195,-188 173.152,-157.631 177.781,-111.12 182.656,-85.51"/>
<polygon fill="midnightblue" stroke="midnightblue" points="186.1,-86.1425 184.752,-75.6338 179.252,-84.6895 186.1,-86.1425"/>
</g>
<!-- Node7&#45;&gt;Node4 -->
<g id="edge8" class="edge"><title>Node7&#45;&gt;Node4</title>
<path fill="none" stroke="midnightblue" d="M359.115,-168.392C366.195,-159.587 377.114,-145.345 385,-132 398.96,-108.376 401.346,-101.686 411,-76 416.817,-60.5239 421.976,-42.4367 425.445,-29.2769"/>
<polygon fill="midnightblue" stroke="midnightblue" points="428.847,-30.103 427.939,-19.5471 422.066,-28.365 428.847,-30.103"/>
</g>
<!-- Node7&#45;&gt;Node5 -->
<g id="edge9" class="edge"><title>Node7&#45;&gt;Node5</title>
<path fill="none" stroke="midnightblue" d="M355.441,-168.491C358.966,-159.529 364.424,-144.948 368,-132 372.266,-116.557 375.737,-98.687 378.015,-85.5971"/>
<polygon fill="midnightblue" stroke="midnightblue" points="381.506,-85.9455 379.701,-75.5055 374.601,-84.7921 381.506,-85.9455"/>
</g>
<!-- Node7&#45;&gt;Node6 -->
<g id="edge10" class="edge"><title>Node7&#45;&gt;Node6</title>
<path fill="none" stroke="midnightblue" d="M350.063,-168.461C347.122,-155.915 341.112,-131.841 334,-112 330.755,-102.946 326.499,-93.1593 322.748,-85.0324"/>
<polygon fill="midnightblue" stroke="midnightblue" points="325.823,-83.347 318.381,-75.8059 319.496,-86.3419 325.823,-83.347"/>
</g>
<!-- Node7&#45;&gt;Node8 -->
<g id="edge11" class="edge"><title>Node7&#45;&gt;Node8</title>
<path fill="none" stroke="midnightblue" d="M337.861,-168.324C324.134,-159.9 303.064,-146.971 286.936,-137.074"/>
<polygon fill="midnightblue" stroke="midnightblue" points="288.457,-133.902 278.104,-131.655 284.796,-139.868 288.457,-133.902"/>
</g>
<!-- Node7&#45;&gt;Node9 -->
<g id="edge21" class="edge"><title>Node7&#45;&gt;Node9</title>
<path fill="none" stroke="midnightblue" d="M291.689,-175.87C257.47,-171.836 216.841,-160.68 193,-132 182.482,-119.347 181.964,-100.139 183.487,-85.881"/>
<polygon fill="midnightblue" stroke="midnightblue" points="186.988,-86.1328 184.994,-75.7274 180.064,-85.1054 186.988,-86.1328"/>
</g>
<!-- Node8&#45;&gt;Node4 -->
<g id="edge12" class="edge"><title>Node8&#45;&gt;Node4</title>
<path fill="none" stroke="midnightblue" d="M263.114,-112.174C262.243,-98.3664 262.705,-71.6219 277,-56 277.527,-55.4241 353.326,-33.3028 398.022,-20.2952"/>
<polygon fill="midnightblue" stroke="midnightblue" points="399.227,-23.59 407.851,-17.4359 397.271,-16.8687 399.227,-23.59"/>
</g>
<!-- Node8&#45;&gt;Node5 -->
<g id="edge13" class="edge"><title>Node8&#45;&gt;Node5</title>
<path fill="none" stroke="midnightblue" d="M282.539,-112.444C301.623,-103.636 331.575,-89.8116 353.436,-79.722"/>
<polygon fill="midnightblue" stroke="midnightblue" points="354.935,-82.8849 362.548,-75.5164 352.001,-76.5292 354.935,-82.8849"/>
</g>
<!-- Node8&#45;&gt;Node6 -->
<g id="edge14" class="edge"><title>Node8&#45;&gt;Node6</title>
<path fill="none" stroke="midnightblue" d="M272.256,-112.083C279.465,-104.298 290.11,-92.8015 298.846,-83.3665"/>
<polygon fill="midnightblue" stroke="midnightblue" points="301.671,-85.4666 305.897,-75.7511 296.535,-80.7108 301.671,-85.4666"/>
</g>
<!-- Node8&#45;&gt;Node9 -->
<g id="edge15" class="edge"><title>Node8&#45;&gt;Node9</title>
<path fill="none" stroke="midnightblue" d="M251.629,-112.324C239.842,-104.058 221.868,-91.4527 207.864,-81.6322"/>
<polygon fill="midnightblue" stroke="midnightblue" points="209.538,-78.5307 199.341,-75.6545 205.518,-84.2619 209.538,-78.5307"/>
</g>
<!-- Node9&#45;&gt;Node2 -->
<g id="edge20" class="edge"><title>Node9&#45;&gt;Node2</title>
<path fill="none" stroke="midnightblue" d="M163.866,-56.4435C139.518,-47.4381 100.993,-33.1891 73.577,-23.049"/>
<polygon fill="midnightblue" stroke="midnightblue" points="74.6191,-19.7028 64.0259,-19.5164 72.1908,-26.2681 74.6191,-19.7028"/>
</g>
<!-- Node9&#45;&gt;Node4 -->
<g id="edge16" class="edge"><title>Node9&#45;&gt;Node4</title>
<path fill="none" stroke="midnightblue" d="M216.652,-59.4196C255.94,-51.8709 327.593,-37.5693 397.808,-20.1621"/>
<polygon fill="midnightblue" stroke="midnightblue" points="398.851,-23.509 407.702,-17.6857 397.152,-16.7184 398.851,-23.509"/>
</g>
<!-- Node10 -->
<g id="node11" class="node"><title>Node10</title>
<polygon fill="white" stroke="#bfbfbf" points="338,-0.5 338,-19.5 390,-19.5 390,-0.5 338,-0.5"/>
<text text-anchor="middle" x="364" y="-7.5" font-family="Helvetica,sans-Serif" font-size="10.00">memory</text>
</g>
<!-- Node9&#45;&gt;Node10 -->
<g id="edge17" class="edge"><title>Node9&#45;&gt;Node10</title>
<path fill="none" stroke="midnightblue" d="M215.046,-56.4435C245.612,-47.1184 294.607,-32.1708 327.993,-21.985"/>
<polygon fill="midnightblue" stroke="midnightblue" points="329.273,-25.2541 337.816,-18.9883 327.23,-18.5588 329.273,-25.2541"/>
</g>
<!-- Node11 -->
<g id="node12" class="node"><title>Node11</title>
<polygon fill="white" stroke="#bfbfbf" points="100,-0.5 100,-19.5 198,-19.5 198,-0.5 100,-0.5"/>
<text text-anchor="middle" x="149" y="-7.5" font-family="Helvetica,sans-Serif" font-size="10.00">SFML/System.hpp</text>
</g>
<!-- Node9&#45;&gt;Node11 -->
<g id="edge18" class="edge"><title>Node9&#45;&gt;Node11</title>
<path fill="none" stroke="midnightblue" d="M180.725,-56.083C175.358,-48.4554 167.482,-37.2645 160.921,-27.9408"/>
<polygon fill="midnightblue" stroke="midnightblue" points="163.775,-25.9149 155.158,-19.7511 158.051,-29.9434 163.775,-25.9149"/>
</g>
<!-- Node12 -->
<g id="node13" class="node"><title>Node12</title>
<polygon fill="white" stroke="#bfbfbf" points="216,-0.5 216,-19.5 320,-19.5 320,-0.5 216,-0.5"/>
<text text-anchor="middle" x="268" y="-7.5" font-family="Helvetica,sans-Serif" font-size="10.00">SFML/Graphics.hpp</text>
</g>
<!-- Node9&#45;&gt;Node12 -->
<g id="edge19" class="edge"><title>Node9&#45;&gt;Node12</title>
<path fill="none" stroke="midnightblue" d="M200.014,-56.324C212.532,-47.979 231.682,-35.2122 246.471,-25.3524"/>
<polygon fill="midnightblue" stroke="midnightblue" points="248.639,-28.1137 255.018,-19.6545 244.756,-22.2894 248.639,-28.1137"/>
</g>
<!-- Node13&#45;&gt;Node3 -->
<g id="edge25" class="edge"><title>Node13&#45;&gt;Node3</title>
<path fill="none" stroke="midnightblue" d="M301.89,-280.083C296.718,-272.534 289.154,-261.495 282.806,-252.23"/>
<polygon fill="midnightblue" stroke="midnightblue" points="285.536,-250.022 276.996,-243.751 279.761,-253.979 285.536,-250.022"/>
</g>
<!-- Node13&#45;&gt;Node7 -->
<g id="edge26" class="edge"><title>Node13&#45;&gt;Node7</title>
<path fill="none" stroke="midnightblue" d="M311.453,-280.368C318.617,-262.456 335.231,-220.923 344.821,-196.948"/>
<polygon fill="midnightblue" stroke="midnightblue" points="348.099,-198.176 348.563,-187.591 341.6,-195.576 348.099,-198.176"/>
</g>
</g>
</svg>
