<?xml version="1.0" encoding="UTF-8" standalone="no"?>
<!DOCTYPE svg PUBLIC "-//W3C//DTD SVG 1.1//EN"
 "http://www.w3.org/Graphics/SVG/1.1/DTD/svg11.dtd">
<!-- Generated by graphviz version 2.38.0 (20140413.2041)
 -->
<!-- Title: src/Capacites/CapPiou.h Pages: 1 -->
<svg width="412pt" height="252pt"
 viewBox="0.00 0.00 412.06 252.00" xmlns="http://www.w3.org/2000/svg" xmlns:xlink="http://www.w3.org/1999/xlink">
<g id="graph0" class="graph" transform="scale(1 1) rotate(0) translate(4 248)">
<title>src/Capacites/CapPiou.h</title>
<polygon fill="white" stroke="none" points="-4,4 -4,-248 408.06,-248 408.06,4 -4,4"/>
<!-- Node0 -->
<g id="node1" class="node"><title>Node0</title>
<polygon fill="#bfbfbf" stroke="black" points="65.0597,-224.5 65.0597,-243.5 191.06,-243.5 191.06,-224.5 65.0597,-224.5"/>
<text text-anchor="middle" x="128.06" y="-231.5" font-family="Helvetica,sans-Serif" font-size="10.00">src/Capacites/CapPiou.h</text>
</g>
<!-- Node1 -->
<g id="node2" class="node"><title>Node1</title>
<g id="a_node2"><a xlink:href="_capacite_8h.html" target="_top" xlink:title="Capacite.h">
<polygon fill="white" stroke="black" points="36.0597,-168.5 36.0597,-187.5 100.06,-187.5 100.06,-168.5 36.0597,-168.5"/>
<text text-anchor="middle" x="68.0597" y="-175.5" font-family="Helvetica,sans-Serif" font-size="10.00">Capacite.h</text>
</a>
</g>
</g>
<!-- Node0&#45;&gt;Node1 -->
<g id="edge1" class="edge"><title>Node0&#45;&gt;Node1</title>
<path fill="none" stroke="midnightblue" d="M118.42,-224.324C109.55,-216.341 96.185,-204.313 85.4518,-194.653"/>
<polygon fill="midnightblue" stroke="midnightblue" points="87.6495,-191.922 77.8752,-187.834 82.9667,-197.125 87.6495,-191.922"/>
</g>
<!-- Node5 -->
<g id="node6" class="node"><title>Node5</title>
<g id="a_node6"><a xlink:href="_projectile_8h.html" target="_top" xlink:title="../Projectiles/Projectile.h">
<polygon fill="white" stroke="black" points="96.5597,-112.5 96.5597,-131.5 219.56,-131.5 219.56,-112.5 96.5597,-112.5"/>
<text text-anchor="middle" x="158.06" y="-119.5" font-family="Helvetica,sans-Serif" font-size="10.00">../Projectiles/Projectile.h</text>
</a>
</g>
</g>
<!-- Node0&#45;&gt;Node5 -->
<g id="edge14" class="edge"><title>Node0&#45;&gt;Node5</title>
<path fill="none" stroke="midnightblue" d="M130.414,-224.368C135.277,-206.537 146.525,-165.295 153.077,-141.272"/>
<polygon fill="midnightblue" stroke="midnightblue" points="156.462,-142.16 155.717,-131.591 149.709,-140.318 156.462,-142.16"/>
</g>
<!-- Node9 -->
<g id="node10" class="node"><title>Node9</title>
<g id="a_node10"><a xlink:href="_proj_piou_8h.html" target="_top" xlink:title="../Projectiles/ProjPiou.h">
<polygon fill="white" stroke="black" points="156.56,-168.5 156.56,-187.5 275.56,-187.5 275.56,-168.5 156.56,-168.5"/>
<text text-anchor="middle" x="216.06" y="-175.5" font-family="Helvetica,sans-Serif" font-size="10.00">../Projectiles/ProjPiou.h</text>
</a>
</g>
</g>
<!-- Node0&#45;&gt;Node9 -->
<g id="edge15" class="edge"><title>Node0&#45;&gt;Node9</title>
<path fill="none" stroke="midnightblue" d="M142.198,-224.324C155.926,-215.9 176.996,-202.971 193.124,-193.074"/>
<polygon fill="midnightblue" stroke="midnightblue" points="195.263,-195.868 201.956,-187.655 191.602,-189.902 195.263,-195.868"/>
</g>
<!-- Node2 -->
<g id="node3" class="node"><title>Node2</title>
<polygon fill="white" stroke="#bfbfbf" points="122.06,-0.5 122.06,-19.5 166.06,-19.5 166.06,-0.5 122.06,-0.5"/>
<text text-anchor="middle" x="144.06" y="-7.5" font-family="Helvetica,sans-Serif" font-size="10.00">vector</text>
</g>
<!-- Node1&#45;&gt;Node2 -->
<g id="edge2" class="edge"><title>Node1&#45;&gt;Node2</title>
<path fill="none" stroke="midnightblue" d="M57.4745,-168.245C33.7154,-147.534 -19.6772,-94.3935 8.05972,-56 31.5471,-23.4887 79.4137,-14.0808 111.623,-11.57"/>
<polygon fill="midnightblue" stroke="midnightblue" points="112.113,-15.0471 121.888,-10.9595 111.698,-8.05944 112.113,-15.0471"/>
</g>
<!-- Node3 -->
<g id="node4" class="node"><title>Node3</title>
<polygon fill="white" stroke="#bfbfbf" points="17.5597,-56.5 17.5597,-75.5 58.5597,-75.5 58.5597,-56.5 17.5597,-56.5"/>
<text text-anchor="middle" x="38.0597" y="-63.5" font-family="Helvetica,sans-Serif" font-size="10.00">string</text>
</g>
<!-- Node1&#45;&gt;Node3 -->
<g id="edge3" class="edge"><title>Node1&#45;&gt;Node3</title>
<path fill="none" stroke="midnightblue" d="M65.2209,-168.419C62.2763,-159.398 57.6141,-144.769 54.0597,-132 49.7692,-116.586 45.4661,-98.9525 42.4047,-85.9442"/>
<polygon fill="midnightblue" stroke="midnightblue" points="45.7378,-84.824 40.0657,-75.8754 38.9194,-86.408 45.7378,-84.824"/>
</g>
<!-- Node4 -->
<g id="node5" class="node"><title>Node4</title>
<polygon fill="white" stroke="#bfbfbf" points="77.0597,-56.5 77.0597,-75.5 133.06,-75.5 133.06,-56.5 77.0597,-56.5"/>
<text text-anchor="middle" x="105.06" y="-63.5" font-family="Helvetica,sans-Serif" font-size="10.00">algorithm</text>
</g>
<!-- Node1&#45;&gt;Node4 -->
<g id="edge4" class="edge"><title>Node1&#45;&gt;Node4</title>
<path fill="none" stroke="midnightblue" d="M70.3743,-168.084C73.7121,-155.479 80.23,-131.782 87.0597,-112 90.1877,-102.94 94.0957,-93.0338 97.4703,-84.8277"/>
<polygon fill="midnightblue" stroke="midnightblue" points="100.728,-86.1102 101.361,-75.5343 94.2706,-83.4071 100.728,-86.1102"/>
</g>
<!-- Node1&#45;&gt;Node5 -->
<g id="edge5" class="edge"><title>Node1&#45;&gt;Node5</title>
<path fill="none" stroke="midnightblue" d="M82.5198,-168.324C96.5593,-159.9 118.108,-146.971 134.603,-137.074"/>
<polygon fill="midnightblue" stroke="midnightblue" points="136.861,-139.801 143.636,-131.655 133.26,-133.798 136.861,-139.801"/>
</g>
<!-- Node6 -->
<g id="node7" class="node"><title>Node6</title>
<g id="a_node7"><a xlink:href="_entite_8h.html" target="_top" xlink:title="../Entite.h">
<polygon fill="white" stroke="black" points="203.56,-56.5 203.56,-75.5 262.56,-75.5 262.56,-56.5 203.56,-56.5"/>
<text text-anchor="middle" x="233.06" y="-63.5" font-family="Helvetica,sans-Serif" font-size="10.00">../Entite.h</text>
</a>
</g>
</g>
<!-- Node1&#45;&gt;Node6 -->
<g id="edge13" class="edge"><title>Node1&#45;&gt;Node6</title>
<path fill="none" stroke="midnightblue" d="M100.096,-172.374C141.977,-165.622 211.915,-151.693 228.06,-132 238.478,-119.292 238.687,-100.091 236.916,-85.8501"/>
<polygon fill="midnightblue" stroke="midnightblue" points="240.323,-85.0006 235.229,-75.7109 233.418,-86.1498 240.323,-85.0006"/>
</g>
<!-- Node5&#45;&gt;Node2 -->
<g id="edge6" class="edge"><title>Node5&#45;&gt;Node2</title>
<path fill="none" stroke="midnightblue" d="M156.961,-112.368C154.702,-94.617 149.49,-53.6664 146.427,-29.5974"/>
<polygon fill="midnightblue" stroke="midnightblue" points="149.888,-29.0695 145.153,-19.5914 142.944,-29.9533 149.888,-29.0695"/>
</g>
<!-- Node5&#45;&gt;Node3 -->
<g id="edge7" class="edge"><title>Node5&#45;&gt;Node3</title>
<path fill="none" stroke="midnightblue" d="M139.045,-112.444C119.472,-103.636 88.7521,-89.8116 66.3308,-79.722"/>
<polygon fill="midnightblue" stroke="midnightblue" points="67.5406,-76.4284 56.9851,-75.5164 64.668,-82.8119 67.5406,-76.4284"/>
</g>
<!-- Node5&#45;&gt;Node4 -->
<g id="edge8" class="edge"><title>Node5&#45;&gt;Node4</title>
<path fill="none" stroke="midnightblue" d="M149.308,-112.083C141.59,-104.22 130.155,-92.5688 120.843,-83.0813"/>
<polygon fill="midnightblue" stroke="midnightblue" points="123.151,-80.4363 113.649,-75.7511 118.156,-85.3396 123.151,-80.4363"/>
</g>
<!-- Node5&#45;&gt;Node6 -->
<g id="edge9" class="edge"><title>Node5&#45;&gt;Node6</title>
<path fill="none" stroke="midnightblue" d="M170.11,-112.324C181.523,-104.107 198.891,-91.6017 212.495,-81.8069"/>
<polygon fill="midnightblue" stroke="midnightblue" points="214.72,-84.5174 220.79,-75.8339 210.63,-78.8366 214.72,-84.5174"/>
</g>
<!-- Node6&#45;&gt;Node2 -->
<g id="edge10" class="edge"><title>Node6&#45;&gt;Node2</title>
<path fill="none" stroke="midnightblue" d="M218.76,-56.324C204.877,-47.9002 183.567,-34.9709 167.256,-25.0741"/>
<polygon fill="midnightblue" stroke="midnightblue" points="168.689,-21.8495 158.324,-19.6545 165.057,-27.8341 168.689,-21.8495"/>
</g>
<!-- Node7 -->
<g id="node8" class="node"><title>Node7</title>
<polygon fill="white" stroke="#bfbfbf" points="184.06,-0.5 184.06,-19.5 282.06,-19.5 282.06,-0.5 184.06,-0.5"/>
<text text-anchor="middle" x="233.06" y="-7.5" font-family="Helvetica,sans-Serif" font-size="10.00">SFML/System.hpp</text>
</g>
<!-- Node6&#45;&gt;Node7 -->
<g id="edge11" class="edge"><title>Node6&#45;&gt;Node7</title>
<path fill="none" stroke="midnightblue" d="M233.06,-56.083C233.06,-49.0059 233.06,-38.8611 233.06,-29.9865"/>
<polygon fill="midnightblue" stroke="midnightblue" points="236.56,-29.751 233.06,-19.7511 229.56,-29.7511 236.56,-29.751"/>
</g>
<!-- Node8 -->
<g id="node9" class="node"><title>Node8</title>
<polygon fill="white" stroke="#bfbfbf" points="300.06,-0.5 300.06,-19.5 404.06,-19.5 404.06,-0.5 300.06,-0.5"/>
<text text-anchor="middle" x="352.06" y="-7.5" font-family="Helvetica,sans-Serif" font-size="10.00">SFML/Graphics.hpp</text>
</g>
<!-- Node6&#45;&gt;Node8 -->
<g id="edge12" class="edge"><title>Node6&#45;&gt;Node8</title>
<path fill="none" stroke="midnightblue" d="M251.916,-56.4435C271.326,-47.6356 301.79,-33.8116 324.024,-23.722"/>
<polygon fill="midnightblue" stroke="midnightblue" points="325.632,-26.836 333.292,-19.5164 322.739,-20.4615 325.632,-26.836"/>
</g>
<!-- Node9&#45;&gt;Node5 -->
<g id="edge16" class="edge"><title>Node9&#45;&gt;Node5</title>
<path fill="none" stroke="midnightblue" d="M206.741,-168.324C198.167,-160.341 185.248,-148.313 174.872,-138.653"/>
<polygon fill="midnightblue" stroke="midnightblue" points="177.252,-136.086 167.548,-131.834 172.482,-141.21 177.252,-136.086"/>
</g>
</g>
</svg>
