<?xml version="1.0" encoding="UTF-8" standalone="no"?>
<!DOCTYPE svg PUBLIC "-//W3C//DTD SVG 1.1//EN"
 "http://www.w3.org/Graphics/SVG/1.1/DTD/svg11.dtd">
<!-- Generated by graphviz version 2.38.0 (20140413.2041)
 -->
<!-- Title: src/Capacites/Capacite.cpp Pages: 1 -->
<!--zoomable 308 -->
<svg id="main" version="1.1" xmlns="http://www.w3.org/2000/svg" xmlns:xlink="http://www.w3.org/1999/xlink" xml:space="preserve" onload="init(evt)">
<style type="text/css"><![CDATA[
.edge:hover path { stroke: red; }
.edge:hover polygon { stroke: red; fill: red; }
]]></style>
<script type="text/javascript"><![CDATA[
var edges = document.getElementsByTagName('g');
if (edges && edges.length) {
  for (var i=0;i<edges.length;i++) {
    if (edges[i].id.substr(0,4)=='edge') {
      edges[i].setAttribute('class','edge');
    }
  }
}
]]></script>
        <defs>
                <circle id="rim" cx="0" cy="0" r="7"/>
                <circle id="rim2" cx="0" cy="0" r="3.5"/>
                <g id="zoomPlus">
                        <use xlink:href="#rim" target="_top" fill="#404040">
                                <set attributeName="fill" to="#808080" begin="zoomplus.mouseover" end="zoomplus.mouseout"/>
                        </use>
                        <path d="M-4,0h8M0,-4v8" fill="none" stroke="white" stroke-width="1.5" pointer-events="none"/>
                </g>
                <g id="zoomMin">
                        <use xlink:href="#rim" target="_top" fill="#404040">
                                <set attributeName="fill" to="#808080" begin="zoomminus.mouseover" end="zoomminus.mouseout"/>
                        </use>
                        <path d="M-4,0h8" fill="none" stroke="white" stroke-width="1.5" pointer-events="none"/>
                </g>
                <g id="dirArrow">
                        <path fill="none" stroke="white" stroke-width="1.5" d="M0,-3.0v7 M-2.5,-0.5L0,-3.0L2.5,-0.5"/>
                </g>
               <g id="resetDef">
                       <use xlink:href="#rim2" target="_top" fill="#404040">
                               <set attributeName="fill" to="#808080" begin="reset.mouseover" end="reset.mouseout"/>
                       </use>
               </g>
        </defs>

<script type="text/javascript">
var viewWidth = 779;
var viewHeight = 308;
var sectionId = 'dynsection-0';
</script>
<script xlink:href="svgpan.js" target="_top"/>
<svg id="graph" class="graph">
<g id="viewport">
<title>src/Capacites/Capacite.cpp</title>
<polygon fill="white" stroke="none" points="-4,4 -4,-304 774.5,-304 774.5,4 -4,4"/>
<!-- Node0 -->
<g id="node1" class="node"><title>Node0</title>
<polygon fill="#bfbfbf" stroke="black" points="167,-280.5 167,-299.5 305,-299.5 305,-280.5 167,-280.5"/>
<text text-anchor="middle" x="236" y="-287.5" font-family="Helvetica,sans-Serif" font-size="10.00">src/Capacites/Capacite.cpp</text>
</g>
<!-- Node1 -->
<g id="node2" class="node"><title>Node1</title>
<polygon fill="white" stroke="#bfbfbf" points="199,-0.5 199,-19.5 243,-19.5 243,-0.5 199,-0.5"/>
<text text-anchor="middle" x="221" y="-7.5" font-family="Helvetica,sans-Serif" font-size="10.00">vector</text>
</g>
<!-- Node0&#45;&gt;Node1 -->
<g id="edge1" class="edge"><title>Node0&#45;&gt;Node1</title>
<path fill="none" stroke="midnightblue" d="M166.787,-285.351C97.15,-277.503 0,-253.248 0,-179 0,-179 0,-179 0,-121 0,-37.9153 126.733,-17.5853 188.258,-12.6111"/>
<polygon fill="midnightblue" stroke="midnightblue" points="188.869,-16.0764 198.593,-11.871 188.369,-9.09431 188.869,-16.0764"/>
</g>
<!-- Node2 -->
<g id="node3" class="node"><title>Node2</title>
<polygon fill="white" stroke="#bfbfbf" points="463.5,-56.5 463.5,-75.5 504.5,-75.5 504.5,-56.5 463.5,-56.5"/>
<text text-anchor="middle" x="484" y="-63.5" font-family="Helvetica,sans-Serif" font-size="10.00">string</text>
</g>
<!-- Node0&#45;&gt;Node2 -->
<g id="edge2" class="edge"><title>Node0&#45;&gt;Node2</title>
<path fill="none" stroke="midnightblue" d="M301.822,-280.442C349.523,-272.988 408.724,-260.74 427,-244 473.185,-201.697 482.105,-121.859 483.716,-85.6711"/>
<polygon fill="midnightblue" stroke="midnightblue" points="487.218,-85.6592 484.021,-75.5584 480.221,-85.4485 487.218,-85.6592"/>
</g>
<!-- Node3 -->
<g id="node4" class="node"><title>Node3</title>
<polygon fill="white" stroke="#bfbfbf" points="58,-56.5 58,-75.5 114,-75.5 114,-56.5 58,-56.5"/>
<text text-anchor="middle" x="86" y="-63.5" font-family="Helvetica,sans-Serif" font-size="10.00">algorithm</text>
</g>
<!-- Node0&#45;&gt;Node3 -->
<g id="edge3" class="edge"><title>Node0&#45;&gt;Node3</title>
<path fill="none" stroke="midnightblue" d="M224.547,-280.221C197.119,-258.489 127.606,-199.06 96,-132 89.2233,-117.622 86.8598,-99.6585 86.1137,-86.2619"/>
<polygon fill="midnightblue" stroke="midnightblue" points="89.6004,-85.7608 85.8041,-75.8695 82.6035,-85.9693 89.6004,-85.7608"/>
</g>
<!-- Node4 -->
<g id="node5" class="node"><title>Node4</title>
<g id="a_node5"><a xlink:href="_capacite_8h.html" target="_top" target="_top" xlink:title="Capacite.h">
<polygon fill="white" stroke="black" points="240,-168.5 240,-187.5 304,-187.5 304,-168.5 240,-168.5"/>
<text text-anchor="middle" x="272" y="-175.5" font-family="Helvetica,sans-Serif" font-size="10.00">Capacite.h</text>
</a>
</g>
</g>
<!-- Node0&#45;&gt;Node4 -->
<g id="edge4" class="edge"><title>Node0&#45;&gt;Node4</title>
<path fill="none" stroke="midnightblue" d="M238.825,-280.368C244.661,-262.537 258.158,-221.295 266.02,-197.272"/>
<polygon fill="midnightblue" stroke="midnightblue" points="269.404,-198.184 269.188,-187.591 262.751,-196.007 269.404,-198.184"/>
</g>
<!-- Node5 -->
<g id="node6" class="node"><title>Node5</title>
<g id="a_node6"><a xlink:href="_projectile_8h.html" target="_top" target="_top" xlink:title="../Projectiles/Projectile.h">
<polygon fill="white" stroke="black" points="180.5,-112.5 180.5,-131.5 303.5,-131.5 303.5,-112.5 180.5,-112.5"/>
<text text-anchor="middle" x="242" y="-119.5" font-family="Helvetica,sans-Serif" font-size="10.00">../Projectiles/Projectile.h</text>
</a>
</g>
</g>
<!-- Node0&#45;&gt;Node5 -->
<g id="edge31" class="edge"><title>Node0&#45;&gt;Node5</title>
<path fill="none" stroke="midnightblue" d="M234.707,-280.454C231.911,-260.621 225.946,-209.957 231,-168 232.071,-159.107 234.292,-149.434 236.46,-141.344"/>
<polygon fill="midnightblue" stroke="midnightblue" points="239.887,-142.091 239.27,-131.514 233.156,-140.167 239.887,-142.091"/>
</g>
<!-- Node11 -->
<g id="node12" class="node"><title>Node11</title>
<g id="a_node12"><a xlink:href="_vaisseau_8h.html" target="_top" target="_top" xlink:title="../Vaisseau/Vaisseau.h">
<polygon fill="white" stroke="black" points="300,-224.5 300,-243.5 418,-243.5 418,-224.5 300,-224.5"/>
<text text-anchor="middle" x="359" y="-231.5" font-family="Helvetica,sans-Serif" font-size="10.00">../Vaisseau/Vaisseau.h</text>
</a>
</g>
</g>
<!-- Node0&#45;&gt;Node11 -->
<g id="edge19" class="edge"><title>Node0&#45;&gt;Node11</title>
<path fill="none" stroke="midnightblue" d="M255.49,-280.444C275.642,-271.596 307.323,-257.687 330.331,-247.586"/>
<polygon fill="midnightblue" stroke="midnightblue" points="331.852,-250.741 339.601,-243.516 329.038,-244.332 331.852,-250.741"/>
</g>
<!-- Node4&#45;&gt;Node1 -->
<g id="edge5" class="edge"><title>Node4&#45;&gt;Node1</title>
<path fill="none" stroke="midnightblue" d="M239.563,-172.01C216.128,-166.525 186.052,-155.185 171,-132 148.635,-97.5514 182.753,-51.4497 204.76,-27.308"/>
<polygon fill="midnightblue" stroke="midnightblue" points="207.593,-29.4074 211.927,-19.7398 202.51,-24.5943 207.593,-29.4074"/>
</g>
<!-- Node4&#45;&gt;Node2 -->
<g id="edge6" class="edge"><title>Node4&#45;&gt;Node2</title>
<path fill="none" stroke="midnightblue" d="M288.635,-168.368C325.556,-149.211 414.55,-103.036 458.527,-80.2172"/>
<polygon fill="midnightblue" stroke="midnightblue" points="460.178,-83.3038 467.442,-75.5914 456.954,-77.0904 460.178,-83.3038"/>
</g>
<!-- Node4&#45;&gt;Node3 -->
<g id="edge7" class="edge"><title>Node4&#45;&gt;Node3</title>
<path fill="none" stroke="midnightblue" d="M239.886,-171.573C211.176,-165.537 168.976,-153.651 138,-132 120.122,-119.504 105.249,-99.1473 96.0523,-84.5434"/>
<polygon fill="midnightblue" stroke="midnightblue" points="99.0135,-82.6761 90.8541,-75.9177 93.018,-86.2892 99.0135,-82.6761"/>
</g>
<!-- Node4&#45;&gt;Node5 -->
<g id="edge8" class="edge"><title>Node4&#45;&gt;Node5</title>
<path fill="none" stroke="midnightblue" d="M267.046,-168.083C262.896,-160.613 256.847,-149.724 251.733,-140.52"/>
<polygon fill="midnightblue" stroke="midnightblue" points="254.778,-138.793 246.862,-131.751 248.659,-142.192 254.778,-138.793"/>
</g>
<!-- Node6 -->
<g id="node7" class="node"><title>Node6</title>
<g id="a_node7"><a xlink:href="_entite_8h.html" target="_top" target="_top" xlink:title="../Entite.h">
<polygon fill="white" stroke="black" points="386.5,-56.5 386.5,-75.5 445.5,-75.5 445.5,-56.5 386.5,-56.5"/>
<text text-anchor="middle" x="416" y="-63.5" font-family="Helvetica,sans-Serif" font-size="10.00">../Entite.h</text>
</a>
</g>
</g>
<!-- Node4&#45;&gt;Node6 -->
<g id="edge18" class="edge"><title>Node4&#45;&gt;Node6</title>
<path fill="none" stroke="midnightblue" d="M283.299,-168.368C307.8,-149.653 366.057,-105.151 396.583,-81.8324"/>
<polygon fill="midnightblue" stroke="midnightblue" points="398.931,-84.4432 404.753,-75.5914 394.682,-78.8805 398.931,-84.4432"/>
</g>
<!-- Node5&#45;&gt;Node1 -->
<g id="edge9" class="edge"><title>Node5&#45;&gt;Node1</title>
<path fill="none" stroke="midnightblue" d="M240.352,-112.368C236.963,-94.617 229.145,-53.6664 224.55,-29.5974"/>
<polygon fill="midnightblue" stroke="midnightblue" points="227.953,-28.7577 222.64,-19.5914 221.078,-30.0704 227.953,-28.7577"/>
</g>
<!-- Node5&#45;&gt;Node2 -->
<g id="edge10" class="edge"><title>Node5&#45;&gt;Node2</title>
<path fill="none" stroke="midnightblue" d="M287.742,-112.421C328.744,-104.477 390.715,-91.848 453.7,-75.9031"/>
<polygon fill="midnightblue" stroke="midnightblue" points="454.584,-79.2897 463.406,-73.4214 452.85,-72.5079 454.584,-79.2897"/>
</g>
<!-- Node5&#45;&gt;Node3 -->
<g id="edge11" class="edge"><title>Node5&#45;&gt;Node3</title>
<path fill="none" stroke="midnightblue" d="M217.281,-112.444C191.152,-103.399 149.741,-89.064 120.424,-78.9158"/>
<polygon fill="midnightblue" stroke="midnightblue" points="121.198,-75.4801 110.603,-75.5164 118.908,-82.0951 121.198,-75.4801"/>
</g>
<!-- Node5&#45;&gt;Node6 -->
<g id="edge12" class="edge"><title>Node5&#45;&gt;Node6</title>
<path fill="none" stroke="midnightblue" d="M269.571,-112.444C299.097,-103.28 346.118,-88.6876 378.883,-78.5192"/>
<polygon fill="midnightblue" stroke="midnightblue" points="380.045,-81.8232 388.558,-75.5164 377.97,-75.1378 380.045,-81.8232"/>
</g>
<!-- Node6&#45;&gt;Node1 -->
<g id="edge13" class="edge"><title>Node6&#45;&gt;Node1</title>
<path fill="none" stroke="midnightblue" d="M386.336,-57.0019C355.386,-48.6258 305.204,-34.9587 252.809,-20.1993"/>
<polygon fill="midnightblue" stroke="midnightblue" points="253.579,-16.7799 243.004,-17.4317 251.677,-23.5166 253.579,-16.7799"/>
</g>
<!-- Node7 -->
<g id="node8" class="node"><title>Node7</title>
<polygon fill="white" stroke="#bfbfbf" points="261,-0.5 261,-19.5 313,-19.5 313,-0.5 261,-0.5"/>
<text text-anchor="middle" x="287" y="-7.5" font-family="Helvetica,sans-Serif" font-size="10.00">memory</text>
</g>
<!-- Node6&#45;&gt;Node7 -->
<g id="edge14" class="edge"><title>Node6&#45;&gt;Node7</title>
<path fill="none" stroke="midnightblue" d="M395.56,-56.4435C374.33,-47.5566 340.901,-33.5632 316.745,-23.4514"/>
<polygon fill="midnightblue" stroke="midnightblue" points="317.921,-20.1493 307.345,-19.5164 315.218,-26.6064 317.921,-20.1493"/>
</g>
<!-- Node8 -->
<g id="node9" class="node"><title>Node8</title>
<polygon fill="white" stroke="#bfbfbf" points="331,-0.5 331,-19.5 429,-19.5 429,-0.5 331,-0.5"/>
<text text-anchor="middle" x="380" y="-7.5" font-family="Helvetica,sans-Serif" font-size="10.00">SFML/System.hpp</text>
</g>
<!-- Node6&#45;&gt;Node8 -->
<g id="edge15" class="edge"><title>Node6&#45;&gt;Node8</title>
<path fill="none" stroke="midnightblue" d="M410.055,-56.083C405.023,-48.5341 397.663,-37.4948 391.487,-28.2298"/>
<polygon fill="midnightblue" stroke="midnightblue" points="394.293,-26.1301 385.834,-19.7511 388.469,-30.0131 394.293,-26.1301"/>
</g>
<!-- Node9 -->
<g id="node10" class="node"><title>Node9</title>
<polygon fill="white" stroke="#bfbfbf" points="539,-0.5 539,-19.5 643,-19.5 643,-0.5 539,-0.5"/>
<text text-anchor="middle" x="591" y="-7.5" font-family="Helvetica,sans-Serif" font-size="10.00">SFML/Graphics.hpp</text>
</g>
<!-- Node6&#45;&gt;Node9 -->
<g id="edge16" class="edge"><title>Node6&#45;&gt;Node9</title>
<path fill="none" stroke="midnightblue" d="M443.729,-56.4435C473.426,-47.2801 520.716,-32.6876 553.669,-22.5192"/>
<polygon fill="midnightblue" stroke="midnightblue" points="554.877,-25.8094 563.4,-19.5164 552.813,-19.1206 554.877,-25.8094"/>
</g>
<!-- Node10 -->
<g id="node11" class="node"><title>Node10</title>
<g id="a_node11"><a xlink:href="constantes_8h.html" target="_top" target="_top" xlink:title="constantes.h">
<polygon fill="white" stroke="black" points="447.5,-0.5 447.5,-19.5 520.5,-19.5 520.5,-0.5 447.5,-0.5"/>
<text text-anchor="middle" x="484" y="-7.5" font-family="Helvetica,sans-Serif" font-size="10.00">constantes.h</text>
</a>
</g>
</g>
<!-- Node6&#45;&gt;Node10 -->
<g id="edge17" class="edge"><title>Node6&#45;&gt;Node10</title>
<path fill="none" stroke="midnightblue" d="M426.925,-56.324C437.175,-48.1849 452.721,-35.8395 465.001,-26.0874"/>
<polygon fill="midnightblue" stroke="midnightblue" points="467.221,-28.7937 472.876,-19.8339 462.868,-23.3119 467.221,-28.7937"/>
</g>
<!-- Node11&#45;&gt;Node1 -->
<g id="edge20" class="edge"><title>Node11&#45;&gt;Node1</title>
<path fill="none" stroke="midnightblue" d="M356.055,-224.102C351.845,-211.519 343.755,-187.846 336,-168 326.145,-142.779 326.592,-134.81 312,-112 290.536,-78.4495 257.828,-45.2443 238.027,-26.5075"/>
<polygon fill="midnightblue" stroke="midnightblue" points="240.342,-23.8809 230.64,-19.6238 235.569,-29.002 240.342,-23.8809"/>
</g>
<!-- Node11&#45;&gt;Node2 -->
<g id="edge21" class="edge"><title>Node11&#45;&gt;Node2</title>
<path fill="none" stroke="midnightblue" d="M368.024,-224.437C377.058,-215.668 391.14,-201.453 402,-188 430.299,-152.944 458.785,-108.315 473.588,-84.2521"/>
<polygon fill="midnightblue" stroke="midnightblue" points="476.673,-85.916 478.891,-75.556 470.697,-82.2714 476.673,-85.916"/>
</g>
<!-- Node11&#45;&gt;Node3 -->
<g id="edge22" class="edge"><title>Node11&#45;&gt;Node3</title>
<path fill="none" stroke="midnightblue" d="M306.747,-224.493C251.477,-212.87 165.2,-186.845 113,-132 100.769,-119.149 93.7266,-99.9676 89.9219,-85.7697"/>
<polygon fill="midnightblue" stroke="midnightblue" points="93.2396,-84.5909 87.5274,-75.6678 86.4283,-86.2055 93.2396,-84.5909"/>
</g>
<!-- Node11&#45;&gt;Node4 -->
<g id="edge23" class="edge"><title>Node11&#45;&gt;Node4</title>
<path fill="none" stroke="midnightblue" d="M345.022,-224.324C331.45,-215.9 310.62,-202.971 294.675,-193.074"/>
<polygon fill="midnightblue" stroke="midnightblue" points="296.286,-189.954 285.943,-187.655 292.594,-195.902 296.286,-189.954"/>
</g>
<!-- Node11&#45;&gt;Node5 -->
<g id="edge25" class="edge"><title>Node11&#45;&gt;Node5</title>
<path fill="none" stroke="midnightblue" d="M354.263,-224.191C346.794,-210.873 331.239,-185.332 313,-168 299.723,-155.383 282.399,-144.321 268.187,-136.322"/>
<polygon fill="midnightblue" stroke="midnightblue" points="269.828,-133.23 259.371,-131.522 266.481,-139.378 269.828,-133.23"/>
</g>
<!-- Node11&#45;&gt;Node6 -->
<g id="edge24" class="edge"><title>Node11&#45;&gt;Node6</title>
<path fill="none" stroke="midnightblue" d="M364.657,-224.358C370.228,-215.526 378.659,-201.264 384,-188 398.084,-153.025 407.777,-109.872 412.561,-85.696"/>
<polygon fill="midnightblue" stroke="midnightblue" points="416.023,-86.2246 414.463,-75.7453 409.148,-84.9106 416.023,-86.2246"/>
</g>
<!-- Node12 -->
<g id="node13" class="node"><title>Node12</title>
<g id="a_node13"><a xlink:href="_input_8h.html" target="_top" target="_top" xlink:title="../Interface/Input.h">
<polygon fill="white" stroke="black" points="542.5,-56.5 542.5,-75.5 639.5,-75.5 639.5,-56.5 542.5,-56.5"/>
<text text-anchor="middle" x="591" y="-63.5" font-family="Helvetica,sans-Serif" font-size="10.00">../Interface/Input.h</text>
</a>
</g>
</g>
<!-- Node11&#45;&gt;Node12 -->
<g id="edge26" class="edge"><title>Node11&#45;&gt;Node12</title>
<path fill="none" stroke="midnightblue" d="M371.298,-224.414C384.205,-215.39 405.072,-200.758 423,-188 476.575,-149.873 539.373,-104.447 570.852,-81.6239"/>
<polygon fill="midnightblue" stroke="midnightblue" points="573.18,-84.2593 579.22,-75.5548 569.07,-78.5929 573.18,-84.2593"/>
</g>
<!-- Node12&#45;&gt;Node9 -->
<g id="edge27" class="edge"><title>Node12&#45;&gt;Node9</title>
<path fill="none" stroke="midnightblue" d="M591,-56.083C591,-49.0059 591,-38.8611 591,-29.9865"/>
<polygon fill="midnightblue" stroke="midnightblue" points="594.5,-29.751 591,-19.7511 587.5,-29.7511 594.5,-29.751"/>
</g>
<!-- Node12&#45;&gt;Node10 -->
<g id="edge30" class="edge"><title>Node12&#45;&gt;Node10</title>
<path fill="none" stroke="midnightblue" d="M573.809,-56.324C556.649,-47.6641 530.054,-34.2424 510.253,-24.249"/>
<polygon fill="midnightblue" stroke="midnightblue" points="511.653,-21.0354 501.149,-19.6545 508.499,-27.2847 511.653,-21.0354"/>
</g>
<!-- Node13 -->
<g id="node14" class="node"><title>Node13</title>
<polygon fill="white" stroke="#bfbfbf" points="661,-0.5 661,-19.5 711,-19.5 711,-0.5 661,-0.5"/>
<text text-anchor="middle" x="686" y="-7.5" font-family="Helvetica,sans-Serif" font-size="10.00">optional</text>
</g>
<!-- Node12&#45;&gt;Node13 -->
<g id="edge28" class="edge"><title>Node12&#45;&gt;Node13</title>
<path fill="none" stroke="midnightblue" d="M606.263,-56.324C621.221,-47.8215 644.255,-34.7288 661.727,-24.7975"/>
<polygon fill="midnightblue" stroke="midnightblue" points="663.81,-27.639 670.774,-19.6545 660.351,-21.5534 663.81,-27.639"/>
</g>
<!-- Node14 -->
<g id="node15" class="node"><title>Node14</title>
<polygon fill="white" stroke="#bfbfbf" points="729.5,-0.5 729.5,-19.5 770.5,-19.5 770.5,-0.5 729.5,-0.5"/>
<text text-anchor="middle" x="750" y="-7.5" font-family="Helvetica,sans-Serif" font-size="10.00">bitset</text>
</g>
<!-- Node12&#45;&gt;Node14 -->
<g id="edge29" class="edge"><title>Node12&#45;&gt;Node14</title>
<path fill="none" stroke="midnightblue" d="M616.194,-56.4435C644.359,-46.8782 689.942,-31.3969 719.945,-21.2075"/>
<polygon fill="midnightblue" stroke="midnightblue" points="721.131,-24.501 729.474,-17.971 718.88,-17.8728 721.131,-24.501"/>
</g>
</g>
</svg>
        <g id="navigator" transform="translate(0 0)" fill="#404254">
                <rect fill="#f2f5e9" fill-opacity="0.5" stroke="#606060" stroke-width=".5" x="0" y="0" width="60" height="60"/>
                <use id="zoomplus" xlink:href="#zoomPlus" target="_top" x="17" y="9" onmousedown="handleZoom(evt,'in')"/>
                <use id="zoomminus" xlink:href="#zoomMin" target="_top" x="42" y="9" onmousedown="handleZoom(evt,'out')"/>
                <use id="reset" xlink:href="#resetDef" target="_top" x="30" y="36" onmousedown="handleReset()"/>
                <g id="arrowUp" xlink:href="#dirArrow" target="_top" transform="translate(30 24)" onmousedown="handlePan(0,-1)">
                  <use xlink:href="#rim" target="_top" fill="#404040">
                        <set attributeName="fill" to="#808080" begin="arrowUp.mouseover" end="arrowUp.mouseout"/>
                  </use>
                  <path fill="none" stroke="white" stroke-width="1.5" d="M0,-3.0v7 M-2.5,-0.5L0,-3.0L2.5,-0.5"/>
                </g>
                <g id="arrowRight" xlink:href="#dirArrow" target="_top" transform="rotate(90) translate(36 -43)" onmousedown="handlePan(1,0)">
                  <use xlink:href="#rim" target="_top" fill="#404040">
                        <set attributeName="fill" to="#808080" begin="arrowRight.mouseover" end="arrowRight.mouseout"/>
                  </use>
                  <path fill="none" stroke="white" stroke-width="1.5" d="M0,-3.0v7 M-2.5,-0.5L0,-3.0L2.5,-0.5"/>
                </g>
                <g id="arrowDown" xlink:href="#dirArrow" target="_top" transform="rotate(180) translate(-30 -48)" onmousedown="handlePan(0,1)">
                  <use xlink:href="#rim" target="_top" fill="#404040">
                        <set attributeName="fill" to="#808080" begin="arrowDown.mouseover" end="arrowDown.mouseout"/>
                  </use>
                  <path fill="none" stroke="white" stroke-width="1.5" d="M0,-3.0v7 M-2.5,-0.5L0,-3.0L2.5,-0.5"/>
                </g>
                <g id="arrowLeft" xlink:href="#dirArrow" target="_top" transform="rotate(270) translate(-36 17)" onmousedown="handlePan(-1,0)">
                  <use xlink:href="#rim" target="_top" fill="#404040">
                        <set attributeName="fill" to="#808080" begin="arrowLeft.mouseover" end="arrowLeft.mouseout"/>
                  </use>
                  <path fill="none" stroke="white" stroke-width="1.5" d="M0,-3.0v7 M-2.5,-0.5L0,-3.0L2.5,-0.5"/>
                </g>
        </g>
        <svg viewBox="0 0 15 15" width="100%" height="30px" preserveAspectRatio="xMaxYMin meet">
         <g id="arrow_out" transform="scale(0.3 0.3)">
          <a xlink:href="_capacite_8cpp__incl_org.svg" target="_top" target="_base">
           <rect id="button" ry="5" rx="5" y="6" x="6" height="38" width="38"
                fill="#f2f5e9" fill-opacity="0.5" stroke="#606060" stroke-width="1.0"/>
           <path id="arrow"
             d="M 11.500037,31.436501 C 11.940474,20.09759 22.043105,11.32322 32.158766,21.979434 L 37.068811,17.246167 C 37.068811,17.246167 37.088388,32 37.088388,32 L 22.160133,31.978069 C 22.160133,31.978069 26.997745,27.140456 26.997745,27.140456 C 18.528582,18.264221 13.291696,25.230495 11.500037,31.436501 z"
             style="fill:#404040;"/>
          </a>
         </g>
        </svg>
</svg>
