<?xml version="1.0" encoding="UTF-8" standalone="no"?>
<!DOCTYPE svg PUBLIC "-//W3C//DTD SVG 1.1//EN"
 "http://www.w3.org/Graphics/SVG/1.1/DTD/svg11.dtd">
<!-- Generated by graphviz version 2.38.0 (20140413.2041)
 -->
<!-- Title: src/Capacites/CapDash.h Pages: 1 -->
<svg width="460pt" height="308pt"
 viewBox="0.00 0.00 459.50 308.00" xmlns="http://www.w3.org/2000/svg" xmlns:xlink="http://www.w3.org/1999/xlink">
<g id="graph0" class="graph" transform="scale(1 1) rotate(0) translate(4 304)">
<title>src/Capacites/CapDash.h</title>
<polygon fill="white" stroke="none" points="-4,4 -4,-304 455.5,-304 455.5,4 -4,4"/>
<!-- Node12 -->
<g id="node1" class="node"><title>Node12</title>
<polygon fill="#bfbfbf" stroke="black" points="161,-280.5 161,-299.5 291,-299.5 291,-280.5 161,-280.5"/>
<text text-anchor="middle" x="226" y="-287.5" font-family="Helvetica,sans-Serif" font-size="10.00">src/Capacites/CapDash.h</text>
</g>
<!-- Node13 -->
<g id="node2" class="node"><title>Node13</title>
<g id="a_node2"><a xlink:href="___capacites_8h.html" target="_top" xlink:title="src/Capacites/_Capacites.h">
<polygon fill="white" stroke="black" points="0,-224.5 0,-243.5 138,-243.5 138,-224.5 0,-224.5"/>
<text text-anchor="middle" x="69" y="-231.5" font-family="Helvetica,sans-Serif" font-size="10.00">src/Capacites/_Capacites.h</text>
</a>
</g>
</g>
<!-- Node12&#45;&gt;Node13 -->
<g id="edge1" class="edge"><title>Node12&#45;&gt;Node13</title>
<path fill="none" stroke="midnightblue" d="M191.611,-277.172C162.048,-267.004 120.127,-252.585 93.7607,-243.516"/>
<polygon fill="midnightblue" stroke="midnightblue" points="190.528,-280.501 201.123,-280.444 192.805,-273.881 190.528,-280.501"/>
</g>
<!-- Node20 -->
<g id="node9" class="node"><title>Node20</title>
<g id="a_node9"><a xlink:href="_cap_dash_8cpp.html" target="_top" xlink:title="src/Capacites/CapDash.cpp">
<polygon fill="white" stroke="black" points="156,-224.5 156,-243.5 296,-243.5 296,-224.5 156,-224.5"/>
<text text-anchor="middle" x="226" y="-231.5" font-family="Helvetica,sans-Serif" font-size="10.00">src/Capacites/CapDash.cpp</text>
</a>
</g>
</g>
<!-- Node12&#45;&gt;Node20 -->
<g id="edge10" class="edge"><title>Node12&#45;&gt;Node20</title>
<path fill="none" stroke="midnightblue" d="M226,-269.805C226,-260.91 226,-250.78 226,-243.751"/>
<polygon fill="midnightblue" stroke="midnightblue" points="222.5,-270.083 226,-280.083 229.5,-270.083 222.5,-270.083"/>
</g>
<!-- Node21 -->
<g id="node10" class="node"><title>Node21</title>
<g id="a_node10"><a xlink:href="_cap_test_8cpp.html" target="_top" xlink:title="src/Capacites/CapTest.cpp">
<polygon fill="white" stroke="black" points="314.5,-224.5 314.5,-243.5 451.5,-243.5 451.5,-224.5 314.5,-224.5"/>
<text text-anchor="middle" x="383" y="-231.5" font-family="Helvetica,sans-Serif" font-size="10.00">src/Capacites/CapTest.cpp</text>
</a>
</g>
</g>
<!-- Node12&#45;&gt;Node21 -->
<g id="edge11" class="edge"><title>Node12&#45;&gt;Node21</title>
<path fill="none" stroke="midnightblue" d="M260.389,-277.172C289.952,-267.004 331.873,-252.585 358.239,-243.516"/>
<polygon fill="midnightblue" stroke="midnightblue" points="259.195,-273.881 250.877,-280.444 261.472,-280.501 259.195,-273.881"/>
</g>
<!-- Node14 -->
<g id="node3" class="node"><title>Node14</title>
<g id="a_node3"><a xlink:href="_partie_8cpp.html" target="_top" xlink:title="src/Partie.cpp">
<polygon fill="white" stroke="black" points="1.5,-0.5 1.5,-19.5 78.5,-19.5 78.5,-0.5 1.5,-0.5"/>
<text text-anchor="middle" x="40" y="-7.5" font-family="Helvetica,sans-Serif" font-size="10.00">src/Partie.cpp</text>
</a>
</g>
</g>
<!-- Node13&#45;&gt;Node14 -->
<g id="edge2" class="edge"><title>Node13&#45;&gt;Node14</title>
<path fill="none" stroke="midnightblue" d="M54.0247,-216.473C47.7757,-208.479 41.2286,-198.378 38,-188 18.7377,-126.084 32.5868,-45.9902 38.0508,-19.7453"/>
<polygon fill="midnightblue" stroke="midnightblue" points="51.4162,-218.81 60.5173,-224.234 56.7851,-214.318 51.4162,-218.81"/>
</g>
<!-- Node15 -->
<g id="node4" class="node"><title>Node15</title>
<g id="a_node4"><a xlink:href="_vaisseau_test_8h.html" target="_top" xlink:title="src/Vaisseau/VaisseauTest.h">
<polygon fill="white" stroke="black" points="47.5,-168.5 47.5,-187.5 192.5,-187.5 192.5,-168.5 47.5,-168.5"/>
<text text-anchor="middle" x="120" y="-175.5" font-family="Helvetica,sans-Serif" font-size="10.00">src/Vaisseau/VaisseauTest.h</text>
</a>
</g>
</g>
<!-- Node13&#45;&gt;Node15 -->
<g id="edge3" class="edge"><title>Node13&#45;&gt;Node15</title>
<path fill="none" stroke="midnightblue" d="M84.3779,-216.718C93.3669,-207.2 104.359,-195.561 111.735,-187.751"/>
<polygon fill="midnightblue" stroke="midnightblue" points="81.7433,-214.41 77.4216,-224.083 86.8324,-219.216 81.7433,-214.41"/>
</g>
<!-- Node16 -->
<g id="node5" class="node"><title>Node16</title>
<g id="a_node5"><a xlink:href="__vaisseaux_8h.html" target="_top" xlink:title="src/Vaisseau/_vaisseaux.h">
<polygon fill="white" stroke="black" points="49,-112.5 49,-131.5 183,-131.5 183,-112.5 49,-112.5"/>
<text text-anchor="middle" x="116" y="-119.5" font-family="Helvetica,sans-Serif" font-size="10.00">src/Vaisseau/_vaisseaux.h</text>
</a>
</g>
</g>
<!-- Node15&#45;&gt;Node16 -->
<g id="edge4" class="edge"><title>Node15&#45;&gt;Node16</title>
<path fill="none" stroke="midnightblue" d="M118.6,-158.101C117.936,-149.136 117.175,-138.858 116.648,-131.751"/>
<polygon fill="midnightblue" stroke="midnightblue" points="115.11,-158.369 119.339,-168.083 122.091,-157.852 115.11,-158.369"/>
</g>
<!-- Node19 -->
<g id="node8" class="node"><title>Node19</title>
<g id="a_node8"><a xlink:href="_vaisseau_test_8cpp.html" target="_top" xlink:title="src/Vaisseau/VaisseauTest.cpp">
<polygon fill="white" stroke="black" points="201.5,-112.5 201.5,-131.5 356.5,-131.5 356.5,-112.5 201.5,-112.5"/>
<text text-anchor="middle" x="279" y="-119.5" font-family="Helvetica,sans-Serif" font-size="10.00">src/Vaisseau/VaisseauTest.cpp</text>
</a>
</g>
</g>
<!-- Node15&#45;&gt;Node19 -->
<g id="edge9" class="edge"><title>Node15&#45;&gt;Node19</title>
<path fill="none" stroke="midnightblue" d="M154.827,-165.172C184.766,-155.004 227.221,-140.585 253.924,-131.516"/>
<polygon fill="midnightblue" stroke="midnightblue" points="153.537,-161.914 145.194,-168.444 155.788,-168.542 153.537,-161.914"/>
</g>
<!-- Node16&#45;&gt;Node14 -->
<g id="edge5" class="edge"><title>Node16&#45;&gt;Node14</title>
<path fill="none" stroke="midnightblue" d="M99.9732,-104.748C92.2609,-96.5006 83.1588,-86.1083 76,-76 62.5801,-57.051 50.2341,-32.614 44.0864,-19.7746"/>
<polygon fill="midnightblue" stroke="midnightblue" points="97.6551,-107.388 107.099,-112.191 102.711,-102.547 97.6551,-107.388"/>
</g>
<!-- Node17 -->
<g id="node6" class="node"><title>Node17</title>
<g id="a_node6"><a xlink:href="vague_8h.html" target="_top" xlink:title="src/vague.h">
<polygon fill="white" stroke="black" points="85,-56.5 85,-75.5 153,-75.5 153,-56.5 85,-56.5"/>
<text text-anchor="middle" x="119" y="-63.5" font-family="Helvetica,sans-Serif" font-size="10.00">src/vague.h</text>
</a>
</g>
</g>
<!-- Node16&#45;&gt;Node17 -->
<g id="edge6" class="edge"><title>Node16&#45;&gt;Node17</title>
<path fill="none" stroke="midnightblue" d="M117.066,-101.805C117.561,-92.9102 118.123,-82.7798 118.514,-75.7511"/>
<polygon fill="midnightblue" stroke="midnightblue" points="113.556,-101.904 116.495,-112.083 120.545,-102.293 113.556,-101.904"/>
</g>
<!-- Node17&#45;&gt;Node14 -->
<g id="edge7" class="edge"><title>Node17&#45;&gt;Node14</title>
<path fill="none" stroke="midnightblue" d="M97.9657,-50.6221C83.5339,-40.7574 64.8585,-27.9919 52.6612,-19.6545"/>
<polygon fill="midnightblue" stroke="midnightblue" points="96.0765,-53.5703 106.307,-56.324 100.027,-47.7914 96.0765,-53.5703"/>
</g>
<!-- Node18 -->
<g id="node7" class="node"><title>Node18</title>
<g id="a_node7"><a xlink:href="vague_8cpp.html" target="_top" xlink:title="src/vague.cpp">
<polygon fill="white" stroke="black" points="97,-0.5 97,-19.5 175,-19.5 175,-0.5 97,-0.5"/>
<text text-anchor="middle" x="136" y="-7.5" font-family="Helvetica,sans-Serif" font-size="10.00">src/vague.cpp</text>
</a>
</g>
</g>
<!-- Node17&#45;&gt;Node18 -->
<g id="edge8" class="edge"><title>Node17&#45;&gt;Node18</title>
<path fill="none" stroke="midnightblue" d="M124.857,-46.3956C127.701,-37.362 130.983,-26.936 133.245,-19.7511"/>
<polygon fill="midnightblue" stroke="midnightblue" points="121.472,-45.4935 121.807,-56.083 128.149,-47.5955 121.472,-45.4935"/>
</g>
</g>
</svg>
