<?xml version="1.0" encoding="UTF-8" standalone="no"?>
<!DOCTYPE svg PUBLIC "-//W3C//DTD SVG 1.1//EN"
 "http://www.w3.org/Graphics/SVG/1.1/DTD/svg11.dtd">
<!-- Generated by graphviz version 2.38.0 (20140413.2041)
 -->
<!-- Title: src/Capacites/CapPiou.h Pages: 1 -->
<!--zoomable 252 -->
<svg id="main" version="1.1" xmlns="http://www.w3.org/2000/svg" xmlns:xlink="http://www.w3.org/1999/xlink" xml:space="preserve" onload="init(evt)">
<style type="text/css"><![CDATA[
.edge:hover path { stroke: red; }
.edge:hover polygon { stroke: red; fill: red; }
]]></style>
<script type="text/javascript"><![CDATA[
var edges = document.getElementsByTagName('g');
if (edges && edges.length) {
  for (var i=0;i<edges.length;i++) {
    if (edges[i].id.substr(0,4)=='edge') {
      edges[i].setAttribute('class','edge');
    }
  }
}
]]></script>
        <defs>
                <circle id="rim" cx="0" cy="0" r="7"/>
                <circle id="rim2" cx="0" cy="0" r="3.5"/>
                <g id="zoomPlus">
                        <use xlink:href="#rim" fill="#404040">
                                <set attributeName="fill" to="#808080" begin="zoomplus.mouseover" end="zoomplus.mouseout"/>
                        </use>
                        <path d="M-4,0h8M0,-4v8" fill="none" stroke="white" stroke-width="1.5" pointer-events="none"/>
                </g>
                <g id="zoomMin">
                        <use xlink:href="#rim" fill="#404040">
                                <set attributeName="fill" to="#808080" begin="zoomminus.mouseover" end="zoomminus.mouseout"/>
                        </use>
                        <path d="M-4,0h8" fill="none" stroke="white" stroke-width="1.5" pointer-events="none"/>
                </g>
                <g id="dirArrow">
                        <path fill="none" stroke="white" stroke-width="1.5" d="M0,-3.0v7 M-2.5,-0.5L0,-3.0L2.5,-0.5"/>
                </g>
               <g id="resetDef">
                       <use xlink:href="#rim2" fill="#404040">
                               <set attributeName="fill" to="#808080" begin="reset.mouseover" end="reset.mouseout"/>
                       </use>
               </g>
        </defs>

<script type="text/javascript">
var viewWidth = 501;
var viewHeight = 252;
var sectionId = 'dynsection-0';
</script>
<script xlink:href="svgpan.js"/>
<svg id="graph" class="graph">
<g id="viewport">
<title>src/Capacites/CapPiou.h</title>
<polygon fill="white" stroke="none" points="-4,4 -4,-248 497.306,-248 497.306,4 -4,4"/>
<!-- Node0 -->
<g id="node1" class="node"><title>Node0</title>
<polygon fill="#bfbfbf" stroke="black" points="62.8056,-224.5 62.8056,-243.5 188.806,-243.5 188.806,-224.5 62.8056,-224.5"/>
<text text-anchor="middle" x="125.806" y="-231.5" font-family="Helvetica,sans-Serif" font-size="10.00">src/Capacites/CapPiou.h</text>
</g>
<!-- Node1 -->
<g id="node2" class="node"><title>Node1</title>
<g id="a_node2"><a xlink:href="_capacite_8h.html" target="_top" xlink:title="Capacite.h">
<polygon fill="white" stroke="black" points="33.8056,-168.5 33.8056,-187.5 97.8056,-187.5 97.8056,-168.5 33.8056,-168.5"/>
<text text-anchor="middle" x="65.8056" y="-175.5" font-family="Helvetica,sans-Serif" font-size="10.00">Capacite.h</text>
</a>
</g>
</g>
<!-- Node0&#45;&gt;Node1 -->
<g id="edge1" class="edge"><title>Node0&#45;&gt;Node1</title>
<path fill="none" stroke="midnightblue" d="M116.166,-224.324C107.296,-216.341 93.9309,-204.313 83.1977,-194.653"/>
<polygon fill="midnightblue" stroke="midnightblue" points="85.3954,-191.922 75.621,-187.834 80.7126,-197.125 85.3954,-191.922"/>
</g>
<!-- Node5 -->
<g id="node6" class="node"><title>Node5</title>
<g id="a_node6"><a xlink:href="_projectile_8h.html" target="_top" xlink:title="../Projectiles/Projectile.h">
<polygon fill="white" stroke="black" points="94.3056,-112.5 94.3056,-131.5 217.306,-131.5 217.306,-112.5 94.3056,-112.5"/>
<text text-anchor="middle" x="155.806" y="-119.5" font-family="Helvetica,sans-Serif" font-size="10.00">../Projectiles/Projectile.h</text>
</a>
</g>
</g>
<!-- Node0&#45;&gt;Node5 -->
<g id="edge16" class="edge"><title>Node0&#45;&gt;Node5</title>
<path fill="none" stroke="midnightblue" d="M128.16,-224.368C133.023,-206.537 144.271,-165.295 150.822,-141.272"/>
<polygon fill="midnightblue" stroke="midnightblue" points="154.208,-142.16 153.462,-131.591 147.455,-140.318 154.208,-142.16"/>
</g>
<!-- Node11 -->
<g id="node12" class="node"><title>Node11</title>
<g id="a_node12"><a xlink:href="_proj_piou_8h.html" target="_top" xlink:title="../Projectiles/ProjPiou.h">
<polygon fill="white" stroke="black" points="154.306,-168.5 154.306,-187.5 273.306,-187.5 273.306,-168.5 154.306,-168.5"/>
<text text-anchor="middle" x="213.806" y="-175.5" font-family="Helvetica,sans-Serif" font-size="10.00">../Projectiles/ProjPiou.h</text>
</a>
</g>
</g>
<!-- Node0&#45;&gt;Node11 -->
<g id="edge17" class="edge"><title>Node0&#45;&gt;Node11</title>
<path fill="none" stroke="midnightblue" d="M139.944,-224.324C153.672,-215.9 174.742,-202.971 190.87,-193.074"/>
<polygon fill="midnightblue" stroke="midnightblue" points="193.009,-195.868 199.702,-187.655 189.348,-189.902 193.009,-195.868"/>
</g>
<!-- Node2 -->
<g id="node3" class="node"><title>Node2</title>
<polygon fill="white" stroke="#bfbfbf" points="49.8056,-0.5 49.8056,-19.5 93.8056,-19.5 93.8056,-0.5 49.8056,-0.5"/>
<text text-anchor="middle" x="71.8056" y="-7.5" font-family="Helvetica,sans-Serif" font-size="10.00">vector</text>
</g>
<!-- Node1&#45;&gt;Node2 -->
<g id="edge2" class="edge"><title>Node1&#45;&gt;Node2</title>
<path fill="none" stroke="midnightblue" d="M55.6377,-168.415C33.3312,-148.497 -16.2164,-97.6686 5.80559,-56 13.282,-41.8536 27.425,-31.3181 40.7071,-24.0121"/>
<polygon fill="midnightblue" stroke="midnightblue" points="42.3367,-27.1101 49.6722,-19.4654 39.1705,-20.867 42.3367,-27.1101"/>
</g>
<!-- Node3 -->
<g id="node4" class="node"><title>Node3</title>
<polygon fill="white" stroke="#bfbfbf" points="15.3056,-56.5 15.3056,-75.5 56.3056,-75.5 56.3056,-56.5 15.3056,-56.5"/>
<text text-anchor="middle" x="35.8056" y="-63.5" font-family="Helvetica,sans-Serif" font-size="10.00">string</text>
</g>
<!-- Node1&#45;&gt;Node3 -->
<g id="edge3" class="edge"><title>Node1&#45;&gt;Node3</title>
<path fill="none" stroke="midnightblue" d="M62.9667,-168.419C60.0222,-159.398 55.36,-144.769 51.8056,-132 47.5151,-116.586 43.2119,-98.9525 40.1506,-85.9442"/>
<polygon fill="midnightblue" stroke="midnightblue" points="43.4837,-84.824 37.8116,-75.8754 36.6652,-86.408 43.4837,-84.824"/>
</g>
<!-- Node4 -->
<g id="node5" class="node"><title>Node4</title>
<polygon fill="white" stroke="#bfbfbf" points="74.8056,-56.5 74.8056,-75.5 130.806,-75.5 130.806,-56.5 74.8056,-56.5"/>
<text text-anchor="middle" x="102.806" y="-63.5" font-family="Helvetica,sans-Serif" font-size="10.00">algorithm</text>
</g>
<!-- Node1&#45;&gt;Node4 -->
<g id="edge4" class="edge"><title>Node1&#45;&gt;Node4</title>
<path fill="none" stroke="midnightblue" d="M68.1202,-168.084C71.458,-155.479 77.9758,-131.782 84.8056,-112 87.9335,-102.94 91.8415,-93.0338 95.2162,-84.8277"/>
<polygon fill="midnightblue" stroke="midnightblue" points="98.4735,-86.1102 99.1066,-75.5343 92.0165,-83.4071 98.4735,-86.1102"/>
</g>
<!-- Node1&#45;&gt;Node5 -->
<g id="edge5" class="edge"><title>Node1&#45;&gt;Node5</title>
<path fill="none" stroke="midnightblue" d="M80.2656,-168.324C94.3052,-159.9 115.854,-146.971 132.349,-137.074"/>
<polygon fill="midnightblue" stroke="midnightblue" points="134.607,-139.801 141.381,-131.655 131.006,-133.798 134.607,-139.801"/>
</g>
<!-- Node6 -->
<g id="node7" class="node"><title>Node6</title>
<g id="a_node7"><a xlink:href="_entite_8h.html" target="_top" xlink:title="../Entite.h">
<polygon fill="white" stroke="black" points="201.306,-56.5 201.306,-75.5 260.306,-75.5 260.306,-56.5 201.306,-56.5"/>
<text text-anchor="middle" x="230.806" y="-63.5" font-family="Helvetica,sans-Serif" font-size="10.00">../Entite.h</text>
</a>
</g>
</g>
<!-- Node1&#45;&gt;Node6 -->
<g id="edge15" class="edge"><title>Node1&#45;&gt;Node6</title>
<path fill="none" stroke="midnightblue" d="M97.8419,-172.374C139.723,-165.622 209.661,-151.693 225.806,-132 236.224,-119.292 236.433,-100.091 234.662,-85.8501"/>
<polygon fill="midnightblue" stroke="midnightblue" points="238.069,-85.0006 232.975,-75.7109 231.164,-86.1498 238.069,-85.0006"/>
</g>
<!-- Node5&#45;&gt;Node2 -->
<g id="edge6" class="edge"><title>Node5&#45;&gt;Node2</title>
<path fill="none" stroke="midnightblue" d="M155.621,-112.181C154.935,-98.8493 151.988,-73.2907 139.806,-56 130.2,-42.366 115.034,-31.7504 101.459,-24.2625"/>
<polygon fill="midnightblue" stroke="midnightblue" points="102.894,-21.0643 92.4039,-19.5796 99.6787,-27.2821 102.894,-21.0643"/>
</g>
<!-- Node5&#45;&gt;Node3 -->
<g id="edge7" class="edge"><title>Node5&#45;&gt;Node3</title>
<path fill="none" stroke="midnightblue" d="M136.791,-112.444C117.218,-103.636 86.498,-89.8116 64.0766,-79.722"/>
<polygon fill="midnightblue" stroke="midnightblue" points="65.2865,-76.4284 54.731,-75.5164 62.4139,-82.8119 65.2865,-76.4284"/>
</g>
<!-- Node5&#45;&gt;Node4 -->
<g id="edge8" class="edge"><title>Node5&#45;&gt;Node4</title>
<path fill="none" stroke="midnightblue" d="M147.054,-112.083C139.336,-104.22 127.901,-92.5688 118.589,-83.0813"/>
<polygon fill="midnightblue" stroke="midnightblue" points="120.897,-80.4363 111.395,-75.7511 115.901,-85.3396 120.897,-80.4363"/>
</g>
<!-- Node5&#45;&gt;Node6 -->
<g id="edge9" class="edge"><title>Node5&#45;&gt;Node6</title>
<path fill="none" stroke="midnightblue" d="M167.856,-112.324C179.269,-104.107 196.637,-91.6017 210.241,-81.8069"/>
<polygon fill="midnightblue" stroke="midnightblue" points="212.466,-84.5174 218.536,-75.8339 208.376,-78.8366 212.466,-84.5174"/>
</g>
<!-- Node6&#45;&gt;Node2 -->
<g id="edge10" class="edge"><title>Node6&#45;&gt;Node2</title>
<path fill="none" stroke="midnightblue" d="M205.612,-56.4435C177.919,-47.0385 133.386,-31.9142 103.382,-21.7242"/>
<polygon fill="midnightblue" stroke="midnightblue" points="104.404,-18.3748 93.8095,-18.473 102.153,-25.003 104.404,-18.3748"/>
</g>
<!-- Node7 -->
<g id="node8" class="node"><title>Node7</title>
<polygon fill="white" stroke="#bfbfbf" points="111.806,-0.5 111.806,-19.5 163.806,-19.5 163.806,-0.5 111.806,-0.5"/>
<text text-anchor="middle" x="137.806" y="-7.5" font-family="Helvetica,sans-Serif" font-size="10.00">memory</text>
</g>
<!-- Node6&#45;&gt;Node7 -->
<g id="edge11" class="edge"><title>Node6&#45;&gt;Node7</title>
<path fill="none" stroke="midnightblue" d="M215.864,-56.324C201.22,-47.8215 178.672,-34.7288 161.568,-24.7975"/>
<polygon fill="midnightblue" stroke="midnightblue" points="163.116,-21.6491 152.711,-19.6545 159.601,-27.7027 163.116,-21.6491"/>
</g>
<!-- Node8 -->
<g id="node9" class="node"><title>Node8</title>
<polygon fill="white" stroke="#bfbfbf" points="181.806,-0.5 181.806,-19.5 279.806,-19.5 279.806,-0.5 181.806,-0.5"/>
<text text-anchor="middle" x="230.806" y="-7.5" font-family="Helvetica,sans-Serif" font-size="10.00">SFML/System.hpp</text>
</g>
<!-- Node6&#45;&gt;Node8 -->
<g id="edge12" class="edge"><title>Node6&#45;&gt;Node8</title>
<path fill="none" stroke="midnightblue" d="M230.806,-56.083C230.806,-49.0059 230.806,-38.8611 230.806,-29.9865"/>
<polygon fill="midnightblue" stroke="midnightblue" points="234.306,-29.751 230.806,-19.7511 227.306,-29.7511 234.306,-29.751"/>
</g>
<!-- Node9 -->
<g id="node10" class="node"><title>Node9</title>
<polygon fill="white" stroke="#bfbfbf" points="297.806,-0.5 297.806,-19.5 401.806,-19.5 401.806,-0.5 297.806,-0.5"/>
<text text-anchor="middle" x="349.806" y="-7.5" font-family="Helvetica,sans-Serif" font-size="10.00">SFML/Graphics.hpp</text>
</g>
<!-- Node6&#45;&gt;Node9 -->
<g id="edge13" class="edge"><title>Node6&#45;&gt;Node9</title>
<path fill="none" stroke="midnightblue" d="M249.661,-56.4435C269.072,-47.6356 299.536,-33.8116 321.77,-23.722"/>
<polygon fill="midnightblue" stroke="midnightblue" points="323.378,-26.836 331.038,-19.5164 320.485,-20.4615 323.378,-26.836"/>
</g>
<!-- Node10 -->
<g id="node11" class="node"><title>Node10</title>
<g id="a_node11"><a xlink:href="constantes_8h.html" target="_top" xlink:title="constantes.h">
<polygon fill="white" stroke="black" points="420.306,-0.5 420.306,-19.5 493.306,-19.5 493.306,-0.5 420.306,-0.5"/>
<text text-anchor="middle" x="456.806" y="-7.5" font-family="Helvetica,sans-Serif" font-size="10.00">constantes.h</text>
</a>
</g>
</g>
<!-- Node6&#45;&gt;Node10 -->
<g id="edge14" class="edge"><title>Node6&#45;&gt;Node10</title>
<path fill="none" stroke="midnightblue" d="M260.351,-57.9404C298.727,-48.7709 366.119,-32.6686 411.111,-21.9181"/>
<polygon fill="midnightblue" stroke="midnightblue" points="412,-25.3042 420.913,-19.576 410.374,-18.4959 412,-25.3042"/>
</g>
<!-- Node11&#45;&gt;Node5 -->
<g id="edge18" class="edge"><title>Node11&#45;&gt;Node5</title>
<path fill="none" stroke="midnightblue" d="M204.487,-168.324C195.913,-160.341 182.993,-148.313 172.618,-138.653"/>
<polygon fill="midnightblue" stroke="midnightblue" points="174.998,-136.086 165.294,-131.834 170.228,-141.21 174.998,-136.086"/>
</g>
</g>
</svg>
        <g id="navigator" transform="translate(0 0)" fill="#404254">
                <rect fill="#f2f5e9" fill-opacity="0.5" stroke="#606060" stroke-width=".5" x="0" y="0" width="60" height="60"/>
                <use id="zoomplus" xlink:href="#zoomPlus" x="17" y="9" onmousedown="handleZoom(evt,'in')"/>
                <use id="zoomminus" xlink:href="#zoomMin" x="42" y="9" onmousedown="handleZoom(evt,'out')"/>
                <use id="reset" xlink:href="#resetDef" x="30" y="36" onmousedown="handleReset()"/>
                <g id="arrowUp" xlink:href="#dirArrow" transform="translate(30 24)" onmousedown="handlePan(0,-1)">
                  <use xlink:href="#rim" fill="#404040">
                        <set attributeName="fill" to="#808080" begin="arrowUp.mouseover" end="arrowUp.mouseout"/>
                  </use>
                  <path fill="none" stroke="white" stroke-width="1.5" d="M0,-3.0v7 M-2.5,-0.5L0,-3.0L2.5,-0.5"/>
                </g>
                <g id="arrowRight" xlink:href="#dirArrow" transform="rotate(90) translate(36 -43)" onmousedown="handlePan(1,0)">
                  <use xlink:href="#rim" fill="#404040">
                        <set attributeName="fill" to="#808080" begin="arrowRight.mouseover" end="arrowRight.mouseout"/>
                  </use>
                  <path fill="none" stroke="white" stroke-width="1.5" d="M0,-3.0v7 M-2.5,-0.5L0,-3.0L2.5,-0.5"/>
                </g>
                <g id="arrowDown" xlink:href="#dirArrow" transform="rotate(180) translate(-30 -48)" onmousedown="handlePan(0,1)">
                  <use xlink:href="#rim" fill="#404040">
                        <set attributeName="fill" to="#808080" begin="arrowDown.mouseover" end="arrowDown.mouseout"/>
                  </use>
                  <path fill="none" stroke="white" stroke-width="1.5" d="M0,-3.0v7 M-2.5,-0.5L0,-3.0L2.5,-0.5"/>
                </g>
                <g id="arrowLeft" xlink:href="#dirArrow" transform="rotate(270) translate(-36 17)" onmousedown="handlePan(-1,0)">
                  <use xlink:href="#rim" fill="#404040">
                        <set attributeName="fill" to="#808080" begin="arrowLeft.mouseover" end="arrowLeft.mouseout"/>
                  </use>
                  <path fill="none" stroke="white" stroke-width="1.5" d="M0,-3.0v7 M-2.5,-0.5L0,-3.0L2.5,-0.5"/>
                </g>
        </g>
        <svg viewBox="0 0 15 15" width="100%" height="30px" preserveAspectRatio="xMaxYMin meet">
         <g id="arrow_out" transform="scale(0.3 0.3)">
          <a xlink:href="_cap_piou_8h__incl_org.svg" target="_base">
           <rect id="button" ry="5" rx="5" y="6" x="6" height="38" width="38"
                fill="#f2f5e9" fill-opacity="0.5" stroke="#606060" stroke-width="1.0"/>
           <path id="arrow"
             d="M 11.500037,31.436501 C 11.940474,20.09759 22.043105,11.32322 32.158766,21.979434 L 37.068811,17.246167 C 37.068811,17.246167 37.088388,32 37.088388,32 L 22.160133,31.978069 C 22.160133,31.978069 26.997745,27.140456 26.997745,27.140456 C 18.528582,18.264221 13.291696,25.230495 11.500037,31.436501 z"
             style="fill:#404040;"/>
          </a>
         </g>
        </svg>
</svg>
