<?xml version="1.0" encoding="UTF-8" standalone="no"?>
<!DOCTYPE svg PUBLIC "-//W3C//DTD SVG 1.1//EN"
 "http://www.w3.org/Graphics/SVG/1.1/DTD/svg11.dtd">
<!-- Generated by graphviz version 2.38.0 (20140413.2041)
 -->
<!-- Title: src/Capacites/CapPiou.h Pages: 1 -->
<svg width="454pt" height="252pt"
 viewBox="0.00 0.00 454.44 252.00" xmlns="http://www.w3.org/2000/svg" xmlns:xlink="http://www.w3.org/1999/xlink">
<g id="graph0" class="graph" transform="scale(1 1) rotate(0) translate(4 248)">
<title>src/Capacites/CapPiou.h</title>
<polygon fill="white" stroke="none" points="-4,4 -4,-248 450.441,-248 450.441,4 -4,4"/>
<!-- Node0 -->
<g id="node1" class="node"><title>Node0</title>
<polygon fill="#bfbfbf" stroke="black" points="64.4407,-224.5 64.4407,-243.5 190.441,-243.5 190.441,-224.5 64.4407,-224.5"/>
<text text-anchor="middle" x="127.441" y="-231.5" font-family="Helvetica,sans-Serif" font-size="10.00">src/Capacites/CapPiou.h</text>
</g>
<!-- Node1 -->
<g id="node2" class="node"><title>Node1</title>
<g id="a_node2"><a xlink:href="_capacite_8h.html" target="_top" xlink:title="Capacite.h">
<polygon fill="white" stroke="black" points="35.4407,-168.5 35.4407,-187.5 99.4407,-187.5 99.4407,-168.5 35.4407,-168.5"/>
<text text-anchor="middle" x="67.4407" y="-175.5" font-family="Helvetica,sans-Serif" font-size="10.00">Capacite.h</text>
</a>
</g>
</g>
<!-- Node0&#45;&gt;Node1 -->
<g id="edge1" class="edge"><title>Node0&#45;&gt;Node1</title>
<path fill="none" stroke="midnightblue" d="M117.801,-224.324C108.931,-216.341 95.5659,-204.313 84.8327,-194.653"/>
<polygon fill="midnightblue" stroke="midnightblue" points="87.0304,-191.922 77.2561,-187.834 82.3477,-197.125 87.0304,-191.922"/>
</g>
<!-- Node5 -->
<g id="node6" class="node"><title>Node5</title>
<g id="a_node6"><a xlink:href="_projectile_8h.html" target="_top" xlink:title="../Projectiles/Projectile.h">
<polygon fill="white" stroke="black" points="95.9407,-112.5 95.9407,-131.5 218.941,-131.5 218.941,-112.5 95.9407,-112.5"/>
<text text-anchor="middle" x="157.441" y="-119.5" font-family="Helvetica,sans-Serif" font-size="10.00">../Projectiles/Projectile.h</text>
</a>
</g>
</g>
<!-- Node0&#45;&gt;Node5 -->
<g id="edge15" class="edge"><title>Node0&#45;&gt;Node5</title>
<path fill="none" stroke="midnightblue" d="M129.795,-224.368C134.658,-206.537 145.906,-165.295 152.457,-141.272"/>
<polygon fill="midnightblue" stroke="midnightblue" points="155.843,-142.16 155.098,-131.591 149.09,-140.318 155.843,-142.16"/>
</g>
<!-- Node10 -->
<g id="node11" class="node"><title>Node10</title>
<g id="a_node11"><a xlink:href="_proj_piou_8h.html" target="_top" xlink:title="../Projectiles/ProjPiou.h">
<polygon fill="white" stroke="black" points="155.941,-168.5 155.941,-187.5 274.941,-187.5 274.941,-168.5 155.941,-168.5"/>
<text text-anchor="middle" x="215.441" y="-175.5" font-family="Helvetica,sans-Serif" font-size="10.00">../Projectiles/ProjPiou.h</text>
</a>
</g>
</g>
<!-- Node0&#45;&gt;Node10 -->
<g id="edge16" class="edge"><title>Node0&#45;&gt;Node10</title>
<path fill="none" stroke="midnightblue" d="M141.579,-224.324C155.307,-215.9 176.377,-202.971 192.505,-193.074"/>
<polygon fill="midnightblue" stroke="midnightblue" points="194.644,-195.868 201.337,-187.655 190.983,-189.902 194.644,-195.868"/>
</g>
<!-- Node2 -->
<g id="node3" class="node"><title>Node2</title>
<polygon fill="white" stroke="#bfbfbf" points="94.4407,-0.5 94.4407,-19.5 138.441,-19.5 138.441,-0.5 94.4407,-0.5"/>
<text text-anchor="middle" x="116.441" y="-7.5" font-family="Helvetica,sans-Serif" font-size="10.00">vector</text>
</g>
<!-- Node1&#45;&gt;Node2 -->
<g id="edge2" class="edge"><title>Node1&#45;&gt;Node2</title>
<path fill="none" stroke="midnightblue" d="M57.0423,-168.375C33.6868,-147.945 -18.8967,-95.3668 7.44065,-56 24.45,-30.5758 58.7348,-19.5002 84.3353,-14.6847"/>
<polygon fill="midnightblue" stroke="midnightblue" points="85.0585,-18.1127 94.3543,-13.0296 83.9176,-11.2063 85.0585,-18.1127"/>
</g>
<!-- Node3 -->
<g id="node4" class="node"><title>Node3</title>
<polygon fill="white" stroke="#bfbfbf" points="16.9407,-56.5 16.9407,-75.5 57.9407,-75.5 57.9407,-56.5 16.9407,-56.5"/>
<text text-anchor="middle" x="37.4407" y="-63.5" font-family="Helvetica,sans-Serif" font-size="10.00">string</text>
</g>
<!-- Node1&#45;&gt;Node3 -->
<g id="edge3" class="edge"><title>Node1&#45;&gt;Node3</title>
<path fill="none" stroke="midnightblue" d="M64.6018,-168.419C61.6572,-159.398 56.9951,-144.769 53.4407,-132 49.1501,-116.586 44.847,-98.9525 41.7857,-85.9442"/>
<polygon fill="midnightblue" stroke="midnightblue" points="45.1187,-84.824 39.4466,-75.8754 38.3003,-86.408 45.1187,-84.824"/>
</g>
<!-- Node4 -->
<g id="node5" class="node"><title>Node4</title>
<polygon fill="white" stroke="#bfbfbf" points="76.4407,-56.5 76.4407,-75.5 132.441,-75.5 132.441,-56.5 76.4407,-56.5"/>
<text text-anchor="middle" x="104.441" y="-63.5" font-family="Helvetica,sans-Serif" font-size="10.00">algorithm</text>
</g>
<!-- Node1&#45;&gt;Node4 -->
<g id="edge4" class="edge"><title>Node1&#45;&gt;Node4</title>
<path fill="none" stroke="midnightblue" d="M69.7553,-168.084C73.093,-155.479 79.6109,-131.782 86.4407,-112 89.5686,-102.94 93.4766,-93.0338 96.8512,-84.8277"/>
<polygon fill="midnightblue" stroke="midnightblue" points="100.109,-86.1102 100.742,-75.5343 93.6515,-83.4071 100.109,-86.1102"/>
</g>
<!-- Node1&#45;&gt;Node5 -->
<g id="edge5" class="edge"><title>Node1&#45;&gt;Node5</title>
<path fill="none" stroke="midnightblue" d="M81.9007,-168.324C95.9403,-159.9 117.489,-146.971 133.984,-137.074"/>
<polygon fill="midnightblue" stroke="midnightblue" points="136.242,-139.801 143.016,-131.655 132.641,-133.798 136.242,-139.801"/>
</g>
<!-- Node6 -->
<g id="node7" class="node"><title>Node6</title>
<g id="a_node7"><a xlink:href="_entite_8h.html" target="_top" xlink:title="../Entite.h">
<polygon fill="white" stroke="black" points="202.941,-56.5 202.941,-75.5 261.941,-75.5 261.941,-56.5 202.941,-56.5"/>
<text text-anchor="middle" x="232.441" y="-63.5" font-family="Helvetica,sans-Serif" font-size="10.00">../Entite.h</text>
</a>
</g>
</g>
<!-- Node1&#45;&gt;Node6 -->
<g id="edge14" class="edge"><title>Node1&#45;&gt;Node6</title>
<path fill="none" stroke="midnightblue" d="M99.477,-172.374C141.358,-165.622 211.296,-151.693 227.441,-132 237.859,-119.292 238.068,-100.091 236.297,-85.8501"/>
<polygon fill="midnightblue" stroke="midnightblue" points="239.704,-85.0006 234.61,-75.7109 232.799,-86.1498 239.704,-85.0006"/>
</g>
<!-- Node5&#45;&gt;Node2 -->
<g id="edge6" class="edge"><title>Node5&#45;&gt;Node2</title>
<path fill="none" stroke="midnightblue" d="M156.069,-112.363C153.891,-99.6959 149.088,-75.4711 141.441,-56 137.684,-46.4336 132.257,-36.3811 127.419,-28.2097"/>
<polygon fill="midnightblue" stroke="midnightblue" points="130.362,-26.3127 122.146,-19.6232 124.397,-29.9761 130.362,-26.3127"/>
</g>
<!-- Node5&#45;&gt;Node3 -->
<g id="edge7" class="edge"><title>Node5&#45;&gt;Node3</title>
<path fill="none" stroke="midnightblue" d="M138.426,-112.444C118.853,-103.636 88.133,-89.8116 65.7117,-79.722"/>
<polygon fill="midnightblue" stroke="midnightblue" points="66.9216,-76.4284 56.3661,-75.5164 64.049,-82.8119 66.9216,-76.4284"/>
</g>
<!-- Node5&#45;&gt;Node4 -->
<g id="edge8" class="edge"><title>Node5&#45;&gt;Node4</title>
<path fill="none" stroke="midnightblue" d="M148.689,-112.083C140.971,-104.22 129.536,-92.5688 120.224,-83.0813"/>
<polygon fill="midnightblue" stroke="midnightblue" points="122.532,-80.4363 113.03,-75.7511 117.536,-85.3396 122.532,-80.4363"/>
</g>
<!-- Node5&#45;&gt;Node6 -->
<g id="edge9" class="edge"><title>Node5&#45;&gt;Node6</title>
<path fill="none" stroke="midnightblue" d="M169.491,-112.324C180.904,-104.107 198.272,-91.6017 211.876,-81.8069"/>
<polygon fill="midnightblue" stroke="midnightblue" points="214.101,-84.5174 220.171,-75.8339 210.011,-78.8366 214.101,-84.5174"/>
</g>
<!-- Node6&#45;&gt;Node2 -->
<g id="edge10" class="edge"><title>Node6&#45;&gt;Node2</title>
<path fill="none" stroke="midnightblue" d="M214.06,-56.4435C195.224,-47.6751 165.709,-33.9355 144.061,-23.8579"/>
<polygon fill="midnightblue" stroke="midnightblue" points="145.278,-20.5637 134.735,-19.5164 142.324,-26.9098 145.278,-20.5637"/>
</g>
<!-- Node7 -->
<g id="node8" class="node"><title>Node7</title>
<polygon fill="white" stroke="#bfbfbf" points="156.441,-0.5 156.441,-19.5 208.441,-19.5 208.441,-0.5 156.441,-0.5"/>
<text text-anchor="middle" x="182.441" y="-7.5" font-family="Helvetica,sans-Serif" font-size="10.00">memory</text>
</g>
<!-- Node6&#45;&gt;Node7 -->
<g id="edge11" class="edge"><title>Node6&#45;&gt;Node7</title>
<path fill="none" stroke="midnightblue" d="M224.184,-56.083C216.976,-48.2982 206.331,-36.8015 197.595,-27.3665"/>
<polygon fill="midnightblue" stroke="midnightblue" points="199.906,-24.7108 190.544,-19.7511 194.769,-29.4666 199.906,-24.7108"/>
</g>
<!-- Node8 -->
<g id="node9" class="node"><title>Node8</title>
<polygon fill="white" stroke="#bfbfbf" points="226.441,-0.5 226.441,-19.5 324.441,-19.5 324.441,-0.5 226.441,-0.5"/>
<text text-anchor="middle" x="275.441" y="-7.5" font-family="Helvetica,sans-Serif" font-size="10.00">SFML/System.hpp</text>
</g>
<!-- Node6&#45;&gt;Node8 -->
<g id="edge12" class="edge"><title>Node6&#45;&gt;Node8</title>
<path fill="none" stroke="midnightblue" d="M239.541,-56.083C245.678,-48.3768 254.71,-37.0333 262.18,-27.6531"/>
<polygon fill="midnightblue" stroke="midnightblue" points="264.981,-29.7542 268.472,-19.7511 259.505,-25.3936 264.981,-29.7542"/>
</g>
<!-- Node9 -->
<g id="node10" class="node"><title>Node9</title>
<polygon fill="white" stroke="#bfbfbf" points="342.441,-0.5 342.441,-19.5 446.441,-19.5 446.441,-0.5 342.441,-0.5"/>
<text text-anchor="middle" x="394.441" y="-7.5" font-family="Helvetica,sans-Serif" font-size="10.00">SFML/Graphics.hpp</text>
</g>
<!-- Node6&#45;&gt;Node9 -->
<g id="edge13" class="edge"><title>Node6&#45;&gt;Node9</title>
<path fill="none" stroke="midnightblue" d="M258.11,-56.4435C285.363,-47.3591 328.624,-32.9388 359.091,-22.7831"/>
<polygon fill="midnightblue" stroke="midnightblue" points="360.511,-25.9992 368.891,-19.5164 358.298,-19.3584 360.511,-25.9992"/>
</g>
<!-- Node10&#45;&gt;Node5 -->
<g id="edge17" class="edge"><title>Node10&#45;&gt;Node5</title>
<path fill="none" stroke="midnightblue" d="M206.122,-168.324C197.548,-160.341 184.628,-148.313 174.253,-138.653"/>
<polygon fill="midnightblue" stroke="midnightblue" points="176.633,-136.086 166.929,-131.834 171.863,-141.21 176.633,-136.086"/>
</g>
</g>
</svg>
