<?xml version="1.0" encoding="UTF-8" standalone="no"?>
<!DOCTYPE svg PUBLIC "-//W3C//DTD SVG 1.1//EN"
 "http://www.w3.org/Graphics/SVG/1.1/DTD/svg11.dtd">
<!-- Generated by graphviz version 2.38.0 (20140413.2041)
 -->
<!-- Title: src/Capacites/Capacite.h Pages: 1 -->
<!--zoomable 375 -->
<svg id="main" version="1.1" xmlns="http://www.w3.org/2000/svg" xmlns:xlink="http://www.w3.org/1999/xlink" xml:space="preserve" onload="init(evt)">
<style type="text/css"><![CDATA[
.edge:hover path { stroke: red; }
.edge:hover polygon { stroke: red; fill: red; }
]]></style>
<script type="text/javascript"><![CDATA[
var edges = document.getElementsByTagName('g');
if (edges && edges.length) {
  for (var i=0;i<edges.length;i++) {
    if (edges[i].id.substr(0,4)=='edge') {
      edges[i].setAttribute('class','edge');
    }
  }
}
]]></script>
        <defs>
                <circle id="rim" cx="0" cy="0" r="7"/>
                <circle id="rim2" cx="0" cy="0" r="3.5"/>
                <g id="zoomPlus">
                        <use xlink:href="#rim" target="_top" fill="#404040">
                                <set attributeName="fill" to="#808080" begin="zoomplus.mouseover" end="zoomplus.mouseout"/>
                        </use>
                        <path d="M-4,0h8M0,-4v8" fill="none" stroke="white" stroke-width="1.5" pointer-events="none"/>
                </g>
                <g id="zoomMin">
                        <use xlink:href="#rim" target="_top" fill="#404040">
                                <set attributeName="fill" to="#808080" begin="zoomminus.mouseover" end="zoomminus.mouseout"/>
                        </use>
                        <path d="M-4,0h8" fill="none" stroke="white" stroke-width="1.5" pointer-events="none"/>
                </g>
                <g id="dirArrow">
                        <path fill="none" stroke="white" stroke-width="1.5" d="M0,-3.0v7 M-2.5,-0.5L0,-3.0L2.5,-0.5"/>
                </g>
               <g id="resetDef">
                       <use xlink:href="#rim2" target="_top" fill="#404040">
                               <set attributeName="fill" to="#808080" begin="reset.mouseover" end="reset.mouseout"/>
                       </use>
               </g>
        </defs>

<script type="text/javascript">
var viewWidth = 2051;
var viewHeight = 375;
var sectionId = 'dynsection-1';
</script>
<script xlink:href="svgpan.js" target="_top"/>
<svg id="graph" class="graph">
<g id="viewport">
<title>src/Capacites/Capacite.h</title>
<polygon fill="white" stroke="none" points="-4,4 -4,-371 2047,-371 2047,4 -4,4"/>
<!-- Node10 -->
<g id="node1" class="node"><title>Node10</title>
<polygon fill="#bfbfbf" stroke="black" points="830,-347.5 830,-366.5 958,-366.5 958,-347.5 830,-347.5"/>
<text text-anchor="middle" x="894" y="-354.5" font-family="Helvetica,sans-Serif" font-size="10.00">src/Capacites/Capacite.h</text>
</g>
<!-- Node11 -->
<g id="node2" class="node"><title>Node11</title>
<g id="a_node2"><a xlink:href="_cap_test_8h.html" target="_top" target="_top" xlink:title="src/Capacites/CapTest.h">
<polygon fill="white" stroke="black" points="320,-291.5 320,-310.5 446,-310.5 446,-291.5 320,-291.5"/>
<text text-anchor="middle" x="383" y="-298.5" font-family="Helvetica,sans-Serif" font-size="10.00">src/Capacites/CapTest.h</text>
</a>
</g>
</g>
<!-- Node10&#45;&gt;Node11 -->
<g id="edge1" class="edge"><title>Node10&#45;&gt;Node11</title>
<path fill="none" stroke="midnightblue" d="M819.885,-348.229C734.719,-339.29 590.761,-324.151 467,-311 460.291,-310.287 453.281,-309.54 446.295,-308.793"/>
<polygon fill="midnightblue" stroke="midnightblue" points="819.664,-351.725 829.975,-349.288 820.394,-344.763 819.664,-351.725"/>
</g>
<!-- Node14 -->
<g id="node5" class="node"><title>Node14</title>
<g id="a_node5"><a xlink:href="_vaisseau_test_8h.html" target="_top" target="_top" xlink:title="src/Vaisseau/VaisseauTest.h">
<polygon fill="white" stroke="black" points="573.5,-174 573.5,-193 718.5,-193 718.5,-174 573.5,-174"/>
<text text-anchor="middle" x="646" y="-181" font-family="Helvetica,sans-Serif" font-size="10.00">src/Vaisseau/VaisseauTest.h</text>
</a>
</g>
</g>
<!-- Node10&#45;&gt;Node14 -->
<g id="edge46" class="edge"><title>Node10&#45;&gt;Node14</title>
<path fill="none" stroke="midnightblue" d="M836.288,-345.247C804.519,-338.043 764.969,-326.921 732,-311 693.895,-292.599 676.556,-291.414 655,-255 643.309,-235.251 643.855,-206.983 645.028,-193.001"/>
<polygon fill="midnightblue" stroke="midnightblue" points="835.793,-348.721 846.311,-347.449 837.295,-341.885 835.793,-348.721"/>
</g>
<!-- Node20 -->
<g id="node11" class="node"><title>Node20</title>
<g id="a_node11"><a xlink:href="_cap_piou_8h.html" target="_top" target="_top" xlink:title="src/Capacites/CapPiou.h">
<polygon fill="white" stroke="black" points="476,-291.5 476,-310.5 602,-310.5 602,-291.5 476,-291.5"/>
<text text-anchor="middle" x="539" y="-298.5" font-family="Helvetica,sans-Serif" font-size="10.00">src/Capacites/CapPiou.h</text>
</a>
</g>
</g>
<!-- Node10&#45;&gt;Node20 -->
<g id="edge12" class="edge"><title>Node10&#45;&gt;Node20</title>
<path fill="none" stroke="midnightblue" d="M827.711,-345.917C760.645,-335.715 658.105,-320.117 594.988,-310.516"/>
<polygon fill="midnightblue" stroke="midnightblue" points="827.337,-349.4 837.749,-347.444 828.389,-342.479 827.337,-349.4"/>
</g>
<!-- Node22 -->
<g id="node13" class="node"><title>Node22</title>
<g id="a_node13"><a xlink:href="_cap_dash_8h.html" target="_top" target="_top" xlink:title="src/Capacites/CapDash.h">
<polygon fill="white" stroke="black" points="167,-291.5 167,-310.5 297,-310.5 297,-291.5 167,-291.5"/>
<text text-anchor="middle" x="232" y="-298.5" font-family="Helvetica,sans-Serif" font-size="10.00">src/Capacites/CapDash.h</text>
</a>
</g>
</g>
<!-- Node10&#45;&gt;Node22 -->
<g id="edge15" class="edge"><title>Node10&#45;&gt;Node22</title>
<path fill="none" stroke="midnightblue" d="M819.586,-351.127C708.687,-343.667 493.519,-328.435 311,-311 306.465,-310.567 301.787,-310.096 297.077,-309.604"/>
<polygon fill="midnightblue" stroke="midnightblue" points="819.452,-354.626 829.664,-351.803 819.92,-347.641 819.452,-354.626"/>
</g>
<!-- Node24 -->
<g id="node15" class="node"><title>Node24</title>
<g id="a_node15"><a xlink:href="_cap_missile_8h.html" target="_top" target="_top" xlink:title="src/Capacites/CapMissile.h">
<polygon fill="white" stroke="black" points="741.5,-291.5 741.5,-310.5 878.5,-310.5 878.5,-291.5 741.5,-291.5"/>
<text text-anchor="middle" x="810" y="-298.5" font-family="Helvetica,sans-Serif" font-size="10.00">src/Capacites/CapMissile.h</text>
</a>
</g>
</g>
<!-- Node10&#45;&gt;Node24 -->
<g id="edge19" class="edge"><title>Node10&#45;&gt;Node24</title>
<path fill="none" stroke="midnightblue" d="M872.068,-341.901C856.665,-331.999 836.554,-319.071 823.463,-310.655"/>
<polygon fill="midnightblue" stroke="midnightblue" points="870.199,-344.86 880.504,-347.324 873.985,-338.972 870.199,-344.86"/>
</g>
<!-- Node28 -->
<g id="node19" class="node"><title>Node28</title>
<g id="a_node19"><a xlink:href="_capacite_8cpp.html" target="_top" target="_top" xlink:title="src/Capacites/Capacite.cpp">
<polygon fill="white" stroke="black" points="1053,-235.5 1053,-254.5 1191,-254.5 1191,-235.5 1053,-235.5"/>
<text text-anchor="middle" x="1122" y="-242.5" font-family="Helvetica,sans-Serif" font-size="10.00">src/Capacites/Capacite.cpp</text>
</a>
</g>
</g>
<!-- Node10&#45;&gt;Node28 -->
<g id="edge25" class="edge"><title>Node10&#45;&gt;Node28</title>
<path fill="none" stroke="midnightblue" d="M920.902,-343.021C968.055,-320.272 1064.4,-273.791 1104.19,-254.591"/>
<polygon fill="midnightblue" stroke="midnightblue" points="919.377,-339.871 911.891,-347.368 922.418,-346.175 919.377,-339.871"/>
</g>
<!-- Node29 -->
<g id="node20" class="node"><title>Node29</title>
<g id="a_node20"><a xlink:href="_vaisseau_8h.html" target="_top" target="_top" xlink:title="src/Vaisseau/Vaisseau.h">
<polygon fill="white" stroke="black" points="1314.5,-291.5 1314.5,-310.5 1439.5,-310.5 1439.5,-291.5 1314.5,-291.5"/>
<text text-anchor="middle" x="1377" y="-298.5" font-family="Helvetica,sans-Serif" font-size="10.00">src/Vaisseau/Vaisseau.h</text>
</a>
</g>
</g>
<!-- Node10&#45;&gt;Node29 -->
<g id="edge26" class="edge"><title>Node10&#45;&gt;Node29</title>
<path fill="none" stroke="midnightblue" d="M968.219,-347.702C1062.95,-337.111 1225.2,-318.972 1314.13,-309.029"/>
<polygon fill="midnightblue" stroke="midnightblue" points="967.688,-344.24 958.139,-348.829 968.466,-351.196 967.688,-344.24"/>
</g>
<!-- Node30 -->
<g id="node21" class="node"><title>Node30</title>
<g id="a_node21"><a xlink:href="_partie_8h.html" target="_top" target="_top" xlink:title="src/Partie.h">
<polygon fill="white" stroke="black" points="1209.5,-235.5 1209.5,-254.5 1276.5,-254.5 1276.5,-235.5 1209.5,-235.5"/>
<text text-anchor="middle" x="1243" y="-242.5" font-family="Helvetica,sans-Serif" font-size="10.00">src/Partie.h</text>
</a>
</g>
</g>
<!-- Node10&#45;&gt;Node30 -->
<g id="edge45" class="edge"><title>Node10&#45;&gt;Node30</title>
<path fill="none" stroke="midnightblue" d="M930.873,-344.378C1001.3,-322.179 1153.49,-274.212 1215.68,-254.61"/>
<polygon fill="midnightblue" stroke="midnightblue" points="929.58,-341.116 921.095,-347.46 931.685,-347.792 929.58,-341.116"/>
</g>
<!-- Node38 -->
<g id="node29" class="node"><title>Node38</title>
<g id="a_node29"><a xlink:href="_projectile_8cpp.html" target="_top" target="_top" xlink:title="src/Projectiles/Projectile.cpp">
<polygon fill="white" stroke="black" points="1747.5,-235.5 1747.5,-254.5 1888.5,-254.5 1888.5,-235.5 1747.5,-235.5"/>
<text text-anchor="middle" x="1818" y="-242.5" font-family="Helvetica,sans-Serif" font-size="10.00">src/Projectiles/Projectile.cpp</text>
</a>
</g>
</g>
<!-- Node10&#45;&gt;Node38 -->
<g id="edge47" class="edge"><title>Node10&#45;&gt;Node38</title>
<path fill="none" stroke="midnightblue" d="M968.184,-352.169C1074.68,-346.171 1276.93,-332.927 1448,-311 1568.16,-295.599 1708.74,-268.326 1776.85,-254.518"/>
<polygon fill="midnightblue" stroke="midnightblue" points="967.97,-348.675 958.181,-352.727 968.36,-355.664 967.97,-348.675"/>
</g>
<!-- Node39 -->
<g id="node30" class="node"><title>Node39</title>
<g id="a_node30"><a xlink:href="_vaisseau_8cpp.html" target="_top" target="_top" xlink:title="src/Vaisseau/Vaisseau.cpp">
<polygon fill="white" stroke="black" points="1907,-235.5 1907,-254.5 2043,-254.5 2043,-235.5 1907,-235.5"/>
<text text-anchor="middle" x="1975" y="-242.5" font-family="Helvetica,sans-Serif" font-size="10.00">src/Vaisseau/Vaisseau.cpp</text>
</a>
</g>
</g>
<!-- Node10&#45;&gt;Node39 -->
<g id="edge48" class="edge"><title>Node10&#45;&gt;Node39</title>
<path fill="none" stroke="midnightblue" d="M968.199,-352.525C1086.89,-346.567 1326.68,-332.882 1529,-311 1673.31,-295.392 1842.66,-268.275 1924.99,-254.523"/>
<polygon fill="midnightblue" stroke="midnightblue" points="967.947,-349.034 958.134,-353.027 968.296,-356.025 967.947,-349.034"/>
</g>
<!-- Node12 -->
<g id="node3" class="node"><title>Node12</title>
<g id="a_node3"><a xlink:href="___capacites_8h.html" target="_top" target="_top" xlink:title="src/Capacites/_Capacites.h">
<polygon fill="white" stroke="black" points="314,-235.5 314,-254.5 452,-254.5 452,-235.5 314,-235.5"/>
<text text-anchor="middle" x="383" y="-242.5" font-family="Helvetica,sans-Serif" font-size="10.00">src/Capacites/_Capacites.h</text>
</a>
</g>
</g>
<!-- Node11&#45;&gt;Node12 -->
<g id="edge2" class="edge"><title>Node11&#45;&gt;Node12</title>
<path fill="none" stroke="midnightblue" d="M383,-280.805C383,-271.91 383,-261.78 383,-254.751"/>
<polygon fill="midnightblue" stroke="midnightblue" points="379.5,-281.083 383,-291.083 386.5,-281.083 379.5,-281.083"/>
</g>
<!-- Node19 -->
<g id="node10" class="node"><title>Node19</title>
<g id="a_node10"><a xlink:href="_cap_test_8cpp.html" target="_top" target="_top" xlink:title="src/Capacites/CapTest.cpp">
<polygon fill="white" stroke="black" points="158.5,-235.5 158.5,-254.5 295.5,-254.5 295.5,-235.5 158.5,-235.5"/>
<text text-anchor="middle" x="227" y="-242.5" font-family="Helvetica,sans-Serif" font-size="10.00">src/Capacites/CapTest.cpp</text>
</a>
</g>
</g>
<!-- Node11&#45;&gt;Node19 -->
<g id="edge11" class="edge"><title>Node11&#45;&gt;Node19</title>
<path fill="none" stroke="midnightblue" d="M348.83,-288.172C319.456,-278.004 277.802,-263.585 251.603,-254.516"/>
<polygon fill="midnightblue" stroke="midnightblue" points="347.687,-291.48 358.281,-291.444 349.976,-284.865 347.687,-291.48"/>
</g>
<!-- Node13 -->
<g id="node4" class="node"><title>Node13</title>
<g id="a_node4"><a xlink:href="_partie_8cpp.html" target="_top" target="_top" xlink:title="src/Partie.cpp">
<polygon fill="white" stroke="black" points="954.5,-0.5 954.5,-19.5 1031.5,-19.5 1031.5,-0.5 954.5,-0.5"/>
<text text-anchor="middle" x="993" y="-7.5" font-family="Helvetica,sans-Serif" font-size="10.00">src/Partie.cpp</text>
</a>
</g>
</g>
<!-- Node12&#45;&gt;Node13 -->
<g id="edge3" class="edge"><title>Node12&#45;&gt;Node13</title>
<path fill="none" stroke="midnightblue" d="M398.889,-228.37C428.049,-200.592 493.179,-142.672 559,-112 695.911,-48.2001 876.439,-22.9679 954.409,-14.5852"/>
<polygon fill="midnightblue" stroke="midnightblue" points="396.413,-225.895 391.647,-235.357 401.274,-230.932 396.413,-225.895"/>
</g>
<!-- Node12&#45;&gt;Node14 -->
<g id="edge4" class="edge"><title>Node12&#45;&gt;Node14</title>
<path fill="none" stroke="midnightblue" d="M430.48,-233.258C481.499,-221.716 561.55,-203.606 608.388,-193.009"/>
<polygon fill="midnightblue" stroke="midnightblue" points="429.663,-229.855 420.681,-235.475 431.207,-236.682 429.663,-229.855"/>
</g>
<!-- Node15 -->
<g id="node6" class="node"><title>Node15</title>
<g id="a_node6"><a xlink:href="__vaisseaux_8h.html" target="_top" target="_top" xlink:title="src/Vaisseau/_vaisseaux.h">
<polygon fill="white" stroke="black" points="1022,-112.5 1022,-131.5 1156,-131.5 1156,-112.5 1022,-112.5"/>
<text text-anchor="middle" x="1089" y="-119.5" font-family="Helvetica,sans-Serif" font-size="10.00">src/Vaisseau/_vaisseaux.h</text>
</a>
</g>
</g>
<!-- Node14&#45;&gt;Node15 -->
<g id="edge5" class="edge"><title>Node14&#45;&gt;Node15</title>
<path fill="none" stroke="midnightblue" d="M708.629,-172.381C718.452,-170.866 728.496,-169.358 738,-168 836.678,-153.901 951.267,-139.598 1021.96,-131.012"/>
<polygon fill="midnightblue" stroke="midnightblue" points="707.847,-168.961 698.504,-173.957 708.924,-175.878 707.847,-168.961"/>
</g>
<!-- Node18 -->
<g id="node9" class="node"><title>Node18</title>
<g id="a_node9"><a xlink:href="_vaisseau_test_8cpp.html" target="_top" target="_top" xlink:title="src/Vaisseau/VaisseauTest.cpp">
<polygon fill="white" stroke="black" points="568.5,-112.5 568.5,-131.5 723.5,-131.5 723.5,-112.5 568.5,-112.5"/>
<text text-anchor="middle" x="646" y="-119.5" font-family="Helvetica,sans-Serif" font-size="10.00">src/Vaisseau/VaisseauTest.cpp</text>
</a>
</g>
</g>
<!-- Node14&#45;&gt;Node18 -->
<g id="edge10" class="edge"><title>Node14&#45;&gt;Node18</title>
<path fill="none" stroke="midnightblue" d="M646,-163.817C646,-152.996 646,-139.898 646,-131.509"/>
<polygon fill="midnightblue" stroke="midnightblue" points="642.5,-163.975 646,-173.975 649.5,-163.975 642.5,-163.975"/>
</g>
<!-- Node15&#45;&gt;Node13 -->
<g id="edge6" class="edge"><title>Node15&#45;&gt;Node13</title>
<path fill="none" stroke="midnightblue" d="M1074.2,-105.043C1066.34,-96.497 1056.56,-85.7496 1048,-76 1030.64,-56.2281 1010.83,-32.5266 1000.37,-19.9191"/>
<polygon fill="midnightblue" stroke="midnightblue" points="1071.69,-107.484 1081.05,-112.458 1076.83,-102.736 1071.69,-107.484"/>
</g>
<!-- Node16 -->
<g id="node7" class="node"><title>Node16</title>
<g id="a_node7"><a xlink:href="vague_8h.html" target="_top" target="_top" xlink:title="src/vague.h">
<polygon fill="white" stroke="black" points="1057,-56.5 1057,-75.5 1125,-75.5 1125,-56.5 1057,-56.5"/>
<text text-anchor="middle" x="1091" y="-63.5" font-family="Helvetica,sans-Serif" font-size="10.00">src/vague.h</text>
</a>
</g>
</g>
<!-- Node15&#45;&gt;Node16 -->
<g id="edge7" class="edge"><title>Node15&#45;&gt;Node16</title>
<path fill="none" stroke="midnightblue" d="M1089.71,-101.805C1090.04,-92.9102 1090.42,-82.7798 1090.68,-75.7511"/>
<polygon fill="midnightblue" stroke="midnightblue" points="1086.2,-101.96 1089.33,-112.083 1093.2,-102.219 1086.2,-101.96"/>
</g>
<!-- Node16&#45;&gt;Node13 -->
<g id="edge8" class="edge"><title>Node16&#45;&gt;Node13</title>
<path fill="none" stroke="midnightblue" d="M1066.41,-51.4526C1048.32,-41.4835 1024.27,-28.2279 1008.71,-19.6545"/>
<polygon fill="midnightblue" stroke="midnightblue" points="1064.81,-54.5633 1075.25,-56.324 1068.19,-48.4324 1064.81,-54.5633"/>
</g>
<!-- Node17 -->
<g id="node8" class="node"><title>Node17</title>
<g id="a_node8"><a xlink:href="vague_8cpp.html" target="_top" target="_top" xlink:title="src/vague.cpp">
<polygon fill="white" stroke="black" points="1052,-0.5 1052,-19.5 1130,-19.5 1130,-0.5 1052,-0.5"/>
<text text-anchor="middle" x="1091" y="-7.5" font-family="Helvetica,sans-Serif" font-size="10.00">src/vague.cpp</text>
</a>
</g>
</g>
<!-- Node16&#45;&gt;Node17 -->
<g id="edge9" class="edge"><title>Node16&#45;&gt;Node17</title>
<path fill="none" stroke="midnightblue" d="M1091,-45.8045C1091,-36.9102 1091,-26.7798 1091,-19.7511"/>
<polygon fill="midnightblue" stroke="midnightblue" points="1087.5,-46.083 1091,-56.083 1094.5,-46.083 1087.5,-46.083"/>
</g>
<!-- Node20&#45;&gt;Node12 -->
<g id="edge13" class="edge"><title>Node20&#45;&gt;Node12</title>
<path fill="none" stroke="midnightblue" d="M504.83,-288.172C475.456,-278.004 433.802,-263.585 407.603,-254.516"/>
<polygon fill="midnightblue" stroke="midnightblue" points="503.687,-291.48 514.281,-291.444 505.976,-284.865 503.687,-291.48"/>
</g>
<!-- Node21 -->
<g id="node12" class="node"><title>Node21</title>
<g id="a_node12"><a xlink:href="_cap_piou_8cpp.html" target="_top" target="_top" xlink:title="src/Capacites/CapPiou.cpp">
<polygon fill="white" stroke="black" points="470.5,-235.5 470.5,-254.5 607.5,-254.5 607.5,-235.5 470.5,-235.5"/>
<text text-anchor="middle" x="539" y="-242.5" font-family="Helvetica,sans-Serif" font-size="10.00">src/Capacites/CapPiou.cpp</text>
</a>
</g>
</g>
<!-- Node20&#45;&gt;Node21 -->
<g id="edge14" class="edge"><title>Node20&#45;&gt;Node21</title>
<path fill="none" stroke="midnightblue" d="M539,-280.805C539,-271.91 539,-261.78 539,-254.751"/>
<polygon fill="midnightblue" stroke="midnightblue" points="535.5,-281.083 539,-291.083 542.5,-281.083 535.5,-281.083"/>
</g>
<!-- Node22&#45;&gt;Node12 -->
<g id="edge16" class="edge"><title>Node22&#45;&gt;Node12</title>
<path fill="none" stroke="midnightblue" d="M265.446,-288.039C293.858,-277.879 333.937,-263.546 359.186,-254.516"/>
<polygon fill="midnightblue" stroke="midnightblue" points="264.164,-284.781 255.926,-291.444 266.521,-291.372 264.164,-284.781"/>
</g>
<!-- Node22&#45;&gt;Node19 -->
<g id="edge18" class="edge"><title>Node22&#45;&gt;Node19</title>
<path fill="none" stroke="midnightblue" d="M230.25,-281.101C229.42,-272.136 228.468,-261.858 227.81,-254.751"/>
<polygon fill="midnightblue" stroke="midnightblue" points="226.767,-281.448 231.174,-291.083 233.737,-280.803 226.767,-281.448"/>
</g>
<!-- Node23 -->
<g id="node14" class="node"><title>Node23</title>
<g id="a_node14"><a xlink:href="_cap_dash_8cpp.html" target="_top" target="_top" xlink:title="src/Capacites/CapDash.cpp">
<polygon fill="white" stroke="black" points="0,-235.5 0,-254.5 140,-254.5 140,-235.5 0,-235.5"/>
<text text-anchor="middle" x="70" y="-242.5" font-family="Helvetica,sans-Serif" font-size="10.00">src/Capacites/CapDash.cpp</text>
</a>
</g>
</g>
<!-- Node22&#45;&gt;Node23 -->
<g id="edge17" class="edge"><title>Node22&#45;&gt;Node23</title>
<path fill="none" stroke="midnightblue" d="M196.516,-288.172C166.012,-278.004 122.755,-263.585 95.5493,-254.516"/>
<polygon fill="midnightblue" stroke="midnightblue" points="195.737,-291.602 206.331,-291.444 197.951,-284.961 195.737,-291.602"/>
</g>
<!-- Node24&#45;&gt;Node12 -->
<g id="edge20" class="edge"><title>Node24&#45;&gt;Node12</title>
<path fill="none" stroke="midnightblue" d="M732.246,-290.167C651.627,-279.972 526.886,-264.196 450.343,-254.516"/>
<polygon fill="midnightblue" stroke="midnightblue" points="731.98,-293.661 742.341,-291.444 732.859,-286.716 731.98,-293.661"/>
</g>
<!-- Node25 -->
<g id="node16" class="node"><title>Node25</title>
<g id="a_node16"><a xlink:href="_cap_missile_8cpp.html" target="_top" target="_top" xlink:title="src/Capacites/CapMissile.cpp">
<polygon fill="white" stroke="black" points="664,-235.5 664,-254.5 812,-254.5 812,-235.5 664,-235.5"/>
<text text-anchor="middle" x="738" y="-242.5" font-family="Helvetica,sans-Serif" font-size="10.00">src/Capacites/CapMissile.cpp</text>
</a>
</g>
</g>
<!-- Node24&#45;&gt;Node25 -->
<g id="edge21" class="edge"><title>Node24&#45;&gt;Node25</title>
<path fill="none" stroke="midnightblue" d="M790.134,-285.101C777.177,-275.382 760.703,-263.027 749.779,-254.834"/>
<polygon fill="midnightblue" stroke="midnightblue" points="788.332,-288.124 798.432,-291.324 792.532,-282.524 788.332,-288.124"/>
</g>
<!-- Node26 -->
<g id="node17" class="node"><title>Node26</title>
<g id="a_node17"><a xlink:href="_vaisseau_attaquant_8h.html" target="_top" target="_top" xlink:title="src/Vaisseau/VaisseauAttaquant.h">
<polygon fill="white" stroke="black" points="867.5,-235.5 867.5,-254.5 1034.5,-254.5 1034.5,-235.5 867.5,-235.5"/>
<text text-anchor="middle" x="951" y="-242.5" font-family="Helvetica,sans-Serif" font-size="10.00">src/Vaisseau/VaisseauAttaquant.h</text>
</a>
</g>
</g>
<!-- Node24&#45;&gt;Node26 -->
<g id="edge22" class="edge"><title>Node24&#45;&gt;Node26</title>
<path fill="none" stroke="midnightblue" d="M841.929,-287.772C868.414,-277.629 905.392,-263.467 928.763,-254.516"/>
<polygon fill="midnightblue" stroke="midnightblue" points="840.429,-284.599 832.342,-291.444 842.932,-291.136 840.429,-284.599"/>
</g>
<!-- Node26&#45;&gt;Node15 -->
<g id="edge23" class="edge"><title>Node26&#45;&gt;Node15</title>
<path fill="none" stroke="midnightblue" d="M961.724,-226.449C972.448,-209.92 990.165,-185.195 1010,-168 1028.01,-152.388 1052.26,-139.537 1069.12,-131.622"/>
<polygon fill="midnightblue" stroke="midnightblue" points="958.632,-224.791 956.254,-235.116 964.551,-228.527 958.632,-224.791"/>
</g>
<!-- Node27 -->
<g id="node18" class="node"><title>Node27</title>
<g id="a_node18"><a xlink:href="_vaisseau_attaquant_8cpp.html" target="_top" target="_top" xlink:title="src/Vaisseau/VaisseauAttaquant.cpp">
<polygon fill="white" stroke="black" points="747,-174 747,-193 925,-193 925,-174 747,-174"/>
<text text-anchor="middle" x="836" y="-181" font-family="Helvetica,sans-Serif" font-size="10.00">src/Vaisseau/VaisseauAttaquant.cpp</text>
</a>
</g>
</g>
<!-- Node26&#45;&gt;Node27 -->
<g id="edge24" class="edge"><title>Node26&#45;&gt;Node27</title>
<path fill="none" stroke="midnightblue" d="M925.616,-230.867C903.328,-219.335 871.561,-202.899 852.446,-193.009"/>
<polygon fill="midnightblue" stroke="midnightblue" points="924.033,-233.988 934.523,-235.475 927.25,-227.771 924.033,-233.988"/>
</g>
<!-- Node29&#45;&gt;Node14 -->
<g id="edge34" class="edge"><title>Node29&#45;&gt;Node14</title>
<path fill="none" stroke="midnightblue" d="M1304.24,-297.342C1181.7,-292.256 939.531,-279.421 858,-255 840.093,-249.636 838.302,-242.077 821,-235 775.342,-216.325 720.345,-201.658 684.346,-193.048"/>
<polygon fill="midnightblue" stroke="midnightblue" points="1304.15,-300.841 1314.29,-297.753 1304.44,-293.847 1304.15,-300.841"/>
</g>
<!-- Node29&#45;&gt;Node16 -->
<g id="edge42" class="edge"><title>Node29&#45;&gt;Node16</title>
<path fill="none" stroke="midnightblue" d="M1449.76,-290.19C1544.97,-277.312 1699.97,-256.186 1701,-255 1712.1,-242.251 1735.73,-216.185 1700,-168 1630.9,-74.807 1243.11,-67.0046 1125.09,-66.8156"/>
<polygon fill="midnightblue" stroke="midnightblue" points="1449.04,-286.756 1439.6,-291.564 1449.98,-293.693 1449.04,-286.756"/>
</g>
<!-- Node29&#45;&gt;Node26 -->
<g id="edge35" class="edge"><title>Node29&#45;&gt;Node26</title>
<path fill="none" stroke="midnightblue" d="M1304.13,-290.762C1223.97,-280.602 1096.22,-264.408 1018.34,-254.536"/>
<polygon fill="midnightblue" stroke="midnightblue" points="1303.78,-294.247 1314.14,-292.032 1304.66,-287.302 1303.78,-294.247"/>
</g>
<!-- Node29&#45;&gt;Node28 -->
<g id="edge27" class="edge"><title>Node29&#45;&gt;Node28</title>
<path fill="none" stroke="midnightblue" d="M1326.69,-289.346C1278.5,-279.141 1206.72,-263.94 1162.22,-254.516"/>
<polygon fill="midnightblue" stroke="midnightblue" points="1326.09,-292.796 1336.59,-291.444 1327.54,-285.948 1326.09,-292.796"/>
</g>
<!-- Node29&#45;&gt;Node30 -->
<g id="edge28" class="edge"><title>Node29&#45;&gt;Node30</title>
<path fill="none" stroke="midnightblue" d="M1346.32,-287.638C1321.18,-277.504 1286.25,-263.427 1264.13,-254.516"/>
<polygon fill="midnightblue" stroke="midnightblue" points="1345.18,-290.952 1355.77,-291.444 1347.8,-284.459 1345.18,-290.952"/>
</g>
<!-- Node32 -->
<g id="node23" class="node"><title>Node32</title>
<g id="a_node23"><a xlink:href="_vaisseau_eclaireur_8h.html" target="_top" target="_top" xlink:title="src/Vaisseau/VaisseauEclaireur.h">
<polygon fill="white" stroke="black" points="1295,-235.5 1295,-254.5 1459,-254.5 1459,-235.5 1295,-235.5"/>
<text text-anchor="middle" x="1377" y="-242.5" font-family="Helvetica,sans-Serif" font-size="10.00">src/Vaisseau/VaisseauEclaireur.h</text>
</a>
</g>
</g>
<!-- Node29&#45;&gt;Node32 -->
<g id="edge31" class="edge"><title>Node29&#45;&gt;Node32</title>
<path fill="none" stroke="midnightblue" d="M1377,-280.805C1377,-271.91 1377,-261.78 1377,-254.751"/>
<polygon fill="midnightblue" stroke="midnightblue" points="1373.5,-281.083 1377,-291.083 1380.5,-281.083 1373.5,-281.083"/>
</g>
<!-- Node34 -->
<g id="node25" class="node"><title>Node34</title>
<g id="a_node25"><a xlink:href="_vaisseau_defenseur_8h.html" target="_top" target="_top" xlink:title="src/Vaisseau/VaisseauDefenseur.h">
<polygon fill="white" stroke="black" points="1341,-174 1341,-193 1511,-193 1511,-174 1341,-174"/>
<text text-anchor="middle" x="1426" y="-181" font-family="Helvetica,sans-Serif" font-size="10.00">src/Vaisseau/VaisseauDefenseur.h</text>
</a>
</g>
</g>
<!-- Node29&#45;&gt;Node34 -->
<g id="edge36" class="edge"><title>Node29&#45;&gt;Node34</title>
<path fill="none" stroke="midnightblue" d="M1424.68,-287.81C1441.34,-281.015 1458.28,-270.645 1468,-255 1481.76,-232.852 1454.38,-206.343 1437.65,-193.026"/>
<polygon fill="midnightblue" stroke="midnightblue" points="1423.13,-284.654 1414.97,-291.411 1425.56,-291.218 1423.13,-284.654"/>
</g>
<!-- Node36 -->
<g id="node27" class="node"><title>Node36</title>
<g id="a_node27"><a xlink:href="_vaisseau_defenseur_b_8h.html" target="_top" target="_top" xlink:title="src/Vaisseau/VaisseauDefenseurB.h">
<polygon fill="white" stroke="black" points="1514.5,-235.5 1514.5,-254.5 1691.5,-254.5 1691.5,-235.5 1514.5,-235.5"/>
<text text-anchor="middle" x="1603" y="-242.5" font-family="Helvetica,sans-Serif" font-size="10.00">src/Vaisseau/VaisseauDefenseurB.h</text>
</a>
</g>
</g>
<!-- Node29&#45;&gt;Node36 -->
<g id="edge39" class="edge"><title>Node29&#45;&gt;Node36</title>
<path fill="none" stroke="midnightblue" d="M1422.67,-289.088C1465.36,-278.887 1528.25,-263.861 1567.36,-254.516"/>
<polygon fill="midnightblue" stroke="midnightblue" points="1421.72,-285.715 1412.81,-291.444 1423.35,-292.524 1421.72,-285.715"/>
</g>
<!-- Node29&#45;&gt;Node38 -->
<g id="edge43" class="edge"><title>Node29&#45;&gt;Node38</title>
<path fill="none" stroke="midnightblue" d="M1449.8,-291.086C1532.56,-280.951 1666.73,-264.523 1748.22,-254.544"/>
<polygon fill="midnightblue" stroke="midnightblue" points="1449.22,-287.631 1439.72,-292.32 1450.07,-294.579 1449.22,-287.631"/>
</g>
<!-- Node29&#45;&gt;Node39 -->
<g id="edge44" class="edge"><title>Node29&#45;&gt;Node39</title>
<path fill="none" stroke="midnightblue" d="M1449.68,-294.419C1550.43,-286.524 1738.2,-271.237 1898,-255 1900.95,-254.701 1903.95,-254.386 1906.99,-254.062"/>
<polygon fill="midnightblue" stroke="midnightblue" points="1449.31,-290.938 1439.61,-295.206 1449.85,-297.916 1449.31,-290.938"/>
</g>
<!-- Node30&#45;&gt;Node13 -->
<g id="edge30" class="edge"><title>Node30&#45;&gt;Node13</title>
<path fill="none" stroke="midnightblue" d="M1199.25,-235.08C1112.23,-221.267 1065.67,-260.351 1010,-199 962.653,-146.819 982.844,-49.6822 990.525,-19.9066"/>
<polygon fill="midnightblue" stroke="midnightblue" points="1198.75,-238.546 1209.21,-236.864 1199.99,-231.656 1198.75,-238.546"/>
</g>
<!-- Node31 -->
<g id="node22" class="node"><title>Node31</title>
<g id="a_node22"><a xlink:href="main_8cpp.html" target="_top" target="_top" xlink:title="src/main.cpp">
<polygon fill="white" stroke="black" points="1019.5,-174 1019.5,-193 1092.5,-193 1092.5,-174 1019.5,-174"/>
<text text-anchor="middle" x="1056" y="-181" font-family="Helvetica,sans-Serif" font-size="10.00">src/main.cpp</text>
</a>
</g>
</g>
<!-- Node30&#45;&gt;Node31 -->
<g id="edge29" class="edge"><title>Node30&#45;&gt;Node31</title>
<path fill="none" stroke="midnightblue" d="M1206.48,-232.381C1170.13,-220.815 1115.21,-203.341 1082.74,-193.009"/>
<polygon fill="midnightblue" stroke="midnightblue" points="1205.62,-235.778 1216.21,-235.475 1207.74,-229.108 1205.62,-235.778"/>
</g>
<!-- Node32&#45;&gt;Node15 -->
<g id="edge32" class="edge"><title>Node32&#45;&gt;Node15</title>
<path fill="none" stroke="midnightblue" d="M1286.81,-234.161C1230.38,-226.631 1163.98,-214.841 1140,-199 1114.54,-182.186 1098.58,-147.843 1092.2,-131.722"/>
<polygon fill="midnightblue" stroke="midnightblue" points="1286.49,-237.648 1296.86,-235.471 1287.4,-230.707 1286.49,-237.648"/>
</g>
<!-- Node33 -->
<g id="node24" class="node"><title>Node33</title>
<g id="a_node24"><a xlink:href="_vaisseau_eclaireur_8cpp.html" target="_top" target="_top" xlink:title="src/Vaisseau/VaisseauEclaireur.cpp">
<polygon fill="white" stroke="black" points="1149,-174 1149,-193 1323,-193 1323,-174 1149,-174"/>
<text text-anchor="middle" x="1236" y="-181" font-family="Helvetica,sans-Serif" font-size="10.00">src/Vaisseau/VaisseauEclaireur.cpp</text>
</a>
</g>
</g>
<!-- Node32&#45;&gt;Node33 -->
<g id="edge33" class="edge"><title>Node32&#45;&gt;Node33</title>
<path fill="none" stroke="midnightblue" d="M1347.33,-231.48C1319.95,-219.924 1280.02,-203.076 1256.16,-193.009"/>
<polygon fill="midnightblue" stroke="midnightblue" points="1346.22,-234.812 1356.8,-235.475 1348.95,-228.363 1346.22,-234.812"/>
</g>
<!-- Node34&#45;&gt;Node15 -->
<g id="edge37" class="edge"><title>Node34&#45;&gt;Node15</title>
<path fill="none" stroke="midnightblue" d="M1367.59,-172.188C1302.36,-160.67 1197.96,-142.238 1137.19,-131.509"/>
<polygon fill="midnightblue" stroke="midnightblue" points="1367.26,-175.683 1377.72,-173.975 1368.48,-168.79 1367.26,-175.683"/>
</g>
<!-- Node35 -->
<g id="node26" class="node"><title>Node35</title>
<g id="a_node26"><a xlink:href="_vaisseau_defenseur_8cpp.html" target="_top" target="_top" xlink:title="src/Vaisseau/VaisseauDefenseur.cpp">
<polygon fill="white" stroke="black" points="1335.5,-112.5 1335.5,-131.5 1516.5,-131.5 1516.5,-112.5 1335.5,-112.5"/>
<text text-anchor="middle" x="1426" y="-119.5" font-family="Helvetica,sans-Serif" font-size="10.00">src/Vaisseau/VaisseauDefenseur.cpp</text>
</a>
</g>
</g>
<!-- Node34&#45;&gt;Node35 -->
<g id="edge38" class="edge"><title>Node34&#45;&gt;Node35</title>
<path fill="none" stroke="midnightblue" d="M1426,-163.817C1426,-152.996 1426,-139.898 1426,-131.509"/>
<polygon fill="midnightblue" stroke="midnightblue" points="1422.5,-163.975 1426,-173.975 1429.5,-163.975 1422.5,-163.975"/>
</g>
<!-- Node36&#45;&gt;Node34 -->
<g id="edge40" class="edge"><title>Node36&#45;&gt;Node34</title>
<path fill="none" stroke="midnightblue" d="M1567.99,-232.232C1533.59,-220.666 1481.92,-203.297 1451.31,-193.009"/>
<polygon fill="midnightblue" stroke="midnightblue" points="1567.05,-235.606 1577.64,-235.475 1569.28,-228.971 1567.05,-235.606"/>
</g>
<!-- Node37 -->
<g id="node28" class="node"><title>Node37</title>
<g id="a_node28"><a xlink:href="_vaisseau_defenseur_b_8cpp.html" target="_top" target="_top" xlink:title="src/Vaisseau/VaisseauDefenseur\lB.cpp">
<polygon fill="white" stroke="black" points="1529,-168.5 1529,-198.5 1691,-198.5 1691,-168.5 1529,-168.5"/>
<text text-anchor="start" x="1537" y="-186.5" font-family="Helvetica,sans-Serif" font-size="10.00">src/Vaisseau/VaisseauDefenseur</text>
<text text-anchor="middle" x="1610" y="-175.5" font-family="Helvetica,sans-Serif" font-size="10.00">B.cpp</text>
</a>
</g>
</g>
<!-- Node36&#45;&gt;Node37 -->
<g id="edge41" class="edge"><title>Node36&#45;&gt;Node37</title>
<path fill="none" stroke="midnightblue" d="M1605.17,-225.526C1606.2,-216.813 1607.4,-206.586 1608.35,-198.523"/>
<polygon fill="midnightblue" stroke="midnightblue" points="1601.7,-225.135 1604,-235.475 1608.65,-225.953 1601.7,-225.135"/>
</g>
</g>
</svg>
        <g id="navigator" transform="translate(0 0)" fill="#404254">
                <rect fill="#f2f5e9" fill-opacity="0.5" stroke="#606060" stroke-width=".5" x="0" y="0" width="60" height="60"/>
                <use id="zoomplus" xlink:href="#zoomPlus" target="_top" x="17" y="9" onmousedown="handleZoom(evt,'in')"/>
                <use id="zoomminus" xlink:href="#zoomMin" target="_top" x="42" y="9" onmousedown="handleZoom(evt,'out')"/>
                <use id="reset" xlink:href="#resetDef" target="_top" x="30" y="36" onmousedown="handleReset()"/>
                <g id="arrowUp" xlink:href="#dirArrow" target="_top" transform="translate(30 24)" onmousedown="handlePan(0,-1)">
                  <use xlink:href="#rim" target="_top" fill="#404040">
                        <set attributeName="fill" to="#808080" begin="arrowUp.mouseover" end="arrowUp.mouseout"/>
                  </use>
                  <path fill="none" stroke="white" stroke-width="1.5" d="M0,-3.0v7 M-2.5,-0.5L0,-3.0L2.5,-0.5"/>
                </g>
                <g id="arrowRight" xlink:href="#dirArrow" target="_top" transform="rotate(90) translate(36 -43)" onmousedown="handlePan(1,0)">
                  <use xlink:href="#rim" target="_top" fill="#404040">
                        <set attributeName="fill" to="#808080" begin="arrowRight.mouseover" end="arrowRight.mouseout"/>
                  </use>
                  <path fill="none" stroke="white" stroke-width="1.5" d="M0,-3.0v7 M-2.5,-0.5L0,-3.0L2.5,-0.5"/>
                </g>
                <g id="arrowDown" xlink:href="#dirArrow" target="_top" transform="rotate(180) translate(-30 -48)" onmousedown="handlePan(0,1)">
                  <use xlink:href="#rim" target="_top" fill="#404040">
                        <set attributeName="fill" to="#808080" begin="arrowDown.mouseover" end="arrowDown.mouseout"/>
                  </use>
                  <path fill="none" stroke="white" stroke-width="1.5" d="M0,-3.0v7 M-2.5,-0.5L0,-3.0L2.5,-0.5"/>
                </g>
                <g id="arrowLeft" xlink:href="#dirArrow" target="_top" transform="rotate(270) translate(-36 17)" onmousedown="handlePan(-1,0)">
                  <use xlink:href="#rim" target="_top" fill="#404040">
                        <set attributeName="fill" to="#808080" begin="arrowLeft.mouseover" end="arrowLeft.mouseout"/>
                  </use>
                  <path fill="none" stroke="white" stroke-width="1.5" d="M0,-3.0v7 M-2.5,-0.5L0,-3.0L2.5,-0.5"/>
                </g>
        </g>
        <svg viewBox="0 0 15 15" width="100%" height="30px" preserveAspectRatio="xMaxYMin meet">
         <g id="arrow_out" transform="scale(0.3 0.3)">
          <a xlink:href="_capacite_8h__dep__incl_org.svg" target="_top" target="_base">
           <rect id="button" ry="5" rx="5" y="6" x="6" height="38" width="38"
                fill="#f2f5e9" fill-opacity="0.5" stroke="#606060" stroke-width="1.0"/>
           <path id="arrow"
             d="M 11.500037,31.436501 C 11.940474,20.09759 22.043105,11.32322 32.158766,21.979434 L 37.068811,17.246167 C 37.068811,17.246167 37.088388,32 37.088388,32 L 22.160133,31.978069 C 22.160133,31.978069 26.997745,27.140456 26.997745,27.140456 C 18.528582,18.264221 13.291696,25.230495 11.500037,31.436501 z"
             style="fill:#404040;"/>
          </a>
         </g>
        </svg>
</svg>
