<?xml version="1.0" encoding="UTF-8" standalone="no"?>
<!DOCTYPE svg PUBLIC "-//W3C//DTD SVG 1.1//EN"
 "http://www.w3.org/Graphics/SVG/1.1/DTD/svg11.dtd">
<!-- Generated by graphviz version 2.38.0 (20140413.2041)
 -->
<!-- Title: src/Capacites/Capacite.h Pages: 1 -->
<!--zoomable 196 -->
<svg id="main" version="1.1" xmlns="http://www.w3.org/2000/svg" xmlns:xlink="http://www.w3.org/1999/xlink" xml:space="preserve" onload="init(evt)">
<style type="text/css"><![CDATA[
.edge:hover path { stroke: red; }
.edge:hover polygon { stroke: red; fill: red; }
]]></style>
<script type="text/javascript"><![CDATA[
var edges = document.getElementsByTagName('g');
if (edges && edges.length) {
  for (var i=0;i<edges.length;i++) {
    if (edges[i].id.substr(0,4)=='edge') {
      edges[i].setAttribute('class','edge');
    }
  }
}
]]></script>
        <defs>
                <circle id="rim" cx="0" cy="0" r="7"/>
                <circle id="rim2" cx="0" cy="0" r="3.5"/>
                <g id="zoomPlus">
                        <use xlink:href="#rim" fill="#404040">
                                <set attributeName="fill" to="#808080" begin="zoomplus.mouseover" end="zoomplus.mouseout"/>
                        </use>
                        <path d="M-4,0h8M0,-4v8" fill="none" stroke="white" stroke-width="1.5" pointer-events="none"/>
                </g>
                <g id="zoomMin">
                        <use xlink:href="#rim" fill="#404040">
                                <set attributeName="fill" to="#808080" begin="zoomminus.mouseover" end="zoomminus.mouseout"/>
                        </use>
                        <path d="M-4,0h8" fill="none" stroke="white" stroke-width="1.5" pointer-events="none"/>
                </g>
                <g id="dirArrow">
                        <path fill="none" stroke="white" stroke-width="1.5" d="M0,-3.0v7 M-2.5,-0.5L0,-3.0L2.5,-0.5"/>
                </g>
               <g id="resetDef">
                       <use xlink:href="#rim2" fill="#404040">
                               <set attributeName="fill" to="#808080" begin="reset.mouseover" end="reset.mouseout"/>
                       </use>
               </g>
        </defs>

<script type="text/javascript">
var viewWidth = 1335;
var viewHeight = 196;
var sectionId = 'dynsection-1';
</script>
<script xlink:href="svgpan.js"/>
<svg id="graph" class="graph">
<g id="viewport">
<title>src/Capacites/Capacite.h</title>
<polygon fill="white" stroke="none" points="-4,4 -4,-192 1330.5,-192 1330.5,4 -4,4"/>
<!-- Node8 -->
<g id="node1" class="node"><title>Node8</title>
<polygon fill="#bfbfbf" stroke="black" points="719.5,-168.5 719.5,-187.5 847.5,-187.5 847.5,-168.5 719.5,-168.5"/>
<text text-anchor="middle" x="783.5" y="-175.5" font-family="Helvetica,sans-Serif" font-size="10.00">src/Capacites/Capacite.h</text>
</g>
<!-- Node9 -->
<g id="node2" class="node"><title>Node9</title>
<g id="a_node2"><a xlink:href="_cap_test_8h.html" target="_top" xlink:title="src/Capacites/CapTest.h">
<polygon fill="white" stroke="black" points="317.5,-112.5 317.5,-131.5 443.5,-131.5 443.5,-112.5 317.5,-112.5"/>
<text text-anchor="middle" x="380.5" y="-119.5" font-family="Helvetica,sans-Serif" font-size="10.00">src/Capacites/CapTest.h</text>
</a>
</g>
</g>
<!-- Node8&#45;&gt;Node9 -->
<g id="edge1" class="edge"><title>Node8&#45;&gt;Node9</title>
<path fill="none" stroke="midnightblue" d="M709.636,-167.103C633.417,-156.89 515.786,-141.128 443.726,-131.472"/>
<polygon fill="midnightblue" stroke="midnightblue" points="709.267,-170.584 719.643,-168.444 710.197,-163.646 709.267,-170.584"/>
</g>
<!-- Node13 -->
<g id="node6" class="node"><title>Node13</title>
<g id="a_node6"><a xlink:href="_cap_piou_8h.html" target="_top" xlink:title="src/Capacites/CapPiou.h">
<polygon fill="white" stroke="black" points="161.5,-112.5 161.5,-131.5 287.5,-131.5 287.5,-112.5 161.5,-112.5"/>
<text text-anchor="middle" x="224.5" y="-119.5" font-family="Helvetica,sans-Serif" font-size="10.00">src/Capacites/CapPiou.h</text>
</a>
</g>
</g>
<!-- Node8&#45;&gt;Node13 -->
<g id="edge5" class="edge"><title>Node8&#45;&gt;Node13</title>
<path fill="none" stroke="midnightblue" d="M709.113,-170.238C615.582,-161.669 450.098,-146.292 308.5,-132 301.787,-131.322 294.775,-130.598 287.787,-129.865"/>
<polygon fill="midnightblue" stroke="midnightblue" points="709.046,-173.746 719.323,-171.172 709.684,-166.775 709.046,-173.746"/>
</g>
<!-- Node15 -->
<g id="node8" class="node"><title>Node15</title>
<g id="a_node8"><a xlink:href="_cap_dash_8h.html" target="_top" xlink:title="src/Capacites/CapDash.h">
<polygon fill="white" stroke="black" points="467.5,-112.5 467.5,-131.5 597.5,-131.5 597.5,-112.5 467.5,-112.5"/>
<text text-anchor="middle" x="532.5" y="-119.5" font-family="Helvetica,sans-Serif" font-size="10.00">src/Capacites/CapDash.h</text>
</a>
</g>
</g>
<!-- Node8&#45;&gt;Node15 -->
<g id="edge8" class="edge"><title>Node8&#45;&gt;Node15</title>
<path fill="none" stroke="midnightblue" d="M733.679,-166.281C686.247,-156.077 615.796,-140.92 572.086,-131.516"/>
<polygon fill="midnightblue" stroke="midnightblue" points="733.216,-169.762 743.728,-168.444 734.688,-162.918 733.216,-169.762"/>
</g>
<!-- Node17 -->
<g id="node10" class="node"><title>Node17</title>
<g id="a_node10"><a xlink:href="_capacite_8cpp.html" target="_top" xlink:title="src/Capacites/Capacite.cpp">
<polygon fill="white" stroke="black" points="874.5,-56.5 874.5,-75.5 1012.5,-75.5 1012.5,-56.5 874.5,-56.5"/>
<text text-anchor="middle" x="943.5" y="-63.5" font-family="Helvetica,sans-Serif" font-size="10.00">src/Capacites/Capacite.cpp</text>
</a>
</g>
</g>
<!-- Node8&#45;&gt;Node17 -->
<g id="edge12" class="edge"><title>Node8&#45;&gt;Node17</title>
<path fill="none" stroke="midnightblue" d="M801.03,-161.583C817.029,-147.846 841.601,-127.566 864.5,-112 885.125,-97.9798 910.384,-84.1244 926.7,-75.5709"/>
<polygon fill="midnightblue" stroke="midnightblue" points="798.35,-159.274 793.089,-168.471 802.936,-164.563 798.35,-159.274"/>
</g>
<!-- Node18 -->
<g id="node11" class="node"><title>Node18</title>
<g id="a_node11"><a xlink:href="_vaisseau_8h.html" target="_top" xlink:title="src/Vaisseau/Vaisseau.h">
<polygon fill="white" stroke="black" points="873,-112.5 873,-131.5 998,-131.5 998,-112.5 873,-112.5"/>
<text text-anchor="middle" x="935.5" y="-119.5" font-family="Helvetica,sans-Serif" font-size="10.00">src/Vaisseau/Vaisseau.h</text>
</a>
</g>
</g>
<!-- Node8&#45;&gt;Node18 -->
<g id="edge13" class="edge"><title>Node8&#45;&gt;Node18</title>
<path fill="none" stroke="midnightblue" d="M817.168,-165.039C845.768,-154.879 886.112,-140.546 911.528,-131.516"/>
<polygon fill="midnightblue" stroke="midnightblue" points="815.836,-161.798 807.585,-168.444 818.18,-168.394 815.836,-161.798"/>
</g>
<!-- Node19 -->
<g id="node12" class="node"><title>Node19</title>
<g id="a_node12"><a xlink:href="_partie_8h.html" target="_top" xlink:title="src/Partie.h">
<polygon fill="white" stroke="black" points="626,-56.5 626,-75.5 693,-75.5 693,-56.5 626,-56.5"/>
<text text-anchor="middle" x="659.5" y="-63.5" font-family="Helvetica,sans-Serif" font-size="10.00">src/Partie.h</text>
</a>
</g>
</g>
<!-- Node8&#45;&gt;Node19 -->
<g id="edge23" class="edge"><title>Node8&#45;&gt;Node19</title>
<path fill="none" stroke="midnightblue" d="M766.04,-161.512C739.544,-138.007 690.06,-94.1096 669.185,-75.5914"/>
<polygon fill="midnightblue" stroke="midnightblue" points="763.966,-164.351 773.77,-168.368 768.612,-159.114 763.966,-164.351"/>
</g>
<!-- Node21 -->
<g id="node14" class="node"><title>Node21</title>
<g id="a_node14"><a xlink:href="_vaisseau_test_8h.html" target="_top" xlink:title="src/Vaisseau/VaisseauTest.h">
<polygon fill="white" stroke="black" points="711,-56.5 711,-75.5 856,-75.5 856,-56.5 711,-56.5"/>
<text text-anchor="middle" x="783.5" y="-63.5" font-family="Helvetica,sans-Serif" font-size="10.00">src/Vaisseau/VaisseauTest.h</text>
</a>
</g>
</g>
<!-- Node8&#45;&gt;Node21 -->
<g id="edge24" class="edge"><title>Node8&#45;&gt;Node21</title>
<path fill="none" stroke="midnightblue" d="M783.5,-158.348C783.5,-134.254 783.5,-93.3079 783.5,-75.5914"/>
<polygon fill="midnightblue" stroke="midnightblue" points="780,-158.368 783.5,-168.368 787,-158.369 780,-158.368"/>
</g>
<!-- Node23 -->
<g id="node16" class="node"><title>Node23</title>
<g id="a_node16"><a xlink:href="_projectile_8cpp.html" target="_top" xlink:title="src/Projectiles/Projectile.cpp">
<polygon fill="white" stroke="black" points="1031,-56.5 1031,-75.5 1172,-75.5 1172,-56.5 1031,-56.5"/>
<text text-anchor="middle" x="1101.5" y="-63.5" font-family="Helvetica,sans-Serif" font-size="10.00">src/Projectiles/Projectile.cpp</text>
</a>
</g>
</g>
<!-- Node8&#45;&gt;Node23 -->
<g id="edge25" class="edge"><title>Node8&#45;&gt;Node23</title>
<path fill="none" stroke="midnightblue" d="M857.743,-169.766C902.47,-163.555 959.811,-152.254 1007.5,-132 1041.47,-117.574 1075.7,-89.7975 1091.88,-75.6861"/>
<polygon fill="midnightblue" stroke="midnightblue" points="857.27,-166.298 847.821,-171.089 858.196,-173.236 857.27,-166.298"/>
</g>
<!-- Node24 -->
<g id="node17" class="node"><title>Node24</title>
<g id="a_node17"><a xlink:href="_vaisseau_8cpp.html" target="_top" xlink:title="src/Vaisseau/Vaisseau.cpp">
<polygon fill="white" stroke="black" points="1190.5,-56.5 1190.5,-75.5 1326.5,-75.5 1326.5,-56.5 1190.5,-56.5"/>
<text text-anchor="middle" x="1258.5" y="-63.5" font-family="Helvetica,sans-Serif" font-size="10.00">src/Vaisseau/Vaisseau.cpp</text>
</a>
</g>
</g>
<!-- Node8&#45;&gt;Node24 -->
<g id="edge26" class="edge"><title>Node8&#45;&gt;Node24</title>
<path fill="none" stroke="midnightblue" d="M852.654,-166.955C904.193,-158.947 976.141,-146.665 1038.5,-132 1109.83,-115.224 1192.28,-88.9843 1233.01,-75.5516"/>
<polygon fill="midnightblue" stroke="midnightblue" points="851.978,-163.518 842.627,-168.499 853.043,-170.436 851.978,-163.518"/>
</g>
<!-- Node10 -->
<g id="node3" class="node"><title>Node10</title>
<g id="a_node3"><a xlink:href="___capacites_8h.html" target="_top" xlink:title="src/Capacites/_Capacites.h">
<polygon fill="white" stroke="black" points="155.5,-56.5 155.5,-75.5 293.5,-75.5 293.5,-56.5 155.5,-56.5"/>
<text text-anchor="middle" x="224.5" y="-63.5" font-family="Helvetica,sans-Serif" font-size="10.00">src/Capacites/_Capacites.h</text>
</a>
</g>
</g>
<!-- Node9&#45;&gt;Node10 -->
<g id="edge2" class="edge"><title>Node9&#45;&gt;Node10</title>
<path fill="none" stroke="midnightblue" d="M346.33,-109.172C316.956,-99.0039 275.302,-84.5852 249.103,-75.5164"/>
<polygon fill="midnightblue" stroke="midnightblue" points="345.187,-112.48 355.781,-112.444 347.476,-105.865 345.187,-112.48"/>
</g>
<!-- Node12 -->
<g id="node5" class="node"><title>Node12</title>
<g id="a_node5"><a xlink:href="_cap_test_8cpp.html" target="_top" xlink:title="src/Capacites/CapTest.cpp">
<polygon fill="white" stroke="black" points="312,-56.5 312,-75.5 449,-75.5 449,-56.5 312,-56.5"/>
<text text-anchor="middle" x="380.5" y="-63.5" font-family="Helvetica,sans-Serif" font-size="10.00">src/Capacites/CapTest.cpp</text>
</a>
</g>
</g>
<!-- Node9&#45;&gt;Node12 -->
<g id="edge4" class="edge"><title>Node9&#45;&gt;Node12</title>
<path fill="none" stroke="midnightblue" d="M380.5,-101.805C380.5,-92.9102 380.5,-82.7798 380.5,-75.7511"/>
<polygon fill="midnightblue" stroke="midnightblue" points="377,-102.083 380.5,-112.083 384,-102.083 377,-102.083"/>
</g>
<!-- Node11 -->
<g id="node4" class="node"><title>Node11</title>
<g id="a_node4"><a xlink:href="_partie_8cpp.html" target="_top" xlink:title="src/Partie.cpp">
<polygon fill="white" stroke="black" points="621,-0.5 621,-19.5 698,-19.5 698,-0.5 621,-0.5"/>
<text text-anchor="middle" x="659.5" y="-7.5" font-family="Helvetica,sans-Serif" font-size="10.00">src/Partie.cpp</text>
</a>
</g>
</g>
<!-- Node10&#45;&gt;Node11 -->
<g id="edge3" class="edge"><title>Node10&#45;&gt;Node11</title>
<path fill="none" stroke="midnightblue" d="M303.901,-55.8373C414.933,-43.0144 603.961,-21.1437 611.5,-20 614.518,-19.5422 617.636,-19.0352 620.767,-18.5018"/>
<polygon fill="midnightblue" stroke="midnightblue" points="303.27,-52.3867 293.738,-57.0108 304.073,-59.3405 303.27,-52.3867"/>
</g>
<!-- Node13&#45;&gt;Node10 -->
<g id="edge6" class="edge"><title>Node13&#45;&gt;Node10</title>
<path fill="none" stroke="midnightblue" d="M224.5,-101.805C224.5,-92.9102 224.5,-82.7798 224.5,-75.7511"/>
<polygon fill="midnightblue" stroke="midnightblue" points="221,-102.083 224.5,-112.083 228,-102.083 221,-102.083"/>
</g>
<!-- Node14 -->
<g id="node7" class="node"><title>Node14</title>
<g id="a_node7"><a xlink:href="_cap_piou_8cpp.html" target="_top" xlink:title="src/Capacites/CapPiou.cpp">
<polygon fill="white" stroke="black" points="0,-56.5 0,-75.5 137,-75.5 137,-56.5 0,-56.5"/>
<text text-anchor="middle" x="68.5" y="-63.5" font-family="Helvetica,sans-Serif" font-size="10.00">src/Capacites/CapPiou.cpp</text>
</a>
</g>
</g>
<!-- Node13&#45;&gt;Node14 -->
<g id="edge7" class="edge"><title>Node13&#45;&gt;Node14</title>
<path fill="none" stroke="midnightblue" d="M190.33,-109.172C160.956,-99.0039 119.302,-84.5852 93.103,-75.5164"/>
<polygon fill="midnightblue" stroke="midnightblue" points="189.187,-112.48 199.781,-112.444 191.476,-105.865 189.187,-112.48"/>
</g>
<!-- Node15&#45;&gt;Node10 -->
<g id="edge9" class="edge"><title>Node15&#45;&gt;Node10</title>
<path fill="none" stroke="midnightblue" d="M473.548,-110.664C415.341,-100.459 327.387,-85.0386 273.075,-75.5164"/>
<polygon fill="midnightblue" stroke="midnightblue" points="473.242,-114.164 483.696,-112.444 474.451,-107.269 473.242,-114.164"/>
</g>
<!-- Node15&#45;&gt;Node12 -->
<g id="edge11" class="edge"><title>Node15&#45;&gt;Node12</title>
<path fill="none" stroke="midnightblue" d="M498.832,-109.039C470.232,-98.8786 429.888,-84.5457 404.472,-75.5164"/>
<polygon fill="midnightblue" stroke="midnightblue" points="497.82,-112.394 508.415,-112.444 500.164,-105.798 497.82,-112.394"/>
</g>
<!-- Node16 -->
<g id="node9" class="node"><title>Node16</title>
<g id="a_node9"><a xlink:href="_cap_dash_8cpp.html" target="_top" xlink:title="src/Capacites/CapDash.cpp">
<polygon fill="white" stroke="black" points="467.5,-56.5 467.5,-75.5 607.5,-75.5 607.5,-56.5 467.5,-56.5"/>
<text text-anchor="middle" x="537.5" y="-63.5" font-family="Helvetica,sans-Serif" font-size="10.00">src/Capacites/CapDash.cpp</text>
</a>
</g>
</g>
<!-- Node15&#45;&gt;Node16 -->
<g id="edge10" class="edge"><title>Node15&#45;&gt;Node16</title>
<path fill="none" stroke="midnightblue" d="M534.25,-102.101C535.08,-93.1357 536.032,-82.8579 536.69,-75.7511"/>
<polygon fill="midnightblue" stroke="midnightblue" points="530.763,-101.803 533.326,-112.083 537.733,-102.448 530.763,-101.803"/>
</g>
<!-- Node18&#45;&gt;Node17 -->
<g id="edge14" class="edge"><title>Node18&#45;&gt;Node17</title>
<path fill="none" stroke="midnightblue" d="M938.3,-102.101C939.628,-93.1357 941.151,-82.8579 942.204,-75.7511"/>
<polygon fill="midnightblue" stroke="midnightblue" points="934.824,-101.678 936.821,-112.083 941.749,-102.704 934.824,-101.678"/>
</g>
<!-- Node18&#45;&gt;Node19 -->
<g id="edge15" class="edge"><title>Node18&#45;&gt;Node19</title>
<path fill="none" stroke="midnightblue" d="M879.639,-110.6C832.191,-101.685 762.308,-88.3606 701.5,-76 698.869,-75.4652 696.148,-74.9029 693.413,-74.3313"/>
<polygon fill="midnightblue" stroke="midnightblue" points="879.235,-114.086 889.709,-112.49 880.526,-107.206 879.235,-114.086"/>
</g>
<!-- Node18&#45;&gt;Node21 -->
<g id="edge18" class="edge"><title>Node18&#45;&gt;Node21</title>
<path fill="none" stroke="midnightblue" d="M901.832,-109.039C873.232,-98.8786 832.888,-84.5457 807.472,-75.5164"/>
<polygon fill="midnightblue" stroke="midnightblue" points="900.82,-112.394 911.415,-112.444 903.164,-105.798 900.82,-112.394"/>
</g>
<!-- Node18&#45;&gt;Node23 -->
<g id="edge21" class="edge"><title>Node18&#45;&gt;Node23</title>
<path fill="none" stroke="midnightblue" d="M971.453,-109.304C1002.73,-99.1294 1047.32,-84.6246 1075.32,-75.5164"/>
<polygon fill="midnightblue" stroke="midnightblue" points="970.23,-106.022 961.803,-112.444 972.395,-112.678 970.23,-106.022"/>
</g>
<!-- Node18&#45;&gt;Node24 -->
<g id="edge22" class="edge"><title>Node18&#45;&gt;Node24</title>
<path fill="none" stroke="midnightblue" d="M996.567,-110.791C1057.6,-100.587 1150.37,-85.078 1207.56,-75.5164"/>
<polygon fill="midnightblue" stroke="midnightblue" points="995.966,-107.342 986.68,-112.444 997.121,-114.247 995.966,-107.342"/>
</g>
<!-- Node19&#45;&gt;Node11 -->
<g id="edge17" class="edge"><title>Node19&#45;&gt;Node11</title>
<path fill="none" stroke="midnightblue" d="M659.5,-45.8045C659.5,-36.9102 659.5,-26.7798 659.5,-19.7511"/>
<polygon fill="midnightblue" stroke="midnightblue" points="656,-46.083 659.5,-56.083 663,-46.083 656,-46.083"/>
</g>
<!-- Node20 -->
<g id="node13" class="node"><title>Node20</title>
<g id="a_node13"><a xlink:href="main_8cpp.html" target="_top" xlink:title="src/main.cpp">
<polygon fill="white" stroke="black" points="530,-0.5 530,-19.5 603,-19.5 603,-0.5 530,-0.5"/>
<text text-anchor="middle" x="566.5" y="-7.5" font-family="Helvetica,sans-Serif" font-size="10.00">src/main.cpp</text>
</a>
</g>
</g>
<!-- Node19&#45;&gt;Node20 -->
<g id="edge16" class="edge"><title>Node19&#45;&gt;Node20</title>
<path fill="none" stroke="midnightblue" d="M635.694,-51.1774C618.581,-41.2407 596.035,-28.1492 581.405,-19.6545"/>
<polygon fill="midnightblue" stroke="midnightblue" points="634.153,-54.3293 644.558,-56.324 637.668,-48.2758 634.153,-54.3293"/>
</g>
<!-- Node21&#45;&gt;Node11 -->
<g id="edge19" class="edge"><title>Node21&#45;&gt;Node11</title>
<path fill="none" stroke="midnightblue" d="M754.493,-52.3678C731.271,-42.2553 699.337,-28.3486 679.056,-19.5164"/>
<polygon fill="midnightblue" stroke="midnightblue" points="753.286,-55.6597 763.852,-56.4435 756.081,-49.2419 753.286,-55.6597"/>
</g>
<!-- Node22 -->
<g id="node15" class="node"><title>Node22</title>
<g id="a_node15"><a xlink:href="_vaisseau_test_8cpp.html" target="_top" xlink:title="src/Vaisseau/VaisseauTest.cpp">
<polygon fill="white" stroke="black" points="716,-0.5 716,-19.5 871,-19.5 871,-0.5 716,-0.5"/>
<text text-anchor="middle" x="793.5" y="-7.5" font-family="Helvetica,sans-Serif" font-size="10.00">src/Vaisseau/VaisseauTest.cpp</text>
</a>
</g>
</g>
<!-- Node21&#45;&gt;Node22 -->
<g id="edge20" class="edge"><title>Node21&#45;&gt;Node22</title>
<path fill="none" stroke="midnightblue" d="M787,-46.1005C788.66,-37.1357 790.563,-26.8579 791.879,-19.7511"/>
<polygon fill="midnightblue" stroke="midnightblue" points="783.531,-45.6128 785.151,-56.083 790.414,-46.8875 783.531,-45.6128"/>
</g>
</g>
</svg>
        <g id="navigator" transform="translate(0 0)" fill="#404254">
                <rect fill="#f2f5e9" fill-opacity="0.5" stroke="#606060" stroke-width=".5" x="0" y="0" width="60" height="60"/>
                <use id="zoomplus" xlink:href="#zoomPlus" x="17" y="9" onmousedown="handleZoom(evt,'in')"/>
                <use id="zoomminus" xlink:href="#zoomMin" x="42" y="9" onmousedown="handleZoom(evt,'out')"/>
                <use id="reset" xlink:href="#resetDef" x="30" y="36" onmousedown="handleReset()"/>
                <g id="arrowUp" xlink:href="#dirArrow" transform="translate(30 24)" onmousedown="handlePan(0,-1)">
                  <use xlink:href="#rim" fill="#404040">
                        <set attributeName="fill" to="#808080" begin="arrowUp.mouseover" end="arrowUp.mouseout"/>
                  </use>
                  <path fill="none" stroke="white" stroke-width="1.5" d="M0,-3.0v7 M-2.5,-0.5L0,-3.0L2.5,-0.5"/>
                </g>
                <g id="arrowRight" xlink:href="#dirArrow" transform="rotate(90) translate(36 -43)" onmousedown="handlePan(1,0)">
                  <use xlink:href="#rim" fill="#404040">
                        <set attributeName="fill" to="#808080" begin="arrowRight.mouseover" end="arrowRight.mouseout"/>
                  </use>
                  <path fill="none" stroke="white" stroke-width="1.5" d="M0,-3.0v7 M-2.5,-0.5L0,-3.0L2.5,-0.5"/>
                </g>
                <g id="arrowDown" xlink:href="#dirArrow" transform="rotate(180) translate(-30 -48)" onmousedown="handlePan(0,1)">
                  <use xlink:href="#rim" fill="#404040">
                        <set attributeName="fill" to="#808080" begin="arrowDown.mouseover" end="arrowDown.mouseout"/>
                  </use>
                  <path fill="none" stroke="white" stroke-width="1.5" d="M0,-3.0v7 M-2.5,-0.5L0,-3.0L2.5,-0.5"/>
                </g>
                <g id="arrowLeft" xlink:href="#dirArrow" transform="rotate(270) translate(-36 17)" onmousedown="handlePan(-1,0)">
                  <use xlink:href="#rim" fill="#404040">
                        <set attributeName="fill" to="#808080" begin="arrowLeft.mouseover" end="arrowLeft.mouseout"/>
                  </use>
                  <path fill="none" stroke="white" stroke-width="1.5" d="M0,-3.0v7 M-2.5,-0.5L0,-3.0L2.5,-0.5"/>
                </g>
        </g>
        <svg viewBox="0 0 15 15" width="100%" height="30px" preserveAspectRatio="xMaxYMin meet">
         <g id="arrow_out" transform="scale(0.3 0.3)">
          <a xlink:href="_capacite_8h__dep__incl_org.svg" target="_base">
           <rect id="button" ry="5" rx="5" y="6" x="6" height="38" width="38"
                fill="#f2f5e9" fill-opacity="0.5" stroke="#606060" stroke-width="1.0"/>
           <path id="arrow"
             d="M 11.500037,31.436501 C 11.940474,20.09759 22.043105,11.32322 32.158766,21.979434 L 37.068811,17.246167 C 37.068811,17.246167 37.088388,32 37.088388,32 L 22.160133,31.978069 C 22.160133,31.978069 26.997745,27.140456 26.997745,27.140456 C 18.528582,18.264221 13.291696,25.230495 11.500037,31.436501 z"
             style="fill:#404040;"/>
          </a>
         </g>
        </svg>
</svg>
