<?xml version="1.0" encoding="UTF-8" standalone="no"?>
<!DOCTYPE svg PUBLIC "-//W3C//DTD SVG 1.1//EN"
 "http://www.w3.org/Graphics/SVG/1.1/DTD/svg11.dtd">
<!-- Generated by graphviz version 2.38.0 (20140413.2041)
 -->
<!-- Title: src/Capacites/Capacite.h Pages: 1 -->
<svg width="459pt" height="196pt"
 viewBox="0.00 0.00 459.00 196.00" xmlns="http://www.w3.org/2000/svg" xmlns:xlink="http://www.w3.org/1999/xlink">
<g id="graph0" class="graph" transform="scale(1 1) rotate(0) translate(4 192)">
<title>src/Capacites/Capacite.h</title>
<polygon fill="white" stroke="none" points="-4,4 -4,-192 455,-192 455,4 -4,4"/>
<!-- Node0 -->
<g id="node1" class="node"><title>Node0</title>
<polygon fill="#bfbfbf" stroke="black" points="0,-168.5 0,-187.5 128,-187.5 128,-168.5 0,-168.5"/>
<text text-anchor="middle" x="64" y="-175.5" font-family="Helvetica,sans-Serif" font-size="10.00">src/Capacites/Capacite.h</text>
</g>
<!-- Node1 -->
<g id="node2" class="node"><title>Node1</title>
<polygon fill="white" stroke="#bfbfbf" points="7,-0.5 7,-19.5 51,-19.5 51,-0.5 7,-0.5"/>
<text text-anchor="middle" x="29" y="-7.5" font-family="Helvetica,sans-Serif" font-size="10.00">vector</text>
</g>
<!-- Node0&#45;&gt;Node1 -->
<g id="edge1" class="edge"><title>Node0&#45;&gt;Node1</title>
<path fill="none" stroke="midnightblue" d="M56.5694,-168.299C42.9351,-151.693 14.3702,-113.761 4,-76 -0.586176,-59.3004 7.78593,-40.9397 16.0515,-28.0045"/>
<polygon fill="midnightblue" stroke="midnightblue" points="19.0283,-29.8541 21.8644,-19.6458 13.2814,-25.8574 19.0283,-29.8541"/>
</g>
<!-- Node2 -->
<g id="node3" class="node"><title>Node2</title>
<polygon fill="white" stroke="#bfbfbf" points="13.5,-56.5 13.5,-75.5 54.5,-75.5 54.5,-56.5 13.5,-56.5"/>
<text text-anchor="middle" x="34" y="-63.5" font-family="Helvetica,sans-Serif" font-size="10.00">string</text>
</g>
<!-- Node0&#45;&gt;Node2 -->
<g id="edge2" class="edge"><title>Node0&#45;&gt;Node2</title>
<path fill="none" stroke="midnightblue" d="M61.1612,-168.419C58.2166,-159.398 53.5544,-144.769 50,-132 45.7095,-116.586 41.4063,-98.9525 38.345,-85.9442"/>
<polygon fill="midnightblue" stroke="midnightblue" points="41.6781,-84.824 36.006,-75.8754 34.8596,-86.408 41.6781,-84.824"/>
</g>
<!-- Node3 -->
<g id="node4" class="node"><title>Node3</title>
<polygon fill="white" stroke="#bfbfbf" points="73,-56.5 73,-75.5 129,-75.5 129,-56.5 73,-56.5"/>
<text text-anchor="middle" x="101" y="-63.5" font-family="Helvetica,sans-Serif" font-size="10.00">algorithm</text>
</g>
<!-- Node0&#45;&gt;Node3 -->
<g id="edge3" class="edge"><title>Node0&#45;&gt;Node3</title>
<path fill="none" stroke="midnightblue" d="M66.3146,-168.084C69.6524,-155.479 76.1702,-131.782 83,-112 86.1279,-102.94 90.0359,-93.0338 93.4106,-84.8277"/>
<polygon fill="midnightblue" stroke="midnightblue" points="96.6679,-86.1102 97.301,-75.5343 90.2109,-83.4071 96.6679,-86.1102"/>
</g>
<!-- Node4 -->
<g id="node5" class="node"><title>Node4</title>
<g id="a_node5"><a xlink:href="_projectile_8h.html" target="_top" target="_top" xlink:title="../Projectiles/Projectile.h">
<polygon fill="white" stroke="black" points="92.5,-112.5 92.5,-131.5 215.5,-131.5 215.5,-112.5 92.5,-112.5"/>
<text text-anchor="middle" x="154" y="-119.5" font-family="Helvetica,sans-Serif" font-size="10.00">../Projectiles/Projectile.h</text>
</a>
</g>
</g>
<!-- Node0&#45;&gt;Node4 -->
<g id="edge4" class="edge"><title>Node0&#45;&gt;Node4</title>
<path fill="none" stroke="midnightblue" d="M78.4601,-168.324C92.4996,-159.9 114.048,-146.971 130.543,-137.074"/>
<polygon fill="midnightblue" stroke="midnightblue" points="132.802,-139.801 139.576,-131.655 129.2,-133.798 132.802,-139.801"/>
</g>
<!-- Node5 -->
<g id="node6" class="node"><title>Node5</title>
<g id="a_node6"><a xlink:href="_entite_8h.html" target="_top" target="_top" xlink:title="../Entite.h">
<polygon fill="white" stroke="black" points="198.5,-56.5 198.5,-75.5 257.5,-75.5 257.5,-56.5 198.5,-56.5"/>
<text text-anchor="middle" x="228" y="-63.5" font-family="Helvetica,sans-Serif" font-size="10.00">../Entite.h</text>
</a>
</g>
</g>
<!-- Node0&#45;&gt;Node5 -->
<g id="edge14" class="edge"><title>Node0&#45;&gt;Node5</title>
<path fill="none" stroke="midnightblue" d="M119.074,-168.449C159.901,-160.892 210.68,-148.504 224,-132 234.309,-119.226 234.212,-100.035 232.195,-85.8131"/>
<polygon fill="midnightblue" stroke="midnightblue" points="235.584,-84.8907 230.329,-75.6911 228.7,-86.1599 235.584,-84.8907"/>
</g>
<!-- Node4&#45;&gt;Node1 -->
<g id="edge5" class="edge"><title>Node4&#45;&gt;Node1</title>
<path fill="none" stroke="midnightblue" d="M154.224,-112.315C154.109,-98.6985 151.944,-72.2122 138,-56 127.597,-43.904 89.458,-29.8566 61.2123,-20.7176"/>
<polygon fill="midnightblue" stroke="midnightblue" points="61.9133,-17.2683 51.3232,-17.5853 59.7996,-23.9416 61.9133,-17.2683"/>
</g>
<!-- Node4&#45;&gt;Node2 -->
<g id="edge6" class="edge"><title>Node4&#45;&gt;Node2</title>
<path fill="none" stroke="midnightblue" d="M134.986,-112.444C115.412,-103.636 84.6924,-89.8116 62.2711,-79.722"/>
<polygon fill="midnightblue" stroke="midnightblue" points="63.4809,-76.4284 52.9254,-75.5164 60.6083,-82.8119 63.4809,-76.4284"/>
</g>
<!-- Node4&#45;&gt;Node3 -->
<g id="edge7" class="edge"><title>Node4&#45;&gt;Node3</title>
<path fill="none" stroke="midnightblue" d="M145.248,-112.083C137.53,-104.22 126.095,-92.5688 116.783,-83.0813"/>
<polygon fill="midnightblue" stroke="midnightblue" points="119.092,-80.4363 109.589,-75.7511 114.096,-85.3396 119.092,-80.4363"/>
</g>
<!-- Node4&#45;&gt;Node5 -->
<g id="edge8" class="edge"><title>Node4&#45;&gt;Node5</title>
<path fill="none" stroke="midnightblue" d="M165.889,-112.324C177.15,-104.107 194.287,-91.6017 207.709,-81.8069"/>
<polygon fill="midnightblue" stroke="midnightblue" points="209.88,-84.5559 215.894,-75.8339 205.753,-78.9014 209.88,-84.5559"/>
</g>
<!-- Node5&#45;&gt;Node1 -->
<g id="edge9" class="edge"><title>Node5&#45;&gt;Node1</title>
<path fill="none" stroke="midnightblue" d="M198.209,-57.2207C166.49,-48.894 114.585,-35.1433 61.001,-20.2405"/>
<polygon fill="midnightblue" stroke="midnightblue" points="61.9079,-16.8599 51.3352,-17.5446 60.0272,-23.6026 61.9079,-16.8599"/>
</g>
<!-- Node6 -->
<g id="node7" class="node"><title>Node6</title>
<polygon fill="white" stroke="#bfbfbf" points="283,-0.5 283,-19.5 335,-19.5 335,-0.5 283,-0.5"/>
<text text-anchor="middle" x="309" y="-7.5" font-family="Helvetica,sans-Serif" font-size="10.00">memory</text>
</g>
<!-- Node5&#45;&gt;Node6 -->
<g id="edge10" class="edge"><title>Node5&#45;&gt;Node6</title>
<path fill="none" stroke="midnightblue" d="M241.014,-56.324C253.532,-47.979 272.682,-35.2122 287.471,-25.3524"/>
<polygon fill="midnightblue" stroke="midnightblue" points="289.639,-28.1137 296.018,-19.6545 285.756,-22.2894 289.639,-28.1137"/>
</g>
<!-- Node7 -->
<g id="node8" class="node"><title>Node7</title>
<polygon fill="white" stroke="#bfbfbf" points="353,-0.5 353,-19.5 451,-19.5 451,-0.5 353,-0.5"/>
<text text-anchor="middle" x="402" y="-7.5" font-family="Helvetica,sans-Serif" font-size="10.00">SFML/System.hpp</text>
</g>
<!-- Node5&#45;&gt;Node7 -->
<g id="edge11" class="edge"><title>Node5&#45;&gt;Node7</title>
<path fill="none" stroke="midnightblue" d="M255.571,-56.4435C285.097,-47.2801 332.118,-32.6876 364.883,-22.5192"/>
<polygon fill="midnightblue" stroke="midnightblue" points="366.045,-25.8232 374.558,-19.5164 363.97,-19.1378 366.045,-25.8232"/>
</g>
<!-- Node8 -->
<g id="node9" class="node"><title>Node8</title>
<polygon fill="white" stroke="#bfbfbf" points="69,-0.5 69,-19.5 173,-19.5 173,-0.5 69,-0.5"/>
<text text-anchor="middle" x="121" y="-7.5" font-family="Helvetica,sans-Serif" font-size="10.00">SFML/Graphics.hpp</text>
</g>
<!-- Node5&#45;&gt;Node8 -->
<g id="edge12" class="edge"><title>Node5&#45;&gt;Node8</title>
<path fill="none" stroke="midnightblue" d="M210.809,-56.324C193.649,-47.6641 167.054,-34.2424 147.253,-24.249"/>
<polygon fill="midnightblue" stroke="midnightblue" points="148.653,-21.0354 138.149,-19.6545 145.499,-27.2847 148.653,-21.0354"/>
</g>
<!-- Node9 -->
<g id="node10" class="node"><title>Node9</title>
<g id="a_node10"><a xlink:href="constantes_8h.html" target="_top" target="_top" xlink:title="constantes.h">
<polygon fill="white" stroke="black" points="191.5,-0.5 191.5,-19.5 264.5,-19.5 264.5,-0.5 191.5,-0.5"/>
<text text-anchor="middle" x="228" y="-7.5" font-family="Helvetica,sans-Serif" font-size="10.00">constantes.h</text>
</a>
</g>
</g>
<!-- Node5&#45;&gt;Node9 -->
<g id="edge13" class="edge"><title>Node5&#45;&gt;Node9</title>
<path fill="none" stroke="midnightblue" d="M228,-56.083C228,-49.0059 228,-38.8611 228,-29.9865"/>
<polygon fill="midnightblue" stroke="midnightblue" points="231.5,-29.751 228,-19.7511 224.5,-29.7511 231.5,-29.751"/>
</g>
</g>
</svg>
