<?xml version="1.0" encoding="UTF-8" standalone="no"?>
<!DOCTYPE svg PUBLIC "-//W3C//DTD SVG 1.1//EN"
 "http://www.w3.org/Graphics/SVG/1.1/DTD/svg11.dtd">
<!-- Generated by graphviz version 2.38.0 (20140413.2041)
 -->
<!-- Title: src/Capacites/CapMissile.h Pages: 1 -->
<svg width="528pt" height="308pt"
 viewBox="0.00 0.00 528.00 308.00" xmlns="http://www.w3.org/2000/svg" xmlns:xlink="http://www.w3.org/1999/xlink">
<g id="graph0" class="graph" transform="scale(1 1) rotate(0) translate(4 304)">
<title>src/Capacites/CapMissile.h</title>
<polygon fill="white" stroke="none" points="-4,4 -4,-304 524,-304 524,4 -4,4"/>
<!-- Node12 -->
<g id="node1" class="node"><title>Node12</title>
<polygon fill="#bfbfbf" stroke="black" points="161.5,-280.5 161.5,-299.5 298.5,-299.5 298.5,-280.5 161.5,-280.5"/>
<text text-anchor="middle" x="230" y="-287.5" font-family="Helvetica,sans-Serif" font-size="10.00">src/Capacites/CapMissile.h</text>
</g>
<!-- Node13 -->
<g id="node2" class="node"><title>Node13</title>
<g id="a_node2"><a xlink:href="___capacites_8h.html" target="_top" xlink:title="src/Capacites/_Capacites.h">
<polygon fill="white" stroke="black" points="0,-224.5 0,-243.5 138,-243.5 138,-224.5 0,-224.5"/>
<text text-anchor="middle" x="69" y="-231.5" font-family="Helvetica,sans-Serif" font-size="10.00">src/Capacites/_Capacites.h</text>
</a>
</g>
</g>
<!-- Node12&#45;&gt;Node13 -->
<g id="edge1" class="edge"><title>Node12&#45;&gt;Node13</title>
<path fill="none" stroke="midnightblue" d="M194.735,-277.172C164.419,-267.004 121.43,-252.585 94.3916,-243.516"/>
<polygon fill="midnightblue" stroke="midnightblue" points="193.895,-280.582 204.489,-280.444 196.121,-273.945 193.895,-280.582"/>
</g>
<!-- Node20 -->
<g id="node9" class="node"><title>Node20</title>
<g id="a_node9"><a xlink:href="_cap_missile_8cpp.html" target="_top" xlink:title="src/Capacites/CapMissile.cpp">
<polygon fill="white" stroke="black" points="156,-224.5 156,-243.5 304,-243.5 304,-224.5 156,-224.5"/>
<text text-anchor="middle" x="230" y="-231.5" font-family="Helvetica,sans-Serif" font-size="10.00">src/Capacites/CapMissile.cpp</text>
</a>
</g>
</g>
<!-- Node12&#45;&gt;Node20 -->
<g id="edge10" class="edge"><title>Node12&#45;&gt;Node20</title>
<path fill="none" stroke="midnightblue" d="M230,-269.805C230,-260.91 230,-250.78 230,-243.751"/>
<polygon fill="midnightblue" stroke="midnightblue" points="226.5,-270.083 230,-280.083 233.5,-270.083 226.5,-270.083"/>
</g>
<!-- Node21 -->
<g id="node10" class="node"><title>Node21</title>
<g id="a_node10"><a xlink:href="_vaisseau_attaquant_8h.html" target="_top" xlink:title="src/Vaisseau/VaisseauAttaquant.h">
<polygon fill="white" stroke="black" points="322.5,-224.5 322.5,-243.5 489.5,-243.5 489.5,-224.5 322.5,-224.5"/>
<text text-anchor="middle" x="406" y="-231.5" font-family="Helvetica,sans-Serif" font-size="10.00">src/Vaisseau/VaisseauAttaquant.h</text>
</a>
</g>
</g>
<!-- Node12&#45;&gt;Node21 -->
<g id="edge11" class="edge"><title>Node12&#45;&gt;Node21</title>
<path fill="none" stroke="midnightblue" d="M267.689,-277.436C300.872,-267.255 348.428,-252.664 378.243,-243.516"/>
<polygon fill="midnightblue" stroke="midnightblue" points="266.421,-274.164 257.888,-280.444 268.475,-280.856 266.421,-274.164"/>
</g>
<!-- Node14 -->
<g id="node3" class="node"><title>Node14</title>
<g id="a_node3"><a xlink:href="_partie_8cpp.html" target="_top" xlink:title="src/Partie.cpp">
<polygon fill="white" stroke="black" points="187.5,-0.5 187.5,-19.5 264.5,-19.5 264.5,-0.5 187.5,-0.5"/>
<text text-anchor="middle" x="226" y="-7.5" font-family="Helvetica,sans-Serif" font-size="10.00">src/Partie.cpp</text>
</a>
</g>
</g>
<!-- Node13&#45;&gt;Node14 -->
<g id="edge2" class="edge"><title>Node13&#45;&gt;Node14</title>
<path fill="none" stroke="midnightblue" d="M62.6851,-214.768C55.2273,-189.84 45.9589,-144.508 64,-112 92.2256,-61.1407 157.887,-32.5468 196.391,-19.593"/>
<polygon fill="midnightblue" stroke="midnightblue" points="59.3858,-215.941 65.7827,-224.387 66.0489,-213.796 59.3858,-215.941"/>
</g>
<!-- Node15 -->
<g id="node4" class="node"><title>Node15</title>
<g id="a_node4"><a xlink:href="_vaisseau_test_8h.html" target="_top" xlink:title="src/Vaisseau/VaisseauTest.h">
<polygon fill="white" stroke="black" points="78.5,-168.5 78.5,-187.5 223.5,-187.5 223.5,-168.5 78.5,-168.5"/>
<text text-anchor="middle" x="151" y="-175.5" font-family="Helvetica,sans-Serif" font-size="10.00">src/Vaisseau/VaisseauTest.h</text>
</a>
</g>
</g>
<!-- Node13&#45;&gt;Node15 -->
<g id="edge3" class="edge"><title>Node13&#45;&gt;Node15</title>
<path fill="none" stroke="midnightblue" d="M90.8331,-218.622C105.813,-208.757 125.197,-195.992 137.858,-187.655"/>
<polygon fill="midnightblue" stroke="midnightblue" points="88.6015,-215.901 82.1747,-224.324 92.4514,-221.747 88.6015,-215.901"/>
</g>
<!-- Node16 -->
<g id="node5" class="node"><title>Node16</title>
<g id="a_node5"><a xlink:href="__vaisseaux_8h.html" target="_top" xlink:title="src/Vaisseau/_vaisseaux.h">
<polygon fill="white" stroke="black" points="247,-112.5 247,-131.5 381,-131.5 381,-112.5 247,-112.5"/>
<text text-anchor="middle" x="314" y="-119.5" font-family="Helvetica,sans-Serif" font-size="10.00">src/Vaisseau/_vaisseaux.h</text>
</a>
</g>
</g>
<!-- Node15&#45;&gt;Node16 -->
<g id="edge4" class="edge"><title>Node15&#45;&gt;Node16</title>
<path fill="none" stroke="midnightblue" d="M186.703,-165.172C217.396,-155.004 260.919,-140.585 288.293,-131.516"/>
<polygon fill="midnightblue" stroke="midnightblue" points="185.22,-161.976 176.828,-168.444 187.421,-168.621 185.22,-161.976"/>
</g>
<!-- Node19 -->
<g id="node8" class="node"><title>Node19</title>
<g id="a_node8"><a xlink:href="_vaisseau_test_8cpp.html" target="_top" xlink:title="src/Vaisseau/VaisseauTest.cpp">
<polygon fill="white" stroke="black" points="73.5,-112.5 73.5,-131.5 228.5,-131.5 228.5,-112.5 73.5,-112.5"/>
<text text-anchor="middle" x="151" y="-119.5" font-family="Helvetica,sans-Serif" font-size="10.00">src/Vaisseau/VaisseauTest.cpp</text>
</a>
</g>
</g>
<!-- Node15&#45;&gt;Node19 -->
<g id="edge9" class="edge"><title>Node15&#45;&gt;Node19</title>
<path fill="none" stroke="midnightblue" d="M151,-157.805C151,-148.91 151,-138.78 151,-131.751"/>
<polygon fill="midnightblue" stroke="midnightblue" points="147.5,-158.083 151,-168.083 154.5,-158.083 147.5,-158.083"/>
</g>
<!-- Node16&#45;&gt;Node14 -->
<g id="edge5" class="edge"><title>Node16&#45;&gt;Node14</title>
<path fill="none" stroke="midnightblue" d="M297.683,-105.162C289.363,-96.7841 279.28,-86.1538 271,-76 255.387,-56.8538 239.482,-32.497 231.415,-19.7225"/>
<polygon fill="midnightblue" stroke="midnightblue" points="295.437,-107.863 305.004,-112.414 300.363,-102.89 295.437,-107.863"/>
</g>
<!-- Node17 -->
<g id="node6" class="node"><title>Node17</title>
<g id="a_node6"><a xlink:href="vague_8h.html" target="_top" xlink:title="src/vague.h">
<polygon fill="white" stroke="black" points="280,-56.5 280,-75.5 348,-75.5 348,-56.5 280,-56.5"/>
<text text-anchor="middle" x="314" y="-63.5" font-family="Helvetica,sans-Serif" font-size="10.00">src/vague.h</text>
</a>
</g>
</g>
<!-- Node16&#45;&gt;Node17 -->
<g id="edge6" class="edge"><title>Node16&#45;&gt;Node17</title>
<path fill="none" stroke="midnightblue" d="M314,-101.805C314,-92.9102 314,-82.7798 314,-75.7511"/>
<polygon fill="midnightblue" stroke="midnightblue" points="310.5,-102.083 314,-112.083 317.5,-102.083 310.5,-102.083"/>
</g>
<!-- Node17&#45;&gt;Node14 -->
<g id="edge7" class="edge"><title>Node17&#45;&gt;Node14</title>
<path fill="none" stroke="midnightblue" d="M291.023,-50.9005C274.887,-40.9986 253.819,-28.0705 240.104,-19.6545"/>
<polygon fill="midnightblue" stroke="midnightblue" points="289.507,-54.0769 299.861,-56.324 293.169,-48.1106 289.507,-54.0769"/>
</g>
<!-- Node18 -->
<g id="node7" class="node"><title>Node18</title>
<g id="a_node7"><a xlink:href="vague_8cpp.html" target="_top" xlink:title="src/vague.cpp">
<polygon fill="white" stroke="black" points="283,-0.5 283,-19.5 361,-19.5 361,-0.5 283,-0.5"/>
<text text-anchor="middle" x="322" y="-7.5" font-family="Helvetica,sans-Serif" font-size="10.00">src/vague.cpp</text>
</a>
</g>
</g>
<!-- Node17&#45;&gt;Node18 -->
<g id="edge8" class="edge"><title>Node17&#45;&gt;Node18</title>
<path fill="none" stroke="midnightblue" d="M316.8,-46.1005C318.128,-37.1357 319.651,-26.8579 320.704,-19.7511"/>
<polygon fill="midnightblue" stroke="midnightblue" points="313.324,-45.678 315.321,-56.083 320.249,-46.7039 313.324,-45.678"/>
</g>
<!-- Node21&#45;&gt;Node16 -->
<g id="edge12" class="edge"><title>Node21&#45;&gt;Node16</title>
<path fill="none" stroke="midnightblue" d="M374.563,-220.072C360.028,-212.646 343.662,-201.986 333,-188 320.027,-170.984 315.897,-145.309 314.593,-131.888"/>
<polygon fill="midnightblue" stroke="midnightblue" points="373.241,-223.319 383.772,-224.487 376.268,-217.007 373.241,-223.319"/>
</g>
<!-- Node22 -->
<g id="node11" class="node"><title>Node22</title>
<g id="a_node11"><a xlink:href="_vaisseau_attaquant_8cpp.html" target="_top" xlink:title="src/Vaisseau/VaisseauAttaquant.cpp">
<polygon fill="white" stroke="black" points="342,-168.5 342,-187.5 520,-187.5 520,-168.5 342,-168.5"/>
<text text-anchor="middle" x="431" y="-175.5" font-family="Helvetica,sans-Serif" font-size="10.00">src/Vaisseau/VaisseauAttaquant.cpp</text>
</a>
</g>
</g>
<!-- Node21&#45;&gt;Node22 -->
<g id="edge13" class="edge"><title>Node21&#45;&gt;Node22</title>
<path fill="none" stroke="midnightblue" d="M414.341,-214.983C418.585,-205.817 423.55,-195.092 426.949,-187.751"/>
<polygon fill="midnightblue" stroke="midnightblue" points="411.153,-213.538 410.128,-224.083 417.506,-216.479 411.153,-213.538"/>
</g>
</g>
</svg>
