<?xml version="1.0" encoding="UTF-8" standalone="no"?>
<!DOCTYPE svg PUBLIC "-//W3C//DTD SVG 1.1//EN"
 "http://www.w3.org/Graphics/SVG/1.1/DTD/svg11.dtd">
<!-- Generated by graphviz version 2.38.0 (20140413.2041)
 -->
<!-- Title: src/Capacites/CapDash.h Pages: 1 -->
<svg width="424pt" height="252pt"
 viewBox="0.00 0.00 424.27 252.00" xmlns="http://www.w3.org/2000/svg" xmlns:xlink="http://www.w3.org/1999/xlink">
<g id="graph0" class="graph" transform="scale(1 1) rotate(0) translate(4 248)">
<title>src/Capacites/CapDash.h</title>
<polygon fill="white" stroke="none" points="-4,4 -4,-248 420.266,-248 420.266,4 -4,4"/>
<!-- Node0 -->
<g id="node1" class="node"><title>Node0</title>
<polygon fill="#bfbfbf" stroke="black" points="113.266,-224.5 113.266,-243.5 243.266,-243.5 243.266,-224.5 113.266,-224.5"/>
<text text-anchor="middle" x="178.266" y="-231.5" font-family="Helvetica,sans-Serif" font-size="10.00">src/Capacites/CapDash.h</text>
</g>
<!-- Node1 -->
<g id="node2" class="node"><title>Node1</title>
<g id="a_node2"><a xlink:href="_capacite_8h.html" target="_top" xlink:title="Capacite.h">
<polygon fill="white" stroke="black" points="36.2657,-168.5 36.2657,-187.5 100.266,-187.5 100.266,-168.5 36.2657,-168.5"/>
<text text-anchor="middle" x="68.2657" y="-175.5" font-family="Helvetica,sans-Serif" font-size="10.00">Capacite.h</text>
</a>
</g>
</g>
<!-- Node0&#45;&gt;Node1 -->
<g id="edge1" class="edge"><title>Node0&#45;&gt;Node1</title>
<path fill="none" stroke="midnightblue" d="M160.592,-224.324C142.872,-215.625 115.363,-202.12 94.9774,-192.113"/>
<polygon fill="midnightblue" stroke="midnightblue" points="96.4144,-188.919 85.8953,-187.655 93.3296,-195.203 96.4144,-188.919"/>
</g>
<!-- Node6 -->
<g id="node7" class="node"><title>Node6</title>
<g id="a_node7"><a xlink:href="_entite_8h.html" target="_top" xlink:title="../Entite.h">
<polygon fill="white" stroke="black" points="218.766,-56.5 218.766,-75.5 277.766,-75.5 277.766,-56.5 218.766,-56.5"/>
<text text-anchor="middle" x="248.266" y="-63.5" font-family="Helvetica,sans-Serif" font-size="10.00">../Entite.h</text>
</a>
</g>
</g>
<!-- Node0&#45;&gt;Node6 -->
<g id="edge14" class="edge"><title>Node0&#45;&gt;Node6</title>
<path fill="none" stroke="midnightblue" d="M201.101,-224.404C216.729,-217.215 236.35,-205.324 246.266,-188 264.639,-155.901 258.689,-110.731 253.18,-85.6453"/>
<polygon fill="midnightblue" stroke="midnightblue" points="256.516,-84.5518 250.768,-75.6518 249.712,-86.1938 256.516,-84.5518"/>
</g>
<!-- Node9 -->
<g id="node10" class="node"><title>Node9</title>
<g id="a_node10"><a xlink:href="_proj_test_8h.html" target="_top" xlink:title="../Projectiles/ProjTest.h">
<polygon fill="white" stroke="black" points="118.766,-168.5 118.766,-187.5 237.766,-187.5 237.766,-168.5 118.766,-168.5"/>
<text text-anchor="middle" x="178.266" y="-175.5" font-family="Helvetica,sans-Serif" font-size="10.00">../Projectiles/ProjTest.h</text>
</a>
</g>
</g>
<!-- Node0&#45;&gt;Node9 -->
<g id="edge15" class="edge"><title>Node0&#45;&gt;Node9</title>
<path fill="none" stroke="midnightblue" d="M178.266,-224.083C178.266,-217.006 178.266,-206.861 178.266,-197.986"/>
<polygon fill="midnightblue" stroke="midnightblue" points="181.766,-197.751 178.266,-187.751 174.766,-197.751 181.766,-197.751"/>
</g>
<!-- Node2 -->
<g id="node3" class="node"><title>Node2</title>
<polygon fill="white" stroke="#bfbfbf" points="134.266,-0.5 134.266,-19.5 178.266,-19.5 178.266,-0.5 134.266,-0.5"/>
<text text-anchor="middle" x="156.266" y="-7.5" font-family="Helvetica,sans-Serif" font-size="10.00">vector</text>
</g>
<!-- Node1&#45;&gt;Node2 -->
<g id="edge2" class="edge"><title>Node1&#45;&gt;Node2</title>
<path fill="none" stroke="midnightblue" d="M57.6184,-168.199C33.7249,-147.39 -19.9369,-94.0527 8.26575,-56 34.7859,-20.2175 89.0578,-11.9111 123.995,-10.4985"/>
<polygon fill="midnightblue" stroke="midnightblue" points="124.25,-13.9936 134.164,-10.2587 124.085,-6.99555 124.25,-13.9936"/>
</g>
<!-- Node3 -->
<g id="node4" class="node"><title>Node3</title>
<polygon fill="white" stroke="#bfbfbf" points="91.7657,-56.5 91.7657,-75.5 132.766,-75.5 132.766,-56.5 91.7657,-56.5"/>
<text text-anchor="middle" x="112.266" y="-63.5" font-family="Helvetica,sans-Serif" font-size="10.00">string</text>
</g>
<!-- Node1&#45;&gt;Node3 -->
<g id="edge3" class="edge"><title>Node1&#45;&gt;Node3</title>
<path fill="none" stroke="midnightblue" d="M70.1382,-168.378C73.0286,-155.729 79.1078,-131.527 87.2657,-112 91.2277,-102.517 96.6751,-92.4726 101.474,-84.2853"/>
<polygon fill="midnightblue" stroke="midnightblue" points="104.503,-86.0404 106.681,-75.6719 98.5122,-82.4188 104.503,-86.0404"/>
</g>
<!-- Node4 -->
<g id="node5" class="node"><title>Node4</title>
<polygon fill="white" stroke="#bfbfbf" points="17.2657,-56.5 17.2657,-75.5 73.2657,-75.5 73.2657,-56.5 17.2657,-56.5"/>
<text text-anchor="middle" x="45.2657" y="-63.5" font-family="Helvetica,sans-Serif" font-size="10.00">algorithm</text>
</g>
<!-- Node1&#45;&gt;Node4 -->
<g id="edge4" class="edge"><title>Node1&#45;&gt;Node4</title>
<path fill="none" stroke="midnightblue" d="M65.1571,-168.486C61.9925,-159.52 57.1532,-144.936 54.2657,-132 50.8491,-116.693 48.5044,-99.0507 47.0668,-86.0122"/>
<polygon fill="midnightblue" stroke="midnightblue" points="50.5333,-85.5051 46.0329,-75.9136 43.5697,-86.2181 50.5333,-85.5051"/>
</g>
<!-- Node5 -->
<g id="node6" class="node"><title>Node5</title>
<g id="a_node6"><a xlink:href="_projectile_8h.html" target="_top" xlink:title="../Projectiles/Projectile.h">
<polygon fill="white" stroke="black" points="96.7657,-112.5 96.7657,-131.5 219.766,-131.5 219.766,-112.5 96.7657,-112.5"/>
<text text-anchor="middle" x="158.266" y="-119.5" font-family="Helvetica,sans-Serif" font-size="10.00">../Projectiles/Projectile.h</text>
</a>
</g>
</g>
<!-- Node1&#45;&gt;Node5 -->
<g id="edge5" class="edge"><title>Node1&#45;&gt;Node5</title>
<path fill="none" stroke="midnightblue" d="M82.7258,-168.324C96.7654,-159.9 118.314,-146.971 134.809,-137.074"/>
<polygon fill="midnightblue" stroke="midnightblue" points="137.067,-139.801 143.842,-131.655 133.466,-133.798 137.067,-139.801"/>
</g>
<!-- Node1&#45;&gt;Node6 -->
<g id="edge13" class="edge"><title>Node1&#45;&gt;Node6</title>
<path fill="none" stroke="midnightblue" d="M100.475,-169.683C144.482,-159.426 219.025,-141.019 228.266,-132 240.534,-120.027 245.319,-100.728 247.164,-86.2633"/>
<polygon fill="midnightblue" stroke="midnightblue" points="250.683,-86.2068 248.099,-75.9319 243.711,-85.5755 250.683,-86.2068"/>
</g>
<!-- Node5&#45;&gt;Node2 -->
<g id="edge6" class="edge"><title>Node5&#45;&gt;Node2</title>
<path fill="none" stroke="midnightblue" d="M158.109,-112.368C157.786,-94.617 157.041,-53.6664 156.604,-29.5974"/>
<polygon fill="midnightblue" stroke="midnightblue" points="160.103,-29.5261 156.422,-19.5914 153.104,-29.6534 160.103,-29.5261"/>
</g>
<!-- Node5&#45;&gt;Node3 -->
<g id="edge7" class="edge"><title>Node5&#45;&gt;Node3</title>
<path fill="none" stroke="midnightblue" d="M150.67,-112.083C144.038,-104.298 134.245,-92.8015 126.208,-83.3665"/>
<polygon fill="midnightblue" stroke="midnightblue" points="128.869,-81.0939 119.72,-75.7511 123.541,-85.6332 128.869,-81.0939"/>
</g>
<!-- Node5&#45;&gt;Node4 -->
<g id="edge8" class="edge"><title>Node5&#45;&gt;Node4</title>
<path fill="none" stroke="midnightblue" d="M140.361,-112.444C122.012,-103.675 93.2603,-89.9355 72.1722,-79.8579"/>
<polygon fill="midnightblue" stroke="midnightblue" points="73.619,-76.6703 63.0872,-75.5164 70.6007,-82.9862 73.619,-76.6703"/>
</g>
<!-- Node5&#45;&gt;Node6 -->
<g id="edge9" class="edge"><title>Node5&#45;&gt;Node6</title>
<path fill="none" stroke="midnightblue" d="M172.726,-112.324C186.765,-103.9 208.314,-90.9709 224.809,-81.0741"/>
<polygon fill="midnightblue" stroke="midnightblue" points="227.067,-83.8007 233.842,-75.6545 223.466,-77.7983 227.067,-83.8007"/>
</g>
<!-- Node6&#45;&gt;Node2 -->
<g id="edge10" class="edge"><title>Node6&#45;&gt;Node2</title>
<path fill="none" stroke="midnightblue" d="M233.484,-56.324C218.999,-47.8215 196.693,-34.7288 179.773,-24.7975"/>
<polygon fill="midnightblue" stroke="midnightblue" points="181.406,-21.6981 171.01,-19.6545 177.863,-27.735 181.406,-21.6981"/>
</g>
<!-- Node7 -->
<g id="node8" class="node"><title>Node7</title>
<polygon fill="white" stroke="#bfbfbf" points="318.266,-0.5 318.266,-19.5 416.266,-19.5 416.266,-0.5 318.266,-0.5"/>
<text text-anchor="middle" x="367.266" y="-7.5" font-family="Helvetica,sans-Serif" font-size="10.00">SFML/System.hpp</text>
</g>
<!-- Node6&#45;&gt;Node7 -->
<g id="edge11" class="edge"><title>Node6&#45;&gt;Node7</title>
<path fill="none" stroke="midnightblue" d="M267.122,-56.4435C286.532,-47.6356 316.996,-33.8116 339.23,-23.722"/>
<polygon fill="midnightblue" stroke="midnightblue" points="340.838,-26.836 348.498,-19.5164 337.945,-20.4615 340.838,-26.836"/>
</g>
<!-- Node8 -->
<g id="node9" class="node"><title>Node8</title>
<polygon fill="white" stroke="#bfbfbf" points="196.266,-0.5 196.266,-19.5 300.266,-19.5 300.266,-0.5 196.266,-0.5"/>
<text text-anchor="middle" x="248.266" y="-7.5" font-family="Helvetica,sans-Serif" font-size="10.00">SFML/Graphics.hpp</text>
</g>
<!-- Node6&#45;&gt;Node8 -->
<g id="edge12" class="edge"><title>Node6&#45;&gt;Node8</title>
<path fill="none" stroke="midnightblue" d="M248.266,-56.083C248.266,-49.0059 248.266,-38.8611 248.266,-29.9865"/>
<polygon fill="midnightblue" stroke="midnightblue" points="251.766,-29.751 248.266,-19.7511 244.766,-29.7511 251.766,-29.751"/>
</g>
<!-- Node9&#45;&gt;Node5 -->
<g id="edge16" class="edge"><title>Node9&#45;&gt;Node5</title>
<path fill="none" stroke="midnightblue" d="M174.963,-168.083C172.284,-160.849 168.417,-150.409 165.079,-141.397"/>
<polygon fill="midnightblue" stroke="midnightblue" points="168.262,-139.913 161.507,-131.751 161.698,-142.344 168.262,-139.913"/>
</g>
</g>
</svg>
