<?xml version="1.0" encoding="UTF-8" standalone="no"?>
<!DOCTYPE svg PUBLIC "-//W3C//DTD SVG 1.1//EN"
 "http://www.w3.org/Graphics/SVG/1.1/DTD/svg11.dtd">
<!-- Generated by graphviz version 2.38.0 (20140413.2041)
 -->
<!-- Title: src/Capacites/CapPiou.h Pages: 1 -->
<svg width="302pt" height="140pt"
 viewBox="0.00 0.00 301.50 140.00" xmlns="http://www.w3.org/2000/svg" xmlns:xlink="http://www.w3.org/1999/xlink">
<g id="graph0" class="graph" transform="scale(1 1) rotate(0) translate(4 136)">
<title>src/Capacites/CapPiou.h</title>
<polygon fill="white" stroke="none" points="-4,4 -4,-136 297.5,-136 297.5,4 -4,4"/>
<!-- Node12 -->
<g id="node1" class="node"><title>Node12</title>
<polygon fill="#bfbfbf" stroke="black" points="84,-112.5 84,-131.5 210,-131.5 210,-112.5 84,-112.5"/>
<text text-anchor="middle" x="147" y="-119.5" font-family="Helvetica,sans-Serif" font-size="10.00">src/Capacites/CapPiou.h</text>
</g>
<!-- Node13 -->
<g id="node2" class="node"><title>Node13</title>
<g id="a_node2"><a xlink:href="___capacites_8h.html" target="_top" xlink:title="src/Capacites/_Capacites.h">
<polygon fill="white" stroke="black" points="0,-56.5 0,-75.5 138,-75.5 138,-56.5 0,-56.5"/>
<text text-anchor="middle" x="69" y="-63.5" font-family="Helvetica,sans-Serif" font-size="10.00">src/Capacites/_Capacites.h</text>
</a>
</g>
</g>
<!-- Node12&#45;&gt;Node13 -->
<g id="edge1" class="edge"><title>Node12&#45;&gt;Node13</title>
<path fill="none" stroke="midnightblue" d="M126.232,-106.622C111.983,-96.7574 93.5438,-83.9919 81.5009,-75.6545"/>
<polygon fill="midnightblue" stroke="midnightblue" points="124.254,-109.51 134.468,-112.324 128.238,-103.754 124.254,-109.51"/>
</g>
<!-- Node15 -->
<g id="node4" class="node"><title>Node15</title>
<g id="a_node4"><a xlink:href="_cap_piou_8cpp.html" target="_top" xlink:title="src/Capacites/CapPiou.cpp">
<polygon fill="white" stroke="black" points="156.5,-56.5 156.5,-75.5 293.5,-75.5 293.5,-56.5 156.5,-56.5"/>
<text text-anchor="middle" x="225" y="-63.5" font-family="Helvetica,sans-Serif" font-size="10.00">src/Capacites/CapPiou.cpp</text>
</a>
</g>
</g>
<!-- Node12&#45;&gt;Node15 -->
<g id="edge3" class="edge"><title>Node12&#45;&gt;Node15</title>
<path fill="none" stroke="midnightblue" d="M167.768,-106.622C182.017,-96.7574 200.456,-83.9919 212.499,-75.6545"/>
<polygon fill="midnightblue" stroke="midnightblue" points="165.762,-103.754 159.532,-112.324 169.746,-109.51 165.762,-103.754"/>
</g>
<!-- Node14 -->
<g id="node3" class="node"><title>Node14</title>
<g id="a_node3"><a xlink:href="_partie_8cpp.html" target="_top" xlink:title="src/Partie.cpp">
<polygon fill="white" stroke="black" points="30.5,-0.5 30.5,-19.5 107.5,-19.5 107.5,-0.5 30.5,-0.5"/>
<text text-anchor="middle" x="69" y="-7.5" font-family="Helvetica,sans-Serif" font-size="10.00">src/Partie.cpp</text>
</a>
</g>
</g>
<!-- Node13&#45;&gt;Node14 -->
<g id="edge2" class="edge"><title>Node13&#45;&gt;Node14</title>
<path fill="none" stroke="midnightblue" d="M69,-45.8045C69,-36.9102 69,-26.7798 69,-19.7511"/>
<polygon fill="midnightblue" stroke="midnightblue" points="65.5001,-46.083 69,-56.083 72.5001,-46.083 65.5001,-46.083"/>
</g>
</g>
</svg>
