<?xml version="1.0" encoding="UTF-8" standalone="no"?>
<!DOCTYPE svg PUBLIC "-//W3C//DTD SVG 1.1//EN"
 "http://www.w3.org/Graphics/SVG/1.1/DTD/svg11.dtd">
<!-- Generated by graphviz version 2.38.0 (20140413.2041)
 -->
<!-- Title: src/Capacites/Capacite.h Pages: 1 -->
<svg width="411pt" height="196pt"
 viewBox="0.00 0.00 411.04 196.00" xmlns="http://www.w3.org/2000/svg" xmlns:xlink="http://www.w3.org/1999/xlink">
<g id="graph0" class="graph" transform="scale(1 1) rotate(0) translate(4 192)">
<title>src/Capacites/Capacite.h</title>
<polygon fill="white" stroke="none" points="-4,4 -4,-192 407.041,-192 407.041,4 -4,4"/>
<!-- Node0 -->
<g id="node1" class="node"><title>Node0</title>
<polygon fill="#bfbfbf" stroke="black" points="4.04097,-168.5 4.04097,-187.5 132.041,-187.5 132.041,-168.5 4.04097,-168.5"/>
<text text-anchor="middle" x="68.041" y="-175.5" font-family="Helvetica,sans-Serif" font-size="10.00">src/Capacites/Capacite.h</text>
</g>
<!-- Node1 -->
<g id="node2" class="node"><title>Node1</title>
<polygon fill="white" stroke="#bfbfbf" points="121.041,-0.5 121.041,-19.5 165.041,-19.5 165.041,-0.5 121.041,-0.5"/>
<text text-anchor="middle" x="143.041" y="-7.5" font-family="Helvetica,sans-Serif" font-size="10.00">vector</text>
</g>
<!-- Node0&#45;&gt;Node1 -->
<g id="edge1" class="edge"><title>Node0&#45;&gt;Node1</title>
<path fill="none" stroke="midnightblue" d="M57.4614,-168.249C33.7145,-147.547 -19.6536,-94.4241 8.04097,-56 31.3371,-23.6784 78.8565,-14.2212 110.835,-11.6479"/>
<polygon fill="midnightblue" stroke="midnightblue" points="111.262,-15.1282 121.026,-11.016 110.829,-8.14162 111.262,-15.1282"/>
</g>
<!-- Node2 -->
<g id="node3" class="node"><title>Node2</title>
<polygon fill="white" stroke="#bfbfbf" points="17.541,-56.5 17.541,-75.5 58.541,-75.5 58.541,-56.5 17.541,-56.5"/>
<text text-anchor="middle" x="38.041" y="-63.5" font-family="Helvetica,sans-Serif" font-size="10.00">string</text>
</g>
<!-- Node0&#45;&gt;Node2 -->
<g id="edge2" class="edge"><title>Node0&#45;&gt;Node2</title>
<path fill="none" stroke="midnightblue" d="M65.2021,-168.419C62.2576,-159.398 57.5954,-144.769 54.041,-132 49.7504,-116.586 45.4473,-98.9525 42.386,-85.9442"/>
<polygon fill="midnightblue" stroke="midnightblue" points="45.719,-84.824 40.0469,-75.8754 38.9006,-86.408 45.719,-84.824"/>
</g>
<!-- Node3 -->
<g id="node4" class="node"><title>Node3</title>
<polygon fill="white" stroke="#bfbfbf" points="77.041,-56.5 77.041,-75.5 133.041,-75.5 133.041,-56.5 77.041,-56.5"/>
<text text-anchor="middle" x="105.041" y="-63.5" font-family="Helvetica,sans-Serif" font-size="10.00">algorithm</text>
</g>
<!-- Node0&#45;&gt;Node3 -->
<g id="edge3" class="edge"><title>Node0&#45;&gt;Node3</title>
<path fill="none" stroke="midnightblue" d="M70.3556,-168.084C73.6934,-155.479 80.2112,-131.782 87.041,-112 90.1689,-102.94 94.0769,-93.0338 97.4515,-84.8277"/>
<polygon fill="midnightblue" stroke="midnightblue" points="100.709,-86.1102 101.342,-75.5343 94.2518,-83.4071 100.709,-86.1102"/>
</g>
<!-- Node4 -->
<g id="node5" class="node"><title>Node4</title>
<g id="a_node5"><a xlink:href="_projectile_8h.html" target="_top" xlink:title="../Projectiles/Projectile.h">
<polygon fill="white" stroke="black" points="96.541,-112.5 96.541,-131.5 219.541,-131.5 219.541,-112.5 96.541,-112.5"/>
<text text-anchor="middle" x="158.041" y="-119.5" font-family="Helvetica,sans-Serif" font-size="10.00">../Projectiles/Projectile.h</text>
</a>
</g>
</g>
<!-- Node0&#45;&gt;Node4 -->
<g id="edge4" class="edge"><title>Node0&#45;&gt;Node4</title>
<path fill="none" stroke="midnightblue" d="M82.501,-168.324C96.5406,-159.9 118.089,-146.971 134.584,-137.074"/>
<polygon fill="midnightblue" stroke="midnightblue" points="136.843,-139.801 143.617,-131.655 133.241,-133.798 136.843,-139.801"/>
</g>
<!-- Node5 -->
<g id="node6" class="node"><title>Node5</title>
<g id="a_node6"><a xlink:href="_entite_8h.html" target="_top" xlink:title="../Entite.h">
<polygon fill="white" stroke="black" points="202.541,-56.5 202.541,-75.5 261.541,-75.5 261.541,-56.5 202.541,-56.5"/>
<text text-anchor="middle" x="232.041" y="-63.5" font-family="Helvetica,sans-Serif" font-size="10.00">../Entite.h</text>
</a>
</g>
</g>
<!-- Node0&#45;&gt;Node5 -->
<g id="edge12" class="edge"><title>Node0&#45;&gt;Node5</title>
<path fill="none" stroke="midnightblue" d="M123.115,-168.449C163.942,-160.892 214.721,-148.504 228.041,-132 238.35,-119.226 238.253,-100.035 236.236,-85.8131"/>
<polygon fill="midnightblue" stroke="midnightblue" points="239.625,-84.8907 234.37,-75.6911 232.741,-86.1599 239.625,-84.8907"/>
</g>
<!-- Node4&#45;&gt;Node1 -->
<g id="edge5" class="edge"><title>Node4&#45;&gt;Node1</title>
<path fill="none" stroke="midnightblue" d="M156.864,-112.368C154.443,-94.617 148.859,-53.6664 145.577,-29.5974"/>
<polygon fill="midnightblue" stroke="midnightblue" points="149.032,-29.0268 144.213,-19.5914 142.096,-29.9726 149.032,-29.0268"/>
</g>
<!-- Node4&#45;&gt;Node2 -->
<g id="edge6" class="edge"><title>Node4&#45;&gt;Node2</title>
<path fill="none" stroke="midnightblue" d="M139.027,-112.444C119.453,-103.636 88.7334,-89.8116 66.312,-79.722"/>
<polygon fill="midnightblue" stroke="midnightblue" points="67.5219,-76.4284 56.9664,-75.5164 64.6493,-82.8119 67.5219,-76.4284"/>
</g>
<!-- Node4&#45;&gt;Node3 -->
<g id="edge7" class="edge"><title>Node4&#45;&gt;Node3</title>
<path fill="none" stroke="midnightblue" d="M149.289,-112.083C141.571,-104.22 130.136,-92.5688 120.824,-83.0813"/>
<polygon fill="midnightblue" stroke="midnightblue" points="123.133,-80.4363 113.63,-75.7511 118.137,-85.3396 123.133,-80.4363"/>
</g>
<!-- Node4&#45;&gt;Node5 -->
<g id="edge8" class="edge"><title>Node4&#45;&gt;Node5</title>
<path fill="none" stroke="midnightblue" d="M169.93,-112.324C181.191,-104.107 198.328,-91.6017 211.75,-81.8069"/>
<polygon fill="midnightblue" stroke="midnightblue" points="213.92,-84.5559 219.935,-75.8339 209.794,-78.9014 213.92,-84.5559"/>
</g>
<!-- Node5&#45;&gt;Node1 -->
<g id="edge9" class="edge"><title>Node5&#45;&gt;Node1</title>
<path fill="none" stroke="midnightblue" d="M217.742,-56.324C203.858,-47.9002 182.549,-34.9709 166.237,-25.0741"/>
<polygon fill="midnightblue" stroke="midnightblue" points="167.67,-21.8495 157.305,-19.6545 164.039,-27.8341 167.67,-21.8495"/>
</g>
<!-- Node6 -->
<g id="node7" class="node"><title>Node6</title>
<polygon fill="white" stroke="#bfbfbf" points="183.041,-0.5 183.041,-19.5 281.041,-19.5 281.041,-0.5 183.041,-0.5"/>
<text text-anchor="middle" x="232.041" y="-7.5" font-family="Helvetica,sans-Serif" font-size="10.00">SFML/System.hpp</text>
</g>
<!-- Node5&#45;&gt;Node6 -->
<g id="edge10" class="edge"><title>Node5&#45;&gt;Node6</title>
<path fill="none" stroke="midnightblue" d="M232.041,-56.083C232.041,-49.0059 232.041,-38.8611 232.041,-29.9865"/>
<polygon fill="midnightblue" stroke="midnightblue" points="235.541,-29.751 232.041,-19.7511 228.541,-29.7511 235.541,-29.751"/>
</g>
<!-- Node7 -->
<g id="node8" class="node"><title>Node7</title>
<polygon fill="white" stroke="#bfbfbf" points="299.041,-0.5 299.041,-19.5 403.041,-19.5 403.041,-0.5 299.041,-0.5"/>
<text text-anchor="middle" x="351.041" y="-7.5" font-family="Helvetica,sans-Serif" font-size="10.00">SFML/Graphics.hpp</text>
</g>
<!-- Node5&#45;&gt;Node7 -->
<g id="edge11" class="edge"><title>Node5&#45;&gt;Node7</title>
<path fill="none" stroke="midnightblue" d="M250.897,-56.4435C270.307,-47.6356 300.771,-33.8116 323.006,-23.722"/>
<polygon fill="midnightblue" stroke="midnightblue" points="324.613,-26.836 332.273,-19.5164 321.721,-20.4615 324.613,-26.836"/>
</g>
</g>
</svg>
