<?xml version="1.0" encoding="UTF-8" standalone="no"?>
<!DOCTYPE svg PUBLIC "-//W3C//DTD SVG 1.1//EN"
 "http://www.w3.org/Graphics/SVG/1.1/DTD/svg11.dtd">
<!-- Generated by graphviz version 2.38.0 (20140413.2041)
 -->
<!-- Title: src/Capacites/Capacite.cpp Pages: 1 -->
<svg width="494pt" height="308pt"
 viewBox="0.00 0.00 493.50 308.00" xmlns="http://www.w3.org/2000/svg" xmlns:xlink="http://www.w3.org/1999/xlink">
<g id="graph0" class="graph" transform="scale(1 1) rotate(0) translate(4 304)">
<title>src/Capacites/Capacite.cpp</title>
<polygon fill="white" stroke="none" points="-4,4 -4,-304 489.5,-304 489.5,4 -4,4"/>
<!-- Node0 -->
<g id="node1" class="node"><title>Node0</title>
<polygon fill="#bfbfbf" stroke="black" points="203,-280.5 203,-299.5 341,-299.5 341,-280.5 203,-280.5"/>
<text text-anchor="middle" x="272" y="-287.5" font-family="Helvetica,sans-Serif" font-size="10.00">src/Capacites/Capacite.cpp</text>
</g>
<!-- Node1 -->
<g id="node2" class="node"><title>Node1</title>
<polygon fill="white" stroke="#bfbfbf" points="168,-0.5 168,-19.5 212,-19.5 212,-0.5 168,-0.5"/>
<text text-anchor="middle" x="190" y="-7.5" font-family="Helvetica,sans-Serif" font-size="10.00">vector</text>
</g>
<!-- Node0&#45;&gt;Node1 -->
<g id="edge1" class="edge"><title>Node0&#45;&gt;Node1</title>
<path fill="none" stroke="midnightblue" d="M227.085,-280.485C149.829,-264.544 0,-227.391 0,-179 0,-179 0,-179 0,-121 0,-48.9975 103.459,-23.3614 157.688,-14.8695"/>
<polygon fill="midnightblue" stroke="midnightblue" points="158.442,-18.2967 167.833,-13.391 157.432,-11.3699 158.442,-18.2967"/>
</g>
<!-- Node2 -->
<g id="node3" class="node"><title>Node2</title>
<polygon fill="white" stroke="#bfbfbf" points="444.5,-56.5 444.5,-75.5 485.5,-75.5 485.5,-56.5 444.5,-56.5"/>
<text text-anchor="middle" x="465" y="-63.5" font-family="Helvetica,sans-Serif" font-size="10.00">string</text>
</g>
<!-- Node0&#45;&gt;Node2 -->
<g id="edge2" class="edge"><title>Node0&#45;&gt;Node2</title>
<path fill="none" stroke="midnightblue" d="M326.108,-280.486C351.661,-274.105 381.069,-263.049 402,-244 448.799,-201.408 460.848,-121.719 463.939,-85.6202"/>
<polygon fill="midnightblue" stroke="midnightblue" points="467.438,-85.758 464.661,-75.5337 460.456,-85.2585 467.438,-85.758"/>
</g>
<!-- Node3 -->
<g id="node4" class="node"><title>Node3</title>
<polygon fill="white" stroke="#bfbfbf" points="96,-56.5 96,-75.5 152,-75.5 152,-56.5 96,-56.5"/>
<text text-anchor="middle" x="124" y="-63.5" font-family="Helvetica,sans-Serif" font-size="10.00">algorithm</text>
</g>
<!-- Node0&#45;&gt;Node3 -->
<g id="edge3" class="edge"><title>Node0&#45;&gt;Node3</title>
<path fill="none" stroke="midnightblue" d="M259.506,-280.197C230.481,-258.849 159.136,-200.973 135,-132 129.737,-116.96 126.945,-99.0552 125.493,-85.8491"/>
<polygon fill="midnightblue" stroke="midnightblue" points="128.955,-85.2719 124.534,-75.6434 121.985,-85.9272 128.955,-85.2719"/>
</g>
<!-- Node4 -->
<g id="node5" class="node"><title>Node4</title>
<g id="a_node5"><a xlink:href="_capacite_8h.html" target="_top" xlink:title="Capacite.h">
<polygon fill="white" stroke="black" points="197,-168.5 197,-187.5 261,-187.5 261,-168.5 197,-168.5"/>
<text text-anchor="middle" x="229" y="-175.5" font-family="Helvetica,sans-Serif" font-size="10.00">Capacite.h</text>
</a>
</g>
</g>
<!-- Node0&#45;&gt;Node4 -->
<g id="edge4" class="edge"><title>Node0&#45;&gt;Node4</title>
<path fill="none" stroke="midnightblue" d="M266.663,-280.296C261.387,-271.417 253.349,-257.118 248,-244 241.758,-228.691 236.64,-210.587 233.295,-197.378"/>
<polygon fill="midnightblue" stroke="midnightblue" points="236.682,-196.493 230.917,-187.604 229.88,-198.148 236.682,-196.493"/>
</g>
<!-- Node5 -->
<g id="node6" class="node"><title>Node5</title>
<g id="a_node6"><a xlink:href="_projectile_8h.html" target="_top" xlink:title="../Projectiles/Projectile.h">
<polygon fill="white" stroke="black" points="256.5,-112.5 256.5,-131.5 379.5,-131.5 379.5,-112.5 256.5,-112.5"/>
<text text-anchor="middle" x="318" y="-119.5" font-family="Helvetica,sans-Serif" font-size="10.00">../Projectiles/Projectile.h</text>
</a>
</g>
</g>
<!-- Node0&#45;&gt;Node5 -->
<g id="edge24" class="edge"><title>Node0&#45;&gt;Node5</title>
<path fill="none" stroke="midnightblue" d="M327.139,-280.42C348.598,-274.092 371.092,-263.098 384,-244 408.53,-207.708 364.229,-161.447 336.993,-138.032"/>
<polygon fill="midnightblue" stroke="midnightblue" points="339.11,-135.24 329.184,-131.535 334.633,-140.621 339.11,-135.24"/>
</g>
<!-- Node9 -->
<g id="node10" class="node"><title>Node9</title>
<g id="a_node10"><a xlink:href="_vaisseau_8h.html" target="_top" xlink:title="../Vaisseau/Vaisseau.h">
<polygon fill="white" stroke="black" points="257,-224.5 257,-243.5 375,-243.5 375,-224.5 257,-224.5"/>
<text text-anchor="middle" x="316" y="-231.5" font-family="Helvetica,sans-Serif" font-size="10.00">../Vaisseau/Vaisseau.h</text>
</a>
</g>
</g>
<!-- Node0&#45;&gt;Node9 -->
<g id="edge17" class="edge"><title>Node0&#45;&gt;Node9</title>
<path fill="none" stroke="midnightblue" d="M279.266,-280.083C285.545,-272.377 294.788,-261.033 302.431,-251.653"/>
<polygon fill="midnightblue" stroke="midnightblue" points="305.266,-253.714 308.869,-243.751 299.839,-249.293 305.266,-253.714"/>
</g>
<!-- Node4&#45;&gt;Node1 -->
<g id="edge5" class="edge"><title>Node4&#45;&gt;Node1</title>
<path fill="none" stroke="midnightblue" d="M226.903,-168.075C220.764,-141.945 202.736,-65.2106 194.364,-29.577"/>
<polygon fill="midnightblue" stroke="midnightblue" points="197.707,-28.5025 192.013,-19.5681 190.893,-30.1036 197.707,-28.5025"/>
</g>
<!-- Node4&#45;&gt;Node2 -->
<g id="edge6" class="edge"><title>Node4&#45;&gt;Node2</title>
<path fill="none" stroke="midnightblue" d="M261.277,-172.019C294.515,-165.961 347.086,-153.741 388,-132 411.984,-119.255 435.197,-98.0629 449.753,-83.3564"/>
<polygon fill="midnightblue" stroke="midnightblue" points="452.475,-85.5753 456.899,-75.9481 447.437,-80.7155 452.475,-85.5753"/>
</g>
<!-- Node4&#45;&gt;Node3 -->
<g id="edge7" class="edge"><title>Node4&#45;&gt;Node3</title>
<path fill="none" stroke="midnightblue" d="M217.487,-168.28C206.362,-159.616 189.287,-145.681 176,-132 161.275,-116.838 146.403,-97.786 136.358,-84.2366"/>
<polygon fill="midnightblue" stroke="midnightblue" points="138.959,-81.8639 130.236,-75.8509 133.306,-85.9914 138.959,-81.8639"/>
</g>
<!-- Node4&#45;&gt;Node5 -->
<g id="edge8" class="edge"><title>Node4&#45;&gt;Node5</title>
<path fill="none" stroke="midnightblue" d="M243.299,-168.324C257.183,-159.9 278.492,-146.971 294.804,-137.074"/>
<polygon fill="midnightblue" stroke="midnightblue" points="297.002,-139.834 303.736,-131.655 293.371,-133.85 297.002,-139.834"/>
</g>
<!-- Node6 -->
<g id="node7" class="node"><title>Node6</title>
<g id="a_node7"><a xlink:href="_entite_8h.html" target="_top" xlink:title="../Entite.h">
<polygon fill="white" stroke="black" points="272.5,-56.5 272.5,-75.5 331.5,-75.5 331.5,-56.5 272.5,-56.5"/>
<text text-anchor="middle" x="302" y="-63.5" font-family="Helvetica,sans-Serif" font-size="10.00">../Entite.h</text>
</a>
</g>
</g>
<!-- Node4&#45;&gt;Node6 -->
<g id="edge16" class="edge"><title>Node4&#45;&gt;Node6</title>
<path fill="none" stroke="midnightblue" d="M229.726,-168.322C231.175,-155.175 235.364,-129.854 247,-112 255.026,-99.6849 267.496,-89.0855 278.533,-81.2723"/>
<polygon fill="midnightblue" stroke="midnightblue" points="280.605,-84.0971 286.966,-75.6241 276.71,-78.2811 280.605,-84.0971"/>
</g>
<!-- Node5&#45;&gt;Node1 -->
<g id="edge9" class="edge"><title>Node5&#45;&gt;Node1</title>
<path fill="none" stroke="midnightblue" d="M306.931,-112.169C295.744,-103.19 278.013,-88.8163 263,-76 243.58,-59.4219 221.769,-39.8763 207.088,-26.5789"/>
<polygon fill="midnightblue" stroke="midnightblue" points="209.095,-23.6736 199.339,-19.5412 204.388,-28.8554 209.095,-23.6736"/>
</g>
<!-- Node5&#45;&gt;Node2 -->
<g id="edge10" class="edge"><title>Node5&#45;&gt;Node2</title>
<path fill="none" stroke="midnightblue" d="M341.293,-112.444C366.528,-103.173 406.89,-88.3464 434.606,-78.1652"/>
<polygon fill="midnightblue" stroke="midnightblue" points="436.013,-81.3769 444.193,-74.6433 433.6,-74.8062 436.013,-81.3769"/>
</g>
<!-- Node5&#45;&gt;Node3 -->
<g id="edge11" class="edge"><title>Node5&#45;&gt;Node3</title>
<path fill="none" stroke="midnightblue" d="M287.26,-112.444C253.275,-102.984 198.502,-87.7377 161.889,-77.5465"/>
<polygon fill="midnightblue" stroke="midnightblue" points="162.649,-74.1249 152.076,-74.8151 160.772,-80.8685 162.649,-74.1249"/>
</g>
<!-- Node5&#45;&gt;Node6 -->
<g id="edge12" class="edge"><title>Node5&#45;&gt;Node6</title>
<path fill="none" stroke="midnightblue" d="M315.358,-112.083C313.214,-104.849 310.121,-94.4087 307.451,-85.3968"/>
<polygon fill="midnightblue" stroke="midnightblue" points="310.79,-84.3447 304.593,-75.7511 304.078,-86.3334 310.79,-84.3447"/>
</g>
<!-- Node6&#45;&gt;Node1 -->
<g id="edge13" class="edge"><title>Node6&#45;&gt;Node1</title>
<path fill="none" stroke="midnightblue" d="M284.005,-56.324C265.962,-47.6247 237.953,-34.1202 217.197,-24.113"/>
<polygon fill="midnightblue" stroke="midnightblue" points="218.478,-20.8449 207.95,-19.6545 215.438,-27.1502 218.478,-20.8449"/>
</g>
<!-- Node7 -->
<g id="node8" class="node"><title>Node7</title>
<polygon fill="white" stroke="#bfbfbf" points="362,-0.5 362,-19.5 460,-19.5 460,-0.5 362,-0.5"/>
<text text-anchor="middle" x="411" y="-7.5" font-family="Helvetica,sans-Serif" font-size="10.00">SFML/System.hpp</text>
</g>
<!-- Node6&#45;&gt;Node7 -->
<g id="edge14" class="edge"><title>Node6&#45;&gt;Node7</title>
<path fill="none" stroke="midnightblue" d="M319.513,-56.324C337.072,-47.6247 364.331,-34.1202 384.531,-24.113"/>
<polygon fill="midnightblue" stroke="midnightblue" points="386.124,-27.23 393.531,-19.6545 383.016,-20.9575 386.124,-27.23"/>
</g>
<!-- Node8 -->
<g id="node9" class="node"><title>Node8</title>
<polygon fill="white" stroke="#bfbfbf" points="240,-0.5 240,-19.5 344,-19.5 344,-0.5 240,-0.5"/>
<text text-anchor="middle" x="292" y="-7.5" font-family="Helvetica,sans-Serif" font-size="10.00">SFML/Graphics.hpp</text>
</g>
<!-- Node6&#45;&gt;Node8 -->
<g id="edge15" class="edge"><title>Node6&#45;&gt;Node8</title>
<path fill="none" stroke="midnightblue" d="M300.349,-56.083C299.024,-48.9272 297.118,-38.6353 295.461,-29.6911"/>
<polygon fill="midnightblue" stroke="midnightblue" points="298.883,-28.9466 293.621,-19.7511 292,-30.2212 298.883,-28.9466"/>
</g>
<!-- Node9&#45;&gt;Node1 -->
<g id="edge18" class="edge"><title>Node9&#45;&gt;Node1</title>
<path fill="none" stroke="midnightblue" d="M256.762,-224.613C227.381,-218.233 192.588,-207.142 166,-188 116.564,-152.41 105.418,-134.064 87,-76 84.3125,-67.5271 82.1328,-63.4379 87,-56 102.544,-32.2462 133.682,-20.9577 157.672,-15.638"/>
<polygon fill="midnightblue" stroke="midnightblue" points="158.644,-19.0139 167.779,-13.6474 157.291,-12.1459 158.644,-19.0139"/>
</g>
<!-- Node9&#45;&gt;Node2 -->
<g id="edge19" class="edge"><title>Node9&#45;&gt;Node2</title>
<path fill="none" stroke="midnightblue" d="M335.608,-224.492C351.857,-216.731 374.826,-204.038 391,-188 422.211,-157.052 445.875,-110.434 457.342,-85.0449"/>
<polygon fill="midnightblue" stroke="midnightblue" points="460.685,-86.1349 461.496,-75.5711 454.275,-83.3238 460.685,-86.1349"/>
</g>
<!-- Node9&#45;&gt;Node3 -->
<g id="edge20" class="edge"><title>Node9&#45;&gt;Node3</title>
<path fill="none" stroke="midnightblue" d="M267.208,-224.441C241.417,-217.934 210.527,-206.777 188,-188 155.256,-160.707 136.977,-112.255 128.968,-85.6962"/>
<polygon fill="midnightblue" stroke="midnightblue" points="132.251,-84.4432 126.152,-75.7795 125.517,-86.3552 132.251,-84.4432"/>
</g>
<!-- Node9&#45;&gt;Node4 -->
<g id="edge21" class="edge"><title>Node9&#45;&gt;Node4</title>
<path fill="none" stroke="midnightblue" d="M302.022,-224.324C288.45,-215.9 267.62,-202.971 251.675,-193.074"/>
<polygon fill="midnightblue" stroke="midnightblue" points="253.286,-189.954 242.943,-187.655 249.594,-195.902 253.286,-189.954"/>
</g>
<!-- Node9&#45;&gt;Node5 -->
<g id="edge23" class="edge"><title>Node9&#45;&gt;Node5</title>
<path fill="none" stroke="midnightblue" d="M316.157,-224.368C316.48,-206.617 317.224,-165.666 317.662,-141.597"/>
<polygon fill="midnightblue" stroke="midnightblue" points="321.161,-141.653 317.844,-131.591 314.162,-141.526 321.161,-141.653"/>
</g>
<!-- Node9&#45;&gt;Node6 -->
<g id="edge22" class="edge"><title>Node9&#45;&gt;Node6</title>
<path fill="none" stroke="midnightblue" d="M328.066,-224.465C354.547,-204.654 413.445,-154.032 388,-112 377.765,-95.0935 358.858,-84.233 341.373,-77.4272"/>
<polygon fill="midnightblue" stroke="midnightblue" points="342.464,-74.1006 331.87,-74.0507 340.121,-80.6966 342.464,-74.1006"/>
</g>
</g>
</svg>
