<?xml version="1.0" encoding="UTF-8" standalone="no"?>
<!DOCTYPE svg PUBLIC "-//W3C//DTD SVG 1.1//EN"
 "http://www.w3.org/Graphics/SVG/1.1/DTD/svg11.dtd">
<!-- Generated by graphviz version 2.38.0 (20140413.2041)
 -->
<!-- Title: src/Capacites/CapDash.h Pages: 1 -->
<svg width="436pt" height="252pt"
 viewBox="0.00 0.00 435.91 252.00" xmlns="http://www.w3.org/2000/svg" xmlns:xlink="http://www.w3.org/1999/xlink">
<g id="graph0" class="graph" transform="scale(1 1) rotate(0) translate(4 248)">
<title>src/Capacites/CapDash.h</title>
<polygon fill="white" stroke="none" points="-4,4 -4,-248 431.908,-248 431.908,4 -4,4"/>
<!-- Node0 -->
<g id="node1" class="node"><title>Node0</title>
<polygon fill="#bfbfbf" stroke="black" points="111.908,-224.5 111.908,-243.5 241.908,-243.5 241.908,-224.5 111.908,-224.5"/>
<text text-anchor="middle" x="176.908" y="-231.5" font-family="Helvetica,sans-Serif" font-size="10.00">src/Capacites/CapDash.h</text>
</g>
<!-- Node1 -->
<g id="node2" class="node"><title>Node1</title>
<g id="a_node2"><a xlink:href="_capacite_8h.html" target="_top" xlink:title="Capacite.h">
<polygon fill="white" stroke="black" points="34.9079,-168.5 34.9079,-187.5 98.9079,-187.5 98.9079,-168.5 34.9079,-168.5"/>
<text text-anchor="middle" x="66.9079" y="-175.5" font-family="Helvetica,sans-Serif" font-size="10.00">Capacite.h</text>
</a>
</g>
</g>
<!-- Node0&#45;&gt;Node1 -->
<g id="edge1" class="edge"><title>Node0&#45;&gt;Node1</title>
<path fill="none" stroke="midnightblue" d="M159.235,-224.324C141.514,-215.625 114.005,-202.12 93.6195,-192.113"/>
<polygon fill="midnightblue" stroke="midnightblue" points="95.0565,-188.919 84.5375,-187.655 91.9718,-195.203 95.0565,-188.919"/>
</g>
<!-- Node6 -->
<g id="node7" class="node"><title>Node6</title>
<g id="a_node7"><a xlink:href="_entite_8h.html" target="_top" xlink:title="../Entite.h">
<polygon fill="white" stroke="black" points="217.408,-56.5 217.408,-75.5 276.408,-75.5 276.408,-56.5 217.408,-56.5"/>
<text text-anchor="middle" x="246.908" y="-63.5" font-family="Helvetica,sans-Serif" font-size="10.00">../Entite.h</text>
</a>
</g>
</g>
<!-- Node0&#45;&gt;Node6 -->
<g id="edge15" class="edge"><title>Node0&#45;&gt;Node6</title>
<path fill="none" stroke="midnightblue" d="M199.743,-224.404C215.371,-217.215 234.992,-205.324 244.908,-188 263.281,-155.901 257.331,-110.731 251.822,-85.6453"/>
<polygon fill="midnightblue" stroke="midnightblue" points="255.159,-84.5518 249.411,-75.6518 248.354,-86.1938 255.159,-84.5518"/>
</g>
<!-- Node10 -->
<g id="node11" class="node"><title>Node10</title>
<g id="a_node11"><a xlink:href="_proj_test_8h.html" target="_top" xlink:title="../Projectiles/ProjTest.h">
<polygon fill="white" stroke="black" points="117.408,-168.5 117.408,-187.5 236.408,-187.5 236.408,-168.5 117.408,-168.5"/>
<text text-anchor="middle" x="176.908" y="-175.5" font-family="Helvetica,sans-Serif" font-size="10.00">../Projectiles/ProjTest.h</text>
</a>
</g>
</g>
<!-- Node0&#45;&gt;Node10 -->
<g id="edge16" class="edge"><title>Node0&#45;&gt;Node10</title>
<path fill="none" stroke="midnightblue" d="M176.908,-224.083C176.908,-217.006 176.908,-206.861 176.908,-197.986"/>
<polygon fill="midnightblue" stroke="midnightblue" points="180.408,-197.751 176.908,-187.751 173.408,-197.751 180.408,-197.751"/>
</g>
<!-- Node2 -->
<g id="node3" class="node"><title>Node2</title>
<polygon fill="white" stroke="#bfbfbf" points="75.9079,-0.5 75.9079,-19.5 119.908,-19.5 119.908,-0.5 75.9079,-0.5"/>
<text text-anchor="middle" x="97.9079" y="-7.5" font-family="Helvetica,sans-Serif" font-size="10.00">vector</text>
</g>
<!-- Node1&#45;&gt;Node2 -->
<g id="edge2" class="edge"><title>Node1&#45;&gt;Node2</title>
<path fill="none" stroke="midnightblue" d="M56.6895,-168.491C33.7226,-148.311 -18.0818,-96.2357 6.90793,-56 19.7738,-35.2848 45.314,-23.8166 66.0702,-17.6511"/>
<polygon fill="midnightblue" stroke="midnightblue" points="67.0519,-21.0115 75.7989,-15.0331 65.2329,-14.252 67.0519,-21.0115"/>
</g>
<!-- Node3 -->
<g id="node4" class="node"><title>Node3</title>
<polygon fill="white" stroke="#bfbfbf" points="90.4079,-56.5 90.4079,-75.5 131.408,-75.5 131.408,-56.5 90.4079,-56.5"/>
<text text-anchor="middle" x="110.908" y="-63.5" font-family="Helvetica,sans-Serif" font-size="10.00">string</text>
</g>
<!-- Node1&#45;&gt;Node3 -->
<g id="edge3" class="edge"><title>Node1&#45;&gt;Node3</title>
<path fill="none" stroke="midnightblue" d="M68.7803,-168.378C71.6708,-155.729 77.7499,-131.527 85.9079,-112 89.8699,-102.517 95.3173,-92.4726 100.116,-84.2853"/>
<polygon fill="midnightblue" stroke="midnightblue" points="103.145,-86.0404 105.323,-75.6719 97.1544,-82.4188 103.145,-86.0404"/>
</g>
<!-- Node4 -->
<g id="node5" class="node"><title>Node4</title>
<polygon fill="white" stroke="#bfbfbf" points="15.9079,-56.5 15.9079,-75.5 71.9079,-75.5 71.9079,-56.5 15.9079,-56.5"/>
<text text-anchor="middle" x="43.9079" y="-63.5" font-family="Helvetica,sans-Serif" font-size="10.00">algorithm</text>
</g>
<!-- Node1&#45;&gt;Node4 -->
<g id="edge4" class="edge"><title>Node1&#45;&gt;Node4</title>
<path fill="none" stroke="midnightblue" d="M63.7993,-168.486C60.6347,-159.52 55.7953,-144.936 52.9079,-132 49.4913,-116.693 47.1466,-99.0507 45.709,-86.0122"/>
<polygon fill="midnightblue" stroke="midnightblue" points="49.1755,-85.5051 44.675,-75.9136 42.2119,-86.2181 49.1755,-85.5051"/>
</g>
<!-- Node5 -->
<g id="node6" class="node"><title>Node5</title>
<g id="a_node6"><a xlink:href="_projectile_8h.html" target="_top" xlink:title="../Projectiles/Projectile.h">
<polygon fill="white" stroke="black" points="95.4079,-112.5 95.4079,-131.5 218.408,-131.5 218.408,-112.5 95.4079,-112.5"/>
<text text-anchor="middle" x="156.908" y="-119.5" font-family="Helvetica,sans-Serif" font-size="10.00">../Projectiles/Projectile.h</text>
</a>
</g>
</g>
<!-- Node1&#45;&gt;Node5 -->
<g id="edge5" class="edge"><title>Node1&#45;&gt;Node5</title>
<path fill="none" stroke="midnightblue" d="M81.368,-168.324C95.4075,-159.9 116.956,-146.971 133.451,-137.074"/>
<polygon fill="midnightblue" stroke="midnightblue" points="135.71,-139.801 142.484,-131.655 132.108,-133.798 135.71,-139.801"/>
</g>
<!-- Node1&#45;&gt;Node6 -->
<g id="edge14" class="edge"><title>Node1&#45;&gt;Node6</title>
<path fill="none" stroke="midnightblue" d="M99.1174,-169.683C143.124,-159.426 217.667,-141.019 226.908,-132 239.176,-120.027 243.961,-100.728 245.806,-86.2633"/>
<polygon fill="midnightblue" stroke="midnightblue" points="249.325,-86.2068 246.741,-75.9319 242.354,-85.5755 249.325,-86.2068"/>
</g>
<!-- Node5&#45;&gt;Node2 -->
<g id="edge6" class="edge"><title>Node5&#45;&gt;Node2</title>
<path fill="none" stroke="midnightblue" d="M155.981,-112.078C154.326,-99.0549 150.036,-74.3915 139.908,-56 133.814,-44.9335 124.391,-34.4915 116.014,-26.4572"/>
<polygon fill="midnightblue" stroke="midnightblue" points="118.192,-23.7058 108.446,-19.5501 113.473,-28.8763 118.192,-23.7058"/>
</g>
<!-- Node5&#45;&gt;Node3 -->
<g id="edge7" class="edge"><title>Node5&#45;&gt;Node3</title>
<path fill="none" stroke="midnightblue" d="M149.312,-112.083C142.68,-104.298 132.887,-92.8015 124.85,-83.3665"/>
<polygon fill="midnightblue" stroke="midnightblue" points="127.512,-81.0939 118.363,-75.7511 122.183,-85.6332 127.512,-81.0939"/>
</g>
<!-- Node5&#45;&gt;Node4 -->
<g id="edge8" class="edge"><title>Node5&#45;&gt;Node4</title>
<path fill="none" stroke="midnightblue" d="M139.003,-112.444C120.654,-103.675 91.9025,-89.9355 70.8143,-79.8579"/>
<polygon fill="midnightblue" stroke="midnightblue" points="72.2612,-76.6703 61.7293,-75.5164 69.2429,-82.9862 72.2612,-76.6703"/>
</g>
<!-- Node5&#45;&gt;Node6 -->
<g id="edge9" class="edge"><title>Node5&#45;&gt;Node6</title>
<path fill="none" stroke="midnightblue" d="M171.368,-112.324C185.408,-103.9 206.956,-90.9709 223.451,-81.0741"/>
<polygon fill="midnightblue" stroke="midnightblue" points="225.71,-83.8007 232.484,-75.6545 222.108,-77.7983 225.71,-83.8007"/>
</g>
<!-- Node6&#45;&gt;Node2 -->
<g id="edge10" class="edge"><title>Node6&#45;&gt;Node2</title>
<path fill="none" stroke="midnightblue" d="M223.298,-56.4435C198.012,-47.2792 157.741,-32.6846 129.684,-22.5161"/>
<polygon fill="midnightblue" stroke="midnightblue" points="130.544,-19.1051 119.95,-18.9883 128.159,-25.6862 130.544,-19.1051"/>
</g>
<!-- Node7 -->
<g id="node8" class="node"><title>Node7</title>
<polygon fill="white" stroke="#bfbfbf" points="375.908,-0.5 375.908,-19.5 427.908,-19.5 427.908,-0.5 375.908,-0.5"/>
<text text-anchor="middle" x="401.908" y="-7.5" font-family="Helvetica,sans-Serif" font-size="10.00">memory</text>
</g>
<!-- Node6&#45;&gt;Node7 -->
<g id="edge11" class="edge"><title>Node6&#45;&gt;Node7</title>
<path fill="none" stroke="midnightblue" d="M271.468,-56.4435C297.43,-47.3986 338.576,-33.064 367.705,-22.9158"/>
<polygon fill="midnightblue" stroke="midnightblue" points="369.171,-26.1116 377.463,-19.5164 366.868,-19.5013 369.171,-26.1116"/>
</g>
<!-- Node8 -->
<g id="node9" class="node"><title>Node8</title>
<polygon fill="white" stroke="#bfbfbf" points="137.908,-0.5 137.908,-19.5 235.908,-19.5 235.908,-0.5 137.908,-0.5"/>
<text text-anchor="middle" x="186.908" y="-7.5" font-family="Helvetica,sans-Serif" font-size="10.00">SFML/System.hpp</text>
</g>
<!-- Node6&#45;&gt;Node8 -->
<g id="edge12" class="edge"><title>Node6&#45;&gt;Node8</title>
<path fill="none" stroke="midnightblue" d="M237.268,-56.324C228.398,-48.3414 215.033,-36.3128 204.3,-26.6529"/>
<polygon fill="midnightblue" stroke="midnightblue" points="206.498,-23.922 196.723,-19.8339 201.815,-29.1251 206.498,-23.922"/>
</g>
<!-- Node9 -->
<g id="node10" class="node"><title>Node9</title>
<polygon fill="white" stroke="#bfbfbf" points="253.908,-0.5 253.908,-19.5 357.908,-19.5 357.908,-0.5 253.908,-0.5"/>
<text text-anchor="middle" x="305.908" y="-7.5" font-family="Helvetica,sans-Serif" font-size="10.00">SFML/Graphics.hpp</text>
</g>
<!-- Node6&#45;&gt;Node9 -->
<g id="edge13" class="edge"><title>Node6&#45;&gt;Node9</title>
<path fill="none" stroke="midnightblue" d="M256.387,-56.324C265.109,-48.3414 278.251,-36.3128 288.806,-26.6529"/>
<polygon fill="midnightblue" stroke="midnightblue" points="291.242,-29.1674 296.256,-19.8339 286.516,-24.0036 291.242,-29.1674"/>
</g>
<!-- Node10&#45;&gt;Node5 -->
<g id="edge17" class="edge"><title>Node10&#45;&gt;Node5</title>
<path fill="none" stroke="midnightblue" d="M173.605,-168.083C170.926,-160.849 167.059,-150.409 163.722,-141.397"/>
<polygon fill="midnightblue" stroke="midnightblue" points="166.904,-139.913 160.149,-131.751 160.34,-142.344 166.904,-139.913"/>
</g>
</g>
</svg>
