<?xml version="1.0" encoding="UTF-8" standalone="no"?>
<!DOCTYPE svg PUBLIC "-//W3C//DTD SVG 1.1//EN"
 "http://www.w3.org/Graphics/SVG/1.1/DTD/svg11.dtd">
<!-- Generated by graphviz version 2.38.0 (20140413.2041)
 -->
<!-- Title: src/Capacites/Capacite.cpp Pages: 1 -->
<svg width="494pt" height="308pt"
 viewBox="0.00 0.00 493.50 308.00" xmlns="http://www.w3.org/2000/svg" xmlns:xlink="http://www.w3.org/1999/xlink">
<g id="graph0" class="graph" transform="scale(1 1) rotate(0) translate(4 304)">
<title>src/Capacites/Capacite.cpp</title>
<polygon fill="white" stroke="none" points="-4,4 -4,-304 489.5,-304 489.5,4 -4,4"/>
<!-- Node0 -->
<g id="node1" class="node"><title>Node0</title>
<polygon fill="#bfbfbf" stroke="black" points="203,-280.5 203,-299.5 341,-299.5 341,-280.5 203,-280.5"/>
<text text-anchor="middle" x="272" y="-287.5" font-family="Helvetica,sans-Serif" font-size="10.00">src/Capacites/Capacite.cpp</text>
</g>
<!-- Node1 -->
<g id="node2" class="node"><title>Node1</title>
<polygon fill="white" stroke="#bfbfbf" points="128,-0.5 128,-19.5 172,-19.5 172,-0.5 128,-0.5"/>
<text text-anchor="middle" x="150" y="-7.5" font-family="Helvetica,sans-Serif" font-size="10.00">vector</text>
</g>
<!-- Node0&#45;&gt;Node1 -->
<g id="edge1" class="edge"><title>Node0&#45;&gt;Node1</title>
<path fill="none" stroke="midnightblue" d="M227.085,-280.485C149.829,-264.544 0,-227.391 0,-179 0,-179 0,-179 0,-121 0,-62.8779 74.1416,-32.1106 118.175,-18.9631"/>
<polygon fill="midnightblue" stroke="midnightblue" points="119.206,-22.3087 127.867,-16.2068 117.291,-15.5756 119.206,-22.3087"/>
</g>
<!-- Node2 -->
<g id="node3" class="node"><title>Node2</title>
<polygon fill="white" stroke="#bfbfbf" points="444.5,-56.5 444.5,-75.5 485.5,-75.5 485.5,-56.5 444.5,-56.5"/>
<text text-anchor="middle" x="465" y="-63.5" font-family="Helvetica,sans-Serif" font-size="10.00">string</text>
</g>
<!-- Node0&#45;&gt;Node2 -->
<g id="edge2" class="edge"><title>Node0&#45;&gt;Node2</title>
<path fill="none" stroke="midnightblue" d="M328.114,-280.488C353.365,-274.137 381.938,-263.106 402,-244 447.611,-200.563 460.258,-121.947 463.72,-85.9378"/>
<polygon fill="midnightblue" stroke="midnightblue" points="467.218,-86.0958 464.551,-75.8423 460.242,-85.5213 467.218,-86.0958"/>
</g>
<!-- Node3 -->
<g id="node4" class="node"><title>Node3</title>
<polygon fill="white" stroke="#bfbfbf" points="96,-56.5 96,-75.5 152,-75.5 152,-56.5 96,-56.5"/>
<text text-anchor="middle" x="124" y="-63.5" font-family="Helvetica,sans-Serif" font-size="10.00">algorithm</text>
</g>
<!-- Node0&#45;&gt;Node3 -->
<g id="edge3" class="edge"><title>Node0&#45;&gt;Node3</title>
<path fill="none" stroke="midnightblue" d="M259.506,-280.197C230.481,-258.849 159.136,-200.973 135,-132 129.737,-116.96 126.945,-99.0552 125.493,-85.8491"/>
<polygon fill="midnightblue" stroke="midnightblue" points="128.955,-85.2719 124.534,-75.6434 121.985,-85.9272 128.955,-85.2719"/>
</g>
<!-- Node4 -->
<g id="node5" class="node"><title>Node4</title>
<g id="a_node5"><a xlink:href="_capacite_8h.html" target="_top" xlink:title="Capacite.h">
<polygon fill="white" stroke="black" points="197,-168.5 197,-187.5 261,-187.5 261,-168.5 197,-168.5"/>
<text text-anchor="middle" x="229" y="-175.5" font-family="Helvetica,sans-Serif" font-size="10.00">Capacite.h</text>
</a>
</g>
</g>
<!-- Node0&#45;&gt;Node4 -->
<g id="edge4" class="edge"><title>Node0&#45;&gt;Node4</title>
<path fill="none" stroke="midnightblue" d="M266.663,-280.296C261.387,-271.417 253.349,-257.118 248,-244 241.758,-228.691 236.64,-210.587 233.295,-197.378"/>
<polygon fill="midnightblue" stroke="midnightblue" points="236.682,-196.493 230.917,-187.604 229.88,-198.148 236.682,-196.493"/>
</g>
<!-- Node5 -->
<g id="node6" class="node"><title>Node5</title>
<g id="a_node6"><a xlink:href="_projectile_8h.html" target="_top" xlink:title="../Projectiles/Projectile.h">
<polygon fill="white" stroke="black" points="256.5,-112.5 256.5,-131.5 379.5,-131.5 379.5,-112.5 256.5,-112.5"/>
<text text-anchor="middle" x="318" y="-119.5" font-family="Helvetica,sans-Serif" font-size="10.00">../Projectiles/Projectile.h</text>
</a>
</g>
</g>
<!-- Node0&#45;&gt;Node5 -->
<g id="edge25" class="edge"><title>Node0&#45;&gt;Node5</title>
<path fill="none" stroke="midnightblue" d="M327.139,-280.42C348.598,-274.092 371.092,-263.098 384,-244 408.53,-207.708 364.229,-161.447 336.993,-138.032"/>
<polygon fill="midnightblue" stroke="midnightblue" points="339.11,-135.24 329.184,-131.535 334.633,-140.621 339.11,-135.24"/>
</g>
<!-- Node10 -->
<g id="node11" class="node"><title>Node10</title>
<g id="a_node11"><a xlink:href="_vaisseau_8h.html" target="_top" xlink:title="../Vaisseau/Vaisseau.h">
<polygon fill="white" stroke="black" points="257,-224.5 257,-243.5 375,-243.5 375,-224.5 257,-224.5"/>
<text text-anchor="middle" x="316" y="-231.5" font-family="Helvetica,sans-Serif" font-size="10.00">../Vaisseau/Vaisseau.h</text>
</a>
</g>
</g>
<!-- Node0&#45;&gt;Node10 -->
<g id="edge18" class="edge"><title>Node0&#45;&gt;Node10</title>
<path fill="none" stroke="midnightblue" d="M279.266,-280.083C285.545,-272.377 294.788,-261.033 302.431,-251.653"/>
<polygon fill="midnightblue" stroke="midnightblue" points="305.266,-253.714 308.869,-243.751 299.839,-249.293 305.266,-253.714"/>
</g>
<!-- Node4&#45;&gt;Node1 -->
<g id="edge5" class="edge"><title>Node4&#45;&gt;Node1</title>
<path fill="none" stroke="midnightblue" d="M224.753,-168.075C212.21,-141.719 175.165,-63.878 158.405,-28.6608"/>
<polygon fill="midnightblue" stroke="midnightblue" points="161.535,-27.0937 154.078,-19.5681 155.215,-30.1018 161.535,-27.0937"/>
</g>
<!-- Node4&#45;&gt;Node2 -->
<g id="edge6" class="edge"><title>Node4&#45;&gt;Node2</title>
<path fill="none" stroke="midnightblue" d="M261.277,-172.019C294.515,-165.961 347.086,-153.741 388,-132 411.984,-119.255 435.197,-98.0629 449.753,-83.3564"/>
<polygon fill="midnightblue" stroke="midnightblue" points="452.475,-85.5753 456.899,-75.9481 447.437,-80.7155 452.475,-85.5753"/>
</g>
<!-- Node4&#45;&gt;Node3 -->
<g id="edge7" class="edge"><title>Node4&#45;&gt;Node3</title>
<path fill="none" stroke="midnightblue" d="M217.487,-168.28C206.362,-159.616 189.287,-145.681 176,-132 161.275,-116.838 146.403,-97.786 136.358,-84.2366"/>
<polygon fill="midnightblue" stroke="midnightblue" points="138.959,-81.8639 130.236,-75.8509 133.306,-85.9914 138.959,-81.8639"/>
</g>
<!-- Node4&#45;&gt;Node5 -->
<g id="edge8" class="edge"><title>Node4&#45;&gt;Node5</title>
<path fill="none" stroke="midnightblue" d="M243.299,-168.324C257.183,-159.9 278.492,-146.971 294.804,-137.074"/>
<polygon fill="midnightblue" stroke="midnightblue" points="297.002,-139.834 303.736,-131.655 293.371,-133.85 297.002,-139.834"/>
</g>
<!-- Node6 -->
<g id="node7" class="node"><title>Node6</title>
<g id="a_node7"><a xlink:href="_entite_8h.html" target="_top" xlink:title="../Entite.h">
<polygon fill="white" stroke="black" points="288.5,-56.5 288.5,-75.5 347.5,-75.5 347.5,-56.5 288.5,-56.5"/>
<text text-anchor="middle" x="318" y="-63.5" font-family="Helvetica,sans-Serif" font-size="10.00">../Entite.h</text>
</a>
</g>
</g>
<!-- Node4&#45;&gt;Node6 -->
<g id="edge17" class="edge"><title>Node4&#45;&gt;Node6</title>
<path fill="none" stroke="midnightblue" d="M229.461,-168.137C230.564,-154.75 234.307,-129.119 247,-112 257.268,-98.1525 273.177,-87.5031 287.335,-80.0487"/>
<polygon fill="midnightblue" stroke="midnightblue" points="288.897,-83.1807 296.309,-75.61 285.794,-76.9063 288.897,-83.1807"/>
</g>
<!-- Node5&#45;&gt;Node1 -->
<g id="edge9" class="edge"><title>Node5&#45;&gt;Node1</title>
<path fill="none" stroke="midnightblue" d="M304.817,-112.368C275.988,-93.4924 207.097,-48.385 171.743,-25.2367"/>
<polygon fill="midnightblue" stroke="midnightblue" points="173.405,-22.1412 163.121,-19.5914 169.57,-27.9975 173.405,-22.1412"/>
</g>
<!-- Node5&#45;&gt;Node2 -->
<g id="edge10" class="edge"><title>Node5&#45;&gt;Node2</title>
<path fill="none" stroke="midnightblue" d="M341.293,-112.444C366.528,-103.173 406.89,-88.3464 434.606,-78.1652"/>
<polygon fill="midnightblue" stroke="midnightblue" points="436.013,-81.3769 444.193,-74.6433 433.6,-74.8062 436.013,-81.3769"/>
</g>
<!-- Node5&#45;&gt;Node3 -->
<g id="edge11" class="edge"><title>Node5&#45;&gt;Node3</title>
<path fill="none" stroke="midnightblue" d="M287.26,-112.444C253.275,-102.984 198.502,-87.7377 161.889,-77.5465"/>
<polygon fill="midnightblue" stroke="midnightblue" points="162.649,-74.1249 152.076,-74.8151 160.772,-80.8685 162.649,-74.1249"/>
</g>
<!-- Node5&#45;&gt;Node6 -->
<g id="edge12" class="edge"><title>Node5&#45;&gt;Node6</title>
<path fill="none" stroke="midnightblue" d="M318,-112.083C318,-105.006 318,-94.8611 318,-85.9865"/>
<polygon fill="midnightblue" stroke="midnightblue" points="321.5,-85.751 318,-75.7511 314.5,-85.7511 321.5,-85.751"/>
</g>
<!-- Node6&#45;&gt;Node1 -->
<g id="edge13" class="edge"><title>Node6&#45;&gt;Node1</title>
<path fill="none" stroke="midnightblue" d="M291.38,-56.4435C261.659,-46.8902 213.579,-31.436 181.877,-21.2461"/>
<polygon fill="midnightblue" stroke="midnightblue" points="182.795,-17.8649 172.203,-18.1368 180.653,-24.5291 182.795,-17.8649"/>
</g>
<!-- Node7 -->
<g id="node8" class="node"><title>Node7</title>
<polygon fill="white" stroke="#bfbfbf" points="428,-0.5 428,-19.5 480,-19.5 480,-0.5 428,-0.5"/>
<text text-anchor="middle" x="454" y="-7.5" font-family="Helvetica,sans-Serif" font-size="10.00">memory</text>
</g>
<!-- Node6&#45;&gt;Node7 -->
<g id="edge14" class="edge"><title>Node6&#45;&gt;Node7</title>
<path fill="none" stroke="midnightblue" d="M339.55,-56.4435C362.031,-47.5171 397.488,-33.4387 422.98,-23.3168"/>
<polygon fill="midnightblue" stroke="midnightblue" points="424.549,-26.4598 432.551,-19.5164 421.965,-19.9539 424.549,-26.4598"/>
</g>
<!-- Node8 -->
<g id="node9" class="node"><title>Node8</title>
<polygon fill="white" stroke="#bfbfbf" points="190,-0.5 190,-19.5 288,-19.5 288,-0.5 190,-0.5"/>
<text text-anchor="middle" x="239" y="-7.5" font-family="Helvetica,sans-Serif" font-size="10.00">SFML/System.hpp</text>
</g>
<!-- Node6&#45;&gt;Node8 -->
<g id="edge15" class="edge"><title>Node6&#45;&gt;Node8</title>
<path fill="none" stroke="midnightblue" d="M305.307,-56.324C293.099,-47.979 274.422,-35.2122 259.997,-25.3524"/>
<polygon fill="midnightblue" stroke="midnightblue" points="261.892,-22.4082 251.661,-19.6545 257.942,-28.1871 261.892,-22.4082"/>
</g>
<!-- Node9 -->
<g id="node10" class="node"><title>Node9</title>
<polygon fill="white" stroke="#bfbfbf" points="306,-0.5 306,-19.5 410,-19.5 410,-0.5 306,-0.5"/>
<text text-anchor="middle" x="358" y="-7.5" font-family="Helvetica,sans-Serif" font-size="10.00">SFML/Graphics.hpp</text>
</g>
<!-- Node6&#45;&gt;Node9 -->
<g id="edge16" class="edge"><title>Node6&#45;&gt;Node9</title>
<path fill="none" stroke="midnightblue" d="M324.605,-56.083C330.255,-48.4554 338.545,-37.2645 345.451,-27.9408"/>
<polygon fill="midnightblue" stroke="midnightblue" points="348.378,-29.87 351.518,-19.7511 342.753,-25.7034 348.378,-29.87"/>
</g>
<!-- Node10&#45;&gt;Node1 -->
<g id="edge19" class="edge"><title>Node10&#45;&gt;Node1</title>
<path fill="none" stroke="midnightblue" d="M256.762,-224.613C227.381,-218.233 192.588,-207.142 166,-188 116.564,-152.41 105.418,-134.064 87,-76 84.3125,-67.5271 82.9326,-63.9037 87,-56 94.0773,-42.2475 107.521,-31.7663 120.178,-24.3942"/>
<polygon fill="midnightblue" stroke="midnightblue" points="121.999,-27.3888 129.153,-19.5733 118.687,-21.2221 121.999,-27.3888"/>
</g>
<!-- Node10&#45;&gt;Node2 -->
<g id="edge20" class="edge"><title>Node10&#45;&gt;Node2</title>
<path fill="none" stroke="midnightblue" d="M330.81,-224.401C344.294,-216.135 364.286,-202.749 379,-188 411.476,-155.447 440.457,-109.496 455.04,-84.634"/>
<polygon fill="midnightblue" stroke="midnightblue" points="458.258,-86.0606 460.219,-75.6489 452.193,-82.5648 458.258,-86.0606"/>
</g>
<!-- Node10&#45;&gt;Node3 -->
<g id="edge21" class="edge"><title>Node10&#45;&gt;Node3</title>
<path fill="none" stroke="midnightblue" d="M267.208,-224.441C241.417,-217.934 210.527,-206.777 188,-188 155.256,-160.707 136.977,-112.255 128.968,-85.6962"/>
<polygon fill="midnightblue" stroke="midnightblue" points="132.251,-84.4432 126.152,-75.7795 125.517,-86.3552 132.251,-84.4432"/>
</g>
<!-- Node10&#45;&gt;Node4 -->
<g id="edge22" class="edge"><title>Node10&#45;&gt;Node4</title>
<path fill="none" stroke="midnightblue" d="M302.022,-224.324C288.45,-215.9 267.62,-202.971 251.675,-193.074"/>
<polygon fill="midnightblue" stroke="midnightblue" points="253.286,-189.954 242.943,-187.655 249.594,-195.902 253.286,-189.954"/>
</g>
<!-- Node10&#45;&gt;Node5 -->
<g id="edge24" class="edge"><title>Node10&#45;&gt;Node5</title>
<path fill="none" stroke="midnightblue" d="M316.157,-224.368C316.48,-206.617 317.224,-165.666 317.662,-141.597"/>
<polygon fill="midnightblue" stroke="midnightblue" points="321.161,-141.653 317.844,-131.591 314.162,-141.526 321.161,-141.653"/>
</g>
<!-- Node10&#45;&gt;Node6 -->
<g id="edge23" class="edge"><title>Node10&#45;&gt;Node6</title>
<path fill="none" stroke="midnightblue" d="M325.144,-224.349C341.556,-208.115 375.466,-171.174 388,-132 390.709,-123.534 392.259,-119.802 388,-112 380.181,-97.6789 365.638,-87.2355 351.824,-80.0358"/>
<polygon fill="midnightblue" stroke="midnightblue" points="353.001,-76.7188 342.469,-75.5617 349.981,-83.0338 353.001,-76.7188"/>
</g>
</g>
</svg>
