<?xml version="1.0" encoding="UTF-8" standalone="no"?>
<!DOCTYPE svg PUBLIC "-//W3C//DTD SVG 1.1//EN"
 "http://www.w3.org/Graphics/SVG/1.1/DTD/svg11.dtd">
<!-- Generated by graphviz version 2.38.0 (20140413.2041)
 -->
<!-- Title: src/Capacites/Capacite.h Pages: 1 -->
<!--zoomable 252 -->
<svg id="main" version="1.1" xmlns="http://www.w3.org/2000/svg" xmlns:xlink="http://www.w3.org/1999/xlink" xml:space="preserve" onload="init(evt)">
<style type="text/css"><![CDATA[
.edge:hover path { stroke: red; }
.edge:hover polygon { stroke: red; fill: red; }
]]></style>
<script type="text/javascript"><![CDATA[
var edges = document.getElementsByTagName('g');
if (edges && edges.length) {
  for (var i=0;i<edges.length;i++) {
    if (edges[i].id.substr(0,4)=='edge') {
      edges[i].setAttribute('class','edge');
    }
  }
}
]]></script>
        <defs>
                <circle id="rim" cx="0" cy="0" r="7"/>
                <circle id="rim2" cx="0" cy="0" r="3.5"/>
                <g id="zoomPlus">
                        <use xlink:href="#rim" fill="#404040">
                                <set attributeName="fill" to="#808080" begin="zoomplus.mouseover" end="zoomplus.mouseout"/>
                        </use>
                        <path d="M-4,0h8M0,-4v8" fill="none" stroke="white" stroke-width="1.5" pointer-events="none"/>
                </g>
                <g id="zoomMin">
                        <use xlink:href="#rim" fill="#404040">
                                <set attributeName="fill" to="#808080" begin="zoomminus.mouseover" end="zoomminus.mouseout"/>
                        </use>
                        <path d="M-4,0h8" fill="none" stroke="white" stroke-width="1.5" pointer-events="none"/>
                </g>
                <g id="dirArrow">
                        <path fill="none" stroke="white" stroke-width="1.5" d="M0,-3.0v7 M-2.5,-0.5L0,-3.0L2.5,-0.5"/>
                </g>
               <g id="resetDef">
                       <use xlink:href="#rim2" fill="#404040">
                               <set attributeName="fill" to="#808080" begin="reset.mouseover" end="reset.mouseout"/>
                       </use>
               </g>
        </defs>

<script type="text/javascript">
var viewWidth = 1517;
var viewHeight = 252;
var sectionId = 'dynsection-1';
</script>
<script xlink:href="svgpan.js"/>
<svg id="graph" class="graph">
<g id="viewport">
<title>src/Capacites/Capacite.h</title>
<polygon fill="white" stroke="none" points="-4,4 -4,-248 1512.5,-248 1512.5,4 -4,4"/>
<!-- Node10 -->
<g id="node1" class="node"><title>Node10</title>
<polygon fill="#bfbfbf" stroke="black" points="751.5,-224.5 751.5,-243.5 879.5,-243.5 879.5,-224.5 751.5,-224.5"/>
<text text-anchor="middle" x="815.5" y="-231.5" font-family="Helvetica,sans-Serif" font-size="10.00">src/Capacites/Capacite.h</text>
</g>
<!-- Node11 -->
<g id="node2" class="node"><title>Node11</title>
<g id="a_node2"><a xlink:href="_cap_test_8h.html" target="_top" xlink:title="src/Capacites/CapTest.h">
<polygon fill="white" stroke="black" points="317.5,-168.5 317.5,-187.5 443.5,-187.5 443.5,-168.5 317.5,-168.5"/>
<text text-anchor="middle" x="380.5" y="-175.5" font-family="Helvetica,sans-Serif" font-size="10.00">src/Capacites/CapTest.h</text>
</a>
</g>
</g>
<!-- Node10&#45;&gt;Node11 -->
<g id="edge1" class="edge"><title>Node10&#45;&gt;Node11</title>
<path fill="none" stroke="midnightblue" d="M741.353,-223.795C657.526,-213.389 522.479,-196.625 443.535,-186.825"/>
<polygon fill="midnightblue" stroke="midnightblue" points="740.959,-227.273 751.314,-225.032 741.822,-220.327 740.959,-227.273"/>
</g>
<!-- Node15 -->
<g id="node6" class="node"><title>Node15</title>
<g id="a_node6"><a xlink:href="_cap_piou_8h.html" target="_top" xlink:title="src/Capacites/CapPiou.h">
<polygon fill="white" stroke="black" points="161.5,-168.5 161.5,-187.5 287.5,-187.5 287.5,-168.5 161.5,-168.5"/>
<text text-anchor="middle" x="224.5" y="-175.5" font-family="Helvetica,sans-Serif" font-size="10.00">src/Capacites/CapPiou.h</text>
</a>
</g>
</g>
<!-- Node10&#45;&gt;Node15 -->
<g id="edge5" class="edge"><title>Node10&#45;&gt;Node15</title>
<path fill="none" stroke="midnightblue" d="M741.256,-226.836C642.43,-218.534 462.242,-203.058 308.5,-188 301.785,-187.342 294.772,-186.63 287.783,-185.905"/>
<polygon fill="midnightblue" stroke="midnightblue" points="741.18,-230.342 751.437,-227.69 741.765,-223.367 741.18,-230.342"/>
</g>
<!-- Node17 -->
<g id="node8" class="node"><title>Node17</title>
<g id="a_node8"><a xlink:href="_cap_dash_8h.html" target="_top" xlink:title="src/Capacites/CapDash.h">
<polygon fill="white" stroke="black" points="467.5,-168.5 467.5,-187.5 597.5,-187.5 597.5,-168.5 467.5,-168.5"/>
<text text-anchor="middle" x="532.5" y="-175.5" font-family="Helvetica,sans-Serif" font-size="10.00">src/Capacites/CapDash.h</text>
</a>
</g>
</g>
<!-- Node10&#45;&gt;Node17 -->
<g id="edge8" class="edge"><title>Node10&#45;&gt;Node17</title>
<path fill="none" stroke="midnightblue" d="M760.667,-222.537C707.182,-212.332 626.829,-196.999 577.132,-187.516"/>
<polygon fill="midnightblue" stroke="midnightblue" points="760.179,-226.007 770.658,-224.444 761.491,-219.131 760.179,-226.007"/>
</g>
<!-- Node19 -->
<g id="node10" class="node"><title>Node19</title>
<g id="a_node10"><a xlink:href="_capacite_8cpp.html" target="_top" xlink:title="src/Capacites/Capacite.cpp">
<polygon fill="white" stroke="black" points="625.5,-112.5 625.5,-131.5 763.5,-131.5 763.5,-112.5 625.5,-112.5"/>
<text text-anchor="middle" x="694.5" y="-119.5" font-family="Helvetica,sans-Serif" font-size="10.00">src/Capacites/Capacite.cpp</text>
</a>
</g>
</g>
<!-- Node10&#45;&gt;Node19 -->
<g id="edge12" class="edge"><title>Node10&#45;&gt;Node19</title>
<path fill="none" stroke="midnightblue" d="M798.463,-217.512C772.608,-194.007 724.321,-150.11 703.951,-131.591"/>
<polygon fill="midnightblue" stroke="midnightblue" points="796.252,-220.232 806.005,-224.368 800.96,-215.052 796.252,-220.232"/>
</g>
<!-- Node20 -->
<g id="node11" class="node"><title>Node20</title>
<g id="a_node11"><a xlink:href="_vaisseau_8h.html" target="_top" xlink:title="src/Vaisseau/Vaisseau.h">
<polygon fill="white" stroke="black" points="887,-168.5 887,-187.5 1012,-187.5 1012,-168.5 887,-168.5"/>
<text text-anchor="middle" x="949.5" y="-175.5" font-family="Helvetica,sans-Serif" font-size="10.00">src/Vaisseau/Vaisseau.h</text>
</a>
</g>
</g>
<!-- Node10&#45;&gt;Node20 -->
<g id="edge13" class="edge"><title>Node10&#45;&gt;Node20</title>
<path fill="none" stroke="midnightblue" d="M846.177,-220.638C871.323,-210.504 906.254,-196.427 928.367,-187.516"/>
<polygon fill="midnightblue" stroke="midnightblue" points="844.7,-217.459 836.733,-224.444 847.316,-223.952 844.7,-217.459"/>
</g>
<!-- Node21 -->
<g id="node12" class="node"><title>Node21</title>
<g id="a_node12"><a xlink:href="_partie_8h.html" target="_top" xlink:title="src/Partie.h">
<polygon fill="white" stroke="black" points="782,-112.5 782,-131.5 849,-131.5 849,-112.5 782,-112.5"/>
<text text-anchor="middle" x="815.5" y="-119.5" font-family="Helvetica,sans-Serif" font-size="10.00">src/Partie.h</text>
</a>
</g>
</g>
<!-- Node10&#45;&gt;Node21 -->
<g id="edge27" class="edge"><title>Node10&#45;&gt;Node21</title>
<path fill="none" stroke="midnightblue" d="M815.5,-214.348C815.5,-190.254 815.5,-149.308 815.5,-131.591"/>
<polygon fill="midnightblue" stroke="midnightblue" points="812,-214.368 815.5,-224.368 819,-214.369 812,-214.368"/>
</g>
<!-- Node26 -->
<g id="node17" class="node"><title>Node26</title>
<g id="a_node17"><a xlink:href="_vaisseau_test_8h.html" target="_top" xlink:title="src/Vaisseau/VaisseauTest.h">
<polygon fill="white" stroke="black" points="1050,-112.5 1050,-131.5 1195,-131.5 1195,-112.5 1050,-112.5"/>
<text text-anchor="middle" x="1122.5" y="-119.5" font-family="Helvetica,sans-Serif" font-size="10.00">src/Vaisseau/VaisseauTest.h</text>
</a>
</g>
</g>
<!-- Node10&#45;&gt;Node26 -->
<g id="edge28" class="edge"><title>Node10&#45;&gt;Node26</title>
<path fill="none" stroke="midnightblue" d="M889.502,-223.203C929.344,-216.345 978.742,-205.249 1020.5,-188 1056.6,-173.089 1094.09,-145.532 1111.89,-131.577"/>
<polygon fill="midnightblue" stroke="midnightblue" points="888.877,-219.759 879.59,-224.856 890.029,-226.663 888.877,-219.759"/>
</g>
<!-- Node28 -->
<g id="node19" class="node"><title>Node28</title>
<g id="a_node19"><a xlink:href="_projectile_8cpp.html" target="_top" xlink:title="src/Projectiles/Projectile.cpp">
<polygon fill="white" stroke="black" points="1213,-112.5 1213,-131.5 1354,-131.5 1354,-112.5 1213,-112.5"/>
<text text-anchor="middle" x="1283.5" y="-119.5" font-family="Helvetica,sans-Serif" font-size="10.00">src/Projectiles/Projectile.cpp</text>
</a>
</g>
</g>
<!-- Node10&#45;&gt;Node28 -->
<g id="edge29" class="edge"><title>Node10&#45;&gt;Node28</title>
<path fill="none" stroke="midnightblue" d="M877.749,-222.784C925.952,-214.5 994.267,-201.941 1053.5,-188 1127.42,-170.604 1213.19,-144.864 1256.09,-131.598"/>
<polygon fill="midnightblue" stroke="midnightblue" points="877.047,-219.354 867.779,-224.486 878.225,-226.254 877.047,-219.354"/>
</g>
<!-- Node29 -->
<g id="node20" class="node"><title>Node29</title>
<g id="a_node20"><a xlink:href="_vaisseau_8cpp.html" target="_top" xlink:title="src/Vaisseau/Vaisseau.cpp">
<polygon fill="white" stroke="black" points="1372.5,-112.5 1372.5,-131.5 1508.5,-131.5 1508.5,-112.5 1372.5,-112.5"/>
<text text-anchor="middle" x="1440.5" y="-119.5" font-family="Helvetica,sans-Serif" font-size="10.00">src/Vaisseau/Vaisseau.cpp</text>
</a>
</g>
</g>
<!-- Node10&#45;&gt;Node29 -->
<g id="edge30" class="edge"><title>Node10&#45;&gt;Node29</title>
<path fill="none" stroke="midnightblue" d="M884.682,-223.014C943.511,-214.343 1030.18,-201.146 1105.5,-188 1211.72,-169.461 1336.23,-144.429 1399.33,-131.506"/>
<polygon fill="midnightblue" stroke="midnightblue" points="884.144,-219.556 874.759,-224.473 885.162,-226.481 884.144,-219.556"/>
</g>
<!-- Node12 -->
<g id="node3" class="node"><title>Node12</title>
<g id="a_node3"><a xlink:href="___capacites_8h.html" target="_top" xlink:title="src/Capacites/_Capacites.h">
<polygon fill="white" stroke="black" points="155.5,-112.5 155.5,-131.5 293.5,-131.5 293.5,-112.5 155.5,-112.5"/>
<text text-anchor="middle" x="224.5" y="-119.5" font-family="Helvetica,sans-Serif" font-size="10.00">src/Capacites/_Capacites.h</text>
</a>
</g>
</g>
<!-- Node11&#45;&gt;Node12 -->
<g id="edge2" class="edge"><title>Node11&#45;&gt;Node12</title>
<path fill="none" stroke="midnightblue" d="M346.33,-165.172C316.956,-155.004 275.302,-140.585 249.103,-131.516"/>
<polygon fill="midnightblue" stroke="midnightblue" points="345.187,-168.48 355.781,-168.444 347.476,-161.865 345.187,-168.48"/>
</g>
<!-- Node14 -->
<g id="node5" class="node"><title>Node14</title>
<g id="a_node5"><a xlink:href="_cap_test_8cpp.html" target="_top" xlink:title="src/Capacites/CapTest.cpp">
<polygon fill="white" stroke="black" points="312,-112.5 312,-131.5 449,-131.5 449,-112.5 312,-112.5"/>
<text text-anchor="middle" x="380.5" y="-119.5" font-family="Helvetica,sans-Serif" font-size="10.00">src/Capacites/CapTest.cpp</text>
</a>
</g>
</g>
<!-- Node11&#45;&gt;Node14 -->
<g id="edge4" class="edge"><title>Node11&#45;&gt;Node14</title>
<path fill="none" stroke="midnightblue" d="M380.5,-157.805C380.5,-148.91 380.5,-138.78 380.5,-131.751"/>
<polygon fill="midnightblue" stroke="midnightblue" points="377,-158.083 380.5,-168.083 384,-158.083 377,-158.083"/>
</g>
<!-- Node13 -->
<g id="node4" class="node"><title>Node13</title>
<g id="a_node4"><a xlink:href="_partie_8cpp.html" target="_top" xlink:title="src/Partie.cpp">
<polygon fill="white" stroke="black" points="704,-0.5 704,-19.5 781,-19.5 781,-0.5 704,-0.5"/>
<text text-anchor="middle" x="742.5" y="-7.5" font-family="Helvetica,sans-Serif" font-size="10.00">src/Partie.cpp</text>
</a>
</g>
</g>
<!-- Node12&#45;&gt;Node13 -->
<g id="edge3" class="edge"><title>Node12&#45;&gt;Node13</title>
<path fill="none" stroke="midnightblue" d="M274.558,-110.37C377.537,-88.5017 611.197,-38.8828 703.725,-19.234"/>
<polygon fill="midnightblue" stroke="midnightblue" points="273.77,-106.959 264.716,-112.46 275.224,-113.806 273.77,-106.959"/>
</g>
<!-- Node15&#45;&gt;Node12 -->
<g id="edge6" class="edge"><title>Node15&#45;&gt;Node12</title>
<path fill="none" stroke="midnightblue" d="M224.5,-157.805C224.5,-148.91 224.5,-138.78 224.5,-131.751"/>
<polygon fill="midnightblue" stroke="midnightblue" points="221,-158.083 224.5,-168.083 228,-158.083 221,-158.083"/>
</g>
<!-- Node16 -->
<g id="node7" class="node"><title>Node16</title>
<g id="a_node7"><a xlink:href="_cap_piou_8cpp.html" target="_top" xlink:title="src/Capacites/CapPiou.cpp">
<polygon fill="white" stroke="black" points="0,-112.5 0,-131.5 137,-131.5 137,-112.5 0,-112.5"/>
<text text-anchor="middle" x="68.5" y="-119.5" font-family="Helvetica,sans-Serif" font-size="10.00">src/Capacites/CapPiou.cpp</text>
</a>
</g>
</g>
<!-- Node15&#45;&gt;Node16 -->
<g id="edge7" class="edge"><title>Node15&#45;&gt;Node16</title>
<path fill="none" stroke="midnightblue" d="M190.33,-165.172C160.956,-155.004 119.302,-140.585 93.103,-131.516"/>
<polygon fill="midnightblue" stroke="midnightblue" points="189.187,-168.48 199.781,-168.444 191.476,-161.865 189.187,-168.48"/>
</g>
<!-- Node17&#45;&gt;Node12 -->
<g id="edge9" class="edge"><title>Node17&#45;&gt;Node12</title>
<path fill="none" stroke="midnightblue" d="M473.548,-166.664C415.341,-156.459 327.387,-141.039 273.075,-131.516"/>
<polygon fill="midnightblue" stroke="midnightblue" points="473.242,-170.164 483.696,-168.444 474.451,-163.269 473.242,-170.164"/>
</g>
<!-- Node17&#45;&gt;Node14 -->
<g id="edge11" class="edge"><title>Node17&#45;&gt;Node14</title>
<path fill="none" stroke="midnightblue" d="M498.832,-165.039C470.232,-154.879 429.888,-140.546 404.472,-131.516"/>
<polygon fill="midnightblue" stroke="midnightblue" points="497.82,-168.394 508.415,-168.444 500.164,-161.798 497.82,-168.394"/>
</g>
<!-- Node18 -->
<g id="node9" class="node"><title>Node18</title>
<g id="a_node9"><a xlink:href="_cap_dash_8cpp.html" target="_top" xlink:title="src/Capacites/CapDash.cpp">
<polygon fill="white" stroke="black" points="467.5,-112.5 467.5,-131.5 607.5,-131.5 607.5,-112.5 467.5,-112.5"/>
<text text-anchor="middle" x="537.5" y="-119.5" font-family="Helvetica,sans-Serif" font-size="10.00">src/Capacites/CapDash.cpp</text>
</a>
</g>
</g>
<!-- Node17&#45;&gt;Node18 -->
<g id="edge10" class="edge"><title>Node17&#45;&gt;Node18</title>
<path fill="none" stroke="midnightblue" d="M534.25,-158.101C535.08,-149.136 536.032,-138.858 536.69,-131.751"/>
<polygon fill="midnightblue" stroke="midnightblue" points="530.763,-157.803 533.326,-168.083 537.733,-158.448 530.763,-157.803"/>
</g>
<!-- Node20&#45;&gt;Node19 -->
<g id="edge14" class="edge"><title>Node20&#45;&gt;Node19</title>
<path fill="none" stroke="midnightblue" d="M899.188,-166.346C850.997,-156.141 779.217,-140.94 734.716,-131.516"/>
<polygon fill="midnightblue" stroke="midnightblue" points="898.586,-169.796 909.094,-168.444 900.037,-162.948 898.586,-169.796"/>
</g>
<!-- Node20&#45;&gt;Node21 -->
<g id="edge15" class="edge"><title>Node20&#45;&gt;Node21</title>
<path fill="none" stroke="midnightblue" d="M918.823,-164.638C893.677,-154.504 858.746,-140.427 836.633,-131.516"/>
<polygon fill="midnightblue" stroke="midnightblue" points="917.684,-167.952 928.267,-168.444 920.3,-161.459 917.684,-167.952"/>
</g>
<!-- Node23 -->
<g id="node14" class="node"><title>Node23</title>
<g id="a_node14"><a xlink:href="_vaisseau_eclaireur_8h.html" target="_top" xlink:title="src/Vaisseau/VaisseauEclaireur.h">
<polygon fill="white" stroke="black" points="867.5,-112.5 867.5,-131.5 1031.5,-131.5 1031.5,-112.5 867.5,-112.5"/>
<text text-anchor="middle" x="949.5" y="-119.5" font-family="Helvetica,sans-Serif" font-size="10.00">src/Vaisseau/VaisseauEclaireur.h</text>
</a>
</g>
</g>
<!-- Node20&#45;&gt;Node23 -->
<g id="edge18" class="edge"><title>Node20&#45;&gt;Node23</title>
<path fill="none" stroke="midnightblue" d="M949.5,-157.805C949.5,-148.91 949.5,-138.78 949.5,-131.751"/>
<polygon fill="midnightblue" stroke="midnightblue" points="946,-158.083 949.5,-168.083 953,-158.083 946,-158.083"/>
</g>
<!-- Node20&#45;&gt;Node26 -->
<g id="edge22" class="edge"><title>Node20&#45;&gt;Node26</title>
<path fill="none" stroke="midnightblue" d="M986.547,-165.436C1019.16,-155.255 1065.91,-140.664 1095.22,-131.516"/>
<polygon fill="midnightblue" stroke="midnightblue" points="985.415,-162.123 976.912,-168.444 987.501,-168.805 985.415,-162.123"/>
</g>
<!-- Node20&#45;&gt;Node28 -->
<g id="edge25" class="edge"><title>Node20&#45;&gt;Node28</title>
<path fill="none" stroke="midnightblue" d="M1012.65,-166.791C1075.76,-156.587 1171.68,-141.078 1230.82,-131.516"/>
<polygon fill="midnightblue" stroke="midnightblue" points="1011.74,-163.392 1002.42,-168.444 1012.85,-170.303 1011.74,-163.392"/>
</g>
<!-- Node20&#45;&gt;Node29 -->
<g id="edge26" class="edge"><title>Node20&#45;&gt;Node29</title>
<path fill="none" stroke="midnightblue" d="M1022.34,-169.263C1105.05,-160.435 1244.02,-145.476 1363.5,-132 1366.44,-131.668 1369.45,-131.327 1372.48,-130.98"/>
<polygon fill="midnightblue" stroke="midnightblue" points="1021.86,-165.794 1012.29,-170.335 1022.61,-172.754 1021.86,-165.794"/>
</g>
<!-- Node21&#45;&gt;Node13 -->
<g id="edge17" class="edge"><title>Node21&#45;&gt;Node13</title>
<path fill="none" stroke="midnightblue" d="M792.752,-106.751C781.882,-98.8896 769.524,-88.2412 761.5,-76 749.77,-58.1043 745.115,-32.8009 743.404,-19.6678"/>
<polygon fill="midnightblue" stroke="midnightblue" points="790.813,-109.665 801.04,-112.435 794.773,-103.892 790.813,-109.665"/>
</g>
<!-- Node22 -->
<g id="node13" class="node"><title>Node22</title>
<g id="a_node13"><a xlink:href="main_8cpp.html" target="_top" xlink:title="src/main.cpp">
<polygon fill="white" stroke="black" points="771,-56.5 771,-75.5 844,-75.5 844,-56.5 771,-56.5"/>
<text text-anchor="middle" x="807.5" y="-63.5" font-family="Helvetica,sans-Serif" font-size="10.00">src/main.cpp</text>
</a>
</g>
</g>
<!-- Node21&#45;&gt;Node22 -->
<g id="edge16" class="edge"><title>Node21&#45;&gt;Node22</title>
<path fill="none" stroke="midnightblue" d="M812.7,-102.101C811.372,-93.1357 809.849,-82.8579 808.796,-75.7511"/>
<polygon fill="midnightblue" stroke="midnightblue" points="809.251,-102.704 814.179,-112.083 816.176,-101.678 809.251,-102.704"/>
</g>
<!-- Node24 -->
<g id="node15" class="node"><title>Node24</title>
<g id="a_node15"><a xlink:href="__vaisseaux_8h.html" target="_top" xlink:title="src/Vaisseau/_vaisseaux.h">
<polygon fill="white" stroke="black" points="1054.5,-56.5 1054.5,-75.5 1188.5,-75.5 1188.5,-56.5 1054.5,-56.5"/>
<text text-anchor="middle" x="1121.5" y="-63.5" font-family="Helvetica,sans-Serif" font-size="10.00">src/Vaisseau/_vaisseaux.h</text>
</a>
</g>
</g>
<!-- Node23&#45;&gt;Node24 -->
<g id="edge19" class="edge"><title>Node23&#45;&gt;Node24</title>
<path fill="none" stroke="midnightblue" d="M986.332,-109.436C1018.76,-99.2551 1065.24,-84.664 1094.37,-75.5164"/>
<polygon fill="midnightblue" stroke="midnightblue" points="985.246,-106.109 976.754,-112.444 987.343,-112.787 985.246,-106.109"/>
</g>
<!-- Node25 -->
<g id="node16" class="node"><title>Node25</title>
<g id="a_node16"><a xlink:href="_vaisseau_eclaireur_8cpp.html" target="_top" xlink:title="src/Vaisseau/VaisseauEclaireur.cpp">
<polygon fill="white" stroke="black" points="862.5,-56.5 862.5,-75.5 1036.5,-75.5 1036.5,-56.5 862.5,-56.5"/>
<text text-anchor="middle" x="949.5" y="-63.5" font-family="Helvetica,sans-Serif" font-size="10.00">src/Vaisseau/VaisseauEclaireur.cpp</text>
</a>
</g>
</g>
<!-- Node23&#45;&gt;Node25 -->
<g id="edge21" class="edge"><title>Node23&#45;&gt;Node25</title>
<path fill="none" stroke="midnightblue" d="M949.5,-101.805C949.5,-92.9102 949.5,-82.7798 949.5,-75.7511"/>
<polygon fill="midnightblue" stroke="midnightblue" points="946,-102.083 949.5,-112.083 953,-102.083 946,-102.083"/>
</g>
<!-- Node24&#45;&gt;Node13 -->
<g id="edge20" class="edge"><title>Node24&#45;&gt;Node13</title>
<path fill="none" stroke="midnightblue" d="M1051.5,-55.0261C971.864,-43.6799 844.668,-25.557 781.18,-16.5111"/>
<polygon fill="midnightblue" stroke="midnightblue" points="1051.05,-58.4979 1061.45,-56.4435 1052.04,-51.5679 1051.05,-58.4979"/>
</g>
<!-- Node26&#45;&gt;Node24 -->
<g id="edge23" class="edge"><title>Node26&#45;&gt;Node24</title>
<path fill="none" stroke="midnightblue" d="M1122.14,-101.805C1121.98,-92.9102 1121.79,-82.7798 1121.66,-75.7511"/>
<polygon fill="midnightblue" stroke="midnightblue" points="1118.65,-102.15 1122.33,-112.083 1125.65,-102.02 1118.65,-102.15"/>
</g>
<!-- Node27 -->
<g id="node18" class="node"><title>Node27</title>
<g id="a_node18"><a xlink:href="_vaisseau_test_8cpp.html" target="_top" xlink:title="src/Vaisseau/VaisseauTest.cpp">
<polygon fill="white" stroke="black" points="1207,-56.5 1207,-75.5 1362,-75.5 1362,-56.5 1207,-56.5"/>
<text text-anchor="middle" x="1284.5" y="-63.5" font-family="Helvetica,sans-Serif" font-size="10.00">src/Vaisseau/VaisseauTest.cpp</text>
</a>
</g>
</g>
<!-- Node26&#45;&gt;Node27 -->
<g id="edge24" class="edge"><title>Node26&#45;&gt;Node27</title>
<path fill="none" stroke="midnightblue" d="M1157.98,-109.172C1188.49,-99.0039 1231.74,-84.5852 1258.95,-75.5164"/>
<polygon fill="midnightblue" stroke="midnightblue" points="1156.55,-105.961 1148.17,-112.444 1158.76,-112.602 1156.55,-105.961"/>
</g>
</g>
</svg>
        <g id="navigator" transform="translate(0 0)" fill="#404254">
                <rect fill="#f2f5e9" fill-opacity="0.5" stroke="#606060" stroke-width=".5" x="0" y="0" width="60" height="60"/>
                <use id="zoomplus" xlink:href="#zoomPlus" x="17" y="9" onmousedown="handleZoom(evt,'in')"/>
                <use id="zoomminus" xlink:href="#zoomMin" x="42" y="9" onmousedown="handleZoom(evt,'out')"/>
                <use id="reset" xlink:href="#resetDef" x="30" y="36" onmousedown="handleReset()"/>
                <g id="arrowUp" xlink:href="#dirArrow" transform="translate(30 24)" onmousedown="handlePan(0,-1)">
                  <use xlink:href="#rim" fill="#404040">
                        <set attributeName="fill" to="#808080" begin="arrowUp.mouseover" end="arrowUp.mouseout"/>
                  </use>
                  <path fill="none" stroke="white" stroke-width="1.5" d="M0,-3.0v7 M-2.5,-0.5L0,-3.0L2.5,-0.5"/>
                </g>
                <g id="arrowRight" xlink:href="#dirArrow" transform="rotate(90) translate(36 -43)" onmousedown="handlePan(1,0)">
                  <use xlink:href="#rim" fill="#404040">
                        <set attributeName="fill" to="#808080" begin="arrowRight.mouseover" end="arrowRight.mouseout"/>
                  </use>
                  <path fill="none" stroke="white" stroke-width="1.5" d="M0,-3.0v7 M-2.5,-0.5L0,-3.0L2.5,-0.5"/>
                </g>
                <g id="arrowDown" xlink:href="#dirArrow" transform="rotate(180) translate(-30 -48)" onmousedown="handlePan(0,1)">
                  <use xlink:href="#rim" fill="#404040">
                        <set attributeName="fill" to="#808080" begin="arrowDown.mouseover" end="arrowDown.mouseout"/>
                  </use>
                  <path fill="none" stroke="white" stroke-width="1.5" d="M0,-3.0v7 M-2.5,-0.5L0,-3.0L2.5,-0.5"/>
                </g>
                <g id="arrowLeft" xlink:href="#dirArrow" transform="rotate(270) translate(-36 17)" onmousedown="handlePan(-1,0)">
                  <use xlink:href="#rim" fill="#404040">
                        <set attributeName="fill" to="#808080" begin="arrowLeft.mouseover" end="arrowLeft.mouseout"/>
                  </use>
                  <path fill="none" stroke="white" stroke-width="1.5" d="M0,-3.0v7 M-2.5,-0.5L0,-3.0L2.5,-0.5"/>
                </g>
        </g>
        <svg viewBox="0 0 15 15" width="100%" height="30px" preserveAspectRatio="xMaxYMin meet">
         <g id="arrow_out" transform="scale(0.3 0.3)">
          <a xlink:href="_capacite_8h__dep__incl_org.svg" target="_base">
           <rect id="button" ry="5" rx="5" y="6" x="6" height="38" width="38"
                fill="#f2f5e9" fill-opacity="0.5" stroke="#606060" stroke-width="1.0"/>
           <path id="arrow"
             d="M 11.500037,31.436501 C 11.940474,20.09759 22.043105,11.32322 32.158766,21.979434 L 37.068811,17.246167 C 37.068811,17.246167 37.088388,32 37.088388,32 L 22.160133,31.978069 C 22.160133,31.978069 26.997745,27.140456 26.997745,27.140456 C 18.528582,18.264221 13.291696,25.230495 11.500037,31.436501 z"
             style="fill:#404040;"/>
          </a>
         </g>
        </svg>
</svg>
