<?xml version="1.0" encoding="UTF-8" standalone="no"?>
<!DOCTYPE svg PUBLIC "-//W3C//DTD SVG 1.1//EN"
 "http://www.w3.org/Graphics/SVG/1.1/DTD/svg11.dtd">
<!-- Generated by graphviz version 2.38.0 (20140413.2041)
 -->
<!-- Title: src/Capacites/Capacite.h Pages: 1 -->
<svg width="429pt" height="196pt"
 viewBox="0.00 0.00 428.65 196.00" xmlns="http://www.w3.org/2000/svg" xmlns:xlink="http://www.w3.org/1999/xlink">
<g id="graph0" class="graph" transform="scale(1 1) rotate(0) translate(4 192)">
<title>src/Capacites/Capacite.h</title>
<polygon fill="white" stroke="none" points="-4,4 -4,-192 424.647,-192 424.647,4 -4,4"/>
<!-- Node0 -->
<g id="node1" class="node"><title>Node0</title>
<polygon fill="#bfbfbf" stroke="black" points="2.64728,-168.5 2.64728,-187.5 130.647,-187.5 130.647,-168.5 2.64728,-168.5"/>
<text text-anchor="middle" x="66.6473" y="-175.5" font-family="Helvetica,sans-Serif" font-size="10.00">src/Capacites/Capacite.h</text>
</g>
<!-- Node1 -->
<g id="node2" class="node"><title>Node1</title>
<polygon fill="white" stroke="#bfbfbf" points="68.6473,-0.5 68.6473,-19.5 112.647,-19.5 112.647,-0.5 68.6473,-0.5"/>
<text text-anchor="middle" x="90.6473" y="-7.5" font-family="Helvetica,sans-Serif" font-size="10.00">vector</text>
</g>
<!-- Node0&#45;&gt;Node1 -->
<g id="edge1" class="edge"><title>Node0&#45;&gt;Node1</title>
<path fill="none" stroke="midnightblue" d="M56.1763,-168.244C33.2324,-147.968 -17.5635,-96.4361 6.64728,-56 17.8856,-37.2302 39.9262,-25.8445 58.6109,-19.2225"/>
<polygon fill="midnightblue" stroke="midnightblue" points="59.8386,-22.5041 68.2778,-16.0986 57.686,-15.8433 59.8386,-22.5041"/>
</g>
<!-- Node2 -->
<g id="node3" class="node"><title>Node2</title>
<polygon fill="white" stroke="#bfbfbf" points="16.1473,-56.5 16.1473,-75.5 57.1473,-75.5 57.1473,-56.5 16.1473,-56.5"/>
<text text-anchor="middle" x="36.6473" y="-63.5" font-family="Helvetica,sans-Serif" font-size="10.00">string</text>
</g>
<!-- Node0&#45;&gt;Node2 -->
<g id="edge2" class="edge"><title>Node0&#45;&gt;Node2</title>
<path fill="none" stroke="midnightblue" d="M63.8084,-168.419C60.8639,-159.398 56.2017,-144.769 52.6473,-132 48.3567,-116.586 44.0536,-98.9525 40.9923,-85.9442"/>
<polygon fill="midnightblue" stroke="midnightblue" points="44.3254,-84.824 38.6532,-75.8754 37.5069,-86.408 44.3254,-84.824"/>
</g>
<!-- Node3 -->
<g id="node4" class="node"><title>Node3</title>
<polygon fill="white" stroke="#bfbfbf" points="75.6473,-56.5 75.6473,-75.5 131.647,-75.5 131.647,-56.5 75.6473,-56.5"/>
<text text-anchor="middle" x="103.647" y="-63.5" font-family="Helvetica,sans-Serif" font-size="10.00">algorithm</text>
</g>
<!-- Node0&#45;&gt;Node3 -->
<g id="edge3" class="edge"><title>Node0&#45;&gt;Node3</title>
<path fill="none" stroke="midnightblue" d="M68.9619,-168.084C72.2997,-155.479 78.8175,-131.782 85.6473,-112 88.7752,-102.94 92.6832,-93.0338 96.0578,-84.8277"/>
<polygon fill="midnightblue" stroke="midnightblue" points="99.3152,-86.1102 99.9483,-75.5343 92.8581,-83.4071 99.3152,-86.1102"/>
</g>
<!-- Node4 -->
<g id="node5" class="node"><title>Node4</title>
<g id="a_node5"><a xlink:href="_projectile_8h.html" target="_top" xlink:title="../Projectiles/Projectile.h">
<polygon fill="white" stroke="black" points="95.1473,-112.5 95.1473,-131.5 218.147,-131.5 218.147,-112.5 95.1473,-112.5"/>
<text text-anchor="middle" x="156.647" y="-119.5" font-family="Helvetica,sans-Serif" font-size="10.00">../Projectiles/Projectile.h</text>
</a>
</g>
</g>
<!-- Node0&#45;&gt;Node4 -->
<g id="edge4" class="edge"><title>Node0&#45;&gt;Node4</title>
<path fill="none" stroke="midnightblue" d="M81.1073,-168.324C95.1469,-159.9 116.696,-146.971 133.19,-137.074"/>
<polygon fill="midnightblue" stroke="midnightblue" points="135.449,-139.801 142.223,-131.655 131.847,-133.798 135.449,-139.801"/>
</g>
<!-- Node5 -->
<g id="node6" class="node"><title>Node5</title>
<g id="a_node6"><a xlink:href="_entite_8h.html" target="_top" xlink:title="../Entite.h">
<polygon fill="white" stroke="black" points="201.147,-56.5 201.147,-75.5 260.147,-75.5 260.147,-56.5 201.147,-56.5"/>
<text text-anchor="middle" x="230.647" y="-63.5" font-family="Helvetica,sans-Serif" font-size="10.00">../Entite.h</text>
</a>
</g>
</g>
<!-- Node0&#45;&gt;Node5 -->
<g id="edge13" class="edge"><title>Node0&#45;&gt;Node5</title>
<path fill="none" stroke="midnightblue" d="M121.721,-168.449C162.548,-160.892 213.327,-148.504 226.647,-132 236.957,-119.226 236.859,-100.035 234.843,-85.8131"/>
<polygon fill="midnightblue" stroke="midnightblue" points="238.232,-84.8907 232.977,-75.6911 231.348,-86.1599 238.232,-84.8907"/>
</g>
<!-- Node4&#45;&gt;Node1 -->
<g id="edge5" class="edge"><title>Node4&#45;&gt;Node1</title>
<path fill="none" stroke="midnightblue" d="M156.134,-112.395C155.018,-99.3433 151.516,-74.1452 140.647,-56 133.521,-44.1028 122.247,-33.5602 112.207,-25.6755"/>
<polygon fill="midnightblue" stroke="midnightblue" points="114.295,-22.8661 104.182,-19.7062 110.117,-28.4827 114.295,-22.8661"/>
</g>
<!-- Node4&#45;&gt;Node2 -->
<g id="edge6" class="edge"><title>Node4&#45;&gt;Node2</title>
<path fill="none" stroke="midnightblue" d="M137.633,-112.444C118.06,-103.636 87.3397,-89.8116 64.9183,-79.722"/>
<polygon fill="midnightblue" stroke="midnightblue" points="66.1282,-76.4284 55.5727,-75.5164 63.2556,-82.8119 66.1282,-76.4284"/>
</g>
<!-- Node4&#45;&gt;Node3 -->
<g id="edge7" class="edge"><title>Node4&#45;&gt;Node3</title>
<path fill="none" stroke="midnightblue" d="M147.895,-112.083C140.178,-104.22 128.743,-92.5688 119.431,-83.0813"/>
<polygon fill="midnightblue" stroke="midnightblue" points="121.739,-80.4363 112.236,-75.7511 116.743,-85.3396 121.739,-80.4363"/>
</g>
<!-- Node4&#45;&gt;Node5 -->
<g id="edge8" class="edge"><title>Node4&#45;&gt;Node5</title>
<path fill="none" stroke="midnightblue" d="M168.537,-112.324C179.797,-104.107 196.934,-91.6017 210.356,-81.8069"/>
<polygon fill="midnightblue" stroke="midnightblue" points="212.527,-84.5559 218.542,-75.8339 208.4,-78.9014 212.527,-84.5559"/>
</g>
<!-- Node5&#45;&gt;Node1 -->
<g id="edge9" class="edge"><title>Node5&#45;&gt;Node1</title>
<path fill="none" stroke="midnightblue" d="M208.464,-56.4435C185.219,-47.4776 148.498,-33.314 122.232,-23.1827"/>
<polygon fill="midnightblue" stroke="midnightblue" points="123.317,-19.8497 112.727,-19.5164 120.797,-26.3807 123.317,-19.8497"/>
</g>
<!-- Node6 -->
<g id="node7" class="node"><title>Node6</title>
<polygon fill="white" stroke="#bfbfbf" points="252.647,-0.5 252.647,-19.5 304.647,-19.5 304.647,-0.5 252.647,-0.5"/>
<text text-anchor="middle" x="278.647" y="-7.5" font-family="Helvetica,sans-Serif" font-size="10.00">memory</text>
</g>
<!-- Node5&#45;&gt;Node6 -->
<g id="edge10" class="edge"><title>Node5&#45;&gt;Node6</title>
<path fill="none" stroke="midnightblue" d="M238.574,-56.083C245.493,-48.2982 255.713,-36.8015 264.099,-27.3665"/>
<polygon fill="midnightblue" stroke="midnightblue" points="266.841,-29.5505 270.869,-19.7511 261.609,-24.8999 266.841,-29.5505"/>
</g>
<!-- Node7 -->
<g id="node8" class="node"><title>Node7</title>
<polygon fill="white" stroke="#bfbfbf" points="322.647,-0.5 322.647,-19.5 420.647,-19.5 420.647,-0.5 322.647,-0.5"/>
<text text-anchor="middle" x="371.647" y="-7.5" font-family="Helvetica,sans-Serif" font-size="10.00">SFML/System.hpp</text>
</g>
<!-- Node5&#45;&gt;Node7 -->
<g id="edge11" class="edge"><title>Node5&#45;&gt;Node7</title>
<path fill="none" stroke="midnightblue" d="M252.989,-56.4435C276.4,-47.4776 313.383,-33.314 339.837,-23.1827"/>
<polygon fill="midnightblue" stroke="midnightblue" points="341.323,-26.3615 349.41,-19.5164 338.82,-19.8245 341.323,-26.3615"/>
</g>
<!-- Node8 -->
<g id="node9" class="node"><title>Node8</title>
<polygon fill="white" stroke="#bfbfbf" points="130.647,-0.5 130.647,-19.5 234.647,-19.5 234.647,-0.5 130.647,-0.5"/>
<text text-anchor="middle" x="182.647" y="-7.5" font-family="Helvetica,sans-Serif" font-size="10.00">SFML/Graphics.hpp</text>
</g>
<!-- Node5&#45;&gt;Node8 -->
<g id="edge12" class="edge"><title>Node5&#45;&gt;Node8</title>
<path fill="none" stroke="midnightblue" d="M222.721,-56.083C215.801,-48.2982 205.582,-36.8015 197.195,-27.3665"/>
<polygon fill="midnightblue" stroke="midnightblue" points="199.686,-24.8999 190.426,-19.7511 194.454,-29.5505 199.686,-24.8999"/>
</g>
</g>
</svg>
