<?xml version="1.0" encoding="UTF-8" standalone="no"?>
<!DOCTYPE svg PUBLIC "-//W3C//DTD SVG 1.1//EN"
 "http://www.w3.org/Graphics/SVG/1.1/DTD/svg11.dtd">
<!-- Generated by graphviz version 2.38.0 (20140413.2041)
 -->
<!-- Title: src/Capacites/CapDash.h Pages: 1 -->
<svg width="464pt" height="252pt"
 viewBox="0.00 0.00 463.94 252.00" xmlns="http://www.w3.org/2000/svg" xmlns:xlink="http://www.w3.org/1999/xlink">
<g id="graph0" class="graph" transform="scale(1 1) rotate(0) translate(4 248)">
<title>src/Capacites/CapDash.h</title>
<polygon fill="white" stroke="none" points="-4,4 -4,-248 459.94,-248 459.94,4 -4,4"/>
<!-- Node0 -->
<g id="node1" class="node"><title>Node0</title>
<polygon fill="#bfbfbf" stroke="black" points="106.94,-224.5 106.94,-243.5 236.94,-243.5 236.94,-224.5 106.94,-224.5"/>
<text text-anchor="middle" x="171.94" y="-231.5" font-family="Helvetica,sans-Serif" font-size="10.00">src/Capacites/CapDash.h</text>
</g>
<!-- Node1 -->
<g id="node2" class="node"><title>Node1</title>
<g id="a_node2"><a xlink:href="_capacite_8h.html" target="_top" xlink:title="Capacite.h">
<polygon fill="white" stroke="black" points="29.9404,-168.5 29.9404,-187.5 93.9404,-187.5 93.9404,-168.5 29.9404,-168.5"/>
<text text-anchor="middle" x="61.9404" y="-175.5" font-family="Helvetica,sans-Serif" font-size="10.00">Capacite.h</text>
</a>
</g>
</g>
<!-- Node0&#45;&gt;Node1 -->
<g id="edge1" class="edge"><title>Node0&#45;&gt;Node1</title>
<path fill="none" stroke="midnightblue" d="M154.267,-224.324C136.546,-215.625 109.037,-202.12 88.652,-192.113"/>
<polygon fill="midnightblue" stroke="midnightblue" points="90.089,-188.919 79.5699,-187.655 87.0042,-195.203 90.089,-188.919"/>
</g>
<!-- Node6 -->
<g id="node7" class="node"><title>Node6</title>
<g id="a_node7"><a xlink:href="_entite_8h.html" target="_top" xlink:title="../Entite.h">
<polygon fill="white" stroke="black" points="212.44,-56.5 212.44,-75.5 271.44,-75.5 271.44,-56.5 212.44,-56.5"/>
<text text-anchor="middle" x="241.94" y="-63.5" font-family="Helvetica,sans-Serif" font-size="10.00">../Entite.h</text>
</a>
</g>
</g>
<!-- Node0&#45;&gt;Node6 -->
<g id="edge16" class="edge"><title>Node0&#45;&gt;Node6</title>
<path fill="none" stroke="midnightblue" d="M194.776,-224.404C210.403,-217.215 230.025,-205.324 239.94,-188 258.313,-155.901 252.363,-110.731 246.854,-85.6453"/>
<polygon fill="midnightblue" stroke="midnightblue" points="250.191,-84.5518 244.443,-75.6518 243.386,-86.1938 250.191,-84.5518"/>
</g>
<!-- Node11 -->
<g id="node12" class="node"><title>Node11</title>
<g id="a_node12"><a xlink:href="_proj_test_8h.html" target="_top" xlink:title="../Projectiles/ProjTest.h">
<polygon fill="white" stroke="black" points="112.44,-168.5 112.44,-187.5 231.44,-187.5 231.44,-168.5 112.44,-168.5"/>
<text text-anchor="middle" x="171.94" y="-175.5" font-family="Helvetica,sans-Serif" font-size="10.00">../Projectiles/ProjTest.h</text>
</a>
</g>
</g>
<!-- Node0&#45;&gt;Node11 -->
<g id="edge17" class="edge"><title>Node0&#45;&gt;Node11</title>
<path fill="none" stroke="midnightblue" d="M171.94,-224.083C171.94,-217.006 171.94,-206.861 171.94,-197.986"/>
<polygon fill="midnightblue" stroke="midnightblue" points="175.44,-197.751 171.94,-187.751 168.44,-197.751 175.44,-197.751"/>
</g>
<!-- Node2 -->
<g id="node3" class="node"><title>Node2</title>
<polygon fill="white" stroke="#bfbfbf" points="11.9404,-0.5 11.9404,-19.5 55.9404,-19.5 55.9404,-0.5 11.9404,-0.5"/>
<text text-anchor="middle" x="33.9404" y="-7.5" font-family="Helvetica,sans-Serif" font-size="10.00">vector</text>
</g>
<!-- Node1&#45;&gt;Node2 -->
<g id="edge2" class="edge"><title>Node1&#45;&gt;Node2</title>
<path fill="none" stroke="midnightblue" d="M54.5098,-168.299C40.8755,-151.693 12.3106,-113.761 1.94038,-76 -0.413596,-67.4285 -0.763393,-64.4677 1.94038,-56 5.28096,-45.538 12.0401,-35.4277 18.4892,-27.4496"/>
<polygon fill="midnightblue" stroke="midnightblue" points="21.288,-29.5641 25.189,-19.7136 15.9966,-24.9815 21.288,-29.5641"/>
</g>
<!-- Node3 -->
<g id="node4" class="node"><title>Node3</title>
<polygon fill="white" stroke="#bfbfbf" points="85.4404,-56.5 85.4404,-75.5 126.44,-75.5 126.44,-56.5 85.4404,-56.5"/>
<text text-anchor="middle" x="105.94" y="-63.5" font-family="Helvetica,sans-Serif" font-size="10.00">string</text>
</g>
<!-- Node1&#45;&gt;Node3 -->
<g id="edge3" class="edge"><title>Node1&#45;&gt;Node3</title>
<path fill="none" stroke="midnightblue" d="M63.8128,-168.378C66.7033,-155.729 72.7824,-131.527 80.9404,-112 84.9024,-102.517 90.3497,-92.4726 95.1484,-84.2853"/>
<polygon fill="midnightblue" stroke="midnightblue" points="98.1772,-86.0404 100.356,-75.6719 92.1868,-82.4188 98.1772,-86.0404"/>
</g>
<!-- Node4 -->
<g id="node5" class="node"><title>Node4</title>
<polygon fill="white" stroke="#bfbfbf" points="10.9404,-56.5 10.9404,-75.5 66.9404,-75.5 66.9404,-56.5 10.9404,-56.5"/>
<text text-anchor="middle" x="38.9404" y="-63.5" font-family="Helvetica,sans-Serif" font-size="10.00">algorithm</text>
</g>
<!-- Node1&#45;&gt;Node4 -->
<g id="edge4" class="edge"><title>Node1&#45;&gt;Node4</title>
<path fill="none" stroke="midnightblue" d="M58.8317,-168.486C55.6671,-159.52 50.8278,-144.936 47.9404,-132 44.5237,-116.693 42.179,-99.0507 40.7414,-86.0122"/>
<polygon fill="midnightblue" stroke="midnightblue" points="44.2079,-85.5051 39.7075,-75.9136 37.2443,-86.2181 44.2079,-85.5051"/>
</g>
<!-- Node5 -->
<g id="node6" class="node"><title>Node5</title>
<g id="a_node6"><a xlink:href="_projectile_8h.html" target="_top" xlink:title="../Projectiles/Projectile.h">
<polygon fill="white" stroke="black" points="90.4404,-112.5 90.4404,-131.5 213.44,-131.5 213.44,-112.5 90.4404,-112.5"/>
<text text-anchor="middle" x="151.94" y="-119.5" font-family="Helvetica,sans-Serif" font-size="10.00">../Projectiles/Projectile.h</text>
</a>
</g>
</g>
<!-- Node1&#45;&gt;Node5 -->
<g id="edge5" class="edge"><title>Node1&#45;&gt;Node5</title>
<path fill="none" stroke="midnightblue" d="M76.4004,-168.324C90.44,-159.9 111.989,-146.971 128.483,-137.074"/>
<polygon fill="midnightblue" stroke="midnightblue" points="130.742,-139.801 137.516,-131.655 127.141,-133.798 130.742,-139.801"/>
</g>
<!-- Node1&#45;&gt;Node6 -->
<g id="edge15" class="edge"><title>Node1&#45;&gt;Node6</title>
<path fill="none" stroke="midnightblue" d="M94.1499,-169.683C138.156,-159.426 212.699,-141.019 221.94,-132 234.208,-120.027 238.994,-100.728 240.838,-86.2633"/>
<polygon fill="midnightblue" stroke="midnightblue" points="244.358,-86.2068 241.774,-75.9319 237.386,-85.5755 244.358,-86.2068"/>
</g>
<!-- Node5&#45;&gt;Node2 -->
<g id="edge6" class="edge"><title>Node5&#45;&gt;Node2</title>
<path fill="none" stroke="midnightblue" d="M151.958,-112.35C151.534,-98.7836 148.828,-72.3636 134.94,-56 125.468,-44.8389 91.4339,-31.0045 65.466,-21.6436"/>
<polygon fill="midnightblue" stroke="midnightblue" points="66.5714,-18.3221 55.9766,-18.2898 64.2388,-24.9221 66.5714,-18.3221"/>
</g>
<!-- Node5&#45;&gt;Node3 -->
<g id="edge7" class="edge"><title>Node5&#45;&gt;Node3</title>
<path fill="none" stroke="midnightblue" d="M144.344,-112.083C137.713,-104.298 127.919,-92.8015 119.882,-83.3665"/>
<polygon fill="midnightblue" stroke="midnightblue" points="122.544,-81.0939 113.395,-75.7511 117.215,-85.6332 122.544,-81.0939"/>
</g>
<!-- Node5&#45;&gt;Node4 -->
<g id="edge8" class="edge"><title>Node5&#45;&gt;Node4</title>
<path fill="none" stroke="midnightblue" d="M134.035,-112.444C115.686,-103.675 86.9349,-89.9355 65.8468,-79.8579"/>
<polygon fill="midnightblue" stroke="midnightblue" points="67.2936,-76.6703 56.7618,-75.5164 64.2754,-82.9862 67.2936,-76.6703"/>
</g>
<!-- Node5&#45;&gt;Node6 -->
<g id="edge9" class="edge"><title>Node5&#45;&gt;Node6</title>
<path fill="none" stroke="midnightblue" d="M166.4,-112.324C180.44,-103.9 201.989,-90.9709 218.483,-81.0741"/>
<polygon fill="midnightblue" stroke="midnightblue" points="220.742,-83.8007 227.516,-75.6545 217.141,-77.7983 220.742,-83.8007"/>
</g>
<!-- Node6&#45;&gt;Node2 -->
<g id="edge10" class="edge"><title>Node6&#45;&gt;Node2</title>
<path fill="none" stroke="midnightblue" d="M212.422,-57.817C179.145,-49.6494 123.193,-35.7061 66.1694,-20.2716"/>
<polygon fill="midnightblue" stroke="midnightblue" points="66.8342,-16.8253 56.2662,-17.5788 64.9974,-23.5801 66.8342,-16.8253"/>
</g>
<!-- Node7 -->
<g id="node8" class="node"><title>Node7</title>
<polygon fill="white" stroke="#bfbfbf" points="403.94,-0.5 403.94,-19.5 455.94,-19.5 455.94,-0.5 403.94,-0.5"/>
<text text-anchor="middle" x="429.94" y="-7.5" font-family="Helvetica,sans-Serif" font-size="10.00">memory</text>
</g>
<!-- Node6&#45;&gt;Node7 -->
<g id="edge11" class="edge"><title>Node6&#45;&gt;Node7</title>
<path fill="none" stroke="midnightblue" d="M271.73,-56.4435C304.9,-46.9158 358.505,-31.5187 393.984,-21.328"/>
<polygon fill="midnightblue" stroke="midnightblue" points="395.278,-24.5978 403.923,-18.473 393.346,-17.8698 395.278,-24.5978"/>
</g>
<!-- Node8 -->
<g id="node9" class="node"><title>Node8</title>
<polygon fill="white" stroke="#bfbfbf" points="73.9404,-0.5 73.9404,-19.5 171.94,-19.5 171.94,-0.5 73.9404,-0.5"/>
<text text-anchor="middle" x="122.94" y="-7.5" font-family="Helvetica,sans-Serif" font-size="10.00">SFML/System.hpp</text>
</g>
<!-- Node6&#45;&gt;Node8 -->
<g id="edge12" class="edge"><title>Node6&#45;&gt;Node8</title>
<path fill="none" stroke="midnightblue" d="M223.084,-56.4435C203.674,-47.6356 173.21,-33.8116 150.976,-23.722"/>
<polygon fill="midnightblue" stroke="midnightblue" points="152.261,-20.4615 141.708,-19.5164 149.368,-26.836 152.261,-20.4615"/>
</g>
<!-- Node9 -->
<g id="node10" class="node"><title>Node9</title>
<polygon fill="white" stroke="#bfbfbf" points="189.94,-0.5 189.94,-19.5 293.94,-19.5 293.94,-0.5 189.94,-0.5"/>
<text text-anchor="middle" x="241.94" y="-7.5" font-family="Helvetica,sans-Serif" font-size="10.00">SFML/Graphics.hpp</text>
</g>
<!-- Node6&#45;&gt;Node9 -->
<g id="edge13" class="edge"><title>Node6&#45;&gt;Node9</title>
<path fill="none" stroke="midnightblue" d="M241.94,-56.083C241.94,-49.0059 241.94,-38.8611 241.94,-29.9865"/>
<polygon fill="midnightblue" stroke="midnightblue" points="245.44,-29.751 241.94,-19.7511 238.44,-29.7511 245.44,-29.751"/>
</g>
<!-- Node10 -->
<g id="node11" class="node"><title>Node10</title>
<g id="a_node11"><a xlink:href="constantes_8h.html" target="_top" xlink:title="constantes.h">
<polygon fill="white" stroke="black" points="312.44,-0.5 312.44,-19.5 385.44,-19.5 385.44,-0.5 312.44,-0.5"/>
<text text-anchor="middle" x="348.94" y="-7.5" font-family="Helvetica,sans-Serif" font-size="10.00">constantes.h</text>
</a>
</g>
</g>
<!-- Node6&#45;&gt;Node10 -->
<g id="edge14" class="edge"><title>Node6&#45;&gt;Node10</title>
<path fill="none" stroke="midnightblue" d="M259.132,-56.324C276.291,-47.6641 302.886,-34.2424 322.688,-24.249"/>
<polygon fill="midnightblue" stroke="midnightblue" points="324.441,-27.2847 331.792,-19.6545 321.287,-21.0354 324.441,-27.2847"/>
</g>
<!-- Node11&#45;&gt;Node5 -->
<g id="edge18" class="edge"><title>Node11&#45;&gt;Node5</title>
<path fill="none" stroke="midnightblue" d="M168.638,-168.083C165.958,-160.849 162.092,-150.409 158.754,-141.397"/>
<polygon fill="midnightblue" stroke="midnightblue" points="161.937,-139.913 155.182,-131.751 155.373,-142.344 161.937,-139.913"/>
</g>
</g>
</svg>
