<?xml version="1.0" encoding="UTF-8" standalone="no"?>
<!DOCTYPE svg PUBLIC "-//W3C//DTD SVG 1.1//EN"
 "http://www.w3.org/Graphics/SVG/1.1/DTD/svg11.dtd">
<!-- Generated by graphviz version 2.38.0 (20140413.2041)
 -->
<!-- Title: src/Capacites/CapMissile.h Pages: 1 -->
<svg width="502pt" height="252pt"
 viewBox="0.00 0.00 501.61 252.00" xmlns="http://www.w3.org/2000/svg" xmlns:xlink="http://www.w3.org/1999/xlink">
<g id="graph0" class="graph" transform="scale(1 1) rotate(0) translate(4 248)">
<title>src/Capacites/CapMissile.h</title>
<polygon fill="white" stroke="none" points="-4,4 -4,-248 497.612,-248 497.612,4 -4,4"/>
<!-- Node0 -->
<g id="node1" class="node"><title>Node0</title>
<polygon fill="#bfbfbf" stroke="black" points="42.6116,-224.5 42.6116,-243.5 179.612,-243.5 179.612,-224.5 42.6116,-224.5"/>
<text text-anchor="middle" x="111.112" y="-231.5" font-family="Helvetica,sans-Serif" font-size="10.00">src/Capacites/CapMissile.h</text>
</g>
<!-- Node1 -->
<g id="node2" class="node"><title>Node1</title>
<g id="a_node2"><a xlink:href="_capacite_8h.html" target="_top" xlink:title="Capacite.h">
<polygon fill="white" stroke="black" points="21.1116,-168.5 21.1116,-187.5 85.1116,-187.5 85.1116,-168.5 21.1116,-168.5"/>
<text text-anchor="middle" x="53.1116" y="-175.5" font-family="Helvetica,sans-Serif" font-size="10.00">Capacite.h</text>
</a>
</g>
</g>
<!-- Node0&#45;&gt;Node1 -->
<g id="edge1" class="edge"><title>Node0&#45;&gt;Node1</title>
<path fill="none" stroke="midnightblue" d="M101.793,-224.324C93.219,-216.341 80.2994,-204.313 69.924,-194.653"/>
<polygon fill="midnightblue" stroke="midnightblue" points="72.3038,-192.086 62.5999,-187.834 67.5339,-197.21 72.3038,-192.086"/>
</g>
<!-- Node11 -->
<g id="node12" class="node"><title>Node11</title>
<g id="a_node12"><a xlink:href="_proj_missile_8h.html" target="_top" xlink:title="../Projectiles/ProjMissile.h">
<polygon fill="white" stroke="black" points="103.612,-168.5 103.612,-187.5 234.612,-187.5 234.612,-168.5 103.612,-168.5"/>
<text text-anchor="middle" x="169.112" y="-175.5" font-family="Helvetica,sans-Serif" font-size="10.00">../Projectiles/ProjMissile.h</text>
</a>
</g>
</g>
<!-- Node0&#45;&gt;Node11 -->
<g id="edge16" class="edge"><title>Node0&#45;&gt;Node11</title>
<path fill="none" stroke="midnightblue" d="M120.43,-224.324C129.004,-216.341 141.924,-204.313 152.299,-194.653"/>
<polygon fill="midnightblue" stroke="midnightblue" points="154.689,-197.21 159.623,-187.834 149.919,-192.086 154.689,-197.21"/>
</g>
<!-- Node2 -->
<g id="node3" class="node"><title>Node2</title>
<polygon fill="white" stroke="#bfbfbf" points="50.1116,-0.5 50.1116,-19.5 94.1116,-19.5 94.1116,-0.5 50.1116,-0.5"/>
<text text-anchor="middle" x="72.1116" y="-7.5" font-family="Helvetica,sans-Serif" font-size="10.00">vector</text>
</g>
<!-- Node1&#45;&gt;Node2 -->
<g id="edge2" class="edge"><title>Node1&#45;&gt;Node2</title>
<path fill="none" stroke="midnightblue" d="M44.8808,-168.492C26.4011,-148.316 -15.1593,-96.2476 6.11162,-56 13.588,-41.8536 27.7311,-31.3181 41.0131,-24.0121"/>
<polygon fill="midnightblue" stroke="midnightblue" points="42.6428,-27.1101 49.9783,-19.4654 39.4766,-20.867 42.6428,-27.1101"/>
</g>
<!-- Node3 -->
<g id="node4" class="node"><title>Node3</title>
<polygon fill="white" stroke="#bfbfbf" points="15.6116,-56.5 15.6116,-75.5 56.6116,-75.5 56.6116,-56.5 15.6116,-56.5"/>
<text text-anchor="middle" x="36.1116" y="-63.5" font-family="Helvetica,sans-Serif" font-size="10.00">string</text>
</g>
<!-- Node1&#45;&gt;Node3 -->
<g id="edge3" class="edge"><title>Node1&#45;&gt;Node3</title>
<path fill="none" stroke="midnightblue" d="M51.7777,-168.368C49.0342,-150.617 42.7055,-109.666 38.9858,-85.5974"/>
<polygon fill="midnightblue" stroke="midnightblue" points="42.4257,-84.9395 37.4394,-75.5914 35.5079,-86.0087 42.4257,-84.9395"/>
</g>
<!-- Node4 -->
<g id="node5" class="node"><title>Node4</title>
<polygon fill="white" stroke="#bfbfbf" points="75.1116,-56.5 75.1116,-75.5 131.112,-75.5 131.112,-56.5 75.1116,-56.5"/>
<text text-anchor="middle" x="103.112" y="-63.5" font-family="Helvetica,sans-Serif" font-size="10.00">algorithm</text>
</g>
<!-- Node1&#45;&gt;Node4 -->
<g id="edge4" class="edge"><title>Node1&#45;&gt;Node4</title>
<path fill="none" stroke="midnightblue" d="M57.035,-168.368C65.1769,-150.456 84.0556,-108.923 94.9534,-84.9482"/>
<polygon fill="midnightblue" stroke="midnightblue" points="98.2546,-86.1434 99.2064,-75.5914 91.8821,-83.2468 98.2546,-86.1434"/>
</g>
<!-- Node5 -->
<g id="node6" class="node"><title>Node5</title>
<g id="a_node6"><a xlink:href="_projectile_8h.html" target="_top" xlink:title="../Projectiles/Projectile.h">
<polygon fill="white" stroke="black" points="94.6116,-112.5 94.6116,-131.5 217.612,-131.5 217.612,-112.5 94.6116,-112.5"/>
<text text-anchor="middle" x="156.112" y="-119.5" font-family="Helvetica,sans-Serif" font-size="10.00">../Projectiles/Projectile.h</text>
</a>
</g>
</g>
<!-- Node1&#45;&gt;Node5 -->
<g id="edge5" class="edge"><title>Node1&#45;&gt;Node5</title>
<path fill="none" stroke="midnightblue" d="M69.6604,-168.324C86.1032,-159.703 111.546,-146.364 130.58,-136.386"/>
<polygon fill="midnightblue" stroke="midnightblue" points="132.372,-139.398 139.604,-131.655 129.122,-133.198 132.372,-139.398"/>
</g>
<!-- Node6 -->
<g id="node7" class="node"><title>Node6</title>
<g id="a_node7"><a xlink:href="_entite_8h.html" target="_top" xlink:title="../Entite.h">
<polygon fill="white" stroke="black" points="201.612,-56.5 201.612,-75.5 260.612,-75.5 260.612,-56.5 201.612,-56.5"/>
<text text-anchor="middle" x="231.112" y="-63.5" font-family="Helvetica,sans-Serif" font-size="10.00">../Entite.h</text>
</a>
</g>
</g>
<!-- Node1&#45;&gt;Node6 -->
<g id="edge15" class="edge"><title>Node1&#45;&gt;Node6</title>
<path fill="none" stroke="midnightblue" d="M85.381,-169.623C134.164,-158.327 221.532,-137.475 226.112,-132 236.654,-119.395 236.847,-100.181 235.038,-85.9081"/>
<polygon fill="midnightblue" stroke="midnightblue" points="238.437,-85.0179 233.318,-75.7419 231.535,-86.1857 238.437,-85.0179"/>
</g>
<!-- Node5&#45;&gt;Node2 -->
<g id="edge6" class="edge"><title>Node5&#45;&gt;Node2</title>
<path fill="none" stroke="midnightblue" d="M155.928,-112.181C155.241,-98.8493 152.294,-73.2907 140.112,-56 130.506,-42.366 115.34,-31.7504 101.765,-24.2625"/>
<polygon fill="midnightblue" stroke="midnightblue" points="103.2,-21.0643 92.7099,-19.5796 99.9847,-27.2821 103.2,-21.0643"/>
</g>
<!-- Node5&#45;&gt;Node3 -->
<g id="edge7" class="edge"><title>Node5&#45;&gt;Node3</title>
<path fill="none" stroke="midnightblue" d="M137.097,-112.444C117.524,-103.636 86.804,-89.8116 64.3827,-79.722"/>
<polygon fill="midnightblue" stroke="midnightblue" points="65.5925,-76.4284 55.037,-75.5164 62.7199,-82.8119 65.5925,-76.4284"/>
</g>
<!-- Node5&#45;&gt;Node4 -->
<g id="edge8" class="edge"><title>Node5&#45;&gt;Node4</title>
<path fill="none" stroke="midnightblue" d="M147.36,-112.083C139.642,-104.22 128.207,-92.5688 118.895,-83.0813"/>
<polygon fill="midnightblue" stroke="midnightblue" points="121.203,-80.4363 111.701,-75.7511 116.207,-85.3396 121.203,-80.4363"/>
</g>
<!-- Node5&#45;&gt;Node6 -->
<g id="edge9" class="edge"><title>Node5&#45;&gt;Node6</title>
<path fill="none" stroke="midnightblue" d="M168.162,-112.324C179.575,-104.107 196.943,-91.6017 210.547,-81.8069"/>
<polygon fill="midnightblue" stroke="midnightblue" points="212.772,-84.5174 218.842,-75.8339 208.682,-78.8366 212.772,-84.5174"/>
</g>
<!-- Node6&#45;&gt;Node2 -->
<g id="edge10" class="edge"><title>Node6&#45;&gt;Node2</title>
<path fill="none" stroke="midnightblue" d="M205.918,-56.4435C178.225,-47.0385 133.692,-31.9142 103.688,-21.7242"/>
<polygon fill="midnightblue" stroke="midnightblue" points="104.71,-18.3748 94.1155,-18.473 102.459,-25.003 104.71,-18.3748"/>
</g>
<!-- Node7 -->
<g id="node8" class="node"><title>Node7</title>
<polygon fill="white" stroke="#bfbfbf" points="112.112,-0.5 112.112,-19.5 164.112,-19.5 164.112,-0.5 112.112,-0.5"/>
<text text-anchor="middle" x="138.112" y="-7.5" font-family="Helvetica,sans-Serif" font-size="10.00">memory</text>
</g>
<!-- Node6&#45;&gt;Node7 -->
<g id="edge11" class="edge"><title>Node6&#45;&gt;Node7</title>
<path fill="none" stroke="midnightblue" d="M216.17,-56.324C201.526,-47.8215 178.978,-34.7288 161.874,-24.7975"/>
<polygon fill="midnightblue" stroke="midnightblue" points="163.422,-21.6491 153.017,-19.6545 159.907,-27.7027 163.422,-21.6491"/>
</g>
<!-- Node8 -->
<g id="node9" class="node"><title>Node8</title>
<polygon fill="white" stroke="#bfbfbf" points="182.112,-0.5 182.112,-19.5 280.112,-19.5 280.112,-0.5 182.112,-0.5"/>
<text text-anchor="middle" x="231.112" y="-7.5" font-family="Helvetica,sans-Serif" font-size="10.00">SFML/System.hpp</text>
</g>
<!-- Node6&#45;&gt;Node8 -->
<g id="edge12" class="edge"><title>Node6&#45;&gt;Node8</title>
<path fill="none" stroke="midnightblue" d="M231.112,-56.083C231.112,-49.0059 231.112,-38.8611 231.112,-29.9865"/>
<polygon fill="midnightblue" stroke="midnightblue" points="234.612,-29.751 231.112,-19.7511 227.612,-29.7511 234.612,-29.751"/>
</g>
<!-- Node9 -->
<g id="node10" class="node"><title>Node9</title>
<polygon fill="white" stroke="#bfbfbf" points="298.112,-0.5 298.112,-19.5 402.112,-19.5 402.112,-0.5 298.112,-0.5"/>
<text text-anchor="middle" x="350.112" y="-7.5" font-family="Helvetica,sans-Serif" font-size="10.00">SFML/Graphics.hpp</text>
</g>
<!-- Node6&#45;&gt;Node9 -->
<g id="edge13" class="edge"><title>Node6&#45;&gt;Node9</title>
<path fill="none" stroke="midnightblue" d="M249.968,-56.4435C269.378,-47.6356 299.842,-33.8116 322.076,-23.722"/>
<polygon fill="midnightblue" stroke="midnightblue" points="323.684,-26.836 331.344,-19.5164 320.791,-20.4615 323.684,-26.836"/>
</g>
<!-- Node10 -->
<g id="node11" class="node"><title>Node10</title>
<g id="a_node11"><a xlink:href="constantes_8h.html" target="_top" xlink:title="constantes.h">
<polygon fill="white" stroke="black" points="420.612,-0.5 420.612,-19.5 493.612,-19.5 493.612,-0.5 420.612,-0.5"/>
<text text-anchor="middle" x="457.112" y="-7.5" font-family="Helvetica,sans-Serif" font-size="10.00">constantes.h</text>
</a>
</g>
</g>
<!-- Node6&#45;&gt;Node10 -->
<g id="edge14" class="edge"><title>Node6&#45;&gt;Node10</title>
<path fill="none" stroke="midnightblue" d="M260.657,-57.9404C299.033,-48.7709 366.425,-32.6686 411.417,-21.9181"/>
<polygon fill="midnightblue" stroke="midnightblue" points="412.307,-25.3042 421.219,-19.576 410.68,-18.4959 412.307,-25.3042"/>
</g>
<!-- Node11&#45;&gt;Node5 -->
<g id="edge17" class="edge"><title>Node11&#45;&gt;Node5</title>
<path fill="none" stroke="midnightblue" d="M166.965,-168.083C165.242,-160.927 162.765,-150.635 160.611,-141.691"/>
<polygon fill="midnightblue" stroke="midnightblue" points="163.962,-140.654 158.218,-131.751 157.156,-142.293 163.962,-140.654"/>
</g>
</g>
</svg>
