<?xml version="1.0" encoding="UTF-8" standalone="no"?>
<!DOCTYPE svg PUBLIC "-//W3C//DTD SVG 1.1//EN"
 "http://www.w3.org/Graphics/SVG/1.1/DTD/svg11.dtd">
<!-- Generated by graphviz version 2.38.0 (20140413.2041)
 -->
<!-- Title: src/Utilitaires/Collision.h Pages: 1 -->
<svg width="329pt" height="84pt"
 viewBox="0.00 0.00 328.50 84.00" xmlns="http://www.w3.org/2000/svg" xmlns:xlink="http://www.w3.org/1999/xlink">
<g id="graph0" class="graph" transform="scale(1 1) rotate(0) translate(4 80)">
<title>src/Utilitaires/Collision.h</title>
<polygon fill="white" stroke="none" points="-4,4 -4,-80 324.5,-80 324.5,4 -4,4"/>
<!-- Node2 -->
<g id="node1" class="node"><title>Node2</title>
<polygon fill="#bfbfbf" stroke="black" points="70,-56.5 70,-75.5 193,-75.5 193,-56.5 70,-56.5"/>
<text text-anchor="middle" x="131.5" y="-63.5" font-family="Helvetica,sans-Serif" font-size="10.00">src/Utilitaires/Collision.h</text>
</g>
<!-- Node3 -->
<g id="node2" class="node"><title>Node3</title>
<g id="a_node2"><a xlink:href="_entite_8cpp.html" target="_top" xlink:title="src/Entite.cpp">
<polygon fill="white" stroke="black" points="0,-0.5 0,-19.5 77,-19.5 77,-0.5 0,-0.5"/>
<text text-anchor="middle" x="38.5" y="-7.5" font-family="Helvetica,sans-Serif" font-size="10.00">src/Entite.cpp</text>
</a>
</g>
</g>
<!-- Node2&#45;&gt;Node3 -->
<g id="edge1" class="edge"><title>Node2&#45;&gt;Node3</title>
<path fill="none" stroke="midnightblue" d="M107.694,-51.1774C90.5811,-41.2407 68.0347,-28.1492 53.405,-19.6545"/>
<polygon fill="midnightblue" stroke="midnightblue" points="106.153,-54.3293 116.558,-56.324 109.668,-48.2758 106.153,-54.3293"/>
</g>
<!-- Node4 -->
<g id="node3" class="node"><title>Node4</title>
<g id="a_node3"><a xlink:href="main_8cpp.html" target="_top" xlink:title="src/main.cpp">
<polygon fill="white" stroke="black" points="95,-0.5 95,-19.5 168,-19.5 168,-0.5 95,-0.5"/>
<text text-anchor="middle" x="131.5" y="-7.5" font-family="Helvetica,sans-Serif" font-size="10.00">src/main.cpp</text>
</a>
</g>
</g>
<!-- Node2&#45;&gt;Node4 -->
<g id="edge2" class="edge"><title>Node2&#45;&gt;Node4</title>
<path fill="none" stroke="midnightblue" d="M131.5,-45.8045C131.5,-36.9102 131.5,-26.7798 131.5,-19.7511"/>
<polygon fill="midnightblue" stroke="midnightblue" points="128,-46.083 131.5,-56.083 135,-46.083 128,-46.083"/>
</g>
<!-- Node5 -->
<g id="node4" class="node"><title>Node5</title>
<g id="a_node4"><a xlink:href="_collision_8cpp.html" target="_top" xlink:title="src/Utilitaires/Collision.cpp">
<polygon fill="white" stroke="black" points="186.5,-0.5 186.5,-19.5 320.5,-19.5 320.5,-0.5 186.5,-0.5"/>
<text text-anchor="middle" x="253.5" y="-7.5" font-family="Helvetica,sans-Serif" font-size="10.00">src/Utilitaires/Collision.cpp</text>
</a>
</g>
</g>
<!-- Node2&#45;&gt;Node5 -->
<g id="edge3" class="edge"><title>Node2&#45;&gt;Node5</title>
<path fill="none" stroke="midnightblue" d="M160.039,-52.3678C182.886,-42.2553 214.305,-28.3486 234.259,-19.5164"/>
<polygon fill="midnightblue" stroke="midnightblue" points="158.559,-49.1955 150.831,-56.4435 161.392,-55.5965 158.559,-49.1955"/>
</g>
</g>
</svg>
