<?xml version="1.0" encoding="UTF-8" standalone="no"?>
<!DOCTYPE svg PUBLIC "-//W3C//DTD SVG 1.1//EN"
 "http://www.w3.org/Graphics/SVG/1.1/DTD/svg11.dtd">
<!-- Generated by graphviz version 2.38.0 (20140413.2041)
 -->
<!-- Title: src/Entite.h Pages: 1 -->
<!--zoomable 308 -->
<svg id="main" version="1.1" xmlns="http://www.w3.org/2000/svg" xmlns:xlink="http://www.w3.org/1999/xlink" xml:space="preserve" onload="init(evt)">
<style type="text/css"><![CDATA[
.edge:hover path { stroke: red; }
.edge:hover polygon { stroke: red; fill: red; }
]]></style>
<script type="text/javascript"><![CDATA[
var edges = document.getElementsByTagName('g');
if (edges && edges.length) {
  for (var i=0;i<edges.length;i++) {
    if (edges[i].id.substr(0,4)=='edge') {
      edges[i].setAttribute('class','edge');
    }
  }
}
]]></script>
        <defs>
                <circle id="rim" cx="0" cy="0" r="7"/>
                <circle id="rim2" cx="0" cy="0" r="3.5"/>
                <g id="zoomPlus">
                        <use xlink:href="#rim" fill="#404040">
                                <set attributeName="fill" to="#808080" begin="zoomplus.mouseover" end="zoomplus.mouseout"/>
                        </use>
                        <path d="M-4,0h8M0,-4v8" fill="none" stroke="white" stroke-width="1.5" pointer-events="none"/>
                </g>
                <g id="zoomMin">
                        <use xlink:href="#rim" fill="#404040">
                                <set attributeName="fill" to="#808080" begin="zoomminus.mouseover" end="zoomminus.mouseout"/>
                        </use>
                        <path d="M-4,0h8" fill="none" stroke="white" stroke-width="1.5" pointer-events="none"/>
                </g>
                <g id="dirArrow">
                        <path fill="none" stroke="white" stroke-width="1.5" d="M0,-3.0v7 M-2.5,-0.5L0,-3.0L2.5,-0.5"/>
                </g>
               <g id="resetDef">
                       <use xlink:href="#rim2" fill="#404040">
                               <set attributeName="fill" to="#808080" begin="reset.mouseover" end="reset.mouseout"/>
                       </use>
               </g>
        </defs>

<script type="text/javascript">
var viewWidth = 1802;
var viewHeight = 308;
var sectionId = 'dynsection-1';
</script>
<script xlink:href="svgpan.js"/>
<svg id="graph" class="graph">
<g id="viewport">
<title>src/Entite.h</title>
<polygon fill="white" stroke="none" points="-4,4 -4,-304 1798,-304 1798,4 -4,4"/>
<!-- Node4 -->
<g id="node1" class="node"><title>Node4</title>
<polygon fill="#bfbfbf" stroke="black" points="799,-280.5 799,-299.5 866,-299.5 866,-280.5 799,-280.5"/>
<text text-anchor="middle" x="832.5" y="-287.5" font-family="Helvetica,sans-Serif" font-size="10.00">src/Entite.h</text>
</g>
<!-- Node5 -->
<g id="node2" class="node"><title>Node5</title>
<g id="a_node2"><a xlink:href="_projectile_8h.html" target="_top" xlink:title="src/Projectiles/Projectile.h">
<polygon fill="white" stroke="black" points="694,-224.5 694,-243.5 825,-243.5 825,-224.5 694,-224.5"/>
<text text-anchor="middle" x="759.5" y="-231.5" font-family="Helvetica,sans-Serif" font-size="10.00">src/Projectiles/Projectile.h</text>
</a>
</g>
</g>
<!-- Node4&#45;&gt;Node5 -->
<g id="edge1" class="edge"><title>Node4&#45;&gt;Node5</title>
<path fill="none" stroke="midnightblue" d="M812.358,-274.101C799.221,-264.382 782.518,-252.027 771.442,-243.834"/>
<polygon fill="midnightblue" stroke="midnightblue" points="810.65,-277.191 820.771,-280.324 814.813,-271.563 810.65,-277.191"/>
</g>
<!-- Node6 -->
<g id="node3" class="node"><title>Node6</title>
<g id="a_node3"><a xlink:href="_capacite_8h.html" target="_top" xlink:title="src/Capacites/Capacite.h">
<polygon fill="white" stroke="black" points="544.5,-168.5 544.5,-187.5 672.5,-187.5 672.5,-168.5 544.5,-168.5"/>
<text text-anchor="middle" x="608.5" y="-175.5" font-family="Helvetica,sans-Serif" font-size="10.00">src/Capacites/Capacite.h</text>
</a>
</g>
</g>
<!-- Node4&#45;&gt;Node6 -->
<g id="edge47" class="edge"><title>Node4&#45;&gt;Node6</title>
<path fill="none" stroke="midnightblue" d="M788.993,-280.742C758.47,-273.785 717.402,-262.033 684.5,-244 656.486,-228.646 629.48,-201.784 616.506,-187.889"/>
<polygon fill="midnightblue" stroke="midnightblue" points="788.395,-284.194 798.913,-282.919 789.896,-277.357 788.395,-284.194"/>
</g>
<!-- Node13 -->
<g id="node10" class="node"><title>Node13</title>
<g id="a_node10"><a xlink:href="_cap_dash_8h.html" target="_top" xlink:title="src/Capacites/CapDash.h">
<polygon fill="white" stroke="black" points="840.5,-112.5 840.5,-131.5 970.5,-131.5 970.5,-112.5 840.5,-112.5"/>
<text text-anchor="middle" x="905.5" y="-119.5" font-family="Helvetica,sans-Serif" font-size="10.00">src/Capacites/CapDash.h</text>
</a>
</g>
</g>
<!-- Node4&#45;&gt;Node13 -->
<g id="edge48" class="edge"><title>Node4&#45;&gt;Node13</title>
<path fill="none" stroke="midnightblue" d="M840.479,-270.856C856.136,-235.252 890.349,-157.453 901.732,-131.568"/>
<polygon fill="midnightblue" stroke="midnightblue" points="837.247,-269.512 836.425,-280.075 843.654,-272.33 837.247,-269.512"/>
</g>
<!-- Node16 -->
<g id="node13" class="node"><title>Node16</title>
<g id="a_node13"><a xlink:href="_vaisseau_8h.html" target="_top" xlink:title="src/Vaisseau/Vaisseau.h">
<polygon fill="white" stroke="black" points="325,-112.5 325,-131.5 450,-131.5 450,-112.5 325,-112.5"/>
<text text-anchor="middle" x="387.5" y="-119.5" font-family="Helvetica,sans-Serif" font-size="10.00">src/Vaisseau/Vaisseau.h</text>
</a>
</g>
</g>
<!-- Node4&#45;&gt;Node16 -->
<g id="edge49" class="edge"><title>Node4&#45;&gt;Node16</title>
<path fill="none" stroke="midnightblue" d="M788.737,-284.479C715.701,-275.411 566.173,-250.251 456.5,-188 429.879,-172.89 405.517,-145.423 394.184,-131.533"/>
<polygon fill="midnightblue" stroke="midnightblue" points="788.598,-287.988 798.944,-285.703 789.432,-281.038 788.598,-287.988"/>
</g>
<!-- Node18 -->
<g id="node15" class="node"><title>Node18</title>
<g id="a_node15"><a xlink:href="main_8cpp.html" target="_top" xlink:title="src/main.cpp">
<polygon fill="white" stroke="black" points="1328,-0.5 1328,-19.5 1401,-19.5 1401,-0.5 1328,-0.5"/>
<text text-anchor="middle" x="1364.5" y="-7.5" font-family="Helvetica,sans-Serif" font-size="10.00">src/main.cpp</text>
</a>
</g>
</g>
<!-- Node4&#45;&gt;Node18 -->
<g id="edge51" class="edge"><title>Node4&#45;&gt;Node18</title>
<path fill="none" stroke="midnightblue" d="M876.16,-288.035C1050.65,-283.611 1688.5,-261.777 1688.5,-179 1688.5,-179 1688.5,-179 1688.5,-121 1688.5,-60.854 1485.77,-27.0332 1401.04,-15.524"/>
<polygon fill="midnightblue" stroke="midnightblue" points="875.967,-284.539 866.056,-288.285 876.14,-291.537 875.967,-284.539"/>
</g>
<!-- Node28 -->
<g id="node25" class="node"><title>Node28</title>
<g id="a_node25"><a xlink:href="_entite_8cpp.html" target="_top" xlink:title="src/Entite.cpp">
<polygon fill="white" stroke="black" points="1717,-224.5 1717,-243.5 1794,-243.5 1794,-224.5 1717,-224.5"/>
<text text-anchor="middle" x="1755.5" y="-231.5" font-family="Helvetica,sans-Serif" font-size="10.00">src/Entite.cpp</text>
</a>
</g>
</g>
<!-- Node4&#45;&gt;Node28 -->
<g id="edge50" class="edge"><title>Node4&#45;&gt;Node28</title>
<path fill="none" stroke="midnightblue" d="M876.369,-288.535C1004.16,-286.793 1387.03,-278.824 1702.5,-244 1707.14,-243.488 1711.99,-242.833 1716.79,-242.11"/>
<polygon fill="midnightblue" stroke="midnightblue" points="876.157,-285.038 866.204,-288.668 876.249,-292.037 876.157,-285.038"/>
</g>
<!-- Node5&#45;&gt;Node6 -->
<g id="edge2" class="edge"><title>Node5&#45;&gt;Node6</title>
<path fill="none" stroke="midnightblue" d="M726.054,-221.039C697.642,-210.879 657.563,-196.546 632.314,-187.516"/>
<polygon fill="midnightblue" stroke="midnightblue" points="724.979,-224.372 735.574,-224.444 727.336,-217.781 724.979,-224.372"/>
</g>
<!-- Node7 -->
<g id="node4" class="node"><title>Node7</title>
<g id="a_node4"><a xlink:href="_cap_test_8h.html" target="_top" xlink:title="src/Capacites/CapTest.h">
<polygon fill="white" stroke="black" points="696.5,-112.5 696.5,-131.5 822.5,-131.5 822.5,-112.5 696.5,-112.5"/>
<text text-anchor="middle" x="759.5" y="-119.5" font-family="Helvetica,sans-Serif" font-size="10.00">src/Capacites/CapTest.h</text>
</a>
</g>
</g>
<!-- Node5&#45;&gt;Node7 -->
<g id="edge29" class="edge"><title>Node5&#45;&gt;Node7</title>
<path fill="none" stroke="midnightblue" d="M759.5,-214.348C759.5,-190.254 759.5,-149.308 759.5,-131.591"/>
<polygon fill="midnightblue" stroke="midnightblue" points="756,-214.368 759.5,-224.368 763,-214.369 756,-214.368"/>
</g>
<!-- Node11 -->
<g id="node8" class="node"><title>Node11</title>
<g id="a_node8"><a xlink:href="_cap_piou_8h.html" target="_top" xlink:title="src/Capacites/CapPiou.h">
<polygon fill="white" stroke="black" points="1182.5,-112.5 1182.5,-131.5 1308.5,-131.5 1308.5,-112.5 1182.5,-112.5"/>
<text text-anchor="middle" x="1245.5" y="-119.5" font-family="Helvetica,sans-Serif" font-size="10.00">src/Capacites/CapPiou.h</text>
</a>
</g>
</g>
<!-- Node5&#45;&gt;Node11 -->
<g id="edge37" class="edge"><title>Node5&#45;&gt;Node11</title>
<path fill="none" stroke="midnightblue" d="M835.192,-229.214C904.936,-224.27 1010.75,-213.062 1099.5,-188 1149.43,-173.9 1204.32,-145.716 1230.28,-131.548"/>
<polygon fill="midnightblue" stroke="midnightblue" points="834.908,-225.726 825.17,-229.899 835.386,-232.709 834.908,-225.726"/>
</g>
<!-- Node15 -->
<g id="node12" class="node"><title>Node15</title>
<g id="a_node12"><a xlink:href="_capacite_8cpp.html" target="_top" xlink:title="src/Capacites/Capacite.cpp">
<polygon fill="white" stroke="black" points="322.5,-56.5 322.5,-75.5 460.5,-75.5 460.5,-56.5 322.5,-56.5"/>
<text text-anchor="middle" x="391.5" y="-63.5" font-family="Helvetica,sans-Serif" font-size="10.00">src/Capacites/Capacite.cpp</text>
</a>
</g>
</g>
<!-- Node5&#45;&gt;Node15 -->
<g id="edge43" class="edge"><title>Node5&#45;&gt;Node15</title>
<path fill="none" stroke="midnightblue" d="M683.862,-228.69C638.631,-223.536 581.251,-212.318 535.5,-188 493.041,-165.431 495.733,-142.427 458.5,-112 441.357,-97.9907 419.853,-84.1327 405.902,-75.5757"/>
<polygon fill="midnightblue" stroke="midnightblue" points="683.591,-232.181 693.905,-229.759 684.332,-225.22 683.591,-232.181"/>
</g>
<!-- Node5&#45;&gt;Node16 -->
<g id="edge42" class="edge"><title>Node5&#45;&gt;Node16</title>
<path fill="none" stroke="midnightblue" d="M683.591,-226.571C631.481,-220.513 561.37,-209.083 502.5,-188 462.341,-173.618 419.83,-145.822 399.585,-131.696"/>
<polygon fill="midnightblue" stroke="midnightblue" points="683.437,-230.075 693.765,-227.712 684.217,-223.119 683.437,-230.075"/>
</g>
<!-- Node17 -->
<g id="node14" class="node"><title>Node17</title>
<g id="a_node14"><a xlink:href="_partie_8h.html" target="_top" xlink:title="src/Partie.h">
<polygon fill="white" stroke="black" points="638,-56.5 638,-75.5 705,-75.5 705,-56.5 638,-56.5"/>
<text text-anchor="middle" x="671.5" y="-63.5" font-family="Helvetica,sans-Serif" font-size="10.00">src/Partie.h</text>
</a>
</g>
</g>
<!-- Node5&#45;&gt;Node17 -->
<g id="edge44" class="edge"><title>Node5&#45;&gt;Node17</title>
<path fill="none" stroke="midnightblue" d="M835.039,-233.828C1066.43,-235.129 1743.1,-229.112 1630.5,-112 1595.16,-75.2488 764.085,-82.3648 713.5,-76 710.836,-75.6649 708.091,-75.246 705.341,-74.7736"/>
<polygon fill="midnightblue" stroke="midnightblue" points="835.04,-230.328 825.019,-233.766 834.997,-237.328 835.04,-230.328"/>
</g>
<!-- Node21 -->
<g id="node18" class="node"><title>Node21</title>
<g id="a_node18"><a xlink:href="_projectile_8cpp.html" target="_top" xlink:title="src/Projectiles/Projectile.cpp">
<polygon fill="white" stroke="black" points="479,-56.5 479,-75.5 620,-75.5 620,-56.5 479,-56.5"/>
<text text-anchor="middle" x="549.5" y="-63.5" font-family="Helvetica,sans-Serif" font-size="10.00">src/Projectiles/Projectile.cpp</text>
</a>
</g>
</g>
<!-- Node5&#45;&gt;Node21 -->
<g id="edge45" class="edge"><title>Node5&#45;&gt;Node21</title>
<path fill="none" stroke="midnightblue" d="M741.667,-217.779C725.97,-204.468 702.419,-184.707 681.5,-168 637.759,-133.065 584.508,-93.0761 561.28,-75.7556"/>
<polygon fill="midnightblue" stroke="midnightblue" points="739.628,-220.64 749.513,-224.451 744.162,-215.307 739.628,-220.64"/>
</g>
<!-- Node22 -->
<g id="node19" class="node"><title>Node22</title>
<g id="a_node19"><a xlink:href="_vaisseau_8cpp.html" target="_top" xlink:title="src/Vaisseau/Vaisseau.cpp">
<polygon fill="white" stroke="black" points="168.5,-56.5 168.5,-75.5 304.5,-75.5 304.5,-56.5 168.5,-56.5"/>
<text text-anchor="middle" x="236.5" y="-63.5" font-family="Helvetica,sans-Serif" font-size="10.00">src/Vaisseau/Vaisseau.cpp</text>
</a>
</g>
</g>
<!-- Node5&#45;&gt;Node22 -->
<g id="edge46" class="edge"><title>Node5&#45;&gt;Node22</title>
<path fill="none" stroke="midnightblue" d="M683.8,-229.728C591.069,-222.72 431.969,-200.754 315.5,-132 287.357,-115.387 258.858,-89.076 245.054,-75.5903"/>
<polygon fill="midnightblue" stroke="midnightblue" points="683.719,-233.231 693.944,-230.455 684.219,-226.249 683.719,-233.231"/>
</g>
<!-- Node23 -->
<g id="node20" class="node"><title>Node23</title>
<g id="a_node20"><a xlink:href="_proj_test_8h.html" target="_top" xlink:title="src/Projectiles/ProjTest.h">
<polygon fill="white" stroke="black" points="964,-168.5 964,-187.5 1091,-187.5 1091,-168.5 964,-168.5"/>
<text text-anchor="middle" x="1027.5" y="-175.5" font-family="Helvetica,sans-Serif" font-size="10.00">src/Projectiles/ProjTest.h</text>
</a>
</g>
</g>
<!-- Node5&#45;&gt;Node23 -->
<g id="edge30" class="edge"><title>Node5&#45;&gt;Node23</title>
<path fill="none" stroke="midnightblue" d="M812.06,-222.41C862.709,-212.204 938.367,-196.96 985.233,-187.516"/>
<polygon fill="midnightblue" stroke="midnightblue" points="811.077,-219.037 801.965,-224.444 812.46,-225.899 811.077,-219.037"/>
</g>
<!-- Node26 -->
<g id="node23" class="node"><title>Node26</title>
<g id="a_node23"><a xlink:href="_proj_piou_8h.html" target="_top" xlink:title="src/Projectiles/ProjPiou.h">
<polygon fill="white" stroke="black" points="1236,-168.5 1236,-187.5 1363,-187.5 1363,-168.5 1236,-168.5"/>
<text text-anchor="middle" x="1299.5" y="-175.5" font-family="Helvetica,sans-Serif" font-size="10.00">src/Projectiles/ProjPiou.h</text>
</a>
</g>
</g>
<!-- Node5&#45;&gt;Node26 -->
<g id="edge38" class="edge"><title>Node5&#45;&gt;Node26</title>
<path fill="none" stroke="midnightblue" d="M835.26,-225.424C942.326,-214.717 1135.97,-195.353 1235.95,-185.355"/>
<polygon fill="midnightblue" stroke="midnightblue" points="834.777,-221.955 825.175,-226.433 835.473,-228.92 834.777,-221.955"/>
</g>
<!-- Node6&#45;&gt;Node7 -->
<g id="edge3" class="edge"><title>Node6&#45;&gt;Node7</title>
<path fill="none" stroke="midnightblue" d="M641.946,-165.039C670.358,-154.879 710.437,-140.546 735.686,-131.516"/>
<polygon fill="midnightblue" stroke="midnightblue" points="640.664,-161.781 632.426,-168.444 643.021,-168.372 640.664,-161.781"/>
</g>
<!-- Node6&#45;&gt;Node11 -->
<g id="edge7" class="edge"><title>Node6&#45;&gt;Node11</title>
<path fill="none" stroke="midnightblue" d="M682.765,-170.704C809.083,-159.996 1063.58,-138.422 1182.09,-128.375"/>
<polygon fill="midnightblue" stroke="midnightblue" points="682.458,-167.218 672.789,-171.55 683.049,-174.193 682.458,-167.218"/>
</g>
<!-- Node6&#45;&gt;Node13 -->
<g id="edge10" class="edge"><title>Node6&#45;&gt;Node13</title>
<path fill="none" stroke="midnightblue" d="M665.696,-166.601C721.826,-156.395 806.396,-141.019 858.66,-131.516"/>
<polygon fill="midnightblue" stroke="midnightblue" points="664.773,-163.211 655.561,-168.444 666.025,-170.098 664.773,-163.211"/>
</g>
<!-- Node6&#45;&gt;Node15 -->
<g id="edge14" class="edge"><title>Node6&#45;&gt;Node15</title>
<path fill="none" stroke="midnightblue" d="M592.901,-160.862C578.049,-146.306 554.465,-125.214 530.5,-112 499.07,-94.6695 459.918,-82.7491 431.183,-75.5529"/>
<polygon fill="midnightblue" stroke="midnightblue" points="590.662,-163.573 600.201,-168.184 595.619,-158.631 590.662,-163.573"/>
</g>
<!-- Node6&#45;&gt;Node16 -->
<g id="edge15" class="edge"><title>Node6&#45;&gt;Node16</title>
<path fill="none" stroke="midnightblue" d="M563.579,-166.024C521.832,-155.823 460.518,-140.841 422.354,-131.516"/>
<polygon fill="midnightblue" stroke="midnightblue" points="562.937,-169.47 573.482,-168.444 564.598,-162.67 562.937,-169.47"/>
</g>
<!-- Node6&#45;&gt;Node17 -->
<g id="edge25" class="edge"><title>Node6&#45;&gt;Node17</title>
<path fill="none" stroke="midnightblue" d="M618.443,-159.64C632.129,-135.744 656.249,-93.6286 666.579,-75.5914"/>
<polygon fill="midnightblue" stroke="midnightblue" points="615.376,-157.951 613.444,-168.368 621.451,-161.43 615.376,-157.951"/>
</g>
<!-- Node19 -->
<g id="node16" class="node"><title>Node19</title>
<g id="a_node16"><a xlink:href="_vaisseau_test_8h.html" target="_top" xlink:title="src/Vaisseau/VaisseauTest.h">
<polygon fill="white" stroke="black" points="5,-56.5 5,-75.5 150,-75.5 150,-56.5 5,-56.5"/>
<text text-anchor="middle" x="77.5" y="-63.5" font-family="Helvetica,sans-Serif" font-size="10.00">src/Vaisseau/VaisseauTest.h</text>
</a>
</g>
</g>
<!-- Node6&#45;&gt;Node19 -->
<g id="edge26" class="edge"><title>Node6&#45;&gt;Node19</title>
<path fill="none" stroke="midnightblue" d="M534.333,-167.992C474.845,-160.195 389.378,-147.708 315.5,-132 238.202,-115.565 148.701,-89.0576 104.737,-75.5328"/>
<polygon fill="midnightblue" stroke="midnightblue" points="534.022,-171.481 544.39,-169.298 534.924,-164.539 534.022,-171.481"/>
</g>
<!-- Node6&#45;&gt;Node21 -->
<g id="edge27" class="edge"><title>Node6&#45;&gt;Node21</title>
<path fill="none" stroke="midnightblue" d="M599.017,-159.32C586.171,-135.37 563.74,-93.5484 554.108,-75.5914"/>
<polygon fill="midnightblue" stroke="midnightblue" points="596.059,-161.21 603.87,-168.368 602.228,-157.902 596.059,-161.21"/>
</g>
<!-- Node6&#45;&gt;Node22 -->
<g id="edge28" class="edge"><title>Node6&#45;&gt;Node22</title>
<path fill="none" stroke="midnightblue" d="M582.695,-163.839C553.3,-149.32 503.504,-126.141 458.5,-112 404.476,-95.0245 340.986,-82.9081 295.774,-75.5556"/>
<polygon fill="midnightblue" stroke="midnightblue" points="581.335,-167.072 591.845,-168.406 584.46,-160.809 581.335,-167.072"/>
</g>
<!-- Node8 -->
<g id="node5" class="node"><title>Node8</title>
<g id="a_node5"><a xlink:href="___capacites_8h.html" target="_top" xlink:title="src/Capacites/_Capacites.h">
<polygon fill="white" stroke="black" points="878.5,-56.5 878.5,-75.5 1016.5,-75.5 1016.5,-56.5 878.5,-56.5"/>
<text text-anchor="middle" x="947.5" y="-63.5" font-family="Helvetica,sans-Serif" font-size="10.00">src/Capacites/_Capacites.h</text>
</a>
</g>
</g>
<!-- Node7&#45;&gt;Node8 -->
<g id="edge4" class="edge"><title>Node7&#45;&gt;Node8</title>
<path fill="none" stroke="midnightblue" d="M799.301,-109.568C834.766,-99.381 885.866,-84.7034 917.85,-75.5164"/>
<polygon fill="midnightblue" stroke="midnightblue" points="797.934,-106.319 789.289,-112.444 799.867,-113.047 797.934,-106.319"/>
</g>
<!-- Node10 -->
<g id="node7" class="node"><title>Node10</title>
<g id="a_node7"><a xlink:href="_cap_test_8cpp.html" target="_top" xlink:title="src/Capacites/CapTest.cpp">
<polygon fill="white" stroke="black" points="723,-56.5 723,-75.5 860,-75.5 860,-56.5 723,-56.5"/>
<text text-anchor="middle" x="791.5" y="-63.5" font-family="Helvetica,sans-Serif" font-size="10.00">src/Capacites/CapTest.cpp</text>
</a>
</g>
</g>
<!-- Node7&#45;&gt;Node10 -->
<g id="edge6" class="edge"><title>Node7&#45;&gt;Node10</title>
<path fill="none" stroke="midnightblue" d="M770.004,-103.275C775.473,-94.0454 781.918,-83.1703 786.314,-75.7511"/>
<polygon fill="midnightblue" stroke="midnightblue" points="766.871,-101.696 764.784,-112.083 772.893,-105.264 766.871,-101.696"/>
</g>
<!-- Node9 -->
<g id="node6" class="node"><title>Node9</title>
<g id="a_node6"><a xlink:href="_partie_8cpp.html" target="_top" xlink:title="src/Partie.cpp">
<polygon fill="white" stroke="black" points="909,-0.5 909,-19.5 986,-19.5 986,-0.5 909,-0.5"/>
<text text-anchor="middle" x="947.5" y="-7.5" font-family="Helvetica,sans-Serif" font-size="10.00">src/Partie.cpp</text>
</a>
</g>
</g>
<!-- Node8&#45;&gt;Node9 -->
<g id="edge5" class="edge"><title>Node8&#45;&gt;Node9</title>
<path fill="none" stroke="midnightblue" d="M947.5,-45.8045C947.5,-36.9102 947.5,-26.7798 947.5,-19.7511"/>
<polygon fill="midnightblue" stroke="midnightblue" points="944,-46.083 947.5,-56.083 951,-46.083 944,-46.083"/>
</g>
<!-- Node11&#45;&gt;Node8 -->
<g id="edge8" class="edge"><title>Node11&#45;&gt;Node8</title>
<path fill="none" stroke="midnightblue" d="M1188.11,-110.601C1131.79,-100.395 1046.94,-85.0189 994.498,-75.5164"/>
<polygon fill="midnightblue" stroke="midnightblue" points="1187.82,-114.104 1198.28,-112.444 1189.07,-107.217 1187.82,-114.104"/>
</g>
<!-- Node12 -->
<g id="node9" class="node"><title>Node12</title>
<g id="a_node9"><a xlink:href="_cap_piou_8cpp.html" target="_top" xlink:title="src/Capacites/CapPiou.cpp">
<polygon fill="white" stroke="black" points="1231,-56.5 1231,-75.5 1368,-75.5 1368,-56.5 1231,-56.5"/>
<text text-anchor="middle" x="1299.5" y="-63.5" font-family="Helvetica,sans-Serif" font-size="10.00">src/Capacites/CapPiou.cpp</text>
</a>
</g>
</g>
<!-- Node11&#45;&gt;Node12 -->
<g id="edge9" class="edge"><title>Node11&#45;&gt;Node12</title>
<path fill="none" stroke="midnightblue" d="M1261.5,-105.002C1271.07,-95.4329 1282.86,-83.6389 1290.75,-75.7511"/>
<polygon fill="midnightblue" stroke="midnightblue" points="1259.01,-102.537 1254.42,-112.083 1263.96,-107.487 1259.01,-102.537"/>
</g>
<!-- Node13&#45;&gt;Node8 -->
<g id="edge11" class="edge"><title>Node13&#45;&gt;Node8</title>
<path fill="none" stroke="midnightblue" d="M918.61,-104.144C925.928,-94.7357 934.741,-83.4046 940.694,-75.7511"/>
<polygon fill="midnightblue" stroke="midnightblue" points="915.812,-102.041 912.435,-112.083 921.338,-106.338 915.812,-102.041"/>
</g>
<!-- Node13&#45;&gt;Node10 -->
<g id="edge13" class="edge"><title>Node13&#45;&gt;Node10</title>
<path fill="none" stroke="midnightblue" d="M878.258,-108.096C856.96,-98.0073 827.958,-84.2697 809.479,-75.5164"/>
<polygon fill="midnightblue" stroke="midnightblue" points="876.901,-111.326 887.436,-112.444 879.897,-105 876.901,-111.326"/>
</g>
<!-- Node14 -->
<g id="node11" class="node"><title>Node14</title>
<g id="a_node11"><a xlink:href="_cap_dash_8cpp.html" target="_top" xlink:title="src/Capacites/CapDash.cpp">
<polygon fill="white" stroke="black" points="1034.5,-56.5 1034.5,-75.5 1174.5,-75.5 1174.5,-56.5 1034.5,-56.5"/>
<text text-anchor="middle" x="1104.5" y="-63.5" font-family="Helvetica,sans-Serif" font-size="10.00">src/Capacites/CapDash.cpp</text>
</a>
</g>
</g>
<!-- Node13&#45;&gt;Node14 -->
<g id="edge12" class="edge"><title>Node13&#45;&gt;Node14</title>
<path fill="none" stroke="midnightblue" d="M947.148,-109.699C984.706,-99.507 1039.11,-84.7429 1073.12,-75.5164"/>
<polygon fill="midnightblue" stroke="midnightblue" points="945.767,-106.447 937.032,-112.444 947.6,-113.202 945.767,-106.447"/>
</g>
<!-- Node16&#45;&gt;Node15 -->
<g id="edge16" class="edge"><title>Node16&#45;&gt;Node15</title>
<path fill="none" stroke="midnightblue" d="M388.9,-102.101C389.564,-93.1357 390.325,-82.8579 390.852,-75.7511"/>
<polygon fill="midnightblue" stroke="midnightblue" points="385.409,-101.852 388.161,-112.083 392.39,-102.369 385.409,-101.852"/>
</g>
<!-- Node16&#45;&gt;Node17 -->
<g id="edge17" class="edge"><title>Node16&#45;&gt;Node17</title>
<path fill="none" stroke="midnightblue" d="M445.181,-110.593C494.046,-101.69 565.937,-88.3868 628.5,-76 631.493,-75.4075 634.6,-74.7804 637.713,-74.144"/>
<polygon fill="midnightblue" stroke="midnightblue" points="444.327,-107.191 435.115,-112.424 445.58,-114.078 444.327,-107.191"/>
</g>
<!-- Node16&#45;&gt;Node19 -->
<g id="edge20" class="edge"><title>Node16&#45;&gt;Node19</title>
<path fill="none" stroke="midnightblue" d="M328.165,-110.664C269.58,-100.459 181.055,-85.0386 126.391,-75.5164"/>
<polygon fill="midnightblue" stroke="midnightblue" points="327.927,-114.175 338.38,-112.444 329.129,-107.279 327.927,-114.175"/>
</g>
<!-- Node16&#45;&gt;Node21 -->
<g id="edge23" class="edge"><title>Node16&#45;&gt;Node21</title>
<path fill="none" stroke="midnightblue" d="M422.984,-109.172C453.488,-99.0039 496.745,-84.5852 523.951,-75.5164"/>
<polygon fill="midnightblue" stroke="midnightblue" points="421.549,-105.961 413.169,-112.444 423.763,-112.602 421.549,-105.961"/>
</g>
<!-- Node16&#45;&gt;Node22 -->
<g id="edge24" class="edge"><title>Node16&#45;&gt;Node22</title>
<path fill="none" stroke="midnightblue" d="M354.054,-109.039C325.642,-98.8786 285.563,-84.5457 260.314,-75.5164"/>
<polygon fill="midnightblue" stroke="midnightblue" points="352.979,-112.372 363.574,-112.444 355.336,-105.781 352.979,-112.372"/>
</g>
<!-- Node17&#45;&gt;Node9 -->
<g id="edge19" class="edge"><title>Node17&#45;&gt;Node9</title>
<path fill="none" stroke="midnightblue" d="M715.33,-55.6559C789.054,-40.7378 864.515,-26.4603 908.943,-18.1568"/>
<polygon fill="midnightblue" stroke="midnightblue" points="714.517,-52.2495 705.413,-57.6687 715.91,-59.1096 714.517,-52.2495"/>
</g>
<!-- Node17&#45;&gt;Node18 -->
<g id="edge18" class="edge"><title>Node17&#45;&gt;Node18</title>
<path fill="none" stroke="midnightblue" d="M715.6,-55.8809C953.966,-22.9643 1230.12,-13.9908 1327.96,-11.7083"/>
<polygon fill="midnightblue" stroke="midnightblue" points="714.771,-52.4627 705.352,-57.3142 715.741,-59.3952 714.771,-52.4627"/>
</g>
<!-- Node19&#45;&gt;Node9 -->
<g id="edge21" class="edge"><title>Node19&#45;&gt;Node9</title>
<path fill="none" stroke="midnightblue" d="M160.37,-55.9727C454.724,-31.6992 795.747,-17.0042 908.912,-12.4881"/>
<polygon fill="midnightblue" stroke="midnightblue" points="160.035,-52.4883 150.358,-56.8035 160.614,-59.4644 160.035,-52.4883"/>
</g>
<!-- Node20 -->
<g id="node17" class="node"><title>Node20</title>
<g id="a_node17"><a xlink:href="_vaisseau_test_8cpp.html" target="_top" xlink:title="src/Vaisseau/VaisseauTest.cpp">
<polygon fill="white" stroke="black" points="0,-0.5 0,-19.5 155,-19.5 155,-0.5 0,-0.5"/>
<text text-anchor="middle" x="77.5" y="-7.5" font-family="Helvetica,sans-Serif" font-size="10.00">src/Vaisseau/VaisseauTest.cpp</text>
</a>
</g>
</g>
<!-- Node19&#45;&gt;Node20 -->
<g id="edge22" class="edge"><title>Node19&#45;&gt;Node20</title>
<path fill="none" stroke="midnightblue" d="M77.5,-45.8045C77.5,-36.9102 77.5,-26.7798 77.5,-19.7511"/>
<polygon fill="midnightblue" stroke="midnightblue" points="74.0001,-46.083 77.5,-56.083 81.0001,-46.083 74.0001,-46.083"/>
</g>
<!-- Node23&#45;&gt;Node7 -->
<g id="edge31" class="edge"><title>Node23&#45;&gt;Node7</title>
<path fill="none" stroke="midnightblue" d="M974.94,-166.41C924.291,-156.204 848.633,-140.96 801.767,-131.516"/>
<polygon fill="midnightblue" stroke="midnightblue" points="974.54,-169.899 985.035,-168.444 975.923,-163.037 974.54,-169.899"/>
</g>
<!-- Node23&#45;&gt;Node9 -->
<g id="edge35" class="edge"><title>Node23&#45;&gt;Node9</title>
<path fill="none" stroke="midnightblue" d="M1067.18,-165.164C1088.37,-157.692 1114.18,-146.659 1134.5,-132 1167.09,-108.484 1209.12,-86.9657 1183.5,-56 1158.91,-26.2729 1046.61,-16.0103 986.214,-12.6044"/>
<polygon fill="midnightblue" stroke="midnightblue" points="1065.85,-161.92 1057.51,-168.447 1068.1,-168.549 1065.85,-161.92"/>
</g>
<!-- Node23&#45;&gt;Node13 -->
<g id="edge32" class="edge"><title>Node23&#45;&gt;Node13</title>
<path fill="none" stroke="midnightblue" d="M998.961,-164.368C976.114,-154.255 944.695,-140.349 924.741,-131.516"/>
<polygon fill="midnightblue" stroke="midnightblue" points="997.608,-167.597 1008.17,-168.444 1000.44,-161.196 997.608,-167.597"/>
</g>
<!-- Node24 -->
<g id="node21" class="node"><title>Node24</title>
<g id="a_node21"><a xlink:href="__projectiles_8h.html" target="_top" xlink:title="src/Projectiles/_projectiles.h">
<polygon fill="white" stroke="black" points="1326.5,-112.5 1326.5,-131.5 1466.5,-131.5 1466.5,-112.5 1326.5,-112.5"/>
<text text-anchor="middle" x="1396.5" y="-119.5" font-family="Helvetica,sans-Serif" font-size="10.00">src/Projectiles/_projectiles.h</text>
</a>
</g>
</g>
<!-- Node23&#45;&gt;Node24 -->
<g id="edge33" class="edge"><title>Node23&#45;&gt;Node24</title>
<path fill="none" stroke="midnightblue" d="M1095.97,-166.979C1165.68,-156.779 1272.56,-141.137 1338.3,-131.516"/>
<polygon fill="midnightblue" stroke="midnightblue" points="1095.36,-163.532 1085.97,-168.444 1096.37,-170.459 1095.36,-163.532"/>
</g>
<!-- Node25 -->
<g id="node22" class="node"><title>Node25</title>
<g id="a_node22"><a xlink:href="_proj_test_8cpp.html" target="_top" xlink:title="src/Projectiles/ProjTest.cpp">
<polygon fill="white" stroke="black" points="989,-112.5 989,-131.5 1126,-131.5 1126,-112.5 989,-112.5"/>
<text text-anchor="middle" x="1057.5" y="-119.5" font-family="Helvetica,sans-Serif" font-size="10.00">src/Projectiles/ProjTest.cpp</text>
</a>
</g>
</g>
<!-- Node23&#45;&gt;Node25 -->
<g id="edge36" class="edge"><title>Node23&#45;&gt;Node25</title>
<path fill="none" stroke="midnightblue" d="M1037.35,-159.275C1042.47,-150.045 1048.52,-139.17 1052.64,-131.751"/>
<polygon fill="midnightblue" stroke="midnightblue" points="1034.25,-157.642 1032.45,-168.083 1040.37,-161.041 1034.25,-157.642"/>
</g>
<!-- Node24&#45;&gt;Node9 -->
<g id="edge34" class="edge"><title>Node24&#45;&gt;Node9</title>
<path fill="none" stroke="midnightblue" d="M1396.04,-102.049C1394.58,-87.1508 1390.01,-67.1178 1376.5,-56 1346.64,-31.4385 1085.82,-17.2215 986.067,-12.6418"/>
<polygon fill="midnightblue" stroke="midnightblue" points="1392.55,-102.431 1396.64,-112.207 1399.54,-102.019 1392.55,-102.431"/>
</g>
<!-- Node26&#45;&gt;Node11 -->
<g id="edge39" class="edge"><title>Node26&#45;&gt;Node11</title>
<path fill="none" stroke="midnightblue" d="M1283.5,-161.002C1273.93,-151.433 1262.14,-139.639 1254.25,-131.751"/>
<polygon fill="midnightblue" stroke="midnightblue" points="1281.04,-163.487 1290.58,-168.083 1285.99,-158.537 1281.04,-163.487"/>
</g>
<!-- Node26&#45;&gt;Node24 -->
<g id="edge40" class="edge"><title>Node26&#45;&gt;Node24</title>
<path fill="none" stroke="midnightblue" d="M1323.84,-163.453C1341.74,-153.483 1365.55,-140.228 1380.95,-131.655"/>
<polygon fill="midnightblue" stroke="midnightblue" points="1322.12,-160.402 1315.08,-168.324 1325.52,-166.518 1322.12,-160.402"/>
</g>
<!-- Node27 -->
<g id="node24" class="node"><title>Node27</title>
<g id="a_node24"><a xlink:href="_proj_piou_8cpp.html" target="_top" xlink:title="src/Projectiles/ProjPiou.cpp">
<polygon fill="white" stroke="black" points="1485,-112.5 1485,-131.5 1622,-131.5 1622,-112.5 1485,-112.5"/>
<text text-anchor="middle" x="1553.5" y="-119.5" font-family="Helvetica,sans-Serif" font-size="10.00">src/Projectiles/ProjPiou.cpp</text>
</a>
</g>
</g>
<!-- Node26&#45;&gt;Node27 -->
<g id="edge41" class="edge"><title>Node26&#45;&gt;Node27</title>
<path fill="none" stroke="midnightblue" d="M1349.62,-166.346C1397.62,-156.141 1469.12,-140.94 1513.44,-131.516"/>
<polygon fill="midnightblue" stroke="midnightblue" points="1348.8,-162.94 1339.75,-168.444 1350.26,-169.787 1348.8,-162.94"/>
</g>
</g>
</svg>
        <g id="navigator" transform="translate(0 0)" fill="#404254">
                <rect fill="#f2f5e9" fill-opacity="0.5" stroke="#606060" stroke-width=".5" x="0" y="0" width="60" height="60"/>
                <use id="zoomplus" xlink:href="#zoomPlus" x="17" y="9" onmousedown="handleZoom(evt,'in')"/>
                <use id="zoomminus" xlink:href="#zoomMin" x="42" y="9" onmousedown="handleZoom(evt,'out')"/>
                <use id="reset" xlink:href="#resetDef" x="30" y="36" onmousedown="handleReset()"/>
                <g id="arrowUp" xlink:href="#dirArrow" transform="translate(30 24)" onmousedown="handlePan(0,-1)">
                  <use xlink:href="#rim" fill="#404040">
                        <set attributeName="fill" to="#808080" begin="arrowUp.mouseover" end="arrowUp.mouseout"/>
                  </use>
                  <path fill="none" stroke="white" stroke-width="1.5" d="M0,-3.0v7 M-2.5,-0.5L0,-3.0L2.5,-0.5"/>
                </g>
                <g id="arrowRight" xlink:href="#dirArrow" transform="rotate(90) translate(36 -43)" onmousedown="handlePan(1,0)">
                  <use xlink:href="#rim" fill="#404040">
                        <set attributeName="fill" to="#808080" begin="arrowRight.mouseover" end="arrowRight.mouseout"/>
                  </use>
                  <path fill="none" stroke="white" stroke-width="1.5" d="M0,-3.0v7 M-2.5,-0.5L0,-3.0L2.5,-0.5"/>
                </g>
                <g id="arrowDown" xlink:href="#dirArrow" transform="rotate(180) translate(-30 -48)" onmousedown="handlePan(0,1)">
                  <use xlink:href="#rim" fill="#404040">
                        <set attributeName="fill" to="#808080" begin="arrowDown.mouseover" end="arrowDown.mouseout"/>
                  </use>
                  <path fill="none" stroke="white" stroke-width="1.5" d="M0,-3.0v7 M-2.5,-0.5L0,-3.0L2.5,-0.5"/>
                </g>
                <g id="arrowLeft" xlink:href="#dirArrow" transform="rotate(270) translate(-36 17)" onmousedown="handlePan(-1,0)">
                  <use xlink:href="#rim" fill="#404040">
                        <set attributeName="fill" to="#808080" begin="arrowLeft.mouseover" end="arrowLeft.mouseout"/>
                  </use>
                  <path fill="none" stroke="white" stroke-width="1.5" d="M0,-3.0v7 M-2.5,-0.5L0,-3.0L2.5,-0.5"/>
                </g>
        </g>
        <svg viewBox="0 0 15 15" width="100%" height="30px" preserveAspectRatio="xMaxYMin meet">
         <g id="arrow_out" transform="scale(0.3 0.3)">
          <a xlink:href="_entite_8h__dep__incl_org.svg" target="_base">
           <rect id="button" ry="5" rx="5" y="6" x="6" height="38" width="38"
                fill="#f2f5e9" fill-opacity="0.5" stroke="#606060" stroke-width="1.0"/>
           <path id="arrow"
             d="M 11.500037,31.436501 C 11.940474,20.09759 22.043105,11.32322 32.158766,21.979434 L 37.068811,17.246167 C 37.068811,17.246167 37.088388,32 37.088388,32 L 22.160133,31.978069 C 22.160133,31.978069 26.997745,27.140456 26.997745,27.140456 C 18.528582,18.264221 13.291696,25.230495 11.500037,31.436501 z"
             style="fill:#404040;"/>
          </a>
         </g>
        </svg>
</svg>
