<?xml version="1.0" encoding="UTF-8" standalone="no"?>
<!DOCTYPE svg PUBLIC "-//W3C//DTD SVG 1.1//EN"
 "http://www.w3.org/Graphics/SVG/1.1/DTD/svg11.dtd">
<!-- Generated by graphviz version 2.38.0 (20140413.2041)
 -->
<!-- Title: src/Entite.h Pages: 1 -->
<svg width="290pt" height="84pt"
 viewBox="0.00 0.00 290.00 84.00" xmlns="http://www.w3.org/2000/svg" xmlns:xlink="http://www.w3.org/1999/xlink">
<g id="graph0" class="graph" transform="scale(1 1) rotate(0) translate(4 80)">
<title>src/Entite.h</title>
<polygon fill="white" stroke="none" points="-4,4 -4,-80 286,-80 286,4 -4,4"/>
<!-- Node0 -->
<g id="node1" class="node"><title>Node0</title>
<polygon fill="#bfbfbf" stroke="black" points="77.5,-56.5 77.5,-75.5 144.5,-75.5 144.5,-56.5 77.5,-56.5"/>
<text text-anchor="middle" x="111" y="-63.5" font-family="Helvetica,sans-Serif" font-size="10.00">src/Entite.h</text>
</g>
<!-- Node1 -->
<g id="node2" class="node"><title>Node1</title>
<polygon fill="white" stroke="#bfbfbf" points="0,-0.5 0,-19.5 44,-19.5 44,-0.5 0,-0.5"/>
<text text-anchor="middle" x="22" y="-7.5" font-family="Helvetica,sans-Serif" font-size="10.00">vector</text>
</g>
<!-- Node0&#45;&gt;Node1 -->
<g id="edge1" class="edge"><title>Node0&#45;&gt;Node1</title>
<path fill="none" stroke="midnightblue" d="M96.7006,-56.324C82.8171,-47.9002 61.5076,-34.9709 45.1963,-25.0741"/>
<polygon fill="midnightblue" stroke="midnightblue" points="46.6289,-21.8495 36.2639,-19.6545 42.9978,-27.8341 46.6289,-21.8495"/>
</g>
<!-- Node2 -->
<g id="node3" class="node"><title>Node2</title>
<polygon fill="white" stroke="#bfbfbf" points="62,-0.5 62,-19.5 160,-19.5 160,-0.5 62,-0.5"/>
<text text-anchor="middle" x="111" y="-7.5" font-family="Helvetica,sans-Serif" font-size="10.00">SFML/System.hpp</text>
</g>
<!-- Node0&#45;&gt;Node2 -->
<g id="edge2" class="edge"><title>Node0&#45;&gt;Node2</title>
<path fill="none" stroke="midnightblue" d="M111,-56.083C111,-49.0059 111,-38.8611 111,-29.9865"/>
<polygon fill="midnightblue" stroke="midnightblue" points="114.5,-29.751 111,-19.7511 107.5,-29.7511 114.5,-29.751"/>
</g>
<!-- Node3 -->
<g id="node4" class="node"><title>Node3</title>
<polygon fill="white" stroke="#bfbfbf" points="178,-0.5 178,-19.5 282,-19.5 282,-0.5 178,-0.5"/>
<text text-anchor="middle" x="230" y="-7.5" font-family="Helvetica,sans-Serif" font-size="10.00">SFML/Graphics.hpp</text>
</g>
<!-- Node0&#45;&gt;Node3 -->
<g id="edge3" class="edge"><title>Node0&#45;&gt;Node3</title>
<path fill="none" stroke="midnightblue" d="M129.856,-56.4435C149.266,-47.6356 179.73,-33.8116 201.965,-23.722"/>
<polygon fill="midnightblue" stroke="midnightblue" points="203.572,-26.836 211.232,-19.5164 200.68,-20.4615 203.572,-26.836"/>
</g>
</g>
</svg>
