<?xml version="1.0" encoding="UTF-8" standalone="no"?>
<!DOCTYPE svg PUBLIC "-//W3C//DTD SVG 1.1//EN"
 "http://www.w3.org/Graphics/SVG/1.1/DTD/svg11.dtd">
<!-- Generated by graphviz version 2.38.0 (20140413.2041)
 -->
<!-- Title: src/Entite.h Pages: 1 -->
<svg width="1877pt" height="364pt"
 viewBox="0.00 0.00 1877.00 364.00" xmlns="http://www.w3.org/2000/svg" xmlns:xlink="http://www.w3.org/1999/xlink">
<g id="graph0" class="graph" transform="scale(1 1) rotate(0) translate(4 360)">
<title>src/Entite.h</title>
<polygon fill="white" stroke="none" points="-4,4 -4,-360 1873,-360 1873,4 -4,4"/>
<!-- Node6 -->
<g id="node1" class="node"><title>Node6</title>
<polygon fill="#bfbfbf" stroke="black" points="916,-336.5 916,-355.5 983,-355.5 983,-336.5 916,-336.5"/>
<text text-anchor="middle" x="949.5" y="-343.5" font-family="Helvetica,sans-Serif" font-size="10.00">src/Entite.h</text>
</g>
<!-- Node7 -->
<g id="node2" class="node"><title>Node7</title>
<g id="a_node2"><a xlink:href="_projectile_8h.html" target="_top" xlink:title="src/Projectiles/Projectile.h">
<polygon fill="white" stroke="black" points="754,-280.5 754,-299.5 885,-299.5 885,-280.5 754,-280.5"/>
<text text-anchor="middle" x="819.5" y="-287.5" font-family="Helvetica,sans-Serif" font-size="10.00">src/Projectiles/Projectile.h</text>
</a>
</g>
</g>
<!-- Node6&#45;&gt;Node7 -->
<g id="edge1" class="edge"><title>Node6&#45;&gt;Node7</title>
<path fill="none" stroke="midnightblue" d="M919.415,-332.503C895.043,-322.38 861.36,-308.388 840.003,-299.516"/>
<polygon fill="midnightblue" stroke="midnightblue" points="918.323,-335.84 928.901,-336.444 921.009,-329.375 918.323,-335.84"/>
</g>
<!-- Node8 -->
<g id="node3" class="node"><title>Node8</title>
<g id="a_node3"><a xlink:href="_capacite_8h.html" target="_top" xlink:title="src/Capacites/Capacite.h">
<polygon fill="white" stroke="black" points="625.5,-224.5 625.5,-243.5 753.5,-243.5 753.5,-224.5 625.5,-224.5"/>
<text text-anchor="middle" x="689.5" y="-231.5" font-family="Helvetica,sans-Serif" font-size="10.00">src/Capacites/Capacite.h</text>
</a>
</g>
</g>
<!-- Node6&#45;&gt;Node8 -->
<g id="edge50" class="edge"><title>Node6&#45;&gt;Node8</title>
<path fill="none" stroke="midnightblue" d="M905.834,-343.466C862.165,-340.166 794.485,-330.12 744.5,-300 720.95,-285.809 702.587,-257.926 694.305,-243.739"/>
<polygon fill="midnightblue" stroke="midnightblue" points="905.641,-346.961 915.853,-344.136 906.109,-339.976 905.641,-346.961"/>
</g>
<!-- Node15 -->
<g id="node10" class="node"><title>Node15</title>
<g id="a_node10"><a xlink:href="_cap_dash_8h.html" target="_top" xlink:title="src/Capacites/CapDash.h">
<polygon fill="white" stroke="black" points="991.5,-168.5 991.5,-187.5 1121.5,-187.5 1121.5,-168.5 991.5,-168.5"/>
<text text-anchor="middle" x="1056.5" y="-175.5" font-family="Helvetica,sans-Serif" font-size="10.00">src/Capacites/CapDash.h</text>
</a>
</g>
</g>
<!-- Node6&#45;&gt;Node15 -->
<g id="edge51" class="edge"><title>Node6&#45;&gt;Node15</title>
<path fill="none" stroke="midnightblue" d="M962.336,-328.372C977.282,-308.709 1002.36,-274.759 1021.5,-244 1033.69,-224.413 1046.04,-200.235 1052.3,-187.606"/>
<polygon fill="midnightblue" stroke="midnightblue" points="959.538,-326.27 956.24,-336.339 965.097,-330.524 959.538,-326.27"/>
</g>
<!-- Node18 -->
<g id="node13" class="node"><title>Node18</title>
<g id="a_node13"><a xlink:href="_vaisseau_8h.html" target="_top" xlink:title="src/Vaisseau/Vaisseau.h">
<polygon fill="white" stroke="black" points="444,-168.5 444,-187.5 569,-187.5 569,-168.5 444,-168.5"/>
<text text-anchor="middle" x="506.5" y="-175.5" font-family="Helvetica,sans-Serif" font-size="10.00">src/Vaisseau/Vaisseau.h</text>
</a>
</g>
</g>
<!-- Node6&#45;&gt;Node18 -->
<g id="edge52" class="edge"><title>Node6&#45;&gt;Node18</title>
<path fill="none" stroke="midnightblue" d="M905.844,-344.858C826.743,-342.438 657.892,-327.095 549.5,-244 529.742,-228.853 516.172,-201.901 510.102,-187.938"/>
<polygon fill="midnightblue" stroke="midnightblue" points="905.858,-348.36 915.942,-345.111 906.033,-341.362 905.858,-348.36"/>
</g>
<!-- Node20 -->
<g id="node15" class="node"><title>Node20</title>
<g id="a_node15"><a xlink:href="main_8cpp.html" target="_top" xlink:title="src/main.cpp">
<polygon fill="white" stroke="black" points="968,-56.5 968,-75.5 1041,-75.5 1041,-56.5 968,-56.5"/>
<text text-anchor="middle" x="1004.5" y="-63.5" font-family="Helvetica,sans-Serif" font-size="10.00">src/main.cpp</text>
</a>
</g>
</g>
<!-- Node6&#45;&gt;Node20 -->
<g id="edge54" class="edge"><title>Node6&#45;&gt;Node20</title>
<path fill="none" stroke="midnightblue" d="M993.222,-343.74C1162.24,-338.301 1763.5,-313.439 1763.5,-235 1763.5,-235 1763.5,-235 1763.5,-177 1763.5,-103.103 1192.72,-74.6496 1041.11,-68.3951"/>
<polygon fill="midnightblue" stroke="midnightblue" points="993.068,-340.243 983.183,-344.057 993.289,-347.24 993.068,-340.243"/>
</g>
<!-- Node33 -->
<g id="node28" class="node"><title>Node33</title>
<g id="a_node28"><a xlink:href="_entite_8cpp.html" target="_top" xlink:title="src/Entite.cpp">
<polygon fill="white" stroke="black" points="1792,-280.5 1792,-299.5 1869,-299.5 1869,-280.5 1792,-280.5"/>
<text text-anchor="middle" x="1830.5" y="-287.5" font-family="Helvetica,sans-Serif" font-size="10.00">src/Entite.cpp</text>
</a>
</g>
</g>
<!-- Node6&#45;&gt;Node33 -->
<g id="edge53" class="edge"><title>Node6&#45;&gt;Node33</title>
<path fill="none" stroke="midnightblue" d="M993.33,-344.374C1116.98,-342.231 1478.95,-333.351 1777.5,-300 1782.14,-299.482 1786.99,-298.823 1791.78,-298.098"/>
<polygon fill="midnightblue" stroke="midnightblue" points="993.074,-340.878 983.134,-344.545 993.191,-347.877 993.074,-340.878"/>
</g>
<!-- Node7&#45;&gt;Node8 -->
<g id="edge2" class="edge"><title>Node7&#45;&gt;Node8</title>
<path fill="none" stroke="midnightblue" d="M789.415,-276.503C765.043,-266.38 731.36,-252.388 710.003,-243.516"/>
<polygon fill="midnightblue" stroke="midnightblue" points="788.323,-279.84 798.901,-280.444 791.009,-273.375 788.323,-279.84"/>
</g>
<!-- Node9 -->
<g id="node4" class="node"><title>Node9</title>
<g id="a_node4"><a xlink:href="_cap_test_8h.html" target="_top" xlink:title="src/Capacites/CapTest.h">
<polygon fill="white" stroke="black" points="847.5,-168.5 847.5,-187.5 973.5,-187.5 973.5,-168.5 847.5,-168.5"/>
<text text-anchor="middle" x="910.5" y="-175.5" font-family="Helvetica,sans-Serif" font-size="10.00">src/Capacites/CapTest.h</text>
</a>
</g>
</g>
<!-- Node7&#45;&gt;Node9 -->
<g id="edge33" class="edge"><title>Node7&#45;&gt;Node9</title>
<path fill="none" stroke="midnightblue" d="M833.079,-272.586C852.698,-248.871 888.272,-205.869 903.393,-187.591"/>
<polygon fill="midnightblue" stroke="midnightblue" points="830.318,-270.432 826.641,-280.368 835.712,-274.894 830.318,-270.432"/>
</g>
<!-- Node13 -->
<g id="node8" class="node"><title>Node13</title>
<g id="a_node8"><a xlink:href="_cap_piou_8h.html" target="_top" xlink:title="src/Capacites/CapPiou.h">
<polygon fill="white" stroke="black" points="1295.5,-168.5 1295.5,-187.5 1421.5,-187.5 1421.5,-168.5 1295.5,-168.5"/>
<text text-anchor="middle" x="1358.5" y="-175.5" font-family="Helvetica,sans-Serif" font-size="10.00">src/Capacites/CapPiou.h</text>
</a>
</g>
</g>
<!-- Node7&#45;&gt;Node13 -->
<g id="edge40" class="edge"><title>Node7&#45;&gt;Node13</title>
<path fill="none" stroke="midnightblue" d="M871.213,-278.446C977.633,-256.728 1219.3,-207.407 1316.68,-187.535"/>
<polygon fill="midnightblue" stroke="midnightblue" points="870.444,-275.031 861.346,-280.46 871.844,-281.89 870.444,-275.031"/>
</g>
<!-- Node17 -->
<g id="node12" class="node"><title>Node17</title>
<g id="a_node12"><a xlink:href="_capacite_8cpp.html" target="_top" xlink:title="src/Capacites/Capacite.cpp">
<polygon fill="white" stroke="black" points="658.5,-112.5 658.5,-131.5 796.5,-131.5 796.5,-112.5 658.5,-112.5"/>
<text text-anchor="middle" x="727.5" y="-119.5" font-family="Helvetica,sans-Serif" font-size="10.00">src/Capacites/Capacite.cpp</text>
</a>
</g>
</g>
<!-- Node7&#45;&gt;Node17 -->
<g id="edge46" class="edge"><title>Node7&#45;&gt;Node17</title>
<path fill="none" stroke="midnightblue" d="M809.697,-271.312C790.083,-235.921 746.656,-157.565 732.249,-131.568"/>
<polygon fill="midnightblue" stroke="midnightblue" points="806.645,-273.025 814.554,-280.075 812.767,-269.632 806.645,-273.025"/>
</g>
<!-- Node7&#45;&gt;Node18 -->
<g id="edge45" class="edge"><title>Node7&#45;&gt;Node18</title>
<path fill="none" stroke="midnightblue" d="M743.885,-284.434C696.006,-279.205 633.856,-268 583.5,-244 554.126,-230 526.788,-202.031 514.034,-187.782"/>
<polygon fill="midnightblue" stroke="midnightblue" points="743.571,-287.92 753.876,-285.462 744.287,-280.957 743.571,-287.92"/>
</g>
<!-- Node19 -->
<g id="node14" class="node"><title>Node19</title>
<g id="a_node14"><a xlink:href="_partie_8h.html" target="_top" xlink:title="src/Partie.h">
<polygon fill="white" stroke="black" points="815,-112.5 815,-131.5 882,-131.5 882,-112.5 815,-112.5"/>
<text text-anchor="middle" x="848.5" y="-119.5" font-family="Helvetica,sans-Serif" font-size="10.00">src/Partie.h</text>
</a>
</g>
</g>
<!-- Node7&#45;&gt;Node19 -->
<g id="edge47" class="edge"><title>Node7&#45;&gt;Node19</title>
<path fill="none" stroke="midnightblue" d="M822.053,-270.378C825.403,-246.565 831.664,-204.089 838.5,-168 840.913,-155.262 844.277,-140.625 846.421,-131.594"/>
<polygon fill="midnightblue" stroke="midnightblue" points="818.562,-270.073 820.653,-280.46 825.495,-271.036 818.562,-270.073"/>
</g>
<!-- Node26 -->
<g id="node21" class="node"><title>Node26</title>
<g id="a_node21"><a xlink:href="_projectile_8cpp.html" target="_top" xlink:title="src/Projectiles/Projectile.cpp">
<polygon fill="white" stroke="black" points="0,-112.5 0,-131.5 141,-131.5 141,-112.5 0,-112.5"/>
<text text-anchor="middle" x="70.5" y="-119.5" font-family="Helvetica,sans-Serif" font-size="10.00">src/Projectiles/Projectile.cpp</text>
</a>
</g>
</g>
<!-- Node7&#45;&gt;Node26 -->
<g id="edge48" class="edge"><title>Node7&#45;&gt;Node26</title>
<path fill="none" stroke="midnightblue" d="M749.781,-278.993C695.087,-270.754 617.153,-258.158 549.5,-244 378.235,-208.16 175.754,-152.604 100.562,-131.513"/>
<polygon fill="midnightblue" stroke="midnightblue" points="749.308,-282.461 759.716,-280.48 750.344,-275.538 749.308,-282.461"/>
</g>
<!-- Node27 -->
<g id="node22" class="node"><title>Node27</title>
<g id="a_node22"><a xlink:href="_vaisseau_8cpp.html" target="_top" xlink:title="src/Vaisseau/Vaisseau.cpp">
<polygon fill="white" stroke="black" points="504.5,-112.5 504.5,-131.5 640.5,-131.5 640.5,-112.5 504.5,-112.5"/>
<text text-anchor="middle" x="572.5" y="-119.5" font-family="Helvetica,sans-Serif" font-size="10.00">src/Vaisseau/Vaisseau.cpp</text>
</a>
</g>
</g>
<!-- Node7&#45;&gt;Node27 -->
<g id="edge49" class="edge"><title>Node7&#45;&gt;Node27</title>
<path fill="none" stroke="midnightblue" d="M743.788,-279.898C694.313,-272.537 635.478,-260.647 616.5,-244 581.885,-213.635 574.487,-153.788 572.918,-131.569"/>
<polygon fill="midnightblue" stroke="midnightblue" points="743.467,-283.387 753.865,-281.355 744.469,-276.459 743.467,-283.387"/>
</g>
<!-- Node28 -->
<g id="node23" class="node"><title>Node28</title>
<g id="a_node23"><a xlink:href="_proj_test_8h.html" target="_top" xlink:title="src/Projectiles/ProjTest.h">
<polygon fill="white" stroke="black" points="886,-224.5 886,-243.5 1013,-243.5 1013,-224.5 886,-224.5"/>
<text text-anchor="middle" x="949.5" y="-231.5" font-family="Helvetica,sans-Serif" font-size="10.00">src/Projectiles/ProjTest.h</text>
</a>
</g>
</g>
<!-- Node7&#45;&gt;Node28 -->
<g id="edge34" class="edge"><title>Node7&#45;&gt;Node28</title>
<path fill="none" stroke="midnightblue" d="M849.585,-276.503C873.957,-266.38 907.64,-252.388 928.997,-243.516"/>
<polygon fill="midnightblue" stroke="midnightblue" points="847.991,-273.375 840.099,-280.444 850.677,-279.84 847.991,-273.375"/>
</g>
<!-- Node31 -->
<g id="node26" class="node"><title>Node31</title>
<g id="a_node26"><a xlink:href="_proj_piou_8h.html" target="_top" xlink:title="src/Projectiles/ProjPiou.h">
<polygon fill="white" stroke="black" points="1370,-224.5 1370,-243.5 1497,-243.5 1497,-224.5 1370,-224.5"/>
<text text-anchor="middle" x="1433.5" y="-231.5" font-family="Helvetica,sans-Serif" font-size="10.00">src/Projectiles/ProjPiou.h</text>
</a>
</g>
</g>
<!-- Node7&#45;&gt;Node31 -->
<g id="edge41" class="edge"><title>Node7&#45;&gt;Node31</title>
<path fill="none" stroke="midnightblue" d="M895.227,-282.34C1017.34,-271.6 1255.58,-250.648 1369.65,-240.616"/>
<polygon fill="midnightblue" stroke="midnightblue" points="894.864,-278.858 885.209,-283.221 895.477,-285.831 894.864,-278.858"/>
</g>
<!-- Node8&#45;&gt;Node9 -->
<g id="edge3" class="edge"><title>Node8&#45;&gt;Node9</title>
<path fill="none" stroke="midnightblue" d="M734.421,-222.024C776.168,-211.823 837.482,-196.841 875.646,-187.516"/>
<polygon fill="midnightblue" stroke="midnightblue" points="733.402,-218.67 724.518,-224.444 735.063,-225.47 733.402,-218.67"/>
</g>
<!-- Node8&#45;&gt;Node13 -->
<g id="edge7" class="edge"><title>Node8&#45;&gt;Node13</title>
<path fill="none" stroke="midnightblue" d="M763.78,-228.525C876.636,-221.469 1098,-206.626 1285.5,-188 1288.68,-187.684 1291.93,-187.345 1295.21,-186.988"/>
<polygon fill="midnightblue" stroke="midnightblue" points="763.295,-225.048 753.532,-229.163 763.73,-232.034 763.295,-225.048"/>
</g>
<!-- Node8&#45;&gt;Node15 -->
<g id="edge10" class="edge"><title>Node8&#45;&gt;Node15</title>
<path fill="none" stroke="midnightblue" d="M757.603,-222.979C826.928,-212.779 933.234,-197.137 998.62,-187.516"/>
<polygon fill="midnightblue" stroke="midnightblue" points="757.036,-219.525 747.652,-224.444 758.055,-226.45 757.036,-219.525"/>
</g>
<!-- Node8&#45;&gt;Node17 -->
<g id="edge14" class="edge"><title>Node8&#45;&gt;Node17</title>
<path fill="none" stroke="midnightblue" d="M695.831,-214.674C704.139,-190.625 718.384,-149.388 724.532,-131.591"/>
<polygon fill="midnightblue" stroke="midnightblue" points="692.439,-213.774 692.482,-224.368 699.055,-216.059 692.439,-213.774"/>
</g>
<!-- Node8&#45;&gt;Node18 -->
<g id="edge15" class="edge"><title>Node8&#45;&gt;Node18</title>
<path fill="none" stroke="midnightblue" d="M650.757,-221.568C616.235,-211.381 566.495,-196.703 535.361,-187.516"/>
<polygon fill="midnightblue" stroke="midnightblue" points="649.921,-224.97 660.503,-224.444 651.903,-218.256 649.921,-224.97"/>
</g>
<!-- Node8&#45;&gt;Node19 -->
<g id="edge29" class="edge"><title>Node8&#45;&gt;Node19</title>
<path fill="none" stroke="midnightblue" d="M710.579,-218.417C744.209,-195.151 808.967,-150.35 836.081,-131.591"/>
<polygon fill="midnightblue" stroke="midnightblue" points="708.209,-215.801 701.976,-224.368 712.192,-221.557 708.209,-215.801"/>
</g>
<!-- Node24 -->
<g id="node19" class="node"><title>Node24</title>
<g id="a_node19"><a xlink:href="_vaisseau_test_8h.html" target="_top" xlink:title="src/Vaisseau/VaisseauTest.h">
<polygon fill="white" stroke="black" points="159,-112.5 159,-131.5 304,-131.5 304,-112.5 159,-112.5"/>
<text text-anchor="middle" x="231.5" y="-119.5" font-family="Helvetica,sans-Serif" font-size="10.00">src/Vaisseau/VaisseauTest.h</text>
</a>
</g>
</g>
<!-- Node8&#45;&gt;Node24 -->
<g id="edge30" class="edge"><title>Node8&#45;&gt;Node24</title>
<path fill="none" stroke="midnightblue" d="M615.204,-225.082C563.671,-218.338 493.895,-206.7 434.5,-188 414.396,-181.67 411.265,-175.321 391.5,-168 350.1,-152.664 301.035,-139.586 268.255,-131.544"/>
<polygon fill="midnightblue" stroke="midnightblue" points="614.897,-228.571 625.259,-226.366 615.783,-221.627 614.897,-228.571"/>
</g>
<!-- Node8&#45;&gt;Node26 -->
<g id="edge31" class="edge"><title>Node8&#45;&gt;Node26</title>
<path fill="none" stroke="midnightblue" d="M615.315,-228.702C554.037,-223.528 465.433,-212.269 391.5,-188 373.367,-182.048 371.61,-174.023 353.5,-168 315.145,-155.243 211.454,-140.55 140.828,-131.518"/>
<polygon fill="midnightblue" stroke="midnightblue" points="615.037,-232.19 625.287,-229.51 615.603,-225.213 615.037,-232.19"/>
</g>
<!-- Node8&#45;&gt;Node27 -->
<g id="edge32" class="edge"><title>Node8&#45;&gt;Node27</title>
<path fill="none" stroke="midnightblue" d="M673.026,-217.512C648.025,-194.007 601.335,-150.11 581.638,-131.591"/>
<polygon fill="midnightblue" stroke="midnightblue" points="670.636,-220.069 680.319,-224.368 675.431,-214.969 670.636,-220.069"/>
</g>
<!-- Node10 -->
<g id="node5" class="node"><title>Node10</title>
<g id="a_node5"><a xlink:href="___capacites_8h.html" target="_top" xlink:title="src/Capacites/_Capacites.h">
<polygon fill="white" stroke="black" points="1055.5,-112.5 1055.5,-131.5 1193.5,-131.5 1193.5,-112.5 1055.5,-112.5"/>
<text text-anchor="middle" x="1124.5" y="-119.5" font-family="Helvetica,sans-Serif" font-size="10.00">src/Capacites/_Capacites.h</text>
</a>
</g>
</g>
<!-- Node9&#45;&gt;Node10 -->
<g id="edge4" class="edge"><title>Node9&#45;&gt;Node10</title>
<path fill="none" stroke="midnightblue" d="M954.255,-165.959C994.674,-155.76 1053.87,-140.822 1090.75,-131.516"/>
<polygon fill="midnightblue" stroke="midnightblue" points="953.249,-162.603 944.409,-168.444 954.961,-169.39 953.249,-162.603"/>
</g>
<!-- Node12 -->
<g id="node7" class="node"><title>Node12</title>
<g id="a_node7"><a xlink:href="_cap_test_8cpp.html" target="_top" xlink:title="src/Capacites/CapTest.cpp">
<polygon fill="white" stroke="black" points="900,-112.5 900,-131.5 1037,-131.5 1037,-112.5 900,-112.5"/>
<text text-anchor="middle" x="968.5" y="-119.5" font-family="Helvetica,sans-Serif" font-size="10.00">src/Capacites/CapTest.cpp</text>
</a>
</g>
</g>
<!-- Node9&#45;&gt;Node12 -->
<g id="edge6" class="edge"><title>Node9&#45;&gt;Node12</title>
<path fill="none" stroke="midnightblue" d="M927.413,-161.253C937.703,-151.673 950.466,-139.791 959.012,-131.834"/>
<polygon fill="midnightblue" stroke="midnightblue" points="924.753,-158.948 919.819,-168.324 929.523,-164.071 924.753,-158.948"/>
</g>
<!-- Node11 -->
<g id="node6" class="node"><title>Node11</title>
<g id="a_node6"><a xlink:href="_partie_8cpp.html" target="_top" xlink:title="src/Partie.cpp">
<polygon fill="white" stroke="black" points="939,-0.5 939,-19.5 1016,-19.5 1016,-0.5 939,-0.5"/>
<text text-anchor="middle" x="977.5" y="-7.5" font-family="Helvetica,sans-Serif" font-size="10.00">src/Partie.cpp</text>
</a>
</g>
</g>
<!-- Node10&#45;&gt;Node11 -->
<g id="edge5" class="edge"><title>Node10&#45;&gt;Node11</title>
<path fill="none" stroke="midnightblue" d="M1107.82,-105.206C1093.02,-91.5277 1070.55,-71.551 1049.5,-56 1030.77,-42.1596 1007.73,-28.262 992.84,-19.6499"/>
<polygon fill="midnightblue" stroke="midnightblue" points="1105.49,-107.824 1115.19,-112.088 1110.27,-102.706 1105.49,-107.824"/>
</g>
<!-- Node13&#45;&gt;Node10 -->
<g id="edge8" class="edge"><title>Node13&#45;&gt;Node10</title>
<path fill="none" stroke="midnightblue" d="M1311.5,-166.153C1267.28,-155.95 1201.98,-140.881 1161.4,-131.516"/>
<polygon fill="midnightblue" stroke="midnightblue" points="1310.89,-169.605 1321.42,-168.444 1312.47,-162.784 1310.89,-169.605"/>
</g>
<!-- Node14 -->
<g id="node9" class="node"><title>Node14</title>
<g id="a_node9"><a xlink:href="_cap_piou_8cpp.html" target="_top" xlink:title="src/Capacites/CapPiou.cpp">
<polygon fill="white" stroke="black" points="1370,-112.5 1370,-131.5 1507,-131.5 1507,-112.5 1370,-112.5"/>
<text text-anchor="middle" x="1438.5" y="-119.5" font-family="Helvetica,sans-Serif" font-size="10.00">src/Capacites/CapPiou.cpp</text>
</a>
</g>
</g>
<!-- Node13&#45;&gt;Node14 -->
<g id="edge9" class="edge"><title>Node13&#45;&gt;Node14</title>
<path fill="none" stroke="midnightblue" d="M1379.8,-162.622C1394.42,-152.757 1413.33,-139.992 1425.68,-131.655"/>
<polygon fill="midnightblue" stroke="midnightblue" points="1377.68,-159.828 1371.35,-168.324 1381.6,-165.63 1377.68,-159.828"/>
</g>
<!-- Node15&#45;&gt;Node10 -->
<g id="edge11" class="edge"><title>Node15&#45;&gt;Node10</title>
<path fill="none" stroke="midnightblue" d="M1075.26,-162.101C1087.5,-152.382 1103.06,-140.027 1113.38,-131.834"/>
<polygon fill="midnightblue" stroke="midnightblue" points="1073.08,-159.364 1067.43,-168.324 1077.43,-164.846 1073.08,-159.364"/>
</g>
<!-- Node15&#45;&gt;Node12 -->
<g id="edge13" class="edge"><title>Node15&#45;&gt;Node12</title>
<path fill="none" stroke="midnightblue" d="M1033.52,-162.901C1017.39,-152.999 996.319,-140.071 982.604,-131.655"/>
<polygon fill="midnightblue" stroke="midnightblue" points="1032.01,-166.077 1042.36,-168.324 1035.67,-160.111 1032.01,-166.077"/>
</g>
<!-- Node16 -->
<g id="node11" class="node"><title>Node16</title>
<g id="a_node11"><a xlink:href="_cap_dash_8cpp.html" target="_top" xlink:title="src/Capacites/CapDash.cpp">
<polygon fill="white" stroke="black" points="1211.5,-112.5 1211.5,-131.5 1351.5,-131.5 1351.5,-112.5 1211.5,-112.5"/>
<text text-anchor="middle" x="1281.5" y="-119.5" font-family="Helvetica,sans-Serif" font-size="10.00">src/Capacites/CapDash.cpp</text>
</a>
</g>
</g>
<!-- Node15&#45;&gt;Node16 -->
<g id="edge12" class="edge"><title>Node15&#45;&gt;Node16</title>
<path fill="none" stroke="midnightblue" d="M1101.97,-166.088C1144.47,-155.887 1207.08,-140.861 1246.01,-131.516"/>
<polygon fill="midnightblue" stroke="midnightblue" points="1101.06,-162.706 1092.15,-168.444 1102.69,-169.513 1101.06,-162.706"/>
</g>
<!-- Node18&#45;&gt;Node17 -->
<g id="edge16" class="edge"><title>Node18&#45;&gt;Node17</title>
<path fill="none" stroke="midnightblue" d="M551.421,-166.024C593.168,-155.823 654.482,-140.841 692.646,-131.516"/>
<polygon fill="midnightblue" stroke="midnightblue" points="550.402,-162.67 541.518,-168.444 552.063,-169.47 550.402,-162.67"/>
</g>
<!-- Node18&#45;&gt;Node19 -->
<g id="edge17" class="edge"><title>Node18&#45;&gt;Node19</title>
<path fill="none" stroke="midnightblue" d="M579.331,-167.22C639.993,-158.792 728.576,-145.827 805.5,-132 808.503,-131.46 811.617,-130.869 814.734,-130.257"/>
<polygon fill="midnightblue" stroke="midnightblue" points="578.517,-163.8 569.091,-168.637 579.477,-170.734 578.517,-163.8"/>
</g>
<!-- Node21 -->
<g id="node16" class="node"><title>Node21</title>
<g id="a_node16"><a xlink:href="_vaisseau_eclaireur_8h.html" target="_top" xlink:title="src/Vaisseau/VaisseauEclaireur.h">
<polygon fill="white" stroke="black" points="322.5,-112.5 322.5,-131.5 486.5,-131.5 486.5,-112.5 322.5,-112.5"/>
<text text-anchor="middle" x="404.5" y="-119.5" font-family="Helvetica,sans-Serif" font-size="10.00">src/Vaisseau/VaisseauEclaireur.h</text>
</a>
</g>
</g>
<!-- Node18&#45;&gt;Node21 -->
<g id="edge20" class="edge"><title>Node18&#45;&gt;Node21</title>
<path fill="none" stroke="midnightblue" d="M481.169,-163.59C462.31,-153.605 437.116,-140.267 420.847,-131.655"/>
<polygon fill="midnightblue" stroke="midnightblue" points="479.636,-166.738 490.112,-168.324 482.912,-160.552 479.636,-166.738"/>
</g>
<!-- Node18&#45;&gt;Node24 -->
<g id="edge24" class="edge"><title>Node18&#45;&gt;Node24</title>
<path fill="none" stroke="midnightblue" d="M452.892,-166.473C400.919,-156.268 323.062,-140.979 274.871,-131.516"/>
<polygon fill="midnightblue" stroke="midnightblue" points="452.438,-169.951 462.925,-168.444 453.787,-163.082 452.438,-169.951"/>
</g>
<!-- Node18&#45;&gt;Node26 -->
<g id="edge27" class="edge"><title>Node18&#45;&gt;Node26</title>
<path fill="none" stroke="midnightblue" d="M433.575,-167.968C351.564,-157.811 219.392,-141.441 139.167,-131.505"/>
<polygon fill="midnightblue" stroke="midnightblue" points="433.213,-171.45 443.567,-169.206 434.074,-164.503 433.213,-171.45"/>
</g>
<!-- Node18&#45;&gt;Node27 -->
<g id="edge28" class="edge"><title>Node18&#45;&gt;Node27</title>
<path fill="none" stroke="midnightblue" d="M525.054,-161.82C536.878,-152.145 551.786,-139.948 561.703,-131.834"/>
<polygon fill="midnightblue" stroke="midnightblue" points="522.627,-159.283 517.104,-168.324 527.06,-164.7 522.627,-159.283"/>
</g>
<!-- Node19&#45;&gt;Node11 -->
<g id="edge19" class="edge"><title>Node19&#45;&gt;Node11</title>
<path fill="none" stroke="midnightblue" d="M866.307,-105.816C893.782,-82.3874 945.614,-38.1898 967.425,-19.5914"/>
<polygon fill="midnightblue" stroke="midnightblue" points="863.961,-103.217 858.622,-112.368 868.503,-108.543 863.961,-103.217"/>
</g>
<!-- Node19&#45;&gt;Node20 -->
<g id="edge18" class="edge"><title>Node19&#45;&gt;Node20</title>
<path fill="none" stroke="midnightblue" d="M882.67,-109.172C912.044,-99.0039 953.698,-84.5852 979.897,-75.5164"/>
<polygon fill="midnightblue" stroke="midnightblue" points="881.524,-105.865 873.219,-112.444 883.813,-112.48 881.524,-105.865"/>
</g>
<!-- Node22 -->
<g id="node17" class="node"><title>Node22</title>
<g id="a_node17"><a xlink:href="__vaisseaux_8h.html" target="_top" xlink:title="src/Vaisseau/_vaisseaux.h">
<polygon fill="white" stroke="black" points="332.5,-56.5 332.5,-75.5 466.5,-75.5 466.5,-56.5 332.5,-56.5"/>
<text text-anchor="middle" x="399.5" y="-63.5" font-family="Helvetica,sans-Serif" font-size="10.00">src/Vaisseau/_vaisseaux.h</text>
</a>
</g>
</g>
<!-- Node21&#45;&gt;Node22 -->
<g id="edge21" class="edge"><title>Node21&#45;&gt;Node22</title>
<path fill="none" stroke="midnightblue" d="M402.75,-102.101C401.92,-93.1357 400.968,-82.8579 400.31,-75.7511"/>
<polygon fill="midnightblue" stroke="midnightblue" points="399.267,-102.448 403.674,-112.083 406.237,-101.803 399.267,-102.448"/>
</g>
<!-- Node23 -->
<g id="node18" class="node"><title>Node23</title>
<g id="a_node18"><a xlink:href="_vaisseau_eclaireur_8cpp.html" target="_top" xlink:title="src/Vaisseau/VaisseauEclaireur.cpp">
<polygon fill="white" stroke="black" points="484.5,-56.5 484.5,-75.5 658.5,-75.5 658.5,-56.5 484.5,-56.5"/>
<text text-anchor="middle" x="571.5" y="-63.5" font-family="Helvetica,sans-Serif" font-size="10.00">src/Vaisseau/VaisseauEclaireur.cpp</text>
</a>
</g>
</g>
<!-- Node21&#45;&gt;Node23 -->
<g id="edge23" class="edge"><title>Node21&#45;&gt;Node23</title>
<path fill="none" stroke="midnightblue" d="M440.67,-109.304C472.137,-99.1294 516.994,-84.6246 545.162,-75.5164"/>
<polygon fill="midnightblue" stroke="midnightblue" points="439.4,-106.037 430.962,-112.444 441.553,-112.697 439.4,-106.037"/>
</g>
<!-- Node22&#45;&gt;Node11 -->
<g id="edge22" class="edge"><title>Node22&#45;&gt;Node11</title>
<path fill="none" stroke="midnightblue" d="M476.748,-55.8962C655.658,-37.4214 855.969,-20.7894 938.728,-14.097"/>
<polygon fill="midnightblue" stroke="midnightblue" points="476.211,-52.4331 466.625,-56.9459 476.933,-59.3958 476.211,-52.4331"/>
</g>
<!-- Node24&#45;&gt;Node22 -->
<g id="edge25" class="edge"><title>Node24&#45;&gt;Node22</title>
<path fill="none" stroke="midnightblue" d="M267.886,-109.304C299.542,-99.1294 344.668,-84.6246 373.004,-75.5164"/>
<polygon fill="midnightblue" stroke="midnightblue" points="266.569,-106.051 258.12,-112.444 268.711,-112.715 266.569,-106.051"/>
</g>
<!-- Node25 -->
<g id="node20" class="node"><title>Node25</title>
<g id="a_node20"><a xlink:href="_vaisseau_test_8cpp.html" target="_top" xlink:title="src/Vaisseau/VaisseauTest.cpp">
<polygon fill="white" stroke="black" points="154,-56.5 154,-75.5 309,-75.5 309,-56.5 154,-56.5"/>
<text text-anchor="middle" x="231.5" y="-63.5" font-family="Helvetica,sans-Serif" font-size="10.00">src/Vaisseau/VaisseauTest.cpp</text>
</a>
</g>
</g>
<!-- Node24&#45;&gt;Node25 -->
<g id="edge26" class="edge"><title>Node24&#45;&gt;Node25</title>
<path fill="none" stroke="midnightblue" d="M231.5,-101.805C231.5,-92.9102 231.5,-82.7798 231.5,-75.7511"/>
<polygon fill="midnightblue" stroke="midnightblue" points="228,-102.083 231.5,-112.083 235,-102.083 228,-102.083"/>
</g>
<!-- Node28&#45;&gt;Node9 -->
<g id="edge35" class="edge"><title>Node28&#45;&gt;Node9</title>
<path fill="none" stroke="midnightblue" d="M937.118,-215.855C930.365,-206.505 922.291,-195.327 916.82,-187.751"/>
<polygon fill="midnightblue" stroke="midnightblue" points="934.368,-218.025 943.06,-224.083 940.042,-213.927 934.368,-218.025"/>
</g>
<!-- Node28&#45;&gt;Node15 -->
<g id="edge36" class="edge"><title>Node28&#45;&gt;Node15</title>
<path fill="none" stroke="midnightblue" d="M975.802,-219.726C995.615,-209.727 1022.21,-196.307 1039.35,-187.655"/>
<polygon fill="midnightblue" stroke="midnightblue" points="974.042,-216.694 966.691,-224.324 977.196,-222.943 974.042,-216.694"/>
</g>
<!-- Node29 -->
<g id="node24" class="node"><title>Node29</title>
<g id="a_node24"><a xlink:href="__projectiles_8h.html" target="_top" xlink:title="src/Projectiles/_projectiles.h">
<polygon fill="white" stroke="black" points="1439.5,-168.5 1439.5,-187.5 1579.5,-187.5 1579.5,-168.5 1439.5,-168.5"/>
<text text-anchor="middle" x="1509.5" y="-175.5" font-family="Helvetica,sans-Serif" font-size="10.00">src/Projectiles/_projectiles.h</text>
</a>
</g>
</g>
<!-- Node28&#45;&gt;Node29 -->
<g id="edge37" class="edge"><title>Node28&#45;&gt;Node29</title>
<path fill="none" stroke="midnightblue" d="M1023.37,-226.555C1117.82,-218.206 1286.42,-202.945 1430.5,-188 1433.38,-187.701 1436.33,-187.39 1439.3,-187.072"/>
<polygon fill="midnightblue" stroke="midnightblue" points="1022.99,-223.074 1013.34,-227.44 1023.61,-230.047 1022.99,-223.074"/>
</g>
<!-- Node30 -->
<g id="node25" class="node"><title>Node30</title>
<g id="a_node25"><a xlink:href="_proj_test_8cpp.html" target="_top" xlink:title="src/Projectiles/ProjTest.cpp">
<polygon fill="white" stroke="black" points="1140,-168.5 1140,-187.5 1277,-187.5 1277,-168.5 1140,-168.5"/>
<text text-anchor="middle" x="1208.5" y="-175.5" font-family="Helvetica,sans-Serif" font-size="10.00">src/Projectiles/ProjTest.cpp</text>
</a>
</g>
</g>
<!-- Node28&#45;&gt;Node30 -->
<g id="edge39" class="edge"><title>Node28&#45;&gt;Node30</title>
<path fill="none" stroke="midnightblue" d="M1000.6,-222.346C1049.55,-212.141 1122.45,-196.94 1167.65,-187.516"/>
<polygon fill="midnightblue" stroke="midnightblue" points="999.614,-218.976 990.539,-224.444 1001.04,-225.829 999.614,-218.976"/>
</g>
<!-- Node29&#45;&gt;Node11 -->
<g id="edge38" class="edge"><title>Node29&#45;&gt;Node11</title>
<path fill="none" stroke="midnightblue" d="M1517.51,-158.965C1522.53,-144.632 1526.21,-124.913 1515.5,-112 1451.63,-35.0236 1129.04,-16.3491 1016.39,-12.1425"/>
<polygon fill="midnightblue" stroke="midnightblue" points="1514.26,-157.69 1513.82,-168.275 1520.76,-160.274 1514.26,-157.69"/>
</g>
<!-- Node31&#45;&gt;Node13 -->
<g id="edge42" class="edge"><title>Node31&#45;&gt;Node13</title>
<path fill="none" stroke="midnightblue" d="M1413.19,-218.38C1399.64,-208.62 1382.26,-196.106 1370.77,-187.834"/>
<polygon fill="midnightblue" stroke="midnightblue" points="1411.29,-221.321 1421.45,-224.324 1415.38,-215.641 1411.29,-221.321"/>
</g>
<!-- Node31&#45;&gt;Node29 -->
<g id="edge43" class="edge"><title>Node31&#45;&gt;Node29</title>
<path fill="none" stroke="midnightblue" d="M1454.08,-218.38C1467.81,-208.62 1485.43,-196.106 1497.07,-187.834"/>
<polygon fill="midnightblue" stroke="midnightblue" points="1451.84,-215.679 1445.71,-224.324 1455.89,-221.385 1451.84,-215.679"/>
</g>
<!-- Node32 -->
<g id="node27" class="node"><title>Node32</title>
<g id="a_node27"><a xlink:href="_proj_piou_8cpp.html" target="_top" xlink:title="src/Projectiles/ProjPiou.cpp">
<polygon fill="white" stroke="black" points="1598,-168.5 1598,-187.5 1735,-187.5 1735,-168.5 1598,-168.5"/>
<text text-anchor="middle" x="1666.5" y="-175.5" font-family="Helvetica,sans-Serif" font-size="10.00">src/Projectiles/ProjPiou.cpp</text>
</a>
</g>
</g>
<!-- Node31&#45;&gt;Node32 -->
<g id="edge44" class="edge"><title>Node31&#45;&gt;Node32</title>
<path fill="none" stroke="midnightblue" d="M1480.3,-222.153C1524.33,-211.95 1589.35,-196.881 1629.75,-187.516"/>
<polygon fill="midnightblue" stroke="midnightblue" points="1479.37,-218.776 1470.42,-224.444 1480.95,-225.595 1479.37,-218.776"/>
</g>
</g>
</svg>
