<?xml version="1.0" encoding="UTF-8" standalone="no"?>
<!DOCTYPE svg PUBLIC "-//W3C//DTD SVG 1.1//EN"
 "http://www.w3.org/Graphics/SVG/1.1/DTD/svg11.dtd">
<!-- Generated by graphviz version 2.38.0 (20140413.2041)
 -->
<!-- Title: src/Entite.cpp Pages: 1 -->
<svg width="504pt" height="140pt"
 viewBox="0.00 0.00 504.00 140.00" xmlns="http://www.w3.org/2000/svg" xmlns:xlink="http://www.w3.org/1999/xlink">
<g id="graph0" class="graph" transform="scale(1 1) rotate(0) translate(4 136)">
<title>src/Entite.cpp</title>
<polygon fill="white" stroke="none" points="-4,4 -4,-136 500,-136 500,4 -4,4"/>
<!-- Node0 -->
<g id="node1" class="node"><title>Node0</title>
<polygon fill="#bfbfbf" stroke="black" points="304.5,-112.5 304.5,-131.5 381.5,-131.5 381.5,-112.5 304.5,-112.5"/>
<text text-anchor="middle" x="343" y="-119.5" font-family="Helvetica,sans-Serif" font-size="10.00">src/Entite.cpp</text>
</g>
<!-- Node1 -->
<g id="node2" class="node"><title>Node1</title>
<g id="a_node2"><a xlink:href="_entite_8h.html" target="_top" xlink:title="Entite.h">
<polygon fill="white" stroke="black" points="156,-56.5 156,-75.5 206,-75.5 206,-56.5 156,-56.5"/>
<text text-anchor="middle" x="181" y="-63.5" font-family="Helvetica,sans-Serif" font-size="10.00">Entite.h</text>
</a>
</g>
</g>
<!-- Node0&#45;&gt;Node1 -->
<g id="edge1" class="edge"><title>Node0&#45;&gt;Node1</title>
<path fill="none" stroke="midnightblue" d="M317.331,-112.444C289.917,-103.306 246.307,-88.7689 215.813,-78.6044"/>
<polygon fill="midnightblue" stroke="midnightblue" points="216.611,-75.1809 206.017,-75.339 214.397,-81.8217 216.611,-75.1809"/>
</g>
<!-- Node6 -->
<g id="node7" class="node"><title>Node6</title>
<g id="a_node7"><a xlink:href="_collision_8h.html" target="_top" xlink:title="Utilitaires/Collision.h">
<polygon fill="white" stroke="black" points="235.5,-56.5 235.5,-75.5 342.5,-75.5 342.5,-56.5 235.5,-56.5"/>
<text text-anchor="middle" x="289" y="-63.5" font-family="Helvetica,sans-Serif" font-size="10.00">Utilitaires/Collision.h</text>
</a>
</g>
</g>
<!-- Node0&#45;&gt;Node6 -->
<g id="edge6" class="edge"><title>Node0&#45;&gt;Node6</title>
<path fill="none" stroke="midnightblue" d="M334.083,-112.083C326.22,-104.22 314.569,-92.5688 305.081,-83.0813"/>
<polygon fill="midnightblue" stroke="midnightblue" points="307.297,-80.3473 297.751,-75.7511 302.347,-85.2971 307.297,-80.3473"/>
</g>
<!-- Node7 -->
<g id="node8" class="node"><title>Node7</title>
<g id="a_node8"><a xlink:href="constantes_8h.html" target="_top" xlink:title="constantes.h">
<polygon fill="white" stroke="black" points="360.5,-56.5 360.5,-75.5 433.5,-75.5 433.5,-56.5 360.5,-56.5"/>
<text text-anchor="middle" x="397" y="-63.5" font-family="Helvetica,sans-Serif" font-size="10.00">constantes.h</text>
</a>
</g>
</g>
<!-- Node0&#45;&gt;Node7 -->
<g id="edge8" class="edge"><title>Node0&#45;&gt;Node7</title>
<path fill="none" stroke="midnightblue" d="M351.917,-112.083C359.78,-104.22 371.431,-92.5688 380.919,-83.0813"/>
<polygon fill="midnightblue" stroke="midnightblue" points="383.653,-85.2971 388.249,-75.7511 378.703,-80.3473 383.653,-85.2971"/>
</g>
<!-- Node8 -->
<g id="node9" class="node"><title>Node8</title>
<polygon fill="white" stroke="#bfbfbf" points="452,-56.5 452,-75.5 496,-75.5 496,-56.5 452,-56.5"/>
<text text-anchor="middle" x="474" y="-63.5" font-family="Helvetica,sans-Serif" font-size="10.00">cmath</text>
</g>
<!-- Node0&#45;&gt;Node8 -->
<g id="edge9" class="edge"><title>Node0&#45;&gt;Node8</title>
<path fill="none" stroke="midnightblue" d="M363.757,-112.444C385.316,-103.557 419.263,-89.5632 443.794,-79.4514"/>
<polygon fill="midnightblue" stroke="midnightblue" points="445.428,-82.5634 453.34,-75.5164 442.761,-76.0917 445.428,-82.5634"/>
</g>
<!-- Node2 -->
<g id="node3" class="node"><title>Node2</title>
<polygon fill="white" stroke="#bfbfbf" points="0,-0.5 0,-19.5 44,-19.5 44,-0.5 0,-0.5"/>
<text text-anchor="middle" x="22" y="-7.5" font-family="Helvetica,sans-Serif" font-size="10.00">vector</text>
</g>
<!-- Node1&#45;&gt;Node2 -->
<g id="edge2" class="edge"><title>Node1&#45;&gt;Node2</title>
<path fill="none" stroke="midnightblue" d="M155.806,-56.4435C128.113,-47.0385 83.5807,-31.9142 53.5768,-21.7242"/>
<polygon fill="midnightblue" stroke="midnightblue" points="54.5983,-18.3748 44.0039,-18.473 52.3471,-25.003 54.5983,-18.3748"/>
</g>
<!-- Node3 -->
<g id="node4" class="node"><title>Node3</title>
<polygon fill="white" stroke="#bfbfbf" points="62,-0.5 62,-19.5 114,-19.5 114,-0.5 62,-0.5"/>
<text text-anchor="middle" x="88" y="-7.5" font-family="Helvetica,sans-Serif" font-size="10.00">memory</text>
</g>
<!-- Node1&#45;&gt;Node3 -->
<g id="edge3" class="edge"><title>Node1&#45;&gt;Node3</title>
<path fill="none" stroke="midnightblue" d="M166.058,-56.324C151.415,-47.8215 128.866,-34.7288 111.762,-24.7975"/>
<polygon fill="midnightblue" stroke="midnightblue" points="113.31,-21.6491 102.905,-19.6545 109.795,-27.7027 113.31,-21.6491"/>
</g>
<!-- Node4 -->
<g id="node5" class="node"><title>Node4</title>
<polygon fill="white" stroke="#bfbfbf" points="132,-0.5 132,-19.5 230,-19.5 230,-0.5 132,-0.5"/>
<text text-anchor="middle" x="181" y="-7.5" font-family="Helvetica,sans-Serif" font-size="10.00">SFML/System.hpp</text>
</g>
<!-- Node1&#45;&gt;Node4 -->
<g id="edge4" class="edge"><title>Node1&#45;&gt;Node4</title>
<path fill="none" stroke="midnightblue" d="M181,-56.083C181,-49.0059 181,-38.8611 181,-29.9865"/>
<polygon fill="midnightblue" stroke="midnightblue" points="184.5,-29.751 181,-19.7511 177.5,-29.7511 184.5,-29.751"/>
</g>
<!-- Node5 -->
<g id="node6" class="node"><title>Node5</title>
<polygon fill="white" stroke="#bfbfbf" points="248,-0.5 248,-19.5 352,-19.5 352,-0.5 248,-0.5"/>
<text text-anchor="middle" x="300" y="-7.5" font-family="Helvetica,sans-Serif" font-size="10.00">SFML/Graphics.hpp</text>
</g>
<!-- Node1&#45;&gt;Node5 -->
<g id="edge5" class="edge"><title>Node1&#45;&gt;Node5</title>
<path fill="none" stroke="midnightblue" d="M199.856,-56.4435C219.266,-47.6356 249.73,-33.8116 271.965,-23.722"/>
<polygon fill="midnightblue" stroke="midnightblue" points="273.572,-26.836 281.232,-19.5164 270.68,-20.4615 273.572,-26.836"/>
</g>
<!-- Node6&#45;&gt;Node5 -->
<g id="edge7" class="edge"><title>Node6&#45;&gt;Node5</title>
<path fill="none" stroke="midnightblue" d="M290.816,-56.083C292.274,-48.9272 294.371,-38.6353 296.193,-29.6911"/>
<polygon fill="midnightblue" stroke="midnightblue" points="299.651,-30.2485 298.217,-19.7511 292.792,-28.8512 299.651,-30.2485"/>
</g>
</g>
</svg>
