<?xml version="1.0" encoding="UTF-8" standalone="no"?>
<!DOCTYPE svg PUBLIC "-//W3C//DTD SVG 1.1//EN"
 "http://www.w3.org/Graphics/SVG/1.1/DTD/svg11.dtd">
<!-- Generated by graphviz version 2.38.0 (20140413.2041)
 -->
<!-- Title: src/Entite.h Pages: 1 -->
<svg width="452pt" height="84pt"
 viewBox="0.00 0.00 451.50 84.00" xmlns="http://www.w3.org/2000/svg" xmlns:xlink="http://www.w3.org/1999/xlink">
<g id="graph0" class="graph" transform="scale(1 1) rotate(0) translate(4 80)">
<title>src/Entite.h</title>
<polygon fill="white" stroke="none" points="-4,4 -4,-80 447.5,-80 447.5,4 -4,4"/>
<!-- Node0 -->
<g id="node1" class="node"><title>Node0</title>
<polygon fill="#bfbfbf" stroke="black" points="147.5,-56.5 147.5,-75.5 214.5,-75.5 214.5,-56.5 147.5,-56.5"/>
<text text-anchor="middle" x="181" y="-63.5" font-family="Helvetica,sans-Serif" font-size="10.00">src/Entite.h</text>
</g>
<!-- Node1 -->
<g id="node2" class="node"><title>Node1</title>
<polygon fill="white" stroke="#bfbfbf" points="0,-0.5 0,-19.5 44,-19.5 44,-0.5 0,-0.5"/>
<text text-anchor="middle" x="22" y="-7.5" font-family="Helvetica,sans-Serif" font-size="10.00">vector</text>
</g>
<!-- Node0&#45;&gt;Node1 -->
<g id="edge1" class="edge"><title>Node0&#45;&gt;Node1</title>
<path fill="none" stroke="midnightblue" d="M155.806,-56.4435C128.113,-47.0385 83.5807,-31.9142 53.5768,-21.7242"/>
<polygon fill="midnightblue" stroke="midnightblue" points="54.5983,-18.3748 44.0039,-18.473 52.3471,-25.003 54.5983,-18.3748"/>
</g>
<!-- Node2 -->
<g id="node3" class="node"><title>Node2</title>
<polygon fill="white" stroke="#bfbfbf" points="62,-0.5 62,-19.5 114,-19.5 114,-0.5 62,-0.5"/>
<text text-anchor="middle" x="88" y="-7.5" font-family="Helvetica,sans-Serif" font-size="10.00">memory</text>
</g>
<!-- Node0&#45;&gt;Node2 -->
<g id="edge2" class="edge"><title>Node0&#45;&gt;Node2</title>
<path fill="none" stroke="midnightblue" d="M166.058,-56.324C151.415,-47.8215 128.866,-34.7288 111.762,-24.7975"/>
<polygon fill="midnightblue" stroke="midnightblue" points="113.31,-21.6491 102.905,-19.6545 109.795,-27.7027 113.31,-21.6491"/>
</g>
<!-- Node3 -->
<g id="node4" class="node"><title>Node3</title>
<polygon fill="white" stroke="#bfbfbf" points="132,-0.5 132,-19.5 230,-19.5 230,-0.5 132,-0.5"/>
<text text-anchor="middle" x="181" y="-7.5" font-family="Helvetica,sans-Serif" font-size="10.00">SFML/System.hpp</text>
</g>
<!-- Node0&#45;&gt;Node3 -->
<g id="edge3" class="edge"><title>Node0&#45;&gt;Node3</title>
<path fill="none" stroke="midnightblue" d="M181,-56.083C181,-49.0059 181,-38.8611 181,-29.9865"/>
<polygon fill="midnightblue" stroke="midnightblue" points="184.5,-29.751 181,-19.7511 177.5,-29.7511 184.5,-29.751"/>
</g>
<!-- Node4 -->
<g id="node5" class="node"><title>Node4</title>
<polygon fill="white" stroke="#bfbfbf" points="248,-0.5 248,-19.5 352,-19.5 352,-0.5 248,-0.5"/>
<text text-anchor="middle" x="300" y="-7.5" font-family="Helvetica,sans-Serif" font-size="10.00">SFML/Graphics.hpp</text>
</g>
<!-- Node0&#45;&gt;Node4 -->
<g id="edge4" class="edge"><title>Node0&#45;&gt;Node4</title>
<path fill="none" stroke="midnightblue" d="M199.856,-56.4435C219.266,-47.6356 249.73,-33.8116 271.965,-23.722"/>
<polygon fill="midnightblue" stroke="midnightblue" points="273.572,-26.836 281.232,-19.5164 270.68,-20.4615 273.572,-26.836"/>
</g>
<!-- Node5 -->
<g id="node6" class="node"><title>Node5</title>
<g id="a_node6"><a xlink:href="constantes_8h.html" target="_top" xlink:title="constantes.h">
<polygon fill="white" stroke="black" points="370.5,-0.5 370.5,-19.5 443.5,-19.5 443.5,-0.5 370.5,-0.5"/>
<text text-anchor="middle" x="407" y="-7.5" font-family="Helvetica,sans-Serif" font-size="10.00">constantes.h</text>
</a>
</g>
</g>
<!-- Node0&#45;&gt;Node5 -->
<g id="edge5" class="edge"><title>Node0&#45;&gt;Node5</title>
<path fill="none" stroke="midnightblue" d="M214.834,-56.9157C253.79,-47.6077 317.971,-32.2725 361.332,-21.9119"/>
<polygon fill="midnightblue" stroke="midnightblue" points="362.151,-25.3147 371.064,-19.5865 360.524,-18.5064 362.151,-25.3147"/>
</g>
</g>
</svg>
