<?xml version="1.0" encoding="UTF-8" standalone="no"?>
<!DOCTYPE svg PUBLIC "-//W3C//DTD SVG 1.1//EN"
 "http://www.w3.org/Graphics/SVG/1.1/DTD/svg11.dtd">
<!-- Generated by graphviz version 2.38.0 (20140413.2041)
 -->
<!-- Title: src/Entite.h Pages: 1 -->
<svg width="2155pt" height="487pt"
 viewBox="0.00 0.00 2155.40 487.00" xmlns="http://www.w3.org/2000/svg" xmlns:xlink="http://www.w3.org/1999/xlink">
<g id="graph0" class="graph" transform="scale(1 1) rotate(0) translate(4 483)">
<title>src/Entite.h</title>
<polygon fill="white" stroke="none" points="-4,4 -4,-483 2151.4,-483 2151.4,4 -4,4"/>
<!-- Node6 -->
<g id="node1" class="node"><title>Node6</title>
<polygon fill="#bfbfbf" stroke="black" points="1749.5,-459.5 1749.5,-478.5 1816.5,-478.5 1816.5,-459.5 1749.5,-459.5"/>
<text text-anchor="middle" x="1783" y="-466.5" font-family="Helvetica,sans-Serif" font-size="10.00">src/Entite.h</text>
</g>
<!-- Node7 -->
<g id="node2" class="node"><title>Node7</title>
<g id="a_node2"><a xlink:href="_projectile_8h.html" target="_top" xlink:title="src/Projectiles/Projectile.h">
<polygon fill="white" stroke="black" points="1071.5,-403.5 1071.5,-422.5 1202.5,-422.5 1202.5,-403.5 1071.5,-403.5"/>
<text text-anchor="middle" x="1137" y="-410.5" font-family="Helvetica,sans-Serif" font-size="10.00">src/Projectiles/Projectile.h</text>
</a>
</g>
</g>
<!-- Node6&#45;&gt;Node7 -->
<g id="edge1" class="edge"><title>Node6&#45;&gt;Node7</title>
<path fill="none" stroke="midnightblue" d="M1738.99,-464.321C1627.68,-455.016 1334.48,-430.508 1202.74,-419.496"/>
<polygon fill="midnightblue" stroke="midnightblue" points="1738.92,-467.827 1749.18,-465.173 1739.5,-460.852 1738.92,-467.827"/>
</g>
<!-- Node8 -->
<g id="node3" class="node"><title>Node8</title>
<g id="a_node3"><a xlink:href="_capacite_8h.html" target="_top" xlink:title="src/Capacites/Capacite.h">
<polygon fill="white" stroke="black" points="849,-347.5 849,-366.5 977,-366.5 977,-347.5 849,-347.5"/>
<text text-anchor="middle" x="913" y="-354.5" font-family="Helvetica,sans-Serif" font-size="10.00">src/Capacites/Capacite.h</text>
</a>
</g>
</g>
<!-- Node6&#45;&gt;Node8 -->
<g id="edge73" class="edge"><title>Node6&#45;&gt;Node8</title>
<path fill="none" stroke="midnightblue" d="M1739.24,-467.26C1603.62,-464.652 1191.66,-454.297 1062,-423 1010.42,-410.551 954.243,-381.331 928.037,-366.687"/>
<polygon fill="midnightblue" stroke="midnightblue" points="1739.2,-470.759 1749.27,-467.448 1739.34,-463.761 1739.2,-470.759"/>
</g>
<!-- Node20 -->
<g id="node15" class="node"><title>Node20</title>
<g id="a_node15"><a xlink:href="_cap_dash_8h.html" target="_top" xlink:title="src/Capacites/CapDash.h">
<polygon fill="white" stroke="black" points="173,-291.5 173,-310.5 303,-310.5 303,-291.5 173,-291.5"/>
<text text-anchor="middle" x="238" y="-298.5" font-family="Helvetica,sans-Serif" font-size="10.00">src/Capacites/CapDash.h</text>
</a>
</g>
</g>
<!-- Node6&#45;&gt;Node20 -->
<g id="edge74" class="edge"><title>Node6&#45;&gt;Node20</title>
<path fill="none" stroke="midnightblue" d="M1738.94,-468.242C1571.51,-468.403 959.323,-462.052 467,-367 391.322,-352.389 304.371,-324.569 262.737,-310.54"/>
<polygon fill="midnightblue" stroke="midnightblue" points="1739.33,-471.742 1749.32,-468.223 1739.32,-464.742 1739.33,-471.742"/>
</g>
<!-- Node27 -->
<g id="node22" class="node"><title>Node27</title>
<g id="a_node22"><a xlink:href="_vaisseau_8h.html" target="_top" xlink:title="src/Vaisseau/Vaisseau.h">
<polygon fill="white" stroke="black" points="1035.5,-291.5 1035.5,-310.5 1160.5,-310.5 1160.5,-291.5 1035.5,-291.5"/>
<text text-anchor="middle" x="1098" y="-298.5" font-family="Helvetica,sans-Serif" font-size="10.00">src/Vaisseau/Vaisseau.h</text>
</a>
</g>
</g>
<!-- Node6&#45;&gt;Node27 -->
<g id="edge75" class="edge"><title>Node6&#45;&gt;Node27</title>
<path fill="none" stroke="midnightblue" d="M1751.73,-455.8C1688.41,-431.546 1540.03,-377.025 1411,-347 1325.31,-327.061 1224.25,-314.451 1160.64,-307.808"/>
<polygon fill="midnightblue" stroke="midnightblue" points="1750.56,-459.099 1761.15,-459.425 1753.08,-452.566 1750.56,-459.099"/>
</g>
<!-- Node29 -->
<g id="node24" class="node"><title>Node29</title>
<g id="a_node24"><a xlink:href="main_8cpp.html" target="_top" xlink:title="src/main.cpp">
<polygon fill="white" stroke="black" points="1912.5,-174 1912.5,-193 1985.5,-193 1985.5,-174 1912.5,-174"/>
<text text-anchor="middle" x="1949" y="-181" font-family="Helvetica,sans-Serif" font-size="10.00">src/main.cpp</text>
</a>
</g>
</g>
<!-- Node6&#45;&gt;Node29 -->
<g id="edge80" class="edge"><title>Node6&#45;&gt;Node29</title>
<path fill="none" stroke="midnightblue" d="M1826.64,-464.091C1923.3,-454.227 2147,-424.244 2147,-358 2147,-358 2147,-358 2147,-300 2147,-269.775 2148.61,-256.136 2127,-235 2089,-197.825 2025.74,-187.61 1985.76,-185.034"/>
<polygon fill="midnightblue" stroke="midnightblue" points="1826.2,-460.617 1816.59,-465.09 1826.89,-467.583 1826.2,-460.617"/>
</g>
<!-- Node45 -->
<g id="node40" class="node"><title>Node45</title>
<g id="a_node40"><a xlink:href="_entite_8cpp.html" target="_top" xlink:title="src/Entite.cpp">
<polygon fill="white" stroke="black" points="1959.5,-403.5 1959.5,-422.5 2036.5,-422.5 2036.5,-403.5 1959.5,-403.5"/>
<text text-anchor="middle" x="1998" y="-410.5" font-family="Helvetica,sans-Serif" font-size="10.00">src/Entite.cpp</text>
</a>
</g>
</g>
<!-- Node6&#45;&gt;Node45 -->
<g id="edge76" class="edge"><title>Node6&#45;&gt;Node45</title>
<path fill="none" stroke="midnightblue" d="M1826.47,-457.082C1867.03,-446.895 1926.72,-431.902 1963.93,-422.556"/>
<polygon fill="midnightblue" stroke="midnightblue" points="1825.44,-453.732 1816.59,-459.562 1827.15,-460.521 1825.44,-453.732"/>
</g>
<!-- Node46 -->
<g id="node41" class="node"><title>Node46</title>
<g id="a_node41"><a xlink:href="_overlay_8h.html" target="_top" xlink:title="src/Interface/Overlay.h">
<polygon fill="white" stroke="black" points="1825,-403.5 1825,-422.5 1941,-422.5 1941,-403.5 1825,-403.5"/>
<text text-anchor="middle" x="1883" y="-410.5" font-family="Helvetica,sans-Serif" font-size="10.00">src/Interface/Overlay.h</text>
</a>
</g>
</g>
<!-- Node6&#45;&gt;Node46 -->
<g id="edge77" class="edge"><title>Node6&#45;&gt;Node46</title>
<path fill="none" stroke="midnightblue" d="M1808.09,-454.453C1826.55,-444.483 1851.1,-431.228 1866.97,-422.655"/>
<polygon fill="midnightblue" stroke="midnightblue" points="1806.2,-451.493 1799.07,-459.324 1809.53,-457.652 1806.2,-451.493"/>
</g>
<!-- Node7&#45;&gt;Node8 -->
<g id="edge2" class="edge"><title>Node7&#45;&gt;Node8</title>
<path fill="none" stroke="midnightblue" d="M1091.74,-401.088C1049.42,-390.887 987.091,-375.861 948.327,-366.516"/>
<polygon fill="midnightblue" stroke="midnightblue" points="1090.96,-404.502 1101.51,-403.444 1092.61,-397.697 1090.96,-404.502"/>
</g>
<!-- Node9 -->
<g id="node4" class="node"><title>Node9</title>
<g id="a_node4"><a xlink:href="_cap_test_8h.html" target="_top" xlink:title="src/Capacites/CapTest.h">
<polygon fill="white" stroke="black" points="477,-291.5 477,-310.5 603,-310.5 603,-291.5 477,-291.5"/>
<text text-anchor="middle" x="540" y="-298.5" font-family="Helvetica,sans-Serif" font-size="10.00">src/Capacites/CapTest.h</text>
</a>
</g>
</g>
<!-- Node7&#45;&gt;Node9 -->
<g id="edge51" class="edge"><title>Node7&#45;&gt;Node9</title>
<path fill="none" stroke="midnightblue" d="M1061.23,-405.593C988.427,-398.704 875.546,-386.098 779,-367 700.751,-351.521 610.413,-324.346 566.591,-310.552"/>
<polygon fill="midnightblue" stroke="midnightblue" points="1060.95,-409.082 1071.23,-406.527 1061.6,-402.112 1060.95,-409.082"/>
</g>
<!-- Node18 -->
<g id="node13" class="node"><title>Node18</title>
<g id="a_node13"><a xlink:href="_cap_piou_8h.html" target="_top" xlink:title="src/Capacites/CapPiou.h">
<polygon fill="white" stroke="black" points="621,-291.5 621,-310.5 747,-310.5 747,-291.5 621,-291.5"/>
<text text-anchor="middle" x="684" y="-298.5" font-family="Helvetica,sans-Serif" font-size="10.00">src/Capacites/CapPiou.h</text>
</a>
</g>
</g>
<!-- Node7&#45;&gt;Node18 -->
<g id="edge59" class="edge"><title>Node7&#45;&gt;Node18</title>
<path fill="none" stroke="midnightblue" d="M1061.18,-405.667C1000.52,-399.374 913.711,-387.605 840,-367 787.442,-352.308 728.906,-324.652 700.824,-310.627"/>
<polygon fill="midnightblue" stroke="midnightblue" points="1061.14,-409.18 1071.44,-406.705 1061.84,-402.216 1061.14,-409.18"/>
</g>
<!-- Node26 -->
<g id="node21" class="node"><title>Node26</title>
<g id="a_node21"><a xlink:href="_capacite_8cpp.html" target="_top" xlink:title="src/Capacites/Capacite.cpp">
<polygon fill="white" stroke="black" points="830,-235.5 830,-254.5 968,-254.5 968,-235.5 830,-235.5"/>
<text text-anchor="middle" x="899" y="-242.5" font-family="Helvetica,sans-Serif" font-size="10.00">src/Capacites/Capacite.cpp</text>
</a>
</g>
</g>
<!-- Node7&#45;&gt;Node26 -->
<g id="edge69" class="edge"><title>Node7&#45;&gt;Node26</title>
<path fill="none" stroke="midnightblue" d="M1119.97,-396.297C1093.05,-371.935 1038.41,-324.369 987,-291 964.547,-276.426 936.781,-262.903 918.515,-254.563"/>
<polygon fill="midnightblue" stroke="midnightblue" points="1117.95,-399.193 1127.7,-403.344 1122.67,-394.02 1117.95,-399.193"/>
</g>
<!-- Node7&#45;&gt;Node27 -->
<g id="edge68" class="edge"><title>Node7&#45;&gt;Node27</title>
<path fill="none" stroke="midnightblue" d="M1124.26,-395.047C1118.76,-386.946 1112.74,-376.878 1109,-367 1101.7,-347.735 1099.23,-323.426 1098.4,-310.691"/>
<polygon fill="midnightblue" stroke="midnightblue" points="1121.44,-397.129 1130.1,-403.242 1127.14,-393.067 1121.44,-397.129"/>
</g>
<!-- Node28 -->
<g id="node23" class="node"><title>Node28</title>
<g id="a_node23"><a xlink:href="_partie_8h.html" target="_top" xlink:title="src/Partie.h">
<polygon fill="white" stroke="black" points="1853.5,-235.5 1853.5,-254.5 1920.5,-254.5 1920.5,-235.5 1853.5,-235.5"/>
<text text-anchor="middle" x="1887" y="-242.5" font-family="Helvetica,sans-Serif" font-size="10.00">src/Partie.h</text>
</a>
</g>
</g>
<!-- Node7&#45;&gt;Node28 -->
<g id="edge70" class="edge"><title>Node7&#45;&gt;Node28</title>
<path fill="none" stroke="midnightblue" d="M1212.89,-410.161C1343.28,-406.282 1604.21,-395.178 1691,-367 1769.73,-341.439 1849.29,-278.102 1876.86,-254.793"/>
<polygon fill="midnightblue" stroke="midnightblue" points="1212.48,-406.671 1202.59,-410.46 1212.69,-413.668 1212.48,-406.671"/>
</g>
<!-- Node36 -->
<g id="node31" class="node"><title>Node36</title>
<g id="a_node31"><a xlink:href="_projectile_8cpp.html" target="_top" xlink:title="src/Projectiles/Projectile.cpp">
<polygon fill="white" stroke="black" points="1977.5,-235.5 1977.5,-254.5 2118.5,-254.5 2118.5,-235.5 1977.5,-235.5"/>
<text text-anchor="middle" x="2048" y="-242.5" font-family="Helvetica,sans-Serif" font-size="10.00">src/Projectiles/Projectile.cpp</text>
</a>
</g>
</g>
<!-- Node7&#45;&gt;Node36 -->
<g id="edge71" class="edge"><title>Node7&#45;&gt;Node36</title>
<path fill="none" stroke="midnightblue" d="M1213.09,-408.908C1349.87,-402.901 1632,-388.342 1728,-367 1848.31,-340.255 1983.82,-277.371 2030.85,-254.504"/>
<polygon fill="midnightblue" stroke="midnightblue" points="1212.54,-405.429 1202.7,-409.36 1212.84,-412.422 1212.54,-405.429"/>
</g>
<!-- Node37 -->
<g id="node32" class="node"><title>Node37</title>
<g id="a_node32"><a xlink:href="_vaisseau_8cpp.html" target="_top" xlink:title="src/Vaisseau/Vaisseau.cpp">
<polygon fill="white" stroke="black" points="1699,-235.5 1699,-254.5 1835,-254.5 1835,-235.5 1699,-235.5"/>
<text text-anchor="middle" x="1767" y="-242.5" font-family="Helvetica,sans-Serif" font-size="10.00">src/Vaisseau/Vaisseau.cpp</text>
</a>
</g>
</g>
<!-- Node7&#45;&gt;Node37 -->
<g id="edge72" class="edge"><title>Node7&#45;&gt;Node37</title>
<path fill="none" stroke="midnightblue" d="M1212.62,-411.236C1363.16,-407.973 1692.1,-391.567 1764,-311 1777.84,-295.491 1773.33,-268.697 1769.71,-254.852"/>
<polygon fill="midnightblue" stroke="midnightblue" points="1212.45,-407.738 1202.53,-411.44 1212.59,-414.737 1212.45,-407.738"/>
</g>
<!-- Node38 -->
<g id="node33" class="node"><title>Node38</title>
<g id="a_node33"><a xlink:href="_proj_test_8h.html" target="_top" xlink:title="src/Projectiles/ProjTest.h">
<polygon fill="white" stroke="black" points="476.5,-347.5 476.5,-366.5 603.5,-366.5 603.5,-347.5 476.5,-347.5"/>
<text text-anchor="middle" x="540" y="-354.5" font-family="Helvetica,sans-Serif" font-size="10.00">src/Projectiles/ProjTest.h</text>
</a>
</g>
</g>
<!-- Node7&#45;&gt;Node38 -->
<g id="edge52" class="edge"><title>Node7&#45;&gt;Node38</title>
<path fill="none" stroke="midnightblue" d="M1061.31,-405.154C942.622,-394.418 714.852,-373.816 603.897,-363.78"/>
<polygon fill="midnightblue" stroke="midnightblue" points="1061.13,-408.651 1071.4,-406.067 1061.76,-401.68 1061.13,-408.651"/>
</g>
<!-- Node41 -->
<g id="node36" class="node"><title>Node41</title>
<g id="a_node36"><a xlink:href="_proj_piou_8h.html" target="_top" xlink:title="src/Projectiles/ProjPiou.h">
<polygon fill="white" stroke="black" points="1118.5,-347.5 1118.5,-366.5 1245.5,-366.5 1245.5,-347.5 1118.5,-347.5"/>
<text text-anchor="middle" x="1182" y="-354.5" font-family="Helvetica,sans-Serif" font-size="10.00">src/Projectiles/ProjPiou.h</text>
</a>
</g>
</g>
<!-- Node7&#45;&gt;Node41 -->
<g id="edge60" class="edge"><title>Node7&#45;&gt;Node41</title>
<path fill="none" stroke="midnightblue" d="M1151.05,-395.144C1158.89,-385.736 1168.33,-374.405 1174.71,-366.751"/>
<polygon fill="midnightblue" stroke="midnightblue" points="1148.14,-393.16 1144.43,-403.083 1153.52,-397.641 1148.14,-393.16"/>
</g>
<!-- Node43 -->
<g id="node38" class="node"><title>Node43</title>
<g id="a_node38"><a xlink:href="_proj_missile_8h.html" target="_top" xlink:title="src/Projectiles/ProjMissile.h">
<polygon fill="white" stroke="black" points="1264,-347.5 1264,-366.5 1402,-366.5 1402,-347.5 1264,-347.5"/>
<text text-anchor="middle" x="1333" y="-354.5" font-family="Helvetica,sans-Serif" font-size="10.00">src/Projectiles/ProjMissile.h</text>
</a>
</g>
</g>
<!-- Node7&#45;&gt;Node43 -->
<g id="edge64" class="edge"><title>Node7&#45;&gt;Node43</title>
<path fill="none" stroke="midnightblue" d="M1178.02,-400.699C1215.01,-390.507 1268.6,-375.743 1302.09,-366.516"/>
<polygon fill="midnightblue" stroke="midnightblue" points="1176.77,-397.413 1168.06,-403.444 1178.63,-404.162 1176.77,-397.413"/>
</g>
<!-- Node8&#45;&gt;Node9 -->
<g id="edge3" class="edge"><title>Node8&#45;&gt;Node9</title>
<path fill="none" stroke="midnightblue" d="M843.784,-345.979C773.326,-335.779 665.281,-320.137 598.826,-310.516"/>
<polygon fill="midnightblue" stroke="midnightblue" points="843.499,-349.475 853.897,-347.444 844.502,-342.547 843.499,-349.475"/>
</g>
<!-- Node12 -->
<g id="node7" class="node"><title>Node12</title>
<g id="a_node7"><a xlink:href="_vaisseau_test_8h.html" target="_top" xlink:title="src/Vaisseau/VaisseauTest.h">
<polygon fill="white" stroke="black" points="650.5,-174 650.5,-193 795.5,-193 795.5,-174 650.5,-174"/>
<text text-anchor="middle" x="723" y="-181" font-family="Helvetica,sans-Serif" font-size="10.00">src/Vaisseau/VaisseauTest.h</text>
</a>
</g>
</g>
<!-- Node8&#45;&gt;Node12 -->
<g id="edge48" class="edge"><title>Node8&#45;&gt;Node12</title>
<path fill="none" stroke="midnightblue" d="M883.849,-343.417C852.459,-329.989 800.965,-308.309 756,-291 711.526,-273.88 682.464,-293.945 655,-255 637.458,-230.124 677.693,-205.568 703.484,-193.046"/>
<polygon fill="midnightblue" stroke="midnightblue" points="882.731,-346.746 893.301,-347.471 885.49,-340.313 882.731,-346.746"/>
</g>
<!-- Node8&#45;&gt;Node18 -->
<g id="edge14" class="edge"><title>Node8&#45;&gt;Node18</title>
<path fill="none" stroke="midnightblue" d="M866.727,-345.088C823.463,-334.887 759.745,-319.861 720.116,-310.516"/>
<polygon fill="midnightblue" stroke="midnightblue" points="866.178,-348.555 876.714,-347.444 867.785,-341.742 866.178,-348.555"/>
</g>
<!-- Node8&#45;&gt;Node20 -->
<g id="edge17" class="edge"><title>Node8&#45;&gt;Node20</title>
<path fill="none" stroke="midnightblue" d="M838.556,-351.538C724.897,-344.474 501.336,-329.592 312,-311 309.166,-310.722 306.273,-310.425 303.352,-310.115"/>
<polygon fill="midnightblue" stroke="midnightblue" points="838.677,-355.052 848.875,-352.177 839.11,-348.066 838.677,-355.052"/>
</g>
<!-- Node22 -->
<g id="node17" class="node"><title>Node22</title>
<g id="a_node17"><a xlink:href="_cap_missile_8h.html" target="_top" xlink:title="src/Capacites/CapMissile.h">
<polygon fill="white" stroke="black" points="841.5,-291.5 841.5,-310.5 978.5,-310.5 978.5,-291.5 841.5,-291.5"/>
<text text-anchor="middle" x="910" y="-298.5" font-family="Helvetica,sans-Serif" font-size="10.00">src/Capacites/CapMissile.h</text>
</a>
</g>
</g>
<!-- Node8&#45;&gt;Node22 -->
<g id="edge21" class="edge"><title>Node8&#45;&gt;Node22</title>
<path fill="none" stroke="midnightblue" d="M911.934,-336.805C911.439,-327.91 910.877,-317.78 910.486,-310.751"/>
<polygon fill="midnightblue" stroke="midnightblue" points="908.455,-337.293 912.505,-347.083 915.444,-336.904 908.455,-337.293"/>
</g>
<!-- Node8&#45;&gt;Node26 -->
<g id="edge27" class="edge"><title>Node8&#45;&gt;Node26</title>
<path fill="none" stroke="midnightblue" d="M872.478,-343.536C856.989,-336.574 840.918,-326.156 832,-311 817.864,-286.975 852.968,-265.892 877.527,-254.642"/>
<polygon fill="midnightblue" stroke="midnightblue" points="871.397,-346.876 881.977,-347.436 874.056,-340.4 871.397,-346.876"/>
</g>
<!-- Node8&#45;&gt;Node27 -->
<g id="edge28" class="edge"><title>Node8&#45;&gt;Node27</title>
<path fill="none" stroke="midnightblue" d="M952.166,-344.568C987.065,-334.381 1037.35,-319.703 1068.82,-310.516"/>
<polygon fill="midnightblue" stroke="midnightblue" points="950.933,-341.282 942.314,-347.444 952.894,-348.001 950.933,-341.282"/>
</g>
<!-- Node8&#45;&gt;Node28 -->
<g id="edge47" class="edge"><title>Node8&#45;&gt;Node28</title>
<path fill="none" stroke="midnightblue" d="M987.312,-350.751C1047.17,-345.056 1132.93,-333.561 1205,-311 1224.35,-304.943 1226.39,-296.153 1246,-291 1503.52,-223.326 1580.1,-290.368 1844,-255 1847.02,-254.595 1850.15,-254.096 1853.28,-253.544"/>
<polygon fill="midnightblue" stroke="midnightblue" points="986.828,-347.281 977.19,-351.682 987.469,-354.251 986.828,-347.281"/>
</g>
<!-- Node8&#45;&gt;Node36 -->
<g id="edge49" class="edge"><title>Node8&#45;&gt;Node36</title>
<path fill="none" stroke="midnightblue" d="M987.171,-352.757C1104.63,-347.023 1327.94,-333.527 1404,-311 1422.3,-305.58 1423.65,-296.231 1442,-291 1659.68,-228.968 1724.4,-273.351 1950,-255 1958.86,-254.28 1968.16,-253.481 1977.36,-252.665"/>
<polygon fill="midnightblue" stroke="midnightblue" points="986.997,-349.261 977.177,-353.238 987.334,-356.253 986.997,-349.261"/>
</g>
<!-- Node8&#45;&gt;Node37 -->
<g id="edge50" class="edge"><title>Node8&#45;&gt;Node37</title>
<path fill="none" stroke="midnightblue" d="M987.274,-347.984C1039.01,-341.185 1109.19,-329.522 1169,-311 1189.52,-304.645 1192.19,-296.343 1213,-291 1416.77,-238.669 1475.52,-274.479 1685,-255 1689.42,-254.589 1693.97,-254.145 1698.56,-253.683"/>
<polygon fill="midnightblue" stroke="midnightblue" points="986.654,-344.535 977.181,-349.279 987.545,-351.478 986.654,-344.535"/>
</g>
<!-- Node10 -->
<g id="node5" class="node"><title>Node10</title>
<g id="a_node5"><a xlink:href="___capacites_8h.html" target="_top" xlink:title="src/Capacites/_Capacites.h">
<polygon fill="white" stroke="black" points="314,-235.5 314,-254.5 452,-254.5 452,-235.5 314,-235.5"/>
<text text-anchor="middle" x="383" y="-242.5" font-family="Helvetica,sans-Serif" font-size="10.00">src/Capacites/_Capacites.h</text>
</a>
</g>
</g>
<!-- Node9&#45;&gt;Node10 -->
<g id="edge4" class="edge"><title>Node9&#45;&gt;Node10</title>
<path fill="none" stroke="midnightblue" d="M505.611,-288.172C476.048,-278.004 434.127,-263.585 407.761,-254.516"/>
<polygon fill="midnightblue" stroke="midnightblue" points="504.528,-291.501 515.123,-291.444 506.805,-284.881 504.528,-291.501"/>
</g>
<!-- Node17 -->
<g id="node12" class="node"><title>Node17</title>
<g id="a_node12"><a xlink:href="_cap_test_8cpp.html" target="_top" xlink:title="src/Capacites/CapTest.cpp">
<polygon fill="white" stroke="black" points="158.5,-235.5 158.5,-254.5 295.5,-254.5 295.5,-235.5 158.5,-235.5"/>
<text text-anchor="middle" x="227" y="-242.5" font-family="Helvetica,sans-Serif" font-size="10.00">src/Capacites/CapTest.cpp</text>
</a>
</g>
</g>
<!-- Node9&#45;&gt;Node17 -->
<g id="edge13" class="edge"><title>Node9&#45;&gt;Node17</title>
<path fill="none" stroke="midnightblue" d="M480.458,-289.727C421.309,-279.523 331.671,-264.058 276.364,-254.516"/>
<polygon fill="midnightblue" stroke="midnightblue" points="479.955,-293.192 490.404,-291.444 481.145,-286.294 479.955,-293.192"/>
</g>
<!-- Node11 -->
<g id="node6" class="node"><title>Node11</title>
<g id="a_node6"><a xlink:href="_partie_8cpp.html" target="_top" xlink:title="src/Partie.cpp">
<polygon fill="white" stroke="black" points="1182.5,-0.5 1182.5,-19.5 1259.5,-19.5 1259.5,-0.5 1182.5,-0.5"/>
<text text-anchor="middle" x="1221" y="-7.5" font-family="Helvetica,sans-Serif" font-size="10.00">src/Partie.cpp</text>
</a>
</g>
</g>
<!-- Node10&#45;&gt;Node11 -->
<g id="edge5" class="edge"><title>Node10&#45;&gt;Node11</title>
<path fill="none" stroke="midnightblue" d="M404.414,-229.871C446.766,-202.612 545.023,-142.748 636,-112 834.696,-44.845 1087.16,-20.634 1182.35,-13.528"/>
<polygon fill="midnightblue" stroke="midnightblue" points="402.272,-227.088 395.791,-235.469 406.084,-232.959 402.272,-227.088"/>
</g>
<!-- Node10&#45;&gt;Node12 -->
<g id="edge6" class="edge"><title>Node10&#45;&gt;Node12</title>
<path fill="none" stroke="midnightblue" d="M441.925,-233.688C507.743,-222.17 613.068,-203.738 674.377,-193.009"/>
<polygon fill="midnightblue" stroke="midnightblue" points="440.961,-230.304 431.714,-235.475 442.167,-237.199 440.961,-230.304"/>
</g>
<!-- Node13 -->
<g id="node8" class="node"><title>Node13</title>
<g id="a_node8"><a xlink:href="__vaisseaux_8h.html" target="_top" xlink:title="src/Vaisseau/_vaisseaux.h">
<polygon fill="white" stroke="black" points="1203,-112.5 1203,-131.5 1337,-131.5 1337,-112.5 1203,-112.5"/>
<text text-anchor="middle" x="1270" y="-119.5" font-family="Helvetica,sans-Serif" font-size="10.00">src/Vaisseau/_vaisseaux.h</text>
</a>
</g>
</g>
<!-- Node12&#45;&gt;Node13 -->
<g id="edge7" class="edge"><title>Node12&#45;&gt;Node13</title>
<path fill="none" stroke="midnightblue" d="M805.882,-173.484C914.374,-161.683 1102.47,-141.223 1202.65,-130.326"/>
<polygon fill="midnightblue" stroke="midnightblue" points="805.2,-170.038 795.637,-174.599 805.957,-176.997 805.2,-170.038"/>
</g>
<!-- Node16 -->
<g id="node11" class="node"><title>Node16</title>
<g id="a_node11"><a xlink:href="_vaisseau_test_8cpp.html" target="_top" xlink:title="src/Vaisseau/VaisseauTest.cpp">
<polygon fill="white" stroke="black" points="645.5,-112.5 645.5,-131.5 800.5,-131.5 800.5,-112.5 645.5,-112.5"/>
<text text-anchor="middle" x="723" y="-119.5" font-family="Helvetica,sans-Serif" font-size="10.00">src/Vaisseau/VaisseauTest.cpp</text>
</a>
</g>
</g>
<!-- Node12&#45;&gt;Node16 -->
<g id="edge12" class="edge"><title>Node12&#45;&gt;Node16</title>
<path fill="none" stroke="midnightblue" d="M723,-163.817C723,-152.996 723,-139.898 723,-131.509"/>
<polygon fill="midnightblue" stroke="midnightblue" points="719.5,-163.975 723,-173.975 726.5,-163.975 719.5,-163.975"/>
</g>
<!-- Node13&#45;&gt;Node11 -->
<g id="edge8" class="edge"><title>Node13&#45;&gt;Node11</title>
<path fill="none" stroke="midnightblue" d="M1261.98,-102.998C1251.29,-78.9968 1232.79,-37.4683 1224.83,-19.5914"/>
<polygon fill="midnightblue" stroke="midnightblue" points="1258.89,-104.658 1266.16,-112.368 1265.28,-101.81 1258.89,-104.658"/>
</g>
<!-- Node14 -->
<g id="node9" class="node"><title>Node14</title>
<g id="a_node9"><a xlink:href="vague_8h.html" target="_top" xlink:title="src/vague.h">
<polygon fill="white" stroke="black" points="1275,-56.5 1275,-75.5 1343,-75.5 1343,-56.5 1275,-56.5"/>
<text text-anchor="middle" x="1309" y="-63.5" font-family="Helvetica,sans-Serif" font-size="10.00">src/vague.h</text>
</a>
</g>
</g>
<!-- Node13&#45;&gt;Node14 -->
<g id="edge9" class="edge"><title>Node13&#45;&gt;Node14</title>
<path fill="none" stroke="midnightblue" d="M1282.38,-103.855C1289.14,-94.5048 1297.21,-83.3265 1302.68,-75.7511"/>
<polygon fill="midnightblue" stroke="midnightblue" points="1279.46,-101.927 1276.44,-112.083 1285.13,-106.025 1279.46,-101.927"/>
</g>
<!-- Node14&#45;&gt;Node11 -->
<g id="edge10" class="edge"><title>Node14&#45;&gt;Node11</title>
<path fill="none" stroke="midnightblue" d="M1286.02,-50.9005C1269.89,-40.9986 1248.82,-28.0705 1235.1,-19.6545"/>
<polygon fill="midnightblue" stroke="midnightblue" points="1284.51,-54.0769 1294.86,-56.324 1288.17,-48.1106 1284.51,-54.0769"/>
</g>
<!-- Node15 -->
<g id="node10" class="node"><title>Node15</title>
<g id="a_node10"><a xlink:href="vague_8cpp.html" target="_top" xlink:title="src/vague.cpp">
<polygon fill="white" stroke="black" points="1278,-0.5 1278,-19.5 1356,-19.5 1356,-0.5 1278,-0.5"/>
<text text-anchor="middle" x="1317" y="-7.5" font-family="Helvetica,sans-Serif" font-size="10.00">src/vague.cpp</text>
</a>
</g>
</g>
<!-- Node14&#45;&gt;Node15 -->
<g id="edge11" class="edge"><title>Node14&#45;&gt;Node15</title>
<path fill="none" stroke="midnightblue" d="M1311.8,-46.1005C1313.13,-37.1357 1314.65,-26.8579 1315.7,-19.7511"/>
<polygon fill="midnightblue" stroke="midnightblue" points="1308.32,-45.678 1310.32,-56.083 1315.25,-46.7039 1308.32,-45.678"/>
</g>
<!-- Node18&#45;&gt;Node10 -->
<g id="edge15" class="edge"><title>Node18&#45;&gt;Node10</title>
<path fill="none" stroke="midnightblue" d="M626.387,-289.664C569.504,-279.459 483.548,-264.039 430.471,-254.516"/>
<polygon fill="midnightblue" stroke="midnightblue" points="625.845,-293.123 636.306,-291.444 627.081,-286.233 625.845,-293.123"/>
</g>
<!-- Node19 -->
<g id="node14" class="node"><title>Node19</title>
<g id="a_node14"><a xlink:href="_cap_piou_8cpp.html" target="_top" xlink:title="src/Capacites/CapPiou.cpp">
<polygon fill="white" stroke="black" points="470.5,-235.5 470.5,-254.5 607.5,-254.5 607.5,-235.5 470.5,-235.5"/>
<text text-anchor="middle" x="539" y="-242.5" font-family="Helvetica,sans-Serif" font-size="10.00">src/Capacites/CapPiou.cpp</text>
</a>
</g>
</g>
<!-- Node18&#45;&gt;Node19 -->
<g id="edge16" class="edge"><title>Node18&#45;&gt;Node19</title>
<path fill="none" stroke="midnightblue" d="M651.525,-287.906C624.264,-277.754 586.008,-263.506 561.868,-254.516"/>
<polygon fill="midnightblue" stroke="midnightblue" points="650.432,-291.233 661.024,-291.444 652.875,-284.674 650.432,-291.233"/>
</g>
<!-- Node20&#45;&gt;Node10 -->
<g id="edge18" class="edge"><title>Node20&#45;&gt;Node10</title>
<path fill="none" stroke="midnightblue" d="M270.475,-287.906C297.736,-277.754 335.992,-263.506 360.132,-254.516"/>
<polygon fill="midnightblue" stroke="midnightblue" points="269.125,-284.674 260.976,-291.444 271.568,-291.233 269.125,-284.674"/>
</g>
<!-- Node20&#45;&gt;Node17 -->
<g id="edge20" class="edge"><title>Node20&#45;&gt;Node17</title>
<path fill="none" stroke="midnightblue" d="M234.15,-281.101C232.324,-272.136 230.23,-261.858 228.783,-254.751"/>
<polygon fill="midnightblue" stroke="midnightblue" points="230.758,-281.983 236.184,-291.083 237.617,-280.586 230.758,-281.983"/>
</g>
<!-- Node21 -->
<g id="node16" class="node"><title>Node21</title>
<g id="a_node16"><a xlink:href="_cap_dash_8cpp.html" target="_top" xlink:title="src/Capacites/CapDash.cpp">
<polygon fill="white" stroke="black" points="0,-235.5 0,-254.5 140,-254.5 140,-235.5 0,-235.5"/>
<text text-anchor="middle" x="70" y="-242.5" font-family="Helvetica,sans-Serif" font-size="10.00">src/Capacites/CapDash.cpp</text>
</a>
</g>
</g>
<!-- Node20&#45;&gt;Node21 -->
<g id="edge19" class="edge"><title>Node20&#45;&gt;Node21</title>
<path fill="none" stroke="midnightblue" d="M201.614,-288.304C169.958,-278.129 124.832,-263.625 96.4956,-254.516"/>
<polygon fill="midnightblue" stroke="midnightblue" points="200.789,-291.715 211.38,-291.444 202.931,-285.051 200.789,-291.715"/>
</g>
<!-- Node22&#45;&gt;Node10 -->
<g id="edge22" class="edge"><title>Node22&#45;&gt;Node10</title>
<path fill="none" stroke="midnightblue" d="M831.028,-292.446C741.32,-283.782 590.563,-268.967 461,-255 458.154,-254.693 455.25,-254.376 452.316,-254.053"/>
<polygon fill="midnightblue" stroke="midnightblue" points="830.833,-295.944 841.123,-293.42 831.505,-288.976 830.833,-295.944"/>
</g>
<!-- Node23 -->
<g id="node18" class="node"><title>Node23</title>
<g id="a_node18"><a xlink:href="_cap_missile_8cpp.html" target="_top" xlink:title="src/Capacites/CapMissile.cpp">
<polygon fill="white" stroke="black" points="664,-235.5 664,-254.5 812,-254.5 812,-235.5 664,-235.5"/>
<text text-anchor="middle" x="738" y="-242.5" font-family="Helvetica,sans-Serif" font-size="10.00">src/Capacites/CapMissile.cpp</text>
</a>
</g>
</g>
<!-- Node22&#45;&gt;Node23 -->
<g id="edge23" class="edge"><title>Node22&#45;&gt;Node23</title>
<path fill="none" stroke="midnightblue" d="M873.168,-288.436C840.738,-278.255 794.263,-263.664 765.126,-254.516"/>
<polygon fill="midnightblue" stroke="midnightblue" points="872.157,-291.787 882.746,-291.444 874.254,-285.109 872.157,-291.787"/>
</g>
<!-- Node24 -->
<g id="node19" class="node"><title>Node24</title>
<g id="a_node19"><a xlink:href="_vaisseau_attaquant_8h.html" target="_top" xlink:title="src/Vaisseau/VaisseauAttaquant.h">
<polygon fill="white" stroke="black" points="1023.5,-235.5 1023.5,-254.5 1190.5,-254.5 1190.5,-235.5 1023.5,-235.5"/>
<text text-anchor="middle" x="1107" y="-242.5" font-family="Helvetica,sans-Serif" font-size="10.00">src/Vaisseau/VaisseauAttaquant.h</text>
</a>
</g>
</g>
<!-- Node22&#45;&gt;Node24 -->
<g id="edge24" class="edge"><title>Node22&#45;&gt;Node24</title>
<path fill="none" stroke="midnightblue" d="M951.229,-288.699C988.409,-278.507 1042.27,-263.743 1075.93,-254.516"/>
<polygon fill="midnightblue" stroke="midnightblue" points="949.934,-285.424 941.215,-291.444 951.785,-292.175 949.934,-285.424"/>
</g>
<!-- Node24&#45;&gt;Node13 -->
<g id="edge25" class="edge"><title>Node24&#45;&gt;Node13</title>
<path fill="none" stroke="midnightblue" d="M1112.18,-225.495C1117.87,-208.389 1128.57,-183.363 1146,-168 1167.3,-149.224 1197.06,-138.079 1222.09,-131.578"/>
<polygon fill="midnightblue" stroke="midnightblue" points="1108.73,-224.825 1109.16,-235.412 1115.42,-226.87 1108.73,-224.825"/>
</g>
<!-- Node25 -->
<g id="node20" class="node"><title>Node25</title>
<g id="a_node20"><a xlink:href="_vaisseau_attaquant_8cpp.html" target="_top" xlink:title="src/Vaisseau/VaisseauAttaquant.cpp">
<polygon fill="white" stroke="black" points="883,-174 883,-193 1061,-193 1061,-174 883,-174"/>
<text text-anchor="middle" x="972" y="-181" font-family="Helvetica,sans-Serif" font-size="10.00">src/Vaisseau/VaisseauAttaquant.cpp</text>
</a>
</g>
</g>
<!-- Node24&#45;&gt;Node25 -->
<g id="edge26" class="edge"><title>Node24&#45;&gt;Node25</title>
<path fill="none" stroke="midnightblue" d="M1078.25,-231.327C1052.04,-219.776 1014.05,-203.032 991.306,-193.009"/>
<polygon fill="midnightblue" stroke="midnightblue" points="1077.1,-234.645 1087.66,-235.475 1079.92,-228.239 1077.1,-234.645"/>
</g>
<!-- Node27&#45;&gt;Node12 -->
<g id="edge36" class="edge"><title>Node27&#45;&gt;Node12</title>
<path fill="none" stroke="midnightblue" d="M1072.78,-286.521C1056.09,-277.594 1033.73,-265.617 1014,-255 997.539,-246.142 994.586,-241.338 977,-235 917.678,-213.621 847.119,-200.51 795.441,-193.024"/>
<polygon fill="midnightblue" stroke="midnightblue" points="1071.42,-289.762 1081.89,-291.391 1074.72,-283.589 1071.42,-289.762"/>
</g>
<!-- Node27&#45;&gt;Node14 -->
<g id="edge44" class="edge"><title>Node27&#45;&gt;Node14</title>
<path fill="none" stroke="midnightblue" d="M1170.62,-290.462C1376.22,-270.377 1438.02,-312.034 1637,-255 1649.9,-251.303 1737.05,-210.479 1744,-199 1750.65,-188.016 1753.43,-123.366 1743,-112 1716.07,-82.6683 1440.64,-71.163 1343.05,-67.9875"/>
<polygon fill="midnightblue" stroke="midnightblue" points="1169.99,-287.007 1160.4,-291.499 1170.7,-293.971 1169.99,-287.007"/>
</g>
<!-- Node27&#45;&gt;Node24 -->
<g id="edge37" class="edge"><title>Node27&#45;&gt;Node24</title>
<path fill="none" stroke="midnightblue" d="M1101.15,-281.101C1102.64,-272.136 1104.36,-261.858 1105.54,-254.751"/>
<polygon fill="midnightblue" stroke="midnightblue" points="1097.68,-280.644 1099.49,-291.083 1104.58,-281.794 1097.68,-280.644"/>
</g>
<!-- Node27&#45;&gt;Node26 -->
<g id="edge29" class="edge"><title>Node27&#45;&gt;Node26</title>
<path fill="none" stroke="midnightblue" d="M1056.35,-288.699C1018.79,-278.507 964.386,-263.743 930.385,-254.516"/>
<polygon fill="midnightblue" stroke="midnightblue" points="1055.9,-292.202 1066.47,-291.444 1057.73,-285.447 1055.9,-292.202"/>
</g>
<!-- Node27&#45;&gt;Node28 -->
<g id="edge30" class="edge"><title>Node27&#45;&gt;Node28</title>
<path fill="none" stroke="midnightblue" d="M1170.74,-294.074C1184.76,-292.997 1199.33,-291.925 1213,-291 1493.26,-272.041 1565.53,-291.876 1844,-255 1847.02,-254.599 1850.15,-254.104 1853.28,-253.554"/>
<polygon fill="midnightblue" stroke="midnightblue" points="1170.35,-290.593 1160.65,-294.856 1170.89,-297.572 1170.35,-290.593"/>
</g>
<!-- Node30 -->
<g id="node25" class="node"><title>Node30</title>
<g id="a_node25"><a xlink:href="_vaisseau_eclaireur_8h.html" target="_top" xlink:title="src/Vaisseau/VaisseauEclaireur.h">
<polygon fill="white" stroke="black" points="1246,-235.5 1246,-254.5 1410,-254.5 1410,-235.5 1246,-235.5"/>
<text text-anchor="middle" x="1328" y="-242.5" font-family="Helvetica,sans-Serif" font-size="10.00">src/Vaisseau/VaisseauEclaireur.h</text>
</a>
</g>
</g>
<!-- Node27&#45;&gt;Node30 -->
<g id="edge33" class="edge"><title>Node27&#45;&gt;Node30</title>
<path fill="none" stroke="midnightblue" d="M1144.2,-289.153C1187.66,-278.95 1251.84,-263.881 1291.73,-254.516"/>
<polygon fill="midnightblue" stroke="midnightblue" points="1143.38,-285.75 1134.44,-291.444 1144.98,-292.565 1143.38,-285.75"/>
</g>
<!-- Node32 -->
<g id="node27" class="node"><title>Node32</title>
<g id="a_node27"><a xlink:href="_vaisseau_defenseur_8h.html" target="_top" xlink:title="src/Vaisseau/VaisseauDefenseur.h">
<polygon fill="white" stroke="black" points="1565,-174 1565,-193 1735,-193 1735,-174 1565,-174"/>
<text text-anchor="middle" x="1650" y="-181" font-family="Helvetica,sans-Serif" font-size="10.00">src/Vaisseau/VaisseauDefenseur.h</text>
</a>
</g>
</g>
<!-- Node27&#45;&gt;Node32 -->
<g id="edge38" class="edge"><title>Node27&#45;&gt;Node32</title>
<path fill="none" stroke="midnightblue" d="M1170.56,-291.448C1172.05,-291.295 1173.54,-291.146 1175,-291 1272.4,-281.317 1532.68,-309.478 1614,-255 1635.69,-240.467 1645.02,-208.672 1648.38,-193.244"/>
<polygon fill="midnightblue" stroke="midnightblue" points="1170.17,-287.97 1160.6,-292.501 1170.91,-294.931 1170.17,-287.97"/>
</g>
<!-- Node34 -->
<g id="node29" class="node"><title>Node34</title>
<g id="a_node29"><a xlink:href="_vaisseau_defenseur_b_8h.html" target="_top" xlink:title="src/Vaisseau/VaisseauDefenseurB.h">
<polygon fill="white" stroke="black" points="1428.5,-235.5 1428.5,-254.5 1605.5,-254.5 1605.5,-235.5 1428.5,-235.5"/>
<text text-anchor="middle" x="1517" y="-242.5" font-family="Helvetica,sans-Serif" font-size="10.00">src/Vaisseau/VaisseauDefenseurB.h</text>
</a>
</g>
</g>
<!-- Node27&#45;&gt;Node34 -->
<g id="edge41" class="edge"><title>Node27&#45;&gt;Node34</title>
<path fill="none" stroke="midnightblue" d="M1171.07,-290.583C1249.98,-280.413 1374.57,-264.356 1450.72,-254.541"/>
<polygon fill="midnightblue" stroke="midnightblue" points="1170.2,-287.166 1160.73,-291.916 1171.09,-294.109 1170.2,-287.166"/>
</g>
<!-- Node27&#45;&gt;Node36 -->
<g id="edge45" class="edge"><title>Node27&#45;&gt;Node36</title>
<path fill="none" stroke="midnightblue" d="M1170.73,-295.46C1194.7,-293.995 1221.49,-292.391 1246,-291 1549.49,-273.774 1625.65,-274.463 1929,-255 1944.61,-253.998 1961.36,-252.805 1977.23,-251.62"/>
<polygon fill="midnightblue" stroke="midnightblue" points="1170.41,-291.973 1160.65,-296.078 1170.84,-298.96 1170.41,-291.973"/>
</g>
<!-- Node27&#45;&gt;Node37 -->
<g id="edge46" class="edge"><title>Node27&#45;&gt;Node37</title>
<path fill="none" stroke="midnightblue" d="M1170.56,-291.425C1172.05,-291.279 1173.53,-291.137 1175,-291 1401.24,-269.805 1458.69,-275.399 1685,-255 1689.42,-254.601 1693.98,-254.167 1698.56,-253.712"/>
<polygon fill="midnightblue" stroke="midnightblue" points="1170.18,-287.946 1160.59,-292.441 1170.89,-294.91 1170.18,-287.946"/>
</g>
<!-- Node28&#45;&gt;Node11 -->
<g id="edge32" class="edge"><title>Node28&#45;&gt;Node11</title>
<path fill="none" stroke="midnightblue" d="M1875.94,-226.914C1856.34,-198.136 1812.55,-140.364 1760,-112 1760,-112 1383.35,-41.4221 1259.76,-18.2637"/>
<polygon fill="midnightblue" stroke="midnightblue" points="1873.19,-229.093 1881.64,-235.478 1879.02,-225.214 1873.19,-229.093"/>
</g>
<!-- Node28&#45;&gt;Node29 -->
<g id="edge31" class="edge"><title>Node28&#45;&gt;Node29</title>
<path fill="none" stroke="midnightblue" d="M1903.33,-228.325C1915.11,-217.02 1930.56,-202.193 1940.13,-193.009"/>
<polygon fill="midnightblue" stroke="midnightblue" points="1900.67,-226.026 1895.88,-235.475 1905.52,-231.076 1900.67,-226.026"/>
</g>
<!-- Node30&#45;&gt;Node13 -->
<g id="edge34" class="edge"><title>Node30&#45;&gt;Node13</title>
<path fill="none" stroke="midnightblue" d="M1336.09,-226.085C1342.1,-209.956 1347.72,-186.079 1338,-168 1328.62,-150.542 1309.16,-138.72 1293.45,-131.592"/>
<polygon fill="midnightblue" stroke="midnightblue" points="1332.82,-224.847 1332.25,-235.427 1339.29,-227.511 1332.82,-224.847"/>
</g>
<!-- Node31 -->
<g id="node26" class="node"><title>Node31</title>
<g id="a_node26"><a xlink:href="_vaisseau_eclaireur_8cpp.html" target="_top" xlink:title="src/Vaisseau/VaisseauEclaireur.cpp">
<polygon fill="white" stroke="black" points="1155,-174 1155,-193 1329,-193 1329,-174 1155,-174"/>
<text text-anchor="middle" x="1242" y="-181" font-family="Helvetica,sans-Serif" font-size="10.00">src/Vaisseau/VaisseauEclaireur.cpp</text>
</a>
</g>
</g>
<!-- Node30&#45;&gt;Node31 -->
<g id="edge35" class="edge"><title>Node30&#45;&gt;Node31</title>
<path fill="none" stroke="midnightblue" d="M1307.2,-229.613C1290.66,-218.169 1268.08,-202.546 1254.3,-193.009"/>
<polygon fill="midnightblue" stroke="midnightblue" points="1305.46,-232.664 1315.68,-235.475 1309.45,-226.907 1305.46,-232.664"/>
</g>
<!-- Node32&#45;&gt;Node13 -->
<g id="edge39" class="edge"><title>Node32&#45;&gt;Node13</title>
<path fill="none" stroke="midnightblue" d="M1585.5,-172.401C1512.04,-160.898 1393.29,-142.304 1324.34,-131.509"/>
<polygon fill="midnightblue" stroke="midnightblue" points="1585.13,-175.886 1595.56,-173.975 1586.22,-168.97 1585.13,-175.886"/>
</g>
<!-- Node33 -->
<g id="node28" class="node"><title>Node33</title>
<g id="a_node28"><a xlink:href="_vaisseau_defenseur_8cpp.html" target="_top" xlink:title="src/Vaisseau/VaisseauDefenseur.cpp">
<polygon fill="white" stroke="black" points="1553.5,-112.5 1553.5,-131.5 1734.5,-131.5 1734.5,-112.5 1553.5,-112.5"/>
<text text-anchor="middle" x="1644" y="-119.5" font-family="Helvetica,sans-Serif" font-size="10.00">src/Vaisseau/VaisseauDefenseur.cpp</text>
</a>
</g>
</g>
<!-- Node32&#45;&gt;Node33 -->
<g id="edge40" class="edge"><title>Node32&#45;&gt;Node33</title>
<path fill="none" stroke="midnightblue" d="M1648.12,-163.817C1647.02,-152.996 1645.7,-139.898 1644.86,-131.509"/>
<polygon fill="midnightblue" stroke="midnightblue" points="1644.65,-164.377 1649.14,-173.975 1651.62,-163.674 1644.65,-164.377"/>
</g>
<!-- Node34&#45;&gt;Node32 -->
<g id="edge42" class="edge"><title>Node34&#45;&gt;Node32</title>
<path fill="none" stroke="midnightblue" d="M1545.33,-231.327C1571.15,-219.776 1608.58,-203.032 1630.98,-193.009"/>
<polygon fill="midnightblue" stroke="midnightblue" points="1543.75,-228.197 1536.06,-235.475 1546.61,-234.586 1543.75,-228.197"/>
</g>
<!-- Node35 -->
<g id="node30" class="node"><title>Node35</title>
<g id="a_node30"><a xlink:href="_vaisseau_defenseur_b_8cpp.html" target="_top" xlink:title="src/Vaisseau/VaisseauDefenseur\lB.cpp">
<polygon fill="white" stroke="black" points="1385,-168.5 1385,-198.5 1547,-198.5 1547,-168.5 1385,-168.5"/>
<text text-anchor="start" x="1393" y="-186.5" font-family="Helvetica,sans-Serif" font-size="10.00">src/Vaisseau/VaisseauDefenseur</text>
<text text-anchor="middle" x="1466" y="-175.5" font-family="Helvetica,sans-Serif" font-size="10.00">B.cpp</text>
</a>
</g>
</g>
<!-- Node34&#45;&gt;Node35 -->
<g id="edge43" class="edge"><title>Node34&#45;&gt;Node35</title>
<path fill="none" stroke="midnightblue" d="M1503.12,-227.811C1495.27,-218.649 1485.55,-207.303 1478.02,-198.523"/>
<polygon fill="midnightblue" stroke="midnightblue" points="1500.53,-230.16 1509.69,-235.475 1505.84,-225.605 1500.53,-230.16"/>
</g>
<!-- Node38&#45;&gt;Node9 -->
<g id="edge53" class="edge"><title>Node38&#45;&gt;Node9</title>
<path fill="none" stroke="midnightblue" d="M540,-336.805C540,-327.91 540,-317.78 540,-310.751"/>
<polygon fill="midnightblue" stroke="midnightblue" points="536.5,-337.083 540,-347.083 543.5,-337.083 536.5,-337.083"/>
</g>
<!-- Node38&#45;&gt;Node20 -->
<g id="edge54" class="edge"><title>Node38&#45;&gt;Node20</title>
<path fill="none" stroke="midnightblue" d="M482.196,-345.664C425.123,-335.459 338.882,-320.039 285.629,-310.516"/>
<polygon fill="midnightblue" stroke="midnightblue" points="481.687,-349.129 492.147,-347.444 482.919,-342.238 481.687,-349.129"/>
</g>
<!-- Node39 -->
<g id="node34" class="node"><title>Node39</title>
<g id="a_node34"><a xlink:href="__projectiles_8h.html" target="_top" xlink:title="src/Projectiles/_projectiles.h">
<polygon fill="white" stroke="black" points="1255,-291.5 1255,-310.5 1395,-310.5 1395,-291.5 1255,-291.5"/>
<text text-anchor="middle" x="1325" y="-298.5" font-family="Helvetica,sans-Serif" font-size="10.00">src/Projectiles/_projectiles.h</text>
</a>
</g>
</g>
<!-- Node38&#45;&gt;Node39 -->
<g id="edge55" class="edge"><title>Node38&#45;&gt;Node39</title>
<path fill="none" stroke="midnightblue" d="M613.67,-350.932C764.599,-340.55 1107.15,-316.986 1254.95,-306.819"/>
<polygon fill="midnightblue" stroke="midnightblue" points="613.311,-347.449 603.575,-351.627 613.792,-354.432 613.311,-347.449"/>
</g>
<!-- Node40 -->
<g id="node35" class="node"><title>Node40</title>
<g id="a_node35"><a xlink:href="_proj_test_8cpp.html" target="_top" xlink:title="src/Projectiles/ProjTest.cpp">
<polygon fill="white" stroke="black" points="321.5,-291.5 321.5,-310.5 458.5,-310.5 458.5,-291.5 321.5,-291.5"/>
<text text-anchor="middle" x="390" y="-298.5" font-family="Helvetica,sans-Serif" font-size="10.00">src/Projectiles/ProjTest.cpp</text>
</a>
</g>
</g>
<!-- Node38&#45;&gt;Node40 -->
<g id="edge58" class="edge"><title>Node38&#45;&gt;Node40</title>
<path fill="none" stroke="midnightblue" d="M506.775,-344.039C478.552,-333.879 438.738,-319.546 413.657,-310.516"/>
<polygon fill="midnightblue" stroke="midnightblue" points="505.638,-347.349 516.232,-347.444 508.009,-340.763 505.638,-347.349"/>
</g>
<!-- Node39&#45;&gt;Node11 -->
<g id="edge57" class="edge"><title>Node39&#45;&gt;Node11</title>
<path fill="none" stroke="midnightblue" d="M1298.44,-286.943C1250.65,-263.179 1154.35,-213.935 1146,-199 1109.49,-133.66 1185.66,-46.9021 1212.27,-19.6002"/>
<polygon fill="midnightblue" stroke="midnightblue" points="1297.07,-290.169 1307.58,-291.472 1300.17,-283.897 1297.07,-290.169"/>
</g>
<!-- Node39&#45;&gt;Node29 -->
<g id="edge56" class="edge"><title>Node39&#45;&gt;Node29</title>
<path fill="none" stroke="midnightblue" d="M1405.15,-291.345C1406.44,-291.227 1407.73,-291.112 1409,-291 1466.69,-285.914 1884.03,-291.496 1929,-255 1947.77,-239.767 1949.69,-208.311 1949.44,-193.104"/>
<polygon fill="midnightblue" stroke="midnightblue" points="1404.74,-287.868 1395.11,-292.289 1405.39,-294.838 1404.74,-287.868"/>
</g>
<!-- Node41&#45;&gt;Node18 -->
<g id="edge61" class="edge"><title>Node41&#45;&gt;Node18</title>
<path fill="none" stroke="midnightblue" d="M1108.32,-348.011C1010.51,-337.404 839.422,-318.853 747.199,-308.853"/>
<polygon fill="midnightblue" stroke="midnightblue" points="1108.1,-351.508 1118.42,-349.106 1108.86,-344.548 1108.1,-351.508"/>
</g>
<!-- Node41&#45;&gt;Node39 -->
<g id="edge62" class="edge"><title>Node41&#45;&gt;Node39</title>
<path fill="none" stroke="midnightblue" d="M1214.03,-343.906C1240.91,-333.754 1278.64,-319.506 1302.45,-310.516"/>
<polygon fill="midnightblue" stroke="midnightblue" points="1212.78,-340.636 1204.66,-347.444 1215.25,-347.185 1212.78,-340.636"/>
</g>
<!-- Node42 -->
<g id="node37" class="node"><title>Node42</title>
<g id="a_node37"><a xlink:href="_proj_piou_8cpp.html" target="_top" xlink:title="src/Projectiles/ProjPiou.cpp">
<polygon fill="white" stroke="black" points="1451.5,-291.5 1451.5,-310.5 1588.5,-310.5 1588.5,-291.5 1451.5,-291.5"/>
<text text-anchor="middle" x="1520" y="-298.5" font-family="Helvetica,sans-Serif" font-size="10.00">src/Projectiles/ProjPiou.cpp</text>
</a>
</g>
</g>
<!-- Node41&#45;&gt;Node42 -->
<g id="edge63" class="edge"><title>Node41&#45;&gt;Node42</title>
<path fill="none" stroke="midnightblue" d="M1245.51,-345.854C1309.37,-335.651 1406.72,-320.098 1466.69,-310.516"/>
<polygon fill="midnightblue" stroke="midnightblue" points="1244.88,-342.41 1235.56,-347.444 1245.98,-349.322 1244.88,-342.41"/>
</g>
<!-- Node43&#45;&gt;Node22 -->
<g id="edge65" class="edge"><title>Node43&#45;&gt;Node22</title>
<path fill="none" stroke="midnightblue" d="M1255.97,-346.167C1176.11,-335.972 1052.54,-320.196 976.712,-310.516"/>
<polygon fill="midnightblue" stroke="midnightblue" points="1255.61,-349.649 1265.97,-347.444 1256.5,-342.705 1255.61,-349.649"/>
</g>
<!-- Node43&#45;&gt;Node39 -->
<g id="edge66" class="edge"><title>Node43&#45;&gt;Node39</title>
<path fill="none" stroke="midnightblue" d="M1330.2,-337.101C1328.87,-328.136 1327.35,-317.858 1326.3,-310.751"/>
<polygon fill="midnightblue" stroke="midnightblue" points="1326.75,-337.704 1331.68,-347.083 1333.68,-336.678 1326.75,-337.704"/>
</g>
<!-- Node44 -->
<g id="node39" class="node"><title>Node44</title>
<g id="a_node39"><a xlink:href="_proj_missile_8cpp.html" target="_top" xlink:title="src/Projectiles/ProjMissile.cpp">
<polygon fill="white" stroke="black" points="1606.5,-291.5 1606.5,-310.5 1755.5,-310.5 1755.5,-291.5 1606.5,-291.5"/>
<text text-anchor="middle" x="1681" y="-298.5" font-family="Helvetica,sans-Serif" font-size="10.00">src/Projectiles/ProjMissile.cpp</text>
</a>
</g>
</g>
<!-- Node43&#45;&gt;Node44 -->
<g id="edge67" class="edge"><title>Node43&#45;&gt;Node44</title>
<path fill="none" stroke="midnightblue" d="M1398.39,-345.854C1464.14,-335.651 1564.37,-320.098 1626.12,-310.516"/>
<polygon fill="midnightblue" stroke="midnightblue" points="1397.49,-342.451 1388.14,-347.444 1398.56,-349.369 1397.49,-342.451"/>
</g>
<!-- Node46&#45;&gt;Node28 -->
<g id="edge79" class="edge"><title>Node46&#45;&gt;Node28</title>
<path fill="none" stroke="midnightblue" d="M1883.46,-392.93C1884.33,-356.92 1886.18,-280.231 1886.79,-254.568"/>
<polygon fill="midnightblue" stroke="midnightblue" points="1879.96,-392.994 1883.22,-403.075 1886.96,-393.162 1879.96,-392.994"/>
</g>
<!-- Node47 -->
<g id="node42" class="node"><title>Node47</title>
<g id="a_node42"><a xlink:href="_overlay_8cpp.html" target="_top" xlink:title="src/Interface/Overlay.cpp">
<polygon fill="white" stroke="black" points="1925.5,-347.5 1925.5,-366.5 2052.5,-366.5 2052.5,-347.5 1925.5,-347.5"/>
<text text-anchor="middle" x="1989" y="-354.5" font-family="Helvetica,sans-Serif" font-size="10.00">src/Interface/Overlay.cpp</text>
</a>
</g>
</g>
<!-- Node46&#45;&gt;Node47 -->
<g id="edge78" class="edge"><title>Node46&#45;&gt;Node47</title>
<path fill="none" stroke="midnightblue" d="M1909.06,-398.726C1928.68,-388.727 1955.03,-375.307 1972.01,-366.655"/>
<polygon fill="midnightblue" stroke="midnightblue" points="1907.35,-395.666 1900.03,-403.324 1910.53,-401.903 1907.35,-395.666"/>
</g>
</g>
</svg>
