<?xml version="1.0" encoding="UTF-8" standalone="no"?>
<!DOCTYPE svg PUBLIC "-//W3C//DTD SVG 1.1//EN"
 "http://www.w3.org/Graphics/SVG/1.1/DTD/svg11.dtd">
<!-- Generated by graphviz version 2.38.0 (20140413.2041)
 -->
<!-- Title: src/Entite.cpp Pages: 1 -->
<svg width="439pt" height="140pt"
 viewBox="0.00 0.00 439.00 140.00" xmlns="http://www.w3.org/2000/svg" xmlns:xlink="http://www.w3.org/1999/xlink">
<g id="graph0" class="graph" transform="scale(1 1) rotate(0) translate(4 136)">
<title>src/Entite.cpp</title>
<polygon fill="white" stroke="none" points="-4,4 -4,-136 435,-136 435,4 -4,4"/>
<!-- Node0 -->
<g id="node1" class="node"><title>Node0</title>
<polygon fill="#bfbfbf" stroke="black" points="239.5,-112.5 239.5,-131.5 316.5,-131.5 316.5,-112.5 239.5,-112.5"/>
<text text-anchor="middle" x="278" y="-119.5" font-family="Helvetica,sans-Serif" font-size="10.00">src/Entite.cpp</text>
</g>
<!-- Node1 -->
<g id="node2" class="node"><title>Node1</title>
<g id="a_node2"><a xlink:href="_entite_8h.html" target="_top" xlink:title="Entite.h">
<polygon fill="white" stroke="black" points="91,-56.5 91,-75.5 141,-75.5 141,-56.5 91,-56.5"/>
<text text-anchor="middle" x="116" y="-63.5" font-family="Helvetica,sans-Serif" font-size="10.00">Entite.h</text>
</a>
</g>
</g>
<!-- Node0&#45;&gt;Node1 -->
<g id="edge1" class="edge"><title>Node0&#45;&gt;Node1</title>
<path fill="none" stroke="midnightblue" d="M252.331,-112.444C224.917,-103.306 181.307,-88.7689 150.813,-78.6044"/>
<polygon fill="midnightblue" stroke="midnightblue" points="151.611,-75.1809 141.017,-75.339 149.397,-81.8217 151.611,-75.1809"/>
</g>
<!-- Node5 -->
<g id="node6" class="node"><title>Node5</title>
<g id="a_node6"><a xlink:href="_collision_8h.html" target="_top" xlink:title="Utilitaires/Collision.h">
<polygon fill="white" stroke="black" points="170.5,-56.5 170.5,-75.5 277.5,-75.5 277.5,-56.5 170.5,-56.5"/>
<text text-anchor="middle" x="224" y="-63.5" font-family="Helvetica,sans-Serif" font-size="10.00">Utilitaires/Collision.h</text>
</a>
</g>
</g>
<!-- Node0&#45;&gt;Node5 -->
<g id="edge5" class="edge"><title>Node0&#45;&gt;Node5</title>
<path fill="none" stroke="midnightblue" d="M269.083,-112.083C261.22,-104.22 249.569,-92.5688 240.081,-83.0813"/>
<polygon fill="midnightblue" stroke="midnightblue" points="242.297,-80.3473 232.751,-75.7511 237.347,-85.2971 242.297,-80.3473"/>
</g>
<!-- Node6 -->
<g id="node7" class="node"><title>Node6</title>
<g id="a_node7"><a xlink:href="constantes_8h.html" target="_top" xlink:title="constantes.h">
<polygon fill="white" stroke="black" points="295.5,-56.5 295.5,-75.5 368.5,-75.5 368.5,-56.5 295.5,-56.5"/>
<text text-anchor="middle" x="332" y="-63.5" font-family="Helvetica,sans-Serif" font-size="10.00">constantes.h</text>
</a>
</g>
</g>
<!-- Node0&#45;&gt;Node6 -->
<g id="edge7" class="edge"><title>Node0&#45;&gt;Node6</title>
<path fill="none" stroke="midnightblue" d="M286.917,-112.083C294.78,-104.22 306.431,-92.5688 315.919,-83.0813"/>
<polygon fill="midnightblue" stroke="midnightblue" points="318.653,-85.2971 323.249,-75.7511 313.703,-80.3473 318.653,-85.2971"/>
</g>
<!-- Node7 -->
<g id="node8" class="node"><title>Node7</title>
<polygon fill="white" stroke="#bfbfbf" points="387,-56.5 387,-75.5 431,-75.5 431,-56.5 387,-56.5"/>
<text text-anchor="middle" x="409" y="-63.5" font-family="Helvetica,sans-Serif" font-size="10.00">cmath</text>
</g>
<!-- Node0&#45;&gt;Node7 -->
<g id="edge8" class="edge"><title>Node0&#45;&gt;Node7</title>
<path fill="none" stroke="midnightblue" d="M298.757,-112.444C320.316,-103.557 354.263,-89.5632 378.794,-79.4514"/>
<polygon fill="midnightblue" stroke="midnightblue" points="380.428,-82.5634 388.34,-75.5164 377.761,-76.0917 380.428,-82.5634"/>
</g>
<!-- Node2 -->
<g id="node3" class="node"><title>Node2</title>
<polygon fill="white" stroke="#bfbfbf" points="0,-0.5 0,-19.5 44,-19.5 44,-0.5 0,-0.5"/>
<text text-anchor="middle" x="22" y="-7.5" font-family="Helvetica,sans-Serif" font-size="10.00">vector</text>
</g>
<!-- Node1&#45;&gt;Node2 -->
<g id="edge2" class="edge"><title>Node1&#45;&gt;Node2</title>
<path fill="none" stroke="midnightblue" d="M100.897,-56.324C86.0967,-47.8215 63.3058,-34.7288 46.0178,-24.7975"/>
<polygon fill="midnightblue" stroke="midnightblue" points="47.4798,-21.6009 37.0652,-19.6545 43.9929,-27.6707 47.4798,-21.6009"/>
</g>
<!-- Node3 -->
<g id="node4" class="node"><title>Node3</title>
<polygon fill="white" stroke="#bfbfbf" points="62,-0.5 62,-19.5 160,-19.5 160,-0.5 62,-0.5"/>
<text text-anchor="middle" x="111" y="-7.5" font-family="Helvetica,sans-Serif" font-size="10.00">SFML/System.hpp</text>
</g>
<!-- Node1&#45;&gt;Node3 -->
<g id="edge3" class="edge"><title>Node1&#45;&gt;Node3</title>
<path fill="none" stroke="midnightblue" d="M115.174,-56.083C114.519,-49.0059 113.58,-38.8611 112.758,-29.9865"/>
<polygon fill="midnightblue" stroke="midnightblue" points="116.217,-29.3858 111.81,-19.7511 109.247,-30.0312 116.217,-29.3858"/>
</g>
<!-- Node4 -->
<g id="node5" class="node"><title>Node4</title>
<polygon fill="white" stroke="#bfbfbf" points="178,-0.5 178,-19.5 282,-19.5 282,-0.5 178,-0.5"/>
<text text-anchor="middle" x="230" y="-7.5" font-family="Helvetica,sans-Serif" font-size="10.00">SFML/Graphics.hpp</text>
</g>
<!-- Node1&#45;&gt;Node4 -->
<g id="edge4" class="edge"><title>Node1&#45;&gt;Node4</title>
<path fill="none" stroke="midnightblue" d="M134.064,-56.4435C152.575,-47.6751 181.581,-33.9355 202.855,-23.8579"/>
<polygon fill="midnightblue" stroke="midnightblue" points="204.482,-26.9604 212.021,-19.5164 201.485,-20.6343 204.482,-26.9604"/>
</g>
<!-- Node5&#45;&gt;Node4 -->
<g id="edge6" class="edge"><title>Node5&#45;&gt;Node4</title>
<path fill="none" stroke="midnightblue" d="M224.991,-56.083C225.786,-48.9272 226.929,-38.6353 227.923,-29.6911"/>
<polygon fill="midnightblue" stroke="midnightblue" points="231.402,-30.0765 229.028,-19.7511 224.445,-29.3034 231.402,-30.0765"/>
</g>
</g>
</svg>
