<?xml version="1.0" encoding="UTF-8" standalone="no"?>
<!DOCTYPE svg PUBLIC "-//W3C//DTD SVG 1.1//EN"
 "http://www.w3.org/Graphics/SVG/1.1/DTD/svg11.dtd">
<!-- Generated by graphviz version 2.38.0 (20140413.2041)
 -->
<!-- Title: src/Entite.cpp Pages: 1 -->
<svg width="462pt" height="140pt"
 viewBox="0.00 0.00 462.00 140.00" xmlns="http://www.w3.org/2000/svg" xmlns:xlink="http://www.w3.org/1999/xlink">
<g id="graph0" class="graph" transform="scale(1 1) rotate(0) translate(4 136)">
<title>src/Entite.cpp</title>
<polygon fill="white" stroke="none" points="-4,4 -4,-136 458,-136 458,4 -4,4"/>
<!-- Node0 -->
<g id="node1" class="node"><title>Node0</title>
<polygon fill="#bfbfbf" stroke="black" points="302.5,-112.5 302.5,-131.5 379.5,-131.5 379.5,-112.5 302.5,-112.5"/>
<text text-anchor="middle" x="341" y="-119.5" font-family="Helvetica,sans-Serif" font-size="10.00">src/Entite.cpp</text>
</g>
<!-- Node1 -->
<g id="node2" class="node"><title>Node1</title>
<g id="a_node2"><a xlink:href="_entite_8h.html" target="_top" xlink:title="Entite.h">
<polygon fill="white" stroke="black" points="167,-56.5 167,-75.5 217,-75.5 217,-56.5 167,-56.5"/>
<text text-anchor="middle" x="192" y="-63.5" font-family="Helvetica,sans-Serif" font-size="10.00">Entite.h</text>
</a>
</g>
</g>
<!-- Node0&#45;&gt;Node1 -->
<g id="edge1" class="edge"><title>Node0&#45;&gt;Node1</title>
<path fill="none" stroke="midnightblue" d="M317.391,-112.444C292.542,-103.438 253.226,-89.1891 225.246,-79.049"/>
<polygon fill="midnightblue" stroke="midnightblue" points="226.093,-75.6332 215.499,-75.5164 223.708,-82.2144 226.093,-75.6332"/>
</g>
<!-- Node6 -->
<g id="node7" class="node"><title>Node6</title>
<g id="a_node7"><a xlink:href="constantes_8h.html" target="_top" xlink:title="constantes.h">
<polygon fill="white" stroke="black" points="370.5,-0.5 370.5,-19.5 443.5,-19.5 443.5,-0.5 370.5,-0.5"/>
<text text-anchor="middle" x="407" y="-7.5" font-family="Helvetica,sans-Serif" font-size="10.00">constantes.h</text>
</a>
</g>
</g>
<!-- Node0&#45;&gt;Node6 -->
<g id="edge9" class="edge"><title>Node0&#45;&gt;Node6</title>
<path fill="none" stroke="midnightblue" d="M346.179,-112.368C357.023,-94.2957 382.294,-52.1764 396.616,-28.3074"/>
<polygon fill="midnightblue" stroke="midnightblue" points="399.701,-29.9671 401.845,-19.5914 393.699,-26.3656 399.701,-29.9671"/>
</g>
<!-- Node7 -->
<g id="node8" class="node"><title>Node7</title>
<g id="a_node8"><a xlink:href="_collision_8h.html" target="_top" xlink:title="Utilitaires/Collision.h">
<polygon fill="white" stroke="black" points="246.5,-56.5 246.5,-75.5 353.5,-75.5 353.5,-56.5 246.5,-56.5"/>
<text text-anchor="middle" x="300" y="-63.5" font-family="Helvetica,sans-Serif" font-size="10.00">Utilitaires/Collision.h</text>
</a>
</g>
</g>
<!-- Node0&#45;&gt;Node7 -->
<g id="edge7" class="edge"><title>Node0&#45;&gt;Node7</title>
<path fill="none" stroke="midnightblue" d="M334.23,-112.083C328.438,-104.455 319.942,-93.2645 312.862,-83.9408"/>
<polygon fill="midnightblue" stroke="midnightblue" points="315.479,-81.5991 306.644,-75.7511 309.904,-85.8321 315.479,-81.5991"/>
</g>
<!-- Node8 -->
<g id="node9" class="node"><title>Node8</title>
<polygon fill="white" stroke="#bfbfbf" points="410,-56.5 410,-75.5 454,-75.5 454,-56.5 410,-56.5"/>
<text text-anchor="middle" x="432" y="-63.5" font-family="Helvetica,sans-Serif" font-size="10.00">cmath</text>
</g>
<!-- Node0&#45;&gt;Node8 -->
<g id="edge10" class="edge"><title>Node0&#45;&gt;Node8</title>
<path fill="none" stroke="midnightblue" d="M355.621,-112.324C369.949,-103.822 392.013,-90.7288 408.749,-80.7975"/>
<polygon fill="midnightblue" stroke="midnightblue" points="410.602,-83.7677 417.416,-75.6545 407.03,-77.7478 410.602,-83.7677"/>
</g>
<!-- Node2 -->
<g id="node3" class="node"><title>Node2</title>
<polygon fill="white" stroke="#bfbfbf" points="0,-0.5 0,-19.5 44,-19.5 44,-0.5 0,-0.5"/>
<text text-anchor="middle" x="22" y="-7.5" font-family="Helvetica,sans-Serif" font-size="10.00">vector</text>
</g>
<!-- Node1&#45;&gt;Node2 -->
<g id="edge2" class="edge"><title>Node1&#45;&gt;Node2</title>
<path fill="none" stroke="midnightblue" d="M166.916,-57.0321C136.867,-47.4872 86.4924,-31.4858 53.7565,-21.0874"/>
<polygon fill="midnightblue" stroke="midnightblue" points="54.7958,-17.7452 44.2054,-18.0535 52.6766,-24.4167 54.7958,-17.7452"/>
</g>
<!-- Node3 -->
<g id="node4" class="node"><title>Node3</title>
<polygon fill="white" stroke="#bfbfbf" points="62,-0.5 62,-19.5 114,-19.5 114,-0.5 62,-0.5"/>
<text text-anchor="middle" x="88" y="-7.5" font-family="Helvetica,sans-Serif" font-size="10.00">memory</text>
</g>
<!-- Node1&#45;&gt;Node3 -->
<g id="edge3" class="edge"><title>Node1&#45;&gt;Node3</title>
<path fill="none" stroke="midnightblue" d="M175.291,-56.324C158.688,-47.7034 132.998,-34.3643 113.78,-24.3855"/>
<polygon fill="midnightblue" stroke="midnightblue" points="115.156,-21.1565 104.668,-19.6545 111.93,-27.3689 115.156,-21.1565"/>
</g>
<!-- Node4 -->
<g id="node5" class="node"><title>Node4</title>
<polygon fill="white" stroke="#bfbfbf" points="132,-0.5 132,-19.5 230,-19.5 230,-0.5 132,-0.5"/>
<text text-anchor="middle" x="181" y="-7.5" font-family="Helvetica,sans-Serif" font-size="10.00">SFML/System.hpp</text>
</g>
<!-- Node1&#45;&gt;Node4 -->
<g id="edge4" class="edge"><title>Node1&#45;&gt;Node4</title>
<path fill="none" stroke="midnightblue" d="M190.184,-56.083C188.726,-48.9272 186.629,-38.6353 184.807,-29.6911"/>
<polygon fill="midnightblue" stroke="midnightblue" points="188.208,-28.8512 182.783,-19.7511 181.349,-30.2485 188.208,-28.8512"/>
</g>
<!-- Node5 -->
<g id="node6" class="node"><title>Node5</title>
<polygon fill="white" stroke="#bfbfbf" points="248,-0.5 248,-19.5 352,-19.5 352,-0.5 248,-0.5"/>
<text text-anchor="middle" x="300" y="-7.5" font-family="Helvetica,sans-Serif" font-size="10.00">SFML/Graphics.hpp</text>
</g>
<!-- Node1&#45;&gt;Node5 -->
<g id="edge5" class="edge"><title>Node1&#45;&gt;Node5</title>
<path fill="none" stroke="midnightblue" d="M209.352,-56.324C226.672,-47.6641 253.515,-34.2424 273.502,-24.249"/>
<polygon fill="midnightblue" stroke="midnightblue" points="275.312,-27.2572 282.691,-19.6545 272.181,-20.9962 275.312,-27.2572"/>
</g>
<!-- Node1&#45;&gt;Node6 -->
<g id="edge6" class="edge"><title>Node1&#45;&gt;Node6</title>
<path fill="none" stroke="midnightblue" d="M217.084,-58.6998C252.847,-49.7176 319.022,-33.0969 363.035,-22.0424"/>
<polygon fill="midnightblue" stroke="midnightblue" points="364.046,-25.3973 372.892,-19.5667 362.34,-18.6082 364.046,-25.3973"/>
</g>
<!-- Node7&#45;&gt;Node5 -->
<g id="edge8" class="edge"><title>Node7&#45;&gt;Node5</title>
<path fill="none" stroke="midnightblue" d="M300,-56.083C300,-49.0059 300,-38.8611 300,-29.9865"/>
<polygon fill="midnightblue" stroke="midnightblue" points="303.5,-29.751 300,-19.7511 296.5,-29.7511 303.5,-29.751"/>
</g>
</g>
</svg>
