<?xml version="1.0" encoding="UTF-8" standalone="no"?>
<!DOCTYPE svg PUBLIC "-//W3C//DTD SVG 1.1//EN"
 "http://www.w3.org/Graphics/SVG/1.1/DTD/svg11.dtd">
<!-- Generated by graphviz version 2.38.0 (20140413.2041)
 -->
<!-- Title: src/Interface/Input.h Pages: 1 -->
<!--zoomable 375 -->
<svg id="main" version="1.1" xmlns="http://www.w3.org/2000/svg" xmlns:xlink="http://www.w3.org/1999/xlink" xml:space="preserve" onload="init(evt)">
<style type="text/css"><![CDATA[
.edge:hover path { stroke: red; }
.edge:hover polygon { stroke: red; fill: red; }
]]></style>
<script type="text/javascript"><![CDATA[
var edges = document.getElementsByTagName('g');
if (edges && edges.length) {
  for (var i=0;i<edges.length;i++) {
    if (edges[i].id.substr(0,4)=='edge') {
      edges[i].setAttribute('class','edge');
    }
  }
}
]]></script>
        <defs>
                <circle id="rim" cx="0" cy="0" r="7"/>
                <circle id="rim2" cx="0" cy="0" r="3.5"/>
                <g id="zoomPlus">
                        <use xlink:href="#rim" fill="#404040">
                                <set attributeName="fill" to="#808080" begin="zoomplus.mouseover" end="zoomplus.mouseout"/>
                        </use>
                        <path d="M-4,0h8M0,-4v8" fill="none" stroke="white" stroke-width="1.5" pointer-events="none"/>
                </g>
                <g id="zoomMin">
                        <use xlink:href="#rim" fill="#404040">
                                <set attributeName="fill" to="#808080" begin="zoomminus.mouseover" end="zoomminus.mouseout"/>
                        </use>
                        <path d="M-4,0h8" fill="none" stroke="white" stroke-width="1.5" pointer-events="none"/>
                </g>
                <g id="dirArrow">
                        <path fill="none" stroke="white" stroke-width="1.5" d="M0,-3.0v7 M-2.5,-0.5L0,-3.0L2.5,-0.5"/>
                </g>
               <g id="resetDef">
                       <use xlink:href="#rim2" fill="#404040">
                               <set attributeName="fill" to="#808080" begin="reset.mouseover" end="reset.mouseout"/>
                       </use>
               </g>
        </defs>

<script type="text/javascript">
var viewWidth = 1536;
var viewHeight = 375;
var sectionId = 'dynsection-1';
</script>
<script xlink:href="svgpan.js"/>
<svg id="graph" class="graph">
<g id="viewport">
<title>src/Interface/Input.h</title>
<polygon fill="white" stroke="none" points="-4,4 -4,-371 1532,-371 1532,4 -4,4"/>
<!-- Node5 -->
<g id="node1" class="node"><title>Node5</title>
<polygon fill="#bfbfbf" stroke="black" points="973.5,-347.5 973.5,-366.5 1077.5,-366.5 1077.5,-347.5 973.5,-347.5"/>
<text text-anchor="middle" x="1025.5" y="-354.5" font-family="Helvetica,sans-Serif" font-size="10.00">src/Interface/Input.h</text>
</g>
<!-- Node6 -->
<g id="node2" class="node"><title>Node6</title>
<g id="a_node2"><a xlink:href="_vaisseau_8h.html" target="_top" xlink:title="src/Vaisseau/Vaisseau.h">
<polygon fill="white" stroke="black" points="802,-291.5 802,-310.5 927,-310.5 927,-291.5 802,-291.5"/>
<text text-anchor="middle" x="864.5" y="-298.5" font-family="Helvetica,sans-Serif" font-size="10.00">src/Vaisseau/Vaisseau.h</text>
</a>
</g>
</g>
<!-- Node5&#45;&gt;Node6 -->
<g id="edge1" class="edge"><title>Node5&#45;&gt;Node6</title>
<path fill="none" stroke="midnightblue" d="M990.235,-344.172C959.919,-334.004 916.93,-319.585 889.892,-310.516"/>
<polygon fill="midnightblue" stroke="midnightblue" points="989.395,-347.582 999.989,-347.444 991.621,-340.945 989.395,-347.582"/>
</g>
<!-- Node8 -->
<g id="node4" class="node"><title>Node8</title>
<g id="a_node4"><a xlink:href="_partie_8h.html" target="_top" xlink:title="src/Partie.h">
<polygon fill="white" stroke="black" points="3,-235.5 3,-254.5 70,-254.5 70,-235.5 3,-235.5"/>
<text text-anchor="middle" x="36.5" y="-242.5" font-family="Helvetica,sans-Serif" font-size="10.00">src/Partie.h</text>
</a>
</g>
</g>
<!-- Node5&#45;&gt;Node8 -->
<g id="edge32" class="edge"><title>Node5&#45;&gt;Node8</title>
<path fill="none" stroke="midnightblue" d="M963.423,-351.533C811.814,-340.153 410.841,-307.229 79.5,-255 76.4864,-254.525 73.3647,-253.979 70.2424,-253.395"/>
<polygon fill="midnightblue" stroke="midnightblue" points="963.242,-355.029 973.475,-352.283 963.763,-348.048 963.242,-355.029"/>
</g>
<!-- Node26 -->
<g id="node22" class="node"><title>Node26</title>
<g id="a_node22"><a xlink:href="bindings_8h.html" target="_top" xlink:title="src/Interface/bindings.h">
<polygon fill="white" stroke="black" points="1128,-291.5 1128,-310.5 1247,-310.5 1247,-291.5 1128,-291.5"/>
<text text-anchor="middle" x="1187.5" y="-298.5" font-family="Helvetica,sans-Serif" font-size="10.00">src/Interface/bindings.h</text>
</a>
</g>
</g>
<!-- Node5&#45;&gt;Node26 -->
<g id="edge28" class="edge"><title>Node5&#45;&gt;Node26</title>
<path fill="none" stroke="midnightblue" d="M1060.98,-344.172C1091.49,-334.004 1134.74,-319.585 1161.95,-310.516"/>
<polygon fill="midnightblue" stroke="midnightblue" points="1059.55,-340.961 1051.17,-347.444 1061.76,-347.602 1059.55,-340.961"/>
</g>
<!-- Node28 -->
<g id="node24" class="node"><title>Node28</title>
<g id="a_node24"><a xlink:href="_input_8cpp.html" target="_top" xlink:title="src/Interface/Input.cpp">
<polygon fill="white" stroke="black" points="1265,-291.5 1265,-310.5 1380,-310.5 1380,-291.5 1265,-291.5"/>
<text text-anchor="middle" x="1322.5" y="-298.5" font-family="Helvetica,sans-Serif" font-size="10.00">src/Interface/Input.cpp</text>
</a>
</g>
</g>
<!-- Node5&#45;&gt;Node28 -->
<g id="edge31" class="edge"><title>Node5&#45;&gt;Node28</title>
<path fill="none" stroke="midnightblue" d="M1082.7,-345.601C1138.83,-335.395 1223.4,-320.019 1275.66,-310.516"/>
<polygon fill="midnightblue" stroke="midnightblue" points="1081.77,-342.211 1072.56,-347.444 1083.03,-349.098 1081.77,-342.211"/>
</g>
<!-- Node7 -->
<g id="node3" class="node"><title>Node7</title>
<g id="a_node3"><a xlink:href="_capacite_8cpp.html" target="_top" xlink:title="src/Capacites/Capacite.cpp">
<polygon fill="white" stroke="black" points="88.5,-235.5 88.5,-254.5 226.5,-254.5 226.5,-235.5 88.5,-235.5"/>
<text text-anchor="middle" x="157.5" y="-242.5" font-family="Helvetica,sans-Serif" font-size="10.00">src/Capacites/Capacite.cpp</text>
</a>
</g>
</g>
<!-- Node6&#45;&gt;Node7 -->
<g id="edge2" class="edge"><title>Node6&#45;&gt;Node7</title>
<path fill="none" stroke="midnightblue" d="M791.648,-295.819C674.382,-288.858 436.543,-273.781 235.5,-255 232.65,-254.734 229.742,-254.451 226.806,-254.155"/>
<polygon fill="midnightblue" stroke="midnightblue" points="791.743,-299.331 801.932,-296.427 792.156,-292.343 791.743,-299.331"/>
</g>
<!-- Node6&#45;&gt;Node8 -->
<g id="edge3" class="edge"><title>Node6&#45;&gt;Node8</title>
<path fill="none" stroke="midnightblue" d="M791.77,-299.443C652.78,-297.58 340.076,-289.542 79.5,-255 76.4756,-254.599 73.3466,-254.104 70.2194,-253.553"/>
<polygon fill="midnightblue" stroke="midnightblue" points="791.83,-302.944 801.874,-299.572 791.92,-295.945 791.83,-302.944"/>
</g>
<!-- Node11 -->
<g id="node7" class="node"><title>Node11</title>
<g id="a_node7"><a xlink:href="_vaisseau_eclaireur_8h.html" target="_top" xlink:title="src/Vaisseau/VaisseauEclaireur.h">
<polygon fill="white" stroke="black" points="593.5,-235.5 593.5,-254.5 757.5,-254.5 757.5,-235.5 593.5,-235.5"/>
<text text-anchor="middle" x="675.5" y="-242.5" font-family="Helvetica,sans-Serif" font-size="10.00">src/Vaisseau/VaisseauEclaireur.h</text>
</a>
</g>
</g>
<!-- Node6&#45;&gt;Node11 -->
<g id="edge6" class="edge"><title>Node6&#45;&gt;Node11</title>
<path fill="none" stroke="midnightblue" d="M824.487,-288.568C788.833,-278.381 737.462,-263.703 705.308,-254.516"/>
<polygon fill="midnightblue" stroke="midnightblue" points="823.976,-292.062 834.552,-291.444 825.899,-285.331 823.976,-292.062"/>
</g>
<!-- Node13 -->
<g id="node9" class="node"><title>Node13</title>
<g id="a_node9"><a xlink:href="vague_8h.html" target="_top" xlink:title="src/vague.h">
<polygon fill="white" stroke="black" points="661.5,-56.5 661.5,-75.5 729.5,-75.5 729.5,-56.5 661.5,-56.5"/>
<text text-anchor="middle" x="695.5" y="-63.5" font-family="Helvetica,sans-Serif" font-size="10.00">src/vague.h</text>
</a>
</g>
</g>
<!-- Node6&#45;&gt;Node13 -->
<g id="edge25" class="edge"><title>Node6&#45;&gt;Node13</title>
<path fill="none" stroke="midnightblue" d="M937.442,-297.942C1058.18,-293.776 1288.79,-282.306 1313.5,-255 1319.46,-248.409 1316.73,-243.282 1313.5,-235 1286.55,-165.83 1267.07,-144.844 1200.5,-112 1117.42,-71.0121 829.526,-67.0046 729.814,-66.8749"/>
<polygon fill="midnightblue" stroke="midnightblue" points="937.05,-294.453 927.173,-298.288 937.285,-301.449 937.05,-294.453"/>
</g>
<!-- Node16 -->
<g id="node12" class="node"><title>Node16</title>
<g id="a_node12"><a xlink:href="_vaisseau_test_8h.html" target="_top" xlink:title="src/Vaisseau/VaisseauTest.h">
<polygon fill="white" stroke="black" points="430,-235.5 430,-254.5 575,-254.5 575,-235.5 430,-235.5"/>
<text text-anchor="middle" x="502.5" y="-242.5" font-family="Helvetica,sans-Serif" font-size="10.00">src/Vaisseau/VaisseauTest.h</text>
</a>
</g>
</g>
<!-- Node6&#45;&gt;Node16 -->
<g id="edge13" class="edge"><title>Node6&#45;&gt;Node16</title>
<path fill="none" stroke="midnightblue" d="M796.904,-289.917C728.515,-279.715 623.954,-264.117 559.592,-254.516"/>
<polygon fill="midnightblue" stroke="midnightblue" points="796.733,-293.43 807.14,-291.444 797.766,-286.506 796.733,-293.43"/>
</g>
<!-- Node18 -->
<g id="node14" class="node"><title>Node18</title>
<g id="a_node14"><a xlink:href="_vaisseau_attaquant_8h.html" target="_top" xlink:title="src/Vaisseau/VaisseauAttaquant.h">
<polygon fill="white" stroke="black" points="245,-235.5 245,-254.5 412,-254.5 412,-235.5 245,-235.5"/>
<text text-anchor="middle" x="328.5" y="-242.5" font-family="Helvetica,sans-Serif" font-size="10.00">src/Vaisseau/VaisseauAttaquant.h</text>
</a>
</g>
</g>
<!-- Node6&#45;&gt;Node18 -->
<g id="edge16" class="edge"><title>Node6&#45;&gt;Node18</title>
<path fill="none" stroke="midnightblue" d="M791.764,-292.672C692.868,-282.709 516.392,-264.929 412.138,-254.426"/>
<polygon fill="midnightblue" stroke="midnightblue" points="791.664,-296.18 801.965,-293.7 792.366,-289.215 791.664,-296.18"/>
</g>
<!-- Node20 -->
<g id="node16" class="node"><title>Node20</title>
<g id="a_node16"><a xlink:href="_vaisseau_defenseur_8h.html" target="_top" xlink:title="src/Vaisseau/VaisseauDefenseur.h">
<polygon fill="white" stroke="black" points="1016.5,-174 1016.5,-193 1186.5,-193 1186.5,-174 1016.5,-174"/>
<text text-anchor="middle" x="1101.5" y="-181" font-family="Helvetica,sans-Serif" font-size="10.00">src/Vaisseau/VaisseauDefenseur.h</text>
</a>
</g>
</g>
<!-- Node6&#45;&gt;Node20 -->
<g id="edge19" class="edge"><title>Node6&#45;&gt;Node20</title>
<path fill="none" stroke="midnightblue" d="M892.806,-287.32C912.248,-278.501 938.583,-266.338 961.5,-255 978.606,-246.537 982.502,-243.679 999.5,-235 1028.89,-219.994 1063.34,-203.075 1083.74,-193.126"/>
<polygon fill="midnightblue" stroke="midnightblue" points="891.264,-284.177 883.592,-291.484 894.146,-290.556 891.264,-284.177"/>
</g>
<!-- Node22 -->
<g id="node18" class="node"><title>Node22</title>
<g id="a_node18"><a xlink:href="_vaisseau_defenseur_b_8h.html" target="_top" xlink:title="src/Vaisseau/VaisseauDefenseurB.h">
<polygon fill="white" stroke="black" points="776,-235.5 776,-254.5 953,-254.5 953,-235.5 776,-235.5"/>
<text text-anchor="middle" x="864.5" y="-242.5" font-family="Helvetica,sans-Serif" font-size="10.00">src/Vaisseau/VaisseauDefenseurB.h</text>
</a>
</g>
</g>
<!-- Node6&#45;&gt;Node22 -->
<g id="edge22" class="edge"><title>Node6&#45;&gt;Node22</title>
<path fill="none" stroke="midnightblue" d="M864.5,-280.805C864.5,-271.91 864.5,-261.78 864.5,-254.751"/>
<polygon fill="midnightblue" stroke="midnightblue" points="861,-281.083 864.5,-291.083 868,-281.083 861,-281.083"/>
</g>
<!-- Node24 -->
<g id="node20" class="node"><title>Node24</title>
<g id="a_node20"><a xlink:href="_projectile_8cpp.html" target="_top" xlink:title="src/Projectiles/Projectile.cpp">
<polygon fill="white" stroke="black" points="1009,-235.5 1009,-254.5 1150,-254.5 1150,-235.5 1009,-235.5"/>
<text text-anchor="middle" x="1079.5" y="-242.5" font-family="Helvetica,sans-Serif" font-size="10.00">src/Projectiles/Projectile.cpp</text>
</a>
</g>
</g>
<!-- Node6&#45;&gt;Node24 -->
<g id="edge26" class="edge"><title>Node6&#45;&gt;Node24</title>
<path fill="none" stroke="midnightblue" d="M908.46,-288.959C949.067,-278.76 1008.54,-263.822 1045.59,-254.516"/>
<polygon fill="midnightblue" stroke="midnightblue" points="907.414,-285.613 898.567,-291.444 909.119,-292.402 907.414,-285.613"/>
</g>
<!-- Node25 -->
<g id="node21" class="node"><title>Node25</title>
<g id="a_node21"><a xlink:href="_vaisseau_8cpp.html" target="_top" xlink:title="src/Vaisseau/Vaisseau.cpp">
<polygon fill="white" stroke="black" points="1168.5,-235.5 1168.5,-254.5 1304.5,-254.5 1304.5,-235.5 1168.5,-235.5"/>
<text text-anchor="middle" x="1236.5" y="-242.5" font-family="Helvetica,sans-Serif" font-size="10.00">src/Vaisseau/Vaisseau.cpp</text>
</a>
</g>
</g>
<!-- Node6&#45;&gt;Node25 -->
<g id="edge27" class="edge"><title>Node6&#45;&gt;Node25</title>
<path fill="none" stroke="midnightblue" d="M933.531,-289.979C1003.8,-279.779 1111.56,-264.137 1177.83,-254.516"/>
<polygon fill="midnightblue" stroke="midnightblue" points="932.838,-286.543 923.445,-291.444 933.844,-293.471 932.838,-286.543"/>
</g>
<!-- Node9 -->
<g id="node5" class="node"><title>Node9</title>
<g id="a_node5"><a xlink:href="main_8cpp.html" target="_top" xlink:title="src/main.cpp">
<polygon fill="white" stroke="black" points="0,-174 0,-193 73,-193 73,-174 0,-174"/>
<text text-anchor="middle" x="36.5" y="-181" font-family="Helvetica,sans-Serif" font-size="10.00">src/main.cpp</text>
</a>
</g>
</g>
<!-- Node8&#45;&gt;Node9 -->
<g id="edge4" class="edge"><title>Node8&#45;&gt;Node9</title>
<path fill="none" stroke="midnightblue" d="M36.5,-225.317C36.5,-214.496 36.5,-201.398 36.5,-193.009"/>
<polygon fill="midnightblue" stroke="midnightblue" points="33.0001,-225.475 36.5,-235.475 40.0001,-225.475 33.0001,-225.475"/>
</g>
<!-- Node10 -->
<g id="node6" class="node"><title>Node10</title>
<g id="a_node6"><a xlink:href="_partie_8cpp.html" target="_top" xlink:title="src/Partie.cpp">
<polygon fill="white" stroke="black" points="578,-0.5 578,-19.5 655,-19.5 655,-0.5 578,-0.5"/>
<text text-anchor="middle" x="616.5" y="-7.5" font-family="Helvetica,sans-Serif" font-size="10.00">src/Partie.cpp</text>
</a>
</g>
</g>
<!-- Node8&#45;&gt;Node10 -->
<g id="edge5" class="edge"><title>Node8&#45;&gt;Node10</title>
<path fill="none" stroke="midnightblue" d="M59.9969,-230.039C87.7303,-213.889 135.521,-187.08 178.5,-168 329.115,-101.137 517.822,-41.1402 588.269,-19.5254"/>
<polygon fill="midnightblue" stroke="midnightblue" points="57.9206,-227.199 51.0646,-235.277 61.4614,-233.238 57.9206,-227.199"/>
</g>
<!-- Node12 -->
<g id="node8" class="node"><title>Node12</title>
<g id="a_node8"><a xlink:href="__vaisseaux_8h.html" target="_top" xlink:title="src/Vaisseau/_vaisseaux.h">
<polygon fill="white" stroke="black" points="549.5,-112.5 549.5,-131.5 683.5,-131.5 683.5,-112.5 549.5,-112.5"/>
<text text-anchor="middle" x="616.5" y="-119.5" font-family="Helvetica,sans-Serif" font-size="10.00">src/Vaisseau/_vaisseaux.h</text>
</a>
</g>
</g>
<!-- Node11&#45;&gt;Node12 -->
<g id="edge7" class="edge"><title>Node11&#45;&gt;Node12</title>
<path fill="none" stroke="midnightblue" d="M657.979,-228.172C650.056,-220.144 641.21,-209.815 635.5,-199 623.688,-176.63 619.01,-146.647 617.335,-131.922"/>
<polygon fill="midnightblue" stroke="midnightblue" points="655.814,-230.946 665.443,-235.366 660.672,-225.906 655.814,-230.946"/>
</g>
<!-- Node15 -->
<g id="node11" class="node"><title>Node15</title>
<g id="a_node11"><a xlink:href="_vaisseau_eclaireur_8cpp.html" target="_top" xlink:title="src/Vaisseau/VaisseauEclaireur.cpp">
<polygon fill="white" stroke="black" points="644.5,-174 644.5,-193 818.5,-193 818.5,-174 644.5,-174"/>
<text text-anchor="middle" x="731.5" y="-181" font-family="Helvetica,sans-Serif" font-size="10.00">src/Vaisseau/VaisseauEclaireur.cpp</text>
</a>
</g>
</g>
<!-- Node11&#45;&gt;Node15 -->
<g id="edge12" class="edge"><title>Node11&#45;&gt;Node15</title>
<path fill="none" stroke="midnightblue" d="M690.561,-227.997C701.161,-216.736 714.931,-202.104 723.491,-193.009"/>
<polygon fill="midnightblue" stroke="midnightblue" points="687.828,-225.794 683.523,-235.475 692.926,-230.592 687.828,-225.794"/>
</g>
<!-- Node12&#45;&gt;Node10 -->
<g id="edge8" class="edge"><title>Node12&#45;&gt;Node10</title>
<path fill="none" stroke="midnightblue" d="M616.5,-102.348C616.5,-78.2538 616.5,-37.3079 616.5,-19.5914"/>
<polygon fill="midnightblue" stroke="midnightblue" points="613,-102.368 616.5,-112.368 620,-102.369 613,-102.368"/>
</g>
<!-- Node12&#45;&gt;Node13 -->
<g id="edge9" class="edge"><title>Node12&#45;&gt;Node13</title>
<path fill="none" stroke="midnightblue" d="M637.534,-106.622C651.966,-96.7574 670.641,-83.9919 682.839,-75.6545"/>
<polygon fill="midnightblue" stroke="midnightblue" points="635.473,-103.791 629.193,-112.324 639.423,-109.57 635.473,-103.791"/>
</g>
<!-- Node13&#45;&gt;Node10 -->
<g id="edge10" class="edge"><title>Node13&#45;&gt;Node10</title>
<path fill="none" stroke="midnightblue" d="M674.466,-50.6221C660.034,-40.7574 641.359,-27.9919 629.161,-19.6545"/>
<polygon fill="midnightblue" stroke="midnightblue" points="672.577,-53.5703 682.807,-56.324 676.527,-47.7914 672.577,-53.5703"/>
</g>
<!-- Node14 -->
<g id="node10" class="node"><title>Node14</title>
<g id="a_node10"><a xlink:href="vague_8cpp.html" target="_top" xlink:title="src/vague.cpp">
<polygon fill="white" stroke="black" points="673.5,-0.5 673.5,-19.5 751.5,-19.5 751.5,-0.5 673.5,-0.5"/>
<text text-anchor="middle" x="712.5" y="-7.5" font-family="Helvetica,sans-Serif" font-size="10.00">src/vague.cpp</text>
</a>
</g>
</g>
<!-- Node13&#45;&gt;Node14 -->
<g id="edge11" class="edge"><title>Node13&#45;&gt;Node14</title>
<path fill="none" stroke="midnightblue" d="M701.357,-46.3956C704.201,-37.362 707.483,-26.936 709.745,-19.7511"/>
<polygon fill="midnightblue" stroke="midnightblue" points="697.972,-45.4935 698.307,-56.083 704.649,-47.5955 697.972,-45.4935"/>
</g>
<!-- Node16&#45;&gt;Node12 -->
<g id="edge14" class="edge"><title>Node16&#45;&gt;Node12</title>
<path fill="none" stroke="midnightblue" d="M523.02,-229.411C534.08,-221.094 547.643,-210.132 558.5,-199 580.286,-176.661 601.354,-146.145 611.009,-131.51"/>
<polygon fill="midnightblue" stroke="midnightblue" points="520.769,-226.723 514.788,-235.468 524.917,-232.361 520.769,-226.723"/>
</g>
<!-- Node17 -->
<g id="node13" class="node"><title>Node17</title>
<g id="a_node13"><a xlink:href="_vaisseau_test_8cpp.html" target="_top" xlink:title="src/Vaisseau/VaisseauTest.cpp">
<polygon fill="white" stroke="black" points="395,-174 395,-193 550,-193 550,-174 395,-174"/>
<text text-anchor="middle" x="472.5" y="-181" font-family="Helvetica,sans-Serif" font-size="10.00">src/Vaisseau/VaisseauTest.cpp</text>
</a>
</g>
</g>
<!-- Node16&#45;&gt;Node17 -->
<g id="edge15" class="edge"><title>Node16&#45;&gt;Node17</title>
<path fill="none" stroke="midnightblue" d="M493.593,-226.335C488.044,-215.328 481.154,-201.663 476.79,-193.009"/>
<polygon fill="midnightblue" stroke="midnightblue" points="490.574,-228.122 498.202,-235.475 496.825,-224.97 490.574,-228.122"/>
</g>
<!-- Node18&#45;&gt;Node12 -->
<g id="edge17" class="edge"><title>Node18&#45;&gt;Node12</title>
<path fill="none" stroke="midnightblue" d="M269.73,-233.203C219.812,-221.543 160.519,-200.196 189.5,-168 213.095,-141.788 435.161,-129.738 549.361,-125.236"/>
<polygon fill="midnightblue" stroke="midnightblue" points="269.036,-236.635 279.559,-235.407 270.567,-229.804 269.036,-236.635"/>
</g>
<!-- Node19 -->
<g id="node15" class="node"><title>Node19</title>
<g id="a_node15"><a xlink:href="_vaisseau_attaquant_8cpp.html" target="_top" xlink:title="src/Vaisseau/VaisseauAttaquant.cpp">
<polygon fill="white" stroke="black" points="198.5,-174 198.5,-193 376.5,-193 376.5,-174 198.5,-174"/>
<text text-anchor="middle" x="287.5" y="-181" font-family="Helvetica,sans-Serif" font-size="10.00">src/Vaisseau/VaisseauAttaquant.cpp</text>
</a>
</g>
</g>
<!-- Node18&#45;&gt;Node19 -->
<g id="edge18" class="edge"><title>Node18&#45;&gt;Node19</title>
<path fill="none" stroke="midnightblue" d="M316.789,-227.005C309.129,-215.888 299.448,-201.84 293.363,-193.009"/>
<polygon fill="midnightblue" stroke="midnightblue" points="314.07,-229.227 322.626,-235.475 319.834,-225.255 314.07,-229.227"/>
</g>
<!-- Node20&#45;&gt;Node12 -->
<g id="edge20" class="edge"><title>Node20&#45;&gt;Node12</title>
<path fill="none" stroke="midnightblue" d="M1038.22,-172.398C1027.96,-170.858 1017.44,-169.338 1007.5,-168 894.07,-152.73 761.685,-138.177 683.709,-129.941"/>
<polygon fill="midnightblue" stroke="midnightblue" points="1037.95,-175.897 1048.36,-173.938 1039,-168.976 1037.95,-175.897"/>
</g>
<!-- Node21 -->
<g id="node17" class="node"><title>Node21</title>
<g id="a_node17"><a xlink:href="_vaisseau_defenseur_8cpp.html" target="_top" xlink:title="src/Vaisseau/VaisseauDefenseur.cpp">
<polygon fill="white" stroke="black" points="1011,-112.5 1011,-131.5 1192,-131.5 1192,-112.5 1011,-112.5"/>
<text text-anchor="middle" x="1101.5" y="-119.5" font-family="Helvetica,sans-Serif" font-size="10.00">src/Vaisseau/VaisseauDefenseur.cpp</text>
</a>
</g>
</g>
<!-- Node20&#45;&gt;Node21 -->
<g id="edge21" class="edge"><title>Node20&#45;&gt;Node21</title>
<path fill="none" stroke="midnightblue" d="M1101.5,-163.817C1101.5,-152.996 1101.5,-139.898 1101.5,-131.509"/>
<polygon fill="midnightblue" stroke="midnightblue" points="1098,-163.975 1101.5,-173.975 1105,-163.975 1098,-163.975"/>
</g>
<!-- Node22&#45;&gt;Node20 -->
<g id="edge23" class="edge"><title>Node22&#45;&gt;Node20</title>
<path fill="none" stroke="midnightblue" d="M908.441,-232.968C954.462,-221.415 1025.75,-203.517 1067.61,-193.009"/>
<polygon fill="midnightblue" stroke="midnightblue" points="907.303,-229.645 898.456,-235.475 909.008,-236.435 907.303,-229.645"/>
</g>
<!-- Node23 -->
<g id="node19" class="node"><title>Node23</title>
<g id="a_node19"><a xlink:href="_vaisseau_defenseur_b_8cpp.html" target="_top" xlink:title="src/Vaisseau/VaisseauDefenseur\lB.cpp">
<polygon fill="white" stroke="black" points="836.5,-168.5 836.5,-198.5 998.5,-198.5 998.5,-168.5 836.5,-168.5"/>
<text text-anchor="start" x="844.5" y="-186.5" font-family="Helvetica,sans-Serif" font-size="10.00">src/Vaisseau/VaisseauDefenseur</text>
<text text-anchor="middle" x="917.5" y="-175.5" font-family="Helvetica,sans-Serif" font-size="10.00">B.cpp</text>
</a>
</g>
</g>
<!-- Node22&#45;&gt;Node23 -->
<g id="edge24" class="edge"><title>Node22&#45;&gt;Node23</title>
<path fill="none" stroke="midnightblue" d="M878.921,-227.811C887.082,-218.649 897.188,-207.303 905.009,-198.523"/>
<polygon fill="midnightblue" stroke="midnightblue" points="876.132,-225.68 872.094,-235.475 881.359,-230.336 876.132,-225.68"/>
</g>
<!-- Node26&#45;&gt;Node10 -->
<g id="edge30" class="edge"><title>Node26&#45;&gt;Node10</title>
<path fill="none" stroke="midnightblue" d="M1254.71,-289.026C1279.83,-282.377 1307.36,-271.789 1328.5,-255 1357.06,-232.316 1370.5,-220.972 1370.5,-184.5 1370.5,-184.5 1370.5,-184.5 1370.5,-121 1370.5,37.4862 820.867,-45.8319 664.5,-20 661.489,-19.5025 658.375,-18.967 655.247,-18.4139"/>
<polygon fill="midnightblue" stroke="midnightblue" points="1253.71,-285.666 1244.85,-291.47 1255.4,-292.46 1253.71,-285.666"/>
</g>
<!-- Node27 -->
<g id="node23" class="node"><title>Node27</title>
<g id="a_node23"><a xlink:href="bindings_8cpp.html" target="_top" xlink:title="src/Interface/bindings.cpp">
<polygon fill="white" stroke="black" points="1399,-235.5 1399,-254.5 1528,-254.5 1528,-235.5 1399,-235.5"/>
<text text-anchor="middle" x="1463.5" y="-242.5" font-family="Helvetica,sans-Serif" font-size="10.00">src/Interface/bindings.cpp</text>
</a>
</g>
</g>
<!-- Node26&#45;&gt;Node27 -->
<g id="edge29" class="edge"><title>Node26&#45;&gt;Node27</title>
<path fill="none" stroke="midnightblue" d="M1241.3,-289.473C1293.46,-279.268 1371.61,-263.979 1419.97,-254.516"/>
<polygon fill="midnightblue" stroke="midnightblue" points="1240.37,-286.088 1231.23,-291.444 1241.72,-292.958 1240.37,-286.088"/>
</g>
</g>
</svg>
        <g id="navigator" transform="translate(0 0)" fill="#404254">
                <rect fill="#f2f5e9" fill-opacity="0.5" stroke="#606060" stroke-width=".5" x="0" y="0" width="60" height="60"/>
                <use id="zoomplus" xlink:href="#zoomPlus" x="17" y="9" onmousedown="handleZoom(evt,'in')"/>
                <use id="zoomminus" xlink:href="#zoomMin" x="42" y="9" onmousedown="handleZoom(evt,'out')"/>
                <use id="reset" xlink:href="#resetDef" x="30" y="36" onmousedown="handleReset()"/>
                <g id="arrowUp" xlink:href="#dirArrow" transform="translate(30 24)" onmousedown="handlePan(0,-1)">
                  <use xlink:href="#rim" fill="#404040">
                        <set attributeName="fill" to="#808080" begin="arrowUp.mouseover" end="arrowUp.mouseout"/>
                  </use>
                  <path fill="none" stroke="white" stroke-width="1.5" d="M0,-3.0v7 M-2.5,-0.5L0,-3.0L2.5,-0.5"/>
                </g>
                <g id="arrowRight" xlink:href="#dirArrow" transform="rotate(90) translate(36 -43)" onmousedown="handlePan(1,0)">
                  <use xlink:href="#rim" fill="#404040">
                        <set attributeName="fill" to="#808080" begin="arrowRight.mouseover" end="arrowRight.mouseout"/>
                  </use>
                  <path fill="none" stroke="white" stroke-width="1.5" d="M0,-3.0v7 M-2.5,-0.5L0,-3.0L2.5,-0.5"/>
                </g>
                <g id="arrowDown" xlink:href="#dirArrow" transform="rotate(180) translate(-30 -48)" onmousedown="handlePan(0,1)">
                  <use xlink:href="#rim" fill="#404040">
                        <set attributeName="fill" to="#808080" begin="arrowDown.mouseover" end="arrowDown.mouseout"/>
                  </use>
                  <path fill="none" stroke="white" stroke-width="1.5" d="M0,-3.0v7 M-2.5,-0.5L0,-3.0L2.5,-0.5"/>
                </g>
                <g id="arrowLeft" xlink:href="#dirArrow" transform="rotate(270) translate(-36 17)" onmousedown="handlePan(-1,0)">
                  <use xlink:href="#rim" fill="#404040">
                        <set attributeName="fill" to="#808080" begin="arrowLeft.mouseover" end="arrowLeft.mouseout"/>
                  </use>
                  <path fill="none" stroke="white" stroke-width="1.5" d="M0,-3.0v7 M-2.5,-0.5L0,-3.0L2.5,-0.5"/>
                </g>
        </g>
        <svg viewBox="0 0 15 15" width="100%" height="30px" preserveAspectRatio="xMaxYMin meet">
         <g id="arrow_out" transform="scale(0.3 0.3)">
          <a xlink:href="_input_8h__dep__incl_org.svg" target="_base">
           <rect id="button" ry="5" rx="5" y="6" x="6" height="38" width="38"
                fill="#f2f5e9" fill-opacity="0.5" stroke="#606060" stroke-width="1.0"/>
           <path id="arrow"
             d="M 11.500037,31.436501 C 11.940474,20.09759 22.043105,11.32322 32.158766,21.979434 L 37.068811,17.246167 C 37.068811,17.246167 37.088388,32 37.088388,32 L 22.160133,31.978069 C 22.160133,31.978069 26.997745,27.140456 26.997745,27.140456 C 18.528582,18.264221 13.291696,25.230495 11.500037,31.436501 z"
             style="fill:#404040;"/>
          </a>
         </g>
        </svg>
</svg>
