<?xml version="1.0" encoding="UTF-8" standalone="no"?>
<!DOCTYPE svg PUBLIC "-//W3C//DTD SVG 1.1//EN"
 "http://www.w3.org/Graphics/SVG/1.1/DTD/svg11.dtd">
<!-- Generated by graphviz version 2.38.0 (20140413.2041)
 -->
<!-- Title: src/Interface/Input.cpp Pages: 1 -->
<svg width="197pt" height="140pt"
 viewBox="0.00 0.00 196.50 140.00" xmlns="http://www.w3.org/2000/svg" xmlns:xlink="http://www.w3.org/1999/xlink">
<g id="graph0" class="graph" transform="scale(1 1) rotate(0) translate(4 136)">
<title>src/Interface/Input.cpp</title>
<polygon fill="white" stroke="none" points="-4,4 -4,-136 192.5,-136 192.5,4 -4,4"/>
<!-- Node0 -->
<g id="node1" class="node"><title>Node0</title>
<polygon fill="#bfbfbf" stroke="black" points="73.5,-112.5 73.5,-131.5 188.5,-131.5 188.5,-112.5 73.5,-112.5"/>
<text text-anchor="middle" x="131" y="-119.5" font-family="Helvetica,sans-Serif" font-size="10.00">src/Interface/Input.cpp</text>
</g>
<!-- Node1 -->
<g id="node2" class="node"><title>Node1</title>
<g id="a_node2"><a xlink:href="_input_8h.html" target="_top" xlink:title="Input.h">
<polygon fill="white" stroke="black" points="75.5,-56.5 75.5,-75.5 122.5,-75.5 122.5,-56.5 75.5,-56.5"/>
<text text-anchor="middle" x="99" y="-63.5" font-family="Helvetica,sans-Serif" font-size="10.00">Input.h</text>
</a>
</g>
</g>
<!-- Node0&#45;&gt;Node1 -->
<g id="edge1" class="edge"><title>Node0&#45;&gt;Node1</title>
<path fill="none" stroke="midnightblue" d="M125.716,-112.083C121.289,-104.613 114.837,-93.7244 109.382,-84.5199"/>
<polygon fill="midnightblue" stroke="midnightblue" points="112.295,-82.5697 104.186,-75.7511 106.273,-86.1383 112.295,-82.5697"/>
</g>
<!-- Node4 -->
<g id="node5" class="node"><title>Node4</title>
<polygon fill="white" stroke="#bfbfbf" points="141,-56.5 141,-75.5 185,-75.5 185,-56.5 141,-56.5"/>
<text text-anchor="middle" x="163" y="-63.5" font-family="Helvetica,sans-Serif" font-size="10.00">cmath</text>
</g>
<!-- Node0&#45;&gt;Node4 -->
<g id="edge4" class="edge"><title>Node0&#45;&gt;Node4</title>
<path fill="none" stroke="midnightblue" d="M136.284,-112.083C140.711,-104.613 147.163,-93.7244 152.618,-84.5199"/>
<polygon fill="midnightblue" stroke="midnightblue" points="155.727,-86.1383 157.814,-75.7511 149.705,-82.5697 155.727,-86.1383"/>
</g>
<!-- Node2 -->
<g id="node3" class="node"><title>Node2</title>
<polygon fill="white" stroke="#bfbfbf" points="0,-0.5 0,-19.5 104,-19.5 104,-0.5 0,-0.5"/>
<text text-anchor="middle" x="52" y="-7.5" font-family="Helvetica,sans-Serif" font-size="10.00">SFML/Graphics.hpp</text>
</g>
<!-- Node1&#45;&gt;Node2 -->
<g id="edge2" class="edge"><title>Node1&#45;&gt;Node2</title>
<path fill="none" stroke="midnightblue" d="M91.2389,-56.083C84.4632,-48.2982 74.4568,-36.8015 66.2449,-27.3665"/>
<polygon fill="midnightblue" stroke="midnightblue" points="68.822,-24.9963 59.6167,-19.7511 63.5419,-29.592 68.822,-24.9963"/>
</g>
<!-- Node3 -->
<g id="node4" class="node"><title>Node3</title>
<polygon fill="white" stroke="#bfbfbf" points="122,-0.5 122,-19.5 172,-19.5 172,-0.5 122,-0.5"/>
<text text-anchor="middle" x="147" y="-7.5" font-family="Helvetica,sans-Serif" font-size="10.00">optional</text>
</g>
<!-- Node1&#45;&gt;Node3 -->
<g id="edge3" class="edge"><title>Node1&#45;&gt;Node3</title>
<path fill="none" stroke="midnightblue" d="M106.926,-56.083C113.846,-48.2982 124.065,-36.8015 132.452,-27.3665"/>
<polygon fill="midnightblue" stroke="midnightblue" points="135.194,-29.5505 139.221,-19.7511 129.962,-24.8999 135.194,-29.5505"/>
</g>
</g>
</svg>
