<?xml version="1.0" encoding="UTF-8" standalone="no"?>
<!DOCTYPE svg PUBLIC "-//W3C//DTD SVG 1.1//EN"
 "http://www.w3.org/Graphics/SVG/1.1/DTD/svg11.dtd">
<!-- Generated by graphviz version 2.38.0 (20140413.2041)
 -->
<!-- Title: src/Interface/Input.h Pages: 1 -->
<svg width="259pt" height="140pt"
 viewBox="0.00 0.00 259.00 140.00" xmlns="http://www.w3.org/2000/svg" xmlns:xlink="http://www.w3.org/1999/xlink">
<g id="graph0" class="graph" transform="scale(1 1) rotate(0) translate(4 136)">
<title>src/Interface/Input.h</title>
<polygon fill="white" stroke="none" points="-4,4 -4,-136 255,-136 255,4 -4,4"/>
<!-- Node3 -->
<g id="node1" class="node"><title>Node3</title>
<polygon fill="#bfbfbf" stroke="black" points="59.5,-112.5 59.5,-131.5 163.5,-131.5 163.5,-112.5 59.5,-112.5"/>
<text text-anchor="middle" x="111.5" y="-119.5" font-family="Helvetica,sans-Serif" font-size="10.00">src/Interface/Input.h</text>
</g>
<!-- Node4 -->
<g id="node2" class="node"><title>Node4</title>
<g id="a_node2"><a xlink:href="_input_8cpp.html" target="_top" xlink:title="src/Interface/Input.cpp">
<polygon fill="white" stroke="black" points="-7.10543e-15,-56.5 -7.10543e-15,-75.5 115,-75.5 115,-56.5 -7.10543e-15,-56.5"/>
<text text-anchor="middle" x="57.5" y="-63.5" font-family="Helvetica,sans-Serif" font-size="10.00">src/Interface/Input.cpp</text>
</a>
</g>
</g>
<!-- Node3&#45;&gt;Node4 -->
<g id="edge1" class="edge"><title>Node3&#45;&gt;Node4</title>
<path fill="none" stroke="midnightblue" d="M95.5024,-105.002C85.9329,-95.4329 74.1389,-83.6389 66.2511,-75.7511"/>
<polygon fill="midnightblue" stroke="midnightblue" points="93.037,-107.487 102.583,-112.083 97.9868,-102.537 93.037,-107.487"/>
</g>
<!-- Node5 -->
<g id="node3" class="node"><title>Node5</title>
<g id="a_node3"><a xlink:href="_partie_8h.html" target="_top" xlink:title="src/Partie.h">
<polygon fill="white" stroke="black" points="133,-56.5 133,-75.5 200,-75.5 200,-56.5 133,-56.5"/>
<text text-anchor="middle" x="166.5" y="-63.5" font-family="Helvetica,sans-Serif" font-size="10.00">src/Partie.h</text>
</a>
</g>
</g>
<!-- Node3&#45;&gt;Node5 -->
<g id="edge2" class="edge"><title>Node3&#45;&gt;Node5</title>
<path fill="none" stroke="midnightblue" d="M127.794,-105.002C137.541,-95.4329 149.553,-83.6389 157.587,-75.7511"/>
<polygon fill="midnightblue" stroke="midnightblue" points="125.266,-102.58 120.582,-112.083 130.17,-107.575 125.266,-102.58"/>
</g>
<!-- Node6 -->
<g id="node4" class="node"><title>Node6</title>
<g id="a_node4"><a xlink:href="main_8cpp.html" target="_top" xlink:title="src/main.cpp">
<polygon fill="white" stroke="black" points="83,-0.5 83,-19.5 156,-19.5 156,-0.5 83,-0.5"/>
<text text-anchor="middle" x="119.5" y="-7.5" font-family="Helvetica,sans-Serif" font-size="10.00">src/main.cpp</text>
</a>
</g>
</g>
<!-- Node5&#45;&gt;Node6 -->
<g id="edge3" class="edge"><title>Node5&#45;&gt;Node6</title>
<path fill="none" stroke="midnightblue" d="M152.079,-48.4314C143.842,-38.9673 133.846,-27.4827 127.117,-19.7511"/>
<polygon fill="midnightblue" stroke="midnightblue" points="149.534,-50.8378 158.739,-56.083 154.814,-46.2421 149.534,-50.8378"/>
</g>
<!-- Node7 -->
<g id="node5" class="node"><title>Node7</title>
<g id="a_node5"><a xlink:href="_partie_8cpp.html" target="_top" xlink:title="src/Partie.cpp">
<polygon fill="white" stroke="black" points="174,-0.5 174,-19.5 251,-19.5 251,-0.5 174,-0.5"/>
<text text-anchor="middle" x="212.5" y="-7.5" font-family="Helvetica,sans-Serif" font-size="10.00">src/Partie.cpp</text>
</a>
</g>
</g>
<!-- Node5&#45;&gt;Node7 -->
<g id="edge4" class="edge"><title>Node5&#45;&gt;Node7</title>
<path fill="none" stroke="midnightblue" d="M180.614,-48.4314C188.676,-38.9673 198.459,-27.4827 205.045,-19.7511"/>
<polygon fill="midnightblue" stroke="midnightblue" points="177.916,-46.2009 174.096,-56.083 183.245,-50.7402 177.916,-46.2009"/>
</g>
</g>
</svg>
