<?xml version="1.0" encoding="UTF-8" standalone="no"?>
<!DOCTYPE svg PUBLIC "-//W3C//DTD SVG 1.1//EN"
 "http://www.w3.org/Graphics/SVG/1.1/DTD/svg11.dtd">
<!-- Generated by graphviz version 2.38.0 (20140413.2041)
 -->
<!-- Title: src/Interface/Overlay.h Pages: 1 -->
<svg width="271pt" height="140pt"
 viewBox="0.00 0.00 271.00 140.00" xmlns="http://www.w3.org/2000/svg" xmlns:xlink="http://www.w3.org/1999/xlink">
<g id="graph0" class="graph" transform="scale(1 1) rotate(0) translate(4 136)">
<title>src/Interface/Overlay.h</title>
<polygon fill="white" stroke="none" points="-4,4 -4,-136 267,-136 267,4 -4,4"/>
<!-- Node7 -->
<g id="node1" class="node"><title>Node7</title>
<polygon fill="#bfbfbf" stroke="black" points="62.5,-112.5 62.5,-131.5 178.5,-131.5 178.5,-112.5 62.5,-112.5"/>
<text text-anchor="middle" x="120.5" y="-119.5" font-family="Helvetica,sans-Serif" font-size="10.00">src/Interface/Overlay.h</text>
</g>
<!-- Node8 -->
<g id="node2" class="node"><title>Node8</title>
<g id="a_node2"><a xlink:href="_overlay_8cpp.html" target="_top" xlink:title="src/Interface/Overlay.cpp">
<polygon fill="white" stroke="black" points="0,-56.5 0,-75.5 127,-75.5 127,-56.5 0,-56.5"/>
<text text-anchor="middle" x="63.5" y="-63.5" font-family="Helvetica,sans-Serif" font-size="10.00">src/Interface/Overlay.cpp</text>
</a>
</g>
</g>
<!-- Node7&#45;&gt;Node8 -->
<g id="edge1" class="edge"><title>Node7&#45;&gt;Node8</title>
<path fill="none" stroke="midnightblue" d="M103.879,-105.253C93.766,-95.6731 81.2234,-83.7906 72.8247,-75.8339"/>
<polygon fill="midnightblue" stroke="midnightblue" points="101.675,-107.987 111.342,-112.324 106.49,-102.906 101.675,-107.987"/>
</g>
<!-- Node9 -->
<g id="node3" class="node"><title>Node9</title>
<g id="a_node3"><a xlink:href="_partie_8h.html" target="_top" xlink:title="src/Partie.h">
<polygon fill="white" stroke="black" points="145,-56.5 145,-75.5 212,-75.5 212,-56.5 145,-56.5"/>
<text text-anchor="middle" x="178.5" y="-63.5" font-family="Helvetica,sans-Serif" font-size="10.00">src/Partie.h</text>
</a>
</g>
</g>
<!-- Node7&#45;&gt;Node9 -->
<g id="edge2" class="edge"><title>Node7&#45;&gt;Node9</title>
<path fill="none" stroke="midnightblue" d="M137.413,-105.253C147.703,-95.6731 160.466,-83.7906 169.012,-75.8339"/>
<polygon fill="midnightblue" stroke="midnightblue" points="134.753,-102.948 129.819,-112.324 139.523,-108.071 134.753,-102.948"/>
</g>
<!-- Node10 -->
<g id="node4" class="node"><title>Node10</title>
<g id="a_node4"><a xlink:href="main_8cpp.html" target="_top" xlink:title="src/main.cpp">
<polygon fill="white" stroke="black" points="95,-0.5 95,-19.5 168,-19.5 168,-0.5 95,-0.5"/>
<text text-anchor="middle" x="131.5" y="-7.5" font-family="Helvetica,sans-Serif" font-size="10.00">src/main.cpp</text>
</a>
</g>
</g>
<!-- Node9&#45;&gt;Node10 -->
<g id="edge3" class="edge"><title>Node9&#45;&gt;Node10</title>
<path fill="none" stroke="midnightblue" d="M164.079,-48.4314C155.842,-38.9673 145.846,-27.4827 139.117,-19.7511"/>
<polygon fill="midnightblue" stroke="midnightblue" points="161.534,-50.8378 170.739,-56.083 166.814,-46.2421 161.534,-50.8378"/>
</g>
<!-- Node11 -->
<g id="node5" class="node"><title>Node11</title>
<g id="a_node5"><a xlink:href="_partie_8cpp.html" target="_top" xlink:title="src/Partie.cpp">
<polygon fill="white" stroke="black" points="186,-0.5 186,-19.5 263,-19.5 263,-0.5 186,-0.5"/>
<text text-anchor="middle" x="224.5" y="-7.5" font-family="Helvetica,sans-Serif" font-size="10.00">src/Partie.cpp</text>
</a>
</g>
</g>
<!-- Node9&#45;&gt;Node11 -->
<g id="edge4" class="edge"><title>Node9&#45;&gt;Node11</title>
<path fill="none" stroke="midnightblue" d="M192.614,-48.4314C200.676,-38.9673 210.459,-27.4827 217.045,-19.7511"/>
<polygon fill="midnightblue" stroke="midnightblue" points="189.916,-46.2009 186.096,-56.083 195.245,-50.7402 189.916,-46.2009"/>
</g>
</g>
</svg>
