<?xml version="1.0" encoding="UTF-8" standalone="no"?>
<!DOCTYPE svg PUBLIC "-//W3C//DTD SVG 1.1//EN"
 "http://www.w3.org/Graphics/SVG/1.1/DTD/svg11.dtd">
<!-- Generated by graphviz version 2.38.0 (20140413.2041)
 -->
<!-- Title: src/Interface/Overlay.h Pages: 1 -->
<svg width="460pt" height="140pt"
 viewBox="0.00 0.00 460.00 140.00" xmlns="http://www.w3.org/2000/svg" xmlns:xlink="http://www.w3.org/1999/xlink">
<g id="graph0" class="graph" transform="scale(1 1) rotate(0) translate(4 136)">
<title>src/Interface/Overlay.h</title>
<polygon fill="white" stroke="none" points="-4,4 -4,-136 456,-136 456,4 -4,4"/>
<!-- Node0 -->
<g id="node1" class="node"><title>Node0</title>
<polygon fill="#bfbfbf" stroke="black" points="105,-112.5 105,-131.5 221,-131.5 221,-112.5 105,-112.5"/>
<text text-anchor="middle" x="163" y="-119.5" font-family="Helvetica,sans-Serif" font-size="10.00">src/Interface/Overlay.h</text>
</g>
<!-- Node1 -->
<g id="node2" class="node"><title>Node1</title>
<polygon fill="white" stroke="#bfbfbf" points="0,-0.5 0,-19.5 104,-19.5 104,-0.5 0,-0.5"/>
<text text-anchor="middle" x="52" y="-7.5" font-family="Helvetica,sans-Serif" font-size="10.00">SFML/Graphics.hpp</text>
</g>
<!-- Node0&#45;&gt;Node1 -->
<g id="edge1" class="edge"><title>Node0&#45;&gt;Node1</title>
<path fill="none" stroke="midnightblue" d="M154.29,-112.368C135.648,-93.8941 91.6498,-50.2926 67.8867,-26.7436"/>
<polygon fill="midnightblue" stroke="midnightblue" points="70.2362,-24.1444 60.6695,-19.5914 65.3089,-29.1165 70.2362,-24.1444"/>
</g>
<!-- Node2 -->
<g id="node3" class="node"><title>Node2</title>
<g id="a_node3"><a xlink:href="constantes_8h.html" target="_top" xlink:title="../constantes.h">
<polygon fill="white" stroke="black" points="122,-0.5 122,-19.5 204,-19.5 204,-0.5 122,-0.5"/>
<text text-anchor="middle" x="163" y="-7.5" font-family="Helvetica,sans-Serif" font-size="10.00">../constantes.h</text>
</a>
</g>
</g>
<!-- Node0&#45;&gt;Node2 -->
<g id="edge2" class="edge"><title>Node0&#45;&gt;Node2</title>
<path fill="none" stroke="midnightblue" d="M163,-112.368C163,-94.617 163,-53.6664 163,-29.5974"/>
<polygon fill="midnightblue" stroke="midnightblue" points="166.5,-29.5914 163,-19.5914 159.5,-29.5915 166.5,-29.5914"/>
</g>
<!-- Node3 -->
<g id="node4" class="node"><title>Node3</title>
<g id="a_node4"><a xlink:href="_entite_8h.html" target="_top" xlink:title="../Entite.h">
<polygon fill="white" stroke="black" points="202.5,-56.5 202.5,-75.5 261.5,-75.5 261.5,-56.5 202.5,-56.5"/>
<text text-anchor="middle" x="232" y="-63.5" font-family="Helvetica,sans-Serif" font-size="10.00">../Entite.h</text>
</a>
</g>
</g>
<!-- Node0&#45;&gt;Node3 -->
<g id="edge3" class="edge"><title>Node0&#45;&gt;Node3</title>
<path fill="none" stroke="midnightblue" d="M174.086,-112.324C184.486,-104.185 200.261,-91.8395 212.722,-82.0874"/>
<polygon fill="midnightblue" stroke="midnightblue" points="214.994,-84.7533 220.712,-75.8339 210.68,-79.2407 214.994,-84.7533"/>
</g>
<!-- Node3&#45;&gt;Node1 -->
<g id="edge7" class="edge"><title>Node3&#45;&gt;Node1</title>
<path fill="none" stroke="midnightblue" d="M203.478,-56.4435C172.934,-47.2801 124.292,-32.6876 90.3973,-22.5192"/>
<polygon fill="midnightblue" stroke="midnightblue" points="90.9721,-19.0376 80.3881,-19.5164 88.9606,-25.7424 90.9721,-19.0376"/>
</g>
<!-- Node3&#45;&gt;Node2 -->
<g id="edge8" class="edge"><title>Node3&#45;&gt;Node2</title>
<path fill="none" stroke="midnightblue" d="M220.914,-56.324C210.514,-48.1849 194.739,-35.8395 182.278,-26.0874"/>
<polygon fill="midnightblue" stroke="midnightblue" points="184.32,-23.2407 174.288,-19.8339 180.006,-28.7533 184.32,-23.2407"/>
</g>
<!-- Node4 -->
<g id="node5" class="node"><title>Node4</title>
<polygon fill="white" stroke="#bfbfbf" points="222,-0.5 222,-19.5 266,-19.5 266,-0.5 222,-0.5"/>
<text text-anchor="middle" x="244" y="-7.5" font-family="Helvetica,sans-Serif" font-size="10.00">vector</text>
</g>
<!-- Node3&#45;&gt;Node4 -->
<g id="edge4" class="edge"><title>Node3&#45;&gt;Node4</title>
<path fill="none" stroke="midnightblue" d="M233.982,-56.083C235.572,-48.9272 237.859,-38.6353 239.846,-29.6911"/>
<polygon fill="midnightblue" stroke="midnightblue" points="243.303,-30.2722 242.055,-19.7511 236.469,-28.7537 243.303,-30.2722"/>
</g>
<!-- Node5 -->
<g id="node6" class="node"><title>Node5</title>
<polygon fill="white" stroke="#bfbfbf" points="284,-0.5 284,-19.5 336,-19.5 336,-0.5 284,-0.5"/>
<text text-anchor="middle" x="310" y="-7.5" font-family="Helvetica,sans-Serif" font-size="10.00">memory</text>
</g>
<!-- Node3&#45;&gt;Node5 -->
<g id="edge5" class="edge"><title>Node3&#45;&gt;Node5</title>
<path fill="none" stroke="midnightblue" d="M244.532,-56.324C256.586,-47.979 275.027,-35.2122 289.269,-25.3524"/>
<polygon fill="midnightblue" stroke="midnightblue" points="291.269,-28.2243 297.499,-19.6545 287.285,-22.469 291.269,-28.2243"/>
</g>
<!-- Node6 -->
<g id="node7" class="node"><title>Node6</title>
<polygon fill="white" stroke="#bfbfbf" points="354,-0.5 354,-19.5 452,-19.5 452,-0.5 354,-0.5"/>
<text text-anchor="middle" x="403" y="-7.5" font-family="Helvetica,sans-Serif" font-size="10.00">SFML/System.hpp</text>
</g>
<!-- Node3&#45;&gt;Node6 -->
<g id="edge6" class="edge"><title>Node3&#45;&gt;Node6</title>
<path fill="none" stroke="midnightblue" d="M259.095,-56.4435C287.988,-47.3196 333.925,-32.8133 366.105,-22.6509"/>
<polygon fill="midnightblue" stroke="midnightblue" points="367.549,-25.8654 376.031,-19.5164 365.441,-19.1903 367.549,-25.8654"/>
</g>
</g>
</svg>
