<?xml version="1.0" encoding="UTF-8" standalone="no"?>
<!DOCTYPE svg PUBLIC "-//W3C//DTD SVG 1.1//EN"
 "http://www.w3.org/Graphics/SVG/1.1/DTD/svg11.dtd">
<!-- Generated by graphviz version 2.38.0 (20140413.2041)
 -->
<!-- Title: src/Partie.cpp Pages: 1 -->
<svg width="1057pt" height="364pt"
 viewBox="0.00 0.00 1057.47 364.00" xmlns="http://www.w3.org/2000/svg" xmlns:xlink="http://www.w3.org/1999/xlink">
<g id="graph0" class="graph" transform="scale(1 1) rotate(0) translate(4 360)">
<title>src/Partie.cpp</title>
<polygon fill="white" stroke="none" points="-4,4 -4,-360 1053.47,-360 1053.47,4 -4,4"/>
<!-- Node0 -->
<g id="node1" class="node"><title>Node0</title>
<polygon fill="#bfbfbf" stroke="black" points="740.5,-336.5 740.5,-355.5 817.5,-355.5 817.5,-336.5 740.5,-336.5"/>
<text text-anchor="middle" x="779" y="-343.5" font-family="Helvetica,sans-Serif" font-size="10.00">src/Partie.cpp</text>
</g>
<!-- Node1 -->
<g id="node2" class="node"><title>Node1</title>
<g id="a_node2"><a xlink:href="_partie_8h.html" target="_top" xlink:title="Partie.h">
<polygon fill="white" stroke="black" points="319,-280.5 319,-299.5 369,-299.5 369,-280.5 319,-280.5"/>
<text text-anchor="middle" x="344" y="-287.5" font-family="Helvetica,sans-Serif" font-size="10.00">Partie.h</text>
</a>
</g>
</g>
<!-- Node0&#45;&gt;Node1 -->
<g id="edge1" class="edge"><title>Node0&#45;&gt;Node1</title>
<path fill="none" stroke="midnightblue" d="M740.397,-340.208C656.719,-329.82 459.69,-305.362 379.194,-295.369"/>
<polygon fill="midnightblue" stroke="midnightblue" points="379.433,-291.872 369.078,-294.113 378.57,-298.818 379.433,-291.872"/>
</g>
<!-- Node15 -->
<g id="node16" class="node"><title>Node15</title>
<g id="a_node16"><a xlink:href="__projectiles_8h.html" target="_top" xlink:title="Projectiles/_projectiles.h">
<polygon fill="white" stroke="black" points="910.5,-224.5 910.5,-243.5 1033.5,-243.5 1033.5,-224.5 910.5,-224.5"/>
<text text-anchor="middle" x="972" y="-231.5" font-family="Helvetica,sans-Serif" font-size="10.00">Projectiles/_projectiles.h</text>
</a>
</g>
</g>
<!-- Node0&#45;&gt;Node15 -->
<g id="edge33" class="edge"><title>Node0&#45;&gt;Node15</title>
<path fill="none" stroke="midnightblue" d="M794.144,-336.368C827.545,-317.332 907.757,-271.615 948.05,-248.65"/>
<polygon fill="midnightblue" stroke="midnightblue" points="949.971,-251.584 956.926,-243.591 946.505,-245.502 949.971,-251.584"/>
</g>
<!-- Node16 -->
<g id="node17" class="node"><title>Node16</title>
<g id="a_node17"><a xlink:href="_proj_test_8h.html" target="_top" xlink:title="ProjTest.h">
<polygon fill="white" stroke="black" points="848,-168.5 848,-187.5 910,-187.5 910,-168.5 848,-168.5"/>
<text text-anchor="middle" x="879" y="-175.5" font-family="Helvetica,sans-Serif" font-size="10.00">ProjTest.h</text>
</a>
</g>
</g>
<!-- Node0&#45;&gt;Node16 -->
<g id="edge51" class="edge"><title>Node0&#45;&gt;Node16</title>
<path fill="none" stroke="midnightblue" d="M817.755,-343.178C877.826,-338.018 991.815,-318.385 1043,-244 1074.53,-198.182 978.803,-184.659 920.496,-180.669"/>
<polygon fill="midnightblue" stroke="midnightblue" points="920.631,-177.171 910.434,-180.049 920.2,-184.158 920.631,-177.171"/>
</g>
<!-- Node18 -->
<g id="node19" class="node"><title>Node18</title>
<g id="a_node19"><a xlink:href="___capacites_8h.html" target="_top" xlink:title="Capacites/_Capacites.h">
<polygon fill="white" stroke="black" points="718,-280.5 718,-299.5 840,-299.5 840,-280.5 718,-280.5"/>
<text text-anchor="middle" x="779" y="-287.5" font-family="Helvetica,sans-Serif" font-size="10.00">Capacites/_Capacites.h</text>
</a>
</g>
</g>
<!-- Node0&#45;&gt;Node18 -->
<g id="edge38" class="edge"><title>Node0&#45;&gt;Node18</title>
<path fill="none" stroke="midnightblue" d="M779,-336.083C779,-329.006 779,-318.861 779,-309.986"/>
<polygon fill="midnightblue" stroke="midnightblue" points="782.5,-309.751 779,-299.751 775.5,-309.751 782.5,-309.751"/>
</g>
<!-- Node22 -->
<g id="node23" class="node"><title>Node22</title>
<g id="a_node23"><a xlink:href="_vaisseau_test_8h.html" target="_top" xlink:title="Vaisseau/VaisseauTest.h">
<polygon fill="white" stroke="black" points="572,-280.5 572,-299.5 700,-299.5 700,-280.5 572,-280.5"/>
<text text-anchor="middle" x="636" y="-287.5" font-family="Helvetica,sans-Serif" font-size="10.00">Vaisseau/VaisseauTest.h</text>
</a>
</g>
</g>
<!-- Node0&#45;&gt;Node22 -->
<g id="edge52" class="edge"><title>Node0&#45;&gt;Node22</title>
<path fill="none" stroke="midnightblue" d="M756.341,-336.444C732.598,-327.478 695.091,-313.314 668.262,-303.183"/>
<polygon fill="midnightblue" stroke="midnightblue" points="669.144,-299.775 658.553,-299.516 666.671,-306.324 669.144,-299.775"/>
</g>
<!-- Node2 -->
<g id="node3" class="node"><title>Node2</title>
<polygon fill="white" stroke="#bfbfbf" points="512,-0.5 512,-19.5 556,-19.5 556,-0.5 512,-0.5"/>
<text text-anchor="middle" x="534" y="-7.5" font-family="Helvetica,sans-Serif" font-size="10.00">vector</text>
</g>
<!-- Node1&#45;&gt;Node2 -->
<g id="edge2" class="edge"><title>Node1&#45;&gt;Node2</title>
<path fill="none" stroke="midnightblue" d="M341.586,-280.117C338.129,-267.552 331.472,-243.902 325,-224 301.327,-151.199 237.959,-114.782 287,-56 314,-23.6368 441.162,-14.4895 501.748,-11.951"/>
<polygon fill="midnightblue" stroke="midnightblue" points="502.046,-15.4422 511.905,-11.5616 501.778,-8.44738 502.046,-15.4422"/>
</g>
<!-- Node3 -->
<g id="node4" class="node"><title>Node3</title>
<polygon fill="white" stroke="#bfbfbf" points="422.5,-56.5 422.5,-75.5 463.5,-75.5 463.5,-56.5 422.5,-56.5"/>
<text text-anchor="middle" x="443" y="-63.5" font-family="Helvetica,sans-Serif" font-size="10.00">string</text>
</g>
<!-- Node1&#45;&gt;Node3 -->
<g id="edge3" class="edge"><title>Node1&#45;&gt;Node3</title>
<path fill="none" stroke="midnightblue" d="M347.881,-280.297C362.54,-247.425 414.731,-130.391 434.933,-85.0904"/>
<polygon fill="midnightblue" stroke="midnightblue" points="438.162,-86.4423 439.038,-75.8837 431.769,-83.5913 438.162,-86.4423"/>
</g>
<!-- Node4 -->
<g id="node5" class="node"><title>Node4</title>
<polygon fill="white" stroke="#bfbfbf" points="310,-56.5 310,-75.5 366,-75.5 366,-56.5 310,-56.5"/>
<text text-anchor="middle" x="338" y="-63.5" font-family="Helvetica,sans-Serif" font-size="10.00">algorithm</text>
</g>
<!-- Node1&#45;&gt;Node4 -->
<g id="edge4" class="edge"><title>Node1&#45;&gt;Node4</title>
<path fill="none" stroke="midnightblue" d="M318.993,-284.242C297.342,-278.658 267.32,-267.057 253,-244 217.867,-187.433 285.841,-114.136 320.026,-82.5762"/>
<polygon fill="midnightblue" stroke="midnightblue" points="322.439,-85.114 327.526,-75.8207 317.754,-79.9129 322.439,-85.114"/>
</g>
<!-- Node5 -->
<g id="node6" class="node"><title>Node5</title>
<polygon fill="white" stroke="#bfbfbf" points="262,-224.5 262,-243.5 316,-243.5 316,-224.5 262,-224.5"/>
<text text-anchor="middle" x="289" y="-231.5" font-family="Helvetica,sans-Serif" font-size="10.00">iostream</text>
</g>
<!-- Node1&#45;&gt;Node5 -->
<g id="edge5" class="edge"><title>Node1&#45;&gt;Node5</title>
<path fill="none" stroke="midnightblue" d="M334.918,-280.083C326.829,-272.141 314.805,-260.335 305.09,-250.797"/>
<polygon fill="midnightblue" stroke="midnightblue" points="307.501,-248.26 297.913,-243.751 302.597,-253.254 307.501,-248.26"/>
</g>
<!-- Node6 -->
<g id="node7" class="node"><title>Node6</title>
<polygon fill="white" stroke="#bfbfbf" points="0,-0.5 0,-19.5 104,-19.5 104,-0.5 0,-0.5"/>
<text text-anchor="middle" x="52" y="-7.5" font-family="Helvetica,sans-Serif" font-size="10.00">SFML/Graphics.hpp</text>
</g>
<!-- Node1&#45;&gt;Node6 -->
<g id="edge6" class="edge"><title>Node1&#45;&gt;Node6</title>
<path fill="none" stroke="midnightblue" d="M318.866,-288.754C252.66,-287.594 75.6342,-281.022 33,-244 10.2744,-224.266 14,-209.098 14,-179 14,-179 14,-179 14,-121 14,-86.8131 30.6005,-49.7639 41.8573,-28.5707"/>
<polygon fill="midnightblue" stroke="midnightblue" points="44.9473,-30.2151 46.7163,-19.769 38.8191,-26.832 44.9473,-30.2151"/>
</g>
<!-- Node7 -->
<g id="node8" class="node"><title>Node7</title>
<polygon fill="white" stroke="#bfbfbf" points="261,-0.5 261,-19.5 359,-19.5 359,-0.5 261,-0.5"/>
<text text-anchor="middle" x="310" y="-7.5" font-family="Helvetica,sans-Serif" font-size="10.00">SFML/System.hpp</text>
</g>
<!-- Node1&#45;&gt;Node7 -->
<g id="edge7" class="edge"><title>Node1&#45;&gt;Node7</title>
<path fill="none" stroke="midnightblue" d="M318.915,-285.942C268.145,-278.206 158,-252.907 158,-179 158,-179 158,-179 158,-121 158,-90.2048 160.055,-77.6046 182,-56 200.589,-37.6993 227.048,-26.8109 251.09,-20.3466"/>
<polygon fill="midnightblue" stroke="midnightblue" points="252.001,-23.7267 260.862,-17.9188 250.314,-16.9332 252.001,-23.7267"/>
</g>
<!-- Node8 -->
<g id="node9" class="node"><title>Node8</title>
<g id="a_node9"><a xlink:href="_capacite_8h.html" target="_top" xlink:title="Capacites/Capacite.h">
<polygon fill="white" stroke="black" points="524.5,-168.5 524.5,-187.5 635.5,-187.5 635.5,-168.5 524.5,-168.5"/>
<text text-anchor="middle" x="580" y="-175.5" font-family="Helvetica,sans-Serif" font-size="10.00">Capacites/Capacite.h</text>
</a>
</g>
</g>
<!-- Node1&#45;&gt;Node8 -->
<g id="edge8" class="edge"><title>Node1&#45;&gt;Node8</title>
<path fill="none" stroke="midnightblue" d="M369.204,-287.92C406.618,-285.256 477.822,-276.018 528,-244 546.588,-232.139 561.491,-211.327 570.498,-196.447"/>
<polygon fill="midnightblue" stroke="midnightblue" points="573.589,-198.092 575.545,-187.679 567.523,-194.599 573.589,-198.092"/>
</g>
<!-- Node9 -->
<g id="node10" class="node"><title>Node9</title>
<g id="a_node10"><a xlink:href="_projectile_8h.html" target="_top" xlink:title="../Projectiles/Projectile.h">
<polygon fill="white" stroke="black" points="604.5,-112.5 604.5,-131.5 727.5,-131.5 727.5,-112.5 604.5,-112.5"/>
<text text-anchor="middle" x="666" y="-119.5" font-family="Helvetica,sans-Serif" font-size="10.00">../Projectiles/Projectile.h</text>
</a>
</g>
</g>
<!-- Node1&#45;&gt;Node9 -->
<g id="edge22" class="edge"><title>Node1&#45;&gt;Node9</title>
<path fill="none" stroke="midnightblue" d="M369.066,-286.459C409.292,-281.764 490.213,-269.762 554,-244 597.683,-226.357 614.734,-224.919 644,-188 654.628,-174.593 660.255,-155.773 663.148,-141.832"/>
<polygon fill="midnightblue" stroke="midnightblue" points="666.61,-142.354 664.924,-131.894 659.719,-141.122 666.61,-142.354"/>
</g>
<!-- Node12 -->
<g id="node13" class="node"><title>Node12</title>
<g id="a_node13"><a xlink:href="_vaisseau_8h.html" target="_top" xlink:title="Vaisseau/Vaisseau.h">
<polygon fill="white" stroke="black" points="410.5,-224.5 410.5,-243.5 519.5,-243.5 519.5,-224.5 410.5,-224.5"/>
<text text-anchor="middle" x="465" y="-231.5" font-family="Helvetica,sans-Serif" font-size="10.00">Vaisseau/Vaisseau.h</text>
</a>
</g>
</g>
<!-- Node1&#45;&gt;Node12 -->
<g id="edge23" class="edge"><title>Node1&#45;&gt;Node12</title>
<path fill="none" stroke="midnightblue" d="M363.173,-280.444C382.909,-271.636 413.885,-257.812 436.493,-247.722"/>
<polygon fill="midnightblue" stroke="midnightblue" points="438.211,-250.788 445.917,-243.516 435.359,-244.396 438.211,-250.788"/>
</g>
<!-- Node13 -->
<g id="node14" class="node"><title>Node13</title>
<g id="a_node14"><a xlink:href="_input_8h.html" target="_top" xlink:title="Interface/Input.h">
<polygon fill="white" stroke="black" points="42,-224.5 42,-243.5 130,-243.5 130,-224.5 42,-224.5"/>
<text text-anchor="middle" x="86" y="-231.5" font-family="Helvetica,sans-Serif" font-size="10.00">Interface/Input.h</text>
</a>
</g>
</g>
<!-- Node1&#45;&gt;Node13 -->
<g id="edge30" class="edge"><title>Node1&#45;&gt;Node13</title>
<path fill="none" stroke="midnightblue" d="M318.792,-283.724C276.775,-274.93 191.632,-257.109 136.787,-245.63"/>
<polygon fill="midnightblue" stroke="midnightblue" points="137.421,-242.187 126.916,-243.564 135.987,-249.038 137.421,-242.187"/>
</g>
<!-- Node8&#45;&gt;Node2 -->
<g id="edge9" class="edge"><title>Node8&#45;&gt;Node2</title>
<path fill="none" stroke="midnightblue" d="M577.527,-168.075C570.286,-141.945 549.022,-65.2106 539.148,-29.577"/>
<polygon fill="midnightblue" stroke="midnightblue" points="542.418,-28.2703 536.374,-19.5681 535.672,-30.1396 542.418,-28.2703"/>
</g>
<!-- Node8&#45;&gt;Node3 -->
<g id="edge10" class="edge"><title>Node8&#45;&gt;Node3</title>
<path fill="none" stroke="midnightblue" d="M569.25,-168.368C546.041,-149.733 490.99,-105.532 461.849,-82.1338"/>
<polygon fill="midnightblue" stroke="midnightblue" points="463.689,-79.1231 453.7,-75.5914 459.307,-84.5814 463.689,-79.1231"/>
</g>
<!-- Node8&#45;&gt;Node4 -->
<g id="edge11" class="edge"><title>Node8&#45;&gt;Node4</title>
<path fill="none" stroke="midnightblue" d="M561.011,-168.368C518.6,-149.091 415.998,-102.454 366.137,-79.7894"/>
<polygon fill="midnightblue" stroke="midnightblue" points="367.453,-76.5432 356.901,-75.5914 364.556,-82.9158 367.453,-76.5432"/>
</g>
<!-- Node8&#45;&gt;Node9 -->
<g id="edge12" class="edge"><title>Node8&#45;&gt;Node9</title>
<path fill="none" stroke="midnightblue" d="M593.817,-168.324C607.233,-159.9 627.824,-146.971 643.586,-137.074"/>
<polygon fill="midnightblue" stroke="midnightblue" points="645.609,-139.936 652.217,-131.655 641.887,-134.008 645.609,-139.936"/>
</g>
<!-- Node10 -->
<g id="node11" class="node"><title>Node10</title>
<g id="a_node11"><a xlink:href="_entite_8h.html" target="_top" xlink:title="../Entite.h">
<polygon fill="white" stroke="black" points="566.5,-56.5 566.5,-75.5 625.5,-75.5 625.5,-56.5 566.5,-56.5"/>
<text text-anchor="middle" x="596" y="-63.5" font-family="Helvetica,sans-Serif" font-size="10.00">../Entite.h</text>
</a>
</g>
</g>
<!-- Node8&#45;&gt;Node10 -->
<g id="edge21" class="edge"><title>Node8&#45;&gt;Node10</title>
<path fill="none" stroke="midnightblue" d="M581.255,-168.368C583.838,-150.617 589.794,-109.666 593.295,-85.5974"/>
<polygon fill="midnightblue" stroke="midnightblue" points="596.774,-85.9911 594.75,-75.5914 589.847,-84.9835 596.774,-85.9911"/>
</g>
<!-- Node9&#45;&gt;Node2 -->
<g id="edge13" class="edge"><title>Node9&#45;&gt;Node2</title>
<path fill="none" stroke="midnightblue" d="M663.78,-112.283C659.895,-98.6237 650.646,-72.0794 634,-56 623.725,-46.0747 591.129,-32.3211 565.915,-22.6389"/>
<polygon fill="midnightblue" stroke="midnightblue" points="566.925,-19.279 556.333,-19.0168 564.45,-25.8268 566.925,-19.279"/>
</g>
<!-- Node9&#45;&gt;Node3 -->
<g id="edge14" class="edge"><title>Node9&#45;&gt;Node3</title>
<path fill="none" stroke="midnightblue" d="M630.665,-112.444C587.394,-101.965 514.809,-84.3888 473.745,-74.445"/>
<polygon fill="midnightblue" stroke="midnightblue" points="474.321,-70.9834 463.778,-72.0315 472.674,-77.7868 474.321,-70.9834"/>
</g>
<!-- Node9&#45;&gt;Node4 -->
<g id="edge15" class="edge"><title>Node9&#45;&gt;Node4</title>
<path fill="none" stroke="midnightblue" d="M614.027,-112.444C547.909,-101.558 435.257,-83.0118 376.395,-73.3211"/>
<polygon fill="midnightblue" stroke="midnightblue" points="376.832,-69.846 366.396,-71.6749 375.694,-76.753 376.832,-69.846"/>
</g>
<!-- Node9&#45;&gt;Node10 -->
<g id="edge16" class="edge"><title>Node9&#45;&gt;Node10</title>
<path fill="none" stroke="midnightblue" d="M654.753,-112.324C644.203,-104.185 628.199,-91.8395 615.558,-82.0874"/>
<polygon fill="midnightblue" stroke="midnightblue" points="617.507,-79.1707 607.451,-75.8339 613.231,-84.7132 617.507,-79.1707"/>
</g>
<!-- Node10&#45;&gt;Node2 -->
<g id="edge17" class="edge"><title>Node10&#45;&gt;Node2</title>
<path fill="none" stroke="midnightblue" d="M586.039,-56.324C576.873,-48.3414 563.063,-36.3128 551.972,-26.6529"/>
<polygon fill="midnightblue" stroke="midnightblue" points="553.982,-23.7624 544.143,-19.8339 549.385,-29.041 553.982,-23.7624"/>
</g>
<!-- Node10&#45;&gt;Node6 -->
<g id="edge20" class="edge"><title>Node10&#45;&gt;Node6</title>
<path fill="none" stroke="midnightblue" d="M566.366,-62.0584C480.707,-53.5554 231.452,-28.8132 114.262,-17.1804"/>
<polygon fill="midnightblue" stroke="midnightblue" points="114.317,-13.6688 104.02,-16.1638 113.626,-20.6346 114.317,-13.6688"/>
</g>
<!-- Node10&#45;&gt;Node7 -->
<g id="edge19" class="edge"><title>Node10&#45;&gt;Node7</title>
<path fill="none" stroke="midnightblue" d="M566.47,-59.4244C519.115,-50.4833 425.426,-32.7937 365.345,-21.4498"/>
<polygon fill="midnightblue" stroke="midnightblue" points="365.746,-17.9638 355.271,-19.5476 364.448,-24.8423 365.746,-17.9638"/>
</g>
<!-- Node11 -->
<g id="node12" class="node"><title>Node11</title>
<polygon fill="white" stroke="#bfbfbf" points="574,-0.5 574,-19.5 626,-19.5 626,-0.5 574,-0.5"/>
<text text-anchor="middle" x="600" y="-7.5" font-family="Helvetica,sans-Serif" font-size="10.00">memory</text>
</g>
<!-- Node10&#45;&gt;Node11 -->
<g id="edge18" class="edge"><title>Node10&#45;&gt;Node11</title>
<path fill="none" stroke="midnightblue" d="M596.661,-56.083C597.185,-49.0059 597.936,-38.8611 598.594,-29.9865"/>
<polygon fill="midnightblue" stroke="midnightblue" points="602.103,-29.9823 599.352,-19.7511 595.123,-29.4652 602.103,-29.9823"/>
</g>
<!-- Node12&#45;&gt;Node2 -->
<g id="edge24" class="edge"><title>Node12&#45;&gt;Node2</title>
<path fill="none" stroke="midnightblue" d="M445.593,-224.481C391.233,-199.489 245.001,-123.849 301,-56 326.12,-25.564 444.128,-15.4803 501.931,-12.3327"/>
<polygon fill="midnightblue" stroke="midnightblue" points="502.178,-15.8247 511.988,-11.8223 501.824,-8.83373 502.178,-15.8247"/>
</g>
<!-- Node12&#45;&gt;Node3 -->
<g id="edge25" class="edge"><title>Node12&#45;&gt;Node3</title>
<path fill="none" stroke="midnightblue" d="M459.639,-224.438C454.486,-215.669 447.043,-201.454 444,-188 435.994,-152.607 438.337,-109.887 440.708,-85.8423"/>
<polygon fill="midnightblue" stroke="midnightblue" points="444.214,-85.9752 441.829,-75.6524 437.256,-85.2097 444.214,-85.9752"/>
</g>
<!-- Node12&#45;&gt;Node4 -->
<g id="edge26" class="edge"><title>Node12&#45;&gt;Node4</title>
<path fill="none" stroke="midnightblue" d="M458.172,-224.075C437.835,-197.493 377.43,-118.538 350.825,-83.7633"/>
<polygon fill="midnightblue" stroke="midnightblue" points="353.411,-81.3836 344.555,-75.5681 347.852,-85.6371 353.411,-81.3836"/>
</g>
<!-- Node12&#45;&gt;Node8 -->
<g id="edge27" class="edge"><title>Node12&#45;&gt;Node8</title>
<path fill="none" stroke="midnightblue" d="M483.222,-224.444C501.896,-215.675 531.156,-201.935 552.617,-191.858"/>
<polygon fill="midnightblue" stroke="midnightblue" points="554.299,-194.935 561.863,-187.516 551.324,-188.599 554.299,-194.935"/>
</g>
<!-- Node12&#45;&gt;Node9 -->
<g id="edge29" class="edge"><title>Node12&#45;&gt;Node9</title>
<path fill="none" stroke="midnightblue" d="M469.276,-224.443C476.672,-210.518 493.18,-183.004 515,-168 539.491,-151.159 570.395,-140.508 597.855,-133.825"/>
<polygon fill="midnightblue" stroke="midnightblue" points="598.837,-137.191 607.798,-131.539 597.268,-130.369 598.837,-137.191"/>
</g>
<!-- Node12&#45;&gt;Node10 -->
<g id="edge28" class="edge"><title>Node12&#45;&gt;Node10</title>
<path fill="none" stroke="midnightblue" d="M466.998,-224.435C470.304,-211.436 477.787,-186.305 490,-168 513.768,-132.376 552.162,-99.8968 575.636,-81.8525"/>
<polygon fill="midnightblue" stroke="midnightblue" points="577.963,-84.4817 583.841,-75.6671 573.749,-78.8921 577.963,-84.4817"/>
</g>
<!-- Node13&#45;&gt;Node6 -->
<g id="edge31" class="edge"><title>Node13&#45;&gt;Node6</title>
<path fill="none" stroke="midnightblue" d="M82.4363,-224.193C78.9614,-215.234 73.8026,-200.875 71,-188 58.6464,-131.25 54.1913,-62.4392 52.6954,-29.8545"/>
<polygon fill="midnightblue" stroke="midnightblue" points="56.1807,-29.4244 52.2691,-19.5781 49.1867,-29.7146 56.1807,-29.4244"/>
</g>
<!-- Node14 -->
<g id="node15" class="node"><title>Node14</title>
<polygon fill="white" stroke="#bfbfbf" points="80,-168.5 80,-187.5 130,-187.5 130,-168.5 80,-168.5"/>
<text text-anchor="middle" x="105" y="-175.5" font-family="Helvetica,sans-Serif" font-size="10.00">optional</text>
</g>
<!-- Node13&#45;&gt;Node14 -->
<g id="edge32" class="edge"><title>Node13&#45;&gt;Node14</title>
<path fill="none" stroke="midnightblue" d="M89.1375,-224.083C91.6829,-216.849 95.3562,-206.409 98.5271,-197.397"/>
<polygon fill="midnightblue" stroke="midnightblue" points="101.903,-198.346 101.921,-187.751 95.3002,-196.023 101.903,-198.346"/>
</g>
<!-- Node15&#45;&gt;Node16 -->
<g id="edge34" class="edge"><title>Node15&#45;&gt;Node16</title>
<path fill="none" stroke="midnightblue" d="M957.058,-224.324C942.415,-215.822 919.866,-202.729 902.762,-192.797"/>
<polygon fill="midnightblue" stroke="midnightblue" points="904.31,-189.649 893.905,-187.655 900.795,-195.703 904.31,-189.649"/>
</g>
<!-- Node17 -->
<g id="node18" class="node"><title>Node17</title>
<g id="a_node18"><a xlink:href="_proj_piou_8h.html" target="_top" xlink:title="ProjPiou.h">
<polygon fill="white" stroke="black" points="730,-168.5 730,-187.5 792,-187.5 792,-168.5 730,-168.5"/>
<text text-anchor="middle" x="761" y="-175.5" font-family="Helvetica,sans-Serif" font-size="10.00">ProjPiou.h</text>
</a>
</g>
</g>
<!-- Node15&#45;&gt;Node17 -->
<g id="edge36" class="edge"><title>Node15&#45;&gt;Node17</title>
<path fill="none" stroke="midnightblue" d="M938.566,-224.444C901.58,-214.978 841.956,-199.719 802.135,-189.527"/>
<polygon fill="midnightblue" stroke="midnightblue" points="802.769,-186.077 792.214,-186.988 801.034,-192.858 802.769,-186.077"/>
</g>
<!-- Node16&#45;&gt;Node9 -->
<g id="edge35" class="edge"><title>Node16&#45;&gt;Node9</title>
<path fill="none" stroke="midnightblue" d="M847.571,-169.032C811.009,-159.763 750.429,-144.405 709.396,-134.002"/>
<polygon fill="midnightblue" stroke="midnightblue" points="710.223,-130.601 699.67,-131.536 708.503,-137.386 710.223,-130.601"/>
</g>
<!-- Node17&#45;&gt;Node9 -->
<g id="edge37" class="edge"><title>Node17&#45;&gt;Node9</title>
<path fill="none" stroke="midnightblue" d="M745.737,-168.324C730.779,-159.822 707.745,-146.729 690.273,-136.797"/>
<polygon fill="midnightblue" stroke="midnightblue" points="691.649,-133.553 681.226,-131.655 688.19,-139.639 691.649,-133.553"/>
</g>
<!-- Node19 -->
<g id="node20" class="node"><title>Node19</title>
<g id="a_node20"><a xlink:href="_cap_test_8h.html" target="_top" xlink:title="CapTest.h">
<polygon fill="white" stroke="black" points="746,-224.5 746,-243.5 808,-243.5 808,-224.5 746,-224.5"/>
<text text-anchor="middle" x="777" y="-231.5" font-family="Helvetica,sans-Serif" font-size="10.00">CapTest.h</text>
</a>
</g>
</g>
<!-- Node18&#45;&gt;Node19 -->
<g id="edge39" class="edge"><title>Node18&#45;&gt;Node19</title>
<path fill="none" stroke="midnightblue" d="M778.67,-280.083C778.408,-273.006 778.032,-262.861 777.703,-253.986"/>
<polygon fill="midnightblue" stroke="midnightblue" points="781.192,-253.615 777.324,-243.751 774.197,-253.874 781.192,-253.615"/>
</g>
<!-- Node20 -->
<g id="node21" class="node"><title>Node20</title>
<g id="a_node21"><a xlink:href="_cap_piou_8h.html" target="_top" xlink:title="CapPiou.h">
<polygon fill="white" stroke="black" points="666,-224.5 666,-243.5 728,-243.5 728,-224.5 666,-224.5"/>
<text text-anchor="middle" x="697" y="-231.5" font-family="Helvetica,sans-Serif" font-size="10.00">CapPiou.h</text>
</a>
</g>
</g>
<!-- Node18&#45;&gt;Node20 -->
<g id="edge43" class="edge"><title>Node18&#45;&gt;Node20</title>
<path fill="none" stroke="midnightblue" d="M765.825,-280.324C753.153,-271.979 733.767,-259.212 718.794,-249.352"/>
<polygon fill="midnightblue" stroke="midnightblue" points="720.419,-246.231 710.142,-243.655 716.569,-252.078 720.419,-246.231"/>
</g>
<!-- Node21 -->
<g id="node22" class="node"><title>Node21</title>
<g id="a_node22"><a xlink:href="_cap_dash_8h.html" target="_top" xlink:title="CapDash.h">
<polygon fill="white" stroke="black" points="826,-224.5 826,-243.5 892,-243.5 892,-224.5 826,-224.5"/>
<text text-anchor="middle" x="859" y="-231.5" font-family="Helvetica,sans-Serif" font-size="10.00">CapDash.h</text>
</a>
</g>
</g>
<!-- Node18&#45;&gt;Node21 -->
<g id="edge47" class="edge"><title>Node18&#45;&gt;Node21</title>
<path fill="none" stroke="midnightblue" d="M791.853,-280.324C804.216,-271.979 823.13,-259.212 837.737,-249.352"/>
<polygon fill="midnightblue" stroke="midnightblue" points="839.848,-252.15 846.179,-243.655 835.932,-246.348 839.848,-252.15"/>
</g>
<!-- Node19&#45;&gt;Node8 -->
<g id="edge40" class="edge"><title>Node19&#45;&gt;Node8</title>
<path fill="none" stroke="midnightblue" d="M745.785,-224.444C712.067,-215.201 658.2,-200.436 621.068,-190.257"/>
<polygon fill="midnightblue" stroke="midnightblue" points="621.639,-186.785 611.069,-187.516 619.788,-193.536 621.639,-186.785"/>
</g>
<!-- Node19&#45;&gt;Node9 -->
<g id="edge41" class="edge"><title>Node19&#45;&gt;Node9</title>
<path fill="none" stroke="midnightblue" d="M785.066,-224.298C796.27,-211.121 813.801,-185.761 801,-168 786.209,-147.479 761.653,-136.174 737.51,-129.997"/>
<polygon fill="midnightblue" stroke="midnightblue" points="738.109,-126.543 727.581,-127.724 736.548,-133.367 738.109,-126.543"/>
</g>
<!-- Node19&#45;&gt;Node16 -->
<g id="edge42" class="edge"><title>Node19&#45;&gt;Node16</title>
<path fill="none" stroke="midnightblue" d="M793.388,-224.324C809.671,-215.703 834.867,-202.364 853.716,-192.386"/>
<polygon fill="midnightblue" stroke="midnightblue" points="855.452,-195.427 862.653,-187.655 852.177,-189.24 855.452,-195.427"/>
</g>
<!-- Node20&#45;&gt;Node8 -->
<g id="edge44" class="edge"><title>Node20&#45;&gt;Node8</title>
<path fill="none" stroke="midnightblue" d="M678.461,-224.444C659.377,-215.636 629.425,-201.812 607.564,-191.722"/>
<polygon fill="midnightblue" stroke="midnightblue" points="608.999,-188.529 598.452,-187.516 606.065,-194.885 608.999,-188.529"/>
</g>
<!-- Node20&#45;&gt;Node9 -->
<g id="edge45" class="edge"><title>Node20&#45;&gt;Node9</title>
<path fill="none" stroke="midnightblue" d="M694.567,-224.368C689.542,-206.537 677.92,-165.295 671.149,-141.272"/>
<polygon fill="midnightblue" stroke="midnightblue" points="674.503,-140.267 668.421,-131.591 667.765,-142.166 674.503,-140.267"/>
</g>
<!-- Node20&#45;&gt;Node17 -->
<g id="edge46" class="edge"><title>Node20&#45;&gt;Node17</title>
<path fill="none" stroke="midnightblue" d="M707.283,-224.324C716.836,-216.263 731.28,-204.077 742.784,-194.369"/>
<polygon fill="midnightblue" stroke="midnightblue" points="745.144,-196.958 750.53,-187.834 740.63,-191.608 745.144,-196.958"/>
</g>
<!-- Node21&#45;&gt;Node8 -->
<g id="edge48" class="edge"><title>Node21&#45;&gt;Node8</title>
<path fill="none" stroke="midnightblue" d="M825.544,-225.757C822.656,-225.154 819.778,-224.561 817,-224 755.488,-211.571 684.788,-198.275 636.73,-189.385"/>
<polygon fill="midnightblue" stroke="midnightblue" points="637.3,-185.931 626.831,-187.557 636.029,-192.815 637.3,-185.931"/>
</g>
<!-- Node21&#45;&gt;Node10 -->
<g id="edge49" class="edge"><title>Node21&#45;&gt;Node10</title>
<path fill="none" stroke="midnightblue" d="M877.606,-224.305C900.646,-212.334 935.008,-189.779 919,-168 884.948,-121.674 714.179,-87.1498 635.637,-73.4583"/>
<polygon fill="midnightblue" stroke="midnightblue" points="636.084,-69.984 625.636,-71.7409 634.9,-76.883 636.084,-69.984"/>
</g>
<!-- Node21&#45;&gt;Node16 -->
<g id="edge50" class="edge"><title>Node21&#45;&gt;Node16</title>
<path fill="none" stroke="midnightblue" d="M862.303,-224.083C864.982,-216.849 868.849,-206.409 872.186,-197.397"/>
<polygon fill="midnightblue" stroke="midnightblue" points="875.568,-198.344 875.759,-187.751 869.004,-195.913 875.568,-198.344"/>
</g>
<!-- Node22&#45;&gt;Node8 -->
<g id="edge54" class="edge"><title>Node22&#45;&gt;Node8</title>
<path fill="none" stroke="midnightblue" d="M631.606,-280.368C622.446,-262.376 601.153,-220.55 588.974,-196.627"/>
<polygon fill="midnightblue" stroke="midnightblue" points="592.03,-194.915 584.374,-187.591 585.792,-198.091 592.03,-194.915"/>
</g>
<!-- Node22&#45;&gt;Node12 -->
<g id="edge53" class="edge"><title>Node22&#45;&gt;Node12</title>
<path fill="none" stroke="midnightblue" d="M608.905,-280.444C580.012,-271.32 534.075,-256.813 501.895,-246.651"/>
<polygon fill="midnightblue" stroke="midnightblue" points="502.559,-243.19 491.969,-243.516 500.451,-249.865 502.559,-243.19"/>
</g>
</g>
</svg>
