<?xml version="1.0" encoding="UTF-8" standalone="no"?>
<!DOCTYPE svg PUBLIC "-//W3C//DTD SVG 1.1//EN"
 "http://www.w3.org/Graphics/SVG/1.1/DTD/svg11.dtd">
<!-- Generated by graphviz version 2.38.0 (20140413.2041)
 -->
<!-- Title: src/Partie.cpp Pages: 1 -->
<svg width="1581pt" height="532pt"
 viewBox="0.00 0.00 1581.00 532.00" xmlns="http://www.w3.org/2000/svg" xmlns:xlink="http://www.w3.org/1999/xlink">
<g id="graph0" class="graph" transform="scale(1 1) rotate(0) translate(4 528)">
<title>src/Partie.cpp</title>
<polygon fill="white" stroke="none" points="-4,4 -4,-528 1577,-528 1577,4 -4,4"/>
<!-- Node0 -->
<g id="node1" class="node"><title>Node0</title>
<polygon fill="#bfbfbf" stroke="black" points="434.5,-504.5 434.5,-523.5 511.5,-523.5 511.5,-504.5 434.5,-504.5"/>
<text text-anchor="middle" x="473" y="-511.5" font-family="Helvetica,sans-Serif" font-size="10.00">src/Partie.cpp</text>
</g>
<!-- Node1 -->
<g id="node2" class="node"><title>Node1</title>
<g id="a_node2"><a xlink:href="_partie_8h.html" target="_top" xlink:title="Partie.h">
<polygon fill="white" stroke="black" points="327,-280.5 327,-299.5 377,-299.5 377,-280.5 327,-280.5"/>
<text text-anchor="middle" x="352" y="-287.5" font-family="Helvetica,sans-Serif" font-size="10.00">Partie.h</text>
</a>
</g>
</g>
<!-- Node0&#45;&gt;Node1 -->
<g id="edge1" class="edge"><title>Node0&#45;&gt;Node1</title>
<path fill="none" stroke="midnightblue" d="M465.96,-504.347C458.938,-495.507 448.063,-481.239 440,-468 406.159,-412.439 374.182,-342.106 359.865,-309.346"/>
<polygon fill="midnightblue" stroke="midnightblue" points="362.896,-307.537 355.71,-299.752 356.473,-310.319 362.896,-307.537"/>
</g>
<!-- Node18 -->
<g id="node19" class="node"><title>Node18</title>
<g id="a_node19"><a xlink:href="__projectiles_8h.html" target="_top" xlink:title="Projectiles/_projectiles.h">
<polygon fill="white" stroke="black" points="520.5,-224.5 520.5,-243.5 643.5,-243.5 643.5,-224.5 520.5,-224.5"/>
<text text-anchor="middle" x="582" y="-231.5" font-family="Helvetica,sans-Serif" font-size="10.00">Projectiles/_projectiles.h</text>
</a>
</g>
</g>
<!-- Node0&#45;&gt;Node18 -->
<g id="edge41" class="edge"><title>Node0&#45;&gt;Node18</title>
<path fill="none" stroke="midnightblue" d="M470.438,-504.249C465.251,-485.738 454,-441.179 454,-403 454,-403 454,-403 454,-345 454,-295.644 509.419,-263.614 547.326,-247.479"/>
<polygon fill="midnightblue" stroke="midnightblue" points="549.075,-250.546 557.016,-243.533 546.435,-244.063 549.075,-250.546"/>
</g>
<!-- Node22 -->
<g id="node23" class="node"><title>Node22</title>
<g id="a_node23"><a xlink:href="___capacites_8h.html" target="_top" xlink:title="Capacites/_Capacites.h">
<polygon fill="white" stroke="black" points="716,-280.5 716,-299.5 838,-299.5 838,-280.5 716,-280.5"/>
<text text-anchor="middle" x="777" y="-287.5" font-family="Helvetica,sans-Serif" font-size="10.00">Capacites/_Capacites.h</text>
</a>
</g>
</g>
<!-- Node0&#45;&gt;Node22 -->
<g id="edge48" class="edge"><title>Node0&#45;&gt;Node22</title>
<path fill="none" stroke="midnightblue" d="M484.917,-504.297C531.078,-470.588 698.434,-348.374 756.773,-305.771"/>
<polygon fill="midnightblue" stroke="midnightblue" points="759.153,-308.367 765.165,-299.643 755.025,-302.713 759.153,-308.367"/>
</g>
<!-- Node27 -->
<g id="node28" class="node"><title>Node27</title>
<g id="a_node28"><a xlink:href="__vaisseaux_8h.html" target="_top" xlink:title="Vaisseau/_vaisseaux.h">
<polygon fill="white" stroke="black" points="1224,-392.5 1224,-411.5 1342,-411.5 1342,-392.5 1224,-392.5"/>
<text text-anchor="middle" x="1283" y="-399.5" font-family="Helvetica,sans-Serif" font-size="10.00">Vaisseau/_vaisseaux.h</text>
</a>
</g>
</g>
<!-- Node0&#45;&gt;Node27 -->
<g id="edge64" class="edge"><title>Node0&#45;&gt;Node27</title>
<path fill="none" stroke="midnightblue" d="M511.68,-511.118C596.267,-506.656 803.891,-493.824 976,-468 1070.73,-453.786 1180.16,-428.434 1239.4,-413.95"/>
<polygon fill="midnightblue" stroke="midnightblue" points="1240.29,-417.335 1249.17,-411.549 1238.62,-410.537 1240.29,-417.335"/>
</g>
<!-- Node35 -->
<g id="node36" class="node"><title>Node35</title>
<g id="a_node36"><a xlink:href="bindings_8h.html" target="_top" xlink:title="Interface/bindings.h">
<polygon fill="white" stroke="black" points="188,-392.5 188,-411.5 290,-411.5 290,-392.5 188,-392.5"/>
<text text-anchor="middle" x="239" y="-399.5" font-family="Helvetica,sans-Serif" font-size="10.00">Interface/bindings.h</text>
</a>
</g>
</g>
<!-- Node0&#45;&gt;Node35 -->
<g id="edge89" class="edge"><title>Node0&#45;&gt;Node35</title>
<path fill="none" stroke="midnightblue" d="M445.801,-504.468C420.71,-496.247 382.665,-482.892 351,-468 318.424,-452.679 282.781,-431.094 260.653,-417.075"/>
<polygon fill="midnightblue" stroke="midnightblue" points="262.356,-414.01 252.046,-411.571 258.585,-419.907 262.356,-414.01"/>
</g>
<!-- Node36 -->
<g id="node37" class="node"><title>Node36</title>
<g id="a_node37"><a xlink:href="vague_8h.html" target="_top" xlink:title="vague.h">
<polygon fill="white" stroke="black" points="916.5,-448.5 916.5,-467.5 967.5,-467.5 967.5,-448.5 916.5,-448.5"/>
<text text-anchor="middle" x="942" y="-455.5" font-family="Helvetica,sans-Serif" font-size="10.00">vague.h</text>
</a>
</g>
</g>
<!-- Node0&#45;&gt;Node36 -->
<g id="edge91" class="edge"><title>Node0&#45;&gt;Node36</title>
<path fill="none" stroke="midnightblue" d="M511.779,-508.535C601.107,-498.25 820.298,-473.013 906.425,-463.096"/>
<polygon fill="midnightblue" stroke="midnightblue" points="906.954,-466.558 916.488,-461.937 906.153,-459.604 906.954,-466.558"/>
</g>
<!-- Node2 -->
<g id="node3" class="node"><title>Node2</title>
<polygon fill="white" stroke="#bfbfbf" points="1194,-0.5 1194,-19.5 1238,-19.5 1238,-0.5 1194,-0.5"/>
<text text-anchor="middle" x="1216" y="-7.5" font-family="Helvetica,sans-Serif" font-size="10.00">vector</text>
</g>
<!-- Node1&#45;&gt;Node2 -->
<g id="edge2" class="edge"><title>Node1&#45;&gt;Node2</title>
<path fill="none" stroke="midnightblue" d="M354.188,-280.237C357.588,-267.412 364.825,-242.993 375,-224 407.654,-163.045 420.158,-140.857 483,-112 611.322,-53.0756 1059.81,-20.8707 1183.94,-12.9489"/>
<polygon fill="midnightblue" stroke="midnightblue" points="1184.19,-16.4401 1193.95,-12.3181 1183.75,-9.454 1184.19,-16.4401"/>
</g>
<!-- Node3 -->
<g id="node4" class="node"><title>Node3</title>
<polygon fill="white" stroke="#bfbfbf" points="980.5,-56.5 980.5,-75.5 1021.5,-75.5 1021.5,-56.5 980.5,-56.5"/>
<text text-anchor="middle" x="1001" y="-63.5" font-family="Helvetica,sans-Serif" font-size="10.00">string</text>
</g>
<!-- Node1&#45;&gt;Node3 -->
<g id="edge3" class="edge"><title>Node1&#45;&gt;Node3</title>
<path fill="none" stroke="midnightblue" d="M361.36,-280.278C385.53,-258.212 452.79,-199.675 519,-168 604.588,-127.054 632.276,-132.105 725,-112 748.701,-106.861 903.542,-82.3302 970.373,-71.8093"/>
<polygon fill="midnightblue" stroke="midnightblue" points="970.975,-75.2578 980.309,-70.2462 969.887,-68.3428 970.975,-75.2578"/>
</g>
<!-- Node4 -->
<g id="node5" class="node"><title>Node4</title>
<polygon fill="white" stroke="#bfbfbf" points="878,-56.5 878,-75.5 934,-75.5 934,-56.5 878,-56.5"/>
<text text-anchor="middle" x="906" y="-63.5" font-family="Helvetica,sans-Serif" font-size="10.00">algorithm</text>
</g>
<!-- Node1&#45;&gt;Node4 -->
<g id="edge4" class="edge"><title>Node1&#45;&gt;Node4</title>
<path fill="none" stroke="midnightblue" d="M356.552,-280.449C368.15,-259.272 400.692,-203.535 440,-168 476.642,-134.875 489.183,-127.751 536,-112 652.142,-72.9242 798.919,-67.0354 867.456,-66.6171"/>
<polygon fill="midnightblue" stroke="midnightblue" points="867.776,-70.1164 877.767,-66.5927 867.759,-63.1164 867.776,-70.1164"/>
</g>
<!-- Node5 -->
<g id="node6" class="node"><title>Node5</title>
<polygon fill="white" stroke="#bfbfbf" points="258,-224.5 258,-243.5 312,-243.5 312,-224.5 258,-224.5"/>
<text text-anchor="middle" x="285" y="-231.5" font-family="Helvetica,sans-Serif" font-size="10.00">iostream</text>
</g>
<!-- Node1&#45;&gt;Node5 -->
<g id="edge5" class="edge"><title>Node1&#45;&gt;Node5</title>
<path fill="none" stroke="midnightblue" d="M341.235,-280.324C331.234,-272.263 316.113,-260.077 304.07,-250.369"/>
<polygon fill="midnightblue" stroke="midnightblue" points="305.943,-247.384 295.961,-243.834 301.55,-252.834 305.943,-247.384"/>
</g>
<!-- Node6 -->
<g id="node7" class="node"><title>Node6</title>
<polygon fill="white" stroke="#bfbfbf" points="210,-0.5 210,-19.5 314,-19.5 314,-0.5 210,-0.5"/>
<text text-anchor="middle" x="262" y="-7.5" font-family="Helvetica,sans-Serif" font-size="10.00">SFML/Graphics.hpp</text>
</g>
<!-- Node1&#45;&gt;Node6 -->
<g id="edge6" class="edge"><title>Node1&#45;&gt;Node6</title>
<path fill="none" stroke="midnightblue" d="M326.835,-285.721C252.324,-275.318 38,-240.083 38,-179 38,-179 38,-179 38,-121 38,-48.5744 133.516,-23.8316 199.804,-15.3809"/>
<polygon fill="midnightblue" stroke="midnightblue" points="200.244,-18.8533 209.765,-14.204 199.423,-11.9016 200.244,-18.8533"/>
</g>
<!-- Node7 -->
<g id="node8" class="node"><title>Node7</title>
<polygon fill="white" stroke="#bfbfbf" points="23,-0.5 23,-19.5 121,-19.5 121,-0.5 23,-0.5"/>
<text text-anchor="middle" x="72" y="-7.5" font-family="Helvetica,sans-Serif" font-size="10.00">SFML/System.hpp</text>
</g>
<!-- Node1&#45;&gt;Node7 -->
<g id="edge7" class="edge"><title>Node1&#45;&gt;Node7</title>
<path fill="none" stroke="midnightblue" d="M326.764,-289.069C277.215,-288.311 164.667,-282.129 80,-244 38.2281,-225.188 0,-224.812 0,-179 0,-179 0,-179 0,-121 0,-81.939 32.1765,-45.9442 53.5094,-26.3723"/>
<polygon fill="midnightblue" stroke="midnightblue" points="55.8839,-28.9449 61.0647,-19.7031 51.2514,-23.6969 55.8839,-28.9449"/>
</g>
<!-- Node8 -->
<g id="node9" class="node"><title>Node8</title>
<g id="a_node9"><a xlink:href="_capacite_8h.html" target="_top" xlink:title="Capacites/Capacite.h">
<polygon fill="white" stroke="black" points="886.5,-168.5 886.5,-187.5 997.5,-187.5 997.5,-168.5 886.5,-168.5"/>
<text text-anchor="middle" x="942" y="-175.5" font-family="Helvetica,sans-Serif" font-size="10.00">Capacites/Capacite.h</text>
</a>
</g>
</g>
<!-- Node1&#45;&gt;Node8 -->
<g id="edge8" class="edge"><title>Node1&#45;&gt;Node8</title>
<path fill="none" stroke="midnightblue" d="M377.229,-288.178C478.416,-284.711 851.579,-270.237 897,-244 915.154,-233.513 927.665,-212.399 934.804,-197.074"/>
<polygon fill="midnightblue" stroke="midnightblue" points="938.147,-198.159 938.891,-187.59 931.719,-195.388 938.147,-198.159"/>
</g>
<!-- Node9 -->
<g id="node10" class="node"><title>Node9</title>
<g id="a_node10"><a xlink:href="_projectile_8h.html" target="_top" xlink:title="../Projectiles/Projectile.h">
<polygon fill="white" stroke="black" points="734.5,-112.5 734.5,-131.5 857.5,-131.5 857.5,-112.5 734.5,-112.5"/>
<text text-anchor="middle" x="796" y="-119.5" font-family="Helvetica,sans-Serif" font-size="10.00">../Projectiles/Projectile.h</text>
</a>
</g>
</g>
<!-- Node1&#45;&gt;Node9 -->
<g id="edge23" class="edge"><title>Node1&#45;&gt;Node9</title>
<path fill="none" stroke="midnightblue" d="M377.284,-282.259C401.699,-275.062 439.116,-262.182 468,-244 509.778,-217.702 504.918,-190.22 549,-168 603.826,-140.365 673.099,-129.517 724.321,-125.349"/>
<polygon fill="midnightblue" stroke="midnightblue" points="724.604,-128.838 734.315,-124.602 724.082,-121.858 724.604,-128.838"/>
</g>
<!-- Node13 -->
<g id="node14" class="node"><title>Node13</title>
<g id="a_node14"><a xlink:href="_vaisseau_8h.html" target="_top" xlink:title="Vaisseau/Vaisseau.h">
<polygon fill="white" stroke="black" points="1074.5,-224.5 1074.5,-243.5 1183.5,-243.5 1183.5,-224.5 1074.5,-224.5"/>
<text text-anchor="middle" x="1129" y="-231.5" font-family="Helvetica,sans-Serif" font-size="10.00">Vaisseau/Vaisseau.h</text>
</a>
</g>
</g>
<!-- Node1&#45;&gt;Node13 -->
<g id="edge24" class="edge"><title>Node1&#45;&gt;Node13</title>
<path fill="none" stroke="midnightblue" d="M377.144,-287.519C465.998,-282.243 773.485,-263.633 1027,-244 1039.05,-243.067 1051.89,-241.995 1064.25,-240.924"/>
<polygon fill="midnightblue" stroke="midnightblue" points="1064.84,-244.386 1074.49,-240.027 1064.23,-237.412 1064.84,-244.386"/>
</g>
<!-- Node14 -->
<g id="node15" class="node"><title>Node14</title>
<g id="a_node15"><a xlink:href="_input_8h.html" target="_top" xlink:title="../Interface/Input.h">
<polygon fill="white" stroke="black" points="194.5,-168.5 194.5,-187.5 291.5,-187.5 291.5,-168.5 194.5,-168.5"/>
<text text-anchor="middle" x="243" y="-175.5" font-family="Helvetica,sans-Serif" font-size="10.00">../Interface/Input.h</text>
</a>
</g>
</g>
<!-- Node1&#45;&gt;Node14 -->
<g id="edge36" class="edge"><title>Node1&#45;&gt;Node14</title>
<path fill="none" stroke="midnightblue" d="M326.667,-285.348C302.499,-280.421 267.166,-269.154 249,-244 239.367,-230.661 238.73,-211.545 239.984,-197.496"/>
<polygon fill="midnightblue" stroke="midnightblue" points="243.463,-197.884 241.26,-187.521 236.52,-196.996 243.463,-197.884"/>
</g>
<!-- Node17 -->
<g id="node18" class="node"><title>Node17</title>
<g id="a_node18"><a xlink:href="_overlay_8h.html" target="_top" xlink:title="Interface/Overlay.h">
<polygon fill="white" stroke="black" points="104,-112.5 104,-131.5 204,-131.5 204,-112.5 104,-112.5"/>
<text text-anchor="middle" x="154" y="-119.5" font-family="Helvetica,sans-Serif" font-size="10.00">Interface/Overlay.h</text>
</a>
</g>
</g>
<!-- Node1&#45;&gt;Node17 -->
<g id="edge37" class="edge"><title>Node1&#45;&gt;Node17</title>
<path fill="none" stroke="midnightblue" d="M326.917,-282.543C302.749,-275.557 265.852,-262.828 238,-244 209.61,-224.808 204.39,-216.255 185,-188 174.952,-173.359 166.511,-154.956 160.987,-141.472"/>
<polygon fill="midnightblue" stroke="midnightblue" points="164.13,-139.9 157.207,-131.879 157.617,-142.466 164.13,-139.9"/>
</g>
<!-- Node8&#45;&gt;Node2 -->
<g id="edge9" class="edge"><title>Node8&#45;&gt;Node2</title>
<path fill="none" stroke="midnightblue" d="M956.346,-168.309C1001.1,-141.192 1138.45,-57.9802 1193.16,-24.8345"/>
<polygon fill="midnightblue" stroke="midnightblue" points="1195.06,-27.7803 1201.8,-19.6051 1191.43,-21.7933 1195.06,-27.7803"/>
</g>
<!-- Node8&#45;&gt;Node3 -->
<g id="edge10" class="edge"><title>Node8&#45;&gt;Node3</title>
<path fill="none" stroke="midnightblue" d="M946.63,-168.368C956.28,-150.376 978.714,-108.55 991.546,-84.6267"/>
<polygon fill="midnightblue" stroke="midnightblue" points="994.75,-86.0582 996.392,-75.5914 988.581,-82.7495 994.75,-86.0582"/>
</g>
<!-- Node8&#45;&gt;Node4 -->
<g id="edge11" class="edge"><title>Node8&#45;&gt;Node4</title>
<path fill="none" stroke="midnightblue" d="M939.175,-168.368C933.339,-150.537 919.842,-109.295 911.98,-85.2717"/>
<polygon fill="midnightblue" stroke="midnightblue" points="915.249,-84.0067 908.812,-75.5914 908.596,-86.1841 915.249,-84.0067"/>
</g>
<!-- Node8&#45;&gt;Node9 -->
<g id="edge12" class="edge"><title>Node8&#45;&gt;Node9</title>
<path fill="none" stroke="midnightblue" d="M918.866,-168.444C894.518,-159.438 855.993,-145.189 828.577,-135.049"/>
<polygon fill="midnightblue" stroke="midnightblue" points="829.619,-131.703 819.026,-131.516 827.191,-138.268 829.619,-131.703"/>
</g>
<!-- Node10 -->
<g id="node11" class="node"><title>Node10</title>
<g id="a_node11"><a xlink:href="_entite_8h.html" target="_top" xlink:title="../Entite.h">
<polygon fill="white" stroke="black" points="435.5,-56.5 435.5,-75.5 494.5,-75.5 494.5,-56.5 435.5,-56.5"/>
<text text-anchor="middle" x="465" y="-63.5" font-family="Helvetica,sans-Serif" font-size="10.00">../Entite.h</text>
</a>
</g>
</g>
<!-- Node8&#45;&gt;Node10 -->
<g id="edge22" class="edge"><title>Node8&#45;&gt;Node10</title>
<path fill="none" stroke="midnightblue" d="M935.099,-168.43C922.893,-153.961 895.94,-125 866,-112 801.704,-84.082 592.895,-72.3135 504.794,-68.5058"/>
<polygon fill="midnightblue" stroke="midnightblue" points="504.804,-65.0033 494.666,-68.0804 504.51,-71.9971 504.804,-65.0033"/>
</g>
<!-- Node9&#45;&gt;Node2 -->
<g id="edge13" class="edge"><title>Node9&#45;&gt;Node2</title>
<path fill="none" stroke="midnightblue" d="M802.573,-112.482C814.213,-98.0929 839.978,-69.2479 869,-56 924.832,-30.5139 1108.71,-17.2253 1183.71,-12.757"/>
<polygon fill="midnightblue" stroke="midnightblue" points="1184.18,-16.2358 1193.96,-12.1613 1183.78,-9.24758 1184.18,-16.2358"/>
</g>
<!-- Node9&#45;&gt;Node3 -->
<g id="edge14" class="edge"><title>Node9&#45;&gt;Node3</title>
<path fill="none" stroke="midnightblue" d="M828.483,-112.444C867.388,-102.195 932.073,-85.1565 970.211,-75.1103"/>
<polygon fill="midnightblue" stroke="midnightblue" points="971.442,-78.4055 980.221,-72.4736 969.659,-71.6364 971.442,-78.4055"/>
</g>
<!-- Node9&#45;&gt;Node4 -->
<g id="edge15" class="edge"><title>Node9&#45;&gt;Node4</title>
<path fill="none" stroke="midnightblue" d="M813.673,-112.324C831.394,-103.625 858.903,-90.1202 879.288,-80.113"/>
<polygon fill="midnightblue" stroke="midnightblue" points="880.936,-83.2031 888.37,-75.6545 877.851,-76.9195 880.936,-83.2031"/>
</g>
<!-- Node9&#45;&gt;Node10 -->
<g id="edge16" class="edge"><title>Node9&#45;&gt;Node10</title>
<path fill="none" stroke="midnightblue" d="M743.552,-112.444C677.173,-101.614 564.317,-83.2028 504.669,-73.4717"/>
<polygon fill="midnightblue" stroke="midnightblue" points="504.955,-69.9721 494.522,-71.8162 503.828,-76.8808 504.955,-69.9721"/>
</g>
<!-- Node10&#45;&gt;Node2 -->
<g id="edge17" class="edge"><title>Node10&#45;&gt;Node2</title>
<path fill="none" stroke="midnightblue" d="M494.727,-58.3396C499.482,-57.4419 504.363,-56.6188 509,-56 767.775,-21.4674 1083.49,-13.2631 1183.81,-11.4677"/>
<polygon fill="midnightblue" stroke="midnightblue" points="1183.96,-14.9657 1193.9,-11.2961 1183.84,-7.96671 1183.96,-14.9657"/>
</g>
<!-- Node10&#45;&gt;Node6 -->
<g id="edge20" class="edge"><title>Node10&#45;&gt;Node6</title>
<path fill="none" stroke="midnightblue" d="M435.482,-57.1479C400.886,-47.945 343.303,-32.6274 304.046,-22.1846"/>
<polygon fill="midnightblue" stroke="midnightblue" points="304.801,-18.764 294.238,-19.5756 303.002,-25.5287 304.801,-18.764"/>
</g>
<!-- Node10&#45;&gt;Node7 -->
<g id="edge19" class="edge"><title>Node10&#45;&gt;Node7</title>
<path fill="none" stroke="midnightblue" d="M435.461,-60.9412C370.964,-52.079 216.494,-30.8542 131.157,-19.1284"/>
<polygon fill="midnightblue" stroke="midnightblue" points="131.486,-15.6409 121.103,-17.747 130.533,-22.5757 131.486,-15.6409"/>
</g>
<!-- Node11 -->
<g id="node12" class="node"><title>Node11</title>
<polygon fill="white" stroke="#bfbfbf" points="439,-0.5 439,-19.5 491,-19.5 491,-0.5 439,-0.5"/>
<text text-anchor="middle" x="465" y="-7.5" font-family="Helvetica,sans-Serif" font-size="10.00">memory</text>
</g>
<!-- Node10&#45;&gt;Node11 -->
<g id="edge18" class="edge"><title>Node10&#45;&gt;Node11</title>
<path fill="none" stroke="midnightblue" d="M465,-56.083C465,-49.0059 465,-38.8611 465,-29.9865"/>
<polygon fill="midnightblue" stroke="midnightblue" points="468.5,-29.751 465,-19.7511 461.5,-29.7511 468.5,-29.751"/>
</g>
<!-- Node12 -->
<g id="node13" class="node"><title>Node12</title>
<g id="a_node13"><a xlink:href="constantes_8h.html" target="_top" xlink:title="constantes.h">
<polygon fill="white" stroke="black" points="806.5,-0.5 806.5,-19.5 879.5,-19.5 879.5,-0.5 806.5,-0.5"/>
<text text-anchor="middle" x="843" y="-7.5" font-family="Helvetica,sans-Serif" font-size="10.00">constantes.h</text>
</a>
</g>
</g>
<!-- Node10&#45;&gt;Node12 -->
<g id="edge21" class="edge"><title>Node10&#45;&gt;Node12</title>
<path fill="none" stroke="midnightblue" d="M494.771,-58.6258C499.52,-57.6911 504.388,-56.7815 509,-56 610.914,-38.7319 731.229,-23.8666 796.013,-16.3114"/>
<polygon fill="midnightblue" stroke="midnightblue" points="796.774,-19.7468 806.304,-15.1184 795.967,-12.7934 796.774,-19.7468"/>
</g>
<!-- Node13&#45;&gt;Node2 -->
<g id="edge25" class="edge"><title>Node13&#45;&gt;Node2</title>
<path fill="none" stroke="midnightblue" d="M1132.98,-224.435C1137.12,-215.427 1143.73,-200.81 1149,-188 1172.58,-130.642 1197.81,-61.6462 1209.44,-29.3533"/>
<polygon fill="midnightblue" stroke="midnightblue" points="1212.88,-30.1353 1212.96,-19.5408 1206.29,-27.771 1212.88,-30.1353"/>
</g>
<!-- Node13&#45;&gt;Node3 -->
<g id="edge26" class="edge"><title>Node13&#45;&gt;Node3</title>
<path fill="none" stroke="midnightblue" d="M1130.85,-224.29C1134.89,-202.75 1142.17,-146.249 1116,-112 1096.01,-85.8309 1058.6,-74.8647 1031.88,-70.2788"/>
<polygon fill="midnightblue" stroke="midnightblue" points="1032.28,-66.7994 1021.87,-68.7692 1031.23,-73.7212 1032.28,-66.7994"/>
</g>
<!-- Node13&#45;&gt;Node4 -->
<g id="edge27" class="edge"><title>Node13&#45;&gt;Node4</title>
<path fill="none" stroke="midnightblue" d="M1123.38,-224.403C1114.61,-211.362 1096.74,-186.178 1078,-168 1047.89,-138.784 1038.06,-133.452 1002,-112 980.889,-99.4405 955.7,-87.7466 936.422,-79.4289"/>
<polygon fill="midnightblue" stroke="midnightblue" points="937.777,-76.2021 927.205,-75.5143 935.041,-82.6451 937.777,-76.2021"/>
</g>
<!-- Node13&#45;&gt;Node8 -->
<g id="edge28" class="edge"><title>Node13&#45;&gt;Node8</title>
<path fill="none" stroke="midnightblue" d="M1099.37,-224.444C1067.5,-215.241 1016.67,-200.562 981.436,-190.388"/>
<polygon fill="midnightblue" stroke="midnightblue" points="982.071,-186.928 971.492,-187.516 980.128,-193.653 982.071,-186.928"/>
</g>
<!-- Node13&#45;&gt;Node9 -->
<g id="edge30" class="edge"><title>Node13&#45;&gt;Node9</title>
<path fill="none" stroke="midnightblue" d="M1113.87,-224.329C1086.08,-208.523 1027.79,-175.921 1006,-168 961.001,-151.644 908.307,-140.374 866.96,-133.203"/>
<polygon fill="midnightblue" stroke="midnightblue" points="867.419,-129.731 856.975,-131.513 866.25,-136.633 867.419,-129.731"/>
</g>
<!-- Node13&#45;&gt;Node10 -->
<g id="edge29" class="edge"><title>Node13&#45;&gt;Node10</title>
<path fill="none" stroke="midnightblue" d="M1119.17,-224.479C1103.35,-211.088 1070.88,-184.905 1040,-168 979.765,-135.027 962.742,-128.153 896,-112 754.929,-77.8569 581.704,-69.6182 504.908,-67.6311"/>
<polygon fill="midnightblue" stroke="midnightblue" points="504.805,-64.1278 494.725,-67.3902 504.639,-71.1258 504.805,-64.1278"/>
</g>
<!-- Node13&#45;&gt;Node14 -->
<g id="edge31" class="edge"><title>Node13&#45;&gt;Node14</title>
<path fill="none" stroke="midnightblue" d="M1074.24,-227.857C1058.95,-226.506 1042.34,-225.116 1027,-224 756.262,-204.29 432.409,-188.018 301.837,-181.759"/>
<polygon fill="midnightblue" stroke="midnightblue" points="301.815,-178.254 291.659,-181.273 301.481,-185.246 301.815,-178.254"/>
</g>
<!-- Node14&#45;&gt;Node6 -->
<g id="edge32" class="edge"><title>Node14&#45;&gt;Node6</title>
<path fill="none" stroke="midnightblue" d="M194.349,-173.797C142.818,-168.227 71.8432,-153.068 95,-112 121.829,-64.4205 181.091,-36.7133 221.301,-22.7179"/>
<polygon fill="midnightblue" stroke="midnightblue" points="222.455,-26.0225 230.829,-19.5323 220.236,-19.3837 222.455,-26.0225"/>
</g>
<!-- Node14&#45;&gt;Node12 -->
<g id="edge35" class="edge"><title>Node14&#45;&gt;Node12</title>
<path fill="none" stroke="midnightblue" d="M266.595,-168.476C287.111,-160.536 317.197,-147.595 341,-132 383.389,-104.228 379.698,-76.5956 426,-56 491.33,-26.9409 701.832,-15.9839 796.324,-12.4567"/>
<polygon fill="midnightblue" stroke="midnightblue" points="796.581,-15.9498 806.448,-12.0908 796.328,-8.9544 796.581,-15.9498"/>
</g>
<!-- Node15 -->
<g id="node16" class="node"><title>Node15</title>
<polygon fill="white" stroke="#bfbfbf" points="282,-112.5 282,-131.5 332,-131.5 332,-112.5 282,-112.5"/>
<text text-anchor="middle" x="307" y="-119.5" font-family="Helvetica,sans-Serif" font-size="10.00">optional</text>
</g>
<!-- Node14&#45;&gt;Node15 -->
<g id="edge33" class="edge"><title>Node14&#45;&gt;Node15</title>
<path fill="none" stroke="midnightblue" d="M253.283,-168.324C262.836,-160.263 277.28,-148.077 288.784,-138.369"/>
<polygon fill="midnightblue" stroke="midnightblue" points="291.144,-140.958 296.53,-131.834 286.63,-135.608 291.144,-140.958"/>
</g>
<!-- Node16 -->
<g id="node17" class="node"><title>Node16</title>
<polygon fill="white" stroke="#bfbfbf" points="222.5,-112.5 222.5,-131.5 263.5,-131.5 263.5,-112.5 222.5,-112.5"/>
<text text-anchor="middle" x="243" y="-119.5" font-family="Helvetica,sans-Serif" font-size="10.00">bitset</text>
</g>
<!-- Node14&#45;&gt;Node16 -->
<g id="edge34" class="edge"><title>Node14&#45;&gt;Node16</title>
<path fill="none" stroke="midnightblue" d="M243,-168.083C243,-161.006 243,-150.861 243,-141.986"/>
<polygon fill="midnightblue" stroke="midnightblue" points="246.5,-141.751 243,-131.751 239.5,-141.751 246.5,-141.751"/>
</g>
<!-- Node17&#45;&gt;Node6 -->
<g id="edge38" class="edge"><title>Node17&#45;&gt;Node6</title>
<path fill="none" stroke="midnightblue" d="M162.475,-112.368C180.613,-93.8941 223.422,-50.2926 246.543,-26.7436"/>
<polygon fill="midnightblue" stroke="midnightblue" points="249.056,-29.1792 253.565,-19.5914 244.061,-24.275 249.056,-29.1792"/>
</g>
<!-- Node17&#45;&gt;Node10 -->
<g id="edge40" class="edge"><title>Node17&#45;&gt;Node10</title>
<path fill="none" stroke="midnightblue" d="M203.279,-112.444C264.712,-101.777 368.513,-83.7533 425.173,-73.9153"/>
<polygon fill="midnightblue" stroke="midnightblue" points="425.93,-77.3364 435.183,-72.1772 424.732,-70.4396 425.93,-77.3364"/>
</g>
<!-- Node17&#45;&gt;Node12 -->
<g id="edge39" class="edge"><title>Node17&#45;&gt;Node12</title>
<path fill="none" stroke="midnightblue" d="M174.017,-112.461C208.455,-98.1733 281.443,-69.6495 346,-56 509.071,-21.5215 707.726,-13.4503 796.389,-11.5681"/>
<polygon fill="midnightblue" stroke="midnightblue" points="796.465,-15.0674 806.395,-11.3724 796.328,-8.06871 796.465,-15.0674"/>
</g>
<!-- Node19 -->
<g id="node20" class="node"><title>Node19</title>
<g id="a_node20"><a xlink:href="_proj_test_8h.html" target="_top" xlink:title="ProjTest.h">
<polygon fill="white" stroke="black" points="638,-168.5 638,-187.5 700,-187.5 700,-168.5 638,-168.5"/>
<text text-anchor="middle" x="669" y="-175.5" font-family="Helvetica,sans-Serif" font-size="10.00">ProjTest.h</text>
</a>
</g>
</g>
<!-- Node18&#45;&gt;Node19 -->
<g id="edge42" class="edge"><title>Node18&#45;&gt;Node19</title>
<path fill="none" stroke="midnightblue" d="M595.978,-224.324C609.55,-215.9 630.38,-202.971 646.325,-193.074"/>
<polygon fill="midnightblue" stroke="midnightblue" points="648.406,-195.902 655.057,-187.655 644.714,-189.954 648.406,-195.902"/>
</g>
<!-- Node20 -->
<g id="node21" class="node"><title>Node20</title>
<g id="a_node21"><a xlink:href="_proj_piou_8h.html" target="_top" xlink:title="ProjPiou.h">
<polygon fill="white" stroke="black" points="558,-168.5 558,-187.5 620,-187.5 620,-168.5 558,-168.5"/>
<text text-anchor="middle" x="589" y="-175.5" font-family="Helvetica,sans-Serif" font-size="10.00">ProjPiou.h</text>
</a>
</g>
</g>
<!-- Node18&#45;&gt;Node20 -->
<g id="edge44" class="edge"><title>Node18&#45;&gt;Node20</title>
<path fill="none" stroke="midnightblue" d="M583.156,-224.083C584.084,-216.927 585.418,-206.635 586.577,-197.691"/>
<polygon fill="midnightblue" stroke="midnightblue" points="590.051,-198.118 587.866,-187.751 583.109,-197.218 590.051,-198.118"/>
</g>
<!-- Node21 -->
<g id="node22" class="node"><title>Node21</title>
<g id="a_node22"><a xlink:href="_proj_missile_8h.html" target="_top" xlink:title="ProjMissile.h">
<polygon fill="white" stroke="black" points="756.5,-168.5 756.5,-187.5 829.5,-187.5 829.5,-168.5 756.5,-168.5"/>
<text text-anchor="middle" x="793" y="-175.5" font-family="Helvetica,sans-Serif" font-size="10.00">ProjMissile.h</text>
</a>
</g>
</g>
<!-- Node18&#45;&gt;Node21 -->
<g id="edge46" class="edge"><title>Node18&#45;&gt;Node21</title>
<path fill="none" stroke="midnightblue" d="M615.434,-224.444C651.856,-215.122 710.23,-200.183 750.029,-189.997"/>
<polygon fill="midnightblue" stroke="midnightblue" points="750.903,-193.387 759.723,-187.516 749.167,-186.605 750.903,-193.387"/>
</g>
<!-- Node19&#45;&gt;Node9 -->
<g id="edge43" class="edge"><title>Node19&#45;&gt;Node9</title>
<path fill="none" stroke="midnightblue" d="M689.124,-168.444C710.024,-159.557 742.935,-145.563 766.716,-135.451"/>
<polygon fill="midnightblue" stroke="midnightblue" points="768.138,-138.65 775.971,-131.516 765.398,-132.208 768.138,-138.65"/>
</g>
<!-- Node20&#45;&gt;Node9 -->
<g id="edge45" class="edge"><title>Node20&#45;&gt;Node9</title>
<path fill="none" stroke="midnightblue" d="M620.439,-168.799C655.918,-159.543 713.824,-144.437 753.358,-134.124"/>
<polygon fill="midnightblue" stroke="midnightblue" points="754.445,-137.458 763.238,-131.547 752.678,-130.684 754.445,-137.458"/>
</g>
<!-- Node21&#45;&gt;Node9 -->
<g id="edge47" class="edge"><title>Node21&#45;&gt;Node9</title>
<path fill="none" stroke="midnightblue" d="M793.495,-168.083C793.889,-161.006 794.452,-150.861 794.945,-141.986"/>
<polygon fill="midnightblue" stroke="midnightblue" points="798.454,-141.93 795.514,-131.751 791.464,-141.542 798.454,-141.93"/>
</g>
<!-- Node23 -->
<g id="node24" class="node"><title>Node23</title>
<g id="a_node24"><a xlink:href="_cap_test_8h.html" target="_top" xlink:title="CapTest.h">
<polygon fill="white" stroke="black" points="826,-224.5 826,-243.5 888,-243.5 888,-224.5 826,-224.5"/>
<text text-anchor="middle" x="857" y="-231.5" font-family="Helvetica,sans-Serif" font-size="10.00">CapTest.h</text>
</a>
</g>
</g>
<!-- Node22&#45;&gt;Node23 -->
<g id="edge49" class="edge"><title>Node22&#45;&gt;Node23</title>
<path fill="none" stroke="midnightblue" d="M789.853,-280.324C802.216,-271.979 821.13,-259.212 835.737,-249.352"/>
<polygon fill="midnightblue" stroke="midnightblue" points="837.848,-252.15 844.179,-243.655 833.932,-246.348 837.848,-252.15"/>
</g>
<!-- Node24 -->
<g id="node25" class="node"><title>Node24</title>
<g id="a_node25"><a xlink:href="_cap_piou_8h.html" target="_top" xlink:title="CapPiou.h">
<polygon fill="white" stroke="black" points="746,-224.5 746,-243.5 808,-243.5 808,-224.5 746,-224.5"/>
<text text-anchor="middle" x="777" y="-231.5" font-family="Helvetica,sans-Serif" font-size="10.00">CapPiou.h</text>
</a>
</g>
</g>
<!-- Node22&#45;&gt;Node24 -->
<g id="edge53" class="edge"><title>Node22&#45;&gt;Node24</title>
<path fill="none" stroke="midnightblue" d="M777,-280.083C777,-273.006 777,-262.861 777,-253.986"/>
<polygon fill="midnightblue" stroke="midnightblue" points="780.5,-253.751 777,-243.751 773.5,-253.751 780.5,-253.751"/>
</g>
<!-- Node25 -->
<g id="node26" class="node"><title>Node25</title>
<g id="a_node26"><a xlink:href="_cap_dash_8h.html" target="_top" xlink:title="CapDash.h">
<polygon fill="white" stroke="black" points="662,-224.5 662,-243.5 728,-243.5 728,-224.5 662,-224.5"/>
<text text-anchor="middle" x="695" y="-231.5" font-family="Helvetica,sans-Serif" font-size="10.00">CapDash.h</text>
</a>
</g>
</g>
<!-- Node22&#45;&gt;Node25 -->
<g id="edge57" class="edge"><title>Node22&#45;&gt;Node25</title>
<path fill="none" stroke="midnightblue" d="M763.825,-280.324C751.153,-271.979 731.767,-259.212 716.794,-249.352"/>
<polygon fill="midnightblue" stroke="midnightblue" points="718.419,-246.231 708.142,-243.655 714.569,-252.078 718.419,-246.231"/>
</g>
<!-- Node26 -->
<g id="node27" class="node"><title>Node26</title>
<g id="a_node27"><a xlink:href="_cap_missile_8h.html" target="_top" xlink:title="CapMissile.h">
<polygon fill="white" stroke="black" points="944,-224.5 944,-243.5 1018,-243.5 1018,-224.5 944,-224.5"/>
<text text-anchor="middle" x="981" y="-231.5" font-family="Helvetica,sans-Serif" font-size="10.00">CapMissile.h</text>
</a>
</g>
</g>
<!-- Node22&#45;&gt;Node26 -->
<g id="edge61" class="edge"><title>Node22&#45;&gt;Node26</title>
<path fill="none" stroke="midnightblue" d="M809.324,-280.444C844.389,-271.162 900.498,-256.309 938.965,-246.127"/>
<polygon fill="midnightblue" stroke="midnightblue" points="940.055,-249.459 948.827,-243.516 938.264,-242.692 940.055,-249.459"/>
</g>
<!-- Node23&#45;&gt;Node8 -->
<g id="edge50" class="edge"><title>Node23&#45;&gt;Node8</title>
<path fill="none" stroke="midnightblue" d="M870.657,-224.324C883.916,-215.9 904.268,-202.971 919.846,-193.074"/>
<polygon fill="midnightblue" stroke="midnightblue" points="921.813,-195.971 928.377,-187.655 918.06,-190.063 921.813,-195.971"/>
</g>
<!-- Node23&#45;&gt;Node9 -->
<g id="edge51" class="edge"><title>Node23&#45;&gt;Node9</title>
<path fill="none" stroke="midnightblue" d="M855.739,-224.078C853.611,-211.054 848.472,-186.39 838,-168 831.748,-157.022 822.314,-146.586 813.97,-138.534"/>
<polygon fill="midnightblue" stroke="midnightblue" points="816.17,-135.802 806.443,-131.603 811.429,-140.952 816.17,-135.802"/>
</g>
<!-- Node23&#45;&gt;Node19 -->
<g id="edge52" class="edge"><title>Node23&#45;&gt;Node19</title>
<path fill="none" stroke="midnightblue" d="M827.211,-224.444C795.171,-215.241 744.067,-200.562 708.647,-190.388"/>
<polygon fill="midnightblue" stroke="midnightblue" points="709.227,-186.913 698.65,-187.516 707.295,-193.641 709.227,-186.913"/>
</g>
<!-- Node24&#45;&gt;Node8 -->
<g id="edge54" class="edge"><title>Node24&#45;&gt;Node8</title>
<path fill="none" stroke="midnightblue" d="M803.145,-224.444C831.023,-215.32 875.348,-200.813 906.4,-190.651"/>
<polygon fill="midnightblue" stroke="midnightblue" points="907.562,-193.953 915.978,-187.516 905.385,-187.3 907.562,-193.953"/>
</g>
<!-- Node24&#45;&gt;Node9 -->
<g id="edge55" class="edge"><title>Node24&#45;&gt;Node9</title>
<path fill="none" stroke="midnightblue" d="M767.864,-224.215C756.081,-211.767 738.101,-188.254 747,-168 752.39,-155.732 762.958,-145.341 772.904,-137.646"/>
<polygon fill="midnightblue" stroke="midnightblue" points="775.252,-140.27 781.339,-131.598 771.172,-134.581 775.252,-140.27"/>
</g>
<!-- Node24&#45;&gt;Node20 -->
<g id="edge56" class="edge"><title>Node24&#45;&gt;Node20</title>
<path fill="none" stroke="midnightblue" d="M747.211,-224.444C715.171,-215.241 664.067,-200.562 628.647,-190.388"/>
<polygon fill="midnightblue" stroke="midnightblue" points="629.227,-186.913 618.65,-187.516 627.295,-193.641 629.227,-186.913"/>
</g>
<!-- Node25&#45;&gt;Node8 -->
<g id="edge58" class="edge"><title>Node25&#45;&gt;Node8</title>
<path fill="none" stroke="midnightblue" d="M728.055,-225.773C770.396,-216.517 844.132,-200.396 893.008,-189.711"/>
<polygon fill="midnightblue" stroke="midnightblue" points="894.018,-193.073 903.039,-187.518 892.523,-186.234 894.018,-193.073"/>
</g>
<!-- Node25&#45;&gt;Node10 -->
<g id="edge59" class="edge"><title>Node25&#45;&gt;Node10</title>
<path fill="none" stroke="midnightblue" d="M661.812,-225.446C624.582,-216.513 567.037,-201.192 549,-188 511.644,-160.679 485.125,-111.515 472.79,-85.0457"/>
<polygon fill="midnightblue" stroke="midnightblue" points="475.929,-83.4929 468.635,-75.8086 469.545,-86.3643 475.929,-83.4929"/>
</g>
<!-- Node25&#45;&gt;Node19 -->
<g id="edge60" class="edge"><title>Node25&#45;&gt;Node19</title>
<path fill="none" stroke="midnightblue" d="M690.707,-224.083C687.148,-216.691 681.978,-205.953 677.576,-196.811"/>
<polygon fill="midnightblue" stroke="midnightblue" points="680.705,-195.243 673.213,-187.751 674.398,-198.279 680.705,-195.243"/>
</g>
<!-- Node26&#45;&gt;Node8 -->
<g id="edge62" class="edge"><title>Node26&#45;&gt;Node8</title>
<path fill="none" stroke="midnightblue" d="M974.56,-224.083C969.051,-216.455 960.969,-205.264 954.235,-195.941"/>
<polygon fill="midnightblue" stroke="midnightblue" points="957.013,-193.809 948.32,-187.751 951.338,-197.907 957.013,-193.809"/>
</g>
<!-- Node26&#45;&gt;Node21 -->
<g id="edge63" class="edge"><title>Node26&#45;&gt;Node21</title>
<path fill="none" stroke="midnightblue" d="M951.211,-224.444C919.171,-215.241 868.067,-200.562 832.647,-190.388"/>
<polygon fill="midnightblue" stroke="midnightblue" points="833.227,-186.913 822.65,-187.516 831.295,-193.641 833.227,-186.913"/>
</g>
<!-- Node28 -->
<g id="node29" class="node"><title>Node28</title>
<g id="a_node29"><a xlink:href="_vaisseau_eclaireur_8h.html" target="_top" xlink:title="VaisseauEclaireur.h">
<polygon fill="white" stroke="black" points="1383,-280.5 1383,-299.5 1487,-299.5 1487,-280.5 1383,-280.5"/>
<text text-anchor="middle" x="1435" y="-287.5" font-family="Helvetica,sans-Serif" font-size="10.00">VaisseauEclaireur.h</text>
</a>
</g>
</g>
<!-- Node27&#45;&gt;Node28 -->
<g id="edge65" class="edge"><title>Node27&#45;&gt;Node28</title>
<path fill="none" stroke="midnightblue" d="M1309.72,-392.426C1330.48,-384.927 1359.31,-372.629 1381,-356 1398.57,-342.528 1414.2,-322.346 1424.06,-308.05"/>
<polygon fill="midnightblue" stroke="midnightblue" points="1427.04,-309.897 1429.67,-299.635 1421.21,-306.013 1427.04,-309.897"/>
</g>
<!-- Node31 -->
<g id="node32" class="node"><title>Node31</title>
<g id="a_node32"><a xlink:href="_vaisseau_test_8h.html" target="_top" xlink:title="VaisseauTest.h">
<polygon fill="white" stroke="black" points="825.5,-336.5 825.5,-355.5 910.5,-355.5 910.5,-336.5 825.5,-336.5"/>
<text text-anchor="middle" x="868" y="-343.5" font-family="Helvetica,sans-Serif" font-size="10.00">VaisseauTest.h</text>
</a>
</g>
</g>
<!-- Node27&#45;&gt;Node31 -->
<g id="edge73" class="edge"><title>Node27&#45;&gt;Node31</title>
<path fill="none" stroke="midnightblue" d="M1223.98,-393.32C1142.92,-382.773 998.375,-363.964 920.749,-353.864"/>
<polygon fill="midnightblue" stroke="midnightblue" points="921.078,-350.377 910.71,-352.557 920.174,-357.319 921.078,-350.377"/>
</g>
<!-- Node32 -->
<g id="node33" class="node"><title>Node32</title>
<g id="a_node33"><a xlink:href="_vaisseau_attaquant_8h.html" target="_top" xlink:title="VaisseauAttaquant.h">
<polygon fill="white" stroke="black" points="1143.5,-280.5 1143.5,-299.5 1250.5,-299.5 1250.5,-280.5 1143.5,-280.5"/>
<text text-anchor="middle" x="1197" y="-287.5" font-family="Helvetica,sans-Serif" font-size="10.00">VaisseauAttaquant.h</text>
</a>
</g>
</g>
<!-- Node27&#45;&gt;Node32 -->
<g id="edge77" class="edge"><title>Node27&#45;&gt;Node32</title>
<path fill="none" stroke="midnightblue" d="M1276.25,-392.368C1262,-374.135 1228.61,-331.426 1210.04,-307.675"/>
<polygon fill="midnightblue" stroke="midnightblue" points="1212.63,-305.314 1203.72,-299.591 1207.12,-309.625 1212.63,-305.314"/>
</g>
<!-- Node33 -->
<g id="node34" class="node"><title>Node33</title>
<g id="a_node34"><a xlink:href="_vaisseau_defenseur_8h.html" target="_top" xlink:title="VaisseauDefenseur.h">
<polygon fill="white" stroke="black" points="1262,-336.5 1262,-355.5 1372,-355.5 1372,-336.5 1262,-336.5"/>
<text text-anchor="middle" x="1317" y="-343.5" font-family="Helvetica,sans-Serif" font-size="10.00">VaisseauDefenseur.h</text>
</a>
</g>
</g>
<!-- Node27&#45;&gt;Node33 -->
<g id="edge82" class="edge"><title>Node27&#45;&gt;Node33</title>
<path fill="none" stroke="midnightblue" d="M1288.61,-392.083C1293.37,-384.534 1300.32,-373.495 1306.15,-364.23"/>
<polygon fill="midnightblue" stroke="midnightblue" points="1309.12,-366.078 1311.49,-355.751 1303.2,-362.349 1309.12,-366.078"/>
</g>
<!-- Node28&#45;&gt;Node2 -->
<g id="edge66" class="edge"><title>Node28&#45;&gt;Node2</title>
<path fill="none" stroke="midnightblue" d="M1457.79,-280.435C1474.58,-273.078 1496.86,-260.96 1511,-244 1530.72,-220.347 1535,-209.795 1535,-179 1535,-179 1535,-179 1535,-121 1535,-60.8003 1329.4,-26.3623 1248.32,-15.122"/>
<polygon fill="midnightblue" stroke="midnightblue" points="1248.56,-11.6228 1238.18,-13.7481 1247.62,-18.5594 1248.56,-11.6228"/>
</g>
<!-- Node28&#45;&gt;Node12 -->
<g id="edge67" class="edge"><title>Node28&#45;&gt;Node12</title>
<path fill="none" stroke="midnightblue" d="M1447.5,-280.302C1457.87,-272.251 1471.89,-259.245 1478,-244 1490.57,-212.649 1495.38,-196.964 1478,-168 1423.58,-77.2963 1369.12,-87.0293 1268,-56 1135.28,-15.2772 969.546,-10.0426 889.946,-10.1748"/>
<polygon fill="midnightblue" stroke="midnightblue" points="889.739,-6.67567 879.755,-10.2224 889.772,-13.6756 889.739,-6.67567"/>
</g>
<!-- Node28&#45;&gt;Node13 -->
<g id="edge68" class="edge"><title>Node28&#45;&gt;Node13</title>
<path fill="none" stroke="midnightblue" d="M1386.51,-280.444C1332.46,-270.905 1245.07,-255.483 1187.33,-245.293"/>
<polygon fill="midnightblue" stroke="midnightblue" points="1187.72,-241.808 1177.26,-243.516 1186.5,-248.701 1187.72,-241.808"/>
</g>
<!-- Node29 -->
<g id="node30" class="node"><title>Node29</title>
<g id="a_node30"><a xlink:href="_trajectoire_8h.html" target="_top" xlink:title="../Utilitaires/Trajectoire.h">
<polygon fill="white" stroke="black" points="1345,-224.5 1345,-243.5 1469,-243.5 1469,-224.5 1345,-224.5"/>
<text text-anchor="middle" x="1407" y="-231.5" font-family="Helvetica,sans-Serif" font-size="10.00">../Utilitaires/Trajectoire.h</text>
</a>
</g>
</g>
<!-- Node28&#45;&gt;Node29 -->
<g id="edge69" class="edge"><title>Node28&#45;&gt;Node29</title>
<path fill="none" stroke="midnightblue" d="M1430.38,-280.083C1426.54,-272.691 1420.98,-261.953 1416.24,-252.811"/>
<polygon fill="midnightblue" stroke="midnightblue" points="1419.25,-251.018 1411.54,-243.751 1413.03,-254.24 1419.25,-251.018"/>
</g>
<!-- Node29&#45;&gt;Node2 -->
<g id="edge70" class="edge"><title>Node29&#45;&gt;Node2</title>
<path fill="none" stroke="midnightblue" d="M1408.75,-224.291C1413.89,-196.023 1425.95,-105.79 1382,-56 1364.43,-36.0951 1291.16,-22.1292 1248.06,-15.4566"/>
<polygon fill="midnightblue" stroke="midnightblue" points="1248.47,-11.9791 1238.06,-13.9556 1247.43,-18.9015 1248.47,-11.9791"/>
</g>
<!-- Node29&#45;&gt;Node6 -->
<g id="edge71" class="edge"><title>Node29&#45;&gt;Node6</title>
<path fill="none" stroke="midnightblue" d="M1393.68,-224.411C1346.46,-194.485 1181.72,-94.5377 1030,-56 1012.96,-51.6709 503.91,-23.9947 324.133,-14.3272"/>
<polygon fill="midnightblue" stroke="midnightblue" points="324.215,-10.8266 314.041,-13.7848 323.839,-17.8165 324.215,-10.8266"/>
</g>
<!-- Node30 -->
<g id="node31" class="node"><title>Node30</title>
<polygon fill="white" stroke="#bfbfbf" points="1425,-168.5 1425,-187.5 1469,-187.5 1469,-168.5 1425,-168.5"/>
<text text-anchor="middle" x="1447" y="-175.5" font-family="Helvetica,sans-Serif" font-size="10.00">cmath</text>
</g>
<!-- Node29&#45;&gt;Node30 -->
<g id="edge72" class="edge"><title>Node29&#45;&gt;Node30</title>
<path fill="none" stroke="midnightblue" d="M1413.61,-224.083C1419.26,-216.455 1427.54,-205.264 1434.45,-195.941"/>
<polygon fill="midnightblue" stroke="midnightblue" points="1437.38,-197.87 1440.52,-187.751 1431.75,-193.703 1437.38,-197.87"/>
</g>
<!-- Node31&#45;&gt;Node8 -->
<g id="edge75" class="edge"><title>Node31&#45;&gt;Node8</title>
<path fill="none" stroke="midnightblue" d="M869.838,-336.438C873.279,-322.504 882.028,-294.978 900,-280 945.069,-242.44 991.621,-290.801 1027,-244 1044.18,-221.267 1010.25,-202.439 980.297,-190.999"/>
<polygon fill="midnightblue" stroke="midnightblue" points="981.375,-187.667 970.78,-187.549 978.989,-194.247 981.375,-187.667"/>
</g>
<!-- Node31&#45;&gt;Node13 -->
<g id="edge74" class="edge"><title>Node31&#45;&gt;Node13</title>
<path fill="none" stroke="midnightblue" d="M873.454,-336.277C882.792,-322.113 903.251,-294.263 928,-280 950.971,-266.762 1014.77,-253.761 1064.39,-245.165"/>
<polygon fill="midnightblue" stroke="midnightblue" points="1065.16,-248.585 1074.43,-243.452 1063.98,-241.685 1065.16,-248.585"/>
</g>
<!-- Node31&#45;&gt;Node22 -->
<g id="edge76" class="edge"><title>Node31&#45;&gt;Node22</title>
<path fill="none" stroke="midnightblue" d="M853.379,-336.324C839.051,-327.822 816.987,-314.729 800.251,-304.797"/>
<polygon fill="midnightblue" stroke="midnightblue" points="801.97,-301.748 791.584,-299.655 798.398,-307.768 801.97,-301.748"/>
</g>
<!-- Node32&#45;&gt;Node12 -->
<g id="edge78" class="edge"><title>Node32&#45;&gt;Node12</title>
<path fill="none" stroke="midnightblue" d="M1197.38,-280.406C1197.7,-267.792 1197.44,-243.633 1192,-224 1177.14,-170.366 1174.91,-151.791 1136,-112 1069.19,-43.6732 954.045,-21.5395 889.798,-14.391"/>
<polygon fill="midnightblue" stroke="midnightblue" points="889.865,-10.8794 879.558,-13.3311 889.144,-17.8422 889.865,-10.8794"/>
</g>
<!-- Node32&#45;&gt;Node13 -->
<g id="edge79" class="edge"><title>Node32&#45;&gt;Node13</title>
<path fill="none" stroke="midnightblue" d="M1186.07,-280.324C1175.83,-272.185 1160.28,-259.839 1148,-250.087"/>
<polygon fill="midnightblue" stroke="midnightblue" points="1150.13,-247.312 1140.12,-243.834 1145.78,-252.794 1150.13,-247.312"/>
</g>
<!-- Node32&#45;&gt;Node26 -->
<g id="edge80" class="edge"><title>Node32&#45;&gt;Node26</title>
<path fill="none" stroke="midnightblue" d="M1162.77,-280.444C1125.49,-271.122 1065.73,-256.183 1024.99,-245.997"/>
<polygon fill="midnightblue" stroke="midnightblue" points="1025.62,-242.546 1015.07,-243.516 1023.92,-249.337 1025.62,-242.546"/>
</g>
<!-- Node32&#45;&gt;Node29 -->
<g id="edge81" class="edge"><title>Node32&#45;&gt;Node29</title>
<path fill="none" stroke="midnightblue" d="M1230.28,-280.444C1266.45,-271.142 1324.38,-256.246 1363.98,-246.062"/>
<polygon fill="midnightblue" stroke="midnightblue" points="1365.07,-249.397 1373.88,-243.516 1363.32,-242.617 1365.07,-249.397"/>
</g>
<!-- Node33&#45;&gt;Node2 -->
<g id="edge83" class="edge"><title>Node33&#45;&gt;Node2</title>
<path fill="none" stroke="midnightblue" d="M1372.23,-344.648C1447.49,-340.922 1573,-321.71 1573,-235 1573,-235 1573,-235 1573,-121 1573,-72.0183 1529.14,-75.0102 1484,-56 1403.83,-22.238 1300.12,-13.766 1248.36,-11.6681"/>
<polygon fill="midnightblue" stroke="midnightblue" points="1248.25,-8.16214 1238.14,-11.3104 1248.01,-15.1579 1248.25,-8.16214"/>
</g>
<!-- Node33&#45;&gt;Node12 -->
<g id="edge84" class="edge"><title>Node33&#45;&gt;Node12</title>
<path fill="none" stroke="midnightblue" d="M1313.69,-336.456C1297.11,-295.068 1218.62,-115.025 1086,-56 1021.78,-27.4163 940.222,-16.9877 889.829,-13.1836"/>
<polygon fill="midnightblue" stroke="midnightblue" points="889.785,-9.67215 879.566,-12.4682 889.298,-16.6552 889.785,-9.67215"/>
</g>
<!-- Node33&#45;&gt;Node13 -->
<g id="edge85" class="edge"><title>Node33&#45;&gt;Node13</title>
<path fill="none" stroke="midnightblue" d="M1262,-345.504C1180.17,-344.946 1032.41,-338.468 999,-300 974.773,-272.103 1020.79,-254.854 1064.62,-245.198"/>
<polygon fill="midnightblue" stroke="midnightblue" points="1065.43,-248.606 1074.5,-243.137 1063.99,-241.754 1065.43,-248.606"/>
</g>
<!-- Node33&#45;&gt;Node29 -->
<g id="edge86" class="edge"><title>Node33&#45;&gt;Node29</title>
<path fill="none" stroke="midnightblue" d="M1324.06,-336.368C1339.05,-318.055 1374.23,-275.049 1393.61,-251.362"/>
<polygon fill="midnightblue" stroke="midnightblue" points="1396.35,-253.547 1399.97,-243.591 1390.93,-249.115 1396.35,-253.547"/>
</g>
<!-- Node34 -->
<g id="node35" class="node"><title>Node34</title>
<g id="a_node35"><a xlink:href="_vaisseau_defenseur_b_8h.html" target="_top" xlink:title="VaisseauDefenseurB.h">
<polygon fill="white" stroke="black" points="1008.5,-280.5 1008.5,-299.5 1125.5,-299.5 1125.5,-280.5 1008.5,-280.5"/>
<text text-anchor="middle" x="1067" y="-287.5" font-family="Helvetica,sans-Serif" font-size="10.00">VaisseauDefenseurB.h</text>
</a>
</g>
</g>
<!-- Node33&#45;&gt;Node34 -->
<g id="edge87" class="edge"><title>Node33&#45;&gt;Node34</title>
<path fill="none" stroke="midnightblue" d="M1277.39,-336.444C1233.77,-327.023 1163.6,-311.866 1116.42,-301.675"/>
<polygon fill="midnightblue" stroke="midnightblue" points="1116.94,-298.207 1106.43,-299.516 1115.46,-305.049 1116.94,-298.207"/>
</g>
<!-- Node34&#45;&gt;Node13 -->
<g id="edge88" class="edge"><title>Node34&#45;&gt;Node13</title>
<path fill="none" stroke="midnightblue" d="M1076.96,-280.324C1086.13,-272.341 1099.94,-260.313 1111.03,-250.653"/>
<polygon fill="midnightblue" stroke="midnightblue" points="1113.62,-253.041 1118.86,-243.834 1109.02,-247.762 1113.62,-253.041"/>
</g>
<!-- Node35&#45;&gt;Node14 -->
<g id="edge90" class="edge"><title>Node35&#45;&gt;Node14</title>
<path fill="none" stroke="midnightblue" d="M238.569,-392.15C237.39,-366.261 234.431,-288.434 238,-224 238.479,-215.358 239.471,-205.825 240.446,-197.767"/>
<polygon fill="midnightblue" stroke="midnightblue" points="243.948,-197.969 241.758,-187.603 237.006,-197.073 243.948,-197.969"/>
</g>
<!-- Node36&#45;&gt;Node2 -->
<g id="edge92" class="edge"><title>Node36&#45;&gt;Node2</title>
<path fill="none" stroke="midnightblue" d="M967.204,-448.409C1036.19,-424.33 1225.24,-354.399 1259,-300 1314.44,-210.673 1251.93,-76.5584 1226.11,-28.726"/>
<polygon fill="midnightblue" stroke="midnightblue" points="1229.12,-26.9319 1221.22,-19.8759 1222.99,-30.3205 1229.12,-26.9319"/>
</g>
<!-- Node36&#45;&gt;Node6 -->
<g id="edge93" class="edge"><title>Node36&#45;&gt;Node6</title>
<path fill="none" stroke="midnightblue" d="M918.735,-448.323C851.872,-422.81 654.762,-343.541 511,-244 411.481,-175.093 312.099,-67.6317 276.114,-27.1525"/>
<polygon fill="midnightblue" stroke="midnightblue" points="278.662,-24.7502 269.421,-19.5693 273.414,-29.3826 278.662,-24.7502"/>
</g>
<!-- Node36&#45;&gt;Node13 -->
<g id="edge94" class="edge"><title>Node36&#45;&gt;Node13</title>
<path fill="none" stroke="midnightblue" d="M941.596,-448.254C940.782,-419.873 942.142,-329.333 989,-280 1008.64,-259.318 1037.81,-248.118 1064.44,-242.062"/>
<polygon fill="midnightblue" stroke="midnightblue" points="1065.41,-245.435 1074.5,-239.983 1064,-238.579 1065.41,-245.435"/>
</g>
<!-- Node36&#45;&gt;Node27 -->
<g id="edge95" class="edge"><title>Node36&#45;&gt;Node27</title>
<path fill="none" stroke="midnightblue" d="M967.63,-452.941C1020.62,-444.549 1143.62,-425.072 1219.4,-413.072"/>
<polygon fill="midnightblue" stroke="midnightblue" points="1219.98,-416.524 1229.31,-411.503 1218.88,-409.61 1219.98,-416.524"/>
</g>
</g>
</svg>
