<?xml version="1.0" encoding="UTF-8" standalone="no"?>
<!DOCTYPE svg PUBLIC "-//W3C//DTD SVG 1.1//EN"
 "http://www.w3.org/Graphics/SVG/1.1/DTD/svg11.dtd">
<!-- Generated by graphviz version 2.38.0 (20140413.2041)
 -->
<!-- Title: src/Partie.cpp Pages: 1 -->
<svg width="1024pt" height="364pt"
 viewBox="0.00 0.00 1023.72 364.00" xmlns="http://www.w3.org/2000/svg" xmlns:xlink="http://www.w3.org/1999/xlink">
<g id="graph0" class="graph" transform="scale(1 1) rotate(0) translate(4 360)">
<title>src/Partie.cpp</title>
<polygon fill="white" stroke="none" points="-4,4 -4,-360 1019.72,-360 1019.72,4 -4,4"/>
<!-- Node0 -->
<g id="node1" class="node"><title>Node0</title>
<polygon fill="#bfbfbf" stroke="black" points="708.5,-336.5 708.5,-355.5 785.5,-355.5 785.5,-336.5 708.5,-336.5"/>
<text text-anchor="middle" x="747" y="-343.5" font-family="Helvetica,sans-Serif" font-size="10.00">src/Partie.cpp</text>
</g>
<!-- Node1 -->
<g id="node2" class="node"><title>Node1</title>
<g id="a_node2"><a xlink:href="_partie_8h.html" target="_top" xlink:title="Partie.h">
<polygon fill="white" stroke="black" points="277,-280.5 277,-299.5 327,-299.5 327,-280.5 277,-280.5"/>
<text text-anchor="middle" x="302" y="-287.5" font-family="Helvetica,sans-Serif" font-size="10.00">Partie.h</text>
</a>
</g>
</g>
<!-- Node0&#45;&gt;Node1 -->
<g id="edge1" class="edge"><title>Node0&#45;&gt;Node1</title>
<path fill="none" stroke="midnightblue" d="M708.288,-340.302C622.901,-329.941 419.486,-305.257 337.325,-295.287"/>
<polygon fill="midnightblue" stroke="midnightblue" points="337.589,-291.793 327.24,-294.063 336.745,-298.742 337.589,-291.793"/>
</g>
<!-- Node14 -->
<g id="node15" class="node"><title>Node14</title>
<g id="a_node15"><a xlink:href="__projectiles_8h.html" target="_top" xlink:title="Projectiles/_projectiles.h">
<polygon fill="white" stroke="black" points="878.5,-224.5 878.5,-243.5 1001.5,-243.5 1001.5,-224.5 878.5,-224.5"/>
<text text-anchor="middle" x="940" y="-231.5" font-family="Helvetica,sans-Serif" font-size="10.00">Projectiles/_projectiles.h</text>
</a>
</g>
</g>
<!-- Node0&#45;&gt;Node14 -->
<g id="edge32" class="edge"><title>Node0&#45;&gt;Node14</title>
<path fill="none" stroke="midnightblue" d="M762.144,-336.368C795.545,-317.332 875.757,-271.615 916.05,-248.65"/>
<polygon fill="midnightblue" stroke="midnightblue" points="917.971,-251.584 924.926,-243.591 914.505,-245.502 917.971,-251.584"/>
</g>
<!-- Node15 -->
<g id="node16" class="node"><title>Node15</title>
<g id="a_node16"><a xlink:href="_proj_test_8h.html" target="_top" xlink:title="ProjTest.h">
<polygon fill="white" stroke="black" points="882,-168.5 882,-187.5 944,-187.5 944,-168.5 882,-168.5"/>
<text text-anchor="middle" x="913" y="-175.5" font-family="Helvetica,sans-Serif" font-size="10.00">ProjTest.h</text>
</a>
</g>
</g>
<!-- Node0&#45;&gt;Node15 -->
<g id="edge50" class="edge"><title>Node0&#45;&gt;Node15</title>
<path fill="none" stroke="midnightblue" d="M785.755,-343.178C845.826,-338.018 959.815,-318.385 1011,-244 1029.12,-217.67 988.43,-199.236 954.083,-188.887"/>
<polygon fill="midnightblue" stroke="midnightblue" points="954.736,-185.433 944.159,-186.058 952.817,-192.165 954.736,-185.433"/>
</g>
<!-- Node17 -->
<g id="node18" class="node"><title>Node17</title>
<g id="a_node18"><a xlink:href="___capacites_8h.html" target="_top" xlink:title="Capacites/_Capacites.h">
<polygon fill="white" stroke="black" points="686,-280.5 686,-299.5 808,-299.5 808,-280.5 686,-280.5"/>
<text text-anchor="middle" x="747" y="-287.5" font-family="Helvetica,sans-Serif" font-size="10.00">Capacites/_Capacites.h</text>
</a>
</g>
</g>
<!-- Node0&#45;&gt;Node17 -->
<g id="edge37" class="edge"><title>Node0&#45;&gt;Node17</title>
<path fill="none" stroke="midnightblue" d="M747,-336.083C747,-329.006 747,-318.861 747,-309.986"/>
<polygon fill="midnightblue" stroke="midnightblue" points="750.5,-309.751 747,-299.751 743.5,-309.751 750.5,-309.751"/>
</g>
<!-- Node21 -->
<g id="node22" class="node"><title>Node21</title>
<g id="a_node22"><a xlink:href="_vaisseau_test_8h.html" target="_top" xlink:title="Vaisseau/VaisseauTest.h">
<polygon fill="white" stroke="black" points="540,-280.5 540,-299.5 668,-299.5 668,-280.5 540,-280.5"/>
<text text-anchor="middle" x="604" y="-287.5" font-family="Helvetica,sans-Serif" font-size="10.00">Vaisseau/VaisseauTest.h</text>
</a>
</g>
</g>
<!-- Node0&#45;&gt;Node21 -->
<g id="edge51" class="edge"><title>Node0&#45;&gt;Node21</title>
<path fill="none" stroke="midnightblue" d="M724.341,-336.444C700.598,-327.478 663.091,-313.314 636.262,-303.183"/>
<polygon fill="midnightblue" stroke="midnightblue" points="637.144,-299.775 626.553,-299.516 634.671,-306.324 637.144,-299.775"/>
</g>
<!-- Node2 -->
<g id="node3" class="node"><title>Node2</title>
<polygon fill="white" stroke="#bfbfbf" points="491,-0.5 491,-19.5 535,-19.5 535,-0.5 491,-0.5"/>
<text text-anchor="middle" x="513" y="-7.5" font-family="Helvetica,sans-Serif" font-size="10.00">vector</text>
</g>
<!-- Node1&#45;&gt;Node2 -->
<g id="edge2" class="edge"><title>Node1&#45;&gt;Node2</title>
<path fill="none" stroke="midnightblue" d="M299.958,-280.446C296.856,-267.881 290.516,-243.783 283,-224 254.271,-148.385 160.215,-117.293 213,-56 230.32,-35.8882 406.384,-19.5471 480.448,-13.509"/>
<polygon fill="midnightblue" stroke="midnightblue" points="480.916,-16.9828 490.604,-12.6937 480.356,-10.0052 480.916,-16.9828"/>
</g>
<!-- Node3 -->
<g id="node4" class="node"><title>Node3</title>
<polygon fill="white" stroke="#bfbfbf" points="411.5,-56.5 411.5,-75.5 452.5,-75.5 452.5,-56.5 411.5,-56.5"/>
<text text-anchor="middle" x="432" y="-63.5" font-family="Helvetica,sans-Serif" font-size="10.00">string</text>
</g>
<!-- Node1&#45;&gt;Node3 -->
<g id="edge3" class="edge"><title>Node1&#45;&gt;Node3</title>
<path fill="none" stroke="midnightblue" d="M307.096,-280.297C326.427,-247.286 395.457,-129.404 421.739,-84.522"/>
<polygon fill="midnightblue" stroke="midnightblue" points="424.765,-86.2817 426.798,-75.8837 418.724,-82.7444 424.765,-86.2817"/>
</g>
<!-- Node4 -->
<g id="node5" class="node"><title>Node4</title>
<polygon fill="white" stroke="#bfbfbf" points="222,-56.5 222,-75.5 278,-75.5 278,-56.5 222,-56.5"/>
<text text-anchor="middle" x="250" y="-63.5" font-family="Helvetica,sans-Serif" font-size="10.00">algorithm</text>
</g>
<!-- Node1&#45;&gt;Node4 -->
<g id="edge4" class="edge"><title>Node1&#45;&gt;Node4</title>
<path fill="none" stroke="midnightblue" d="M276.993,-284.242C255.342,-278.658 225.32,-267.057 211,-244 178.966,-192.423 217.378,-118.042 238.24,-84.5338"/>
<polygon fill="midnightblue" stroke="midnightblue" points="241.35,-86.1695 243.821,-75.8668 235.464,-82.3799 241.35,-86.1695"/>
</g>
<!-- Node5 -->
<g id="node6" class="node"><title>Node5</title>
<polygon fill="white" stroke="#bfbfbf" points="220,-224.5 220,-243.5 274,-243.5 274,-224.5 220,-224.5"/>
<text text-anchor="middle" x="247" y="-231.5" font-family="Helvetica,sans-Serif" font-size="10.00">iostream</text>
</g>
<!-- Node1&#45;&gt;Node5 -->
<g id="edge5" class="edge"><title>Node1&#45;&gt;Node5</title>
<path fill="none" stroke="midnightblue" d="M292.918,-280.083C284.829,-272.141 272.805,-260.335 263.09,-250.797"/>
<polygon fill="midnightblue" stroke="midnightblue" points="265.501,-248.26 255.913,-243.751 260.597,-253.254 265.501,-248.26"/>
</g>
<!-- Node6 -->
<g id="node7" class="node"><title>Node6</title>
<polygon fill="white" stroke="#bfbfbf" points="64,-0.5 64,-19.5 168,-19.5 168,-0.5 64,-0.5"/>
<text text-anchor="middle" x="116" y="-7.5" font-family="Helvetica,sans-Serif" font-size="10.00">SFML/Graphics.hpp</text>
</g>
<!-- Node1&#45;&gt;Node6 -->
<g id="edge6" class="edge"><title>Node1&#45;&gt;Node6</title>
<path fill="none" stroke="midnightblue" d="M276.915,-285.942C226.145,-278.206 116,-252.907 116,-179 116,-179 116,-179 116,-121 116,-88.948 116,-51.6426 116,-29.7489"/>
<polygon fill="midnightblue" stroke="midnightblue" points="119.5,-29.5577 116,-19.5578 112.5,-29.5578 119.5,-29.5577"/>
</g>
<!-- Node7 -->
<g id="node8" class="node"><title>Node7</title>
<polygon fill="white" stroke="#bfbfbf" points="281,-0.5 281,-19.5 379,-19.5 379,-0.5 281,-0.5"/>
<text text-anchor="middle" x="330" y="-7.5" font-family="Helvetica,sans-Serif" font-size="10.00">SFML/System.hpp</text>
</g>
<!-- Node1&#45;&gt;Node7 -->
<g id="edge7" class="edge"><title>Node1&#45;&gt;Node7</title>
<path fill="none" stroke="midnightblue" d="M276.894,-282.774C234.669,-270.628 154,-239.507 154,-179 154,-179 154,-179 154,-121 154,-90.2048 155.519,-77.0466 178,-56 202.999,-32.5954 239.608,-21.3114 270.633,-15.8948"/>
<polygon fill="midnightblue" stroke="midnightblue" points="271.583,-19.2884 280.916,-14.2738 270.493,-12.3738 271.583,-19.2884"/>
</g>
<!-- Node8 -->
<g id="node9" class="node"><title>Node8</title>
<g id="a_node9"><a xlink:href="_capacite_8h.html" target="_top" xlink:title="Capacites/Capacite.h">
<polygon fill="white" stroke="black" points="558.5,-168.5 558.5,-187.5 669.5,-187.5 669.5,-168.5 558.5,-168.5"/>
<text text-anchor="middle" x="614" y="-175.5" font-family="Helvetica,sans-Serif" font-size="10.00">Capacites/Capacite.h</text>
</a>
</g>
</g>
<!-- Node1&#45;&gt;Node8 -->
<g id="edge8" class="edge"><title>Node1&#45;&gt;Node8</title>
<path fill="none" stroke="midnightblue" d="M327.138,-288.855C372.779,-287.641 471.276,-280.586 544,-244 567.035,-232.411 587.911,-210.922 600.753,-195.833"/>
<polygon fill="midnightblue" stroke="midnightblue" points="603.699,-197.761 607.342,-187.812 598.29,-193.318 603.699,-197.761"/>
</g>
<!-- Node9 -->
<g id="node10" class="node"><title>Node9</title>
<g id="a_node10"><a xlink:href="_projectile_8h.html" target="_top" xlink:title="../Projectiles/Projectile.h">
<polygon fill="white" stroke="black" points="562.5,-112.5 562.5,-131.5 685.5,-131.5 685.5,-112.5 562.5,-112.5"/>
<text text-anchor="middle" x="624" y="-119.5" font-family="Helvetica,sans-Serif" font-size="10.00">../Projectiles/Projectile.h</text>
</a>
</g>
</g>
<!-- Node1&#45;&gt;Node9 -->
<g id="edge21" class="edge"><title>Node1&#45;&gt;Node9</title>
<path fill="none" stroke="midnightblue" d="M327.232,-288.965C366.978,-287.732 445.079,-280.417 498,-244 531.511,-220.94 519.518,-196.027 549,-168 562.632,-155.041 580.631,-144.087 595.58,-136.232"/>
<polygon fill="midnightblue" stroke="midnightblue" points="597.54,-139.163 604.886,-131.528 594.382,-132.916 597.54,-139.163"/>
</g>
<!-- Node11 -->
<g id="node12" class="node"><title>Node11</title>
<g id="a_node12"><a xlink:href="_vaisseau_8h.html" target="_top" xlink:title="Vaisseau/Vaisseau.h">
<polygon fill="white" stroke="black" points="380.5,-224.5 380.5,-243.5 489.5,-243.5 489.5,-224.5 380.5,-224.5"/>
<text text-anchor="middle" x="435" y="-231.5" font-family="Helvetica,sans-Serif" font-size="10.00">Vaisseau/Vaisseau.h</text>
</a>
</g>
</g>
<!-- Node1&#45;&gt;Node11 -->
<g id="edge22" class="edge"><title>Node1&#45;&gt;Node11</title>
<path fill="none" stroke="midnightblue" d="M323.074,-280.444C345.06,-271.517 379.734,-257.439 404.664,-247.317"/>
<polygon fill="midnightblue" stroke="midnightblue" points="406.076,-250.521 414.024,-243.516 403.442,-244.035 406.076,-250.521"/>
</g>
<!-- Node12 -->
<g id="node13" class="node"><title>Node12</title>
<g id="a_node13"><a xlink:href="_input_8h.html" target="_top" xlink:title="Interface/Input.h">
<polygon fill="white" stroke="black" points="0,-224.5 0,-243.5 88,-243.5 88,-224.5 0,-224.5"/>
<text text-anchor="middle" x="44" y="-231.5" font-family="Helvetica,sans-Serif" font-size="10.00">Interface/Input.h</text>
</a>
</g>
</g>
<!-- Node1&#45;&gt;Node12 -->
<g id="edge29" class="edge"><title>Node1&#45;&gt;Node12</title>
<path fill="none" stroke="midnightblue" d="M276.792,-283.724C234.775,-274.93 149.632,-257.109 94.7874,-245.63"/>
<polygon fill="midnightblue" stroke="midnightblue" points="95.4214,-242.187 84.9165,-243.564 93.9873,-249.038 95.4214,-242.187"/>
</g>
<!-- Node8&#45;&gt;Node2 -->
<g id="edge9" class="edge"><title>Node8&#45;&gt;Node2</title>
<path fill="none" stroke="midnightblue" d="M641.256,-168.429C670.012,-157.817 709.222,-137.926 694,-112 661.767,-57.1014 587.643,-29.8451 544.921,-18.2439"/>
<polygon fill="midnightblue" stroke="midnightblue" points="545.593,-14.8025 535.035,-15.6868 543.84,-21.5795 545.593,-14.8025"/>
</g>
<!-- Node8&#45;&gt;Node3 -->
<g id="edge10" class="edge"><title>Node8&#45;&gt;Node3</title>
<path fill="none" stroke="midnightblue" d="M598.218,-168.457C581.975,-159.586 556.007,-145.188 534,-132 505.885,-115.152 474.134,-94.6835 453.633,-81.2739"/>
<polygon fill="midnightblue" stroke="midnightblue" points="455.34,-78.2078 445.059,-75.6478 451.5,-84.0603 455.34,-78.2078"/>
</g>
<!-- Node8&#45;&gt;Node4 -->
<g id="edge11" class="edge"><title>Node8&#45;&gt;Node4</title>
<path fill="none" stroke="midnightblue" d="M585.74,-168.46C520.89,-148.862 361.342,-100.647 288,-78.4834"/>
<polygon fill="midnightblue" stroke="midnightblue" points="288.827,-75.077 278.242,-75.5345 286.802,-81.7777 288.827,-75.077"/>
</g>
<!-- Node8&#45;&gt;Node9 -->
<g id="edge12" class="edge"><title>Node8&#45;&gt;Node9</title>
<path fill="none" stroke="midnightblue" d="M615.651,-168.083C616.976,-160.927 618.882,-150.635 620.539,-141.691"/>
<polygon fill="midnightblue" stroke="midnightblue" points="624,-142.221 622.379,-131.751 617.117,-140.947 624,-142.221"/>
</g>
<!-- Node10 -->
<g id="node11" class="node"><title>Node10</title>
<g id="a_node11"><a xlink:href="_entite_8h.html" target="_top" xlink:title="../Entite.h">
<polygon fill="white" stroke="black" points="483.5,-56.5 483.5,-75.5 542.5,-75.5 542.5,-56.5 483.5,-56.5"/>
<text text-anchor="middle" x="513" y="-63.5" font-family="Helvetica,sans-Serif" font-size="10.00">../Entite.h</text>
</a>
</g>
</g>
<!-- Node8&#45;&gt;Node10 -->
<g id="edge20" class="edge"><title>Node8&#45;&gt;Node10</title>
<path fill="none" stroke="midnightblue" d="M599.198,-168.367C586.005,-160.173 566.717,-146.919 553,-132 539.866,-117.715 528.668,-98.501 521.49,-84.6731"/>
<polygon fill="midnightblue" stroke="midnightblue" points="524.607,-83.0813 517.003,-75.7036 518.347,-86.2129 524.607,-83.0813"/>
</g>
<!-- Node9&#45;&gt;Node2 -->
<g id="edge13" class="edge"><title>Node9&#45;&gt;Node2</title>
<path fill="none" stroke="midnightblue" d="M615.29,-112.368C596.648,-93.8941 552.65,-50.2926 528.887,-26.7436"/>
<polygon fill="midnightblue" stroke="midnightblue" points="531.236,-24.1444 521.67,-19.5914 526.309,-29.1165 531.236,-24.1444"/>
</g>
<!-- Node9&#45;&gt;Node3 -->
<g id="edge14" class="edge"><title>Node9&#45;&gt;Node3</title>
<path fill="none" stroke="midnightblue" d="M593.577,-112.444C557.68,-102.347 498.349,-85.6606 462.443,-75.562"/>
<polygon fill="midnightblue" stroke="midnightblue" points="463.114,-72.115 452.54,-72.7767 461.218,-78.8536 463.114,-72.115"/>
</g>
<!-- Node9&#45;&gt;Node4 -->
<g id="edge15" class="edge"><title>Node9&#45;&gt;Node4</title>
<path fill="none" stroke="midnightblue" d="M564.739,-112.444C487.28,-101.26 353.809,-81.9885 288.397,-72.5439"/>
<polygon fill="midnightblue" stroke="midnightblue" points="288.524,-69.0261 278.126,-71.061 287.524,-75.9542 288.524,-69.0261"/>
</g>
<!-- Node9&#45;&gt;Node10 -->
<g id="edge16" class="edge"><title>Node9&#45;&gt;Node10</title>
<path fill="none" stroke="midnightblue" d="M606.166,-112.324C588.284,-103.625 560.525,-90.1202 539.954,-80.113"/>
<polygon fill="midnightblue" stroke="midnightblue" points="541.313,-76.8819 530.79,-75.6545 538.251,-83.1765 541.313,-76.8819"/>
</g>
<!-- Node10&#45;&gt;Node2 -->
<g id="edge17" class="edge"><title>Node10&#45;&gt;Node2</title>
<path fill="none" stroke="midnightblue" d="M513,-56.083C513,-49.0059 513,-38.8611 513,-29.9865"/>
<polygon fill="midnightblue" stroke="midnightblue" points="516.5,-29.751 513,-19.7511 509.5,-29.7511 516.5,-29.751"/>
</g>
<!-- Node10&#45;&gt;Node6 -->
<g id="edge19" class="edge"><title>Node10&#45;&gt;Node6</title>
<path fill="none" stroke="midnightblue" d="M483.336,-59.6461C476.042,-58.3904 468.247,-57.0992 461,-56 362.445,-41.0503 247.586,-26.6747 178.399,-18.3455"/>
<polygon fill="midnightblue" stroke="midnightblue" points="178.46,-14.8277 168.114,-17.1113 177.626,-21.7779 178.46,-14.8277"/>
</g>
<!-- Node10&#45;&gt;Node7 -->
<g id="edge18" class="edge"><title>Node10&#45;&gt;Node7</title>
<path fill="none" stroke="midnightblue" d="M484.003,-56.4435C452.815,-47.2406 403.07,-32.5617 368.592,-22.3879"/>
<polygon fill="midnightblue" stroke="midnightblue" points="369.443,-18.9898 358.861,-19.5164 367.462,-25.7036 369.443,-18.9898"/>
</g>
<!-- Node11&#45;&gt;Node2 -->
<g id="edge23" class="edge"><title>Node11&#45;&gt;Node2</title>
<path fill="none" stroke="midnightblue" d="M429.371,-224.37C412.349,-197.083 364.801,-111.22 402,-56 419.461,-30.0803 454.678,-19.0847 480.784,-14.4234"/>
<polygon fill="midnightblue" stroke="midnightblue" points="481.643,-17.8319 490.985,-12.835 480.566,-10.9152 481.643,-17.8319"/>
</g>
<!-- Node11&#45;&gt;Node3 -->
<g id="edge24" class="edge"><title>Node11&#45;&gt;Node3</title>
<path fill="none" stroke="midnightblue" d="M434.839,-224.075C434.366,-197.945 432.98,-121.211 432.336,-85.577"/>
<polygon fill="midnightblue" stroke="midnightblue" points="435.835,-85.5032 432.155,-75.5681 428.836,-85.6298 435.835,-85.5032"/>
</g>
<!-- Node11&#45;&gt;Node4 -->
<g id="edge25" class="edge"><title>Node11&#45;&gt;Node4</title>
<path fill="none" stroke="midnightblue" d="M418.262,-224.325C389.628,-208.852 330.602,-174.131 292,-132 278.707,-117.492 266.878,-98.3105 259.188,-84.5508"/>
<polygon fill="midnightblue" stroke="midnightblue" points="262.199,-82.7603 254.358,-75.6343 256.044,-86.0943 262.199,-82.7603"/>
</g>
<!-- Node11&#45;&gt;Node8 -->
<g id="edge26" class="edge"><title>Node11&#45;&gt;Node8</title>
<path fill="none" stroke="midnightblue" d="M463.363,-224.444C493.738,-215.28 542.11,-200.688 575.816,-190.519"/>
<polygon fill="midnightblue" stroke="midnightblue" points="577.207,-193.756 585.77,-187.516 575.185,-187.054 577.207,-193.756"/>
</g>
<!-- Node11&#45;&gt;Node9 -->
<g id="edge28" class="edge"><title>Node11&#45;&gt;Node9</title>
<path fill="none" stroke="midnightblue" d="M443.847,-224.485C458.106,-211.102 487.468,-184.929 516,-168 538.875,-154.427 566.605,-142.966 588.239,-135.007"/>
<polygon fill="midnightblue" stroke="midnightblue" points="589.484,-138.279 597.711,-131.602 587.116,-131.692 589.484,-138.279"/>
</g>
<!-- Node11&#45;&gt;Node10 -->
<g id="edge27" class="edge"><title>Node11&#45;&gt;Node10</title>
<path fill="none" stroke="midnightblue" d="M439.194,-224.075C451.578,-197.719 488.154,-119.878 504.702,-84.6608"/>
<polygon fill="midnightblue" stroke="midnightblue" points="507.889,-86.1072 508.974,-75.5681 501.554,-83.1303 507.889,-86.1072"/>
</g>
<!-- Node12&#45;&gt;Node6 -->
<g id="edge30" class="edge"><title>Node12&#45;&gt;Node6</title>
<path fill="none" stroke="midnightblue" d="M39.2339,-224.133C33.1074,-211.587 23.8398,-187.958 29,-168 43.4369,-112.162 82.4717,-55.0017 102.992,-27.6161"/>
<polygon fill="midnightblue" stroke="midnightblue" points="105.891,-29.5869 109.179,-19.5152 100.328,-25.3381 105.891,-29.5869"/>
</g>
<!-- Node13 -->
<g id="node14" class="node"><title>Node13</title>
<polygon fill="white" stroke="#bfbfbf" points="38,-168.5 38,-187.5 88,-187.5 88,-168.5 38,-168.5"/>
<text text-anchor="middle" x="63" y="-175.5" font-family="Helvetica,sans-Serif" font-size="10.00">optional</text>
</g>
<!-- Node12&#45;&gt;Node13 -->
<g id="edge31" class="edge"><title>Node12&#45;&gt;Node13</title>
<path fill="none" stroke="midnightblue" d="M47.1375,-224.083C49.6829,-216.849 53.3562,-206.409 56.5271,-197.397"/>
<polygon fill="midnightblue" stroke="midnightblue" points="59.9034,-198.346 59.9209,-187.751 53.3002,-196.023 59.9034,-198.346"/>
</g>
<!-- Node14&#45;&gt;Node15 -->
<g id="edge33" class="edge"><title>Node14&#45;&gt;Node15</title>
<path fill="none" stroke="midnightblue" d="M935.541,-224.083C931.846,-216.691 926.477,-205.953 921.906,-196.811"/>
<polygon fill="midnightblue" stroke="midnightblue" points="924.978,-195.13 917.376,-187.751 918.717,-198.261 924.978,-195.13"/>
</g>
<!-- Node16 -->
<g id="node17" class="node"><title>Node16</title>
<g id="a_node17"><a xlink:href="_proj_piou_8h.html" target="_top" xlink:title="ProjPiou.h">
<polygon fill="white" stroke="black" points="726,-168.5 726,-187.5 788,-187.5 788,-168.5 726,-168.5"/>
<text text-anchor="middle" x="757" y="-175.5" font-family="Helvetica,sans-Serif" font-size="10.00">ProjPiou.h</text>
</a>
</g>
</g>
<!-- Node14&#45;&gt;Node16 -->
<g id="edge35" class="edge"><title>Node14&#45;&gt;Node16</title>
<path fill="none" stroke="midnightblue" d="M911.003,-224.444C879.815,-215.241 830.07,-200.562 795.592,-190.388"/>
<polygon fill="midnightblue" stroke="midnightblue" points="796.443,-186.99 785.861,-187.516 794.462,-193.704 796.443,-186.99"/>
</g>
<!-- Node15&#45;&gt;Node9 -->
<g id="edge34" class="edge"><title>Node15&#45;&gt;Node9</title>
<path fill="none" stroke="midnightblue" d="M881.797,-171.17C833.438,-162.134 739.708,-144.62 679.581,-133.385"/>
<polygon fill="midnightblue" stroke="midnightblue" points="679.971,-129.898 669.498,-131.501 678.685,-136.779 679.971,-129.898"/>
</g>
<!-- Node16&#45;&gt;Node9 -->
<g id="edge36" class="edge"><title>Node16&#45;&gt;Node9</title>
<path fill="none" stroke="midnightblue" d="M735.926,-168.444C713.94,-159.517 679.266,-145.439 654.336,-135.317"/>
<polygon fill="midnightblue" stroke="midnightblue" points="655.558,-132.035 644.976,-131.516 652.924,-138.521 655.558,-132.035"/>
</g>
<!-- Node18 -->
<g id="node19" class="node"><title>Node18</title>
<g id="a_node19"><a xlink:href="_cap_test_8h.html" target="_top" xlink:title="CapTest.h">
<polygon fill="white" stroke="black" points="714,-224.5 714,-243.5 776,-243.5 776,-224.5 714,-224.5"/>
<text text-anchor="middle" x="745" y="-231.5" font-family="Helvetica,sans-Serif" font-size="10.00">CapTest.h</text>
</a>
</g>
</g>
<!-- Node17&#45;&gt;Node18 -->
<g id="edge38" class="edge"><title>Node17&#45;&gt;Node18</title>
<path fill="none" stroke="midnightblue" d="M746.67,-280.083C746.408,-273.006 746.032,-262.861 745.703,-253.986"/>
<polygon fill="midnightblue" stroke="midnightblue" points="749.192,-253.615 745.324,-243.751 742.197,-253.874 749.192,-253.615"/>
</g>
<!-- Node19 -->
<g id="node20" class="node"><title>Node19</title>
<g id="a_node20"><a xlink:href="_cap_piou_8h.html" target="_top" xlink:title="CapPiou.h">
<polygon fill="white" stroke="black" points="634,-224.5 634,-243.5 696,-243.5 696,-224.5 634,-224.5"/>
<text text-anchor="middle" x="665" y="-231.5" font-family="Helvetica,sans-Serif" font-size="10.00">CapPiou.h</text>
</a>
</g>
</g>
<!-- Node17&#45;&gt;Node19 -->
<g id="edge42" class="edge"><title>Node17&#45;&gt;Node19</title>
<path fill="none" stroke="midnightblue" d="M733.825,-280.324C721.153,-271.979 701.767,-259.212 686.794,-249.352"/>
<polygon fill="midnightblue" stroke="midnightblue" points="688.419,-246.231 678.142,-243.655 684.569,-252.078 688.419,-246.231"/>
</g>
<!-- Node20 -->
<g id="node21" class="node"><title>Node20</title>
<g id="a_node21"><a xlink:href="_cap_dash_8h.html" target="_top" xlink:title="CapDash.h">
<polygon fill="white" stroke="black" points="794,-224.5 794,-243.5 860,-243.5 860,-224.5 794,-224.5"/>
<text text-anchor="middle" x="827" y="-231.5" font-family="Helvetica,sans-Serif" font-size="10.00">CapDash.h</text>
</a>
</g>
</g>
<!-- Node17&#45;&gt;Node20 -->
<g id="edge46" class="edge"><title>Node17&#45;&gt;Node20</title>
<path fill="none" stroke="midnightblue" d="M759.853,-280.324C772.216,-271.979 791.13,-259.212 805.737,-249.352"/>
<polygon fill="midnightblue" stroke="midnightblue" points="807.848,-252.15 814.179,-243.655 803.932,-246.348 807.848,-252.15"/>
</g>
<!-- Node18&#45;&gt;Node8 -->
<g id="edge39" class="edge"><title>Node18&#45;&gt;Node8</title>
<path fill="none" stroke="midnightblue" d="M724.243,-224.444C702.684,-215.557 668.737,-201.563 644.206,-191.451"/>
<polygon fill="midnightblue" stroke="midnightblue" points="645.239,-188.092 634.66,-187.516 642.572,-194.563 645.239,-188.092"/>
</g>
<!-- Node18&#45;&gt;Node9 -->
<g id="edge40" class="edge"><title>Node18&#45;&gt;Node9</title>
<path fill="none" stroke="midnightblue" d="M760.578,-224.45C781.095,-212.09 812.823,-188.465 797,-168 784.259,-151.521 737.312,-139.951 695.535,-132.673"/>
<polygon fill="midnightblue" stroke="midnightblue" points="696.049,-129.21 685.607,-131.005 694.889,-136.113 696.049,-129.21"/>
</g>
<!-- Node18&#45;&gt;Node15 -->
<g id="edge41" class="edge"><title>Node18&#45;&gt;Node15</title>
<path fill="none" stroke="midnightblue" d="M771.62,-224.444C800.006,-215.32 845.137,-200.813 876.753,-190.651"/>
<polygon fill="midnightblue" stroke="midnightblue" points="878.055,-193.909 886.504,-187.516 875.913,-187.244 878.055,-193.909"/>
</g>
<!-- Node19&#45;&gt;Node8 -->
<g id="edge43" class="edge"><title>Node19&#45;&gt;Node8</title>
<path fill="none" stroke="midnightblue" d="M656.578,-224.083C649.152,-216.22 638.148,-204.569 629.188,-195.081"/>
<polygon fill="midnightblue" stroke="midnightblue" points="631.676,-192.618 622.265,-187.751 626.587,-197.424 631.676,-192.618"/>
</g>
<!-- Node19&#45;&gt;Node9 -->
<g id="edge44" class="edge"><title>Node19&#45;&gt;Node9</title>
<path fill="none" stroke="midnightblue" d="M670.08,-224.175C676.79,-211.273 686.786,-186.759 678,-168 671.955,-155.094 660.188,-144.599 649.177,-137"/>
<polygon fill="midnightblue" stroke="midnightblue" points="650.943,-133.975 640.633,-131.536 647.172,-139.872 650.943,-133.975"/>
</g>
<!-- Node19&#45;&gt;Node16 -->
<g id="edge45" class="edge"><title>Node19&#45;&gt;Node16</title>
<path fill="none" stroke="midnightblue" d="M679.781,-224.324C694.267,-215.822 716.573,-202.729 733.493,-192.797"/>
<polygon fill="midnightblue" stroke="midnightblue" points="735.403,-195.735 742.255,-187.655 731.859,-189.698 735.403,-195.735"/>
</g>
<!-- Node20&#45;&gt;Node8 -->
<g id="edge47" class="edge"><title>Node20&#45;&gt;Node8</title>
<path fill="none" stroke="midnightblue" d="M793.719,-224.562C757.045,-215.265 697.921,-200.276 657.577,-190.048"/>
<polygon fill="midnightblue" stroke="midnightblue" points="658.304,-186.621 647.75,-187.556 656.584,-193.407 658.304,-186.621"/>
</g>
<!-- Node20&#45;&gt;Node10 -->
<g id="edge48" class="edge"><title>Node20&#45;&gt;Node10</title>
<path fill="none" stroke="midnightblue" d="M827.597,-224.419C828.073,-210.946 827.079,-184.653 814,-168 750.334,-86.94 619.076,-70.4113 552.941,-67.3903"/>
<polygon fill="midnightblue" stroke="midnightblue" points="553.031,-63.8913 542.907,-67.0136 552.768,-70.8863 553.031,-63.8913"/>
</g>
<!-- Node20&#45;&gt;Node15 -->
<g id="edge49" class="edge"><title>Node20&#45;&gt;Node15</title>
<path fill="none" stroke="midnightblue" d="M840.817,-224.324C854.233,-215.9 874.824,-202.971 890.586,-193.074"/>
<polygon fill="midnightblue" stroke="midnightblue" points="892.609,-195.936 899.217,-187.655 888.887,-190.008 892.609,-195.936"/>
</g>
<!-- Node21&#45;&gt;Node8 -->
<g id="edge53" class="edge"><title>Node21&#45;&gt;Node8</title>
<path fill="none" stroke="midnightblue" d="M604.785,-280.368C606.398,-262.617 610.121,-221.666 612.309,-197.597"/>
<polygon fill="midnightblue" stroke="midnightblue" points="615.799,-197.867 613.219,-187.591 608.828,-197.233 615.799,-197.867"/>
</g>
<!-- Node21&#45;&gt;Node11 -->
<g id="edge52" class="edge"><title>Node21&#45;&gt;Node11</title>
<path fill="none" stroke="midnightblue" d="M577.221,-280.444C548.667,-271.32 503.267,-256.813 471.463,-246.651"/>
<polygon fill="midnightblue" stroke="midnightblue" points="472.244,-243.226 461.653,-243.516 470.114,-249.894 472.244,-243.226"/>
</g>
</g>
</svg>
