<?xml version="1.0" encoding="UTF-8" standalone="no"?>
<!DOCTYPE svg PUBLIC "-//W3C//DTD SVG 1.1//EN"
 "http://www.w3.org/Graphics/SVG/1.1/DTD/svg11.dtd">
<!-- Generated by graphviz version 2.38.0 (20140413.2041)
 -->
<!-- Title: src/Partie.cpp Pages: 1 -->
<!--zoomable 420 -->
<svg id="main" version="1.1" xmlns="http://www.w3.org/2000/svg" xmlns:xlink="http://www.w3.org/1999/xlink" xml:space="preserve" onload="init(evt)">
<style type="text/css"><![CDATA[
.edge:hover path { stroke: red; }
.edge:hover polygon { stroke: red; fill: red; }
]]></style>
<script type="text/javascript"><![CDATA[
var edges = document.getElementsByTagName('g');
if (edges && edges.length) {
  for (var i=0;i<edges.length;i++) {
    if (edges[i].id.substr(0,4)=='edge') {
      edges[i].setAttribute('class','edge');
    }
  }
}
]]></script>
        <defs>
                <circle id="rim" cx="0" cy="0" r="7"/>
                <circle id="rim2" cx="0" cy="0" r="3.5"/>
                <g id="zoomPlus">
                        <use xlink:href="#rim" fill="#404040">
                                <set attributeName="fill" to="#808080" begin="zoomplus.mouseover" end="zoomplus.mouseout"/>
                        </use>
                        <path d="M-4,0h8M0,-4v8" fill="none" stroke="white" stroke-width="1.5" pointer-events="none"/>
                </g>
                <g id="zoomMin">
                        <use xlink:href="#rim" fill="#404040">
                                <set attributeName="fill" to="#808080" begin="zoomminus.mouseover" end="zoomminus.mouseout"/>
                        </use>
                        <path d="M-4,0h8" fill="none" stroke="white" stroke-width="1.5" pointer-events="none"/>
                </g>
                <g id="dirArrow">
                        <path fill="none" stroke="white" stroke-width="1.5" d="M0,-3.0v7 M-2.5,-0.5L0,-3.0L2.5,-0.5"/>
                </g>
               <g id="resetDef">
                       <use xlink:href="#rim2" fill="#404040">
                               <set attributeName="fill" to="#808080" begin="reset.mouseover" end="reset.mouseout"/>
                       </use>
               </g>
        </defs>

<script type="text/javascript">
var viewWidth = 1019;
var viewHeight = 420;
var sectionId = 'dynsection-0';
</script>
<script xlink:href="svgpan.js"/>
<svg id="graph" class="graph">
<g id="viewport">
<title>src/Partie.cpp</title>
<polygon fill="white" stroke="none" points="-4,4 -4,-416 1015.02,-416 1015.02,4 -4,4"/>
<!-- Node0 -->
<g id="node1" class="node"><title>Node0</title>
<polygon fill="#bfbfbf" stroke="black" points="609.5,-392.5 609.5,-411.5 686.5,-411.5 686.5,-392.5 609.5,-392.5"/>
<text text-anchor="middle" x="648" y="-399.5" font-family="Helvetica,sans-Serif" font-size="10.00">src/Partie.cpp</text>
</g>
<!-- Node1 -->
<g id="node2" class="node"><title>Node1</title>
<g id="a_node2"><a xlink:href="_partie_8h.html" target="_top" xlink:title="Partie.h">
<polygon fill="white" stroke="black" points="264,-280.5 264,-299.5 314,-299.5 314,-280.5 264,-280.5"/>
<text text-anchor="middle" x="289" y="-287.5" font-family="Helvetica,sans-Serif" font-size="10.00">Partie.h</text>
</a>
</g>
</g>
<!-- Node0&#45;&gt;Node1 -->
<g id="edge1" class="edge"><title>Node0&#45;&gt;Node1</title>
<path fill="none" stroke="midnightblue" d="M620.129,-392.46C555.436,-372.638 395.195,-323.539 324.025,-301.732"/>
<polygon fill="midnightblue" stroke="midnightblue" points="324.78,-298.303 314.193,-298.719 322.729,-304.995 324.78,-298.303"/>
</g>
<!-- Node16 -->
<g id="node17" class="node"><title>Node16</title>
<g id="a_node17"><a xlink:href="__projectiles_8h.html" target="_top" xlink:title="Projectiles/_projectiles.h">
<polygon fill="white" stroke="black" points="858.5,-224.5 858.5,-243.5 981.5,-243.5 981.5,-224.5 858.5,-224.5"/>
<text text-anchor="middle" x="920" y="-231.5" font-family="Helvetica,sans-Serif" font-size="10.00">Projectiles/_projectiles.h</text>
</a>
</g>
</g>
<!-- Node0&#45;&gt;Node16 -->
<g id="edge34" class="edge"><title>Node0&#45;&gt;Node16</title>
<path fill="none" stroke="midnightblue" d="M662.241,-392.309C706.673,-365.192 843.02,-281.98 897.331,-248.834"/>
<polygon fill="midnightblue" stroke="midnightblue" points="899.187,-251.802 905.9,-243.605 895.541,-245.827 899.187,-251.802"/>
</g>
<!-- Node19 -->
<g id="node20" class="node"><title>Node19</title>
<g id="a_node20"><a xlink:href="___capacites_8h.html" target="_top" xlink:title="Capacites/_Capacites.h">
<polygon fill="white" stroke="black" points="664,-280.5 664,-299.5 786,-299.5 786,-280.5 664,-280.5"/>
<text text-anchor="middle" x="725" y="-287.5" font-family="Helvetica,sans-Serif" font-size="10.00">Capacites/_Capacites.h</text>
</a>
</g>
</g>
<!-- Node0&#45;&gt;Node19 -->
<g id="edge39" class="edge"><title>Node0&#45;&gt;Node19</title>
<path fill="none" stroke="midnightblue" d="M654.042,-392.368C666.749,-374.215 696.439,-331.802 713.107,-307.99"/>
<polygon fill="midnightblue" stroke="midnightblue" points="716.119,-309.791 718.986,-299.591 710.384,-305.777 716.119,-309.791"/>
</g>
<!-- Node23 -->
<g id="node24" class="node"><title>Node23</title>
<g id="a_node24"><a xlink:href="__vaisseaux_8h.html" target="_top" xlink:title="Vaisseau/_vaisseaux.h">
<polygon fill="white" stroke="black" points="535,-336.5 535,-355.5 653,-355.5 653,-336.5 535,-336.5"/>
<text text-anchor="middle" x="594" y="-343.5" font-family="Helvetica,sans-Serif" font-size="10.00">Vaisseau/_vaisseaux.h</text>
</a>
</g>
</g>
<!-- Node0&#45;&gt;Node23 -->
<g id="edge52" class="edge"><title>Node0&#45;&gt;Node23</title>
<path fill="none" stroke="midnightblue" d="M639.083,-392.083C631.22,-384.22 619.569,-372.569 610.081,-363.081"/>
<polygon fill="midnightblue" stroke="midnightblue" points="612.297,-360.347 602.751,-355.751 607.347,-365.297 612.297,-360.347"/>
</g>
<!-- Node2 -->
<g id="node3" class="node"><title>Node2</title>
<polygon fill="white" stroke="#bfbfbf" points="489,-0.5 489,-19.5 533,-19.5 533,-0.5 489,-0.5"/>
<text text-anchor="middle" x="511" y="-7.5" font-family="Helvetica,sans-Serif" font-size="10.00">vector</text>
</g>
<!-- Node1&#45;&gt;Node2 -->
<g id="edge2" class="edge"><title>Node1&#45;&gt;Node2</title>
<path fill="none" stroke="midnightblue" d="M273.643,-280.31C247.228,-264.093 196,-226.515 196,-179 196,-179 196,-179 196,-121 196,-61.5438 398.552,-26.7094 478.809,-15.2407"/>
<polygon fill="midnightblue" stroke="midnightblue" points="479.431,-18.6879 488.85,-13.8371 478.462,-11.7553 479.431,-18.6879"/>
</g>
<!-- Node3 -->
<g id="node4" class="node"><title>Node3</title>
<polygon fill="white" stroke="#bfbfbf" points="423.5,-56.5 423.5,-75.5 464.5,-75.5 464.5,-56.5 423.5,-56.5"/>
<text text-anchor="middle" x="444" y="-63.5" font-family="Helvetica,sans-Serif" font-size="10.00">string</text>
</g>
<!-- Node1&#45;&gt;Node3 -->
<g id="edge3" class="edge"><title>Node1&#45;&gt;Node3</title>
<path fill="none" stroke="midnightblue" d="M296.394,-280.205C303.832,-271.256 315.526,-256.903 325,-244 366.904,-186.926 412.602,-116.361 433.046,-84.3022"/>
<polygon fill="midnightblue" stroke="midnightblue" points="436.137,-85.9637 438.548,-75.6468 430.23,-82.2085 436.137,-85.9637"/>
</g>
<!-- Node4 -->
<g id="node5" class="node"><title>Node4</title>
<polygon fill="white" stroke="#bfbfbf" points="340,-56.5 340,-75.5 396,-75.5 396,-56.5 340,-56.5"/>
<text text-anchor="middle" x="368" y="-63.5" font-family="Helvetica,sans-Serif" font-size="10.00">algorithm</text>
</g>
<!-- Node1&#45;&gt;Node4 -->
<g id="edge4" class="edge"><title>Node1&#45;&gt;Node4</title>
<path fill="none" stroke="midnightblue" d="M278.838,-280.185C270.092,-271.87 258.1,-258.539 253,-244 250.058,-235.612 251.02,-232.666 253,-224 265.309,-170.127 271.729,-154.541 307,-112 317.174,-99.7289 331.376,-88.9958 343.517,-81.0925"/>
<polygon fill="midnightblue" stroke="midnightblue" points="345.662,-83.8801 352.299,-75.6217 341.961,-77.9387 345.662,-83.8801"/>
</g>
<!-- Node5 -->
<g id="node6" class="node"><title>Node5</title>
<polygon fill="white" stroke="#bfbfbf" points="262,-224.5 262,-243.5 316,-243.5 316,-224.5 262,-224.5"/>
<text text-anchor="middle" x="289" y="-231.5" font-family="Helvetica,sans-Serif" font-size="10.00">iostream</text>
</g>
<!-- Node1&#45;&gt;Node5 -->
<g id="edge5" class="edge"><title>Node1&#45;&gt;Node5</title>
<path fill="none" stroke="midnightblue" d="M289,-280.083C289,-273.006 289,-262.861 289,-253.986"/>
<polygon fill="midnightblue" stroke="midnightblue" points="292.5,-253.751 289,-243.751 285.5,-253.751 292.5,-253.751"/>
</g>
<!-- Node6 -->
<g id="node7" class="node"><title>Node6</title>
<polygon fill="white" stroke="#bfbfbf" points="0,-0.5 0,-19.5 104,-19.5 104,-0.5 0,-0.5"/>
<text text-anchor="middle" x="52" y="-7.5" font-family="Helvetica,sans-Serif" font-size="10.00">SFML/Graphics.hpp</text>
</g>
<!-- Node1&#45;&gt;Node6 -->
<g id="edge6" class="edge"><title>Node1&#45;&gt;Node6</title>
<path fill="none" stroke="midnightblue" d="M263.738,-287.873C206.025,-284.792 66.8725,-274.326 33,-244 10.5761,-223.924 14,-209.098 14,-179 14,-179 14,-179 14,-121 14,-86.8131 30.6005,-49.7639 41.8573,-28.5707"/>
<polygon fill="midnightblue" stroke="midnightblue" points="44.9473,-30.2151 46.7163,-19.769 38.8191,-26.832 44.9473,-30.2151"/>
</g>
<!-- Node7 -->
<g id="node8" class="node"><title>Node7</title>
<polygon fill="white" stroke="#bfbfbf" points="244,-0.5 244,-19.5 342,-19.5 342,-0.5 244,-0.5"/>
<text text-anchor="middle" x="293" y="-7.5" font-family="Helvetica,sans-Serif" font-size="10.00">SFML/System.hpp</text>
</g>
<!-- Node1&#45;&gt;Node7 -->
<g id="edge7" class="edge"><title>Node1&#45;&gt;Node7</title>
<path fill="none" stroke="midnightblue" d="M263.64,-284.381C239.609,-278.758 204.009,-267.009 182,-244 160.713,-221.746 158,-209.795 158,-179 158,-179 158,-179 158,-121 158,-90.2048 160.57,-78.1153 182,-56 197.678,-39.8211 219.966,-29.2766 240.462,-22.4951"/>
<polygon fill="midnightblue" stroke="midnightblue" points="241.505,-25.8364 250.032,-19.5488 239.445,-19.1463 241.505,-25.8364"/>
</g>
<!-- Node8 -->
<g id="node9" class="node"><title>Node8</title>
<g id="a_node9"><a xlink:href="_capacite_8h.html" target="_top" xlink:title="Capacites/Capacite.h">
<polygon fill="white" stroke="black" points="501.5,-168.5 501.5,-187.5 612.5,-187.5 612.5,-168.5 501.5,-168.5"/>
<text text-anchor="middle" x="557" y="-175.5" font-family="Helvetica,sans-Serif" font-size="10.00">Capacites/Capacite.h</text>
</a>
</g>
</g>
<!-- Node1&#45;&gt;Node8 -->
<g id="edge8" class="edge"><title>Node1&#45;&gt;Node8</title>
<path fill="none" stroke="midnightblue" d="M314.367,-287.174C368.901,-282.789 495.035,-270.043 528,-244 542.372,-232.646 549.823,-212.651 553.549,-197.826"/>
<polygon fill="midnightblue" stroke="midnightblue" points="557.041,-198.239 555.726,-187.726 550.198,-196.764 557.041,-198.239"/>
</g>
<!-- Node9 -->
<g id="node10" class="node"><title>Node9</title>
<g id="a_node10"><a xlink:href="_projectile_8h.html" target="_top" xlink:title="../Projectiles/Projectile.h">
<polygon fill="white" stroke="black" points="539.5,-112.5 539.5,-131.5 662.5,-131.5 662.5,-112.5 539.5,-112.5"/>
<text text-anchor="middle" x="601" y="-119.5" font-family="Helvetica,sans-Serif" font-size="10.00">../Projectiles/Projectile.h</text>
</a>
</g>
</g>
<!-- Node1&#45;&gt;Node9 -->
<g id="edge23" class="edge"><title>Node1&#45;&gt;Node9</title>
<path fill="none" stroke="midnightblue" d="M302.19,-280.39C344.267,-252.929 472.691,-169.143 475,-168 502.839,-154.211 535.981,-142.547 561.286,-134.552"/>
<polygon fill="midnightblue" stroke="midnightblue" points="562.404,-137.87 570.918,-131.565 560.33,-131.184 562.404,-137.87"/>
</g>
<!-- Node13 -->
<g id="node14" class="node"><title>Node13</title>
<g id="a_node14"><a xlink:href="_vaisseau_8h.html" target="_top" xlink:title="Vaisseau/Vaisseau.h">
<polygon fill="white" stroke="black" points="410.5,-224.5 410.5,-243.5 519.5,-243.5 519.5,-224.5 410.5,-224.5"/>
<text text-anchor="middle" x="465" y="-231.5" font-family="Helvetica,sans-Serif" font-size="10.00">Vaisseau/Vaisseau.h</text>
</a>
</g>
</g>
<!-- Node1&#45;&gt;Node13 -->
<g id="edge24" class="edge"><title>Node1&#45;&gt;Node13</title>
<path fill="none" stroke="midnightblue" d="M314.217,-281.263C343.89,-272.159 393.435,-256.957 427.587,-246.479"/>
<polygon fill="midnightblue" stroke="midnightblue" points="428.683,-249.804 437.217,-243.524 426.63,-243.112 428.683,-249.804"/>
</g>
<!-- Node14 -->
<g id="node15" class="node"><title>Node14</title>
<g id="a_node15"><a xlink:href="_input_8h.html" target="_top" xlink:title="Interface/Input.h">
<polygon fill="white" stroke="black" points="42,-224.5 42,-243.5 130,-243.5 130,-224.5 42,-224.5"/>
<text text-anchor="middle" x="86" y="-231.5" font-family="Helvetica,sans-Serif" font-size="10.00">Interface/Input.h</text>
</a>
</g>
</g>
<!-- Node1&#45;&gt;Node14 -->
<g id="edge31" class="edge"><title>Node1&#45;&gt;Node14</title>
<path fill="none" stroke="midnightblue" d="M263.7,-282.27C229.629,-273.207 168.561,-256.962 127.659,-246.082"/>
<polygon fill="midnightblue" stroke="midnightblue" points="128.543,-242.695 117.98,-243.507 126.744,-249.46 128.543,-242.695"/>
</g>
<!-- Node8&#45;&gt;Node2 -->
<g id="edge9" class="edge"><title>Node8&#45;&gt;Node2</title>
<path fill="none" stroke="midnightblue" d="M550.318,-168.214C544.044,-159.502 534.91,-145.532 530,-132 517.414,-97.3151 513.161,-54.0591 511.727,-29.7863"/>
<polygon fill="midnightblue" stroke="midnightblue" points="515.222,-29.6079 511.235,-19.7919 508.231,-29.9516 515.222,-29.6079"/>
</g>
<!-- Node8&#45;&gt;Node3 -->
<g id="edge10" class="edge"><title>Node8&#45;&gt;Node3</title>
<path fill="none" stroke="midnightblue" d="M543.394,-168.205C530.727,-159.702 511.651,-146.069 497,-132 481.469,-117.087 466.197,-97.7142 456.066,-84.0101"/>
<polygon fill="midnightblue" stroke="midnightblue" points="458.637,-81.5941 449.934,-75.5527 452.97,-85.7031 458.637,-81.5941"/>
</g>
<!-- Node8&#45;&gt;Node4 -->
<g id="edge11" class="edge"><title>Node8&#45;&gt;Node4</title>
<path fill="none" stroke="midnightblue" d="M541.077,-168.366C524.677,-159.424 498.419,-144.969 476,-132 446.298,-114.818 412.465,-94.2996 390.704,-80.9772"/>
<polygon fill="midnightblue" stroke="midnightblue" points="392.243,-77.8152 381.889,-75.5697 388.582,-83.782 392.243,-77.8152"/>
</g>
<!-- Node8&#45;&gt;Node9 -->
<g id="edge12" class="edge"><title>Node8&#45;&gt;Node9</title>
<path fill="none" stroke="midnightblue" d="M564.266,-168.083C570.545,-160.377 579.788,-149.033 587.431,-139.653"/>
<polygon fill="midnightblue" stroke="midnightblue" points="590.266,-141.714 593.869,-131.751 584.839,-137.293 590.266,-141.714"/>
</g>
<!-- Node10 -->
<g id="node11" class="node"><title>Node10</title>
<g id="a_node11"><a xlink:href="_entite_8h.html" target="_top" xlink:title="../Entite.h">
<polygon fill="white" stroke="black" points="640.5,-56.5 640.5,-75.5 699.5,-75.5 699.5,-56.5 640.5,-56.5"/>
<text text-anchor="middle" x="670" y="-63.5" font-family="Helvetica,sans-Serif" font-size="10.00">../Entite.h</text>
</a>
</g>
</g>
<!-- Node8&#45;&gt;Node10 -->
<g id="edge22" class="edge"><title>Node8&#45;&gt;Node10</title>
<path fill="none" stroke="midnightblue" d="M612.502,-168.838C634.518,-162.581 657.714,-151.527 671,-132 680.117,-118.6 678.691,-99.7787 675.681,-85.8359"/>
<polygon fill="midnightblue" stroke="midnightblue" points="679.001,-84.6953 673.099,-75.8966 672.226,-86.4554 679.001,-84.6953"/>
</g>
<!-- Node9&#45;&gt;Node2 -->
<g id="edge13" class="edge"><title>Node9&#45;&gt;Node2</title>
<path fill="none" stroke="midnightblue" d="M593.938,-112.368C578.954,-94.0547 543.767,-51.0489 524.387,-27.3624"/>
<polygon fill="midnightblue" stroke="midnightblue" points="527.071,-25.1147 518.029,-19.5914 521.653,-29.5474 527.071,-25.1147"/>
</g>
<!-- Node9&#45;&gt;Node3 -->
<g id="edge14" class="edge"><title>Node9&#45;&gt;Node3</title>
<path fill="none" stroke="midnightblue" d="M576.123,-112.444C548.588,-102.973 504.193,-87.7032 474.563,-77.512"/>
<polygon fill="midnightblue" stroke="midnightblue" points="475.344,-74.0797 464.75,-74.1368 473.068,-80.6991 475.344,-74.0797"/>
</g>
<!-- Node9&#45;&gt;Node4 -->
<g id="edge15" class="edge"><title>Node9&#45;&gt;Node4</title>
<path fill="none" stroke="midnightblue" d="M564.08,-112.444C520.958,-102.449 449.969,-85.9971 406.273,-75.8701"/>
<polygon fill="midnightblue" stroke="midnightblue" points="406.85,-72.4113 396.318,-73.5631 405.27,-79.2305 406.85,-72.4113"/>
</g>
<!-- Node9&#45;&gt;Node10 -->
<g id="edge16" class="edge"><title>Node9&#45;&gt;Node10</title>
<path fill="none" stroke="midnightblue" d="M612.086,-112.324C622.486,-104.185 638.261,-91.8395 650.722,-82.0874"/>
<polygon fill="midnightblue" stroke="midnightblue" points="652.994,-84.7533 658.712,-75.8339 648.68,-79.2407 652.994,-84.7533"/>
</g>
<!-- Node10&#45;&gt;Node2 -->
<g id="edge17" class="edge"><title>Node10&#45;&gt;Node2</title>
<path fill="none" stroke="midnightblue" d="M644.806,-56.4435C617.113,-47.0385 572.581,-31.9142 542.577,-21.7242"/>
<polygon fill="midnightblue" stroke="midnightblue" points="543.598,-18.3748 533.004,-18.473 541.347,-25.003 543.598,-18.3748"/>
</g>
<!-- Node10&#45;&gt;Node6 -->
<g id="edge20" class="edge"><title>Node10&#45;&gt;Node6</title>
<path fill="none" stroke="midnightblue" d="M640.193,-62.3955C544.766,-54.0572 245.399,-27.8989 114.409,-16.4533"/>
<polygon fill="midnightblue" stroke="midnightblue" points="114.412,-12.9402 104.145,-15.5564 113.803,-19.9137 114.412,-12.9402"/>
</g>
<!-- Node10&#45;&gt;Node7 -->
<g id="edge19" class="edge"><title>Node10&#45;&gt;Node7</title>
<path fill="none" stroke="midnightblue" d="M640.417,-60.7627C578.493,-51.8929 434.199,-31.2247 352.382,-19.5056"/>
<polygon fill="midnightblue" stroke="midnightblue" points="352.633,-16.006 342.238,-18.0526 351.64,-22.9352 352.633,-16.006"/>
</g>
<!-- Node11 -->
<g id="node12" class="node"><title>Node11</title>
<polygon fill="white" stroke="#bfbfbf" points="644,-0.5 644,-19.5 696,-19.5 696,-0.5 644,-0.5"/>
<text text-anchor="middle" x="670" y="-7.5" font-family="Helvetica,sans-Serif" font-size="10.00">memory</text>
</g>
<!-- Node10&#45;&gt;Node11 -->
<g id="edge18" class="edge"><title>Node10&#45;&gt;Node11</title>
<path fill="none" stroke="midnightblue" d="M670,-56.083C670,-49.0059 670,-38.8611 670,-29.9865"/>
<polygon fill="midnightblue" stroke="midnightblue" points="673.5,-29.751 670,-19.7511 666.5,-29.7511 673.5,-29.751"/>
</g>
<!-- Node12 -->
<g id="node13" class="node"><title>Node12</title>
<g id="a_node13"><a xlink:href="constantes_8h.html" target="_top" xlink:title="constantes.h">
<polygon fill="white" stroke="black" points="850.5,-0.5 850.5,-19.5 923.5,-19.5 923.5,-0.5 850.5,-0.5"/>
<text text-anchor="middle" x="887" y="-7.5" font-family="Helvetica,sans-Serif" font-size="10.00">constantes.h</text>
</a>
</g>
</g>
<!-- Node10&#45;&gt;Node12 -->
<g id="edge21" class="edge"><title>Node10&#45;&gt;Node12</title>
<path fill="none" stroke="midnightblue" d="M699.718,-57.6048C736.684,-48.4057 800.123,-32.6193 842.799,-21.9994"/>
<polygon fill="midnightblue" stroke="midnightblue" points="843.779,-25.3622 852.638,-19.5509 842.089,-18.5694 843.779,-25.3622"/>
</g>
<!-- Node13&#45;&gt;Node2 -->
<g id="edge25" class="edge"><title>Node13&#45;&gt;Node2</title>
<path fill="none" stroke="midnightblue" d="M449.395,-224.457C404.436,-198.778 280.952,-120.1 331,-56 348.977,-32.9753 431.832,-19.9881 478.612,-14.3729"/>
<polygon fill="midnightblue" stroke="midnightblue" points="479.306,-17.8161 488.839,-13.1936 478.504,-10.8622 479.306,-17.8161"/>
</g>
<!-- Node13&#45;&gt;Node3 -->
<g id="edge26" class="edge"><title>Node13&#45;&gt;Node3</title>
<path fill="none" stroke="midnightblue" d="M463.871,-224.075C460.565,-197.945 450.858,-121.211 446.35,-85.577"/>
<polygon fill="midnightblue" stroke="midnightblue" points="449.811,-85.0497 445.084,-75.5681 442.867,-85.9283 449.811,-85.0497"/>
</g>
<!-- Node13&#45;&gt;Node4 -->
<g id="edge27" class="edge"><title>Node13&#45;&gt;Node4</title>
<path fill="none" stroke="midnightblue" d="M459.785,-224.075C444.318,-197.606 398.508,-119.209 378.056,-84.2097"/>
<polygon fill="midnightblue" stroke="midnightblue" points="381.074,-82.4363 373.007,-75.5681 375.03,-85.968 381.074,-82.4363"/>
</g>
<!-- Node13&#45;&gt;Node8 -->
<g id="edge28" class="edge"><title>Node13&#45;&gt;Node8</title>
<path fill="none" stroke="midnightblue" d="M479.781,-224.324C494.267,-215.822 516.573,-202.729 533.493,-192.797"/>
<polygon fill="midnightblue" stroke="midnightblue" points="535.403,-195.735 542.255,-187.655 531.859,-189.698 535.403,-195.735"/>
</g>
<!-- Node13&#45;&gt;Node9 -->
<g id="edge30" class="edge"><title>Node13&#45;&gt;Node9</title>
<path fill="none" stroke="midnightblue" d="M466.429,-224.236C469.099,-210.512 476.084,-183.881 492,-168 508.004,-152.031 530.483,-141.466 550.873,-134.613"/>
<polygon fill="midnightblue" stroke="midnightblue" points="552.182,-137.871 560.677,-131.54 550.088,-131.191 552.182,-137.871"/>
</g>
<!-- Node13&#45;&gt;Node10 -->
<g id="edge29" class="edge"><title>Node13&#45;&gt;Node10</title>
<path fill="none" stroke="midnightblue" d="M512.989,-224.461C544.868,-217.537 586.959,-205.934 621,-188 655.639,-169.751 672.291,-167.407 689,-132 696.268,-116.6 689.229,-97.818 681.746,-84.4115"/>
<polygon fill="midnightblue" stroke="midnightblue" points="684.63,-82.4184 676.417,-75.7246 678.663,-86.0787 684.63,-82.4184"/>
</g>
<!-- Node14&#45;&gt;Node6 -->
<g id="edge32" class="edge"><title>Node14&#45;&gt;Node6</title>
<path fill="none" stroke="midnightblue" d="M82.4363,-224.193C78.9614,-215.234 73.8026,-200.875 71,-188 58.6464,-131.25 54.1913,-62.4392 52.6954,-29.8545"/>
<polygon fill="midnightblue" stroke="midnightblue" points="56.1807,-29.4244 52.2691,-19.5781 49.1867,-29.7146 56.1807,-29.4244"/>
</g>
<!-- Node15 -->
<g id="node16" class="node"><title>Node15</title>
<polygon fill="white" stroke="#bfbfbf" points="80,-168.5 80,-187.5 130,-187.5 130,-168.5 80,-168.5"/>
<text text-anchor="middle" x="105" y="-175.5" font-family="Helvetica,sans-Serif" font-size="10.00">optional</text>
</g>
<!-- Node14&#45;&gt;Node15 -->
<g id="edge33" class="edge"><title>Node14&#45;&gt;Node15</title>
<path fill="none" stroke="midnightblue" d="M89.1375,-224.083C91.6829,-216.849 95.3562,-206.409 98.5271,-197.397"/>
<polygon fill="midnightblue" stroke="midnightblue" points="101.903,-198.346 101.921,-187.751 95.3002,-196.023 101.903,-198.346"/>
</g>
<!-- Node17 -->
<g id="node18" class="node"><title>Node17</title>
<g id="a_node18"><a xlink:href="_proj_test_8h.html" target="_top" xlink:title="ProjTest.h">
<polygon fill="white" stroke="black" points="745,-168.5 745,-187.5 807,-187.5 807,-168.5 745,-168.5"/>
<text text-anchor="middle" x="776" y="-175.5" font-family="Helvetica,sans-Serif" font-size="10.00">ProjTest.h</text>
</a>
</g>
</g>
<!-- Node16&#45;&gt;Node17 -->
<g id="edge35" class="edge"><title>Node16&#45;&gt;Node17</title>
<path fill="none" stroke="midnightblue" d="M897.183,-224.444C873.168,-215.438 835.171,-201.189 808.131,-191.049"/>
<polygon fill="midnightblue" stroke="midnightblue" points="809.303,-187.751 798.71,-187.516 806.845,-194.305 809.303,-187.751"/>
</g>
<!-- Node18 -->
<g id="node19" class="node"><title>Node18</title>
<g id="a_node19"><a xlink:href="_proj_piou_8h.html" target="_top" xlink:title="ProjPiou.h">
<polygon fill="white" stroke="black" points="825,-168.5 825,-187.5 887,-187.5 887,-168.5 825,-168.5"/>
<text text-anchor="middle" x="856" y="-175.5" font-family="Helvetica,sans-Serif" font-size="10.00">ProjPiou.h</text>
</a>
</g>
</g>
<!-- Node16&#45;&gt;Node18 -->
<g id="edge37" class="edge"><title>Node16&#45;&gt;Node18</title>
<path fill="none" stroke="midnightblue" d="M909.717,-224.324C900.164,-216.263 885.72,-204.077 874.216,-194.369"/>
<polygon fill="midnightblue" stroke="midnightblue" points="876.37,-191.608 866.47,-187.834 871.856,-196.958 876.37,-191.608"/>
</g>
<!-- Node17&#45;&gt;Node9 -->
<g id="edge36" class="edge"><title>Node17&#45;&gt;Node9</title>
<path fill="none" stroke="midnightblue" d="M748.271,-168.444C718.574,-159.28 671.284,-144.688 638.331,-134.519"/>
<polygon fill="midnightblue" stroke="midnightblue" points="639.187,-131.121 628.6,-131.516 637.123,-137.809 639.187,-131.121"/>
</g>
<!-- Node18&#45;&gt;Node9 -->
<g id="edge38" class="edge"><title>Node18&#45;&gt;Node9</title>
<path fill="none" stroke="midnightblue" d="M824.567,-169.881C821.672,-169.239 818.782,-168.604 816,-168 760.164,-155.876 696.04,-142.529 652.455,-133.544"/>
<polygon fill="midnightblue" stroke="midnightblue" points="653.158,-130.115 642.658,-131.526 651.746,-136.971 653.158,-130.115"/>
</g>
<!-- Node20 -->
<g id="node21" class="node"><title>Node20</title>
<g id="a_node21"><a xlink:href="_cap_test_8h.html" target="_top" xlink:title="CapTest.h">
<polygon fill="white" stroke="black" points="614,-224.5 614,-243.5 676,-243.5 676,-224.5 614,-224.5"/>
<text text-anchor="middle" x="645" y="-231.5" font-family="Helvetica,sans-Serif" font-size="10.00">CapTest.h</text>
</a>
</g>
</g>
<!-- Node19&#45;&gt;Node20 -->
<g id="edge40" class="edge"><title>Node19&#45;&gt;Node20</title>
<path fill="none" stroke="midnightblue" d="M712.147,-280.324C699.784,-271.979 680.87,-259.212 666.263,-249.352"/>
<polygon fill="midnightblue" stroke="midnightblue" points="668.068,-246.348 657.821,-243.655 664.152,-252.15 668.068,-246.348"/>
</g>
<!-- Node21 -->
<g id="node22" class="node"><title>Node21</title>
<g id="a_node22"><a xlink:href="_cap_piou_8h.html" target="_top" xlink:title="CapPiou.h">
<polygon fill="white" stroke="black" points="694,-224.5 694,-243.5 756,-243.5 756,-224.5 694,-224.5"/>
<text text-anchor="middle" x="725" y="-231.5" font-family="Helvetica,sans-Serif" font-size="10.00">CapPiou.h</text>
</a>
</g>
</g>
<!-- Node19&#45;&gt;Node21 -->
<g id="edge44" class="edge"><title>Node19&#45;&gt;Node21</title>
<path fill="none" stroke="midnightblue" d="M725,-280.083C725,-273.006 725,-262.861 725,-253.986"/>
<polygon fill="midnightblue" stroke="midnightblue" points="728.5,-253.751 725,-243.751 721.5,-253.751 728.5,-253.751"/>
</g>
<!-- Node22 -->
<g id="node23" class="node"><title>Node22</title>
<g id="a_node23"><a xlink:href="_cap_dash_8h.html" target="_top" xlink:title="CapDash.h">
<polygon fill="white" stroke="black" points="774,-224.5 774,-243.5 840,-243.5 840,-224.5 774,-224.5"/>
<text text-anchor="middle" x="807" y="-231.5" font-family="Helvetica,sans-Serif" font-size="10.00">CapDash.h</text>
</a>
</g>
</g>
<!-- Node19&#45;&gt;Node22 -->
<g id="edge48" class="edge"><title>Node19&#45;&gt;Node22</title>
<path fill="none" stroke="midnightblue" d="M738.175,-280.324C750.847,-271.979 770.233,-259.212 785.206,-249.352"/>
<polygon fill="midnightblue" stroke="midnightblue" points="787.431,-252.078 793.858,-243.655 783.581,-246.231 787.431,-252.078"/>
</g>
<!-- Node20&#45;&gt;Node8 -->
<g id="edge41" class="edge"><title>Node20&#45;&gt;Node8</title>
<path fill="none" stroke="midnightblue" d="M630.861,-224.324C617.134,-215.9 596.064,-202.971 579.936,-193.074"/>
<polygon fill="midnightblue" stroke="midnightblue" points="581.457,-189.902 571.104,-187.655 577.796,-195.868 581.457,-189.902"/>
</g>
<!-- Node20&#45;&gt;Node9 -->
<g id="edge42" class="edge"><title>Node20&#45;&gt;Node9</title>
<path fill="none" stroke="midnightblue" d="M641.919,-224.099C637.515,-211.513 629.061,-187.837 621,-168 617.334,-158.978 612.971,-149.076 609.257,-140.863"/>
<polygon fill="midnightblue" stroke="midnightblue" points="612.342,-139.194 605,-131.556 605.977,-142.106 612.342,-139.194"/>
</g>
<!-- Node20&#45;&gt;Node17 -->
<g id="edge43" class="edge"><title>Node20&#45;&gt;Node17</title>
<path fill="none" stroke="midnightblue" d="M665.757,-224.444C687.316,-215.557 721.263,-201.563 745.794,-191.451"/>
<polygon fill="midnightblue" stroke="midnightblue" points="747.428,-194.563 755.34,-187.516 744.761,-188.092 747.428,-194.563"/>
</g>
<!-- Node21&#45;&gt;Node8 -->
<g id="edge45" class="edge"><title>Node21&#45;&gt;Node8</title>
<path fill="none" stroke="midnightblue" d="M698.38,-224.444C669.994,-215.32 624.863,-200.813 593.247,-190.651"/>
<polygon fill="midnightblue" stroke="midnightblue" points="594.087,-187.244 583.496,-187.516 591.945,-193.909 594.087,-187.244"/>
</g>
<!-- Node21&#45;&gt;Node9 -->
<g id="edge46" class="edge"><title>Node21&#45;&gt;Node9</title>
<path fill="none" stroke="midnightblue" d="M715.27,-224.368C694.354,-205.814 644.865,-161.913 618.402,-138.438"/>
<polygon fill="midnightblue" stroke="midnightblue" points="620.488,-135.609 610.685,-131.591 615.843,-140.846 620.488,-135.609"/>
</g>
<!-- Node21&#45;&gt;Node18 -->
<g id="edge47" class="edge"><title>Node21&#45;&gt;Node18</title>
<path fill="none" stroke="midnightblue" d="M745.757,-224.444C767.316,-215.557 801.263,-201.563 825.794,-191.451"/>
<polygon fill="midnightblue" stroke="midnightblue" points="827.428,-194.563 835.34,-187.516 824.761,-188.092 827.428,-194.563"/>
</g>
<!-- Node22&#45;&gt;Node8 -->
<g id="edge49" class="edge"><title>Node22&#45;&gt;Node8</title>
<path fill="none" stroke="midnightblue" d="M773.802,-225.829C730.932,-216.569 655.955,-200.374 606.388,-189.668"/>
<polygon fill="midnightblue" stroke="midnightblue" points="607.037,-186.227 596.524,-187.537 605.559,-193.07 607.037,-186.227"/>
</g>
<!-- Node22&#45;&gt;Node10 -->
<g id="edge50" class="edge"><title>Node22&#45;&gt;Node10</title>
<path fill="none" stroke="midnightblue" d="M838.673,-224.429C870.728,-214.069 913.28,-194.65 896,-168 854.681,-104.277 762.713,-80.4019 709.712,-71.7257"/>
<polygon fill="midnightblue" stroke="midnightblue" points="710.073,-68.2402 699.658,-70.1858 709.013,-75.1595 710.073,-68.2402"/>
</g>
<!-- Node22&#45;&gt;Node17 -->
<g id="edge51" class="edge"><title>Node22&#45;&gt;Node17</title>
<path fill="none" stroke="midnightblue" d="M801.881,-224.083C797.592,-216.613 791.342,-205.724 786.058,-196.52"/>
<polygon fill="midnightblue" stroke="midnightblue" points="789.038,-194.681 781.024,-187.751 782.967,-198.166 789.038,-194.681"/>
</g>
<!-- Node24 -->
<g id="node25" class="node"><title>Node24</title>
<g id="a_node25"><a xlink:href="_vaisseau_eclaireur_8h.html" target="_top" xlink:title="VaisseauEclaireur.h">
<polygon fill="white" stroke="black" points="542,-280.5 542,-299.5 646,-299.5 646,-280.5 542,-280.5"/>
<text text-anchor="middle" x="594" y="-287.5" font-family="Helvetica,sans-Serif" font-size="10.00">VaisseauEclaireur.h</text>
</a>
</g>
</g>
<!-- Node23&#45;&gt;Node24 -->
<g id="edge53" class="edge"><title>Node23&#45;&gt;Node24</title>
<path fill="none" stroke="midnightblue" d="M594,-336.083C594,-329.006 594,-318.861 594,-309.986"/>
<polygon fill="midnightblue" stroke="midnightblue" points="597.5,-309.751 594,-299.751 590.5,-309.751 597.5,-309.751"/>
</g>
<!-- Node25 -->
<g id="node26" class="node"><title>Node25</title>
<g id="a_node26"><a xlink:href="_vaisseau_test_8h.html" target="_top" xlink:title="VaisseauTest.h">
<polygon fill="white" stroke="black" points="438.5,-280.5 438.5,-299.5 523.5,-299.5 523.5,-280.5 438.5,-280.5"/>
<text text-anchor="middle" x="481" y="-287.5" font-family="Helvetica,sans-Serif" font-size="10.00">VaisseauTest.h</text>
</a>
</g>
</g>
<!-- Node23&#45;&gt;Node25 -->
<g id="edge56" class="edge"><title>Node23&#45;&gt;Node25</title>
<path fill="none" stroke="midnightblue" d="M576.095,-336.444C557.746,-327.675 528.995,-313.935 507.906,-303.858"/>
<polygon fill="midnightblue" stroke="midnightblue" points="509.353,-300.67 498.821,-299.516 506.335,-306.986 509.353,-300.67"/>
</g>
<!-- Node24&#45;&gt;Node12 -->
<g id="edge54" class="edge"><title>Node24&#45;&gt;Node12</title>
<path fill="none" stroke="midnightblue" d="M646.225,-281.155C649.192,-280.753 652.133,-280.365 655,-280 729.493,-270.518 933.4,-292.18 991,-244 1014.09,-224.689 1010,-209.098 1010,-179 1010,-179 1010,-179 1010,-121 1010,-72.4804 956.164,-40.0141 919.726,-23.5966"/>
<polygon fill="midnightblue" stroke="midnightblue" points="920.993,-20.3315 910.425,-19.5798 918.218,-26.7578 920.993,-20.3315"/>
</g>
<!-- Node24&#45;&gt;Node13 -->
<g id="edge55" class="edge"><title>Node24&#45;&gt;Node13</title>
<path fill="none" stroke="midnightblue" d="M573.56,-280.444C552.33,-271.557 518.901,-257.563 494.745,-247.451"/>
<polygon fill="midnightblue" stroke="midnightblue" points="495.921,-244.149 485.345,-243.516 493.218,-250.606 495.921,-244.149"/>
</g>
<!-- Node25&#45;&gt;Node8 -->
<g id="edge58" class="edge"><title>Node25&#45;&gt;Node8</title>
<path fill="none" stroke="midnightblue" d="M512.023,-280.436C530.032,-273.694 551.231,-262.302 562,-244 570.243,-229.991 567.664,-211.245 563.811,-197.484"/>
<polygon fill="midnightblue" stroke="midnightblue" points="567.052,-196.131 560.63,-187.703 560.395,-198.296 567.052,-196.131"/>
</g>
<!-- Node25&#45;&gt;Node13 -->
<g id="edge57" class="edge"><title>Node25&#45;&gt;Node13</title>
<path fill="none" stroke="midnightblue" d="M478.358,-280.083C476.214,-272.849 473.121,-262.409 470.451,-253.397"/>
<polygon fill="midnightblue" stroke="midnightblue" points="473.79,-252.345 467.593,-243.751 467.078,-254.333 473.79,-252.345"/>
</g>
</g>
</svg>
        <g id="navigator" transform="translate(0 0)" fill="#404254">
                <rect fill="#f2f5e9" fill-opacity="0.5" stroke="#606060" stroke-width=".5" x="0" y="0" width="60" height="60"/>
                <use id="zoomplus" xlink:href="#zoomPlus" x="17" y="9" onmousedown="handleZoom(evt,'in')"/>
                <use id="zoomminus" xlink:href="#zoomMin" x="42" y="9" onmousedown="handleZoom(evt,'out')"/>
                <use id="reset" xlink:href="#resetDef" x="30" y="36" onmousedown="handleReset()"/>
                <g id="arrowUp" xlink:href="#dirArrow" transform="translate(30 24)" onmousedown="handlePan(0,-1)">
                  <use xlink:href="#rim" fill="#404040">
                        <set attributeName="fill" to="#808080" begin="arrowUp.mouseover" end="arrowUp.mouseout"/>
                  </use>
                  <path fill="none" stroke="white" stroke-width="1.5" d="M0,-3.0v7 M-2.5,-0.5L0,-3.0L2.5,-0.5"/>
                </g>
                <g id="arrowRight" xlink:href="#dirArrow" transform="rotate(90) translate(36 -43)" onmousedown="handlePan(1,0)">
                  <use xlink:href="#rim" fill="#404040">
                        <set attributeName="fill" to="#808080" begin="arrowRight.mouseover" end="arrowRight.mouseout"/>
                  </use>
                  <path fill="none" stroke="white" stroke-width="1.5" d="M0,-3.0v7 M-2.5,-0.5L0,-3.0L2.5,-0.5"/>
                </g>
                <g id="arrowDown" xlink:href="#dirArrow" transform="rotate(180) translate(-30 -48)" onmousedown="handlePan(0,1)">
                  <use xlink:href="#rim" fill="#404040">
                        <set attributeName="fill" to="#808080" begin="arrowDown.mouseover" end="arrowDown.mouseout"/>
                  </use>
                  <path fill="none" stroke="white" stroke-width="1.5" d="M0,-3.0v7 M-2.5,-0.5L0,-3.0L2.5,-0.5"/>
                </g>
                <g id="arrowLeft" xlink:href="#dirArrow" transform="rotate(270) translate(-36 17)" onmousedown="handlePan(-1,0)">
                  <use xlink:href="#rim" fill="#404040">
                        <set attributeName="fill" to="#808080" begin="arrowLeft.mouseover" end="arrowLeft.mouseout"/>
                  </use>
                  <path fill="none" stroke="white" stroke-width="1.5" d="M0,-3.0v7 M-2.5,-0.5L0,-3.0L2.5,-0.5"/>
                </g>
        </g>
        <svg viewBox="0 0 15 15" width="100%" height="30px" preserveAspectRatio="xMaxYMin meet">
         <g id="arrow_out" transform="scale(0.3 0.3)">
          <a xlink:href="_partie_8cpp__incl_org.svg" target="_base">
           <rect id="button" ry="5" rx="5" y="6" x="6" height="38" width="38"
                fill="#f2f5e9" fill-opacity="0.5" stroke="#606060" stroke-width="1.0"/>
           <path id="arrow"
             d="M 11.500037,31.436501 C 11.940474,20.09759 22.043105,11.32322 32.158766,21.979434 L 37.068811,17.246167 C 37.068811,17.246167 37.088388,32 37.088388,32 L 22.160133,31.978069 C 22.160133,31.978069 26.997745,27.140456 26.997745,27.140456 C 18.528582,18.264221 13.291696,25.230495 11.500037,31.436501 z"
             style="fill:#404040;"/>
          </a>
         </g>
        </svg>
</svg>
