<?xml version="1.0" encoding="UTF-8" standalone="no"?>
<!DOCTYPE svg PUBLIC "-//W3C//DTD SVG 1.1//EN"
 "http://www.w3.org/Graphics/SVG/1.1/DTD/svg11.dtd">
<!-- Generated by graphviz version 2.38.0 (20140413.2041)
 -->
<!-- Title: src/Partie.h Pages: 1 -->
<!--zoomable 308 -->
<svg id="main" version="1.1" xmlns="http://www.w3.org/2000/svg" xmlns:xlink="http://www.w3.org/1999/xlink" xml:space="preserve" onload="init(evt)">
<style type="text/css"><![CDATA[
.edge:hover path { stroke: red; }
.edge:hover polygon { stroke: red; fill: red; }
]]></style>
<script type="text/javascript"><![CDATA[
var edges = document.getElementsByTagName('g');
if (edges && edges.length) {
  for (var i=0;i<edges.length;i++) {
    if (edges[i].id.substr(0,4)=='edge') {
      edges[i].setAttribute('class','edge');
    }
  }
}
]]></script>
        <defs>
                <circle id="rim" cx="0" cy="0" r="7"/>
                <circle id="rim2" cx="0" cy="0" r="3.5"/>
                <g id="zoomPlus">
                        <use xlink:href="#rim" fill="#404040">
                                <set attributeName="fill" to="#808080" begin="zoomplus.mouseover" end="zoomplus.mouseout"/>
                        </use>
                        <path d="M-4,0h8M0,-4v8" fill="none" stroke="white" stroke-width="1.5" pointer-events="none"/>
                </g>
                <g id="zoomMin">
                        <use xlink:href="#rim" fill="#404040">
                                <set attributeName="fill" to="#808080" begin="zoomminus.mouseover" end="zoomminus.mouseout"/>
                        </use>
                        <path d="M-4,0h8" fill="none" stroke="white" stroke-width="1.5" pointer-events="none"/>
                </g>
                <g id="dirArrow">
                        <path fill="none" stroke="white" stroke-width="1.5" d="M0,-3.0v7 M-2.5,-0.5L0,-3.0L2.5,-0.5"/>
                </g>
               <g id="resetDef">
                       <use xlink:href="#rim2" fill="#404040">
                               <set attributeName="fill" to="#808080" begin="reset.mouseover" end="reset.mouseout"/>
                       </use>
               </g>
        </defs>

<script type="text/javascript">
var viewWidth = 794;
var viewHeight = 308;
var sectionId = 'dynsection-0';
</script>
<script xlink:href="svgpan.js"/>
<svg id="graph" class="graph">
<g id="viewport">
<title>src/Partie.h</title>
<polygon fill="white" stroke="none" points="-4,4 -4,-304 790,-304 790,4 -4,4"/>
<!-- Node0 -->
<g id="node1" class="node"><title>Node0</title>
<polygon fill="#bfbfbf" stroke="black" points="448.5,-280.5 448.5,-299.5 515.5,-299.5 515.5,-280.5 448.5,-280.5"/>
<text text-anchor="middle" x="482" y="-287.5" font-family="Helvetica,sans-Serif" font-size="10.00">src/Partie.h</text>
</g>
<!-- Node1 -->
<g id="node2" class="node"><title>Node1</title>
<polygon fill="white" stroke="#bfbfbf" points="220,-0.5 220,-19.5 264,-19.5 264,-0.5 220,-0.5"/>
<text text-anchor="middle" x="242" y="-7.5" font-family="Helvetica,sans-Serif" font-size="10.00">vector</text>
</g>
<!-- Node0&#45;&gt;Node1 -->
<g id="edge1" class="edge"><title>Node0&#45;&gt;Node1</title>
<path fill="none" stroke="midnightblue" d="M448.489,-288.531C339.183,-286.107 0,-271.162 0,-179 0,-179 0,-179 0,-121 0,-30.069 143.353,-13.9484 209.394,-11.3465"/>
<polygon fill="midnightblue" stroke="midnightblue" points="209.781,-14.8363 219.667,-11.0271 209.563,-7.83968 209.781,-14.8363"/>
</g>
<!-- Node2 -->
<g id="node3" class="node"><title>Node2</title>
<polygon fill="white" stroke="#bfbfbf" points="117.5,-56.5 117.5,-75.5 158.5,-75.5 158.5,-56.5 117.5,-56.5"/>
<text text-anchor="middle" x="138" y="-63.5" font-family="Helvetica,sans-Serif" font-size="10.00">string</text>
</g>
<!-- Node0&#45;&gt;Node2 -->
<g id="edge2" class="edge"><title>Node0&#45;&gt;Node2</title>
<path fill="none" stroke="midnightblue" d="M448.275,-289.417C372.716,-289.59 193.316,-285.51 153,-244 111.316,-201.081 124.196,-121.561 132.879,-85.5627"/>
<polygon fill="midnightblue" stroke="midnightblue" points="136.365,-86.0634 135.476,-75.5059 129.587,-84.313 136.365,-86.0634"/>
</g>
<!-- Node3 -->
<g id="node4" class="node"><title>Node3</title>
<polygon fill="white" stroke="#bfbfbf" points="456,-56.5 456,-75.5 512,-75.5 512,-56.5 456,-56.5"/>
<text text-anchor="middle" x="484" y="-63.5" font-family="Helvetica,sans-Serif" font-size="10.00">algorithm</text>
</g>
<!-- Node0&#45;&gt;Node3 -->
<g id="edge3" class="edge"><title>Node0&#45;&gt;Node3</title>
<path fill="none" stroke="midnightblue" d="M484.781,-280.455C492.751,-254.769 514.339,-176.074 502,-112 500.21,-102.705 496.517,-92.8887 492.939,-84.8048"/>
<polygon fill="midnightblue" stroke="midnightblue" points="496.056,-83.2089 488.621,-75.6611 489.727,-86.1981 496.056,-83.2089"/>
</g>
<!-- Node4 -->
<g id="node5" class="node"><title>Node4</title>
<polygon fill="white" stroke="#bfbfbf" points="732,-224.5 732,-243.5 786,-243.5 786,-224.5 732,-224.5"/>
<text text-anchor="middle" x="759" y="-231.5" font-family="Helvetica,sans-Serif" font-size="10.00">iostream</text>
</g>
<!-- Node0&#45;&gt;Node4 -->
<g id="edge4" class="edge"><title>Node0&#45;&gt;Node4</title>
<path fill="none" stroke="midnightblue" d="M515.658,-283.376C560.447,-275.749 642.322,-261.305 721.741,-244.171"/>
<polygon fill="midnightblue" stroke="midnightblue" points="722.887,-247.503 731.914,-241.958 721.399,-240.663 722.887,-247.503"/>
</g>
<!-- Node5 -->
<g id="node6" class="node"><title>Node5</title>
<polygon fill="white" stroke="#bfbfbf" points="568,-0.5 568,-19.5 672,-19.5 672,-0.5 568,-0.5"/>
<text text-anchor="middle" x="620" y="-7.5" font-family="Helvetica,sans-Serif" font-size="10.00">SFML/Graphics.hpp</text>
</g>
<!-- Node0&#45;&gt;Node5 -->
<g id="edge5" class="edge"><title>Node0&#45;&gt;Node5</title>
<path fill="none" stroke="midnightblue" d="M503.276,-280.403C536.764,-265.299 598,-230.622 598,-179 598,-179 598,-179 598,-121 598,-88.3285 607.447,-51.2399 613.96,-29.5533"/>
<polygon fill="midnightblue" stroke="midnightblue" points="617.391,-30.3103 617.033,-19.7215 610.709,-28.2221 617.391,-30.3103"/>
</g>
<!-- Node6 -->
<g id="node7" class="node"><title>Node6</title>
<polygon fill="white" stroke="#bfbfbf" points="452,-0.5 452,-19.5 550,-19.5 550,-0.5 452,-0.5"/>
<text text-anchor="middle" x="501" y="-7.5" font-family="Helvetica,sans-Serif" font-size="10.00">SFML/System.hpp</text>
</g>
<!-- Node0&#45;&gt;Node6 -->
<g id="edge6" class="edge"><title>Node0&#45;&gt;Node6</title>
<path fill="none" stroke="midnightblue" d="M494.188,-280.241C516.125,-263.35 560,-223.949 560,-179 560,-179 560,-179 560,-121 560,-84.0242 533.791,-47.4724 516.309,-27.2051"/>
<polygon fill="midnightblue" stroke="midnightblue" points="518.736,-24.6691 509.453,-19.5623 513.525,-29.3434 518.736,-24.6691"/>
</g>
<!-- Node7 -->
<g id="node8" class="node"><title>Node7</title>
<g id="a_node8"><a xlink:href="_capacite_8h.html" target="_top" xlink:title="Capacites/Capacite.h">
<polygon fill="white" stroke="black" points="344.5,-168.5 344.5,-187.5 455.5,-187.5 455.5,-168.5 344.5,-168.5"/>
<text text-anchor="middle" x="400" y="-175.5" font-family="Helvetica,sans-Serif" font-size="10.00">Capacites/Capacite.h</text>
</a>
</g>
</g>
<!-- Node0&#45;&gt;Node7 -->
<g id="edge7" class="edge"><title>Node0&#45;&gt;Node7</title>
<path fill="none" stroke="midnightblue" d="M475.566,-280.368C461.973,-262.135 430.136,-219.426 412.431,-195.675"/>
<polygon fill="midnightblue" stroke="midnightblue" points="415.187,-193.517 406.405,-187.591 409.575,-197.701 415.187,-193.517"/>
</g>
<!-- Node8 -->
<g id="node9" class="node"><title>Node8</title>
<g id="a_node9"><a xlink:href="_projectile_8h.html" target="_top" xlink:title="../Projectiles/Projectile.h">
<polygon fill="white" stroke="black" points="180.5,-112.5 180.5,-131.5 303.5,-131.5 303.5,-112.5 180.5,-112.5"/>
<text text-anchor="middle" x="242" y="-119.5" font-family="Helvetica,sans-Serif" font-size="10.00">../Projectiles/Projectile.h</text>
</a>
</g>
</g>
<!-- Node0&#45;&gt;Node8 -->
<g id="edge22" class="edge"><title>Node0&#45;&gt;Node8</title>
<path fill="none" stroke="midnightblue" d="M469.392,-280.387C443.943,-262.992 384.628,-222.392 335,-188 310.094,-170.74 281.54,-150.754 262.715,-137.549"/>
<polygon fill="midnightblue" stroke="midnightblue" points="264.51,-134.533 254.314,-131.653 260.489,-140.262 264.51,-134.533"/>
</g>
<!-- Node12 -->
<g id="node13" class="node"><title>Node12</title>
<g id="a_node13"><a xlink:href="_vaisseau_8h.html" target="_top" xlink:title="Vaisseau/Vaisseau.h">
<polygon fill="white" stroke="black" points="162.5,-224.5 162.5,-243.5 271.5,-243.5 271.5,-224.5 162.5,-224.5"/>
<text text-anchor="middle" x="217" y="-231.5" font-family="Helvetica,sans-Serif" font-size="10.00">Vaisseau/Vaisseau.h</text>
</a>
</g>
</g>
<!-- Node0&#45;&gt;Node12 -->
<g id="edge23" class="edge"><title>Node0&#45;&gt;Node12</title>
<path fill="none" stroke="midnightblue" d="M448.438,-282.161C403.167,-272.936 322.096,-256.416 268.928,-245.582"/>
<polygon fill="midnightblue" stroke="midnightblue" points="269.51,-242.128 259.013,-243.561 268.113,-248.987 269.51,-242.128"/>
</g>
<!-- Node13 -->
<g id="node14" class="node"><title>Node13</title>
<g id="a_node14"><a xlink:href="_input_8h.html" target="_top" xlink:title="Interface/Input.h">
<polygon fill="white" stroke="black" points="626,-224.5 626,-243.5 714,-243.5 714,-224.5 626,-224.5"/>
<text text-anchor="middle" x="670" y="-231.5" font-family="Helvetica,sans-Serif" font-size="10.00">Interface/Input.h</text>
</a>
</g>
</g>
<!-- Node0&#45;&gt;Node13 -->
<g id="edge30" class="edge"><title>Node0&#45;&gt;Node13</title>
<path fill="none" stroke="midnightblue" d="M511.789,-280.444C543.829,-271.241 594.933,-256.562 630.353,-246.388"/>
<polygon fill="midnightblue" stroke="midnightblue" points="631.705,-249.641 640.35,-243.516 629.773,-242.913 631.705,-249.641"/>
</g>
<!-- Node7&#45;&gt;Node1 -->
<g id="edge8" class="edge"><title>Node7&#45;&gt;Node1</title>
<path fill="none" stroke="midnightblue" d="M391.505,-168.075C365.989,-141.267 289.771,-61.1902 257.12,-26.8851"/>
<polygon fill="midnightblue" stroke="midnightblue" points="259.585,-24.3986 250.155,-19.5681 254.514,-29.2246 259.585,-24.3986"/>
</g>
<!-- Node7&#45;&gt;Node2 -->
<g id="edge9" class="edge"><title>Node7&#45;&gt;Node2</title>
<path fill="none" stroke="midnightblue" d="M344.404,-171.687C285.616,-165.107 197.741,-152.225 171,-132 155.892,-120.574 147.17,-100.29 142.531,-85.4115"/>
<polygon fill="midnightblue" stroke="midnightblue" points="145.892,-84.4343 139.841,-75.737 139.148,-86.3091 145.892,-84.4343"/>
</g>
<!-- Node7&#45;&gt;Node3 -->
<g id="edge10" class="edge"><title>Node7&#45;&gt;Node3</title>
<path fill="none" stroke="midnightblue" d="M406.591,-168.368C420.515,-150.135 453.129,-107.426 471.266,-83.6752"/>
<polygon fill="midnightblue" stroke="midnightblue" points="474.152,-85.6633 477.439,-75.5914 468.588,-81.4149 474.152,-85.6633"/>
</g>
<!-- Node7&#45;&gt;Node8 -->
<g id="edge11" class="edge"><title>Node7&#45;&gt;Node8</title>
<path fill="none" stroke="midnightblue" d="M374.964,-168.444C348.384,-159.359 306.191,-144.939 276.477,-134.783"/>
<polygon fill="midnightblue" stroke="midnightblue" points="277.513,-131.439 266.918,-131.516 275.249,-138.062 277.513,-131.439"/>
</g>
<!-- Node9 -->
<g id="node10" class="node"><title>Node9</title>
<g id="a_node10"><a xlink:href="_entite_8h.html" target="_top" xlink:title="../Entite.h">
<polygon fill="white" stroke="black" points="378.5,-56.5 378.5,-75.5 437.5,-75.5 437.5,-56.5 378.5,-56.5"/>
<text text-anchor="middle" x="408" y="-63.5" font-family="Helvetica,sans-Serif" font-size="10.00">../Entite.h</text>
</a>
</g>
</g>
<!-- Node7&#45;&gt;Node9 -->
<g id="edge21" class="edge"><title>Node7&#45;&gt;Node9</title>
<path fill="none" stroke="midnightblue" d="M400.628,-168.368C401.919,-150.617 404.897,-109.666 406.647,-85.5974"/>
<polygon fill="midnightblue" stroke="midnightblue" points="410.141,-85.819 407.375,-75.5914 403.159,-85.3112 410.141,-85.819"/>
</g>
<!-- Node8&#45;&gt;Node1 -->
<g id="edge12" class="edge"><title>Node8&#45;&gt;Node1</title>
<path fill="none" stroke="midnightblue" d="M242,-112.368C242,-94.617 242,-53.6664 242,-29.5974"/>
<polygon fill="midnightblue" stroke="midnightblue" points="245.5,-29.5914 242,-19.5914 238.5,-29.5915 245.5,-29.5914"/>
</g>
<!-- Node8&#45;&gt;Node2 -->
<g id="edge13" class="edge"><title>Node8&#45;&gt;Node2</title>
<path fill="none" stroke="midnightblue" d="M225.291,-112.324C208.688,-103.703 182.998,-90.3643 163.78,-80.3855"/>
<polygon fill="midnightblue" stroke="midnightblue" points="165.156,-77.1565 154.668,-75.6545 161.93,-83.3689 165.156,-77.1565"/>
</g>
<!-- Node8&#45;&gt;Node3 -->
<g id="edge14" class="edge"><title>Node8&#45;&gt;Node3</title>
<path fill="none" stroke="midnightblue" d="M281.53,-112.47C322.656,-103.55 388.901,-89.0585 446,-76 446.099,-75.9773 446.198,-75.9546 446.298,-75.9319"/>
<polygon fill="midnightblue" stroke="midnightblue" points="446.838,-79.3996 455.79,-73.7326 445.258,-72.5802 446.838,-79.3996"/>
</g>
<!-- Node8&#45;&gt;Node9 -->
<g id="edge15" class="edge"><title>Node8&#45;&gt;Node9</title>
<path fill="none" stroke="midnightblue" d="M268.303,-112.444C296.351,-103.32 340.944,-88.8133 372.184,-78.6509"/>
<polygon fill="midnightblue" stroke="midnightblue" points="373.393,-81.9383 381.82,-75.5164 371.228,-75.2816 373.393,-81.9383"/>
</g>
<!-- Node9&#45;&gt;Node1 -->
<g id="edge16" class="edge"><title>Node9&#45;&gt;Node1</title>
<path fill="none" stroke="midnightblue" d="M381.697,-56.4435C352.412,-46.9171 305.089,-31.5228 273.762,-21.3321"/>
<polygon fill="midnightblue" stroke="midnightblue" points="274.788,-17.9855 264.196,-18.2203 272.623,-24.6422 274.788,-17.9855"/>
</g>
<!-- Node9&#45;&gt;Node5 -->
<g id="edge19" class="edge"><title>Node9&#45;&gt;Node5</title>
<path fill="none" stroke="midnightblue" d="M437.925,-57.3776C474.092,-48.1653 535.232,-32.592 576.58,-22.0597"/>
<polygon fill="midnightblue" stroke="midnightblue" points="577.553,-25.4238 586.38,-19.5637 575.825,-18.6404 577.553,-25.4238"/>
</g>
<!-- Node9&#45;&gt;Node6 -->
<g id="edge18" class="edge"><title>Node9&#45;&gt;Node6</title>
<path fill="none" stroke="midnightblue" d="M422.942,-56.324C437.585,-47.8215 460.134,-34.7288 477.238,-24.7975"/>
<polygon fill="midnightblue" stroke="midnightblue" points="479.205,-27.7027 486.095,-19.6545 475.69,-21.6491 479.205,-27.7027"/>
</g>
<!-- Node10 -->
<g id="node11" class="node"><title>Node10</title>
<polygon fill="white" stroke="#bfbfbf" points="382,-0.5 382,-19.5 434,-19.5 434,-0.5 382,-0.5"/>
<text text-anchor="middle" x="408" y="-7.5" font-family="Helvetica,sans-Serif" font-size="10.00">memory</text>
</g>
<!-- Node9&#45;&gt;Node10 -->
<g id="edge17" class="edge"><title>Node9&#45;&gt;Node10</title>
<path fill="none" stroke="midnightblue" d="M408,-56.083C408,-49.0059 408,-38.8611 408,-29.9865"/>
<polygon fill="midnightblue" stroke="midnightblue" points="411.5,-29.751 408,-19.7511 404.5,-29.7511 411.5,-29.751"/>
</g>
<!-- Node11 -->
<g id="node12" class="node"><title>Node11</title>
<g id="a_node12"><a xlink:href="constantes_8h.html" target="_top" xlink:title="constantes.h">
<polygon fill="white" stroke="black" points="290.5,-0.5 290.5,-19.5 363.5,-19.5 363.5,-0.5 290.5,-0.5"/>
<text text-anchor="middle" x="327" y="-7.5" font-family="Helvetica,sans-Serif" font-size="10.00">constantes.h</text>
</a>
</g>
</g>
<!-- Node9&#45;&gt;Node11 -->
<g id="edge20" class="edge"><title>Node9&#45;&gt;Node11</title>
<path fill="none" stroke="midnightblue" d="M394.986,-56.324C382.468,-47.979 363.318,-35.2122 348.529,-25.3524"/>
<polygon fill="midnightblue" stroke="midnightblue" points="350.244,-22.2894 339.982,-19.6545 346.361,-28.1137 350.244,-22.2894"/>
</g>
<!-- Node12&#45;&gt;Node1 -->
<g id="edge24" class="edge"><title>Node12&#45;&gt;Node1</title>
<path fill="none" stroke="midnightblue" d="M204.225,-224.432C166.907,-198.357 63.4399,-117.97 108,-56 131.041,-23.9574 178.015,-14.4146 209.759,-11.7479"/>
<polygon fill="midnightblue" stroke="midnightblue" points="210.135,-15.2309 219.884,-11.0846 209.677,-8.24591 210.135,-15.2309"/>
</g>
<!-- Node12&#45;&gt;Node2 -->
<g id="edge25" class="edge"><title>Node12&#45;&gt;Node2</title>
<path fill="none" stroke="midnightblue" d="M209.756,-224.459C196.043,-207.824 166.299,-169.42 151,-132 144.937,-117.17 141.624,-99.2464 139.863,-85.9799"/>
<polygon fill="midnightblue" stroke="midnightblue" points="143.302,-85.2507 138.684,-75.7151 136.348,-86.049 143.302,-85.2507"/>
</g>
<!-- Node12&#45;&gt;Node3 -->
<g id="edge26" class="edge"><title>Node12&#45;&gt;Node3</title>
<path fill="none" stroke="midnightblue" d="M271.682,-230.218C336.141,-225.753 437.827,-214.606 464,-188 490.784,-160.773 489.853,-112.295 486.896,-85.7141"/>
<polygon fill="midnightblue" stroke="midnightblue" points="490.364,-85.2416 485.58,-75.7885 483.425,-86.1619 490.364,-85.2416"/>
</g>
<!-- Node12&#45;&gt;Node7 -->
<g id="edge27" class="edge"><title>Node12&#45;&gt;Node7</title>
<path fill="none" stroke="midnightblue" d="M245.997,-224.444C277.185,-215.241 326.93,-200.562 361.408,-190.388"/>
<polygon fill="midnightblue" stroke="midnightblue" points="362.538,-193.704 371.139,-187.516 360.557,-186.99 362.538,-193.704"/>
</g>
<!-- Node12&#45;&gt;Node8 -->
<g id="edge29" class="edge"><title>Node12&#45;&gt;Node8</title>
<path fill="none" stroke="midnightblue" d="M218.962,-224.368C222.996,-206.617 232.303,-165.666 237.773,-141.597"/>
<polygon fill="midnightblue" stroke="midnightblue" points="241.244,-142.118 240.047,-131.591 234.418,-140.567 241.244,-142.118"/>
</g>
<!-- Node12&#45;&gt;Node9 -->
<g id="edge28" class="edge"><title>Node12&#45;&gt;Node9</title>
<path fill="none" stroke="midnightblue" d="M227,-224.309C257.685,-197.64 350.797,-116.716 390.144,-82.5186"/>
<polygon fill="midnightblue" stroke="midnightblue" points="392.847,-84.8067 398.099,-75.6051 388.255,-79.5233 392.847,-84.8067"/>
</g>
<!-- Node13&#45;&gt;Node5 -->
<g id="edge31" class="edge"><title>Node13&#45;&gt;Node5</title>
<path fill="none" stroke="midnightblue" d="M674.449,-224.205C680.198,-211.746 689.02,-188.219 685,-168 674.445,-114.915 645.634,-57.2804 630.155,-28.8833"/>
<polygon fill="midnightblue" stroke="midnightblue" points="633.029,-26.8494 625.114,-19.8065 626.909,-30.2481 633.029,-26.8494"/>
</g>
<!-- Node14 -->
<g id="node15" class="node"><title>Node14</title>
<polygon fill="white" stroke="#bfbfbf" points="626,-168.5 626,-187.5 676,-187.5 676,-168.5 626,-168.5"/>
<text text-anchor="middle" x="651" y="-175.5" font-family="Helvetica,sans-Serif" font-size="10.00">optional</text>
</g>
<!-- Node13&#45;&gt;Node14 -->
<g id="edge32" class="edge"><title>Node13&#45;&gt;Node14</title>
<path fill="none" stroke="midnightblue" d="M666.863,-224.083C664.317,-216.849 660.644,-206.409 657.473,-197.397"/>
<polygon fill="midnightblue" stroke="midnightblue" points="660.7,-196.023 654.079,-187.751 654.097,-198.346 660.7,-196.023"/>
</g>
</g>
</svg>
        <g id="navigator" transform="translate(0 0)" fill="#404254">
                <rect fill="#f2f5e9" fill-opacity="0.5" stroke="#606060" stroke-width=".5" x="0" y="0" width="60" height="60"/>
                <use id="zoomplus" xlink:href="#zoomPlus" x="17" y="9" onmousedown="handleZoom(evt,'in')"/>
                <use id="zoomminus" xlink:href="#zoomMin" x="42" y="9" onmousedown="handleZoom(evt,'out')"/>
                <use id="reset" xlink:href="#resetDef" x="30" y="36" onmousedown="handleReset()"/>
                <g id="arrowUp" xlink:href="#dirArrow" transform="translate(30 24)" onmousedown="handlePan(0,-1)">
                  <use xlink:href="#rim" fill="#404040">
                        <set attributeName="fill" to="#808080" begin="arrowUp.mouseover" end="arrowUp.mouseout"/>
                  </use>
                  <path fill="none" stroke="white" stroke-width="1.5" d="M0,-3.0v7 M-2.5,-0.5L0,-3.0L2.5,-0.5"/>
                </g>
                <g id="arrowRight" xlink:href="#dirArrow" transform="rotate(90) translate(36 -43)" onmousedown="handlePan(1,0)">
                  <use xlink:href="#rim" fill="#404040">
                        <set attributeName="fill" to="#808080" begin="arrowRight.mouseover" end="arrowRight.mouseout"/>
                  </use>
                  <path fill="none" stroke="white" stroke-width="1.5" d="M0,-3.0v7 M-2.5,-0.5L0,-3.0L2.5,-0.5"/>
                </g>
                <g id="arrowDown" xlink:href="#dirArrow" transform="rotate(180) translate(-30 -48)" onmousedown="handlePan(0,1)">
                  <use xlink:href="#rim" fill="#404040">
                        <set attributeName="fill" to="#808080" begin="arrowDown.mouseover" end="arrowDown.mouseout"/>
                  </use>
                  <path fill="none" stroke="white" stroke-width="1.5" d="M0,-3.0v7 M-2.5,-0.5L0,-3.0L2.5,-0.5"/>
                </g>
                <g id="arrowLeft" xlink:href="#dirArrow" transform="rotate(270) translate(-36 17)" onmousedown="handlePan(-1,0)">
                  <use xlink:href="#rim" fill="#404040">
                        <set attributeName="fill" to="#808080" begin="arrowLeft.mouseover" end="arrowLeft.mouseout"/>
                  </use>
                  <path fill="none" stroke="white" stroke-width="1.5" d="M0,-3.0v7 M-2.5,-0.5L0,-3.0L2.5,-0.5"/>
                </g>
        </g>
        <svg viewBox="0 0 15 15" width="100%" height="30px" preserveAspectRatio="xMaxYMin meet">
         <g id="arrow_out" transform="scale(0.3 0.3)">
          <a xlink:href="_partie_8h__incl_org.svg" target="_base">
           <rect id="button" ry="5" rx="5" y="6" x="6" height="38" width="38"
                fill="#f2f5e9" fill-opacity="0.5" stroke="#606060" stroke-width="1.0"/>
           <path id="arrow"
             d="M 11.500037,31.436501 C 11.940474,20.09759 22.043105,11.32322 32.158766,21.979434 L 37.068811,17.246167 C 37.068811,17.246167 37.088388,32 37.088388,32 L 22.160133,31.978069 C 22.160133,31.978069 26.997745,27.140456 26.997745,27.140456 C 18.528582,18.264221 13.291696,25.230495 11.500037,31.436501 z"
             style="fill:#404040;"/>
          </a>
         </g>
        </svg>
</svg>
