<?xml version="1.0" encoding="UTF-8" standalone="no"?>
<!DOCTYPE svg PUBLIC "-//W3C//DTD SVG 1.1//EN"
 "http://www.w3.org/Graphics/SVG/1.1/DTD/svg11.dtd">
<!-- Generated by graphviz version 2.38.0 (20140413.2041)
 -->
<!-- Title: src/Partie.h Pages: 1 -->
<!--zoomable 308 -->
<svg id="main" version="1.1" xmlns="http://www.w3.org/2000/svg" xmlns:xlink="http://www.w3.org/1999/xlink" xml:space="preserve" onload="init(evt)">
<style type="text/css"><![CDATA[
.edge:hover path { stroke: red; }
.edge:hover polygon { stroke: red; fill: red; }
]]></style>
<script type="text/javascript"><![CDATA[
var edges = document.getElementsByTagName('g');
if (edges && edges.length) {
  for (var i=0;i<edges.length;i++) {
    if (edges[i].id.substr(0,4)=='edge') {
      edges[i].setAttribute('class','edge');
    }
  }
}
]]></script>
        <defs>
                <circle id="rim" cx="0" cy="0" r="7"/>
                <circle id="rim2" cx="0" cy="0" r="3.5"/>
                <g id="zoomPlus">
                        <use xlink:href="#rim" fill="#404040">
                                <set attributeName="fill" to="#808080" begin="zoomplus.mouseover" end="zoomplus.mouseout"/>
                        </use>
                        <path d="M-4,0h8M0,-4v8" fill="none" stroke="white" stroke-width="1.5" pointer-events="none"/>
                </g>
                <g id="zoomMin">
                        <use xlink:href="#rim" fill="#404040">
                                <set attributeName="fill" to="#808080" begin="zoomminus.mouseover" end="zoomminus.mouseout"/>
                        </use>
                        <path d="M-4,0h8" fill="none" stroke="white" stroke-width="1.5" pointer-events="none"/>
                </g>
                <g id="dirArrow">
                        <path fill="none" stroke="white" stroke-width="1.5" d="M0,-3.0v7 M-2.5,-0.5L0,-3.0L2.5,-0.5"/>
                </g>
               <g id="resetDef">
                       <use xlink:href="#rim2" fill="#404040">
                               <set attributeName="fill" to="#808080" begin="reset.mouseover" end="reset.mouseout"/>
                       </use>
               </g>
        </defs>

<script type="text/javascript">
var viewWidth = 974;
var viewHeight = 308;
var sectionId = 'dynsection-0';
</script>
<script xlink:href="svgpan.js"/>
<svg id="graph" class="graph">
<g id="viewport">
<title>src/Partie.h</title>
<polygon fill="white" stroke="none" points="-4,4 -4,-304 969.5,-304 969.5,4 -4,4"/>
<!-- Node0 -->
<g id="node1" class="node"><title>Node0</title>
<polygon fill="#bfbfbf" stroke="black" points="452,-280.5 452,-299.5 519,-299.5 519,-280.5 452,-280.5"/>
<text text-anchor="middle" x="485.5" y="-287.5" font-family="Helvetica,sans-Serif" font-size="10.00">src/Partie.h</text>
</g>
<!-- Node1 -->
<g id="node2" class="node"><title>Node1</title>
<polygon fill="white" stroke="#bfbfbf" points="387.5,-0.5 387.5,-19.5 431.5,-19.5 431.5,-0.5 387.5,-0.5"/>
<text text-anchor="middle" x="409.5" y="-7.5" font-family="Helvetica,sans-Serif" font-size="10.00">vector</text>
</g>
<!-- Node0&#45;&gt;Node1 -->
<g id="edge1" class="edge"><title>Node0&#45;&gt;Node1</title>
<path fill="none" stroke="midnightblue" d="M483.142,-280.375C472.569,-241.701 429.4,-83.7937 414.548,-29.4651"/>
<polygon fill="midnightblue" stroke="midnightblue" points="417.844,-28.2473 411.83,-19.5243 411.091,-30.0933 417.844,-28.2473"/>
</g>
<!-- Node2 -->
<g id="node3" class="node"><title>Node2</title>
<polygon fill="white" stroke="#bfbfbf" points="0,-56.5 0,-75.5 41,-75.5 41,-56.5 0,-56.5"/>
<text text-anchor="middle" x="20.5" y="-63.5" font-family="Helvetica,sans-Serif" font-size="10.00">string</text>
</g>
<!-- Node0&#45;&gt;Node2 -->
<g id="edge2" class="edge"><title>Node0&#45;&gt;Node2</title>
<path fill="none" stroke="midnightblue" d="M451.845,-288.451C393.106,-286.57 268.766,-278.459 170.5,-244 92.9917,-216.82 55.2769,-207.74 23.5,-132 17.354,-117.351 17.0549,-99.1822 18.0337,-85.7809"/>
<polygon fill="midnightblue" stroke="midnightblue" points="21.5159,-86.1324 19.0562,-75.8271 14.5526,-85.4171 21.5159,-86.1324"/>
</g>
<!-- Node3 -->
<g id="node4" class="node"><title>Node3</title>
<polygon fill="white" stroke="#bfbfbf" points="257.5,-56.5 257.5,-75.5 313.5,-75.5 313.5,-56.5 257.5,-56.5"/>
<text text-anchor="middle" x="285.5" y="-63.5" font-family="Helvetica,sans-Serif" font-size="10.00">algorithm</text>
</g>
<!-- Node0&#45;&gt;Node3 -->
<g id="edge3" class="edge"><title>Node0&#45;&gt;Node3</title>
<path fill="none" stroke="midnightblue" d="M451.804,-288.857C415.921,-286.818 359.93,-277.905 327.5,-244 285.346,-199.928 282.889,-121.635 284.226,-85.8228"/>
<polygon fill="midnightblue" stroke="midnightblue" points="287.724,-85.9538 284.748,-75.7854 280.734,-85.5901 287.724,-85.9538"/>
</g>
<!-- Node4 -->
<g id="node5" class="node"><title>Node4</title>
<polygon fill="white" stroke="#bfbfbf" points="911.5,-224.5 911.5,-243.5 965.5,-243.5 965.5,-224.5 911.5,-224.5"/>
<text text-anchor="middle" x="938.5" y="-231.5" font-family="Helvetica,sans-Serif" font-size="10.00">iostream</text>
</g>
<!-- Node0&#45;&gt;Node4 -->
<g id="edge4" class="edge"><title>Node0&#45;&gt;Node4</title>
<path fill="none" stroke="midnightblue" d="M519.042,-286.564C589.474,-281.178 757.796,-266.895 897.5,-244 898.754,-243.794 900.027,-243.575 901.312,-243.345"/>
<polygon fill="midnightblue" stroke="midnightblue" points="902.085,-246.76 911.231,-241.413 900.747,-239.889 902.085,-246.76"/>
</g>
<!-- Node5 -->
<g id="node6" class="node"><title>Node5</title>
<polygon fill="white" stroke="#bfbfbf" points="752.5,-0.5 752.5,-19.5 856.5,-19.5 856.5,-0.5 752.5,-0.5"/>
<text text-anchor="middle" x="804.5" y="-7.5" font-family="Helvetica,sans-Serif" font-size="10.00">SFML/Graphics.hpp</text>
</g>
<!-- Node0&#45;&gt;Node5 -->
<g id="edge5" class="edge"><title>Node0&#45;&gt;Node5</title>
<path fill="none" stroke="midnightblue" d="M519.09,-286.937C615.043,-280.133 883.5,-254.362 883.5,-179 883.5,-179 883.5,-179 883.5,-121 883.5,-80.7945 848.252,-45.221 824.844,-26.0304"/>
<polygon fill="midnightblue" stroke="midnightblue" points="826.864,-23.1655 816.844,-19.7232 822.53,-28.6628 826.864,-23.1655"/>
</g>
<!-- Node6 -->
<g id="node7" class="node"><title>Node6</title>
<polygon fill="white" stroke="#bfbfbf" points="631.5,-0.5 631.5,-19.5 729.5,-19.5 729.5,-0.5 631.5,-0.5"/>
<text text-anchor="middle" x="680.5" y="-7.5" font-family="Helvetica,sans-Serif" font-size="10.00">SFML/System.hpp</text>
</g>
<!-- Node0&#45;&gt;Node6 -->
<g id="edge6" class="edge"><title>Node0&#45;&gt;Node6</title>
<path fill="none" stroke="midnightblue" d="M519.04,-283.33C584.739,-270.205 729.136,-230.94 788.5,-132 814.988,-87.8528 748.547,-45.0434 708.409,-24.1811"/>
<polygon fill="midnightblue" stroke="midnightblue" points="709.828,-20.9773 699.324,-19.5974 706.675,-27.2268 709.828,-20.9773"/>
</g>
<!-- Node7 -->
<g id="node8" class="node"><title>Node7</title>
<g id="a_node8"><a xlink:href="_capacite_8h.html" target="_top" xlink:title="Capacites/Capacite.h">
<polygon fill="white" stroke="black" points="158,-168.5 158,-187.5 269,-187.5 269,-168.5 158,-168.5"/>
<text text-anchor="middle" x="213.5" y="-175.5" font-family="Helvetica,sans-Serif" font-size="10.00">Capacites/Capacite.h</text>
</a>
</g>
</g>
<!-- Node0&#45;&gt;Node7 -->
<g id="edge7" class="edge"><title>Node0&#45;&gt;Node7</title>
<path fill="none" stroke="midnightblue" d="M451.833,-286.896C410.166,-283.116 338.047,-272.661 283.5,-244 260.673,-232.006 239.753,-210.604 226.843,-195.646"/>
<polygon fill="midnightblue" stroke="midnightblue" points="229.309,-193.138 220.214,-187.704 223.935,-197.624 229.309,-193.138"/>
</g>
<!-- Node8 -->
<g id="node9" class="node"><title>Node8</title>
<g id="a_node9"><a xlink:href="_projectile_8h.html" target="_top" xlink:title="../Projectiles/Projectile.h">
<polygon fill="white" stroke="black" points="68,-112.5 68,-131.5 191,-131.5 191,-112.5 68,-112.5"/>
<text text-anchor="middle" x="129.5" y="-119.5" font-family="Helvetica,sans-Serif" font-size="10.00">../Projectiles/Projectile.h</text>
</a>
</g>
</g>
<!-- Node0&#45;&gt;Node8 -->
<g id="edge22" class="edge"><title>Node0&#45;&gt;Node8</title>
<path fill="none" stroke="midnightblue" d="M451.666,-285.118C405.736,-279.254 321.471,-266.376 252.5,-244 196.517,-225.838 165.252,-236.9 132.5,-188 123.472,-174.521 123.629,-155.71 125.507,-141.79"/>
<polygon fill="midnightblue" stroke="midnightblue" points="128.966,-142.325 127.239,-131.872 122.071,-141.12 128.966,-142.325"/>
</g>
<!-- Node12 -->
<g id="node13" class="node"><title>Node12</title>
<g id="a_node13"><a xlink:href="_vaisseau_8h.html" target="_top" xlink:title="Vaisseau/Vaisseau.h">
<polygon fill="white" stroke="black" points="337,-224.5 337,-243.5 446,-243.5 446,-224.5 337,-224.5"/>
<text text-anchor="middle" x="391.5" y="-231.5" font-family="Helvetica,sans-Serif" font-size="10.00">Vaisseau/Vaisseau.h</text>
</a>
</g>
</g>
<!-- Node0&#45;&gt;Node12 -->
<g id="edge23" class="edge"><title>Node0&#45;&gt;Node12</title>
<path fill="none" stroke="midnightblue" d="M470.397,-280.324C455.597,-271.822 432.806,-258.729 415.518,-248.797"/>
<polygon fill="midnightblue" stroke="midnightblue" points="416.98,-245.601 406.565,-243.655 413.493,-251.671 416.98,-245.601"/>
</g>
<!-- Node13 -->
<g id="node14" class="node"><title>Node13</title>
<g id="a_node14"><a xlink:href="_input_8h.html" target="_top" xlink:title="../Interface/Input.h">
<polygon fill="white" stroke="black" points="521,-168.5 521,-187.5 618,-187.5 618,-168.5 521,-168.5"/>
<text text-anchor="middle" x="569.5" y="-175.5" font-family="Helvetica,sans-Serif" font-size="10.00">../Interface/Input.h</text>
</a>
</g>
</g>
<!-- Node0&#45;&gt;Node13 -->
<g id="edge35" class="edge"><title>Node0&#45;&gt;Node13</title>
<path fill="none" stroke="midnightblue" d="M492.091,-280.368C506.015,-262.135 538.629,-219.426 556.766,-195.675"/>
<polygon fill="midnightblue" stroke="midnightblue" points="559.652,-197.663 562.939,-187.591 554.088,-193.415 559.652,-197.663"/>
</g>
<!-- Node16 -->
<g id="node17" class="node"><title>Node16</title>
<g id="a_node17"><a xlink:href="_overlay_8h.html" target="_top" xlink:title="Interface/Overlay.h">
<polygon fill="white" stroke="black" points="679.5,-112.5 679.5,-131.5 779.5,-131.5 779.5,-112.5 679.5,-112.5"/>
<text text-anchor="middle" x="729.5" y="-119.5" font-family="Helvetica,sans-Serif" font-size="10.00">Interface/Overlay.h</text>
</a>
</g>
</g>
<!-- Node0&#45;&gt;Node16 -->
<g id="edge36" class="edge"><title>Node0&#45;&gt;Node16</title>
<path fill="none" stroke="midnightblue" d="M498.275,-280.309C537.969,-253.304 659.435,-170.667 708.557,-137.248"/>
<polygon fill="midnightblue" stroke="midnightblue" points="710.552,-140.124 716.852,-131.605 706.615,-134.336 710.552,-140.124"/>
</g>
<!-- Node7&#45;&gt;Node1 -->
<g id="edge8" class="edge"><title>Node7&#45;&gt;Node1</title>
<path fill="none" stroke="midnightblue" d="M213.323,-168.264C213.369,-146.164 216.658,-87.556 248.5,-56 283.023,-21.7873 341.277,-13.0792 377.439,-11.148"/>
<polygon fill="midnightblue" stroke="midnightblue" points="377.603,-14.6444 387.459,-10.7562 377.33,-7.64972 377.603,-14.6444"/>
</g>
<!-- Node7&#45;&gt;Node2 -->
<g id="edge9" class="edge"><title>Node7&#45;&gt;Node2</title>
<path fill="none" stroke="midnightblue" d="M157.956,-171.172C126.143,-165.477 87.0078,-154.224 58.5,-132 43.0701,-119.971 32.6933,-99.7894 26.7352,-85.0997"/>
<polygon fill="midnightblue" stroke="midnightblue" points="29.9516,-83.708 23.1687,-75.569 23.3956,-86.1614 29.9516,-83.708"/>
</g>
<!-- Node7&#45;&gt;Node3 -->
<g id="edge10" class="edge"><title>Node7&#45;&gt;Node3</title>
<path fill="none" stroke="midnightblue" d="M219.15,-168.368C231.032,-150.215 258.794,-107.802 274.379,-83.9902"/>
<polygon fill="midnightblue" stroke="midnightblue" points="277.328,-85.8753 279.877,-75.5914 271.471,-82.0416 277.328,-85.8753"/>
</g>
<!-- Node7&#45;&gt;Node8 -->
<g id="edge11" class="edge"><title>Node7&#45;&gt;Node8</title>
<path fill="none" stroke="midnightblue" d="M200.004,-168.324C186.9,-159.9 166.788,-146.971 151.393,-137.074"/>
<polygon fill="midnightblue" stroke="midnightblue" points="153.267,-134.118 142.963,-131.655 149.482,-140.006 153.267,-134.118"/>
</g>
<!-- Node9 -->
<g id="node10" class="node"><title>Node9</title>
<g id="a_node10"><a xlink:href="_entite_8h.html" target="_top" xlink:title="../Entite.h">
<polygon fill="white" stroke="black" points="476,-56.5 476,-75.5 535,-75.5 535,-56.5 476,-56.5"/>
<text text-anchor="middle" x="505.5" y="-63.5" font-family="Helvetica,sans-Serif" font-size="10.00">../Entite.h</text>
</a>
</g>
</g>
<!-- Node7&#45;&gt;Node9 -->
<g id="edge21" class="edge"><title>Node7&#45;&gt;Node9</title>
<path fill="none" stroke="midnightblue" d="M236.413,-168.368C288.013,-148.93 413.455,-101.674 473.041,-79.2278"/>
<polygon fill="midnightblue" stroke="midnightblue" points="474.57,-82.3921 482.694,-75.5914 472.102,-75.8415 474.57,-82.3921"/>
</g>
<!-- Node8&#45;&gt;Node1 -->
<g id="edge12" class="edge"><title>Node8&#45;&gt;Node1</title>
<path fill="none" stroke="midnightblue" d="M136.956,-112.309C149.574,-98.1901 176.597,-70.4038 205.5,-56 261.788,-27.9487 335.421,-17.2523 377.075,-13.2702"/>
<polygon fill="midnightblue" stroke="midnightblue" points="377.54,-16.7428 387.193,-12.3759 376.924,-9.76997 377.54,-16.7428"/>
</g>
<!-- Node8&#45;&gt;Node2 -->
<g id="edge13" class="edge"><title>Node8&#45;&gt;Node2</title>
<path fill="none" stroke="midnightblue" d="M111.987,-112.324C94.4276,-103.625 67.1686,-90.1202 46.9688,-80.113"/>
<polygon fill="midnightblue" stroke="midnightblue" points="48.4837,-76.9575 37.9693,-75.6545 45.3762,-83.23 48.4837,-76.9575"/>
</g>
<!-- Node8&#45;&gt;Node3 -->
<g id="edge14" class="edge"><title>Node8&#45;&gt;Node3</title>
<path fill="none" stroke="midnightblue" d="M154.219,-112.444C180.348,-103.399 221.759,-89.064 251.076,-78.9158"/>
<polygon fill="midnightblue" stroke="midnightblue" points="252.592,-82.0951 260.897,-75.5164 250.302,-75.4801 252.592,-82.0951"/>
</g>
<!-- Node8&#45;&gt;Node9 -->
<g id="edge15" class="edge"><title>Node8&#45;&gt;Node9</title>
<path fill="none" stroke="midnightblue" d="M189.078,-112.444C266.522,-101.321 399.659,-82.2006 465.805,-72.7009"/>
<polygon fill="midnightblue" stroke="midnightblue" points="466.426,-76.1477 475.827,-71.2616 465.431,-69.2188 466.426,-76.1477"/>
</g>
<!-- Node9&#45;&gt;Node1 -->
<g id="edge16" class="edge"><title>Node9&#45;&gt;Node1</title>
<path fill="none" stroke="midnightblue" d="M490.076,-56.324C474.96,-47.8215 451.685,-34.7288 434.029,-24.7975"/>
<polygon fill="midnightblue" stroke="midnightblue" points="435.317,-21.5066 424.886,-19.6545 431.886,-27.6077 435.317,-21.5066"/>
</g>
<!-- Node9&#45;&gt;Node5 -->
<g id="edge19" class="edge"><title>Node9&#45;&gt;Node5</title>
<path fill="none" stroke="midnightblue" d="M535.262,-59.6249C584.515,-50.7297 683.806,-32.7976 747.071,-21.3717"/>
<polygon fill="midnightblue" stroke="midnightblue" points="748.069,-24.7483 757.288,-19.5267 746.825,-17.8597 748.069,-24.7483"/>
</g>
<!-- Node9&#45;&gt;Node6 -->
<g id="edge18" class="edge"><title>Node9&#45;&gt;Node6</title>
<path fill="none" stroke="midnightblue" d="M533.229,-56.4435C562.926,-47.2801 610.216,-32.6876 643.169,-22.5192"/>
<polygon fill="midnightblue" stroke="midnightblue" points="644.377,-25.8094 652.9,-19.5164 642.313,-19.1206 644.377,-25.8094"/>
</g>
<!-- Node10 -->
<g id="node11" class="node"><title>Node10</title>
<polygon fill="white" stroke="#bfbfbf" points="459.5,-0.5 459.5,-19.5 511.5,-19.5 511.5,-0.5 459.5,-0.5"/>
<text text-anchor="middle" x="485.5" y="-7.5" font-family="Helvetica,sans-Serif" font-size="10.00">memory</text>
</g>
<!-- Node9&#45;&gt;Node10 -->
<g id="edge17" class="edge"><title>Node9&#45;&gt;Node10</title>
<path fill="none" stroke="midnightblue" d="M502.197,-56.083C499.518,-48.8486 495.651,-38.4087 492.314,-29.3968"/>
<polygon fill="midnightblue" stroke="midnightblue" points="495.496,-27.9129 488.741,-19.7511 488.932,-30.3442 495.496,-27.9129"/>
</g>
<!-- Node11 -->
<g id="node12" class="node"><title>Node11</title>
<g id="a_node12"><a xlink:href="constantes_8h.html" target="_top" xlink:title="constantes.h">
<polygon fill="white" stroke="black" points="530,-0.5 530,-19.5 603,-19.5 603,-0.5 530,-0.5"/>
<text text-anchor="middle" x="566.5" y="-7.5" font-family="Helvetica,sans-Serif" font-size="10.00">constantes.h</text>
</a>
</g>
</g>
<!-- Node9&#45;&gt;Node11 -->
<g id="edge20" class="edge"><title>Node9&#45;&gt;Node11</title>
<path fill="none" stroke="midnightblue" d="M515.301,-56.324C524.318,-48.3414 537.906,-36.3128 548.818,-26.6529"/>
<polygon fill="midnightblue" stroke="midnightblue" points="551.353,-29.083 556.521,-19.8339 546.713,-23.8416 551.353,-29.083"/>
</g>
<!-- Node12&#45;&gt;Node1 -->
<g id="edge24" class="edge"><title>Node12&#45;&gt;Node1</title>
<path fill="none" stroke="midnightblue" d="M392.206,-224.297C394.854,-191.633 404.241,-75.8661 407.963,-29.9573"/>
<polygon fill="midnightblue" stroke="midnightblue" points="411.46,-30.1339 408.78,-19.8837 404.483,-29.5681 411.46,-30.1339"/>
</g>
<!-- Node12&#45;&gt;Node2 -->
<g id="edge25" class="edge"><title>Node12&#45;&gt;Node2</title>
<path fill="none" stroke="midnightblue" d="M336.955,-229.253C283.5,-224.265 200.394,-212.963 132.5,-188 86.4989,-171.086 67.0434,-171.107 37.5,-132 27.5028,-118.767 23.3665,-100.181 21.6647,-86.2719"/>
<polygon fill="midnightblue" stroke="midnightblue" points="25.1143,-85.5539 20.7325,-75.9077 18.1425,-86.181 25.1143,-85.5539"/>
</g>
<!-- Node12&#45;&gt;Node3 -->
<g id="edge26" class="edge"><title>Node12&#45;&gt;Node3</title>
<path fill="none" stroke="midnightblue" d="M385.801,-224.075C368.899,-197.606 318.838,-119.209 296.489,-84.2097"/>
<polygon fill="midnightblue" stroke="midnightblue" points="299.303,-82.1127 290.971,-75.5681 293.403,-85.88 299.303,-82.1127"/>
</g>
<!-- Node12&#45;&gt;Node7 -->
<g id="edge27" class="edge"><title>Node12&#45;&gt;Node7</title>
<path fill="none" stroke="midnightblue" d="M363.295,-224.444C333.09,-215.28 284.989,-200.688 251.471,-190.519"/>
<polygon fill="midnightblue" stroke="midnightblue" points="252.158,-187.07 241.573,-187.516 250.126,-193.769 252.158,-187.07"/>
</g>
<!-- Node12&#45;&gt;Node8 -->
<g id="edge29" class="edge"><title>Node12&#45;&gt;Node8</title>
<path fill="none" stroke="midnightblue" d="M336.816,-229.454C273.839,-224.271 175.56,-212.449 148.5,-188 135.57,-176.317 131.243,-156.374 129.892,-141.651"/>
<polygon fill="midnightblue" stroke="midnightblue" points="133.385,-141.428 129.345,-131.634 126.396,-141.809 133.385,-141.428"/>
</g>
<!-- Node12&#45;&gt;Node9 -->
<g id="edge28" class="edge"><title>Node12&#45;&gt;Node9</title>
<path fill="none" stroke="midnightblue" d="M397.693,-224.414C404.181,-215.389 414.643,-200.757 423.5,-188 449.066,-151.175 478.396,-107.553 494.12,-84.0514"/>
<polygon fill="midnightblue" stroke="midnightblue" points="497.153,-85.8126 499.8,-75.5536 491.333,-81.9231 497.153,-85.8126"/>
</g>
<!-- Node12&#45;&gt;Node13 -->
<g id="edge30" class="edge"><title>Node12&#45;&gt;Node13</title>
<path fill="none" stroke="midnightblue" d="M419.705,-224.444C449.91,-215.28 498.011,-200.688 531.529,-190.519"/>
<polygon fill="midnightblue" stroke="midnightblue" points="532.874,-193.769 541.427,-187.516 530.842,-187.07 532.874,-193.769"/>
</g>
<!-- Node13&#45;&gt;Node5 -->
<g id="edge31" class="edge"><title>Node13&#45;&gt;Node5</title>
<path fill="none" stroke="midnightblue" d="M618.166,-173.467C675.504,-168.241 765.85,-156.323 788.5,-132 814.287,-104.308 811.884,-56.3729 808.071,-29.9104"/>
<polygon fill="midnightblue" stroke="midnightblue" points="811.467,-28.9978 806.373,-19.7084 804.562,-30.1474 811.467,-28.9978"/>
</g>
<!-- Node13&#45;&gt;Node11 -->
<g id="edge34" class="edge"><title>Node13&#45;&gt;Node11</title>
<path fill="none" stroke="midnightblue" d="M562.349,-168.364C555.727,-159.763 546.343,-145.873 542.5,-132 537.203,-112.875 552.153,-58.0285 560.811,-29.2022"/>
<polygon fill="midnightblue" stroke="midnightblue" points="564.183,-30.1436 563.766,-19.557 557.49,-28.093 564.183,-30.1436"/>
</g>
<!-- Node14 -->
<g id="node15" class="node"><title>Node14</title>
<polygon fill="white" stroke="#bfbfbf" points="551.5,-112.5 551.5,-131.5 601.5,-131.5 601.5,-112.5 551.5,-112.5"/>
<text text-anchor="middle" x="576.5" y="-119.5" font-family="Helvetica,sans-Serif" font-size="10.00">optional</text>
</g>
<!-- Node13&#45;&gt;Node14 -->
<g id="edge32" class="edge"><title>Node13&#45;&gt;Node14</title>
<path fill="none" stroke="midnightblue" d="M570.656,-168.083C571.584,-160.927 572.918,-150.635 574.077,-141.691"/>
<polygon fill="midnightblue" stroke="midnightblue" points="577.551,-142.118 575.366,-131.751 570.609,-141.218 577.551,-142.118"/>
</g>
<!-- Node15 -->
<g id="node16" class="node"><title>Node15</title>
<polygon fill="white" stroke="#bfbfbf" points="620,-112.5 620,-131.5 661,-131.5 661,-112.5 620,-112.5"/>
<text text-anchor="middle" x="640.5" y="-119.5" font-family="Helvetica,sans-Serif" font-size="10.00">bitset</text>
</g>
<!-- Node13&#45;&gt;Node15 -->
<g id="edge33" class="edge"><title>Node13&#45;&gt;Node15</title>
<path fill="none" stroke="midnightblue" d="M580.907,-168.324C591.609,-160.185 607.841,-147.839 620.663,-138.087"/>
<polygon fill="midnightblue" stroke="midnightblue" points="623.044,-140.673 628.885,-131.834 618.807,-135.102 623.044,-140.673"/>
</g>
<!-- Node16&#45;&gt;Node5 -->
<g id="edge37" class="edge"><title>Node16&#45;&gt;Node5</title>
<path fill="none" stroke="midnightblue" d="M735.385,-112.368C747.762,-94.2153 776.681,-51.8015 792.916,-27.9902"/>
<polygon fill="midnightblue" stroke="midnightblue" points="795.901,-29.8254 798.642,-19.5914 790.117,-25.882 795.901,-29.8254"/>
</g>
<!-- Node16&#45;&gt;Node9 -->
<g id="edge39" class="edge"><title>Node16&#45;&gt;Node9</title>
<path fill="none" stroke="midnightblue" d="M694.007,-112.444C653.435,-102.663 587.205,-86.6968 545.021,-76.5274"/>
<polygon fill="midnightblue" stroke="midnightblue" points="545.646,-73.0779 535.105,-74.1368 544.006,-79.883 545.646,-73.0779"/>
</g>
<!-- Node16&#45;&gt;Node11 -->
<g id="edge38" class="edge"><title>Node16&#45;&gt;Node11</title>
<path fill="none" stroke="midnightblue" d="M716.71,-112.368C688.739,-93.4924 621.898,-48.385 587.596,-25.2367"/>
<polygon fill="midnightblue" stroke="midnightblue" points="589.478,-22.2841 579.231,-19.5914 585.562,-28.0865 589.478,-22.2841"/>
</g>
</g>
</svg>
        <g id="navigator" transform="translate(0 0)" fill="#404254">
                <rect fill="#f2f5e9" fill-opacity="0.5" stroke="#606060" stroke-width=".5" x="0" y="0" width="60" height="60"/>
                <use id="zoomplus" xlink:href="#zoomPlus" x="17" y="9" onmousedown="handleZoom(evt,'in')"/>
                <use id="zoomminus" xlink:href="#zoomMin" x="42" y="9" onmousedown="handleZoom(evt,'out')"/>
                <use id="reset" xlink:href="#resetDef" x="30" y="36" onmousedown="handleReset()"/>
                <g id="arrowUp" xlink:href="#dirArrow" transform="translate(30 24)" onmousedown="handlePan(0,-1)">
                  <use xlink:href="#rim" fill="#404040">
                        <set attributeName="fill" to="#808080" begin="arrowUp.mouseover" end="arrowUp.mouseout"/>
                  </use>
                  <path fill="none" stroke="white" stroke-width="1.5" d="M0,-3.0v7 M-2.5,-0.5L0,-3.0L2.5,-0.5"/>
                </g>
                <g id="arrowRight" xlink:href="#dirArrow" transform="rotate(90) translate(36 -43)" onmousedown="handlePan(1,0)">
                  <use xlink:href="#rim" fill="#404040">
                        <set attributeName="fill" to="#808080" begin="arrowRight.mouseover" end="arrowRight.mouseout"/>
                  </use>
                  <path fill="none" stroke="white" stroke-width="1.5" d="M0,-3.0v7 M-2.5,-0.5L0,-3.0L2.5,-0.5"/>
                </g>
                <g id="arrowDown" xlink:href="#dirArrow" transform="rotate(180) translate(-30 -48)" onmousedown="handlePan(0,1)">
                  <use xlink:href="#rim" fill="#404040">
                        <set attributeName="fill" to="#808080" begin="arrowDown.mouseover" end="arrowDown.mouseout"/>
                  </use>
                  <path fill="none" stroke="white" stroke-width="1.5" d="M0,-3.0v7 M-2.5,-0.5L0,-3.0L2.5,-0.5"/>
                </g>
                <g id="arrowLeft" xlink:href="#dirArrow" transform="rotate(270) translate(-36 17)" onmousedown="handlePan(-1,0)">
                  <use xlink:href="#rim" fill="#404040">
                        <set attributeName="fill" to="#808080" begin="arrowLeft.mouseover" end="arrowLeft.mouseout"/>
                  </use>
                  <path fill="none" stroke="white" stroke-width="1.5" d="M0,-3.0v7 M-2.5,-0.5L0,-3.0L2.5,-0.5"/>
                </g>
        </g>
        <svg viewBox="0 0 15 15" width="100%" height="30px" preserveAspectRatio="xMaxYMin meet">
         <g id="arrow_out" transform="scale(0.3 0.3)">
          <a xlink:href="_partie_8h__incl_org.svg" target="_base">
           <rect id="button" ry="5" rx="5" y="6" x="6" height="38" width="38"
                fill="#f2f5e9" fill-opacity="0.5" stroke="#606060" stroke-width="1.0"/>
           <path id="arrow"
             d="M 11.500037,31.436501 C 11.940474,20.09759 22.043105,11.32322 32.158766,21.979434 L 37.068811,17.246167 C 37.068811,17.246167 37.088388,32 37.088388,32 L 22.160133,31.978069 C 22.160133,31.978069 26.997745,27.140456 26.997745,27.140456 C 18.528582,18.264221 13.291696,25.230495 11.500037,31.436501 z"
             style="fill:#404040;"/>
          </a>
         </g>
        </svg>
</svg>
