<?xml version="1.0" encoding="UTF-8" standalone="no"?>
<!DOCTYPE svg PUBLIC "-//W3C//DTD SVG 1.1//EN"
 "http://www.w3.org/Graphics/SVG/1.1/DTD/svg11.dtd">
<!-- Generated by graphviz version 2.38.0 (20140413.2041)
 -->
<!-- Title: src/Partie.h Pages: 1 -->
<!--zoomable 308 -->
<svg id="main" version="1.1" xmlns="http://www.w3.org/2000/svg" xmlns:xlink="http://www.w3.org/1999/xlink" xml:space="preserve" onload="init(evt)">
<style type="text/css"><![CDATA[
.edge:hover path { stroke: red; }
.edge:hover polygon { stroke: red; fill: red; }
]]></style>
<script type="text/javascript"><![CDATA[
var edges = document.getElementsByTagName('g');
if (edges && edges.length) {
  for (var i=0;i<edges.length;i++) {
    if (edges[i].id.substr(0,4)=='edge') {
      edges[i].setAttribute('class','edge');
    }
  }
}
]]></script>
        <defs>
                <circle id="rim" cx="0" cy="0" r="7"/>
                <circle id="rim2" cx="0" cy="0" r="3.5"/>
                <g id="zoomPlus">
                        <use xlink:href="#rim" fill="#404040">
                                <set attributeName="fill" to="#808080" begin="zoomplus.mouseover" end="zoomplus.mouseout"/>
                        </use>
                        <path d="M-4,0h8M0,-4v8" fill="none" stroke="white" stroke-width="1.5" pointer-events="none"/>
                </g>
                <g id="zoomMin">
                        <use xlink:href="#rim" fill="#404040">
                                <set attributeName="fill" to="#808080" begin="zoomminus.mouseover" end="zoomminus.mouseout"/>
                        </use>
                        <path d="M-4,0h8" fill="none" stroke="white" stroke-width="1.5" pointer-events="none"/>
                </g>
                <g id="dirArrow">
                        <path fill="none" stroke="white" stroke-width="1.5" d="M0,-3.0v7 M-2.5,-0.5L0,-3.0L2.5,-0.5"/>
                </g>
               <g id="resetDef">
                       <use xlink:href="#rim2" fill="#404040">
                               <set attributeName="fill" to="#808080" begin="reset.mouseover" end="reset.mouseout"/>
                       </use>
               </g>
        </defs>

<script type="text/javascript">
var viewWidth = 794;
var viewHeight = 308;
var sectionId = 'dynsection-0';
</script>
<script xlink:href="svgpan.js"/>
<svg id="graph" class="graph">
<g id="viewport">
<title>src/Partie.h</title>
<polygon fill="white" stroke="none" points="-4,4 -4,-304 790,-304 790,4 -4,4"/>
<!-- Node0 -->
<g id="node1" class="node"><title>Node0</title>
<polygon fill="#bfbfbf" stroke="black" points="448.5,-280.5 448.5,-299.5 515.5,-299.5 515.5,-280.5 448.5,-280.5"/>
<text text-anchor="middle" x="482" y="-287.5" font-family="Helvetica,sans-Serif" font-size="10.00">src/Partie.h</text>
</g>
<!-- Node1 -->
<g id="node2" class="node"><title>Node1</title>
<polygon fill="white" stroke="#bfbfbf" points="220,-0.5 220,-19.5 264,-19.5 264,-0.5 220,-0.5"/>
<text text-anchor="middle" x="242" y="-7.5" font-family="Helvetica,sans-Serif" font-size="10.00">vector</text>
</g>
<!-- Node0&#45;&gt;Node1 -->
<g id="edge1" class="edge"><title>Node0&#45;&gt;Node1</title>
<path fill="none" stroke="midnightblue" d="M448.489,-288.531C339.183,-286.107 0,-271.162 0,-179 0,-179 0,-179 0,-121 0,-30.069 143.353,-13.9484 209.394,-11.3465"/>
<polygon fill="midnightblue" stroke="midnightblue" points="209.781,-14.8363 219.667,-11.0271 209.563,-7.83968 209.781,-14.8363"/>
</g>
<!-- Node2 -->
<g id="node3" class="node"><title>Node2</title>
<polygon fill="white" stroke="#bfbfbf" points="112.5,-56.5 112.5,-75.5 153.5,-75.5 153.5,-56.5 112.5,-56.5"/>
<text text-anchor="middle" x="133" y="-63.5" font-family="Helvetica,sans-Serif" font-size="10.00">string</text>
</g>
<!-- Node0&#45;&gt;Node2 -->
<g id="edge2" class="edge"><title>Node0&#45;&gt;Node2</title>
<path fill="none" stroke="midnightblue" d="M448.423,-289.498C398.997,-288.821 305.152,-282.061 237,-244 178.479,-211.318 161.481,-193.996 136,-132 130.021,-117.454 129.658,-99.5052 130.571,-86.157"/>
<polygon fill="midnightblue" stroke="midnightblue" points="134.093,-86.1076 131.592,-75.812 127.127,-85.4197 134.093,-86.1076"/>
</g>
<!-- Node3 -->
<g id="node4" class="node"><title>Node3</title>
<polygon fill="white" stroke="#bfbfbf" points="452,-56.5 452,-75.5 508,-75.5 508,-56.5 452,-56.5"/>
<text text-anchor="middle" x="480" y="-63.5" font-family="Helvetica,sans-Serif" font-size="10.00">algorithm</text>
</g>
<!-- Node0&#45;&gt;Node3 -->
<g id="edge3" class="edge"><title>Node0&#45;&gt;Node3</title>
<path fill="none" stroke="midnightblue" d="M484.589,-280.433C491.995,-254.687 511.925,-175.842 499,-112 497.107,-102.649 493.208,-92.8267 489.433,-84.7526"/>
<polygon fill="midnightblue" stroke="midnightblue" points="492.475,-83.0106 484.876,-75.6279 486.212,-86.1381 492.475,-83.0106"/>
</g>
<!-- Node4 -->
<g id="node5" class="node"><title>Node4</title>
<polygon fill="white" stroke="#bfbfbf" points="732,-224.5 732,-243.5 786,-243.5 786,-224.5 732,-224.5"/>
<text text-anchor="middle" x="759" y="-231.5" font-family="Helvetica,sans-Serif" font-size="10.00">iostream</text>
</g>
<!-- Node0&#45;&gt;Node4 -->
<g id="edge4" class="edge"><title>Node0&#45;&gt;Node4</title>
<path fill="none" stroke="midnightblue" d="M515.668,-282.883C561.507,-274.486 646.086,-258.746 718,-244 719.245,-243.745 720.51,-243.482 721.788,-243.215"/>
<polygon fill="midnightblue" stroke="midnightblue" points="722.624,-246.616 731.675,-241.108 721.165,-239.77 722.624,-246.616"/>
</g>
<!-- Node5 -->
<g id="node6" class="node"><title>Node5</title>
<polygon fill="white" stroke="#bfbfbf" points="508,-0.5 508,-19.5 612,-19.5 612,-0.5 508,-0.5"/>
<text text-anchor="middle" x="560" y="-7.5" font-family="Helvetica,sans-Serif" font-size="10.00">SFML/Graphics.hpp</text>
</g>
<!-- Node0&#45;&gt;Node5 -->
<g id="edge5" class="edge"><title>Node0&#45;&gt;Node5</title>
<path fill="none" stroke="midnightblue" d="M494.188,-280.241C516.125,-263.35 560,-223.949 560,-179 560,-179 560,-179 560,-121 560,-88.948 560,-51.6426 560,-29.7489"/>
<polygon fill="midnightblue" stroke="midnightblue" points="563.5,-29.5577 560,-19.5578 556.5,-29.5578 563.5,-29.5577"/>
</g>
<!-- Node6 -->
<g id="node7" class="node"><title>Node6</title>
<polygon fill="white" stroke="#bfbfbf" points="642,-0.5 642,-19.5 740,-19.5 740,-0.5 642,-0.5"/>
<text text-anchor="middle" x="691" y="-7.5" font-family="Helvetica,sans-Serif" font-size="10.00">SFML/System.hpp</text>
</g>
<!-- Node0&#45;&gt;Node6 -->
<g id="edge6" class="edge"><title>Node0&#45;&gt;Node6</title>
<path fill="none" stroke="midnightblue" d="M515.804,-285.662C567.002,-279.939 660.818,-266.631 685,-244 706.975,-223.434 704,-209.098 704,-179 704,-179 704,-179 704,-121 704,-88.5762 698.361,-51.1457 694.51,-29.3688"/>
<polygon fill="midnightblue" stroke="midnightblue" points="697.95,-28.7196 692.7,-19.5172 691.065,-29.9853 697.95,-28.7196"/>
</g>
<!-- Node7 -->
<g id="node8" class="node"><title>Node7</title>
<g id="a_node8"><a xlink:href="_capacite_8h.html" target="_top" xlink:title="Capacites/Capacite.h">
<polygon fill="white" stroke="black" points="344.5,-168.5 344.5,-187.5 455.5,-187.5 455.5,-168.5 344.5,-168.5"/>
<text text-anchor="middle" x="400" y="-175.5" font-family="Helvetica,sans-Serif" font-size="10.00">Capacites/Capacite.h</text>
</a>
</g>
</g>
<!-- Node0&#45;&gt;Node7 -->
<g id="edge7" class="edge"><title>Node0&#45;&gt;Node7</title>
<path fill="none" stroke="midnightblue" d="M475.566,-280.368C461.973,-262.135 430.136,-219.426 412.431,-195.675"/>
<polygon fill="midnightblue" stroke="midnightblue" points="415.187,-193.517 406.405,-187.591 409.575,-197.701 415.187,-193.517"/>
</g>
<!-- Node8 -->
<g id="node9" class="node"><title>Node8</title>
<g id="a_node9"><a xlink:href="_projectile_8h.html" target="_top" xlink:title="../Projectiles/Projectile.h">
<polygon fill="white" stroke="black" points="180.5,-112.5 180.5,-131.5 303.5,-131.5 303.5,-112.5 180.5,-112.5"/>
<text text-anchor="middle" x="242" y="-119.5" font-family="Helvetica,sans-Serif" font-size="10.00">../Projectiles/Projectile.h</text>
</a>
</g>
</g>
<!-- Node0&#45;&gt;Node8 -->
<g id="edge20" class="edge"><title>Node0&#45;&gt;Node8</title>
<path fill="none" stroke="midnightblue" d="M448.253,-287.254C390.785,-283.525 277.642,-272.651 252,-244 226.785,-215.826 231.996,-167.728 237.374,-141.459"/>
<polygon fill="midnightblue" stroke="midnightblue" points="240.798,-142.187 239.601,-131.66 233.972,-140.635 240.798,-142.187"/>
</g>
<!-- Node10 -->
<g id="node11" class="node"><title>Node10</title>
<g id="a_node11"><a xlink:href="_vaisseau_8h.html" target="_top" xlink:title="Vaisseau/Vaisseau.h">
<polygon fill="white" stroke="black" points="261.5,-224.5 261.5,-243.5 370.5,-243.5 370.5,-224.5 261.5,-224.5"/>
<text text-anchor="middle" x="316" y="-231.5" font-family="Helvetica,sans-Serif" font-size="10.00">Vaisseau/Vaisseau.h</text>
</a>
</g>
</g>
<!-- Node0&#45;&gt;Node10 -->
<g id="edge21" class="edge"><title>Node0&#45;&gt;Node10</title>
<path fill="none" stroke="midnightblue" d="M455.697,-280.444C427.649,-271.32 383.056,-256.813 351.816,-246.651"/>
<polygon fill="midnightblue" stroke="midnightblue" points="352.772,-243.282 342.18,-243.516 350.607,-249.938 352.772,-243.282"/>
</g>
<!-- Node11 -->
<g id="node12" class="node"><title>Node11</title>
<g id="a_node12"><a xlink:href="_input_8h.html" target="_top" xlink:title="Interface/Input.h">
<polygon fill="white" stroke="black" points="588,-224.5 588,-243.5 676,-243.5 676,-224.5 588,-224.5"/>
<text text-anchor="middle" x="632" y="-231.5" font-family="Helvetica,sans-Serif" font-size="10.00">Interface/Input.h</text>
</a>
</g>
</g>
<!-- Node0&#45;&gt;Node11 -->
<g id="edge28" class="edge"><title>Node0&#45;&gt;Node11</title>
<path fill="none" stroke="midnightblue" d="M505.768,-280.444C530.893,-271.399 570.711,-257.064 598.9,-246.916"/>
<polygon fill="midnightblue" stroke="midnightblue" points="600.12,-250.197 608.343,-243.516 597.749,-243.611 600.12,-250.197"/>
</g>
<!-- Node7&#45;&gt;Node1 -->
<g id="edge8" class="edge"><title>Node7&#45;&gt;Node1</title>
<path fill="none" stroke="midnightblue" d="M391.505,-168.075C365.989,-141.267 289.771,-61.1902 257.12,-26.8851"/>
<polygon fill="midnightblue" stroke="midnightblue" points="259.585,-24.3986 250.155,-19.5681 254.514,-29.2246 259.585,-24.3986"/>
</g>
<!-- Node7&#45;&gt;Node2 -->
<g id="edge9" class="edge"><title>Node7&#45;&gt;Node2</title>
<path fill="none" stroke="midnightblue" d="M344.358,-171.356C285.766,-164.501 198.287,-151.394 171,-132 155.053,-120.666 144.764,-100.366 138.968,-85.4591"/>
<polygon fill="midnightblue" stroke="midnightblue" points="142.169,-84.015 135.525,-75.7626 135.573,-86.3573 142.169,-84.015"/>
</g>
<!-- Node7&#45;&gt;Node3 -->
<g id="edge10" class="edge"><title>Node7&#45;&gt;Node3</title>
<path fill="none" stroke="midnightblue" d="M406.277,-168.368C419.48,-150.215 450.326,-107.802 467.644,-83.9902"/>
<polygon fill="midnightblue" stroke="midnightblue" points="470.701,-85.7374 473.752,-75.5914 465.039,-81.6202 470.701,-85.7374"/>
</g>
<!-- Node7&#45;&gt;Node8 -->
<g id="edge11" class="edge"><title>Node7&#45;&gt;Node8</title>
<path fill="none" stroke="midnightblue" d="M374.964,-168.444C348.384,-159.359 306.191,-144.939 276.477,-134.783"/>
<polygon fill="midnightblue" stroke="midnightblue" points="277.513,-131.439 266.918,-131.516 275.249,-138.062 277.513,-131.439"/>
</g>
<!-- Node9 -->
<g id="node10" class="node"><title>Node9</title>
<g id="a_node10"><a xlink:href="_entite_8h.html" target="_top" xlink:title="../Entite.h">
<polygon fill="white" stroke="black" points="365.5,-56.5 365.5,-75.5 424.5,-75.5 424.5,-56.5 365.5,-56.5"/>
<text text-anchor="middle" x="395" y="-63.5" font-family="Helvetica,sans-Serif" font-size="10.00">../Entite.h</text>
</a>
</g>
</g>
<!-- Node7&#45;&gt;Node9 -->
<g id="edge19" class="edge"><title>Node7&#45;&gt;Node9</title>
<path fill="none" stroke="midnightblue" d="M399.608,-168.368C398.801,-150.617 396.939,-109.666 395.845,-85.5974"/>
<polygon fill="midnightblue" stroke="midnightblue" points="399.341,-85.4221 395.391,-75.5914 392.348,-85.7401 399.341,-85.4221"/>
</g>
<!-- Node8&#45;&gt;Node1 -->
<g id="edge12" class="edge"><title>Node8&#45;&gt;Node1</title>
<path fill="none" stroke="midnightblue" d="M242,-112.368C242,-94.617 242,-53.6664 242,-29.5974"/>
<polygon fill="midnightblue" stroke="midnightblue" points="245.5,-29.5914 242,-19.5914 238.5,-29.5915 245.5,-29.5914"/>
</g>
<!-- Node8&#45;&gt;Node2 -->
<g id="edge13" class="edge"><title>Node8&#45;&gt;Node2</title>
<path fill="none" stroke="midnightblue" d="M224.487,-112.324C206.928,-103.625 179.669,-90.1202 159.469,-80.113"/>
<polygon fill="midnightblue" stroke="midnightblue" points="160.984,-76.9575 150.469,-75.6545 157.876,-83.23 160.984,-76.9575"/>
</g>
<!-- Node8&#45;&gt;Node3 -->
<g id="edge14" class="edge"><title>Node8&#45;&gt;Node3</title>
<path fill="none" stroke="midnightblue" d="M279.712,-112.444C324.096,-102.373 397.38,-85.7456 441.923,-75.6394"/>
<polygon fill="midnightblue" stroke="midnightblue" points="442.803,-79.0286 451.781,-73.4026 441.255,-72.2021 442.803,-79.0286"/>
</g>
<!-- Node8&#45;&gt;Node9 -->
<g id="edge15" class="edge"><title>Node8&#45;&gt;Node9</title>
<path fill="none" stroke="midnightblue" d="M266.243,-112.444C291.871,-103.399 332.485,-89.064 361.238,-78.9158"/>
<polygon fill="midnightblue" stroke="midnightblue" points="362.605,-82.1452 370.87,-75.5164 360.275,-75.5442 362.605,-82.1452"/>
</g>
<!-- Node9&#45;&gt;Node1 -->
<g id="edge16" class="edge"><title>Node9&#45;&gt;Node1</title>
<path fill="none" stroke="midnightblue" d="M370.757,-56.4435C344.526,-47.1858 302.595,-32.3866 273.752,-22.2066"/>
<polygon fill="midnightblue" stroke="midnightblue" points="274.738,-18.8429 264.143,-18.8151 272.408,-25.4438 274.738,-18.8429"/>
</g>
<!-- Node9&#45;&gt;Node5 -->
<g id="edge18" class="edge"><title>Node9&#45;&gt;Node5</title>
<path fill="none" stroke="midnightblue" d="M421.145,-56.4435C449.023,-47.3196 493.348,-32.8133 524.4,-22.6509"/>
<polygon fill="midnightblue" stroke="midnightblue" points="525.562,-25.9533 533.978,-19.5164 523.385,-19.3005 525.562,-25.9533"/>
</g>
<!-- Node9&#45;&gt;Node6 -->
<g id="edge17" class="edge"><title>Node9&#45;&gt;Node6</title>
<path fill="none" stroke="midnightblue" d="M424.697,-59.4038C430.752,-58.2707 437.08,-57.0921 443,-56 508.219,-43.9687 583.138,-30.4108 633.413,-21.3508"/>
<polygon fill="midnightblue" stroke="midnightblue" points="634.221,-24.7618 643.442,-19.5443 632.98,-17.8726 634.221,-24.7618"/>
</g>
<!-- Node10&#45;&gt;Node1 -->
<g id="edge22" class="edge"><title>Node10&#45;&gt;Node1</title>
<path fill="none" stroke="midnightblue" d="M271.933,-224.484C244.621,-217.722 209.768,-206.29 183,-188 132.492,-153.49 119.095,-135.017 103,-76 100.661,-67.4243 97.7714,-63.1885 103,-56 127.301,-22.5902 176.945,-13.4775 209.847,-11.2687"/>
<polygon fill="midnightblue" stroke="midnightblue" points="210.073,-14.7619 219.888,-10.7721 209.728,-7.77044 210.073,-14.7619"/>
</g>
<!-- Node10&#45;&gt;Node2 -->
<g id="edge23" class="edge"><title>Node10&#45;&gt;Node2</title>
<path fill="none" stroke="midnightblue" d="M289.827,-224.459C252.64,-210.939 185.033,-180.997 149,-132 139.21,-118.688 135.359,-100.111 133.87,-86.2252"/>
<polygon fill="midnightblue" stroke="midnightblue" points="137.333,-85.5934 133.097,-75.8824 130.352,-86.1157 137.333,-85.5934"/>
</g>
<!-- Node10&#45;&gt;Node3 -->
<g id="edge24" class="edge"><title>Node10&#45;&gt;Node3</title>
<path fill="none" stroke="midnightblue" d="M370.755,-230.531C402.727,-226.067 441.153,-214.93 464,-188 488.479,-159.145 486.593,-111.67 483.212,-85.5913"/>
<polygon fill="midnightblue" stroke="midnightblue" points="486.65,-84.9138 481.694,-75.5494 479.728,-85.9603 486.65,-84.9138"/>
</g>
<!-- Node10&#45;&gt;Node7 -->
<g id="edge25" class="edge"><title>Node10&#45;&gt;Node7</title>
<path fill="none" stroke="midnightblue" d="M329.496,-224.324C342.6,-215.9 362.712,-202.971 378.107,-193.074"/>
<polygon fill="midnightblue" stroke="midnightblue" points="380.018,-196.006 386.537,-187.655 376.233,-190.118 380.018,-196.006"/>
</g>
<!-- Node10&#45;&gt;Node8 -->
<g id="edge27" class="edge"><title>Node10&#45;&gt;Node8</title>
<path fill="none" stroke="midnightblue" d="M310.193,-224.368C297.981,-206.215 269.448,-163.802 253.43,-139.99"/>
<polygon fill="midnightblue" stroke="midnightblue" points="256.266,-137.935 247.78,-131.591 250.457,-141.842 256.266,-137.935"/>
</g>
<!-- Node10&#45;&gt;Node9 -->
<g id="edge26" class="edge"><title>Node10&#45;&gt;Node9</title>
<path fill="none" stroke="midnightblue" d="M317.798,-224.346C320.596,-211.658 326.56,-187.407 335,-168 348.561,-136.818 369.906,-103.414 383.145,-83.9072"/>
<polygon fill="midnightblue" stroke="midnightblue" points="386.133,-85.739 388.923,-75.5181 380.368,-81.7681 386.133,-85.739"/>
</g>
<!-- Node11&#45;&gt;Node5 -->
<g id="edge29" class="edge"><title>Node11&#45;&gt;Node5</title>
<path fill="none" stroke="midnightblue" d="M629.098,-224.382C626.057,-215.33 621.154,-200.678 617,-188 598.116,-130.37 576.254,-62.0108 565.953,-29.6995"/>
<polygon fill="midnightblue" stroke="midnightblue" points="569.185,-28.3163 562.815,-19.8506 562.516,-30.4412 569.185,-28.3163"/>
</g>
<!-- Node12 -->
<g id="node13" class="node"><title>Node12</title>
<polygon fill="white" stroke="#bfbfbf" points="626,-168.5 626,-187.5 676,-187.5 676,-168.5 626,-168.5"/>
<text text-anchor="middle" x="651" y="-175.5" font-family="Helvetica,sans-Serif" font-size="10.00">optional</text>
</g>
<!-- Node11&#45;&gt;Node12 -->
<g id="edge30" class="edge"><title>Node11&#45;&gt;Node12</title>
<path fill="none" stroke="midnightblue" d="M635.137,-224.083C637.683,-216.849 641.356,-206.409 644.527,-197.397"/>
<polygon fill="midnightblue" stroke="midnightblue" points="647.903,-198.346 647.921,-187.751 641.3,-196.023 647.903,-198.346"/>
</g>
</g>
</svg>
        <g id="navigator" transform="translate(0 0)" fill="#404254">
                <rect fill="#f2f5e9" fill-opacity="0.5" stroke="#606060" stroke-width=".5" x="0" y="0" width="60" height="60"/>
                <use id="zoomplus" xlink:href="#zoomPlus" x="17" y="9" onmousedown="handleZoom(evt,'in')"/>
                <use id="zoomminus" xlink:href="#zoomMin" x="42" y="9" onmousedown="handleZoom(evt,'out')"/>
                <use id="reset" xlink:href="#resetDef" x="30" y="36" onmousedown="handleReset()"/>
                <g id="arrowUp" xlink:href="#dirArrow" transform="translate(30 24)" onmousedown="handlePan(0,-1)">
                  <use xlink:href="#rim" fill="#404040">
                        <set attributeName="fill" to="#808080" begin="arrowUp.mouseover" end="arrowUp.mouseout"/>
                  </use>
                  <path fill="none" stroke="white" stroke-width="1.5" d="M0,-3.0v7 M-2.5,-0.5L0,-3.0L2.5,-0.5"/>
                </g>
                <g id="arrowRight" xlink:href="#dirArrow" transform="rotate(90) translate(36 -43)" onmousedown="handlePan(1,0)">
                  <use xlink:href="#rim" fill="#404040">
                        <set attributeName="fill" to="#808080" begin="arrowRight.mouseover" end="arrowRight.mouseout"/>
                  </use>
                  <path fill="none" stroke="white" stroke-width="1.5" d="M0,-3.0v7 M-2.5,-0.5L0,-3.0L2.5,-0.5"/>
                </g>
                <g id="arrowDown" xlink:href="#dirArrow" transform="rotate(180) translate(-30 -48)" onmousedown="handlePan(0,1)">
                  <use xlink:href="#rim" fill="#404040">
                        <set attributeName="fill" to="#808080" begin="arrowDown.mouseover" end="arrowDown.mouseout"/>
                  </use>
                  <path fill="none" stroke="white" stroke-width="1.5" d="M0,-3.0v7 M-2.5,-0.5L0,-3.0L2.5,-0.5"/>
                </g>
                <g id="arrowLeft" xlink:href="#dirArrow" transform="rotate(270) translate(-36 17)" onmousedown="handlePan(-1,0)">
                  <use xlink:href="#rim" fill="#404040">
                        <set attributeName="fill" to="#808080" begin="arrowLeft.mouseover" end="arrowLeft.mouseout"/>
                  </use>
                  <path fill="none" stroke="white" stroke-width="1.5" d="M0,-3.0v7 M-2.5,-0.5L0,-3.0L2.5,-0.5"/>
                </g>
        </g>
        <svg viewBox="0 0 15 15" width="100%" height="30px" preserveAspectRatio="xMaxYMin meet">
         <g id="arrow_out" transform="scale(0.3 0.3)">
          <a xlink:href="_partie_8h__incl_org.svg" target="_base">
           <rect id="button" ry="5" rx="5" y="6" x="6" height="38" width="38"
                fill="#f2f5e9" fill-opacity="0.5" stroke="#606060" stroke-width="1.0"/>
           <path id="arrow"
             d="M 11.500037,31.436501 C 11.940474,20.09759 22.043105,11.32322 32.158766,21.979434 L 37.068811,17.246167 C 37.068811,17.246167 37.088388,32 37.088388,32 L 22.160133,31.978069 C 22.160133,31.978069 26.997745,27.140456 26.997745,27.140456 C 18.528582,18.264221 13.291696,25.230495 11.500037,31.436501 z"
             style="fill:#404040;"/>
          </a>
         </g>
        </svg>
</svg>
