<?xml version="1.0" encoding="UTF-8" standalone="no"?>
<!DOCTYPE svg PUBLIC "-//W3C//DTD SVG 1.1//EN"
 "http://www.w3.org/Graphics/SVG/1.1/DTD/svg11.dtd">
<!-- Generated by graphviz version 2.38.0 (20140413.2041)
 -->
<!-- Title: src/Projectiles/Projectile.cpp Pages: 1 -->
<svg width="577pt" height="308pt"
 viewBox="0.00 0.00 577.00 308.00" xmlns="http://www.w3.org/2000/svg" xmlns:xlink="http://www.w3.org/1999/xlink">
<g id="graph0" class="graph" transform="scale(1 1) rotate(0) translate(4 304)">
<title>src/Projectiles/Projectile.cpp</title>
<polygon fill="white" stroke="none" points="-4,4 -4,-304 573,-304 573,4 -4,4"/>
<!-- Node0 -->
<g id="node1" class="node"><title>Node0</title>
<polygon fill="#bfbfbf" stroke="black" points="168.5,-280.5 168.5,-299.5 309.5,-299.5 309.5,-280.5 168.5,-280.5"/>
<text text-anchor="middle" x="239" y="-287.5" font-family="Helvetica,sans-Serif" font-size="10.00">src/Projectiles/Projectile.cpp</text>
</g>
<!-- Node1 -->
<g id="node2" class="node"><title>Node1</title>
<polygon fill="white" stroke="#bfbfbf" points="245,-0.5 245,-19.5 289,-19.5 289,-0.5 245,-0.5"/>
<text text-anchor="middle" x="267" y="-7.5" font-family="Helvetica,sans-Serif" font-size="10.00">vector</text>
</g>
<!-- Node0&#45;&gt;Node1 -->
<g id="edge1" class="edge"><title>Node0&#45;&gt;Node1</title>
<path fill="none" stroke="midnightblue" d="M198.708,-280.434C150.439,-267.533 76,-238.062 76,-179 76,-179 76,-179 76,-121 76,-81.985 102.39,-77.4187 135,-56 143.601,-50.3504 198.998,-32.3572 235.24,-20.9075"/>
<polygon fill="midnightblue" stroke="midnightblue" points="236.412,-24.2081 244.9,-17.8673 234.31,-17.531 236.412,-24.2081"/>
</g>
<!-- Node2 -->
<g id="node3" class="node"><title>Node2</title>
<polygon fill="white" stroke="#bfbfbf" points="259.5,-56.5 259.5,-75.5 300.5,-75.5 300.5,-56.5 259.5,-56.5"/>
<text text-anchor="middle" x="280" y="-63.5" font-family="Helvetica,sans-Serif" font-size="10.00">string</text>
</g>
<!-- Node0&#45;&gt;Node2 -->
<g id="edge2" class="edge"><title>Node0&#45;&gt;Node2</title>
<path fill="none" stroke="midnightblue" d="M215.546,-280.408C199.839,-273.28 180.381,-261.458 171,-244 166.792,-236.17 168.344,-232.483 171,-224 189.33,-165.457 238.032,-109.59 263.679,-83.0659"/>
<polygon fill="midnightblue" stroke="midnightblue" points="266.309,-85.3834 270.839,-75.8058 261.325,-80.4681 266.309,-85.3834"/>
</g>
<!-- Node3 -->
<g id="node4" class="node"><title>Node3</title>
<polygon fill="white" stroke="#bfbfbf" points="513,-56.5 513,-75.5 569,-75.5 569,-56.5 513,-56.5"/>
<text text-anchor="middle" x="541" y="-63.5" font-family="Helvetica,sans-Serif" font-size="10.00">algorithm</text>
</g>
<!-- Node0&#45;&gt;Node3 -->
<g id="edge3" class="edge"><title>Node0&#45;&gt;Node3</title>
<path fill="none" stroke="midnightblue" d="M272.477,-280.437C322.246,-266.624 417.255,-236.018 486,-188 515.639,-167.298 530.73,-165.218 545,-132 551.275,-117.392 549.449,-99.2189 546.529,-85.8057"/>
<polygon fill="midnightblue" stroke="midnightblue" points="549.848,-84.6572 543.972,-75.8408 543.067,-86.397 549.848,-84.6572"/>
</g>
<!-- Node4 -->
<g id="node5" class="node"><title>Node4</title>
<polygon fill="white" stroke="#bfbfbf" points="0,-0.5 0,-19.5 104,-19.5 104,-0.5 0,-0.5"/>
<text text-anchor="middle" x="52" y="-7.5" font-family="Helvetica,sans-Serif" font-size="10.00">SFML/Graphics.hpp</text>
</g>
<!-- Node0&#45;&gt;Node4 -->
<g id="edge4" class="edge"><title>Node0&#45;&gt;Node4</title>
<path fill="none" stroke="midnightblue" d="M172.349,-280.448C113.84,-268.763 38,-241.554 38,-179 38,-179 38,-179 38,-121 38,-88.5405 44.0731,-51.1213 48.2195,-29.3564"/>
<polygon fill="midnightblue" stroke="midnightblue" points="51.6598,-30.0003 50.1697,-19.5108 44.7933,-28.6401 51.6598,-30.0003"/>
</g>
<!-- Node5 -->
<g id="node6" class="node"><title>Node5</title>
<g id="a_node6"><a xlink:href="_capacite_8h.html" target="_top" xlink:title="../Capacites/Capacite.h">
<polygon fill="white" stroke="black" points="256,-168.5 256,-187.5 376,-187.5 376,-168.5 256,-168.5"/>
<text text-anchor="middle" x="316" y="-175.5" font-family="Helvetica,sans-Serif" font-size="10.00">../Capacites/Capacite.h</text>
</a>
</g>
</g>
<!-- Node0&#45;&gt;Node5 -->
<g id="edge5" class="edge"><title>Node0&#45;&gt;Node5</title>
<path fill="none" stroke="midnightblue" d="M260.746,-280.451C276.26,-273.165 296.214,-261.131 307,-244 315.63,-230.292 317.45,-211.759 317.363,-197.99"/>
<polygon fill="midnightblue" stroke="midnightblue" points="320.85,-197.605 316.948,-187.755 313.856,-197.889 320.85,-197.605"/>
</g>
<!-- Node6 -->
<g id="node7" class="node"><title>Node6</title>
<g id="a_node7"><a xlink:href="_projectile_8h.html" target="_top" xlink:title="../Projectiles/Projectile.h">
<polygon fill="white" stroke="black" points="370.5,-112.5 370.5,-131.5 493.5,-131.5 493.5,-112.5 370.5,-112.5"/>
<text text-anchor="middle" x="432" y="-119.5" font-family="Helvetica,sans-Serif" font-size="10.00">../Projectiles/Projectile.h</text>
</a>
</g>
</g>
<!-- Node0&#45;&gt;Node6 -->
<g id="edge25" class="edge"><title>Node0&#45;&gt;Node6</title>
<path fill="none" stroke="midnightblue" d="M265.554,-280.458C303.33,-266.938 372.186,-236.995 410,-188 420.453,-174.456 426.102,-155.652 429.047,-141.753"/>
<polygon fill="midnightblue" stroke="midnightblue" points="432.501,-142.319 430.869,-131.851 425.617,-141.052 432.501,-142.319"/>
</g>
<!-- Node9 -->
<g id="node10" class="node"><title>Node9</title>
<g id="a_node10"><a xlink:href="_vaisseau_8h.html" target="_top" xlink:title="../Vaisseau/Vaisseau.h">
<polygon fill="white" stroke="black" points="180,-224.5 180,-243.5 298,-243.5 298,-224.5 180,-224.5"/>
<text text-anchor="middle" x="239" y="-231.5" font-family="Helvetica,sans-Serif" font-size="10.00">../Vaisseau/Vaisseau.h</text>
</a>
</g>
</g>
<!-- Node0&#45;&gt;Node9 -->
<g id="edge18" class="edge"><title>Node0&#45;&gt;Node9</title>
<path fill="none" stroke="midnightblue" d="M239,-280.083C239,-273.006 239,-262.861 239,-253.986"/>
<polygon fill="midnightblue" stroke="midnightblue" points="242.5,-253.751 239,-243.751 235.5,-253.751 242.5,-253.751"/>
</g>
<!-- Node5&#45;&gt;Node1 -->
<g id="edge6" class="edge"><title>Node5&#45;&gt;Node1</title>
<path fill="none" stroke="midnightblue" d="M317.429,-168.336C320.413,-147.823 325.723,-95.0772 309,-56 304.093,-44.5342 294.932,-34.1704 286.415,-26.2867"/>
<polygon fill="midnightblue" stroke="midnightblue" points="288.459,-23.4274 278.606,-19.533 283.88,-28.7219 288.459,-23.4274"/>
</g>
<!-- Node5&#45;&gt;Node2 -->
<g id="edge7" class="edge"><title>Node5&#45;&gt;Node2</title>
<path fill="none" stroke="midnightblue" d="M313.175,-168.368C307.339,-150.537 293.842,-109.295 285.98,-85.2717"/>
<polygon fill="midnightblue" stroke="midnightblue" points="289.249,-84.0067 282.812,-75.5914 282.596,-86.1841 289.249,-84.0067"/>
</g>
<!-- Node5&#45;&gt;Node3 -->
<g id="edge8" class="edge"><title>Node5&#45;&gt;Node3</title>
<path fill="none" stroke="midnightblue" d="M376.294,-174.247C415.375,-169.789 465.594,-158.761 502,-132 517.871,-120.334 528.515,-100.091 534.619,-85.2874"/>
<polygon fill="midnightblue" stroke="midnightblue" points="537.993,-86.2613 538.271,-75.6701 531.449,-83.7762 537.993,-86.2613"/>
</g>
<!-- Node5&#45;&gt;Node6 -->
<g id="edge9" class="edge"><title>Node5&#45;&gt;Node6</title>
<path fill="none" stroke="midnightblue" d="M334.381,-168.444C353.216,-159.675 382.731,-145.935 404.379,-135.858"/>
<polygon fill="midnightblue" stroke="midnightblue" points="406.117,-138.91 413.705,-131.516 403.162,-132.564 406.117,-138.91"/>
</g>
<!-- Node7 -->
<g id="node8" class="node"><title>Node7</title>
<g id="a_node8"><a xlink:href="_entite_8h.html" target="_top" xlink:title="../Entite.h">
<polygon fill="white" stroke="black" points="156.5,-56.5 156.5,-75.5 215.5,-75.5 215.5,-56.5 156.5,-56.5"/>
<text text-anchor="middle" x="186" y="-63.5" font-family="Helvetica,sans-Serif" font-size="10.00">../Entite.h</text>
</a>
</g>
</g>
<!-- Node5&#45;&gt;Node7 -->
<g id="edge17" class="edge"><title>Node5&#45;&gt;Node7</title>
<path fill="none" stroke="midnightblue" d="M305.799,-168.368C283.776,-149.733 231.538,-105.532 203.885,-82.1338"/>
<polygon fill="midnightblue" stroke="midnightblue" points="206.048,-79.379 196.153,-75.5914 201.527,-84.7227 206.048,-79.379"/>
</g>
<!-- Node6&#45;&gt;Node1 -->
<g id="edge10" class="edge"><title>Node6&#45;&gt;Node1</title>
<path fill="none" stroke="midnightblue" d="M423.212,-112.239C409.614,-98.9839 382.295,-73.5235 356,-56 337.157,-43.4427 314.339,-31.9713 296.525,-23.7536"/>
<polygon fill="midnightblue" stroke="midnightblue" points="297.754,-20.4682 287.2,-19.5367 294.87,-26.8463 297.754,-20.4682"/>
</g>
<!-- Node6&#45;&gt;Node2 -->
<g id="edge11" class="edge"><title>Node6&#45;&gt;Node2</title>
<path fill="none" stroke="midnightblue" d="M407.915,-112.444C381.407,-103.026 338.758,-87.8746 310.074,-77.6842"/>
<polygon fill="midnightblue" stroke="midnightblue" points="311.155,-74.3538 300.56,-74.3042 308.811,-80.9499 311.155,-74.3538"/>
</g>
<!-- Node6&#45;&gt;Node3 -->
<g id="edge12" class="edge"><title>Node6&#45;&gt;Node3</title>
<path fill="none" stroke="midnightblue" d="M449.513,-112.324C467.072,-103.625 494.331,-90.1202 514.531,-80.113"/>
<polygon fill="midnightblue" stroke="midnightblue" points="516.124,-83.23 523.531,-75.6545 513.016,-76.9575 516.124,-83.23"/>
</g>
<!-- Node6&#45;&gt;Node7 -->
<g id="edge13" class="edge"><title>Node6&#45;&gt;Node7</title>
<path fill="none" stroke="midnightblue" d="M393.021,-112.444C347.174,-102.38 271.494,-85.7669 225.446,-75.6588"/>
<polygon fill="midnightblue" stroke="midnightblue" points="226.05,-72.2082 215.532,-73.4826 224.549,-79.0454 226.05,-72.2082"/>
</g>
<!-- Node7&#45;&gt;Node1 -->
<g id="edge14" class="edge"><title>Node7&#45;&gt;Node1</title>
<path fill="none" stroke="midnightblue" d="M199.014,-56.324C211.532,-47.979 230.682,-35.2122 245.471,-25.3524"/>
<polygon fill="midnightblue" stroke="midnightblue" points="247.639,-28.1137 254.018,-19.6545 243.756,-22.2894 247.639,-28.1137"/>
</g>
<!-- Node7&#45;&gt;Node4 -->
<g id="edge16" class="edge"><title>Node7&#45;&gt;Node4</title>
<path fill="none" stroke="midnightblue" d="M164.767,-56.4435C142.616,-47.5171 107.681,-33.4387 82.564,-23.3168"/>
<polygon fill="midnightblue" stroke="midnightblue" points="83.7168,-20.0079 73.1334,-19.5164 81.1003,-26.5006 83.7168,-20.0079"/>
</g>
<!-- Node8 -->
<g id="node9" class="node"><title>Node8</title>
<polygon fill="white" stroke="#bfbfbf" points="129,-0.5 129,-19.5 227,-19.5 227,-0.5 129,-0.5"/>
<text text-anchor="middle" x="178" y="-7.5" font-family="Helvetica,sans-Serif" font-size="10.00">SFML/System.hpp</text>
</g>
<!-- Node7&#45;&gt;Node8 -->
<g id="edge15" class="edge"><title>Node7&#45;&gt;Node8</title>
<path fill="none" stroke="midnightblue" d="M184.679,-56.083C183.619,-48.9272 182.094,-38.6353 180.769,-29.6911"/>
<polygon fill="midnightblue" stroke="midnightblue" points="184.224,-29.1302 179.296,-19.7511 177.3,-30.1561 184.224,-29.1302"/>
</g>
<!-- Node9&#45;&gt;Node1 -->
<g id="edge19" class="edge"><title>Node9&#45;&gt;Node1</title>
<path fill="none" stroke="midnightblue" d="M228.075,-224.459C195.717,-198.129 105.18,-116.346 147,-56 152.269,-48.397 201.33,-31.6828 235.065,-20.903"/>
<polygon fill="midnightblue" stroke="midnightblue" points="236.5,-24.1199 244.977,-17.7647 234.387,-17.4464 236.5,-24.1199"/>
</g>
<!-- Node9&#45;&gt;Node2 -->
<g id="edge20" class="edge"><title>Node9&#45;&gt;Node2</title>
<path fill="none" stroke="midnightblue" d="M239.52,-224.497C240.403,-211.996 242.551,-187.976 247,-168 253.594,-138.39 265.334,-105.145 272.887,-85.1531"/>
<polygon fill="midnightblue" stroke="midnightblue" points="276.178,-86.3462 276.5,-75.7562 269.644,-83.8342 276.178,-86.3462"/>
</g>
<!-- Node9&#45;&gt;Node3 -->
<g id="edge21" class="edge"><title>Node9&#45;&gt;Node3</title>
<path fill="none" stroke="midnightblue" d="M298.09,-229.951C364.643,-223.103 470.704,-201.237 526,-132 536.493,-118.861 539.909,-99.7186 540.9,-85.608"/>
<polygon fill="midnightblue" stroke="midnightblue" points="544.399,-85.7017 541.264,-75.5813 537.403,-85.4478 544.399,-85.7017"/>
</g>
<!-- Node9&#45;&gt;Node5 -->
<g id="edge22" class="edge"><title>Node9&#45;&gt;Node5</title>
<path fill="none" stroke="midnightblue" d="M251.371,-224.324C263.158,-216.058 281.132,-203.453 295.136,-193.632"/>
<polygon fill="midnightblue" stroke="midnightblue" points="297.482,-196.262 303.659,-187.655 293.462,-190.531 297.482,-196.262"/>
</g>
<!-- Node9&#45;&gt;Node6 -->
<g id="edge24" class="edge"><title>Node9&#45;&gt;Node6</title>
<path fill="none" stroke="midnightblue" d="M295.157,-224.493C324.025,-218.045 358.591,-206.928 385,-188 402.105,-175.74 415.394,-155.303 423.411,-140.616"/>
<polygon fill="midnightblue" stroke="midnightblue" points="426.621,-142.028 428.102,-131.537 420.402,-138.815 426.621,-142.028"/>
</g>
<!-- Node9&#45;&gt;Node7 -->
<g id="edge23" class="edge"><title>Node9&#45;&gt;Node7</title>
<path fill="none" stroke="midnightblue" d="M236.15,-224.075C227.772,-197.832 203.096,-120.545 191.784,-85.1165"/>
<polygon fill="midnightblue" stroke="midnightblue" points="195.111,-84.0298 188.736,-75.5681 188.443,-86.1589 195.111,-84.0298"/>
</g>
</g>
</svg>
