<?xml version="1.0" encoding="UTF-8" standalone="no"?>
<!DOCTYPE svg PUBLIC "-//W3C//DTD SVG 1.1//EN"
 "http://www.w3.org/Graphics/SVG/1.1/DTD/svg11.dtd">
<!-- Generated by graphviz version 2.38.0 (20140413.2041)
 -->
<!-- Title: src/Projectiles/ProjPiou.h Pages: 1 -->
<svg width="329pt" height="196pt"
 viewBox="0.00 0.00 328.97 196.00" xmlns="http://www.w3.org/2000/svg" xmlns:xlink="http://www.w3.org/1999/xlink">
<g id="graph0" class="graph" transform="scale(1 1) rotate(0) translate(4 192)">
<title>src/Projectiles/ProjPiou.h</title>
<polygon fill="white" stroke="none" points="-4,4 -4,-192 324.968,-192 324.968,4 -4,4"/>
<!-- Node0 -->
<g id="node1" class="node"><title>Node0</title>
<polygon fill="#bfbfbf" stroke="black" points="2.46825,-168.5 2.46825,-187.5 129.468,-187.5 129.468,-168.5 2.46825,-168.5"/>
<text text-anchor="middle" x="65.9683" y="-175.5" font-family="Helvetica,sans-Serif" font-size="10.00">src/Projectiles/ProjPiou.h</text>
</g>
<!-- Node1 -->
<g id="node2" class="node"><title>Node1</title>
<g id="a_node2"><a xlink:href="_projectile_8h.html" target="_top" xlink:title="Projectile.h">
<polygon fill="white" stroke="black" points="33.4683,-112.5 33.4683,-131.5 98.4683,-131.5 98.4683,-112.5 33.4683,-112.5"/>
<text text-anchor="middle" x="65.9683" y="-119.5" font-family="Helvetica,sans-Serif" font-size="10.00">Projectile.h</text>
</a>
</g>
</g>
<!-- Node0&#45;&gt;Node1 -->
<g id="edge1" class="edge"><title>Node0&#45;&gt;Node1</title>
<path fill="none" stroke="midnightblue" d="M65.9683,-168.083C65.9683,-161.006 65.9683,-150.861 65.9683,-141.986"/>
<polygon fill="midnightblue" stroke="midnightblue" points="69.4683,-141.751 65.9683,-131.751 62.4683,-141.751 69.4683,-141.751"/>
</g>
<!-- Node2 -->
<g id="node3" class="node"><title>Node2</title>
<polygon fill="white" stroke="#bfbfbf" points="12.9683,-0.5 12.9683,-19.5 56.9683,-19.5 56.9683,-0.5 12.9683,-0.5"/>
<text text-anchor="middle" x="34.9683" y="-7.5" font-family="Helvetica,sans-Serif" font-size="10.00">vector</text>
</g>
<!-- Node1&#45;&gt;Node2 -->
<g id="edge2" class="edge"><title>Node1&#45;&gt;Node2</title>
<path fill="none" stroke="midnightblue" d="M45.1209,-112.427C30.3904,-105.129 11.7633,-93.0905 2.96825,-76 -5.51574,-59.514 6.3802,-40.4626 17.9992,-27.2661"/>
<polygon fill="midnightblue" stroke="midnightblue" points="20.6642,-29.5424 25.0132,-19.8813 15.5887,-24.7217 20.6642,-29.5424"/>
</g>
<!-- Node3 -->
<g id="node4" class="node"><title>Node3</title>
<polygon fill="white" stroke="#bfbfbf" points="12.4683,-56.5 12.4683,-75.5 53.4683,-75.5 53.4683,-56.5 12.4683,-56.5"/>
<text text-anchor="middle" x="32.9683" y="-63.5" font-family="Helvetica,sans-Serif" font-size="10.00">string</text>
</g>
<!-- Node1&#45;&gt;Node3 -->
<g id="edge3" class="edge"><title>Node1&#45;&gt;Node3</title>
<path fill="none" stroke="midnightblue" d="M60.519,-112.083C55.9538,-104.613 49.2998,-93.7244 43.6748,-84.5199"/>
<polygon fill="midnightblue" stroke="midnightblue" points="46.5172,-82.4588 38.3161,-75.7511 40.5442,-86.109 46.5172,-82.4588"/>
</g>
<!-- Node4 -->
<g id="node5" class="node"><title>Node4</title>
<polygon fill="white" stroke="#bfbfbf" points="71.9683,-56.5 71.9683,-75.5 127.968,-75.5 127.968,-56.5 71.9683,-56.5"/>
<text text-anchor="middle" x="99.9683" y="-63.5" font-family="Helvetica,sans-Serif" font-size="10.00">algorithm</text>
</g>
<!-- Node1&#45;&gt;Node4 -->
<g id="edge4" class="edge"><title>Node1&#45;&gt;Node4</title>
<path fill="none" stroke="midnightblue" d="M71.5827,-112.083C76.3357,-104.534 83.2863,-93.4948 89.1199,-84.2298"/>
<polygon fill="midnightblue" stroke="midnightblue" points="92.092,-86.0783 94.4583,-75.7511 86.1683,-82.3486 92.092,-86.0783"/>
</g>
<!-- Node5 -->
<g id="node6" class="node"><title>Node5</title>
<g id="a_node6"><a xlink:href="_entite_8h.html" target="_top" xlink:title="../Entite.h">
<polygon fill="white" stroke="black" points="146.468,-56.5 146.468,-75.5 205.468,-75.5 205.468,-56.5 146.468,-56.5"/>
<text text-anchor="middle" x="175.968" y="-63.5" font-family="Helvetica,sans-Serif" font-size="10.00">../Entite.h</text>
</a>
</g>
</g>
<!-- Node1&#45;&gt;Node5 -->
<g id="edge5" class="edge"><title>Node1&#45;&gt;Node5</title>
<path fill="none" stroke="midnightblue" d="M83.6417,-112.324C101.362,-103.625 128.871,-90.1202 149.257,-80.113"/>
<polygon fill="midnightblue" stroke="midnightblue" points="150.904,-83.2031 158.339,-75.6545 147.82,-76.9195 150.904,-83.2031"/>
</g>
<!-- Node5&#45;&gt;Node2 -->
<g id="edge6" class="edge"><title>Node5&#45;&gt;Node2</title>
<path fill="none" stroke="midnightblue" d="M153.626,-56.4435C130.215,-47.4776 93.2327,-33.314 66.7786,-23.1827"/>
<polygon fill="midnightblue" stroke="midnightblue" points="67.796,-19.8245 57.2056,-19.5164 65.2924,-26.3615 67.796,-19.8245"/>
</g>
<!-- Node6 -->
<g id="node7" class="node"><title>Node6</title>
<polygon fill="white" stroke="#bfbfbf" points="100.968,-0.5 100.968,-19.5 198.968,-19.5 198.968,-0.5 100.968,-0.5"/>
<text text-anchor="middle" x="149.968" y="-7.5" font-family="Helvetica,sans-Serif" font-size="10.00">SFML/System.hpp</text>
</g>
<!-- Node5&#45;&gt;Node6 -->
<g id="edge7" class="edge"><title>Node5&#45;&gt;Node6</title>
<path fill="none" stroke="midnightblue" d="M171.675,-56.083C168.116,-48.6913 162.946,-37.9533 158.544,-28.8111"/>
<polygon fill="midnightblue" stroke="midnightblue" points="161.673,-27.2427 154.182,-19.7511 155.366,-30.2795 161.673,-27.2427"/>
</g>
<!-- Node7 -->
<g id="node8" class="node"><title>Node7</title>
<polygon fill="white" stroke="#bfbfbf" points="216.968,-0.5 216.968,-19.5 320.968,-19.5 320.968,-0.5 216.968,-0.5"/>
<text text-anchor="middle" x="268.968" y="-7.5" font-family="Helvetica,sans-Serif" font-size="10.00">SFML/Graphics.hpp</text>
</g>
<!-- Node5&#45;&gt;Node7 -->
<g id="edge8" class="edge"><title>Node5&#45;&gt;Node7</title>
<path fill="none" stroke="midnightblue" d="M190.91,-56.324C205.553,-47.8215 228.102,-34.7288 245.206,-24.7975"/>
<polygon fill="midnightblue" stroke="midnightblue" points="247.173,-27.7027 254.063,-19.6545 243.658,-21.6491 247.173,-27.7027"/>
</g>
</g>
</svg>
