<?xml version="1.0" encoding="UTF-8" standalone="no"?>
<!DOCTYPE svg PUBLIC "-//W3C//DTD SVG 1.1//EN"
 "http://www.w3.org/Graphics/SVG/1.1/DTD/svg11.dtd">
<!-- Generated by graphviz version 2.38.0 (20140413.2041)
 -->
<!-- Title: src/Projectiles/Projectile.h Pages: 1 -->
<!--zoomable 431 -->
<svg id="main" version="1.1" xmlns="http://www.w3.org/2000/svg" xmlns:xlink="http://www.w3.org/1999/xlink" xml:space="preserve" onload="init(evt)">
<style type="text/css"><![CDATA[
.edge:hover path { stroke: red; }
.edge:hover polygon { stroke: red; fill: red; }
]]></style>
<script type="text/javascript"><![CDATA[
var edges = document.getElementsByTagName('g');
if (edges && edges.length) {
  for (var i=0;i<edges.length;i++) {
    if (edges[i].id.substr(0,4)=='edge') {
      edges[i].setAttribute('class','edge');
    }
  }
}
]]></script>
        <defs>
                <circle id="rim" cx="0" cy="0" r="7"/>
                <circle id="rim2" cx="0" cy="0" r="3.5"/>
                <g id="zoomPlus">
                        <use xlink:href="#rim" fill="#404040">
                                <set attributeName="fill" to="#808080" begin="zoomplus.mouseover" end="zoomplus.mouseout"/>
                        </use>
                        <path d="M-4,0h8M0,-4v8" fill="none" stroke="white" stroke-width="1.5" pointer-events="none"/>
                </g>
                <g id="zoomMin">
                        <use xlink:href="#rim" fill="#404040">
                                <set attributeName="fill" to="#808080" begin="zoomminus.mouseover" end="zoomminus.mouseout"/>
                        </use>
                        <path d="M-4,0h8" fill="none" stroke="white" stroke-width="1.5" pointer-events="none"/>
                </g>
                <g id="dirArrow">
                        <path fill="none" stroke="white" stroke-width="1.5" d="M0,-3.0v7 M-2.5,-0.5L0,-3.0L2.5,-0.5"/>
                </g>
               <g id="resetDef">
                       <use xlink:href="#rim2" fill="#404040">
                               <set attributeName="fill" to="#808080" begin="reset.mouseover" end="reset.mouseout"/>
                       </use>
               </g>
        </defs>

<script type="text/javascript">
var viewWidth = 2479;
var viewHeight = 431;
var sectionId = 'dynsection-1';
</script>
<script xlink:href="svgpan.js"/>
<svg id="graph" class="graph">
<g id="viewport">
<title>src/Projectiles/Projectile.h</title>
<polygon fill="white" stroke="none" points="-4,4 -4,-427 2474.5,-427 2474.5,4 -4,4"/>
<!-- Node9 -->
<g id="node1" class="node"><title>Node9</title>
<polygon fill="#bfbfbf" stroke="black" points="1166.5,-403.5 1166.5,-422.5 1297.5,-422.5 1297.5,-403.5 1166.5,-403.5"/>
<text text-anchor="middle" x="1232" y="-410.5" font-family="Helvetica,sans-Serif" font-size="10.00">src/Projectiles/Projectile.h</text>
</g>
<!-- Node10 -->
<g id="node2" class="node"><title>Node10</title>
<g id="a_node2"><a xlink:href="_capacite_8h.html" target="_top" xlink:title="src/Capacites/Capacite.h">
<polygon fill="white" stroke="black" points="1076,-347.5 1076,-366.5 1204,-366.5 1204,-347.5 1076,-347.5"/>
<text text-anchor="middle" x="1140" y="-354.5" font-family="Helvetica,sans-Serif" font-size="10.00">src/Capacites/Capacite.h</text>
</a>
</g>
</g>
<!-- Node9&#45;&gt;Node10 -->
<g id="edge1" class="edge"><title>Node9&#45;&gt;Node10</title>
<path fill="none" stroke="midnightblue" d="M1208.45,-398.177C1191.52,-388.241 1169.22,-375.149 1154.74,-366.655"/>
<polygon fill="midnightblue" stroke="midnightblue" points="1206.82,-401.28 1217.22,-403.324 1210.37,-395.243 1206.82,-401.28"/>
</g>
<!-- Node11 -->
<g id="node3" class="node"><title>Node11</title>
<g id="a_node3"><a xlink:href="_cap_test_8h.html" target="_top" xlink:title="src/Capacites/CapTest.h">
<polygon fill="white" stroke="black" points="1560,-291.5 1560,-310.5 1686,-310.5 1686,-291.5 1560,-291.5"/>
<text text-anchor="middle" x="1623" y="-298.5" font-family="Helvetica,sans-Serif" font-size="10.00">src/Capacites/CapTest.h</text>
</a>
</g>
</g>
<!-- Node9&#45;&gt;Node11 -->
<g id="edge50" class="edge"><title>Node9&#45;&gt;Node11</title>
<path fill="none" stroke="midnightblue" d="M1272.36,-400.646C1350.94,-378.539 1522.88,-330.167 1592.66,-310.535"/>
<polygon fill="midnightblue" stroke="midnightblue" points="1271.03,-397.383 1262.36,-403.46 1272.93,-404.121 1271.03,-397.383"/>
</g>
<!-- Node20 -->
<g id="node12" class="node"><title>Node20</title>
<g id="a_node12"><a xlink:href="_cap_piou_8h.html" target="_top" xlink:title="src/Capacites/CapPiou.h">
<polygon fill="white" stroke="black" points="1416,-291.5 1416,-310.5 1542,-310.5 1542,-291.5 1416,-291.5"/>
<text text-anchor="middle" x="1479" y="-298.5" font-family="Helvetica,sans-Serif" font-size="10.00">src/Capacites/CapPiou.h</text>
</a>
</g>
</g>
<!-- Node9&#45;&gt;Node20 -->
<g id="edge58" class="edge"><title>Node9&#45;&gt;Node20</title>
<path fill="none" stroke="midnightblue" d="M1260.82,-399.163C1311.79,-376.466 1416.51,-329.831 1459.71,-310.591"/>
<polygon fill="midnightblue" stroke="midnightblue" points="1259.09,-396.103 1251.38,-403.368 1261.94,-402.497 1259.09,-396.103"/>
</g>
<!-- Node28 -->
<g id="node20" class="node"><title>Node28</title>
<g id="a_node20"><a xlink:href="_capacite_8cpp.html" target="_top" xlink:title="src/Capacites/Capacite.cpp">
<polygon fill="white" stroke="black" points="0,-235.5 0,-254.5 138,-254.5 138,-235.5 0,-235.5"/>
<text text-anchor="middle" x="69" y="-242.5" font-family="Helvetica,sans-Serif" font-size="10.00">src/Capacites/Capacite.cpp</text>
</a>
</g>
</g>
<!-- Node9&#45;&gt;Node28 -->
<g id="edge68" class="edge"><title>Node9&#45;&gt;Node28</title>
<path fill="none" stroke="midnightblue" d="M1156.13,-404.66C1074.65,-396.522 941.461,-382.486 827,-367 557.927,-330.596 237.005,-275.492 117.213,-254.515"/>
<polygon fill="midnightblue" stroke="midnightblue" points="1156,-408.164 1166.29,-405.671 1156.69,-401.198 1156,-408.164"/>
</g>
<!-- Node29 -->
<g id="node21" class="node"><title>Node29</title>
<g id="a_node21"><a xlink:href="_vaisseau_8h.html" target="_top" xlink:title="src/Vaisseau/Vaisseau.h">
<polygon fill="white" stroke="black" points="696.5,-291.5 696.5,-310.5 821.5,-310.5 821.5,-291.5 696.5,-291.5"/>
<text text-anchor="middle" x="759" y="-298.5" font-family="Helvetica,sans-Serif" font-size="10.00">src/Vaisseau/Vaisseau.h</text>
</a>
</g>
</g>
<!-- Node9&#45;&gt;Node29 -->
<g id="edge67" class="edge"><title>Node9&#45;&gt;Node29</title>
<path fill="none" stroke="midnightblue" d="M1156.18,-410.946C1082.4,-407.968 967.997,-398.123 874,-367 833.288,-353.52 790.691,-325.05 770.687,-310.683"/>
<polygon fill="midnightblue" stroke="midnightblue" points="1156.19,-414.449 1166.31,-411.322 1156.45,-407.454 1156.19,-414.449"/>
</g>
<!-- Node30 -->
<g id="node22" class="node"><title>Node30</title>
<g id="a_node22"><a xlink:href="_partie_8h.html" target="_top" xlink:title="src/Partie.h">
<polygon fill="white" stroke="black" points="1184.5,-235.5 1184.5,-254.5 1251.5,-254.5 1251.5,-235.5 1184.5,-235.5"/>
<text text-anchor="middle" x="1218" y="-242.5" font-family="Helvetica,sans-Serif" font-size="10.00">src/Partie.h</text>
</a>
</g>
</g>
<!-- Node9&#45;&gt;Node30 -->
<g id="edge69" class="edge"><title>Node9&#45;&gt;Node30</title>
<path fill="none" stroke="midnightblue" d="M1230.39,-392.93C1227.35,-356.92 1220.89,-280.231 1218.72,-254.568"/>
<polygon fill="midnightblue" stroke="midnightblue" points="1226.92,-393.405 1231.25,-403.075 1233.89,-392.816 1226.92,-393.405"/>
</g>
<!-- Node38 -->
<g id="node30" class="node"><title>Node38</title>
<g id="a_node30"><a xlink:href="_projectile_8cpp.html" target="_top" xlink:title="src/Projectiles/Projectile.cpp">
<polygon fill="white" stroke="black" points="609.5,-235.5 609.5,-254.5 750.5,-254.5 750.5,-235.5 609.5,-235.5"/>
<text text-anchor="middle" x="680" y="-242.5" font-family="Helvetica,sans-Serif" font-size="10.00">src/Projectiles/Projectile.cpp</text>
</a>
</g>
</g>
<!-- Node9&#45;&gt;Node38 -->
<g id="edge70" class="edge"><title>Node9&#45;&gt;Node38</title>
<path fill="none" stroke="midnightblue" d="M1170.62,-401.625C1128.37,-393.812 1071.23,-381.904 1022,-367 934.163,-340.405 916.698,-321.102 830,-291 789.419,-276.91 741.792,-263.071 711.275,-254.54"/>
<polygon fill="midnightblue" stroke="midnightblue" points="1170.01,-405.073 1180.48,-403.425 1171.27,-398.186 1170.01,-405.073"/>
</g>
<!-- Node39 -->
<g id="node31" class="node"><title>Node39</title>
<g id="a_node31"><a xlink:href="_vaisseau_8cpp.html" target="_top" xlink:title="src/Vaisseau/Vaisseau.cpp">
<polygon fill="white" stroke="black" points="769,-235.5 769,-254.5 905,-254.5 905,-235.5 769,-235.5"/>
<text text-anchor="middle" x="837" y="-242.5" font-family="Helvetica,sans-Serif" font-size="10.00">src/Vaisseau/Vaisseau.cpp</text>
</a>
</g>
</g>
<!-- Node9&#45;&gt;Node39 -->
<g id="edge71" class="edge"><title>Node9&#45;&gt;Node39</title>
<path fill="none" stroke="midnightblue" d="M1181.28,-401.196C1148.16,-393.408 1104.3,-381.695 1067,-367 981.153,-333.181 885.691,-276.18 850.757,-254.614"/>
<polygon fill="midnightblue" stroke="midnightblue" points="1180.66,-404.646 1191.19,-403.486 1182.24,-397.825 1180.66,-404.646"/>
</g>
<!-- Node40 -->
<g id="node32" class="node"><title>Node40</title>
<g id="a_node32"><a xlink:href="_proj_test_8h.html" target="_top" xlink:title="src/Projectiles/ProjTest.h">
<polygon fill="white" stroke="black" points="1705.5,-347.5 1705.5,-366.5 1832.5,-366.5 1832.5,-347.5 1705.5,-347.5"/>
<text text-anchor="middle" x="1769" y="-354.5" font-family="Helvetica,sans-Serif" font-size="10.00">src/Projectiles/ProjTest.h</text>
</a>
</g>
</g>
<!-- Node9&#45;&gt;Node40 -->
<g id="edge51" class="edge"><title>Node9&#45;&gt;Node40</title>
<path fill="none" stroke="midnightblue" d="M1307.6,-404.398C1414.01,-393.698 1606.02,-374.389 1705.47,-364.389"/>
<polygon fill="midnightblue" stroke="midnightblue" points="1307.18,-400.922 1297.58,-405.406 1307.88,-407.887 1307.18,-400.922"/>
</g>
<!-- Node43 -->
<g id="node35" class="node"><title>Node43</title>
<g id="a_node35"><a xlink:href="_proj_piou_8h.html" target="_top" xlink:title="src/Projectiles/ProjPiou.h">
<polygon fill="white" stroke="black" points="2012.5,-347.5 2012.5,-366.5 2139.5,-366.5 2139.5,-347.5 2012.5,-347.5"/>
<text text-anchor="middle" x="2076" y="-354.5" font-family="Helvetica,sans-Serif" font-size="10.00">src/Projectiles/ProjPiou.h</text>
</a>
</g>
</g>
<!-- Node9&#45;&gt;Node43 -->
<g id="edge59" class="edge"><title>Node9&#45;&gt;Node43</title>
<path fill="none" stroke="midnightblue" d="M1307.73,-409.102C1445.76,-403.478 1747.43,-389.613 2001,-367 2004.66,-366.674 2008.41,-366.311 2012.2,-365.924"/>
<polygon fill="midnightblue" stroke="midnightblue" points="1307.53,-405.607 1297.68,-409.508 1307.81,-412.601 1307.53,-405.607"/>
</g>
<!-- Node45 -->
<g id="node37" class="node"><title>Node45</title>
<g id="a_node37"><a xlink:href="_proj_missile_8h.html" target="_top" xlink:title="src/Projectiles/ProjMissile.h">
<polygon fill="white" stroke="black" points="1854,-347.5 1854,-366.5 1992,-366.5 1992,-347.5 1854,-347.5"/>
<text text-anchor="middle" x="1923" y="-354.5" font-family="Helvetica,sans-Serif" font-size="10.00">src/Projectiles/ProjMissile.h</text>
</a>
</g>
</g>
<!-- Node9&#45;&gt;Node45 -->
<g id="edge63" class="edge"><title>Node9&#45;&gt;Node45</title>
<path fill="none" stroke="midnightblue" d="M1307.98,-407.257C1423.3,-399.861 1649.36,-384.591 1841,-367 1845.14,-366.62 1849.39,-366.211 1853.67,-365.784"/>
<polygon fill="midnightblue" stroke="midnightblue" points="1307.61,-403.773 1297.85,-407.905 1308.05,-410.759 1307.61,-403.773"/>
</g>
<!-- Node10&#45;&gt;Node11 -->
<g id="edge2" class="edge"><title>Node10&#45;&gt;Node11</title>
<path fill="none" stroke="midnightblue" d="M1214.12,-348.23C1296.45,-339.519 1433.29,-324.8 1551,-311 1553.88,-310.663 1556.82,-310.313 1559.79,-309.957"/>
<polygon fill="midnightblue" stroke="midnightblue" points="1213.68,-344.756 1204.11,-349.288 1214.42,-351.717 1213.68,-344.756"/>
</g>
<!-- Node14 -->
<g id="node6" class="node"><title>Node14</title>
<g id="a_node6"><a xlink:href="_vaisseau_test_8h.html" target="_top" xlink:title="src/Vaisseau/VaisseauTest.h">
<polygon fill="white" stroke="black" points="1083.5,-174 1083.5,-193 1228.5,-193 1228.5,-174 1083.5,-174"/>
<text text-anchor="middle" x="1156" y="-181" font-family="Helvetica,sans-Serif" font-size="10.00">src/Vaisseau/VaisseauTest.h</text>
</a>
</g>
</g>
<!-- Node10&#45;&gt;Node14 -->
<g id="edge47" class="edge"><title>Node10&#45;&gt;Node14</title>
<path fill="none" stroke="midnightblue" d="M1141.79,-336.853C1145.25,-299.734 1152.75,-219.327 1155.21,-193.019"/>
<polygon fill="midnightblue" stroke="midnightblue" points="1138.26,-336.978 1140.82,-347.26 1145.23,-337.628 1138.26,-336.978"/>
</g>
<!-- Node10&#45;&gt;Node20 -->
<g id="edge13" class="edge"><title>Node10&#45;&gt;Node20</title>
<path fill="none" stroke="midnightblue" d="M1203.7,-345.854C1267.75,-335.651 1365.39,-320.098 1425.54,-310.516"/>
<polygon fill="midnightblue" stroke="midnightblue" points="1203.04,-342.414 1193.72,-347.444 1204.14,-349.327 1203.04,-342.414"/>
</g>
<!-- Node22 -->
<g id="node14" class="node"><title>Node22</title>
<g id="a_node14"><a xlink:href="_cap_dash_8h.html" target="_top" xlink:title="src/Capacites/CapDash.h">
<polygon fill="white" stroke="black" points="1704,-291.5 1704,-310.5 1834,-310.5 1834,-291.5 1704,-291.5"/>
<text text-anchor="middle" x="1769" y="-298.5" font-family="Helvetica,sans-Serif" font-size="10.00">src/Capacites/CapDash.h</text>
</a>
</g>
</g>
<!-- Node10&#45;&gt;Node22 -->
<g id="edge16" class="edge"><title>Node10&#45;&gt;Node22</title>
<path fill="none" stroke="midnightblue" d="M1214.18,-350.936C1320.69,-343.448 1523.1,-328.416 1695,-311 1697.83,-310.713 1700.73,-310.409 1703.65,-310.093"/>
<polygon fill="midnightblue" stroke="midnightblue" points="1213.9,-347.447 1204.17,-351.637 1214.39,-354.429 1213.9,-347.447"/>
</g>
<!-- Node24 -->
<g id="node16" class="node"><title>Node24</title>
<g id="a_node16"><a xlink:href="_cap_missile_8h.html" target="_top" xlink:title="src/Capacites/CapMissile.h">
<polygon fill="white" stroke="black" points="1260.5,-291.5 1260.5,-310.5 1397.5,-310.5 1397.5,-291.5 1260.5,-291.5"/>
<text text-anchor="middle" x="1329" y="-298.5" font-family="Helvetica,sans-Serif" font-size="10.00">src/Capacites/CapMissile.h</text>
</a>
</g>
</g>
<!-- Node10&#45;&gt;Node24 -->
<g id="edge20" class="edge"><title>Node10&#45;&gt;Node24</title>
<path fill="none" stroke="midnightblue" d="M1180.01,-344.568C1215.67,-334.381 1267.04,-319.703 1299.19,-310.516"/>
<polygon fill="midnightblue" stroke="midnightblue" points="1178.6,-341.331 1169.95,-347.444 1180.52,-348.062 1178.6,-341.331"/>
</g>
<!-- Node10&#45;&gt;Node28 -->
<g id="edge26" class="edge"><title>Node10&#45;&gt;Node28</title>
<path fill="none" stroke="midnightblue" d="M1065.77,-348.748C976.035,-339.952 820.434,-324.611 687,-311 449.157,-286.739 389.731,-280.331 152,-255 147.532,-254.524 142.929,-254.031 138.289,-253.533"/>
<polygon fill="midnightblue" stroke="midnightblue" points="1065.56,-352.243 1075.85,-349.735 1066.24,-345.276 1065.56,-352.243"/>
</g>
<!-- Node10&#45;&gt;Node29 -->
<g id="edge27" class="edge"><title>Node10&#45;&gt;Node29</title>
<path fill="none" stroke="midnightblue" d="M1069.3,-345.979C997.33,-335.779 886.968,-320.137 819.088,-310.516"/>
<polygon fill="midnightblue" stroke="midnightblue" points="1069.24,-349.506 1079.63,-347.444 1070.22,-342.575 1069.24,-349.506"/>
</g>
<!-- Node10&#45;&gt;Node30 -->
<g id="edge46" class="edge"><title>Node10&#45;&gt;Node30</title>
<path fill="none" stroke="midnightblue" d="M1152.08,-338.957C1168.99,-315.118 1199.06,-272.709 1211.91,-254.591"/>
<polygon fill="midnightblue" stroke="midnightblue" points="1149.05,-337.187 1146.12,-347.368 1154.76,-341.236 1149.05,-337.187"/>
</g>
<!-- Node10&#45;&gt;Node38 -->
<g id="edge48" class="edge"><title>Node10&#45;&gt;Node38</title>
<path fill="none" stroke="midnightblue" d="M1101.47,-344.627C1054.57,-330.981 972.853,-307.837 902,-291 841.932,-276.726 772.044,-263.035 726.973,-254.58"/>
<polygon fill="midnightblue" stroke="midnightblue" points="1100.64,-348.029 1111.22,-347.472 1102.6,-341.309 1100.64,-348.029"/>
</g>
<!-- Node10&#45;&gt;Node39 -->
<g id="edge49" class="edge"><title>Node10&#45;&gt;Node39</title>
<path fill="none" stroke="midnightblue" d="M1126.15,-339.657C1112.44,-324.6 1090.08,-302.851 1066,-291 1037.28,-276.865 956.782,-263.036 899.357,-254.52"/>
<polygon fill="midnightblue" stroke="midnightblue" points="1123.59,-342.044 1132.83,-347.228 1128.84,-337.414 1123.59,-342.044"/>
</g>
<!-- Node12 -->
<g id="node4" class="node"><title>Node12</title>
<g id="a_node4"><a xlink:href="___capacites_8h.html" target="_top" xlink:title="src/Capacites/_Capacites.h">
<polygon fill="white" stroke="black" points="1592,-235.5 1592,-254.5 1730,-254.5 1730,-235.5 1592,-235.5"/>
<text text-anchor="middle" x="1661" y="-242.5" font-family="Helvetica,sans-Serif" font-size="10.00">src/Capacites/_Capacites.h</text>
</a>
</g>
</g>
<!-- Node11&#45;&gt;Node12 -->
<g id="edge3" class="edge"><title>Node11&#45;&gt;Node12</title>
<path fill="none" stroke="midnightblue" d="M1635.06,-282.855C1641.64,-273.505 1649.51,-262.327 1654.84,-254.751"/>
<polygon fill="midnightblue" stroke="midnightblue" points="1632.17,-280.891 1629.27,-291.083 1637.89,-284.919 1632.17,-280.891"/>
</g>
<!-- Node19 -->
<g id="node11" class="node"><title>Node19</title>
<g id="a_node11"><a xlink:href="_cap_test_8cpp.html" target="_top" xlink:title="src/Capacites/CapTest.cpp">
<polygon fill="white" stroke="black" points="1748.5,-235.5 1748.5,-254.5 1885.5,-254.5 1885.5,-235.5 1748.5,-235.5"/>
<text text-anchor="middle" x="1817" y="-242.5" font-family="Helvetica,sans-Serif" font-size="10.00">src/Capacites/CapTest.cpp</text>
</a>
</g>
</g>
<!-- Node11&#45;&gt;Node19 -->
<g id="edge12" class="edge"><title>Node11&#45;&gt;Node19</title>
<path fill="none" stroke="midnightblue" d="M1663.6,-288.699C1700.22,-278.507 1753.26,-263.743 1786.4,-254.516"/>
<polygon fill="midnightblue" stroke="midnightblue" points="1662.44,-285.39 1653.74,-291.444 1664.31,-292.134 1662.44,-285.39"/>
</g>
<!-- Node13 -->
<g id="node5" class="node"><title>Node13</title>
<g id="a_node5"><a xlink:href="_partie_8cpp.html" target="_top" xlink:title="src/Partie.cpp">
<polygon fill="white" stroke="black" points="1220.5,-0.5 1220.5,-19.5 1297.5,-19.5 1297.5,-0.5 1220.5,-0.5"/>
<text text-anchor="middle" x="1259" y="-7.5" font-family="Helvetica,sans-Serif" font-size="10.00">src/Partie.cpp</text>
</a>
</g>
</g>
<!-- Node12&#45;&gt;Node13 -->
<g id="edge4" class="edge"><title>Node12&#45;&gt;Node13</title>
<path fill="none" stroke="midnightblue" d="M1637.56,-230.415C1563.31,-187.379 1334.62,-54.8279 1273.92,-19.6468"/>
<polygon fill="midnightblue" stroke="midnightblue" points="1635.81,-233.445 1646.22,-235.431 1639.32,-227.388 1635.81,-233.445"/>
</g>
<!-- Node12&#45;&gt;Node14 -->
<g id="edge5" class="edge"><title>Node12&#45;&gt;Node14</title>
<path fill="none" stroke="midnightblue" d="M1581.8,-234.669C1484.88,-223.249 1322.12,-204.073 1228.4,-193.031"/>
<polygon fill="midnightblue" stroke="midnightblue" points="1581.5,-238.157 1591.84,-235.852 1582.32,-231.205 1581.5,-238.157"/>
</g>
<!-- Node15 -->
<g id="node7" class="node"><title>Node15</title>
<g id="a_node7"><a xlink:href="__vaisseaux_8h.html" target="_top" xlink:title="src/Vaisseau/_vaisseaux.h">
<polygon fill="white" stroke="black" points="792,-112.5 792,-131.5 926,-131.5 926,-112.5 792,-112.5"/>
<text text-anchor="middle" x="859" y="-119.5" font-family="Helvetica,sans-Serif" font-size="10.00">src/Vaisseau/_vaisseaux.h</text>
</a>
</g>
</g>
<!-- Node14&#45;&gt;Node15 -->
<g id="edge6" class="edge"><title>Node14&#45;&gt;Node15</title>
<path fill="none" stroke="midnightblue" d="M1103.46,-171.974C1045.9,-160.443 954.698,-142.172 901.474,-131.509"/>
<polygon fill="midnightblue" stroke="midnightblue" points="1102.95,-175.442 1113.45,-173.975 1104.33,-168.579 1102.95,-175.442"/>
</g>
<!-- Node18 -->
<g id="node10" class="node"><title>Node18</title>
<g id="a_node10"><a xlink:href="_vaisseau_test_8cpp.html" target="_top" xlink:title="src/Vaisseau/VaisseauTest.cpp">
<polygon fill="white" stroke="black" points="1075.5,-112.5 1075.5,-131.5 1230.5,-131.5 1230.5,-112.5 1075.5,-112.5"/>
<text text-anchor="middle" x="1153" y="-119.5" font-family="Helvetica,sans-Serif" font-size="10.00">src/Vaisseau/VaisseauTest.cpp</text>
</a>
</g>
</g>
<!-- Node14&#45;&gt;Node18 -->
<g id="edge11" class="edge"><title>Node14&#45;&gt;Node18</title>
<path fill="none" stroke="midnightblue" d="M1155.06,-163.817C1154.51,-152.996 1153.85,-139.898 1153.43,-131.509"/>
<polygon fill="midnightblue" stroke="midnightblue" points="1151.57,-164.164 1155.57,-173.975 1158.56,-163.812 1151.57,-164.164"/>
</g>
<!-- Node15&#45;&gt;Node13 -->
<g id="edge7" class="edge"><title>Node15&#45;&gt;Node13</title>
<path fill="none" stroke="midnightblue" d="M899.796,-109.781C979.958,-87.7365 1156.43,-39.2071 1227.97,-19.5345"/>
<polygon fill="midnightblue" stroke="midnightblue" points="898.768,-106.434 890.054,-112.46 900.625,-113.183 898.768,-106.434"/>
</g>
<!-- Node16 -->
<g id="node8" class="node"><title>Node16</title>
<g id="a_node8"><a xlink:href="vague_8h.html" target="_top" xlink:title="src/vague.h">
<polygon fill="white" stroke="black" points="825,-56.5 825,-75.5 893,-75.5 893,-56.5 825,-56.5"/>
<text text-anchor="middle" x="859" y="-63.5" font-family="Helvetica,sans-Serif" font-size="10.00">src/vague.h</text>
</a>
</g>
</g>
<!-- Node15&#45;&gt;Node16 -->
<g id="edge8" class="edge"><title>Node15&#45;&gt;Node16</title>
<path fill="none" stroke="midnightblue" d="M859,-101.805C859,-92.9102 859,-82.7798 859,-75.7511"/>
<polygon fill="midnightblue" stroke="midnightblue" points="855.5,-102.083 859,-112.083 862.5,-102.083 855.5,-102.083"/>
</g>
<!-- Node16&#45;&gt;Node13 -->
<g id="edge9" class="edge"><title>Node16&#45;&gt;Node13</title>
<path fill="none" stroke="midnightblue" d="M903.195,-59.0337C982.035,-48.3903 1145.65,-26.3018 1220.33,-16.2207"/>
<polygon fill="midnightblue" stroke="midnightblue" points="902.546,-55.5895 893.104,-60.396 903.482,-62.5266 902.546,-55.5895"/>
</g>
<!-- Node17 -->
<g id="node9" class="node"><title>Node17</title>
<g id="a_node9"><a xlink:href="vague_8cpp.html" target="_top" xlink:title="src/vague.cpp">
<polygon fill="white" stroke="black" points="820,-0.5 820,-19.5 898,-19.5 898,-0.5 820,-0.5"/>
<text text-anchor="middle" x="859" y="-7.5" font-family="Helvetica,sans-Serif" font-size="10.00">src/vague.cpp</text>
</a>
</g>
</g>
<!-- Node16&#45;&gt;Node17 -->
<g id="edge10" class="edge"><title>Node16&#45;&gt;Node17</title>
<path fill="none" stroke="midnightblue" d="M859,-45.8045C859,-36.9102 859,-26.7798 859,-19.7511"/>
<polygon fill="midnightblue" stroke="midnightblue" points="855.5,-46.083 859,-56.083 862.5,-46.083 855.5,-46.083"/>
</g>
<!-- Node20&#45;&gt;Node12 -->
<g id="edge14" class="edge"><title>Node20&#45;&gt;Node12</title>
<path fill="none" stroke="midnightblue" d="M1517.53,-288.568C1551.86,-278.381 1601.33,-263.703 1632.3,-254.516"/>
<polygon fill="midnightblue" stroke="midnightblue" points="1516.43,-285.244 1507.84,-291.444 1518.42,-291.954 1516.43,-285.244"/>
</g>
<!-- Node21 -->
<g id="node13" class="node"><title>Node21</title>
<g id="a_node13"><a xlink:href="_cap_piou_8cpp.html" target="_top" xlink:title="src/Capacites/CapPiou.cpp">
<polygon fill="white" stroke="black" points="1436.5,-235.5 1436.5,-254.5 1573.5,-254.5 1573.5,-235.5 1436.5,-235.5"/>
<text text-anchor="middle" x="1505" y="-242.5" font-family="Helvetica,sans-Serif" font-size="10.00">src/Capacites/CapPiou.cpp</text>
</a>
</g>
</g>
<!-- Node20&#45;&gt;Node21 -->
<g id="edge15" class="edge"><title>Node20&#45;&gt;Node21</title>
<path fill="none" stroke="midnightblue" d="M1487.67,-281.983C1492.09,-272.817 1497.25,-262.092 1500.79,-254.751"/>
<polygon fill="midnightblue" stroke="midnightblue" points="1484.48,-280.555 1483.29,-291.083 1490.79,-283.591 1484.48,-280.555"/>
</g>
<!-- Node22&#45;&gt;Node12 -->
<g id="edge17" class="edge"><title>Node22&#45;&gt;Node12</title>
<path fill="none" stroke="midnightblue" d="M1742.45,-286.726C1722.45,-276.727 1695.61,-263.307 1678.31,-254.655"/>
<polygon fill="midnightblue" stroke="midnightblue" points="1741.14,-289.982 1751.65,-291.324 1744.27,-283.721 1741.14,-289.982"/>
</g>
<!-- Node22&#45;&gt;Node19 -->
<g id="edge19" class="edge"><title>Node22&#45;&gt;Node19</title>
<path fill="none" stroke="midnightblue" d="M1783.73,-283.431C1792.14,-273.967 1802.35,-262.483 1809.22,-254.751"/>
<polygon fill="midnightblue" stroke="midnightblue" points="1780.95,-281.284 1776.93,-291.083 1786.19,-285.934 1780.95,-281.284"/>
</g>
<!-- Node23 -->
<g id="node15" class="node"><title>Node23</title>
<g id="a_node15"><a xlink:href="_cap_dash_8cpp.html" target="_top" xlink:title="src/Capacites/CapDash.cpp">
<polygon fill="white" stroke="black" points="1904,-235.5 1904,-254.5 2044,-254.5 2044,-235.5 1904,-235.5"/>
<text text-anchor="middle" x="1974" y="-242.5" font-family="Helvetica,sans-Serif" font-size="10.00">src/Capacites/CapDash.cpp</text>
</a>
</g>
</g>
<!-- Node22&#45;&gt;Node23 -->
<g id="edge18" class="edge"><title>Node22&#45;&gt;Node23</title>
<path fill="none" stroke="midnightblue" d="M1811.41,-288.829C1850.11,-278.633 1906.49,-263.782 1941.67,-254.516"/>
<polygon fill="midnightblue" stroke="midnightblue" points="1810.26,-285.512 1801.48,-291.444 1812.04,-292.281 1810.26,-285.512"/>
</g>
<!-- Node24&#45;&gt;Node12 -->
<g id="edge21" class="edge"><title>Node24&#45;&gt;Node12</title>
<path fill="none" stroke="midnightblue" d="M1391.77,-289.791C1454.5,-279.587 1549.85,-264.078 1608.64,-254.516"/>
<polygon fill="midnightblue" stroke="midnightblue" points="1390.91,-286.383 1381.61,-291.444 1392.04,-293.293 1390.91,-286.383"/>
</g>
<!-- Node25 -->
<g id="node17" class="node"><title>Node25</title>
<g id="a_node17"><a xlink:href="_cap_missile_8cpp.html" target="_top" xlink:title="src/Capacites/CapMissile.cpp">
<polygon fill="white" stroke="black" points="1270,-235.5 1270,-254.5 1418,-254.5 1418,-235.5 1270,-235.5"/>
<text text-anchor="middle" x="1344" y="-242.5" font-family="Helvetica,sans-Serif" font-size="10.00">src/Capacites/CapMissile.cpp</text>
</a>
</g>
</g>
<!-- Node24&#45;&gt;Node25 -->
<g id="edge22" class="edge"><title>Node24&#45;&gt;Node25</title>
<path fill="none" stroke="midnightblue" d="M1334.17,-281.396C1336.68,-272.362 1339.57,-261.936 1341.57,-254.751"/>
<polygon fill="midnightblue" stroke="midnightblue" points="1330.78,-280.511 1331.48,-291.083 1337.53,-282.385 1330.78,-280.511"/>
</g>
<!-- Node26 -->
<g id="node18" class="node"><title>Node26</title>
<g id="a_node18"><a xlink:href="_vaisseau_attaquant_8h.html" target="_top" xlink:title="src/Vaisseau/VaisseauAttaquant.h">
<polygon fill="white" stroke="black" points="923.5,-235.5 923.5,-254.5 1090.5,-254.5 1090.5,-235.5 923.5,-235.5"/>
<text text-anchor="middle" x="1007" y="-242.5" font-family="Helvetica,sans-Serif" font-size="10.00">src/Vaisseau/VaisseauAttaquant.h</text>
</a>
</g>
</g>
<!-- Node24&#45;&gt;Node26 -->
<g id="edge23" class="edge"><title>Node24&#45;&gt;Node26</title>
<path fill="none" stroke="midnightblue" d="M1267.75,-289.727C1206.9,-279.523 1114.68,-264.058 1057.78,-254.516"/>
<polygon fill="midnightblue" stroke="midnightblue" points="1267.54,-293.241 1277.98,-291.444 1268.69,-286.338 1267.54,-293.241"/>
</g>
<!-- Node26&#45;&gt;Node15 -->
<g id="edge24" class="edge"><title>Node26&#45;&gt;Node15</title>
<path fill="none" stroke="midnightblue" d="M936.111,-232.726C914.858,-226.116 893.188,-215.632 878,-199 860.574,-179.918 858.549,-147.297 858.663,-131.745"/>
<polygon fill="midnightblue" stroke="midnightblue" points="935.245,-236.119 945.821,-235.499 937.166,-229.388 935.245,-236.119"/>
</g>
<!-- Node27 -->
<g id="node19" class="node"><title>Node27</title>
<g id="a_node19"><a xlink:href="_vaisseau_attaquant_8cpp.html" target="_top" xlink:title="src/Vaisseau/VaisseauAttaquant.cpp">
<polygon fill="white" stroke="black" points="887,-174 887,-193 1065,-193 1065,-174 887,-174"/>
<text text-anchor="middle" x="976" y="-181" font-family="Helvetica,sans-Serif" font-size="10.00">src/Vaisseau/VaisseauAttaquant.cpp</text>
</a>
</g>
</g>
<!-- Node26&#45;&gt;Node27 -->
<g id="edge25" class="edge"><title>Node26&#45;&gt;Node27</title>
<path fill="none" stroke="midnightblue" d="M997.796,-226.335C992.062,-215.328 984.942,-201.663 980.433,-193.009"/>
<polygon fill="midnightblue" stroke="midnightblue" points="994.834,-228.224 1002.56,-235.475 1001.04,-224.989 994.834,-228.224"/>
</g>
<!-- Node29&#45;&gt;Node14 -->
<g id="edge35" class="edge"><title>Node29&#45;&gt;Node14</title>
<path fill="none" stroke="midnightblue" d="M831.803,-296.653C917.739,-291.625 1054.59,-279.914 1099,-255 1125.08,-240.369 1143.85,-208.621 1151.79,-193.224"/>
<polygon fill="midnightblue" stroke="midnightblue" points="831.371,-293.172 821.585,-297.234 831.768,-300.161 831.371,-293.172"/>
</g>
<!-- Node29&#45;&gt;Node16 -->
<g id="edge43" class="edge"><title>Node29&#45;&gt;Node16</title>
<path fill="none" stroke="midnightblue" d="M686.118,-294.956C539.621,-284.689 222.538,-261.76 213,-255 160.163,-217.552 140.758,-159.295 185,-112 229.014,-64.9498 694.1,-65.5171 824.932,-66.6211"/>
<polygon fill="midnightblue" stroke="midnightblue" points="686.144,-298.467 696.364,-295.673 686.633,-291.484 686.144,-298.467"/>
</g>
<!-- Node29&#45;&gt;Node26 -->
<g id="edge36" class="edge"><title>Node29&#45;&gt;Node26</title>
<path fill="none" stroke="midnightblue" d="M808.226,-289.281C855.091,-279.077 924.699,-263.92 967.888,-254.516"/>
<polygon fill="midnightblue" stroke="midnightblue" points="807.323,-285.896 798.296,-291.444 808.812,-292.736 807.323,-285.896"/>
</g>
<!-- Node29&#45;&gt;Node28 -->
<g id="edge28" class="edge"><title>Node29&#45;&gt;Node28</title>
<path fill="none" stroke="midnightblue" d="M686.465,-295.423C572.555,-288.055 344.81,-272.595 152,-255 147.525,-254.592 142.917,-254.15 138.274,-253.69"/>
<polygon fill="midnightblue" stroke="midnightblue" points="686.26,-298.917 696.464,-296.068 686.71,-291.932 686.26,-298.917"/>
</g>
<!-- Node29&#45;&gt;Node30 -->
<g id="edge29" class="edge"><title>Node29&#45;&gt;Node30</title>
<path fill="none" stroke="midnightblue" d="M831.966,-291.416C932.771,-279.556 1110.55,-258.641 1184.38,-249.955"/>
<polygon fill="midnightblue" stroke="midnightblue" points="831.382,-287.96 821.86,-292.605 832.2,-294.912 831.382,-287.96"/>
</g>
<!-- Node32 -->
<g id="node24" class="node"><title>Node32</title>
<g id="a_node24"><a xlink:href="_vaisseau_eclaireur_8h.html" target="_top" xlink:title="src/Vaisseau/VaisseauEclaireur.h">
<polygon fill="white" stroke="black" points="427,-235.5 427,-254.5 591,-254.5 591,-235.5 427,-235.5"/>
<text text-anchor="middle" x="509" y="-242.5" font-family="Helvetica,sans-Serif" font-size="10.00">src/Vaisseau/VaisseauEclaireur.h</text>
</a>
</g>
</g>
<!-- Node29&#45;&gt;Node32 -->
<g id="edge32" class="edge"><title>Node29&#45;&gt;Node32</title>
<path fill="none" stroke="midnightblue" d="M709.377,-289.281C662.134,-279.077 591.964,-263.92 548.428,-254.516"/>
<polygon fill="midnightblue" stroke="midnightblue" points="708.873,-292.753 719.387,-291.444 710.351,-285.911 708.873,-292.753"/>
</g>
<!-- Node34 -->
<g id="node26" class="node"><title>Node34</title>
<g id="a_node26"><a xlink:href="_vaisseau_defenseur_8h.html" target="_top" xlink:title="src/Vaisseau/VaisseauDefenseur.h">
<polygon fill="white" stroke="black" points="197,-174 197,-193 367,-193 367,-174 197,-174"/>
<text text-anchor="middle" x="282" y="-181" font-family="Helvetica,sans-Serif" font-size="10.00">src/Vaisseau/VaisseauDefenseur.h</text>
</a>
</g>
</g>
<!-- Node29&#45;&gt;Node34 -->
<g id="edge37" class="edge"><title>Node29&#45;&gt;Node34</title>
<path fill="none" stroke="midnightblue" d="M686.453,-296.501C543.43,-289.251 237.5,-271.854 222,-255 202.09,-233.352 241.305,-206.628 265.289,-193.148"/>
<polygon fill="midnightblue" stroke="midnightblue" points="686.3,-299.998 696.463,-297.005 686.652,-293.007 686.3,-299.998"/>
</g>
<!-- Node36 -->
<g id="node28" class="node"><title>Node36</title>
<g id="a_node28"><a xlink:href="_vaisseau_defenseur_b_8h.html" target="_top" xlink:title="src/Vaisseau/VaisseauDefenseurB.h">
<polygon fill="white" stroke="black" points="231.5,-235.5 231.5,-254.5 408.5,-254.5 408.5,-235.5 231.5,-235.5"/>
<text text-anchor="middle" x="320" y="-242.5" font-family="Helvetica,sans-Serif" font-size="10.00">src/Vaisseau/VaisseauDefenseurB.h</text>
</a>
</g>
</g>
<!-- Node29&#45;&gt;Node36 -->
<g id="edge40" class="edge"><title>Node29&#45;&gt;Node36</title>
<path fill="none" stroke="midnightblue" d="M686.054,-291.027C603.569,-280.881 470.249,-264.482 389.3,-254.524"/>
<polygon fill="midnightblue" stroke="midnightblue" points="685.749,-294.516 696.102,-292.263 686.604,-287.568 685.749,-294.516"/>
</g>
<!-- Node29&#45;&gt;Node38 -->
<g id="edge44" class="edge"><title>Node29&#45;&gt;Node38</title>
<path fill="none" stroke="midnightblue" d="M737.966,-285.622C723.534,-275.757 704.859,-262.992 692.661,-254.655"/>
<polygon fill="midnightblue" stroke="midnightblue" points="736.077,-288.57 746.307,-291.324 740.027,-282.791 736.077,-288.57"/>
</g>
<!-- Node29&#45;&gt;Node39 -->
<g id="edge45" class="edge"><title>Node29&#45;&gt;Node39</title>
<path fill="none" stroke="midnightblue" d="M779.768,-285.622C794.017,-275.757 812.456,-262.992 824.499,-254.655"/>
<polygon fill="midnightblue" stroke="midnightblue" points="777.762,-282.754 771.532,-291.324 781.746,-288.51 777.762,-282.754"/>
</g>
<!-- Node30&#45;&gt;Node13 -->
<g id="edge31" class="edge"><title>Node30&#45;&gt;Node13</title>
<path fill="none" stroke="midnightblue" d="M1226.92,-226.129C1230.6,-218.032 1234.57,-208.225 1237,-199 1254.78,-131.639 1258.2,-46.916 1258.85,-19.7823"/>
<polygon fill="midnightblue" stroke="midnightblue" points="1223.7,-224.764 1222.55,-235.296 1230.01,-227.776 1223.7,-224.764"/>
</g>
<!-- Node31 -->
<g id="node23" class="node"><title>Node31</title>
<g id="a_node23"><a xlink:href="main_8cpp.html" target="_top" xlink:title="src/main.cpp">
<polygon fill="white" stroke="black" points="1355.5,-174 1355.5,-193 1428.5,-193 1428.5,-174 1355.5,-174"/>
<text text-anchor="middle" x="1392" y="-181" font-family="Helvetica,sans-Serif" font-size="10.00">src/main.cpp</text>
</a>
</g>
</g>
<!-- Node30&#45;&gt;Node31 -->
<g id="edge30" class="edge"><title>Node30&#45;&gt;Node31</title>
<path fill="none" stroke="midnightblue" d="M1252.41,-232.232C1286.24,-220.666 1337.03,-203.297 1367.12,-193.009"/>
<polygon fill="midnightblue" stroke="midnightblue" points="1251.26,-228.928 1242.93,-235.475 1253.52,-235.551 1251.26,-228.928"/>
</g>
<!-- Node32&#45;&gt;Node15 -->
<g id="edge33" class="edge"><title>Node32&#45;&gt;Node15</title>
<path fill="none" stroke="midnightblue" d="M579.832,-233.96C638.968,-224.974 718.23,-211.35 748,-199 789.419,-181.817 831.147,-147.659 849.422,-131.653"/>
<polygon fill="midnightblue" stroke="midnightblue" points="579.152,-230.523 569.784,-235.472 580.194,-237.445 579.152,-230.523"/>
</g>
<!-- Node33 -->
<g id="node25" class="node"><title>Node33</title>
<g id="a_node25"><a xlink:href="_vaisseau_eclaireur_8cpp.html" target="_top" xlink:title="src/Vaisseau/VaisseauEclaireur.cpp">
<polygon fill="white" stroke="black" points="565,-174 565,-193 739,-193 739,-174 565,-174"/>
<text text-anchor="middle" x="652" y="-181" font-family="Helvetica,sans-Serif" font-size="10.00">src/Vaisseau/VaisseauEclaireur.cpp</text>
</a>
</g>
</g>
<!-- Node32&#45;&gt;Node33 -->
<g id="edge34" class="edge"><title>Node32&#45;&gt;Node33</title>
<path fill="none" stroke="midnightblue" d="M538.727,-231.631C566.508,-220.072 607.25,-203.12 631.55,-193.009"/>
<polygon fill="midnightblue" stroke="midnightblue" points="537.377,-228.402 529.488,-235.475 540.066,-234.865 537.377,-228.402"/>
</g>
<!-- Node34&#45;&gt;Node15 -->
<g id="edge38" class="edge"><title>Node34&#45;&gt;Node15</title>
<path fill="none" stroke="midnightblue" d="M343.787,-172.427C354.512,-170.834 365.568,-169.289 376,-168 523.939,-149.715 698.201,-135.203 791.665,-127.987"/>
<polygon fill="midnightblue" stroke="midnightblue" points="343.001,-169.006 333.638,-173.963 344.049,-175.928 343.001,-169.006"/>
</g>
<!-- Node35 -->
<g id="node27" class="node"><title>Node35</title>
<g id="a_node27"><a xlink:href="_vaisseau_defenseur_8cpp.html" target="_top" xlink:title="src/Vaisseau/VaisseauDefenseur.cpp">
<polygon fill="white" stroke="black" points="194.5,-112.5 194.5,-131.5 375.5,-131.5 375.5,-112.5 194.5,-112.5"/>
<text text-anchor="middle" x="285" y="-119.5" font-family="Helvetica,sans-Serif" font-size="10.00">src/Vaisseau/VaisseauDefenseur.cpp</text>
</a>
</g>
</g>
<!-- Node34&#45;&gt;Node35 -->
<g id="edge39" class="edge"><title>Node34&#45;&gt;Node35</title>
<path fill="none" stroke="midnightblue" d="M282.942,-163.817C283.488,-152.996 284.148,-139.898 284.571,-131.509"/>
<polygon fill="midnightblue" stroke="midnightblue" points="279.438,-163.812 282.43,-173.975 286.429,-164.164 279.438,-163.812"/>
</g>
<!-- Node36&#45;&gt;Node34 -->
<g id="edge41" class="edge"><title>Node36&#45;&gt;Node34</title>
<path fill="none" stroke="midnightblue" d="M309.146,-227.005C302.046,-215.888 293.074,-201.84 287.434,-193.009"/>
<polygon fill="midnightblue" stroke="midnightblue" points="306.223,-228.931 314.556,-235.475 312.123,-225.163 306.223,-228.931"/>
</g>
<!-- Node37 -->
<g id="node29" class="node"><title>Node37</title>
<g id="a_node29"><a xlink:href="_vaisseau_defenseur_b_8cpp.html" target="_top" xlink:title="src/Vaisseau/VaisseauDefenseur\lB.cpp">
<polygon fill="white" stroke="black" points="385,-168.5 385,-198.5 547,-198.5 547,-168.5 385,-168.5"/>
<text text-anchor="start" x="393" y="-186.5" font-family="Helvetica,sans-Serif" font-size="10.00">src/Vaisseau/VaisseauDefenseur</text>
<text text-anchor="middle" x="466" y="-175.5" font-family="Helvetica,sans-Serif" font-size="10.00">B.cpp</text>
</a>
</g>
</g>
<!-- Node36&#45;&gt;Node37 -->
<g id="edge42" class="edge"><title>Node36&#45;&gt;Node37</title>
<path fill="none" stroke="midnightblue" d="M350.452,-231.59C374.124,-221.942 406.968,-208.558 431.591,-198.523"/>
<polygon fill="midnightblue" stroke="midnightblue" points="348.858,-228.46 340.918,-235.475 351.5,-234.942 348.858,-228.46"/>
</g>
<!-- Node40&#45;&gt;Node11 -->
<g id="edge52" class="edge"><title>Node40&#45;&gt;Node11</title>
<path fill="none" stroke="midnightblue" d="M1736.3,-343.906C1708.85,-333.754 1670.33,-319.506 1646.03,-310.516"/>
<polygon fill="midnightblue" stroke="midnightblue" points="1735.27,-347.257 1745.87,-347.444 1737.7,-340.692 1735.27,-347.257"/>
</g>
<!-- Node40&#45;&gt;Node22 -->
<g id="edge53" class="edge"><title>Node40&#45;&gt;Node22</title>
<path fill="none" stroke="midnightblue" d="M1769,-336.805C1769,-327.91 1769,-317.78 1769,-310.751"/>
<polygon fill="midnightblue" stroke="midnightblue" points="1765.5,-337.083 1769,-347.083 1772.5,-337.083 1765.5,-337.083"/>
</g>
<!-- Node41 -->
<g id="node33" class="node"><title>Node41</title>
<g id="a_node33"><a xlink:href="__projectiles_8h.html" target="_top" xlink:title="src/Projectiles/_projectiles.h">
<polygon fill="white" stroke="black" points="2008,-291.5 2008,-310.5 2148,-310.5 2148,-291.5 2008,-291.5"/>
<text text-anchor="middle" x="2078" y="-298.5" font-family="Helvetica,sans-Serif" font-size="10.00">src/Projectiles/_projectiles.h</text>
</a>
</g>
</g>
<!-- Node40&#45;&gt;Node41 -->
<g id="edge54" class="edge"><title>Node40&#45;&gt;Node41</title>
<path fill="none" stroke="midnightblue" d="M1828.14,-345.664C1886.54,-335.459 1974.78,-320.039 2029.27,-310.516"/>
<polygon fill="midnightblue" stroke="midnightblue" points="1827.21,-342.274 1817.96,-347.444 1828.42,-349.17 1827.21,-342.274"/>
</g>
<!-- Node42 -->
<g id="node34" class="node"><title>Node42</title>
<g id="a_node34"><a xlink:href="_proj_test_8cpp.html" target="_top" xlink:title="src/Projectiles/ProjTest.cpp">
<polygon fill="white" stroke="black" points="1852.5,-291.5 1852.5,-310.5 1989.5,-310.5 1989.5,-291.5 1852.5,-291.5"/>
<text text-anchor="middle" x="1921" y="-298.5" font-family="Helvetica,sans-Serif" font-size="10.00">src/Projectiles/ProjTest.cpp</text>
</a>
</g>
</g>
<!-- Node40&#45;&gt;Node42 -->
<g id="edge57" class="edge"><title>Node40&#45;&gt;Node42</title>
<path fill="none" stroke="midnightblue" d="M1802.67,-344.039C1831.27,-333.879 1871.61,-319.546 1897.03,-310.516"/>
<polygon fill="midnightblue" stroke="midnightblue" points="1801.34,-340.798 1793.08,-347.444 1803.68,-347.394 1801.34,-340.798"/>
</g>
<!-- Node41&#45;&gt;Node13 -->
<g id="edge56" class="edge"><title>Node41&#45;&gt;Node13</title>
<path fill="none" stroke="midnightblue" d="M2086.25,-281.996C2095.73,-259.629 2110,-220.066 2110,-184.5 2110,-184.5 2110,-184.5 2110,-121 2110,-37.948 1464.26,-16.1197 1297.78,-11.8721"/>
<polygon fill="midnightblue" stroke="midnightblue" points="2083.01,-280.682 2082.18,-291.245 2089.41,-283.501 2083.01,-280.682"/>
</g>
<!-- Node41&#45;&gt;Node31 -->
<g id="edge55" class="edge"><title>Node41&#45;&gt;Node31</title>
<path fill="none" stroke="midnightblue" d="M2076.08,-280.827C2073.48,-265.8 2067.37,-245.701 2053,-235 2002.8,-197.63 1560.77,-187.307 1428.95,-185.047"/>
<polygon fill="midnightblue" stroke="midnightblue" points="2072.66,-281.646 2077.46,-291.09 2079.6,-280.713 2072.66,-281.646"/>
</g>
<!-- Node43&#45;&gt;Node20 -->
<g id="edge60" class="edge"><title>Node43&#45;&gt;Node20</title>
<path fill="none" stroke="midnightblue" d="M2002.03,-347.103C2001.69,-347.069 2001.34,-347.034 2001,-347 1801.36,-327.044 1750.59,-331.448 1551,-311 1548.12,-310.705 1545.17,-310.39 1542.2,-310.061"/>
<polygon fill="midnightblue" stroke="midnightblue" points="2001.88,-350.607 2012.19,-348.169 2002.61,-343.645 2001.88,-350.607"/>
</g>
<!-- Node43&#45;&gt;Node41 -->
<g id="edge61" class="edge"><title>Node43&#45;&gt;Node41</title>
<path fill="none" stroke="midnightblue" d="M2076.71,-336.805C2077.04,-327.91 2077.42,-317.78 2077.68,-310.751"/>
<polygon fill="midnightblue" stroke="midnightblue" points="2073.2,-336.96 2076.33,-347.083 2080.2,-337.219 2073.2,-336.96"/>
</g>
<!-- Node44 -->
<g id="node36" class="node"><title>Node44</title>
<g id="a_node36"><a xlink:href="_proj_piou_8cpp.html" target="_top" xlink:title="src/Projectiles/ProjPiou.cpp">
<polygon fill="white" stroke="black" points="2333.5,-291.5 2333.5,-310.5 2470.5,-310.5 2470.5,-291.5 2333.5,-291.5"/>
<text text-anchor="middle" x="2402" y="-298.5" font-family="Helvetica,sans-Serif" font-size="10.00">src/Projectiles/ProjPiou.cpp</text>
</a>
</g>
</g>
<!-- Node43&#45;&gt;Node44 -->
<g id="edge62" class="edge"><title>Node43&#45;&gt;Node44</title>
<path fill="none" stroke="midnightblue" d="M2137.63,-345.791C2199.23,-335.587 2292.86,-320.078 2350.59,-310.516"/>
<polygon fill="midnightblue" stroke="midnightblue" points="2136.95,-342.356 2127.66,-347.444 2138.09,-349.262 2136.95,-342.356"/>
</g>
<!-- Node45&#45;&gt;Node24 -->
<g id="edge64" class="edge"><title>Node45&#45;&gt;Node24</title>
<path fill="none" stroke="midnightblue" d="M1843.34,-347.227C1842.55,-347.15 1841.78,-347.075 1841,-347 1648.34,-328.44 1599.61,-330.095 1407,-311 1404.02,-310.704 1400.97,-310.393 1397.89,-310.07"/>
<polygon fill="midnightblue" stroke="midnightblue" points="1843.37,-350.747 1853.67,-348.26 1844.07,-343.782 1843.37,-350.747"/>
</g>
<!-- Node45&#45;&gt;Node41 -->
<g id="edge65" class="edge"><title>Node45&#45;&gt;Node41</title>
<path fill="none" stroke="midnightblue" d="M1957.33,-344.039C1986.5,-333.879 2027.64,-319.546 2053.55,-310.516"/>
<polygon fill="midnightblue" stroke="midnightblue" points="1955.85,-340.848 1947.56,-347.444 1958.16,-347.459 1955.85,-340.848"/>
</g>
<!-- Node46 -->
<g id="node38" class="node"><title>Node46</title>
<g id="a_node38"><a xlink:href="_proj_missile_8cpp.html" target="_top" xlink:title="src/Projectiles/ProjMissile.cpp">
<polygon fill="white" stroke="black" points="2166.5,-291.5 2166.5,-310.5 2315.5,-310.5 2315.5,-291.5 2166.5,-291.5"/>
<text text-anchor="middle" x="2241" y="-298.5" font-family="Helvetica,sans-Serif" font-size="10.00">src/Projectiles/ProjMissile.cpp</text>
</a>
</g>
</g>
<!-- Node45&#45;&gt;Node46 -->
<g id="edge66" class="edge"><title>Node45&#45;&gt;Node46</title>
<path fill="none" stroke="midnightblue" d="M1983.49,-345.727C2043.59,-335.523 2134.66,-320.058 2190.85,-310.516"/>
<polygon fill="midnightblue" stroke="midnightblue" points="1982.66,-342.319 1973.39,-347.444 1983.83,-349.22 1982.66,-342.319"/>
</g>
</g>
</svg>
        <g id="navigator" transform="translate(0 0)" fill="#404254">
                <rect fill="#f2f5e9" fill-opacity="0.5" stroke="#606060" stroke-width=".5" x="0" y="0" width="60" height="60"/>
                <use id="zoomplus" xlink:href="#zoomPlus" x="17" y="9" onmousedown="handleZoom(evt,'in')"/>
                <use id="zoomminus" xlink:href="#zoomMin" x="42" y="9" onmousedown="handleZoom(evt,'out')"/>
                <use id="reset" xlink:href="#resetDef" x="30" y="36" onmousedown="handleReset()"/>
                <g id="arrowUp" xlink:href="#dirArrow" transform="translate(30 24)" onmousedown="handlePan(0,-1)">
                  <use xlink:href="#rim" fill="#404040">
                        <set attributeName="fill" to="#808080" begin="arrowUp.mouseover" end="arrowUp.mouseout"/>
                  </use>
                  <path fill="none" stroke="white" stroke-width="1.5" d="M0,-3.0v7 M-2.5,-0.5L0,-3.0L2.5,-0.5"/>
                </g>
                <g id="arrowRight" xlink:href="#dirArrow" transform="rotate(90) translate(36 -43)" onmousedown="handlePan(1,0)">
                  <use xlink:href="#rim" fill="#404040">
                        <set attributeName="fill" to="#808080" begin="arrowRight.mouseover" end="arrowRight.mouseout"/>
                  </use>
                  <path fill="none" stroke="white" stroke-width="1.5" d="M0,-3.0v7 M-2.5,-0.5L0,-3.0L2.5,-0.5"/>
                </g>
                <g id="arrowDown" xlink:href="#dirArrow" transform="rotate(180) translate(-30 -48)" onmousedown="handlePan(0,1)">
                  <use xlink:href="#rim" fill="#404040">
                        <set attributeName="fill" to="#808080" begin="arrowDown.mouseover" end="arrowDown.mouseout"/>
                  </use>
                  <path fill="none" stroke="white" stroke-width="1.5" d="M0,-3.0v7 M-2.5,-0.5L0,-3.0L2.5,-0.5"/>
                </g>
                <g id="arrowLeft" xlink:href="#dirArrow" transform="rotate(270) translate(-36 17)" onmousedown="handlePan(-1,0)">
                  <use xlink:href="#rim" fill="#404040">
                        <set attributeName="fill" to="#808080" begin="arrowLeft.mouseover" end="arrowLeft.mouseout"/>
                  </use>
                  <path fill="none" stroke="white" stroke-width="1.5" d="M0,-3.0v7 M-2.5,-0.5L0,-3.0L2.5,-0.5"/>
                </g>
        </g>
        <svg viewBox="0 0 15 15" width="100%" height="30px" preserveAspectRatio="xMaxYMin meet">
         <g id="arrow_out" transform="scale(0.3 0.3)">
          <a xlink:href="_projectile_8h__dep__incl_org.svg" target="_base">
           <rect id="button" ry="5" rx="5" y="6" x="6" height="38" width="38"
                fill="#f2f5e9" fill-opacity="0.5" stroke="#606060" stroke-width="1.0"/>
           <path id="arrow"
             d="M 11.500037,31.436501 C 11.940474,20.09759 22.043105,11.32322 32.158766,21.979434 L 37.068811,17.246167 C 37.068811,17.246167 37.088388,32 37.088388,32 L 22.160133,31.978069 C 22.160133,31.978069 26.997745,27.140456 26.997745,27.140456 C 18.528582,18.264221 13.291696,25.230495 11.500037,31.436501 z"
             style="fill:#404040;"/>
          </a>
         </g>
        </svg>
</svg>
