<?xml version="1.0" encoding="UTF-8" standalone="no"?>
<!DOCTYPE svg PUBLIC "-//W3C//DTD SVG 1.1//EN"
 "http://www.w3.org/Graphics/SVG/1.1/DTD/svg11.dtd">
<!-- Generated by graphviz version 2.38.0 (20140413.2041)
 -->
<!-- Title: src/Projectiles/ProjPiou.h Pages: 1 -->
<!--zoomable 364 -->
<svg id="main" version="1.1" xmlns="http://www.w3.org/2000/svg" xmlns:xlink="http://www.w3.org/1999/xlink" xml:space="preserve" onload="init(evt)">
<style type="text/css"><![CDATA[
.edge:hover path { stroke: red; }
.edge:hover polygon { stroke: red; fill: red; }
]]></style>
<script type="text/javascript"><![CDATA[
var edges = document.getElementsByTagName('g');
if (edges && edges.length) {
  for (var i=0;i<edges.length;i++) {
    if (edges[i].id.substr(0,4)=='edge') {
      edges[i].setAttribute('class','edge');
    }
  }
}
]]></script>
        <defs>
                <circle id="rim" cx="0" cy="0" r="7"/>
                <circle id="rim2" cx="0" cy="0" r="3.5"/>
                <g id="zoomPlus">
                        <use xlink:href="#rim" fill="#404040">
                                <set attributeName="fill" to="#808080" begin="zoomplus.mouseover" end="zoomplus.mouseout"/>
                        </use>
                        <path d="M-4,0h8M0,-4v8" fill="none" stroke="white" stroke-width="1.5" pointer-events="none"/>
                </g>
                <g id="zoomMin">
                        <use xlink:href="#rim" fill="#404040">
                                <set attributeName="fill" to="#808080" begin="zoomminus.mouseover" end="zoomminus.mouseout"/>
                        </use>
                        <path d="M-4,0h8" fill="none" stroke="white" stroke-width="1.5" pointer-events="none"/>
                </g>
                <g id="dirArrow">
                        <path fill="none" stroke="white" stroke-width="1.5" d="M0,-3.0v7 M-2.5,-0.5L0,-3.0L2.5,-0.5"/>
                </g>
               <g id="resetDef">
                       <use xlink:href="#rim2" fill="#404040">
                               <set attributeName="fill" to="#808080" begin="reset.mouseover" end="reset.mouseout"/>
                       </use>
               </g>
        </defs>

<script type="text/javascript">
var viewWidth = 694;
var viewHeight = 364;
var sectionId = 'dynsection-1';
</script>
<script xlink:href="svgpan.js"/>
<svg id="graph" class="graph">
<g id="viewport">
<title>src/Projectiles/ProjPiou.h</title>
<polygon fill="white" stroke="none" points="-4,4 -4,-360 690,-360 690,4 -4,4"/>
<!-- Node10 -->
<g id="node1" class="node"><title>Node10</title>
<polygon fill="#bfbfbf" stroke="black" points="397,-336.5 397,-355.5 524,-355.5 524,-336.5 397,-336.5"/>
<text text-anchor="middle" x="460.5" y="-343.5" font-family="Helvetica,sans-Serif" font-size="10.00">src/Projectiles/ProjPiou.h</text>
</g>
<!-- Node11 -->
<g id="node2" class="node"><title>Node11</title>
<g id="a_node2"><a xlink:href="_cap_piou_8h.html" target="_top" xlink:title="src/Capacites/CapPiou.h">
<polygon fill="white" stroke="black" points="246.5,-280.5 246.5,-299.5 372.5,-299.5 372.5,-280.5 246.5,-280.5"/>
<text text-anchor="middle" x="309.5" y="-287.5" font-family="Helvetica,sans-Serif" font-size="10.00">src/Capacites/CapPiou.h</text>
</a>
</g>
</g>
<!-- Node10&#45;&gt;Node11 -->
<g id="edge1" class="edge"><title>Node10&#45;&gt;Node11</title>
<path fill="none" stroke="midnightblue" d="M427.054,-333.039C398.642,-322.879 358.563,-308.546 333.314,-299.516"/>
<polygon fill="midnightblue" stroke="midnightblue" points="425.979,-336.372 436.574,-336.444 428.336,-329.781 425.979,-336.372"/>
</g>
<!-- Node20 -->
<g id="node11" class="node"><title>Node20</title>
<g id="a_node11"><a xlink:href="__projectiles_8h.html" target="_top" xlink:title="src/Projectiles/_projectiles.h">
<polygon fill="white" stroke="black" points="390.5,-280.5 390.5,-299.5 530.5,-299.5 530.5,-280.5 390.5,-280.5"/>
<text text-anchor="middle" x="460.5" y="-287.5" font-family="Helvetica,sans-Serif" font-size="10.00">src/Projectiles/_projectiles.h</text>
</a>
</g>
</g>
<!-- Node10&#45;&gt;Node20 -->
<g id="edge12" class="edge"><title>Node10&#45;&gt;Node20</title>
<path fill="none" stroke="midnightblue" d="M460.5,-325.805C460.5,-316.91 460.5,-306.78 460.5,-299.751"/>
<polygon fill="midnightblue" stroke="midnightblue" points="457,-326.083 460.5,-336.083 464,-326.083 457,-326.083"/>
</g>
<!-- Node22 -->
<g id="node13" class="node"><title>Node22</title>
<g id="a_node13"><a xlink:href="_proj_piou_8cpp.html" target="_top" xlink:title="src/Projectiles/ProjPiou.cpp">
<polygon fill="white" stroke="black" points="549,-280.5 549,-299.5 686,-299.5 686,-280.5 549,-280.5"/>
<text text-anchor="middle" x="617.5" y="-287.5" font-family="Helvetica,sans-Serif" font-size="10.00">src/Projectiles/ProjPiou.cpp</text>
</a>
</g>
</g>
<!-- Node10&#45;&gt;Node22 -->
<g id="edge15" class="edge"><title>Node10&#45;&gt;Node22</title>
<path fill="none" stroke="midnightblue" d="M494.889,-333.172C524.452,-323.004 566.373,-308.585 592.739,-299.516"/>
<polygon fill="midnightblue" stroke="midnightblue" points="493.695,-329.881 485.377,-336.444 495.972,-336.501 493.695,-329.881"/>
</g>
<!-- Node12 -->
<g id="node3" class="node"><title>Node12</title>
<g id="a_node3"><a xlink:href="___capacites_8h.html" target="_top" xlink:title="src/Capacites/_Capacites.h">
<polygon fill="white" stroke="black" points="111.5,-224.5 111.5,-243.5 249.5,-243.5 249.5,-224.5 111.5,-224.5"/>
<text text-anchor="middle" x="180.5" y="-231.5" font-family="Helvetica,sans-Serif" font-size="10.00">src/Capacites/_Capacites.h</text>
</a>
</g>
</g>
<!-- Node11&#45;&gt;Node12 -->
<g id="edge2" class="edge"><title>Node11&#45;&gt;Node12</title>
<path fill="none" stroke="midnightblue" d="M279.646,-276.503C255.462,-266.38 222.038,-252.388 200.845,-243.516"/>
<polygon fill="midnightblue" stroke="midnightblue" points="278.484,-279.811 289.06,-280.444 281.187,-273.354 278.484,-279.811"/>
</g>
<!-- Node19 -->
<g id="node10" class="node"><title>Node19</title>
<g id="a_node10"><a xlink:href="_cap_piou_8cpp.html" target="_top" xlink:title="src/Capacites/CapPiou.cpp">
<polygon fill="white" stroke="black" points="268,-224.5 268,-243.5 405,-243.5 405,-224.5 268,-224.5"/>
<text text-anchor="middle" x="336.5" y="-231.5" font-family="Helvetica,sans-Serif" font-size="10.00">src/Capacites/CapPiou.cpp</text>
</a>
</g>
</g>
<!-- Node11&#45;&gt;Node19 -->
<g id="edge11" class="edge"><title>Node11&#45;&gt;Node19</title>
<path fill="none" stroke="midnightblue" d="M318.509,-270.983C323.092,-261.817 328.454,-251.092 332.124,-243.751"/>
<polygon fill="midnightblue" stroke="midnightblue" points="315.3,-269.573 313.959,-280.083 321.561,-272.704 315.3,-269.573"/>
</g>
<!-- Node13 -->
<g id="node4" class="node"><title>Node13</title>
<g id="a_node4"><a xlink:href="_partie_8cpp.html" target="_top" xlink:title="src/Partie.cpp">
<polygon fill="white" stroke="black" points="298,-0.5 298,-19.5 375,-19.5 375,-0.5 298,-0.5"/>
<text text-anchor="middle" x="336.5" y="-7.5" font-family="Helvetica,sans-Serif" font-size="10.00">src/Partie.cpp</text>
</a>
</g>
</g>
<!-- Node12&#45;&gt;Node13 -->
<g id="edge3" class="edge"><title>Node12&#45;&gt;Node13</title>
<path fill="none" stroke="midnightblue" d="M211.389,-220.241C244.258,-204.783 294.493,-175.313 316.5,-132 335.982,-93.6558 337.172,-40.4866 336.806,-19.7619"/>
<polygon fill="midnightblue" stroke="midnightblue" points="209.866,-217.088 202.207,-224.408 212.759,-223.462 209.866,-217.088"/>
</g>
<!-- Node14 -->
<g id="node5" class="node"><title>Node14</title>
<g id="a_node5"><a xlink:href="_vaisseau_test_8h.html" target="_top" xlink:title="src/Vaisseau/VaisseauTest.h">
<polygon fill="white" stroke="black" points="108,-168.5 108,-187.5 253,-187.5 253,-168.5 108,-168.5"/>
<text text-anchor="middle" x="180.5" y="-175.5" font-family="Helvetica,sans-Serif" font-size="10.00">src/Vaisseau/VaisseauTest.h</text>
</a>
</g>
</g>
<!-- Node12&#45;&gt;Node14 -->
<g id="edge4" class="edge"><title>Node12&#45;&gt;Node14</title>
<path fill="none" stroke="midnightblue" d="M180.5,-213.805C180.5,-204.91 180.5,-194.78 180.5,-187.751"/>
<polygon fill="midnightblue" stroke="midnightblue" points="177,-214.083 180.5,-224.083 184,-214.083 177,-214.083"/>
</g>
<!-- Node15 -->
<g id="node6" class="node"><title>Node15</title>
<g id="a_node6"><a xlink:href="__vaisseaux_8h.html" target="_top" xlink:title="src/Vaisseau/_vaisseaux.h">
<polygon fill="white" stroke="black" points="173.5,-112.5 173.5,-131.5 307.5,-131.5 307.5,-112.5 173.5,-112.5"/>
<text text-anchor="middle" x="240.5" y="-119.5" font-family="Helvetica,sans-Serif" font-size="10.00">src/Vaisseau/_vaisseaux.h</text>
</a>
</g>
</g>
<!-- Node14&#45;&gt;Node15 -->
<g id="edge5" class="edge"><title>Node14&#45;&gt;Node15</title>
<path fill="none" stroke="midnightblue" d="M197.681,-161.537C208.379,-151.909 221.756,-139.869 230.685,-131.834"/>
<polygon fill="midnightblue" stroke="midnightblue" points="195.232,-159.033 190.14,-168.324 199.914,-164.236 195.232,-159.033"/>
</g>
<!-- Node18 -->
<g id="node9" class="node"><title>Node18</title>
<g id="a_node9"><a xlink:href="_vaisseau_test_8cpp.html" target="_top" xlink:title="src/Vaisseau/VaisseauTest.cpp">
<polygon fill="white" stroke="black" points="0,-112.5 0,-131.5 155,-131.5 155,-112.5 0,-112.5"/>
<text text-anchor="middle" x="77.5" y="-119.5" font-family="Helvetica,sans-Serif" font-size="10.00">src/Vaisseau/VaisseauTest.cpp</text>
</a>
</g>
</g>
<!-- Node14&#45;&gt;Node18 -->
<g id="edge10" class="edge"><title>Node14&#45;&gt;Node18</title>
<path fill="none" stroke="midnightblue" d="M154.921,-163.59C135.877,-153.605 110.436,-140.267 94.0077,-131.655"/>
<polygon fill="midnightblue" stroke="midnightblue" points="153.469,-166.78 163.951,-168.324 156.72,-160.581 153.469,-166.78"/>
</g>
<!-- Node15&#45;&gt;Node13 -->
<g id="edge6" class="edge"><title>Node15&#45;&gt;Node13</title>
<path fill="none" stroke="midnightblue" d="M255.3,-105.043C263.16,-96.497 272.939,-85.7496 281.5,-76 298.862,-56.2281 318.67,-32.5266 329.129,-19.9191"/>
<polygon fill="midnightblue" stroke="midnightblue" points="252.666,-102.736 248.455,-112.458 257.81,-107.484 252.666,-102.736"/>
</g>
<!-- Node16 -->
<g id="node7" class="node"><title>Node16</title>
<g id="a_node7"><a xlink:href="vague_8h.html" target="_top" xlink:title="src/vague.h">
<polygon fill="white" stroke="black" points="204.5,-56.5 204.5,-75.5 272.5,-75.5 272.5,-56.5 204.5,-56.5"/>
<text text-anchor="middle" x="238.5" y="-63.5" font-family="Helvetica,sans-Serif" font-size="10.00">src/vague.h</text>
</a>
</g>
</g>
<!-- Node15&#45;&gt;Node16 -->
<g id="edge7" class="edge"><title>Node15&#45;&gt;Node16</title>
<path fill="none" stroke="midnightblue" d="M239.789,-101.805C239.46,-92.9102 239.084,-82.7798 238.824,-75.7511"/>
<polygon fill="midnightblue" stroke="midnightblue" points="236.302,-102.219 240.17,-112.083 243.297,-101.96 236.302,-102.219"/>
</g>
<!-- Node16&#45;&gt;Node13 -->
<g id="edge8" class="edge"><title>Node16&#45;&gt;Node13</title>
<path fill="none" stroke="midnightblue" d="M263.086,-51.4526C281.178,-41.4835 305.235,-28.2279 320.794,-19.6545"/>
<polygon fill="midnightblue" stroke="midnightblue" points="261.315,-48.4324 254.245,-56.324 264.693,-54.5633 261.315,-48.4324"/>
</g>
<!-- Node17 -->
<g id="node8" class="node"><title>Node17</title>
<g id="a_node8"><a xlink:href="vague_8cpp.html" target="_top" xlink:title="src/vague.cpp">
<polygon fill="white" stroke="black" points="199.5,-0.5 199.5,-19.5 277.5,-19.5 277.5,-0.5 199.5,-0.5"/>
<text text-anchor="middle" x="238.5" y="-7.5" font-family="Helvetica,sans-Serif" font-size="10.00">src/vague.cpp</text>
</a>
</g>
</g>
<!-- Node16&#45;&gt;Node17 -->
<g id="edge9" class="edge"><title>Node16&#45;&gt;Node17</title>
<path fill="none" stroke="midnightblue" d="M238.5,-45.8045C238.5,-36.9102 238.5,-26.7798 238.5,-19.7511"/>
<polygon fill="midnightblue" stroke="midnightblue" points="235,-46.083 238.5,-56.083 242,-46.083 235,-46.083"/>
</g>
<!-- Node20&#45;&gt;Node13 -->
<g id="edge14" class="edge"><title>Node20&#45;&gt;Node13</title>
<path fill="none" stroke="midnightblue" d="M453.197,-270.856C445.201,-249.318 433.5,-212.139 433.5,-179 433.5,-179 433.5,-179 433.5,-121 433.5,-72.6227 380.068,-35.4628 352.518,-19.5177"/>
<polygon fill="midnightblue" stroke="midnightblue" points="449.991,-272.27 456.859,-280.338 456.522,-269.748 449.991,-272.27"/>
</g>
<!-- Node21 -->
<g id="node12" class="node"><title>Node21</title>
<g id="a_node12"><a xlink:href="main_8cpp.html" target="_top" xlink:title="src/main.cpp">
<polygon fill="white" stroke="black" points="462,-224.5 462,-243.5 535,-243.5 535,-224.5 462,-224.5"/>
<text text-anchor="middle" x="498.5" y="-231.5" font-family="Helvetica,sans-Serif" font-size="10.00">src/main.cpp</text>
</a>
</g>
</g>
<!-- Node20&#45;&gt;Node21 -->
<g id="edge13" class="edge"><title>Node20&#45;&gt;Node21</title>
<path fill="none" stroke="midnightblue" d="M472.565,-271.855C479.145,-262.505 487.011,-251.327 492.342,-243.751"/>
<polygon fill="midnightblue" stroke="midnightblue" points="469.668,-269.891 466.775,-280.083 475.392,-273.919 469.668,-269.891"/>
</g>
</g>
</svg>
        <g id="navigator" transform="translate(0 0)" fill="#404254">
                <rect fill="#f2f5e9" fill-opacity="0.5" stroke="#606060" stroke-width=".5" x="0" y="0" width="60" height="60"/>
                <use id="zoomplus" xlink:href="#zoomPlus" x="17" y="9" onmousedown="handleZoom(evt,'in')"/>
                <use id="zoomminus" xlink:href="#zoomMin" x="42" y="9" onmousedown="handleZoom(evt,'out')"/>
                <use id="reset" xlink:href="#resetDef" x="30" y="36" onmousedown="handleReset()"/>
                <g id="arrowUp" xlink:href="#dirArrow" transform="translate(30 24)" onmousedown="handlePan(0,-1)">
                  <use xlink:href="#rim" fill="#404040">
                        <set attributeName="fill" to="#808080" begin="arrowUp.mouseover" end="arrowUp.mouseout"/>
                  </use>
                  <path fill="none" stroke="white" stroke-width="1.5" d="M0,-3.0v7 M-2.5,-0.5L0,-3.0L2.5,-0.5"/>
                </g>
                <g id="arrowRight" xlink:href="#dirArrow" transform="rotate(90) translate(36 -43)" onmousedown="handlePan(1,0)">
                  <use xlink:href="#rim" fill="#404040">
                        <set attributeName="fill" to="#808080" begin="arrowRight.mouseover" end="arrowRight.mouseout"/>
                  </use>
                  <path fill="none" stroke="white" stroke-width="1.5" d="M0,-3.0v7 M-2.5,-0.5L0,-3.0L2.5,-0.5"/>
                </g>
                <g id="arrowDown" xlink:href="#dirArrow" transform="rotate(180) translate(-30 -48)" onmousedown="handlePan(0,1)">
                  <use xlink:href="#rim" fill="#404040">
                        <set attributeName="fill" to="#808080" begin="arrowDown.mouseover" end="arrowDown.mouseout"/>
                  </use>
                  <path fill="none" stroke="white" stroke-width="1.5" d="M0,-3.0v7 M-2.5,-0.5L0,-3.0L2.5,-0.5"/>
                </g>
                <g id="arrowLeft" xlink:href="#dirArrow" transform="rotate(270) translate(-36 17)" onmousedown="handlePan(-1,0)">
                  <use xlink:href="#rim" fill="#404040">
                        <set attributeName="fill" to="#808080" begin="arrowLeft.mouseover" end="arrowLeft.mouseout"/>
                  </use>
                  <path fill="none" stroke="white" stroke-width="1.5" d="M0,-3.0v7 M-2.5,-0.5L0,-3.0L2.5,-0.5"/>
                </g>
        </g>
        <svg viewBox="0 0 15 15" width="100%" height="30px" preserveAspectRatio="xMaxYMin meet">
         <g id="arrow_out" transform="scale(0.3 0.3)">
          <a xlink:href="_proj_piou_8h__dep__incl_org.svg" target="_base">
           <rect id="button" ry="5" rx="5" y="6" x="6" height="38" width="38"
                fill="#f2f5e9" fill-opacity="0.5" stroke="#606060" stroke-width="1.0"/>
           <path id="arrow"
             d="M 11.500037,31.436501 C 11.940474,20.09759 22.043105,11.32322 32.158766,21.979434 L 37.068811,17.246167 C 37.068811,17.246167 37.088388,32 37.088388,32 L 22.160133,31.978069 C 22.160133,31.978069 26.997745,27.140456 26.997745,27.140456 C 18.528582,18.264221 13.291696,25.230495 11.500037,31.436501 z"
             style="fill:#404040;"/>
          </a>
         </g>
        </svg>
</svg>
