<?xml version="1.0" encoding="UTF-8" standalone="no"?>
<!DOCTYPE svg PUBLIC "-//W3C//DTD SVG 1.1//EN"
 "http://www.w3.org/Graphics/SVG/1.1/DTD/svg11.dtd">
<!-- Generated by graphviz version 2.38.0 (20140413.2041)
 -->
<!-- Title: src/Projectiles/ProjPiou.cpp Pages: 1 -->
<svg width="332pt" height="252pt"
 viewBox="0.00 0.00 331.50 252.00" xmlns="http://www.w3.org/2000/svg" xmlns:xlink="http://www.w3.org/1999/xlink">
<g id="graph0" class="graph" transform="scale(1 1) rotate(0) translate(4 248)">
<title>src/Projectiles/ProjPiou.cpp</title>
<polygon fill="white" stroke="none" points="-4,4 -4,-248 327.5,-248 327.5,4 -4,4"/>
<!-- Node0 -->
<g id="node1" class="node"><title>Node0</title>
<polygon fill="#bfbfbf" stroke="black" points="0,-224.5 0,-243.5 137,-243.5 137,-224.5 0,-224.5"/>
<text text-anchor="middle" x="68.5" y="-231.5" font-family="Helvetica,sans-Serif" font-size="10.00">src/Projectiles/ProjPiou.cpp</text>
</g>
<!-- Node1 -->
<g id="node2" class="node"><title>Node1</title>
<g id="a_node2"><a xlink:href="_proj_piou_8h.html" target="_top" xlink:title="ProjPiou.h">
<polygon fill="white" stroke="black" points="37.5,-168.5 37.5,-187.5 99.5,-187.5 99.5,-168.5 37.5,-168.5"/>
<text text-anchor="middle" x="68.5" y="-175.5" font-family="Helvetica,sans-Serif" font-size="10.00">ProjPiou.h</text>
</a>
</g>
</g>
<!-- Node0&#45;&gt;Node1 -->
<g id="edge1" class="edge"><title>Node0&#45;&gt;Node1</title>
<path fill="none" stroke="midnightblue" d="M68.5,-224.083C68.5,-217.006 68.5,-206.861 68.5,-197.986"/>
<polygon fill="midnightblue" stroke="midnightblue" points="72.0001,-197.751 68.5,-187.751 65.0001,-197.751 72.0001,-197.751"/>
</g>
<!-- Node2 -->
<g id="node3" class="node"><title>Node2</title>
<g id="a_node3"><a xlink:href="_projectile_8h.html" target="_top" xlink:title="Projectile.h">
<polygon fill="white" stroke="black" points="36,-112.5 36,-131.5 101,-131.5 101,-112.5 36,-112.5"/>
<text text-anchor="middle" x="68.5" y="-119.5" font-family="Helvetica,sans-Serif" font-size="10.00">Projectile.h</text>
</a>
</g>
</g>
<!-- Node1&#45;&gt;Node2 -->
<g id="edge2" class="edge"><title>Node1&#45;&gt;Node2</title>
<path fill="none" stroke="midnightblue" d="M68.5,-168.083C68.5,-161.006 68.5,-150.861 68.5,-141.986"/>
<polygon fill="midnightblue" stroke="midnightblue" points="72.0001,-141.751 68.5,-131.751 65.0001,-141.751 72.0001,-141.751"/>
</g>
<!-- Node3 -->
<g id="node4" class="node"><title>Node3</title>
<polygon fill="white" stroke="#bfbfbf" points="15.5,-0.5 15.5,-19.5 59.5,-19.5 59.5,-0.5 15.5,-0.5"/>
<text text-anchor="middle" x="37.5" y="-7.5" font-family="Helvetica,sans-Serif" font-size="10.00">vector</text>
</g>
<!-- Node2&#45;&gt;Node3 -->
<g id="edge3" class="edge"><title>Node2&#45;&gt;Node3</title>
<path fill="none" stroke="midnightblue" d="M47.6527,-112.427C32.9221,-105.129 14.2951,-93.0905 5.5,-76 -2.98399,-59.514 8.91195,-40.4626 20.5309,-27.2661"/>
<polygon fill="midnightblue" stroke="midnightblue" points="23.196,-29.5424 27.5449,-19.8813 18.1204,-24.7217 23.196,-29.5424"/>
</g>
<!-- Node4 -->
<g id="node5" class="node"><title>Node4</title>
<polygon fill="white" stroke="#bfbfbf" points="15,-56.5 15,-75.5 56,-75.5 56,-56.5 15,-56.5"/>
<text text-anchor="middle" x="35.5" y="-63.5" font-family="Helvetica,sans-Serif" font-size="10.00">string</text>
</g>
<!-- Node2&#45;&gt;Node4 -->
<g id="edge4" class="edge"><title>Node2&#45;&gt;Node4</title>
<path fill="none" stroke="midnightblue" d="M63.0507,-112.083C58.4855,-104.613 51.8316,-93.7244 46.2066,-84.5199"/>
<polygon fill="midnightblue" stroke="midnightblue" points="49.0489,-82.4588 40.8479,-75.7511 43.0759,-86.109 49.0489,-82.4588"/>
</g>
<!-- Node5 -->
<g id="node6" class="node"><title>Node5</title>
<polygon fill="white" stroke="#bfbfbf" points="74.5,-56.5 74.5,-75.5 130.5,-75.5 130.5,-56.5 74.5,-56.5"/>
<text text-anchor="middle" x="102.5" y="-63.5" font-family="Helvetica,sans-Serif" font-size="10.00">algorithm</text>
</g>
<!-- Node2&#45;&gt;Node5 -->
<g id="edge5" class="edge"><title>Node2&#45;&gt;Node5</title>
<path fill="none" stroke="midnightblue" d="M74.1144,-112.083C78.8674,-104.534 85.8181,-93.4948 91.6516,-84.2298"/>
<polygon fill="midnightblue" stroke="midnightblue" points="94.6237,-86.0783 96.9901,-75.7511 88.7001,-82.3486 94.6237,-86.0783"/>
</g>
<!-- Node6 -->
<g id="node7" class="node"><title>Node6</title>
<g id="a_node7"><a xlink:href="_entite_8h.html" target="_top" xlink:title="../Entite.h">
<polygon fill="white" stroke="black" points="149,-56.5 149,-75.5 208,-75.5 208,-56.5 149,-56.5"/>
<text text-anchor="middle" x="178.5" y="-63.5" font-family="Helvetica,sans-Serif" font-size="10.00">../Entite.h</text>
</a>
</g>
</g>
<!-- Node2&#45;&gt;Node6 -->
<g id="edge6" class="edge"><title>Node2&#45;&gt;Node6</title>
<path fill="none" stroke="midnightblue" d="M86.1734,-112.324C103.894,-103.625 131.403,-90.1202 151.788,-80.113"/>
<polygon fill="midnightblue" stroke="midnightblue" points="153.436,-83.2031 160.87,-75.6545 150.351,-76.9195 153.436,-83.2031"/>
</g>
<!-- Node6&#45;&gt;Node3 -->
<g id="edge7" class="edge"><title>Node6&#45;&gt;Node3</title>
<path fill="none" stroke="midnightblue" d="M156.158,-56.4435C132.747,-47.4776 95.7644,-33.314 69.3104,-23.1827"/>
<polygon fill="midnightblue" stroke="midnightblue" points="70.3277,-19.8245 59.7373,-19.5164 67.8241,-26.3615 70.3277,-19.8245"/>
</g>
<!-- Node7 -->
<g id="node8" class="node"><title>Node7</title>
<polygon fill="white" stroke="#bfbfbf" points="103.5,-0.5 103.5,-19.5 201.5,-19.5 201.5,-0.5 103.5,-0.5"/>
<text text-anchor="middle" x="152.5" y="-7.5" font-family="Helvetica,sans-Serif" font-size="10.00">SFML/System.hpp</text>
</g>
<!-- Node6&#45;&gt;Node7 -->
<g id="edge8" class="edge"><title>Node6&#45;&gt;Node7</title>
<path fill="none" stroke="midnightblue" d="M174.207,-56.083C170.648,-48.6913 165.478,-37.9533 161.076,-28.8111"/>
<polygon fill="midnightblue" stroke="midnightblue" points="164.205,-27.2427 156.713,-19.7511 157.898,-30.2795 164.205,-27.2427"/>
</g>
<!-- Node8 -->
<g id="node9" class="node"><title>Node8</title>
<polygon fill="white" stroke="#bfbfbf" points="219.5,-0.5 219.5,-19.5 323.5,-19.5 323.5,-0.5 219.5,-0.5"/>
<text text-anchor="middle" x="271.5" y="-7.5" font-family="Helvetica,sans-Serif" font-size="10.00">SFML/Graphics.hpp</text>
</g>
<!-- Node6&#45;&gt;Node8 -->
<g id="edge9" class="edge"><title>Node6&#45;&gt;Node8</title>
<path fill="none" stroke="midnightblue" d="M193.442,-56.324C208.085,-47.8215 230.634,-34.7288 247.738,-24.7975"/>
<polygon fill="midnightblue" stroke="midnightblue" points="249.705,-27.7027 256.595,-19.6545 246.19,-21.6491 249.705,-27.7027"/>
</g>
</g>
</svg>
