<?xml version="1.0" encoding="UTF-8" standalone="no"?>
<!DOCTYPE svg PUBLIC "-//W3C//DTD SVG 1.1//EN"
 "http://www.w3.org/Graphics/SVG/1.1/DTD/svg11.dtd">
<!-- Generated by graphviz version 2.38.0 (20140413.2041)
 -->
<!-- Title: src/Projectiles/Projectile.cpp Pages: 1 -->
<svg width="539pt" height="308pt"
 viewBox="0.00 0.00 539.00 308.00" xmlns="http://www.w3.org/2000/svg" xmlns:xlink="http://www.w3.org/1999/xlink">
<g id="graph0" class="graph" transform="scale(1 1) rotate(0) translate(4 304)">
<title>src/Projectiles/Projectile.cpp</title>
<polygon fill="white" stroke="none" points="-4,4 -4,-304 535,-304 535,4 -4,4"/>
<!-- Node0 -->
<g id="node1" class="node"><title>Node0</title>
<polygon fill="#bfbfbf" stroke="black" points="151.5,-280.5 151.5,-299.5 292.5,-299.5 292.5,-280.5 151.5,-280.5"/>
<text text-anchor="middle" x="222" y="-287.5" font-family="Helvetica,sans-Serif" font-size="10.00">src/Projectiles/Projectile.cpp</text>
</g>
<!-- Node1 -->
<g id="node2" class="node"><title>Node1</title>
<polygon fill="white" stroke="#bfbfbf" points="187,-0.5 187,-19.5 231,-19.5 231,-0.5 187,-0.5"/>
<text text-anchor="middle" x="209" y="-7.5" font-family="Helvetica,sans-Serif" font-size="10.00">vector</text>
</g>
<!-- Node0&#45;&gt;Node1 -->
<g id="edge1" class="edge"><title>Node0&#45;&gt;Node1</title>
<path fill="none" stroke="midnightblue" d="M168.78,-280.462C114.437,-268.354 38,-240.409 38,-179 38,-179 38,-179 38,-121 38,-55.5836 127.609,-27.2337 177.092,-16.5656"/>
<polygon fill="midnightblue" stroke="midnightblue" points="177.893,-19.9742 186.995,-14.5505 176.498,-13.1147 177.893,-19.9742"/>
</g>
<!-- Node2 -->
<g id="node3" class="node"><title>Node2</title>
<polygon fill="white" stroke="#bfbfbf" points="144.5,-56.5 144.5,-75.5 185.5,-75.5 185.5,-56.5 144.5,-56.5"/>
<text text-anchor="middle" x="165" y="-63.5" font-family="Helvetica,sans-Serif" font-size="10.00">string</text>
</g>
<!-- Node0&#45;&gt;Node2 -->
<g id="edge2" class="edge"><title>Node0&#45;&gt;Node2</title>
<path fill="none" stroke="midnightblue" d="M217.356,-280.493C205.115,-257.454 172.343,-191.568 164,-132 161.845,-116.612 162.297,-98.9766 163.175,-85.9609"/>
<polygon fill="midnightblue" stroke="midnightblue" points="166.672,-86.1375 164.002,-75.8848 159.696,-85.565 166.672,-86.1375"/>
</g>
<!-- Node3 -->
<g id="node4" class="node"><title>Node3</title>
<polygon fill="white" stroke="#bfbfbf" points="475,-56.5 475,-75.5 531,-75.5 531,-56.5 475,-56.5"/>
<text text-anchor="middle" x="503" y="-63.5" font-family="Helvetica,sans-Serif" font-size="10.00">algorithm</text>
</g>
<!-- Node0&#45;&gt;Node3 -->
<g id="edge3" class="edge"><title>Node0&#45;&gt;Node3</title>
<path fill="none" stroke="midnightblue" d="M292.833,-281.502C326.26,-275.37 365.424,-264.23 396,-244 448.34,-209.369 452.815,-187.561 482,-132 489.755,-117.236 495.327,-99.0786 498.774,-85.7109"/>
<polygon fill="midnightblue" stroke="midnightblue" points="502.225,-86.3304 501.171,-75.7882 495.421,-84.6867 502.225,-86.3304"/>
</g>
<!-- Node4 -->
<g id="node5" class="node"><title>Node4</title>
<polygon fill="white" stroke="#bfbfbf" points="16,-0.5 16,-19.5 120,-19.5 120,-0.5 16,-0.5"/>
<text text-anchor="middle" x="68" y="-7.5" font-family="Helvetica,sans-Serif" font-size="10.00">SFML/Graphics.hpp</text>
</g>
<!-- Node0&#45;&gt;Node4 -->
<g id="edge4" class="edge"><title>Node0&#45;&gt;Node4</title>
<path fill="none" stroke="midnightblue" d="M151.453,-283.184C86.448,-273.504 0,-247.714 0,-179 0,-179 0,-179 0,-121 0,-82.5481 30.4347,-46.3127 50.5821,-26.538"/>
<polygon fill="midnightblue" stroke="midnightblue" points="53.0977,-28.9765 57.9664,-19.5666 48.2922,-23.8865 53.0977,-28.9765"/>
</g>
<!-- Node5 -->
<g id="node6" class="node"><title>Node5</title>
<g id="a_node6"><a xlink:href="_capacite_8h.html" target="_top" xlink:title="../Capacites/Capacite.h">
<polygon fill="white" stroke="black" points="206,-168.5 206,-187.5 326,-187.5 326,-168.5 206,-168.5"/>
<text text-anchor="middle" x="266" y="-175.5" font-family="Helvetica,sans-Serif" font-size="10.00">../Capacites/Capacite.h</text>
</a>
</g>
</g>
<!-- Node0&#45;&gt;Node5 -->
<g id="edge5" class="edge"><title>Node0&#45;&gt;Node5</title>
<path fill="none" stroke="midnightblue" d="M223.872,-280.378C226.763,-267.729 232.842,-243.527 241,-224 244.962,-214.517 250.409,-204.473 255.208,-196.285"/>
<polygon fill="midnightblue" stroke="midnightblue" points="258.237,-198.04 260.415,-187.672 252.246,-194.419 258.237,-198.04"/>
</g>
<!-- Node6 -->
<g id="node7" class="node"><title>Node6</title>
<g id="a_node7"><a xlink:href="_projectile_8h.html" target="_top" xlink:title="../Projectiles/Projectile.h">
<polygon fill="white" stroke="black" points="294.5,-112.5 294.5,-131.5 417.5,-131.5 417.5,-112.5 294.5,-112.5"/>
<text text-anchor="middle" x="356" y="-119.5" font-family="Helvetica,sans-Serif" font-size="10.00">../Projectiles/Projectile.h</text>
</a>
</g>
</g>
<!-- Node0&#45;&gt;Node6 -->
<g id="edge27" class="edge"><title>Node0&#45;&gt;Node6</title>
<path fill="none" stroke="midnightblue" d="M275.645,-280.43C315.361,-272.862 364.633,-260.469 377,-244 400.058,-213.296 380.281,-165.909 366.525,-140.507"/>
<polygon fill="midnightblue" stroke="midnightblue" points="369.469,-138.603 361.48,-131.644 363.386,-142.066 369.469,-138.603"/>
</g>
<!-- Node11 -->
<g id="node12" class="node"><title>Node11</title>
<g id="a_node12"><a xlink:href="_vaisseau_8h.html" target="_top" xlink:title="../Vaisseau/Vaisseau.h">
<polygon fill="white" stroke="black" points="250,-224.5 250,-243.5 368,-243.5 368,-224.5 250,-224.5"/>
<text text-anchor="middle" x="309" y="-231.5" font-family="Helvetica,sans-Serif" font-size="10.00">../Vaisseau/Vaisseau.h</text>
</a>
</g>
</g>
<!-- Node0&#45;&gt;Node11 -->
<g id="edge20" class="edge"><title>Node0&#45;&gt;Node11</title>
<path fill="none" stroke="midnightblue" d="M235.978,-280.324C249.55,-271.9 270.38,-258.971 286.325,-249.074"/>
<polygon fill="midnightblue" stroke="midnightblue" points="288.406,-251.902 295.057,-243.655 284.714,-245.954 288.406,-251.902"/>
</g>
<!-- Node5&#45;&gt;Node1 -->
<g id="edge6" class="edge"><title>Node5&#45;&gt;Node1</title>
<path fill="none" stroke="midnightblue" d="M262.935,-168.075C253.924,-141.832 227.386,-64.5453 215.221,-29.1165"/>
<polygon fill="midnightblue" stroke="midnightblue" points="218.5,-27.8894 211.942,-19.5681 211.879,-30.1628 218.5,-27.8894"/>
</g>
<!-- Node5&#45;&gt;Node2 -->
<g id="edge7" class="edge"><title>Node5&#45;&gt;Node2</title>
<path fill="none" stroke="midnightblue" d="M254.636,-168.324C243.67,-159.692 226.881,-145.78 214,-132 199.886,-116.901 185.906,-97.84 176.514,-84.2713"/>
<polygon fill="midnightblue" stroke="midnightblue" points="179.318,-82.1705 170.799,-75.8714 173.53,-86.1081 179.318,-82.1705"/>
</g>
<!-- Node5&#45;&gt;Node3 -->
<g id="edge8" class="edge"><title>Node5&#45;&gt;Node3</title>
<path fill="none" stroke="midnightblue" d="M317.105,-168.424C349.604,-161.597 391.84,-150.116 426,-132 450.255,-119.136 473.709,-97.6166 488.229,-82.888"/>
<polygon fill="midnightblue" stroke="midnightblue" points="490.921,-85.1384 495.325,-75.5023 485.873,-80.2887 490.921,-85.1384"/>
</g>
<!-- Node5&#45;&gt;Node6 -->
<g id="edge9" class="edge"><title>Node5&#45;&gt;Node6</title>
<path fill="none" stroke="midnightblue" d="M280.46,-168.324C294.5,-159.9 316.048,-146.971 332.543,-137.074"/>
<polygon fill="midnightblue" stroke="midnightblue" points="334.802,-139.801 341.576,-131.655 331.2,-133.798 334.802,-139.801"/>
</g>
<!-- Node7 -->
<g id="node8" class="node"><title>Node7</title>
<g id="a_node8"><a xlink:href="_entite_8h.html" target="_top" xlink:title="../Entite.h">
<polygon fill="white" stroke="black" points="318.5,-56.5 318.5,-75.5 377.5,-75.5 377.5,-56.5 318.5,-56.5"/>
<text text-anchor="middle" x="348" y="-63.5" font-family="Helvetica,sans-Serif" font-size="10.00">../Entite.h</text>
</a>
</g>
</g>
<!-- Node5&#45;&gt;Node7 -->
<g id="edge19" class="edge"><title>Node5&#45;&gt;Node7</title>
<path fill="none" stroke="midnightblue" d="M266.739,-168.22C268.235,-154.939 272.611,-129.447 285,-112 294.268,-98.9483 308.547,-88.3012 321.17,-80.6461"/>
<polygon fill="midnightblue" stroke="midnightblue" points="323.031,-83.6136 329.972,-75.6092 319.554,-77.5378 323.031,-83.6136"/>
</g>
<!-- Node6&#45;&gt;Node1 -->
<g id="edge10" class="edge"><title>Node6&#45;&gt;Node1</title>
<path fill="none" stroke="midnightblue" d="M344.465,-112.368C319.455,-93.6531 259.983,-49.1509 228.822,-25.8324"/>
<polygon fill="midnightblue" stroke="midnightblue" points="230.585,-22.7804 220.481,-19.5914 226.391,-28.385 230.585,-22.7804"/>
</g>
<!-- Node6&#45;&gt;Node2 -->
<g id="edge11" class="edge"><title>Node6&#45;&gt;Node2</title>
<path fill="none" stroke="midnightblue" d="M325.735,-112.444C290.121,-102.374 231.32,-85.7501 195.572,-75.6434"/>
<polygon fill="midnightblue" stroke="midnightblue" points="196.279,-72.2062 185.704,-72.8536 194.375,-78.9422 196.279,-72.2062"/>
</g>
<!-- Node6&#45;&gt;Node3 -->
<g id="edge12" class="edge"><title>Node6&#45;&gt;Node3</title>
<path fill="none" stroke="midnightblue" d="M379.293,-112.444C403.807,-103.438 442.596,-89.1891 470.2,-79.049"/>
<polygon fill="midnightblue" stroke="midnightblue" points="471.637,-82.25 479.816,-75.5164 469.223,-75.6793 471.637,-82.25"/>
</g>
<!-- Node6&#45;&gt;Node7 -->
<g id="edge13" class="edge"><title>Node6&#45;&gt;Node7</title>
<path fill="none" stroke="midnightblue" d="M354.679,-112.083C353.619,-104.927 352.094,-94.6353 350.769,-85.6911"/>
<polygon fill="midnightblue" stroke="midnightblue" points="354.224,-85.1302 349.296,-75.7511 347.3,-86.1561 354.224,-85.1302"/>
</g>
<!-- Node7&#45;&gt;Node1 -->
<g id="edge14" class="edge"><title>Node7&#45;&gt;Node1</title>
<path fill="none" stroke="midnightblue" d="M325.975,-56.4435C302.896,-47.4776 266.438,-33.314 240.359,-23.1827"/>
<polygon fill="midnightblue" stroke="midnightblue" points="241.511,-19.8753 230.922,-19.5164 238.976,-26.4002 241.511,-19.8753"/>
</g>
<!-- Node7&#45;&gt;Node4 -->
<g id="edge17" class="edge"><title>Node7&#45;&gt;Node4</title>
<path fill="none" stroke="midnightblue" d="M318.3,-59.2722C271.83,-50.31 181.204,-32.8322 122.697,-21.5488"/>
<polygon fill="midnightblue" stroke="midnightblue" points="123.005,-18.0436 112.523,-19.5865 121.679,-24.917 123.005,-18.0436"/>
</g>
<!-- Node8 -->
<g id="node9" class="node"><title>Node8</title>
<polygon fill="white" stroke="#bfbfbf" points="341,-0.5 341,-19.5 393,-19.5 393,-0.5 341,-0.5"/>
<text text-anchor="middle" x="367" y="-7.5" font-family="Helvetica,sans-Serif" font-size="10.00">memory</text>
</g>
<!-- Node7&#45;&gt;Node8 -->
<g id="edge15" class="edge"><title>Node7&#45;&gt;Node8</title>
<path fill="none" stroke="midnightblue" d="M351.137,-56.083C353.683,-48.8486 357.356,-38.4087 360.527,-29.3968"/>
<polygon fill="midnightblue" stroke="midnightblue" points="363.903,-30.3459 363.921,-19.7511 357.3,-28.0225 363.903,-30.3459"/>
</g>
<!-- Node9 -->
<g id="node10" class="node"><title>Node9</title>
<polygon fill="white" stroke="#bfbfbf" points="411,-0.5 411,-19.5 509,-19.5 509,-0.5 411,-0.5"/>
<text text-anchor="middle" x="460" y="-7.5" font-family="Helvetica,sans-Serif" font-size="10.00">SFML/System.hpp</text>
</g>
<!-- Node7&#45;&gt;Node9 -->
<g id="edge16" class="edge"><title>Node7&#45;&gt;Node9</title>
<path fill="none" stroke="midnightblue" d="M365.995,-56.324C384.038,-47.6247 412.047,-34.1202 432.803,-24.113"/>
<polygon fill="midnightblue" stroke="midnightblue" points="434.562,-27.1502 442.05,-19.6545 431.522,-20.8449 434.562,-27.1502"/>
</g>
<!-- Node10 -->
<g id="node11" class="node"><title>Node10</title>
<g id="a_node11"><a xlink:href="constantes_8h.html" target="_top" xlink:title="constantes.h">
<polygon fill="white" stroke="black" points="249.5,-0.5 249.5,-19.5 322.5,-19.5 322.5,-0.5 249.5,-0.5"/>
<text text-anchor="middle" x="286" y="-7.5" font-family="Helvetica,sans-Serif" font-size="10.00">constantes.h</text>
</a>
</g>
</g>
<!-- Node7&#45;&gt;Node10 -->
<g id="edge18" class="edge"><title>Node7&#45;&gt;Node10</title>
<path fill="none" stroke="midnightblue" d="M338.039,-56.324C328.873,-48.3414 315.063,-36.3128 303.972,-26.6529"/>
<polygon fill="midnightblue" stroke="midnightblue" points="305.982,-23.7624 296.143,-19.8339 301.385,-29.041 305.982,-23.7624"/>
</g>
<!-- Node11&#45;&gt;Node1 -->
<g id="edge21" class="edge"><title>Node11&#45;&gt;Node1</title>
<path fill="none" stroke="midnightblue" d="M253.636,-224.474C228.499,-218.115 199.988,-207.081 180,-188 135.167,-145.201 104.622,-110.027 135,-56 144.093,-39.8279 161.612,-28.7912 177.322,-21.6965"/>
<polygon fill="midnightblue" stroke="midnightblue" points="178.88,-24.8395 186.779,-17.7778 176.2,-18.3728 178.88,-24.8395"/>
</g>
<!-- Node11&#45;&gt;Node2 -->
<g id="edge22" class="edge"><title>Node11&#45;&gt;Node2</title>
<path fill="none" stroke="midnightblue" d="M262.136,-224.429C239.514,-218.002 213.719,-206.923 197,-188 171.308,-158.921 165.888,-111.534 164.96,-85.5299"/>
<polygon fill="midnightblue" stroke="midnightblue" points="168.46,-85.4586 164.792,-75.5188 161.461,-85.5762 168.46,-85.4586"/>
</g>
<!-- Node11&#45;&gt;Node3 -->
<g id="edge23" class="edge"><title>Node11&#45;&gt;Node3</title>
<path fill="none" stroke="midnightblue" d="M334.904,-224.374C355.421,-216.775 384.163,-204.366 406,-188 445.163,-158.648 477.616,-109.972 493.143,-84.2141"/>
<polygon fill="midnightblue" stroke="midnightblue" points="496.185,-85.9452 498.243,-75.5522 490.153,-82.3932 496.185,-85.9452"/>
</g>
<!-- Node11&#45;&gt;Node5 -->
<g id="edge24" class="edge"><title>Node11&#45;&gt;Node5</title>
<path fill="none" stroke="midnightblue" d="M301.899,-224.083C295.763,-216.377 286.73,-205.033 279.261,-195.653"/>
<polygon fill="midnightblue" stroke="midnightblue" points="281.936,-193.394 272.968,-187.751 276.46,-197.754 281.936,-193.394"/>
</g>
<!-- Node11&#45;&gt;Node6 -->
<g id="edge26" class="edge"><title>Node11&#45;&gt;Node6</title>
<path fill="none" stroke="midnightblue" d="M314.753,-224.327C320.447,-215.472 329.137,-201.192 335,-188 341.773,-172.76 347.441,-154.65 351.175,-141.421"/>
<polygon fill="midnightblue" stroke="midnightblue" points="354.592,-142.195 353.839,-131.627 347.837,-140.358 354.592,-142.195"/>
</g>
<!-- Node11&#45;&gt;Node7 -->
<g id="edge25" class="edge"><title>Node11&#45;&gt;Node7</title>
<path fill="none" stroke="midnightblue" d="M326.238,-224.419C353.437,-209.783 405.336,-177.138 426,-132 436.801,-108.408 409.394,-90.4569 384.146,-79.4592"/>
<polygon fill="midnightblue" stroke="midnightblue" points="385.241,-76.1257 374.659,-75.5874 382.595,-82.6067 385.241,-76.1257"/>
</g>
</g>
</svg>
