<?xml version="1.0" encoding="UTF-8" standalone="no"?>
<!DOCTYPE svg PUBLIC "-//W3C//DTD SVG 1.1//EN"
 "http://www.w3.org/Graphics/SVG/1.1/DTD/svg11.dtd">
<!-- Generated by graphviz version 2.38.0 (20140413.2041)
 -->
<!-- Title: src/Projectiles/Projectile.cpp Pages: 1 -->
<svg width="701pt" height="308pt"
 viewBox="0.00 0.00 701.00 308.00" xmlns="http://www.w3.org/2000/svg" xmlns:xlink="http://www.w3.org/1999/xlink">
<g id="graph0" class="graph" transform="scale(1 1) rotate(0) translate(4 304)">
<title>src/Projectiles/Projectile.cpp</title>
<polygon fill="white" stroke="none" points="-4,4 -4,-304 697,-304 697,4 -4,4"/>
<!-- Node0 -->
<g id="node1" class="node"><title>Node0</title>
<polygon fill="#bfbfbf" stroke="black" points="273.5,-280.5 273.5,-299.5 414.5,-299.5 414.5,-280.5 273.5,-280.5"/>
<text text-anchor="middle" x="344" y="-287.5" font-family="Helvetica,sans-Serif" font-size="10.00">src/Projectiles/Projectile.cpp</text>
</g>
<!-- Node1 -->
<g id="node2" class="node"><title>Node1</title>
<polygon fill="white" stroke="#bfbfbf" points="121,-0.5 121,-19.5 165,-19.5 165,-0.5 121,-0.5"/>
<text text-anchor="middle" x="143" y="-7.5" font-family="Helvetica,sans-Serif" font-size="10.00">vector</text>
</g>
<!-- Node0&#45;&gt;Node1 -->
<g id="edge1" class="edge"><title>Node0&#45;&gt;Node1</title>
<path fill="none" stroke="midnightblue" d="M273.14,-280.875C172.439,-267.324 0,-235.823 0,-179 0,-179 0,-179 0,-121 0,-65.1806 69.3002,-33.77 111.415,-19.8352"/>
<polygon fill="midnightblue" stroke="midnightblue" points="112.488,-23.1667 120.97,-16.8172 110.38,-16.4917 112.488,-23.1667"/>
</g>
<!-- Node2 -->
<g id="node3" class="node"><title>Node2</title>
<polygon fill="white" stroke="#bfbfbf" points="180.5,-56.5 180.5,-75.5 221.5,-75.5 221.5,-56.5 180.5,-56.5"/>
<text text-anchor="middle" x="201" y="-63.5" font-family="Helvetica,sans-Serif" font-size="10.00">string</text>
</g>
<!-- Node0&#45;&gt;Node2 -->
<g id="edge2" class="edge"><title>Node0&#45;&gt;Node2</title>
<path fill="none" stroke="midnightblue" d="M311.652,-280.433C271.231,-267.781 203.866,-239.804 175,-188 158.557,-158.491 164.983,-144.555 174,-112 176.792,-101.921 182.509,-91.832 187.967,-83.7694"/>
<polygon fill="midnightblue" stroke="midnightblue" points="190.825,-85.7899 193.849,-75.6357 185.153,-81.6881 190.825,-85.7899"/>
</g>
<!-- Node3 -->
<g id="node4" class="node"><title>Node3</title>
<polygon fill="white" stroke="#bfbfbf" points="418,-56.5 418,-75.5 474,-75.5 474,-56.5 418,-56.5"/>
<text text-anchor="middle" x="446" y="-63.5" font-family="Helvetica,sans-Serif" font-size="10.00">algorithm</text>
</g>
<!-- Node0&#45;&gt;Node3 -->
<g id="edge3" class="edge"><title>Node0&#45;&gt;Node3</title>
<path fill="none" stroke="midnightblue" d="M374.337,-280.42C392.797,-273.59 415.213,-262.11 428,-244 462.094,-195.715 455.274,-120.712 449.657,-85.9167"/>
<polygon fill="midnightblue" stroke="midnightblue" points="453.048,-84.9922 447.859,-75.7549 446.155,-86.2118 453.048,-84.9922"/>
</g>
<!-- Node4 -->
<g id="node5" class="node"><title>Node4</title>
<polygon fill="white" stroke="#bfbfbf" points="589,-0.5 589,-19.5 693,-19.5 693,-0.5 589,-0.5"/>
<text text-anchor="middle" x="641" y="-7.5" font-family="Helvetica,sans-Serif" font-size="10.00">SFML/Graphics.hpp</text>
</g>
<!-- Node0&#45;&gt;Node4 -->
<g id="edge4" class="edge"><title>Node0&#45;&gt;Node4</title>
<path fill="none" stroke="midnightblue" d="M393.318,-280.454C474.889,-264.905 629,-228.921 629,-179 629,-179 629,-179 629,-121 629,-88.7578 634.158,-51.5116 637.711,-29.6812"/>
<polygon fill="midnightblue" stroke="midnightblue" points="641.212,-29.9673 639.431,-19.5232 634.31,-28.7982 641.212,-29.9673"/>
</g>
<!-- Node5 -->
<g id="node6" class="node"><title>Node5</title>
<g id="a_node6"><a xlink:href="_capacite_8h.html" target="_top" xlink:title="../Capacites/Capacite.h">
<polygon fill="white" stroke="black" points="196,-168.5 196,-187.5 316,-187.5 316,-168.5 196,-168.5"/>
<text text-anchor="middle" x="256" y="-175.5" font-family="Helvetica,sans-Serif" font-size="10.00">../Capacites/Capacite.h</text>
</a>
</g>
</g>
<!-- Node0&#45;&gt;Node5 -->
<g id="edge5" class="edge"><title>Node0&#45;&gt;Node5</title>
<path fill="none" stroke="midnightblue" d="M323.983,-280.381C308.758,-272.858 288.382,-260.549 276,-244 265.842,-230.424 260.787,-211.624 258.306,-197.734"/>
<polygon fill="midnightblue" stroke="midnightblue" points="261.767,-197.21 256.82,-187.841 254.845,-198.25 261.767,-197.21"/>
</g>
<!-- Node6 -->
<g id="node7" class="node"><title>Node6</title>
<g id="a_node7"><a xlink:href="_projectile_8h.html" target="_top" xlink:title="../Projectiles/Projectile.h">
<polygon fill="white" stroke="black" points="256.5,-112.5 256.5,-131.5 379.5,-131.5 379.5,-112.5 256.5,-112.5"/>
<text text-anchor="middle" x="318" y="-119.5" font-family="Helvetica,sans-Serif" font-size="10.00">../Projectiles/Projectile.h</text>
</a>
</g>
</g>
<!-- Node0&#45;&gt;Node6 -->
<g id="edge32" class="edge"><title>Node0&#45;&gt;Node6</title>
<path fill="none" stroke="midnightblue" d="M367.454,-280.408C383.161,-273.28 402.619,-261.458 412,-244 416.208,-236.17 415.254,-232.272 412,-224 397.383,-186.839 361.943,-155.248 338.997,-137.729"/>
<polygon fill="midnightblue" stroke="midnightblue" points="341.004,-134.86 330.884,-131.722 336.838,-140.486 341.004,-134.86"/>
</g>
<!-- Node11 -->
<g id="node12" class="node"><title>Node11</title>
<g id="a_node12"><a xlink:href="_vaisseau_8h.html" target="_top" xlink:title="../Vaisseau/Vaisseau.h">
<polygon fill="white" stroke="black" points="285,-224.5 285,-243.5 403,-243.5 403,-224.5 285,-224.5"/>
<text text-anchor="middle" x="344" y="-231.5" font-family="Helvetica,sans-Serif" font-size="10.00">../Vaisseau/Vaisseau.h</text>
</a>
</g>
</g>
<!-- Node0&#45;&gt;Node11 -->
<g id="edge20" class="edge"><title>Node0&#45;&gt;Node11</title>
<path fill="none" stroke="midnightblue" d="M344,-280.083C344,-273.006 344,-262.861 344,-253.986"/>
<polygon fill="midnightblue" stroke="midnightblue" points="347.5,-253.751 344,-243.751 340.5,-253.751 347.5,-253.751"/>
</g>
<!-- Node5&#45;&gt;Node1 -->
<g id="edge6" class="edge"><title>Node5&#45;&gt;Node1</title>
<path fill="none" stroke="midnightblue" d="M243.563,-168.397C232.079,-160.028 215.03,-146.487 203,-132 176.511,-100.101 157.989,-54.537 149.066,-29.4064"/>
<polygon fill="midnightblue" stroke="midnightblue" points="152.293,-28.028 145.74,-19.7027 145.671,-30.2973 152.293,-28.028"/>
</g>
<!-- Node5&#45;&gt;Node2 -->
<g id="edge7" class="edge"><title>Node5&#45;&gt;Node2</title>
<path fill="none" stroke="midnightblue" d="M244.889,-168.234C235.187,-159.952 221.514,-146.642 214,-132 206.611,-117.602 203.417,-99.4085 202.039,-85.9339"/>
<polygon fill="midnightblue" stroke="midnightblue" points="205.524,-85.6091 201.256,-75.912 198.545,-86.1542 205.524,-85.6091"/>
</g>
<!-- Node5&#45;&gt;Node3 -->
<g id="edge8" class="edge"><title>Node5&#45;&gt;Node3</title>
<path fill="none" stroke="midnightblue" d="M298.333,-168.448C325.538,-161.586 360.757,-150.06 388,-132 407.027,-119.387 423.78,-99.0513 434.326,-84.4843"/>
<polygon fill="midnightblue" stroke="midnightblue" points="437.474,-86.0888 440.321,-75.8838 431.731,-82.0857 437.474,-86.0888"/>
</g>
<!-- Node5&#45;&gt;Node6 -->
<g id="edge9" class="edge"><title>Node5&#45;&gt;Node6</title>
<path fill="none" stroke="midnightblue" d="M265.961,-168.324C275.127,-160.341 288.937,-148.313 300.028,-138.653"/>
<polygon fill="midnightblue" stroke="midnightblue" points="302.615,-141.041 307.857,-131.834 298.018,-135.762 302.615,-141.041"/>
</g>
<!-- Node7 -->
<g id="node8" class="node"><title>Node7</title>
<g id="a_node8"><a xlink:href="_entite_8h.html" target="_top" xlink:title="../Entite.h">
<polygon fill="white" stroke="black" points="283.5,-56.5 283.5,-75.5 342.5,-75.5 342.5,-56.5 283.5,-56.5"/>
<text text-anchor="middle" x="313" y="-63.5" font-family="Helvetica,sans-Serif" font-size="10.00">../Entite.h</text>
</a>
</g>
</g>
<!-- Node5&#45;&gt;Node7 -->
<g id="edge19" class="edge"><title>Node5&#45;&gt;Node7</title>
<path fill="none" stroke="midnightblue" d="M251.75,-168.441C245.948,-155.451 237.312,-130.331 247,-112 254.424,-97.9533 268.421,-87.4667 281.621,-80.167"/>
<polygon fill="midnightblue" stroke="midnightblue" points="283.223,-83.2788 290.541,-75.6178 280.043,-77.0428 283.223,-83.2788"/>
</g>
<!-- Node6&#45;&gt;Node1 -->
<g id="edge10" class="edge"><title>Node6&#45;&gt;Node1</title>
<path fill="none" stroke="midnightblue" d="M307.548,-112.425C291.444,-99.4139 259.347,-74.2674 230,-56 210.876,-44.0961 188.248,-32.4624 170.864,-24.0068"/>
<polygon fill="midnightblue" stroke="midnightblue" points="172.33,-20.8284 161.801,-19.6546 169.3,-27.1385 172.33,-20.8284"/>
</g>
<!-- Node6&#45;&gt;Node2 -->
<g id="edge11" class="edge"><title>Node6&#45;&gt;Node2</title>
<path fill="none" stroke="midnightblue" d="M299.461,-112.444C280.377,-103.636 250.425,-89.8116 228.564,-79.722"/>
<polygon fill="midnightblue" stroke="midnightblue" points="229.999,-76.5292 219.452,-75.5164 227.065,-82.8849 229.999,-76.5292"/>
</g>
<!-- Node6&#45;&gt;Node3 -->
<g id="edge12" class="edge"><title>Node6&#45;&gt;Node3</title>
<path fill="none" stroke="midnightblue" d="M338.282,-112.444C359.347,-103.557 392.517,-89.5632 416.486,-79.4514"/>
<polygon fill="midnightblue" stroke="midnightblue" points="417.96,-82.6283 425.813,-75.5164 415.239,-76.1787 417.96,-82.6283"/>
</g>
<!-- Node6&#45;&gt;Node7 -->
<g id="edge13" class="edge"><title>Node6&#45;&gt;Node7</title>
<path fill="none" stroke="midnightblue" d="M317.174,-112.083C316.519,-105.006 315.58,-94.8611 314.758,-85.9865"/>
<polygon fill="midnightblue" stroke="midnightblue" points="318.217,-85.3858 313.81,-75.7511 311.247,-86.0312 318.217,-85.3858"/>
</g>
<!-- Node7&#45;&gt;Node1 -->
<g id="edge14" class="edge"><title>Node7&#45;&gt;Node1</title>
<path fill="none" stroke="midnightblue" d="M286.063,-56.4435C255.903,-46.8634 207.062,-31.3492 174.986,-21.1604"/>
<polygon fill="midnightblue" stroke="midnightblue" points="175.796,-17.7454 165.206,-18.0537 173.677,-24.4169 175.796,-17.7454"/>
</g>
<!-- Node7&#45;&gt;Node4 -->
<g id="edge17" class="edge"><title>Node7&#45;&gt;Node4</title>
<path fill="none" stroke="midnightblue" d="M342.686,-60.1126C395.894,-51.3528 508.525,-32.8099 579.153,-21.1822"/>
<polygon fill="midnightblue" stroke="midnightblue" points="579.958,-24.5968 589.256,-19.5188 578.821,-17.6898 579.958,-24.5968"/>
</g>
<!-- Node8 -->
<g id="node9" class="node"><title>Node8</title>
<polygon fill="white" stroke="#bfbfbf" points="183,-0.5 183,-19.5 235,-19.5 235,-0.5 183,-0.5"/>
<text text-anchor="middle" x="209" y="-7.5" font-family="Helvetica,sans-Serif" font-size="10.00">memory</text>
</g>
<!-- Node7&#45;&gt;Node8 -->
<g id="edge15" class="edge"><title>Node7&#45;&gt;Node8</title>
<path fill="none" stroke="midnightblue" d="M296.291,-56.324C279.688,-47.7034 253.998,-34.3643 234.78,-24.3855"/>
<polygon fill="midnightblue" stroke="midnightblue" points="236.156,-21.1565 225.668,-19.6545 232.93,-27.3689 236.156,-21.1565"/>
</g>
<!-- Node9 -->
<g id="node10" class="node"><title>Node9</title>
<polygon fill="white" stroke="#bfbfbf" points="253,-0.5 253,-19.5 351,-19.5 351,-0.5 253,-0.5"/>
<text text-anchor="middle" x="302" y="-7.5" font-family="Helvetica,sans-Serif" font-size="10.00">SFML/System.hpp</text>
</g>
<!-- Node7&#45;&gt;Node9 -->
<g id="edge16" class="edge"><title>Node7&#45;&gt;Node9</title>
<path fill="none" stroke="midnightblue" d="M311.184,-56.083C309.726,-48.9272 307.629,-38.6353 305.807,-29.6911"/>
<polygon fill="midnightblue" stroke="midnightblue" points="309.208,-28.8512 303.783,-19.7511 302.349,-30.2485 309.208,-28.8512"/>
</g>
<!-- Node10 -->
<g id="node11" class="node"><title>Node10</title>
<g id="a_node11"><a xlink:href="constantes_8h.html" target="_top" xlink:title="constantes.h">
<polygon fill="white" stroke="black" points="369.5,-0.5 369.5,-19.5 442.5,-19.5 442.5,-0.5 369.5,-0.5"/>
<text text-anchor="middle" x="406" y="-7.5" font-family="Helvetica,sans-Serif" font-size="10.00">constantes.h</text>
</a>
</g>
</g>
<!-- Node7&#45;&gt;Node10 -->
<g id="edge18" class="edge"><title>Node7&#45;&gt;Node10</title>
<path fill="none" stroke="midnightblue" d="M327.942,-56.324C342.585,-47.8215 365.134,-34.7288 382.238,-24.7975"/>
<polygon fill="midnightblue" stroke="midnightblue" points="384.205,-27.7027 391.095,-19.6545 380.69,-21.6491 384.205,-27.7027"/>
</g>
<!-- Node11&#45;&gt;Node1 -->
<g id="edge21" class="edge"><title>Node11&#45;&gt;Node1</title>
<path fill="none" stroke="midnightblue" d="M284.789,-230.141C251.761,-225.453 212.303,-214.217 187,-188 144.538,-144.004 141.1,-65.6724 141.973,-29.8366"/>
<polygon fill="midnightblue" stroke="midnightblue" points="145.473,-29.9209 142.365,-19.7923 138.478,-29.6485 145.473,-29.9209"/>
</g>
<!-- Node11&#45;&gt;Node2 -->
<g id="edge22" class="edge"><title>Node11&#45;&gt;Node2</title>
<path fill="none" stroke="midnightblue" d="M289.261,-224.448C249.109,-216.926 199.5,-204.587 187,-188 164.18,-157.72 180.193,-110.501 191.837,-84.9234"/>
<polygon fill="midnightblue" stroke="midnightblue" points="195.101,-86.2128 196.288,-75.6847 188.794,-83.1745 195.101,-86.2128"/>
</g>
<!-- Node11&#45;&gt;Node3 -->
<g id="edge23" class="edge"><title>Node11&#45;&gt;Node3</title>
<path fill="none" stroke="midnightblue" d="M358.108,-224.192C370.122,-216.07 387.119,-203.023 398,-188 421.337,-155.78 435.276,-110.656 441.707,-85.6099"/>
<polygon fill="midnightblue" stroke="midnightblue" points="445.171,-86.1785 444.14,-75.6339 438.37,-84.5197 445.171,-86.1785"/>
</g>
<!-- Node11&#45;&gt;Node5 -->
<g id="edge24" class="edge"><title>Node11&#45;&gt;Node5</title>
<path fill="none" stroke="midnightblue" d="M329.861,-224.324C316.134,-215.9 295.064,-202.971 278.936,-193.074"/>
<polygon fill="midnightblue" stroke="midnightblue" points="280.457,-189.902 270.104,-187.655 276.796,-195.868 280.457,-189.902"/>
</g>
<!-- Node11&#45;&gt;Node6 -->
<g id="edge26" class="edge"><title>Node11&#45;&gt;Node6</title>
<path fill="none" stroke="midnightblue" d="M341.96,-224.368C337.764,-206.617 328.085,-165.666 322.396,-141.597"/>
<polygon fill="midnightblue" stroke="midnightblue" points="325.737,-140.518 320.031,-131.591 318.925,-142.128 325.737,-140.518"/>
</g>
<!-- Node11&#45;&gt;Node7 -->
<g id="edge25" class="edge"><title>Node11&#45;&gt;Node7</title>
<path fill="none" stroke="midnightblue" d="M352.017,-224.365C369.99,-203.913 410.247,-151.292 388,-112 379.653,-97.2584 364.338,-86.8192 349.713,-79.7321"/>
<polygon fill="midnightblue" stroke="midnightblue" points="350.842,-76.4041 340.282,-75.5474 348.003,-82.8025 350.842,-76.4041"/>
</g>
<!-- Node12 -->
<g id="node13" class="node"><title>Node12</title>
<g id="a_node13"><a xlink:href="_input_8h.html" target="_top" xlink:title="../Interface/Input.h">
<polygon fill="white" stroke="black" points="492.5,-56.5 492.5,-75.5 589.5,-75.5 589.5,-56.5 492.5,-56.5"/>
<text text-anchor="middle" x="541" y="-63.5" font-family="Helvetica,sans-Serif" font-size="10.00">../Interface/Input.h</text>
</a>
</g>
</g>
<!-- Node11&#45;&gt;Node12 -->
<g id="edge27" class="edge"><title>Node11&#45;&gt;Node12</title>
<path fill="none" stroke="midnightblue" d="M360.831,-224.421C376.539,-216.069 400.299,-202.54 419,-188 461.766,-154.751 505.246,-107.789 526.909,-83.2983"/>
<polygon fill="midnightblue" stroke="midnightblue" points="529.669,-85.4603 533.625,-75.632 524.403,-80.8477 529.669,-85.4603"/>
</g>
<!-- Node12&#45;&gt;Node4 -->
<g id="edge28" class="edge"><title>Node12&#45;&gt;Node4</title>
<path fill="none" stroke="midnightblue" d="M557.067,-56.324C572.958,-47.7428 597.507,-34.486 615.958,-24.5224"/>
<polygon fill="midnightblue" stroke="midnightblue" points="617.837,-27.4857 624.973,-19.6545 614.511,-21.3264 617.837,-27.4857"/>
</g>
<!-- Node12&#45;&gt;Node10 -->
<g id="edge31" class="edge"><title>Node12&#45;&gt;Node10</title>
<path fill="none" stroke="midnightblue" d="M519.609,-56.4435C497.293,-47.5171 462.097,-33.4387 436.792,-23.3168"/>
<polygon fill="midnightblue" stroke="midnightblue" points="437.876,-19.9807 427.291,-19.5164 435.276,-26.4801 437.876,-19.9807"/>
</g>
<!-- Node13 -->
<g id="node14" class="node"><title>Node13</title>
<polygon fill="white" stroke="#bfbfbf" points="461,-0.5 461,-19.5 511,-19.5 511,-0.5 461,-0.5"/>
<text text-anchor="middle" x="486" y="-7.5" font-family="Helvetica,sans-Serif" font-size="10.00">optional</text>
</g>
<!-- Node12&#45;&gt;Node13 -->
<g id="edge29" class="edge"><title>Node12&#45;&gt;Node13</title>
<path fill="none" stroke="midnightblue" d="M531.918,-56.083C523.829,-48.1409 511.805,-36.3354 502.09,-26.7973"/>
<polygon fill="midnightblue" stroke="midnightblue" points="504.501,-24.2595 494.913,-19.7511 499.597,-29.2545 504.501,-24.2595"/>
</g>
<!-- Node14 -->
<g id="node15" class="node"><title>Node14</title>
<polygon fill="white" stroke="#bfbfbf" points="529.5,-0.5 529.5,-19.5 570.5,-19.5 570.5,-0.5 529.5,-0.5"/>
<text text-anchor="middle" x="550" y="-7.5" font-family="Helvetica,sans-Serif" font-size="10.00">bitset</text>
</g>
<!-- Node12&#45;&gt;Node14 -->
<g id="edge30" class="edge"><title>Node12&#45;&gt;Node14</title>
<path fill="none" stroke="midnightblue" d="M542.486,-56.083C543.679,-48.9272 545.394,-38.6353 546.885,-29.6911"/>
<polygon fill="midnightblue" stroke="midnightblue" points="550.35,-30.1904 548.541,-19.7511 543.445,-29.0396 550.35,-30.1904"/>
</g>
</g>
</svg>
