<?xml version="1.0" encoding="UTF-8" standalone="no"?>
<!DOCTYPE svg PUBLIC "-//W3C//DTD SVG 1.1//EN"
 "http://www.w3.org/Graphics/SVG/1.1/DTD/svg11.dtd">
<!-- Generated by graphviz version 2.38.0 (20140413.2041)
 -->
<!-- Title: src/Projectiles/ProjMissile.h Pages: 1 -->
<svg width="874pt" height="364pt"
 viewBox="0.00 0.00 873.50 364.00" xmlns="http://www.w3.org/2000/svg" xmlns:xlink="http://www.w3.org/1999/xlink">
<g id="graph0" class="graph" transform="scale(1 1) rotate(0) translate(4 360)">
<title>src/Projectiles/ProjMissile.h</title>
<polygon fill="white" stroke="none" points="-4,4 -4,-360 869.5,-360 869.5,4 -4,4"/>
<!-- Node10 -->
<g id="node1" class="node"><title>Node10</title>
<polygon fill="#bfbfbf" stroke="black" points="559,-336.5 559,-355.5 697,-355.5 697,-336.5 559,-336.5"/>
<text text-anchor="middle" x="628" y="-343.5" font-family="Helvetica,sans-Serif" font-size="10.00">src/Projectiles/ProjMissile.h</text>
</g>
<!-- Node11 -->
<g id="node2" class="node"><title>Node11</title>
<g id="a_node2"><a xlink:href="_cap_missile_8h.html" target="_top" xlink:title="src/Capacites/CapMissile.h">
<polygon fill="white" stroke="black" points="335.5,-280.5 335.5,-299.5 472.5,-299.5 472.5,-280.5 335.5,-280.5"/>
<text text-anchor="middle" x="404" y="-287.5" font-family="Helvetica,sans-Serif" font-size="10.00">src/Capacites/CapMissile.h</text>
</a>
</g>
</g>
<!-- Node10&#45;&gt;Node11 -->
<g id="edge1" class="edge"><title>Node10&#45;&gt;Node11</title>
<path fill="none" stroke="midnightblue" d="M582.737,-334.088C540.418,-323.887 478.091,-308.861 439.327,-299.516"/>
<polygon fill="midnightblue" stroke="midnightblue" points="581.965,-337.502 592.507,-336.444 583.605,-330.697 581.965,-337.502"/>
</g>
<!-- Node22 -->
<g id="node13" class="node"><title>Node22</title>
<g id="a_node13"><a xlink:href="__projectiles_8h.html" target="_top" xlink:title="src/Projectiles/_projectiles.h">
<polygon fill="white" stroke="black" points="558,-280.5 558,-299.5 698,-299.5 698,-280.5 558,-280.5"/>
<text text-anchor="middle" x="628" y="-287.5" font-family="Helvetica,sans-Serif" font-size="10.00">src/Projectiles/_projectiles.h</text>
</a>
</g>
</g>
<!-- Node10&#45;&gt;Node22 -->
<g id="edge15" class="edge"><title>Node10&#45;&gt;Node22</title>
<path fill="none" stroke="midnightblue" d="M628,-325.805C628,-316.91 628,-306.78 628,-299.751"/>
<polygon fill="midnightblue" stroke="midnightblue" points="624.5,-326.083 628,-336.083 631.5,-326.083 624.5,-326.083"/>
</g>
<!-- Node24 -->
<g id="node15" class="node"><title>Node24</title>
<g id="a_node15"><a xlink:href="_proj_missile_8cpp.html" target="_top" xlink:title="src/Projectiles/ProjMissile.cpp">
<polygon fill="white" stroke="black" points="716.5,-280.5 716.5,-299.5 865.5,-299.5 865.5,-280.5 716.5,-280.5"/>
<text text-anchor="middle" x="791" y="-287.5" font-family="Helvetica,sans-Serif" font-size="10.00">src/Projectiles/ProjMissile.cpp</text>
</a>
</g>
</g>
<!-- Node10&#45;&gt;Node24 -->
<g id="edge18" class="edge"><title>Node10&#45;&gt;Node24</title>
<path fill="none" stroke="midnightblue" d="M663.703,-333.172C694.396,-323.004 737.919,-308.585 765.293,-299.516"/>
<polygon fill="midnightblue" stroke="midnightblue" points="662.22,-329.976 653.828,-336.444 664.421,-336.621 662.22,-329.976"/>
</g>
<!-- Node12 -->
<g id="node3" class="node"><title>Node12</title>
<g id="a_node3"><a xlink:href="___capacites_8h.html" target="_top" xlink:title="src/Capacites/_Capacites.h">
<polygon fill="white" stroke="black" points="269,-224.5 269,-243.5 407,-243.5 407,-224.5 269,-224.5"/>
<text text-anchor="middle" x="338" y="-231.5" font-family="Helvetica,sans-Serif" font-size="10.00">src/Capacites/_Capacites.h</text>
</a>
</g>
</g>
<!-- Node11&#45;&gt;Node12 -->
<g id="edge2" class="edge"><title>Node11&#45;&gt;Node12</title>
<path fill="none" stroke="midnightblue" d="M385.446,-273.82C373.622,-264.145 358.714,-251.948 348.797,-243.834"/>
<polygon fill="midnightblue" stroke="midnightblue" points="383.44,-276.7 393.396,-280.324 387.873,-271.283 383.44,-276.7"/>
</g>
<!-- Node19 -->
<g id="node10" class="node"><title>Node19</title>
<g id="a_node10"><a xlink:href="_cap_missile_8cpp.html" target="_top" xlink:title="src/Capacites/CapMissile.cpp">
<polygon fill="white" stroke="black" points="425,-224.5 425,-243.5 573,-243.5 573,-224.5 425,-224.5"/>
<text text-anchor="middle" x="499" y="-231.5" font-family="Helvetica,sans-Serif" font-size="10.00">src/Capacites/CapMissile.cpp</text>
</a>
</g>
</g>
<!-- Node11&#45;&gt;Node19 -->
<g id="edge11" class="edge"><title>Node11&#45;&gt;Node19</title>
<path fill="none" stroke="midnightblue" d="M428.318,-275.177C445.799,-265.241 468.83,-252.149 483.774,-243.655"/>
<polygon fill="midnightblue" stroke="midnightblue" points="426.227,-272.339 419.263,-280.324 429.687,-278.425 426.227,-272.339"/>
</g>
<!-- Node20 -->
<g id="node11" class="node"><title>Node20</title>
<g id="a_node11"><a xlink:href="_vaisseau_attaquant_8h.html" target="_top" xlink:title="src/Vaisseau/VaisseauAttaquant.h">
<polygon fill="white" stroke="black" points="83.5,-224.5 83.5,-243.5 250.5,-243.5 250.5,-224.5 83.5,-224.5"/>
<text text-anchor="middle" x="167" y="-231.5" font-family="Helvetica,sans-Serif" font-size="10.00">src/Vaisseau/VaisseauAttaquant.h</text>
</a>
</g>
</g>
<!-- Node11&#45;&gt;Node20 -->
<g id="edge12" class="edge"><title>Node11&#45;&gt;Node20</title>
<path fill="none" stroke="midnightblue" d="M356.676,-278.217C311.892,-268.013 245.564,-252.901 204.378,-243.516"/>
<polygon fill="midnightblue" stroke="midnightblue" points="355.919,-281.634 366.447,-280.444 357.474,-274.809 355.919,-281.634"/>
</g>
<!-- Node13 -->
<g id="node4" class="node"><title>Node13</title>
<g id="a_node4"><a xlink:href="_partie_8cpp.html" target="_top" xlink:title="src/Partie.cpp">
<polygon fill="white" stroke="black" points="387.5,-0.5 387.5,-19.5 464.5,-19.5 464.5,-0.5 387.5,-0.5"/>
<text text-anchor="middle" x="426" y="-7.5" font-family="Helvetica,sans-Serif" font-size="10.00">src/Partie.cpp</text>
</a>
</g>
</g>
<!-- Node12&#45;&gt;Node13 -->
<g id="edge3" class="edge"><title>Node12&#45;&gt;Node13</title>
<path fill="none" stroke="midnightblue" d="M369.357,-220.06C385.441,-212.374 404.618,-201.487 419,-188 440.583,-167.761 446.662,-160.389 455,-132 467.236,-90.3399 442.38,-39.5063 431.135,-19.5866"/>
<polygon fill="midnightblue" stroke="midnightblue" points="367.45,-217.083 359.812,-224.426 370.362,-223.449 367.45,-217.083"/>
</g>
<!-- Node14 -->
<g id="node5" class="node"><title>Node14</title>
<g id="a_node5"><a xlink:href="_vaisseau_test_8h.html" target="_top" xlink:title="src/Vaisseau/VaisseauTest.h">
<polygon fill="white" stroke="black" points="265.5,-168.5 265.5,-187.5 410.5,-187.5 410.5,-168.5 265.5,-168.5"/>
<text text-anchor="middle" x="338" y="-175.5" font-family="Helvetica,sans-Serif" font-size="10.00">src/Vaisseau/VaisseauTest.h</text>
</a>
</g>
</g>
<!-- Node12&#45;&gt;Node14 -->
<g id="edge4" class="edge"><title>Node12&#45;&gt;Node14</title>
<path fill="none" stroke="midnightblue" d="M338,-213.805C338,-204.91 338,-194.78 338,-187.751"/>
<polygon fill="midnightblue" stroke="midnightblue" points="334.5,-214.083 338,-224.083 341.5,-214.083 334.5,-214.083"/>
</g>
<!-- Node15 -->
<g id="node6" class="node"><title>Node15</title>
<g id="a_node6"><a xlink:href="__vaisseaux_8h.html" target="_top" xlink:title="src/Vaisseau/_vaisseaux.h">
<polygon fill="white" stroke="black" points="139,-112.5 139,-131.5 273,-131.5 273,-112.5 139,-112.5"/>
<text text-anchor="middle" x="206" y="-119.5" font-family="Helvetica,sans-Serif" font-size="10.00">src/Vaisseau/_vaisseaux.h</text>
</a>
</g>
</g>
<!-- Node14&#45;&gt;Node15 -->
<g id="edge5" class="edge"><title>Node14&#45;&gt;Node15</title>
<path fill="none" stroke="midnightblue" d="M307.781,-164.638C283.01,-154.504 248.6,-140.427 226.818,-131.516"/>
<polygon fill="midnightblue" stroke="midnightblue" points="306.503,-167.897 317.084,-168.444 309.154,-161.418 306.503,-167.897"/>
</g>
<!-- Node18 -->
<g id="node9" class="node"><title>Node18</title>
<g id="a_node9"><a xlink:href="_vaisseau_test_8cpp.html" target="_top" xlink:title="src/Vaisseau/VaisseauTest.cpp">
<polygon fill="white" stroke="black" points="291.5,-112.5 291.5,-131.5 446.5,-131.5 446.5,-112.5 291.5,-112.5"/>
<text text-anchor="middle" x="369" y="-119.5" font-family="Helvetica,sans-Serif" font-size="10.00">src/Vaisseau/VaisseauTest.cpp</text>
</a>
</g>
</g>
<!-- Node14&#45;&gt;Node18 -->
<g id="edge10" class="edge"><title>Node14&#45;&gt;Node18</title>
<path fill="none" stroke="midnightblue" d="M348.176,-159.275C353.474,-150.045 359.717,-139.17 363.976,-131.751"/>
<polygon fill="midnightblue" stroke="midnightblue" points="345.062,-157.668 343.119,-168.083 351.133,-161.153 345.062,-157.668"/>
</g>
<!-- Node15&#45;&gt;Node13 -->
<g id="edge6" class="edge"><title>Node15&#45;&gt;Node13</title>
<path fill="none" stroke="midnightblue" d="M243.377,-109.131C267.261,-101 298.592,-89.3042 325,-76 359.079,-58.831 396.047,-32.9932 414.359,-19.6537"/>
<polygon fill="midnightblue" stroke="midnightblue" points="242.006,-105.899 233.633,-112.392 244.227,-112.537 242.006,-105.899"/>
</g>
<!-- Node16 -->
<g id="node7" class="node"><title>Node16</title>
<g id="a_node7"><a xlink:href="vague_8h.html" target="_top" xlink:title="src/vague.h">
<polygon fill="white" stroke="black" points="248,-56.5 248,-75.5 316,-75.5 316,-56.5 248,-56.5"/>
<text text-anchor="middle" x="282" y="-63.5" font-family="Helvetica,sans-Serif" font-size="10.00">src/vague.h</text>
</a>
</g>
</g>
<!-- Node15&#45;&gt;Node16 -->
<g id="edge7" class="edge"><title>Node15&#45;&gt;Node16</title>
<path fill="none" stroke="midnightblue" d="M226.576,-106.38C240.312,-96.6204 257.925,-84.1057 269.567,-75.8339"/>
<polygon fill="midnightblue" stroke="midnightblue" points="224.335,-103.679 218.211,-112.324 228.39,-109.385 224.335,-103.679"/>
</g>
<!-- Node16&#45;&gt;Node13 -->
<g id="edge8" class="edge"><title>Node16&#45;&gt;Node13</title>
<path fill="none" stroke="midnightblue" d="M314.251,-52.9058C341.324,-42.7536 379.317,-28.5063 403.29,-19.5164"/>
<polygon fill="midnightblue" stroke="midnightblue" points="312.952,-49.6551 304.817,-56.4435 315.409,-56.2094 312.952,-49.6551"/>
</g>
<!-- Node17 -->
<g id="node8" class="node"><title>Node17</title>
<g id="a_node8"><a xlink:href="vague_8cpp.html" target="_top" xlink:title="src/vague.cpp">
<polygon fill="white" stroke="black" points="243,-0.5 243,-19.5 321,-19.5 321,-0.5 243,-0.5"/>
<text text-anchor="middle" x="282" y="-7.5" font-family="Helvetica,sans-Serif" font-size="10.00">src/vague.cpp</text>
</a>
</g>
</g>
<!-- Node16&#45;&gt;Node17 -->
<g id="edge9" class="edge"><title>Node16&#45;&gt;Node17</title>
<path fill="none" stroke="midnightblue" d="M282,-45.8045C282,-36.9102 282,-26.7798 282,-19.7511"/>
<polygon fill="midnightblue" stroke="midnightblue" points="278.5,-46.083 282,-56.083 285.5,-46.083 278.5,-46.083"/>
</g>
<!-- Node20&#45;&gt;Node15 -->
<g id="edge13" class="edge"><title>Node20&#45;&gt;Node15</title>
<path fill="none" stroke="midnightblue" d="M175.688,-214.946C179.427,-206.815 183.69,-197.031 187,-188 194.283,-168.13 200.717,-144.067 203.896,-131.531"/>
<polygon fill="midnightblue" stroke="midnightblue" points="172.433,-213.642 171.342,-224.18 178.767,-216.622 172.433,-213.642"/>
</g>
<!-- Node21 -->
<g id="node12" class="node"><title>Node21</title>
<g id="a_node12"><a xlink:href="_vaisseau_attaquant_8cpp.html" target="_top" xlink:title="src/Vaisseau/VaisseauAttaquant.cpp">
<polygon fill="white" stroke="black" points="0,-168.5 0,-187.5 178,-187.5 178,-168.5 0,-168.5"/>
<text text-anchor="middle" x="89" y="-175.5" font-family="Helvetica,sans-Serif" font-size="10.00">src/Vaisseau/VaisseauAttaquant.cpp</text>
</a>
</g>
</g>
<!-- Node20&#45;&gt;Node21 -->
<g id="edge14" class="edge"><title>Node20&#45;&gt;Node21</title>
<path fill="none" stroke="midnightblue" d="M146.232,-218.622C131.983,-208.757 113.544,-195.992 101.501,-187.655"/>
<polygon fill="midnightblue" stroke="midnightblue" points="144.254,-221.51 154.468,-224.324 148.238,-215.754 144.254,-221.51"/>
</g>
<!-- Node22&#45;&gt;Node13 -->
<g id="edge17" class="edge"><title>Node22&#45;&gt;Node13</title>
<path fill="none" stroke="midnightblue" d="M647.29,-273.586C656.205,-265.586 666.281,-255.16 673,-244 688.59,-218.106 693,-209.225 693,-179 693,-179 693,-179 693,-121 693,-23.3641 538.479,-10.6196 464.539,-10.1102"/>
<polygon fill="midnightblue" stroke="midnightblue" points="644.881,-271.042 639.559,-280.203 649.432,-276.36 644.881,-271.042"/>
</g>
<!-- Node23 -->
<g id="node14" class="node"><title>Node23</title>
<g id="a_node14"><a xlink:href="main_8cpp.html" target="_top" xlink:title="src/main.cpp">
<polygon fill="white" stroke="black" points="591.5,-224.5 591.5,-243.5 664.5,-243.5 664.5,-224.5 591.5,-224.5"/>
<text text-anchor="middle" x="628" y="-231.5" font-family="Helvetica,sans-Serif" font-size="10.00">src/main.cpp</text>
</a>
</g>
</g>
<!-- Node22&#45;&gt;Node23 -->
<g id="edge16" class="edge"><title>Node22&#45;&gt;Node23</title>
<path fill="none" stroke="midnightblue" d="M628,-269.805C628,-260.91 628,-250.78 628,-243.751"/>
<polygon fill="midnightblue" stroke="midnightblue" points="624.5,-270.083 628,-280.083 631.5,-270.083 624.5,-270.083"/>
</g>
</g>
</svg>
