<?xml version="1.0" encoding="UTF-8" standalone="no"?>
<!DOCTYPE svg PUBLIC "-//W3C//DTD SVG 1.1//EN"
 "http://www.w3.org/Graphics/SVG/1.1/DTD/svg11.dtd">
<!-- Generated by graphviz version 2.38.0 (20140413.2041)
 -->
<!-- Title: src/Projectiles/Projectile.h Pages: 1 -->
<svg width="1581pt" height="252pt"
 viewBox="0.00 0.00 1580.50 252.00" xmlns="http://www.w3.org/2000/svg" xmlns:xlink="http://www.w3.org/1999/xlink">
<g id="graph0" class="graph" transform="scale(1 1) rotate(0) translate(4 248)">
<title>src/Projectiles/Projectile.h</title>
<polygon fill="white" stroke="none" points="-4,4 -4,-248 1576.5,-248 1576.5,4 -4,4"/>
<!-- Node7 -->
<g id="node1" class="node"><title>Node7</title>
<polygon fill="#bfbfbf" stroke="black" points="934,-224.5 934,-243.5 1065,-243.5 1065,-224.5 934,-224.5"/>
<text text-anchor="middle" x="999.5" y="-231.5" font-family="Helvetica,sans-Serif" font-size="10.00">src/Projectiles/Projectile.h</text>
</g>
<!-- Node8 -->
<g id="node2" class="node"><title>Node8</title>
<g id="a_node2"><a xlink:href="_capacite_8h.html" target="_top" xlink:title="src/Capacites/Capacite.h">
<polygon fill="white" stroke="black" points="981.5,-168.5 981.5,-187.5 1109.5,-187.5 1109.5,-168.5 981.5,-168.5"/>
<text text-anchor="middle" x="1045.5" y="-175.5" font-family="Helvetica,sans-Serif" font-size="10.00">src/Capacites/Capacite.h</text>
</a>
</g>
</g>
<!-- Node7&#45;&gt;Node8 -->
<g id="edge1" class="edge"><title>Node7&#45;&gt;Node8</title>
<path fill="none" stroke="midnightblue" d="M1013.61,-216.431C1021.68,-206.967 1031.46,-195.483 1038.05,-187.751"/>
<polygon fill="midnightblue" stroke="midnightblue" points="1010.92,-214.201 1007.1,-224.083 1016.25,-218.74 1010.92,-214.201"/>
</g>
<!-- Node9 -->
<g id="node3" class="node"><title>Node9</title>
<g id="a_node3"><a xlink:href="_cap_test_8h.html" target="_top" xlink:title="src/Capacites/CapTest.h">
<polygon fill="white" stroke="black" points="499.5,-112.5 499.5,-131.5 625.5,-131.5 625.5,-112.5 499.5,-112.5"/>
<text text-anchor="middle" x="562.5" y="-119.5" font-family="Helvetica,sans-Serif" font-size="10.00">src/Capacites/CapTest.h</text>
</a>
</g>
</g>
<!-- Node7&#45;&gt;Node9 -->
<g id="edge28" class="edge"><title>Node7&#45;&gt;Node9</title>
<path fill="none" stroke="midnightblue" d="M923.539,-231.406C855.286,-227.944 753.217,-217.681 669.5,-188 631.191,-174.418 591.756,-145.995 573.28,-131.661"/>
<polygon fill="midnightblue" stroke="midnightblue" points="923.623,-234.914 933.776,-231.888 923.952,-227.922 923.623,-234.914"/>
</g>
<!-- Node13 -->
<g id="node7" class="node"><title>Node13</title>
<g id="a_node7"><a xlink:href="_cap_piou_8h.html" target="_top" xlink:title="src/Capacites/CapPiou.h">
<polygon fill="white" stroke="black" points="799.5,-112.5 799.5,-131.5 925.5,-131.5 925.5,-112.5 799.5,-112.5"/>
<text text-anchor="middle" x="862.5" y="-119.5" font-family="Helvetica,sans-Serif" font-size="10.00">src/Capacites/CapPiou.h</text>
</a>
</g>
</g>
<!-- Node7&#45;&gt;Node13 -->
<g id="edge36" class="edge"><title>Node7&#45;&gt;Node13</title>
<path fill="none" stroke="midnightblue" d="M979.142,-218.183C967.423,-209.542 952.489,-198.339 939.5,-188 914.863,-168.389 886.804,-144.221 872.315,-131.6"/>
<polygon fill="midnightblue" stroke="midnightblue" points="977.259,-221.142 987.392,-224.235 981.399,-215.498 977.259,-221.142"/>
</g>
<!-- Node17 -->
<g id="node11" class="node"><title>Node17</title>
<g id="a_node11"><a xlink:href="_capacite_8cpp.html" target="_top" xlink:title="src/Capacites/Capacite.cpp">
<polygon fill="white" stroke="black" points="1120.5,-56.5 1120.5,-75.5 1258.5,-75.5 1258.5,-56.5 1120.5,-56.5"/>
<text text-anchor="middle" x="1189.5" y="-63.5" font-family="Helvetica,sans-Serif" font-size="10.00">src/Capacites/Capacite.cpp</text>
</a>
</g>
</g>
<!-- Node7&#45;&gt;Node17 -->
<g id="edge42" class="edge"><title>Node7&#45;&gt;Node17</title>
<path fill="none" stroke="midnightblue" d="M1075.3,-223.677C1130.14,-212.343 1199.78,-187.291 1230.5,-132 1242.03,-111.24 1217.71,-87.9243 1201.81,-75.6438"/>
<polygon fill="midnightblue" stroke="midnightblue" points="1074.39,-220.288 1065.25,-225.638 1075.73,-227.159 1074.39,-220.288"/>
</g>
<!-- Node18 -->
<g id="node12" class="node"><title>Node18</title>
<g id="a_node12"><a xlink:href="_vaisseau_8h.html" target="_top" xlink:title="src/Vaisseau/Vaisseau.h">
<polygon fill="white" stroke="black" points="1096,-112.5 1096,-131.5 1221,-131.5 1221,-112.5 1096,-112.5"/>
<text text-anchor="middle" x="1158.5" y="-119.5" font-family="Helvetica,sans-Serif" font-size="10.00">src/Vaisseau/Vaisseau.h</text>
</a>
</g>
</g>
<!-- Node7&#45;&gt;Node18 -->
<g id="edge41" class="edge"><title>Node7&#45;&gt;Node18</title>
<path fill="none" stroke="midnightblue" d="M1050.74,-221.644C1073.31,-214.733 1099.07,-204.05 1118.5,-188 1137.3,-172.475 1149.74,-145.688 1155.25,-131.848"/>
<polygon fill="midnightblue" stroke="midnightblue" points="1049.59,-218.333 1040.95,-224.47 1051.53,-225.058 1049.59,-218.333"/>
</g>
<!-- Node19 -->
<g id="node13" class="node"><title>Node19</title>
<g id="a_node13"><a xlink:href="_partie_8h.html" target="_top" xlink:title="src/Partie.h">
<polygon fill="white" stroke="black" points="872,-56.5 872,-75.5 939,-75.5 939,-56.5 872,-56.5"/>
<text text-anchor="middle" x="905.5" y="-63.5" font-family="Helvetica,sans-Serif" font-size="10.00">src/Partie.h</text>
</a>
</g>
</g>
<!-- Node7&#45;&gt;Node19 -->
<g id="edge43" class="edge"><title>Node7&#45;&gt;Node19</title>
<path fill="none" stroke="midnightblue" d="M988.727,-215.751C983.652,-207.449 977.605,-197.299 972.5,-188 954.327,-154.895 953.201,-144.809 934.5,-112 927.136,-99.0804 917.649,-84.7322 911.569,-75.7878"/>
<polygon fill="midnightblue" stroke="midnightblue" points="985.891,-217.82 994.125,-224.487 991.846,-214.14 985.891,-217.82"/>
</g>
<!-- Node23 -->
<g id="node17" class="node"><title>Node23</title>
<g id="a_node17"><a xlink:href="_projectile_8cpp.html" target="_top" xlink:title="src/Projectiles/Projectile.cpp">
<polygon fill="white" stroke="black" points="1277,-56.5 1277,-75.5 1418,-75.5 1418,-56.5 1277,-56.5"/>
<text text-anchor="middle" x="1347.5" y="-63.5" font-family="Helvetica,sans-Serif" font-size="10.00">src/Projectiles/Projectile.cpp</text>
</a>
</g>
</g>
<!-- Node7&#45;&gt;Node23 -->
<g id="edge44" class="edge"><title>Node7&#45;&gt;Node23</title>
<path fill="none" stroke="midnightblue" d="M1075.64,-224.53C1114.46,-218.118 1161.57,-207.021 1200.5,-188 1261.68,-158.109 1319.58,-97.9735 1339.87,-75.6235"/>
<polygon fill="midnightblue" stroke="midnightblue" points="1074.77,-221.123 1065.44,-226.139 1075.86,-228.038 1074.77,-221.123"/>
</g>
<!-- Node24 -->
<g id="node18" class="node"><title>Node24</title>
<g id="a_node18"><a xlink:href="_vaisseau_8cpp.html" target="_top" xlink:title="src/Vaisseau/Vaisseau.cpp">
<polygon fill="white" stroke="black" points="1436.5,-56.5 1436.5,-75.5 1572.5,-75.5 1572.5,-56.5 1436.5,-56.5"/>
<text text-anchor="middle" x="1504.5" y="-63.5" font-family="Helvetica,sans-Serif" font-size="10.00">src/Vaisseau/Vaisseau.cpp</text>
</a>
</g>
</g>
<!-- Node7&#45;&gt;Node24 -->
<g id="edge45" class="edge"><title>Node7&#45;&gt;Node24</title>
<path fill="none" stroke="midnightblue" d="M1073.84,-222.847C1119.64,-215.532 1179.22,-204.096 1230.5,-188 1332.46,-155.999 1447.29,-97.4044 1488.62,-75.5322"/>
<polygon fill="midnightblue" stroke="midnightblue" points="1073.03,-219.431 1063.69,-224.436 1074.11,-226.347 1073.03,-219.431"/>
</g>
<!-- Node25 -->
<g id="node19" class="node"><title>Node25</title>
<g id="a_node19"><a xlink:href="_proj_test_8h.html" target="_top" xlink:title="src/Projectiles/ProjTest.h">
<polygon fill="white" stroke="black" points="277,-168.5 277,-187.5 404,-187.5 404,-168.5 277,-168.5"/>
<text text-anchor="middle" x="340.5" y="-175.5" font-family="Helvetica,sans-Serif" font-size="10.00">src/Projectiles/ProjTest.h</text>
</a>
</g>
</g>
<!-- Node7&#45;&gt;Node25 -->
<g id="edge29" class="edge"><title>Node7&#45;&gt;Node25</title>
<path fill="none" stroke="midnightblue" d="M923.564,-226.778C792.581,-216.045 526.498,-194.241 404.376,-184.234"/>
<polygon fill="midnightblue" stroke="midnightblue" points="923.651,-230.296 933.903,-227.625 924.223,-223.32 923.651,-230.296"/>
</g>
<!-- Node28 -->
<g id="node22" class="node"><title>Node28</title>
<g id="a_node22"><a xlink:href="_proj_piou_8h.html" target="_top" xlink:title="src/Projectiles/ProjPiou.h">
<polygon fill="white" stroke="black" points="679,-168.5 679,-187.5 806,-187.5 806,-168.5 679,-168.5"/>
<text text-anchor="middle" x="742.5" y="-175.5" font-family="Helvetica,sans-Serif" font-size="10.00">src/Projectiles/ProjPiou.h</text>
</a>
</g>
</g>
<!-- Node7&#45;&gt;Node28 -->
<g id="edge37" class="edge"><title>Node7&#45;&gt;Node28</title>
<path fill="none" stroke="midnightblue" d="M948.793,-222.346C900.224,-212.141 827.881,-196.94 783.032,-187.516"/>
<polygon fill="midnightblue" stroke="midnightblue" points="948.272,-225.812 958.778,-224.444 949.711,-218.962 948.272,-225.812"/>
</g>
<!-- Node8&#45;&gt;Node9 -->
<g id="edge2" class="edge"><title>Node8&#45;&gt;Node9</title>
<path fill="none" stroke="midnightblue" d="M971.383,-169.23C889.055,-160.519 752.213,-145.8 634.5,-132 631.622,-131.663 628.681,-131.313 625.709,-130.957"/>
<polygon fill="midnightblue" stroke="midnightblue" points="971.082,-172.717 981.394,-170.288 971.818,-165.756 971.082,-172.717"/>
</g>
<!-- Node8&#45;&gt;Node13 -->
<g id="edge6" class="edge"><title>Node8&#45;&gt;Node13</title>
<path fill="none" stroke="midnightblue" d="M1006.76,-165.568C972.235,-155.381 922.495,-140.703 891.361,-131.516"/>
<polygon fill="midnightblue" stroke="midnightblue" points="1005.92,-168.97 1016.5,-168.444 1007.9,-162.256 1005.92,-168.97"/>
</g>
<!-- Node15 -->
<g id="node9" class="node"><title>Node15</title>
<g id="a_node9"><a xlink:href="_cap_dash_8h.html" target="_top" xlink:title="src/Capacites/CapDash.h">
<polygon fill="white" stroke="black" points="351.5,-112.5 351.5,-131.5 481.5,-131.5 481.5,-112.5 351.5,-112.5"/>
<text text-anchor="middle" x="416.5" y="-119.5" font-family="Helvetica,sans-Serif" font-size="10.00">src/Capacites/CapDash.h</text>
</a>
</g>
</g>
<!-- Node8&#45;&gt;Node15 -->
<g id="edge9" class="edge"><title>Node8&#45;&gt;Node15</title>
<path fill="none" stroke="midnightblue" d="M971.324,-171.936C864.806,-164.448 662.403,-149.416 490.5,-132 487.667,-131.713 484.775,-131.409 481.854,-131.093"/>
<polygon fill="midnightblue" stroke="midnightblue" points="971.109,-175.429 981.329,-172.637 971.598,-168.447 971.109,-175.429"/>
</g>
<!-- Node8&#45;&gt;Node17 -->
<g id="edge13" class="edge"><title>Node8&#45;&gt;Node17</title>
<path fill="none" stroke="midnightblue" d="M1053.53,-158.964C1060.69,-144.631 1072.37,-124.911 1087.5,-112 1108.11,-94.4131 1136.69,-82.6036 1158.35,-75.5123"/>
<polygon fill="midnightblue" stroke="midnightblue" points="1050.24,-157.738 1049.14,-168.275 1056.57,-160.727 1050.24,-157.738"/>
</g>
<!-- Node8&#45;&gt;Node18 -->
<g id="edge14" class="edge"><title>Node8&#45;&gt;Node18</title>
<path fill="none" stroke="midnightblue" d="M1072.5,-164.096C1093.61,-154.007 1122.36,-140.27 1140.68,-131.516"/>
<polygon fill="midnightblue" stroke="midnightblue" points="1070.92,-160.974 1063.41,-168.444 1073.94,-167.29 1070.92,-160.974"/>
</g>
<!-- Node8&#45;&gt;Node19 -->
<g id="edge24" class="edge"><title>Node8&#45;&gt;Node19</title>
<path fill="none" stroke="midnightblue" d="M1027.77,-161.647C1012.14,-148.252 988.628,-128.441 967.5,-112 950.705,-98.931 930.685,-84.6201 918.032,-75.7248"/>
<polygon fill="midnightblue" stroke="midnightblue" points="1025.72,-164.497 1035.58,-168.367 1030.28,-159.191 1025.72,-164.497"/>
</g>
<!-- Node21 -->
<g id="node15" class="node"><title>Node21</title>
<g id="a_node15"><a xlink:href="_vaisseau_test_8h.html" target="_top" xlink:title="src/Vaisseau/VaisseauTest.h">
<polygon fill="white" stroke="black" points="957,-56.5 957,-75.5 1102,-75.5 1102,-56.5 957,-56.5"/>
<text text-anchor="middle" x="1029.5" y="-63.5" font-family="Helvetica,sans-Serif" font-size="10.00">src/Vaisseau/VaisseauTest.h</text>
</a>
</g>
</g>
<!-- Node8&#45;&gt;Node21 -->
<g id="edge25" class="edge"><title>Node8&#45;&gt;Node21</title>
<path fill="none" stroke="midnightblue" d="M1042.79,-158.348C1039.28,-134.254 1033.33,-93.3079 1030.75,-75.5914"/>
<polygon fill="midnightblue" stroke="midnightblue" points="1039.34,-158.976 1044.24,-168.368 1046.27,-157.969 1039.34,-158.976"/>
</g>
<!-- Node8&#45;&gt;Node23 -->
<g id="edge26" class="edge"><title>Node8&#45;&gt;Node23</title>
<path fill="none" stroke="midnightblue" d="M1106.53,-166.446C1143.22,-159.057 1190.4,-147.684 1230.5,-132 1270.53,-116.341 1313.81,-89.3689 1334.73,-75.6125"/>
<polygon fill="midnightblue" stroke="midnightblue" points="1105.62,-163.06 1096.48,-168.425 1106.97,-169.928 1105.62,-163.06"/>
</g>
<!-- Node8&#45;&gt;Node24 -->
<g id="edge27" class="edge"><title>Node8&#45;&gt;Node24</title>
<path fill="none" stroke="midnightblue" d="M1101.41,-166.501C1145.79,-157.929 1209.32,-145.127 1264.5,-132 1340.93,-113.816 1429.99,-88.6341 1475.09,-75.5954"/>
<polygon fill="midnightblue" stroke="midnightblue" points="1100.56,-163.1 1091.4,-168.425 1101.88,-169.974 1100.56,-163.1"/>
</g>
<!-- Node10 -->
<g id="node4" class="node"><title>Node10</title>
<g id="a_node4"><a xlink:href="___capacites_8h.html" target="_top" xlink:title="src/Capacites/_Capacites.h">
<polygon fill="white" stroke="black" points="560.5,-56.5 560.5,-75.5 698.5,-75.5 698.5,-56.5 560.5,-56.5"/>
<text text-anchor="middle" x="629.5" y="-63.5" font-family="Helvetica,sans-Serif" font-size="10.00">src/Capacites/_Capacites.h</text>
</a>
</g>
</g>
<!-- Node9&#45;&gt;Node10 -->
<g id="edge3" class="edge"><title>Node9&#45;&gt;Node10</title>
<path fill="none" stroke="midnightblue" d="M581.335,-105.82C593.338,-96.1452 608.472,-83.9481 618.539,-75.8339"/>
<polygon fill="midnightblue" stroke="midnightblue" points="578.854,-103.324 573.265,-112.324 583.247,-108.774 578.854,-103.324"/>
</g>
<!-- Node12 -->
<g id="node6" class="node"><title>Node12</title>
<g id="a_node6"><a xlink:href="_cap_test_8cpp.html" target="_top" xlink:title="src/Capacites/CapTest.cpp">
<polygon fill="white" stroke="black" points="405,-56.5 405,-75.5 542,-75.5 542,-56.5 405,-56.5"/>
<text text-anchor="middle" x="473.5" y="-63.5" font-family="Helvetica,sans-Serif" font-size="10.00">src/Capacites/CapTest.cpp</text>
</a>
</g>
</g>
<!-- Node9&#45;&gt;Node12 -->
<g id="edge5" class="edge"><title>Node9&#45;&gt;Node12</title>
<path fill="none" stroke="midnightblue" d="M539.262,-106.901C522.942,-96.9986 501.635,-84.0705 487.764,-75.6545"/>
<polygon fill="midnightblue" stroke="midnightblue" points="537.836,-110.129 548.201,-112.324 541.467,-104.144 537.836,-110.129"/>
</g>
<!-- Node11 -->
<g id="node5" class="node"><title>Node11</title>
<g id="a_node5"><a xlink:href="_partie_8cpp.html" target="_top" xlink:title="src/Partie.cpp">
<polygon fill="white" stroke="black" points="591,-0.5 591,-19.5 668,-19.5 668,-0.5 591,-0.5"/>
<text text-anchor="middle" x="629.5" y="-7.5" font-family="Helvetica,sans-Serif" font-size="10.00">src/Partie.cpp</text>
</a>
</g>
</g>
<!-- Node10&#45;&gt;Node11 -->
<g id="edge4" class="edge"><title>Node10&#45;&gt;Node11</title>
<path fill="none" stroke="midnightblue" d="M629.5,-45.8045C629.5,-36.9102 629.5,-26.7798 629.5,-19.7511"/>
<polygon fill="midnightblue" stroke="midnightblue" points="626,-46.083 629.5,-56.083 633,-46.083 626,-46.083"/>
</g>
<!-- Node13&#45;&gt;Node10 -->
<g id="edge7" class="edge"><title>Node13&#45;&gt;Node10</title>
<path fill="none" stroke="midnightblue" d="M815.697,-110.153C771.673,-99.95 706.653,-84.8809 666.247,-75.5164"/>
<polygon fill="midnightblue" stroke="midnightblue" points="815.048,-113.595 825.58,-112.444 816.629,-106.776 815.048,-113.595"/>
</g>
<!-- Node14 -->
<g id="node8" class="node"><title>Node14</title>
<g id="a_node8"><a xlink:href="_cap_piou_8cpp.html" target="_top" xlink:title="src/Capacites/CapPiou.cpp">
<polygon fill="white" stroke="black" points="717,-56.5 717,-75.5 854,-75.5 854,-56.5 717,-56.5"/>
<text text-anchor="middle" x="785.5" y="-63.5" font-family="Helvetica,sans-Serif" font-size="10.00">src/Capacites/CapPiou.cpp</text>
</a>
</g>
</g>
<!-- Node13&#45;&gt;Node14 -->
<g id="edge8" class="edge"><title>Node13&#45;&gt;Node14</title>
<path fill="none" stroke="midnightblue" d="M841.599,-106.342C827.589,-96.5169 809.617,-83.9132 797.841,-75.6545"/>
<polygon fill="midnightblue" stroke="midnightblue" points="839.932,-109.448 850.129,-112.324 843.951,-103.717 839.932,-109.448"/>
</g>
<!-- Node15&#45;&gt;Node10 -->
<g id="edge10" class="edge"><title>Node15&#45;&gt;Node10</title>
<path fill="none" stroke="midnightblue" d="M460.051,-109.959C500.281,-99.7598 559.203,-84.8217 595.907,-75.5164"/>
<polygon fill="midnightblue" stroke="midnightblue" points="459.084,-106.593 450.25,-112.444 460.804,-113.379 459.084,-106.593"/>
</g>
<!-- Node15&#45;&gt;Node12 -->
<g id="edge12" class="edge"><title>Node15&#45;&gt;Node12</title>
<path fill="none" stroke="midnightblue" d="M433.121,-105.253C443.234,-95.6731 455.777,-83.7906 464.175,-75.8339"/>
<polygon fill="midnightblue" stroke="midnightblue" points="430.51,-102.906 425.658,-112.324 435.325,-107.987 430.51,-102.906"/>
</g>
<!-- Node16 -->
<g id="node10" class="node"><title>Node16</title>
<g id="a_node10"><a xlink:href="_cap_dash_8cpp.html" target="_top" xlink:title="src/Capacites/CapDash.cpp">
<polygon fill="white" stroke="black" points="246.5,-56.5 246.5,-75.5 386.5,-75.5 386.5,-56.5 246.5,-56.5"/>
<text text-anchor="middle" x="316.5" y="-63.5" font-family="Helvetica,sans-Serif" font-size="10.00">src/Capacites/CapDash.cpp</text>
</a>
</g>
</g>
<!-- Node15&#45;&gt;Node16 -->
<g id="edge11" class="edge"><title>Node15&#45;&gt;Node16</title>
<path fill="none" stroke="midnightblue" d="M391.412,-107.453C372.951,-97.4835 348.403,-84.2279 332.527,-75.6545"/>
<polygon fill="midnightblue" stroke="midnightblue" points="389.971,-110.652 400.433,-112.324 393.297,-104.493 389.971,-110.652"/>
</g>
<!-- Node18&#45;&gt;Node17 -->
<g id="edge15" class="edge"><title>Node18&#45;&gt;Node17</title>
<path fill="none" stroke="midnightblue" d="M1168.68,-103.275C1173.97,-94.0454 1180.22,-83.1703 1184.48,-75.7511"/>
<polygon fill="midnightblue" stroke="midnightblue" points="1165.56,-101.668 1163.62,-112.083 1171.63,-105.153 1165.56,-101.668"/>
</g>
<!-- Node18&#45;&gt;Node19 -->
<g id="edge16" class="edge"><title>Node18&#45;&gt;Node19</title>
<path fill="none" stroke="midnightblue" d="M1108.57,-110.365C1065.81,-101.255 1002.6,-87.7798 947.5,-76 944.875,-75.4388 942.157,-74.8574 939.425,-74.2727"/>
<polygon fill="midnightblue" stroke="midnightblue" points="1107.93,-113.808 1118.44,-112.468 1109.39,-106.961 1107.93,-113.808"/>
</g>
<!-- Node18&#45;&gt;Node21 -->
<g id="edge19" class="edge"><title>Node18&#45;&gt;Node21</title>
<path fill="none" stroke="midnightblue" d="M1128.65,-108.503C1104.46,-98.3795 1071.04,-84.388 1049.84,-75.5164"/>
<polygon fill="midnightblue" stroke="midnightblue" points="1127.48,-111.811 1138.06,-112.444 1130.19,-105.354 1127.48,-111.811"/>
</g>
<!-- Node18&#45;&gt;Node23 -->
<g id="edge22" class="edge"><title>Node18&#45;&gt;Node23</title>
<path fill="none" stroke="midnightblue" d="M1198.51,-109.568C1234.17,-99.381 1285.54,-84.7034 1317.69,-75.5164"/>
<polygon fill="midnightblue" stroke="midnightblue" points="1197.1,-106.331 1188.45,-112.444 1199.02,-113.062 1197.1,-106.331"/>
</g>
<!-- Node18&#45;&gt;Node24 -->
<g id="edge23" class="edge"><title>Node18&#45;&gt;Node24</title>
<path fill="none" stroke="midnightblue" d="M1223.51,-110.854C1288.88,-100.651 1388.54,-85.0977 1449.93,-75.5164"/>
<polygon fill="midnightblue" stroke="midnightblue" points="1222.67,-107.443 1213.32,-112.444 1223.74,-114.36 1222.67,-107.443"/>
</g>
<!-- Node19&#45;&gt;Node11 -->
<g id="edge18" class="edge"><title>Node19&#45;&gt;Node11</title>
<path fill="none" stroke="midnightblue" d="M861.714,-55.8663C787.456,-40.9707 712.575,-26.6778 668.29,-18.3006"/>
<polygon fill="midnightblue" stroke="midnightblue" points="861.215,-59.336 871.709,-57.8758 862.595,-52.4734 861.215,-59.336"/>
</g>
<!-- Node20 -->
<g id="node14" class="node"><title>Node20</title>
<g id="a_node14"><a xlink:href="main_8cpp.html" target="_top" xlink:title="src/main.cpp">
<polygon fill="white" stroke="black" points="865,-0.5 865,-19.5 938,-19.5 938,-0.5 865,-0.5"/>
<text text-anchor="middle" x="901.5" y="-7.5" font-family="Helvetica,sans-Serif" font-size="10.00">src/main.cpp</text>
</a>
</g>
</g>
<!-- Node19&#45;&gt;Node20 -->
<g id="edge17" class="edge"><title>Node19&#45;&gt;Node20</title>
<path fill="none" stroke="midnightblue" d="M904.1,-46.1005C903.436,-37.1357 902.675,-26.8579 902.148,-19.7511"/>
<polygon fill="midnightblue" stroke="midnightblue" points="900.61,-46.3689 904.839,-56.083 907.591,-45.8517 900.61,-46.3689"/>
</g>
<!-- Node21&#45;&gt;Node11 -->
<g id="edge20" class="edge"><title>Node21&#45;&gt;Node11</title>
<path fill="none" stroke="midnightblue" d="M956.024,-55.0807C871.074,-43.6125 734.454,-25.1688 668.121,-16.2139"/>
<polygon fill="midnightblue" stroke="midnightblue" points="955.74,-58.5741 966.119,-56.4435 956.677,-51.6371 955.74,-58.5741"/>
</g>
<!-- Node22 -->
<g id="node16" class="node"><title>Node22</title>
<g id="a_node16"><a xlink:href="_vaisseau_test_8cpp.html" target="_top" xlink:title="src/Vaisseau/VaisseauTest.cpp">
<polygon fill="white" stroke="black" points="956,-0.5 956,-19.5 1111,-19.5 1111,-0.5 956,-0.5"/>
<text text-anchor="middle" x="1033.5" y="-7.5" font-family="Helvetica,sans-Serif" font-size="10.00">src/Vaisseau/VaisseauTest.cpp</text>
</a>
</g>
</g>
<!-- Node21&#45;&gt;Node22 -->
<g id="edge21" class="edge"><title>Node21&#45;&gt;Node22</title>
<path fill="none" stroke="midnightblue" d="M1030.9,-46.1005C1031.56,-37.1357 1032.33,-26.8579 1032.85,-19.7511"/>
<polygon fill="midnightblue" stroke="midnightblue" points="1027.41,-45.8517 1030.16,-56.083 1034.39,-46.3689 1027.41,-45.8517"/>
</g>
<!-- Node25&#45;&gt;Node9 -->
<g id="edge30" class="edge"><title>Node25&#45;&gt;Node9</title>
<path fill="none" stroke="midnightblue" d="M385.625,-166.024C427.56,-155.823 489.152,-140.841 527.488,-131.516"/>
<polygon fill="midnightblue" stroke="midnightblue" points="384.566,-162.679 375.677,-168.444 386.22,-169.481 384.566,-162.679"/>
</g>
<!-- Node25&#45;&gt;Node11 -->
<g id="edge34" class="edge"><title>Node25&#45;&gt;Node11</title>
<path fill="none" stroke="midnightblue" d="M276.509,-166.524C238.658,-158.877 195.934,-147.198 184.5,-132 160.419,-99.9904 206.908,-68.0294 228.5,-56 290.081,-21.6923 502.66,-13.5152 590.771,-11.5868"/>
<polygon fill="midnightblue" stroke="midnightblue" points="276.028,-169.996 286.514,-168.477 277.37,-163.126 276.028,-169.996"/>
</g>
<!-- Node25&#45;&gt;Node15 -->
<g id="edge31" class="edge"><title>Node25&#45;&gt;Node15</title>
<path fill="none" stroke="midnightblue" d="M361.076,-162.38C374.812,-152.62 392.425,-140.106 404.067,-131.834"/>
<polygon fill="midnightblue" stroke="midnightblue" points="358.835,-159.679 352.711,-168.324 362.89,-165.385 358.835,-159.679"/>
</g>
<!-- Node26 -->
<g id="node20" class="node"><title>Node26</title>
<g id="a_node20"><a xlink:href="__projectiles_8h.html" target="_top" xlink:title="src/Projectiles/_projectiles.h">
<polygon fill="white" stroke="black" points="193.5,-112.5 193.5,-131.5 333.5,-131.5 333.5,-112.5 193.5,-112.5"/>
<text text-anchor="middle" x="263.5" y="-119.5" font-family="Helvetica,sans-Serif" font-size="10.00">src/Projectiles/_projectiles.h</text>
</a>
</g>
</g>
<!-- Node25&#45;&gt;Node26 -->
<g id="edge32" class="edge"><title>Node25&#45;&gt;Node26</title>
<path fill="none" stroke="midnightblue" d="M319.599,-162.342C305.589,-152.517 287.617,-139.913 275.841,-131.655"/>
<polygon fill="midnightblue" stroke="midnightblue" points="317.932,-165.448 328.129,-168.324 321.951,-159.717 317.932,-165.448"/>
</g>
<!-- Node27 -->
<g id="node21" class="node"><title>Node27</title>
<g id="a_node21"><a xlink:href="_proj_test_8cpp.html" target="_top" xlink:title="src/Projectiles/ProjTest.cpp">
<polygon fill="white" stroke="black" points="0,-112.5 0,-131.5 137,-131.5 137,-112.5 0,-112.5"/>
<text text-anchor="middle" x="68.5" y="-119.5" font-family="Helvetica,sans-Serif" font-size="10.00">src/Projectiles/ProjTest.cpp</text>
</a>
</g>
</g>
<!-- Node25&#45;&gt;Node27 -->
<g id="edge35" class="edge"><title>Node25&#45;&gt;Node27</title>
<path fill="none" stroke="midnightblue" d="M287.477,-166.473C236.071,-156.268 159.063,-140.979 111.398,-131.516"/>
<polygon fill="midnightblue" stroke="midnightblue" points="286.911,-169.929 297.401,-168.444 288.274,-163.063 286.911,-169.929"/>
</g>
<!-- Node26&#45;&gt;Node11 -->
<g id="edge33" class="edge"><title>Node26&#45;&gt;Node11</title>
<path fill="none" stroke="midnightblue" d="M248.11,-104.465C236.732,-90.2181 225.174,-69.822 237.5,-56 260.781,-29.8937 496.447,-16.7998 590.774,-12.5728"/>
<polygon fill="midnightblue" stroke="midnightblue" points="245.782,-107.127 254.955,-112.428 251.09,-102.563 245.782,-107.127"/>
</g>
<!-- Node28&#45;&gt;Node13 -->
<g id="edge38" class="edge"><title>Node28&#45;&gt;Node13</title>
<path fill="none" stroke="midnightblue" d="M770.873,-164.232C793.32,-154.131 824.035,-140.309 843.575,-131.516"/>
<polygon fill="midnightblue" stroke="midnightblue" points="769.197,-161.148 761.514,-168.444 772.07,-167.532 769.197,-161.148"/>
</g>
<!-- Node28&#45;&gt;Node26 -->
<g id="edge39" class="edge"><title>Node28&#45;&gt;Node26</title>
<path fill="none" stroke="midnightblue" d="M668.753,-168.735C588.489,-159.732 456.37,-144.891 342.5,-132 339.62,-131.674 336.68,-131.341 333.711,-131.004"/>
<polygon fill="midnightblue" stroke="midnightblue" points="668.434,-172.221 678.762,-169.857 669.214,-165.265 668.434,-172.221"/>
</g>
<!-- Node29 -->
<g id="node23" class="node"><title>Node29</title>
<g id="a_node23"><a xlink:href="_proj_piou_8cpp.html" target="_top" xlink:title="src/Projectiles/ProjPiou.cpp">
<polygon fill="white" stroke="black" points="644,-112.5 644,-131.5 781,-131.5 781,-112.5 644,-112.5"/>
<text text-anchor="middle" x="712.5" y="-119.5" font-family="Helvetica,sans-Serif" font-size="10.00">src/Projectiles/ProjPiou.cpp</text>
</a>
</g>
</g>
<!-- Node28&#45;&gt;Node29 -->
<g id="edge40" class="edge"><title>Node28&#45;&gt;Node29</title>
<path fill="none" stroke="midnightblue" d="M732.653,-159.275C727.525,-150.045 721.484,-139.17 717.362,-131.751"/>
<polygon fill="midnightblue" stroke="midnightblue" points="729.63,-161.041 737.546,-168.083 735.749,-157.642 729.63,-161.041"/>
</g>
</g>
</svg>
