<?xml version="1.0" encoding="UTF-8" standalone="no"?>
<!DOCTYPE svg PUBLIC "-//W3C//DTD SVG 1.1//EN"
 "http://www.w3.org/Graphics/SVG/1.1/DTD/svg11.dtd">
<!-- Generated by graphviz version 2.38.0 (20140413.2041)
 -->
<!-- Title: src/Projectiles/Projectile.h Pages: 1 -->
<!--zoomable 308 -->
<svg id="main" version="1.1" xmlns="http://www.w3.org/2000/svg" xmlns:xlink="http://www.w3.org/1999/xlink" xml:space="preserve" onload="init(evt)">
<style type="text/css"><![CDATA[
.edge:hover path { stroke: red; }
.edge:hover polygon { stroke: red; fill: red; }
]]></style>
<script type="text/javascript"><![CDATA[
var edges = document.getElementsByTagName('g');
if (edges && edges.length) {
  for (var i=0;i<edges.length;i++) {
    if (edges[i].id.substr(0,4)=='edge') {
      edges[i].setAttribute('class','edge');
    }
  }
}
]]></script>
        <defs>
                <circle id="rim" cx="0" cy="0" r="7"/>
                <circle id="rim2" cx="0" cy="0" r="3.5"/>
                <g id="zoomPlus">
                        <use xlink:href="#rim" fill="#404040">
                                <set attributeName="fill" to="#808080" begin="zoomplus.mouseover" end="zoomplus.mouseout"/>
                        </use>
                        <path d="M-4,0h8M0,-4v8" fill="none" stroke="white" stroke-width="1.5" pointer-events="none"/>
                </g>
                <g id="zoomMin">
                        <use xlink:href="#rim" fill="#404040">
                                <set attributeName="fill" to="#808080" begin="zoomminus.mouseover" end="zoomminus.mouseout"/>
                        </use>
                        <path d="M-4,0h8" fill="none" stroke="white" stroke-width="1.5" pointer-events="none"/>
                </g>
                <g id="dirArrow">
                        <path fill="none" stroke="white" stroke-width="1.5" d="M0,-3.0v7 M-2.5,-0.5L0,-3.0L2.5,-0.5"/>
                </g>
               <g id="resetDef">
                       <use xlink:href="#rim2" fill="#404040">
                               <set attributeName="fill" to="#808080" begin="reset.mouseover" end="reset.mouseout"/>
                       </use>
               </g>
        </defs>

<script type="text/javascript">
var viewWidth = 1738;
var viewHeight = 308;
var sectionId = 'dynsection-1';
</script>
<script xlink:href="svgpan.js"/>
<svg id="graph" class="graph">
<g id="viewport">
<title>src/Projectiles/Projectile.h</title>
<polygon fill="white" stroke="none" points="-4,4 -4,-304 1733.5,-304 1733.5,4 -4,4"/>
<!-- Node9 -->
<g id="node1" class="node"><title>Node9</title>
<polygon fill="#bfbfbf" stroke="black" points="896,-280.5 896,-299.5 1027,-299.5 1027,-280.5 896,-280.5"/>
<text text-anchor="middle" x="961.5" y="-287.5" font-family="Helvetica,sans-Serif" font-size="10.00">src/Projectiles/Projectile.h</text>
</g>
<!-- Node10 -->
<g id="node2" class="node"><title>Node10</title>
<g id="a_node2"><a xlink:href="_capacite_8h.html" target="_top" xlink:title="src/Capacites/Capacite.h">
<polygon fill="white" stroke="black" points="943.5,-224.5 943.5,-243.5 1071.5,-243.5 1071.5,-224.5 943.5,-224.5"/>
<text text-anchor="middle" x="1007.5" y="-231.5" font-family="Helvetica,sans-Serif" font-size="10.00">src/Capacites/Capacite.h</text>
</a>
</g>
</g>
<!-- Node9&#45;&gt;Node10 -->
<g id="edge1" class="edge"><title>Node9&#45;&gt;Node10</title>
<path fill="none" stroke="midnightblue" d="M975.614,-272.431C983.676,-262.967 993.459,-251.483 1000.05,-243.751"/>
<polygon fill="midnightblue" stroke="midnightblue" points="972.916,-270.201 969.096,-280.083 978.245,-274.74 972.916,-270.201"/>
</g>
<!-- Node11 -->
<g id="node3" class="node"><title>Node11</title>
<g id="a_node3"><a xlink:href="_cap_test_8h.html" target="_top" xlink:title="src/Capacites/CapTest.h">
<polygon fill="white" stroke="black" points="613.5,-168.5 613.5,-187.5 739.5,-187.5 739.5,-168.5 613.5,-168.5"/>
<text text-anchor="middle" x="676.5" y="-175.5" font-family="Helvetica,sans-Serif" font-size="10.00">src/Capacites/CapTest.h</text>
</a>
</g>
</g>
<!-- Node9&#45;&gt;Node11 -->
<g id="edge32" class="edge"><title>Node9&#45;&gt;Node11</title>
<path fill="none" stroke="midnightblue" d="M929.699,-276.726C871.453,-254.245 749.023,-206.991 698.76,-187.591"/>
<polygon fill="midnightblue" stroke="midnightblue" points="928.547,-280.033 939.137,-280.368 931.068,-273.502 928.547,-280.033"/>
</g>
<!-- Node15 -->
<g id="node7" class="node"><title>Node15</title>
<g id="a_node7"><a xlink:href="_cap_piou_8h.html" target="_top" xlink:title="src/Capacites/CapPiou.h">
<polygon fill="white" stroke="black" points="313.5,-168.5 313.5,-187.5 439.5,-187.5 439.5,-168.5 313.5,-168.5"/>
<text text-anchor="middle" x="376.5" y="-175.5" font-family="Helvetica,sans-Serif" font-size="10.00">src/Capacites/CapPiou.h</text>
</a>
</g>
</g>
<!-- Node9&#45;&gt;Node15 -->
<g id="edge39" class="edge"><title>Node9&#45;&gt;Node15</title>
<path fill="none" stroke="midnightblue" d="M885.672,-282.881C812.827,-276.201 699.917,-263.742 603.5,-244 529.003,-228.746 443.28,-201.47 401.715,-187.603"/>
<polygon fill="midnightblue" stroke="midnightblue" points="885.404,-286.371 895.679,-283.785 886.035,-279.399 885.404,-286.371"/>
</g>
<!-- Node19 -->
<g id="node11" class="node"><title>Node19</title>
<g id="a_node11"><a xlink:href="_capacite_8cpp.html" target="_top" xlink:title="src/Capacites/Capacite.cpp">
<polygon fill="white" stroke="black" points="846.5,-112.5 846.5,-131.5 984.5,-131.5 984.5,-112.5 846.5,-112.5"/>
<text text-anchor="middle" x="915.5" y="-119.5" font-family="Helvetica,sans-Serif" font-size="10.00">src/Capacites/Capacite.cpp</text>
</a>
</g>
</g>
<!-- Node9&#45;&gt;Node19 -->
<g id="edge45" class="edge"><title>Node9&#45;&gt;Node19</title>
<path fill="none" stroke="midnightblue" d="M949.003,-271.742C943.74,-263.678 938.029,-253.726 934.5,-244 919.921,-203.822 916.523,-152.143 915.735,-131.792"/>
<polygon fill="midnightblue" stroke="midnightblue" points="946.273,-273.95 954.818,-280.214 952.045,-269.989 946.273,-273.95"/>
</g>
<!-- Node20 -->
<g id="node12" class="node"><title>Node20</title>
<g id="a_node12"><a xlink:href="_vaisseau_8h.html" target="_top" xlink:title="src/Vaisseau/Vaisseau.h">
<polygon fill="white" stroke="black" points="1070,-168.5 1070,-187.5 1195,-187.5 1195,-168.5 1070,-168.5"/>
<text text-anchor="middle" x="1132.5" y="-175.5" font-family="Helvetica,sans-Serif" font-size="10.00">src/Vaisseau/Vaisseau.h</text>
</a>
</g>
</g>
<!-- Node9&#45;&gt;Node20 -->
<g id="edge44" class="edge"><title>Node9&#45;&gt;Node20</title>
<path fill="none" stroke="midnightblue" d="M1008.24,-277.648C1031.43,-270.508 1059.01,-259.63 1080.5,-244 1102,-228.36 1119.46,-201.623 1127.58,-187.821"/>
<polygon fill="midnightblue" stroke="midnightblue" points="1007.21,-274.304 998.6,-280.483 1009.18,-281.02 1007.21,-274.304"/>
</g>
<!-- Node21 -->
<g id="node13" class="node"><title>Node21</title>
<g id="a_node13"><a xlink:href="_partie_8h.html" target="_top" xlink:title="src/Partie.h">
<polygon fill="white" stroke="black" points="1508,-112.5 1508,-131.5 1575,-131.5 1575,-112.5 1508,-112.5"/>
<text text-anchor="middle" x="1541.5" y="-119.5" font-family="Helvetica,sans-Serif" font-size="10.00">src/Partie.h</text>
</a>
</g>
</g>
<!-- Node9&#45;&gt;Node21 -->
<g id="edge46" class="edge"><title>Node9&#45;&gt;Node21</title>
<path fill="none" stroke="midnightblue" d="M1012.1,-278.365C1051.4,-269.839 1107.17,-257.161 1155.5,-244 1293.06,-206.544 1455.17,-152.406 1516.4,-131.595"/>
<polygon fill="midnightblue" stroke="midnightblue" points="1011.26,-274.965 1002.22,-280.495 1012.74,-281.808 1011.26,-274.965"/>
</g>
<!-- Node28 -->
<g id="node20" class="node"><title>Node28</title>
<g id="a_node20"><a xlink:href="_projectile_8cpp.html" target="_top" xlink:title="src/Projectiles/Projectile.cpp">
<polygon fill="white" stroke="black" points="1166,-112.5 1166,-131.5 1307,-131.5 1307,-112.5 1166,-112.5"/>
<text text-anchor="middle" x="1236.5" y="-119.5" font-family="Helvetica,sans-Serif" font-size="10.00">src/Projectiles/Projectile.cpp</text>
</a>
</g>
</g>
<!-- Node9&#45;&gt;Node28 -->
<g id="edge47" class="edge"><title>Node9&#45;&gt;Node28</title>
<path fill="none" stroke="midnightblue" d="M1021.17,-278.258C1075.5,-265.545 1154.49,-239.272 1203.5,-188 1219.59,-171.168 1229.6,-144.953 1233.96,-131.538"/>
<polygon fill="midnightblue" stroke="midnightblue" points="1020.31,-274.863 1011.33,-280.477 1021.85,-281.692 1020.31,-274.863"/>
</g>
<!-- Node29 -->
<g id="node21" class="node"><title>Node29</title>
<g id="a_node21"><a xlink:href="_vaisseau_8cpp.html" target="_top" xlink:title="src/Vaisseau/Vaisseau.cpp">
<polygon fill="white" stroke="black" points="1593.5,-112.5 1593.5,-131.5 1729.5,-131.5 1729.5,-112.5 1593.5,-112.5"/>
<text text-anchor="middle" x="1661.5" y="-119.5" font-family="Helvetica,sans-Serif" font-size="10.00">src/Vaisseau/Vaisseau.cpp</text>
</a>
</g>
</g>
<!-- Node9&#45;&gt;Node29 -->
<g id="edge48" class="edge"><title>Node9&#45;&gt;Node29</title>
<path fill="none" stroke="midnightblue" d="M1023.74,-278.81C1072.99,-270.426 1143.41,-257.724 1204.5,-244 1367.46,-207.393 1560.12,-152.525 1632.28,-131.561"/>
<polygon fill="midnightblue" stroke="midnightblue" points="1023.15,-275.36 1013.87,-280.48 1024.32,-282.262 1023.15,-275.36"/>
</g>
<!-- Node30 -->
<g id="node22" class="node"><title>Node30</title>
<g id="a_node22"><a xlink:href="_proj_test_8h.html" target="_top" xlink:title="src/Projectiles/ProjTest.h">
<polygon fill="white" stroke="black" points="613,-224.5 613,-243.5 740,-243.5 740,-224.5 613,-224.5"/>
<text text-anchor="middle" x="676.5" y="-231.5" font-family="Helvetica,sans-Serif" font-size="10.00">src/Projectiles/ProjTest.h</text>
</a>
</g>
</g>
<!-- Node9&#45;&gt;Node30 -->
<g id="edge33" class="edge"><title>Node9&#45;&gt;Node30</title>
<path fill="none" stroke="midnightblue" d="M906.279,-278.537C852.417,-268.332 771.496,-252.999 721.448,-243.516"/>
<polygon fill="midnightblue" stroke="midnightblue" points="905.864,-282.021 916.341,-280.444 907.167,-275.143 905.864,-282.021"/>
</g>
<!-- Node33 -->
<g id="node25" class="node"><title>Node33</title>
<g id="a_node25"><a xlink:href="_proj_piou_8h.html" target="_top" xlink:title="src/Projectiles/ProjPiou.h">
<polygon fill="white" stroke="black" points="238,-224.5 238,-243.5 365,-243.5 365,-224.5 238,-224.5"/>
<text text-anchor="middle" x="301.5" y="-231.5" font-family="Helvetica,sans-Serif" font-size="10.00">src/Projectiles/ProjPiou.h</text>
</a>
</g>
</g>
<!-- Node9&#45;&gt;Node33 -->
<g id="edge40" class="edge"><title>Node9&#45;&gt;Node33</title>
<path fill="none" stroke="midnightblue" d="M885.449,-282.778C754.267,-272.045 487.78,-250.241 365.472,-240.234"/>
<polygon fill="midnightblue" stroke="midnightblue" points="885.552,-286.298 895.804,-283.625 886.123,-279.321 885.552,-286.298"/>
</g>
<!-- Node10&#45;&gt;Node11 -->
<g id="edge2" class="edge"><title>Node10&#45;&gt;Node11</title>
<path fill="none" stroke="midnightblue" d="M944.921,-222.791C882.376,-212.587 787.312,-197.078 728.703,-187.516"/>
<polygon fill="midnightblue" stroke="midnightblue" points="944.619,-226.288 955.052,-224.444 945.746,-219.379 944.619,-226.288"/>
</g>
<!-- Node10&#45;&gt;Node15 -->
<g id="edge6" class="edge"><title>Node10&#45;&gt;Node15</title>
<path fill="none" stroke="midnightblue" d="M933.216,-228.065C826.037,-220.708 621.844,-205.802 448.5,-188 445.618,-187.704 442.672,-187.389 439.698,-187.059"/>
<polygon fill="midnightblue" stroke="midnightblue" points="933.066,-231.563 943.282,-228.753 933.544,-224.579 933.066,-231.563"/>
</g>
<!-- Node17 -->
<g id="node9" class="node"><title>Node17</title>
<g id="a_node9"><a xlink:href="_cap_dash_8h.html" target="_top" xlink:title="src/Capacites/CapDash.h">
<polygon fill="white" stroke="black" points="757.5,-168.5 757.5,-187.5 887.5,-187.5 887.5,-168.5 757.5,-168.5"/>
<text text-anchor="middle" x="822.5" y="-175.5" font-family="Helvetica,sans-Serif" font-size="10.00">src/Capacites/CapDash.h</text>
</a>
</g>
</g>
<!-- Node10&#45;&gt;Node17 -->
<g id="edge9" class="edge"><title>Node10&#45;&gt;Node17</title>
<path fill="none" stroke="midnightblue" d="M968.334,-221.568C933.435,-211.381 883.151,-196.703 851.677,-187.516"/>
<polygon fill="midnightblue" stroke="midnightblue" points="967.606,-225.001 978.186,-224.444 969.567,-218.282 967.606,-225.001"/>
</g>
<!-- Node10&#45;&gt;Node19 -->
<g id="edge13" class="edge"><title>Node10&#45;&gt;Node19</title>
<path fill="none" stroke="midnightblue" d="M993.772,-216.586C973.937,-192.871 937.972,-149.869 922.686,-131.591"/>
<polygon fill="midnightblue" stroke="midnightblue" points="991.181,-218.943 1000.28,-224.368 996.55,-214.452 991.181,-218.943"/>
</g>
<!-- Node10&#45;&gt;Node20 -->
<g id="edge14" class="edge"><title>Node10&#45;&gt;Node20</title>
<path fill="none" stroke="midnightblue" d="M1036.74,-220.368C1060.15,-210.255 1092.34,-196.349 1112.79,-187.516"/>
<polygon fill="midnightblue" stroke="midnightblue" points="1035.1,-217.265 1027.31,-224.444 1037.87,-223.691 1035.1,-217.265"/>
</g>
<!-- Node10&#45;&gt;Node21 -->
<g id="edge28" class="edge"><title>Node10&#45;&gt;Node21</title>
<path fill="none" stroke="midnightblue" d="M1059.11,-222.445C1148.59,-204.131 1338.3,-165.243 1498.5,-132 1501.49,-131.38 1504.59,-130.734 1507.7,-130.086"/>
<polygon fill="midnightblue" stroke="midnightblue" points="1058.31,-219.035 1049.22,-224.469 1059.72,-225.893 1058.31,-219.035"/>
</g>
<!-- Node26 -->
<g id="node18" class="node"><title>Node26</title>
<g id="a_node18"><a xlink:href="_vaisseau_test_8h.html" target="_top" xlink:title="src/Vaisseau/VaisseauTest.h">
<polygon fill="white" stroke="black" points="1003,-112.5 1003,-131.5 1148,-131.5 1148,-112.5 1003,-112.5"/>
<text text-anchor="middle" x="1075.5" y="-119.5" font-family="Helvetica,sans-Serif" font-size="10.00">src/Vaisseau/VaisseauTest.h</text>
</a>
</g>
</g>
<!-- Node10&#45;&gt;Node26 -->
<g id="edge29" class="edge"><title>Node10&#45;&gt;Node26</title>
<path fill="none" stroke="midnightblue" d="M1010.57,-214.325C1013.43,-200.714 1018.61,-182.241 1027.5,-168 1036.82,-153.078 1052.29,-139.824 1063.15,-131.632"/>
<polygon fill="midnightblue" stroke="midnightblue" points="1007.08,-213.944 1008.69,-224.416 1013.97,-215.225 1007.08,-213.944"/>
</g>
<!-- Node10&#45;&gt;Node28 -->
<g id="edge30" class="edge"><title>Node10&#45;&gt;Node28</title>
<path fill="none" stroke="midnightblue" d="M1017.29,-215.602C1026.55,-200.754 1041.78,-179.961 1060.5,-168 1091.99,-147.878 1132.04,-136.743 1165.98,-130.586"/>
<polygon fill="midnightblue" stroke="midnightblue" points="1014.2,-213.963 1012.1,-224.349 1020.22,-217.537 1014.2,-213.963"/>
</g>
<!-- Node10&#45;&gt;Node29 -->
<g id="edge31" class="edge"><title>Node10&#45;&gt;Node29</title>
<path fill="none" stroke="midnightblue" d="M1073.11,-222.923C1130.7,-214.001 1216.72,-200.493 1291.5,-188 1407.77,-168.576 1544.31,-144.178 1614.53,-131.512"/>
<polygon fill="midnightblue" stroke="midnightblue" points="1072.4,-219.491 1063.05,-224.479 1073.47,-226.409 1072.4,-219.491"/>
</g>
<!-- Node12 -->
<g id="node4" class="node"><title>Node12</title>
<g id="a_node4"><a xlink:href="___capacites_8h.html" target="_top" xlink:title="src/Capacites/_Capacites.h">
<polygon fill="white" stroke="black" points="376.5,-112.5 376.5,-131.5 514.5,-131.5 514.5,-112.5 376.5,-112.5"/>
<text text-anchor="middle" x="445.5" y="-119.5" font-family="Helvetica,sans-Serif" font-size="10.00">src/Capacites/_Capacites.h</text>
</a>
</g>
</g>
<!-- Node11&#45;&gt;Node12 -->
<g id="edge3" class="edge"><title>Node11&#45;&gt;Node12</title>
<path fill="none" stroke="midnightblue" d="M630.098,-166.153C586.453,-155.95 521.99,-140.881 481.931,-131.516"/>
<polygon fill="midnightblue" stroke="midnightblue" points="629.363,-169.575 639.897,-168.444 630.957,-162.759 629.363,-169.575"/>
</g>
<!-- Node14 -->
<g id="node6" class="node"><title>Node14</title>
<g id="a_node6"><a xlink:href="_cap_test_8cpp.html" target="_top" xlink:title="src/Capacites/CapTest.cpp">
<polygon fill="white" stroke="black" points="533,-112.5 533,-131.5 670,-131.5 670,-112.5 533,-112.5"/>
<text text-anchor="middle" x="601.5" y="-119.5" font-family="Helvetica,sans-Serif" font-size="10.00">src/Capacites/CapTest.cpp</text>
</a>
</g>
</g>
<!-- Node11&#45;&gt;Node14 -->
<g id="edge5" class="edge"><title>Node11&#45;&gt;Node14</title>
<path fill="none" stroke="midnightblue" d="M656.195,-162.38C642.639,-152.62 625.258,-140.106 613.769,-131.834"/>
<polygon fill="midnightblue" stroke="midnightblue" points="654.29,-165.321 664.45,-168.324 658.38,-159.641 654.29,-165.321"/>
</g>
<!-- Node13 -->
<g id="node5" class="node"><title>Node13</title>
<g id="a_node5"><a xlink:href="_partie_8cpp.html" target="_top" xlink:title="src/Partie.cpp">
<polygon fill="white" stroke="black" points="856,-0.5 856,-19.5 933,-19.5 933,-0.5 856,-0.5"/>
<text text-anchor="middle" x="894.5" y="-7.5" font-family="Helvetica,sans-Serif" font-size="10.00">src/Partie.cpp</text>
</a>
</g>
</g>
<!-- Node12&#45;&gt;Node13 -->
<g id="edge4" class="edge"><title>Node12&#45;&gt;Node13</title>
<path fill="none" stroke="midnightblue" d="M490.199,-110.049C579.66,-88.1324 779.037,-39.2872 859.664,-19.5345"/>
<polygon fill="midnightblue" stroke="midnightblue" points="489.239,-106.681 480.359,-112.46 490.904,-113.48 489.239,-106.681"/>
</g>
<!-- Node15&#45;&gt;Node12 -->
<g id="edge7" class="edge"><title>Node15&#45;&gt;Node12</title>
<path fill="none" stroke="midnightblue" d="M395.538,-162.101C407.956,-152.382 423.743,-140.027 434.212,-131.834"/>
<polygon fill="midnightblue" stroke="midnightblue" points="393.304,-159.405 387.586,-168.324 397.618,-164.917 393.304,-159.405"/>
</g>
<!-- Node16 -->
<g id="node8" class="node"><title>Node16</title>
<g id="a_node8"><a xlink:href="_cap_piou_8cpp.html" target="_top" xlink:title="src/Capacites/CapPiou.cpp">
<polygon fill="white" stroke="black" points="221,-112.5 221,-131.5 358,-131.5 358,-112.5 221,-112.5"/>
<text text-anchor="middle" x="289.5" y="-119.5" font-family="Helvetica,sans-Serif" font-size="10.00">src/Capacites/CapPiou.cpp</text>
</a>
</g>
</g>
<!-- Node15&#45;&gt;Node16 -->
<g id="edge8" class="edge"><title>Node15&#45;&gt;Node16</title>
<path fill="none" stroke="midnightblue" d="M353.784,-162.901C337.831,-152.999 317.003,-140.071 303.443,-131.655"/>
<polygon fill="midnightblue" stroke="midnightblue" points="352.18,-166.024 362.522,-168.324 355.871,-160.077 352.18,-166.024"/>
</g>
<!-- Node17&#45;&gt;Node12 -->
<g id="edge10" class="edge"><title>Node17&#45;&gt;Node12</title>
<path fill="none" stroke="midnightblue" d="M752.541,-166.979C681.328,-156.779 572.124,-141.137 504.957,-131.516"/>
<polygon fill="midnightblue" stroke="midnightblue" points="752.368,-170.49 762.763,-168.444 753.361,-163.561 752.368,-170.49"/>
</g>
<!-- Node17&#45;&gt;Node14 -->
<g id="edge12" class="edge"><title>Node17&#45;&gt;Node14</title>
<path fill="none" stroke="midnightblue" d="M777.579,-166.024C735.832,-155.823 674.518,-140.841 636.354,-131.516"/>
<polygon fill="midnightblue" stroke="midnightblue" points="776.937,-169.47 787.482,-168.444 778.598,-162.67 776.937,-169.47"/>
</g>
<!-- Node18 -->
<g id="node10" class="node"><title>Node18</title>
<g id="a_node10"><a xlink:href="_cap_dash_8cpp.html" target="_top" xlink:title="src/Capacites/CapDash.cpp">
<polygon fill="white" stroke="black" points="688.5,-112.5 688.5,-131.5 828.5,-131.5 828.5,-112.5 688.5,-112.5"/>
<text text-anchor="middle" x="758.5" y="-119.5" font-family="Helvetica,sans-Serif" font-size="10.00">src/Capacites/CapDash.cpp</text>
</a>
</g>
</g>
<!-- Node17&#45;&gt;Node18 -->
<g id="edge11" class="edge"><title>Node17&#45;&gt;Node18</title>
<path fill="none" stroke="midnightblue" d="M804.509,-161.82C793.042,-152.145 778.587,-139.948 768.97,-131.834"/>
<polygon fill="midnightblue" stroke="midnightblue" points="802.317,-164.55 812.217,-168.324 806.831,-159.2 802.317,-164.55"/>
</g>
<!-- Node20&#45;&gt;Node19 -->
<g id="edge15" class="edge"><title>Node20&#45;&gt;Node19</title>
<path fill="none" stroke="midnightblue" d="M1088.39,-166.024C1047.4,-155.823 987.196,-140.841 949.723,-131.516"/>
<polygon fill="midnightblue" stroke="midnightblue" points="1087.57,-169.425 1098.12,-168.444 1089.26,-162.632 1087.57,-169.425"/>
</g>
<!-- Node20&#45;&gt;Node21 -->
<g id="edge16" class="edge"><title>Node20&#45;&gt;Node21</title>
<path fill="none" stroke="midnightblue" d="M1205.58,-168.349C1304.07,-156.639 1470.36,-136.666 1498.5,-132 1501.51,-131.501 1504.63,-130.938 1507.75,-130.344"/>
<polygon fill="midnightblue" stroke="midnightblue" points="1204.9,-164.905 1195.39,-169.56 1205.73,-171.856 1204.9,-164.905"/>
</g>
<!-- Node23 -->
<g id="node15" class="node"><title>Node23</title>
<g id="a_node15"><a xlink:href="_vaisseau_eclaireur_8h.html" target="_top" xlink:title="src/Vaisseau/VaisseauEclaireur.h">
<polygon fill="white" stroke="black" points="1325.5,-112.5 1325.5,-131.5 1489.5,-131.5 1489.5,-112.5 1325.5,-112.5"/>
<text text-anchor="middle" x="1407.5" y="-119.5" font-family="Helvetica,sans-Serif" font-size="10.00">src/Vaisseau/VaisseauEclaireur.h</text>
</a>
</g>
</g>
<!-- Node20&#45;&gt;Node23 -->
<g id="edge19" class="edge"><title>Node20&#45;&gt;Node23</title>
<path fill="none" stroke="midnightblue" d="M1186.11,-166.473C1238.08,-156.268 1315.94,-140.979 1364.13,-131.516"/>
<polygon fill="midnightblue" stroke="midnightblue" points="1185.21,-163.082 1176.07,-168.444 1186.56,-169.951 1185.21,-163.082"/>
</g>
<!-- Node20&#45;&gt;Node26 -->
<g id="edge23" class="edge"><title>Node20&#45;&gt;Node26</title>
<path fill="none" stroke="midnightblue" d="M1115.88,-161.253C1105.77,-151.673 1093.22,-139.791 1084.82,-131.834"/>
<polygon fill="midnightblue" stroke="midnightblue" points="1113.68,-163.987 1123.34,-168.324 1118.49,-158.906 1113.68,-163.987"/>
</g>
<!-- Node20&#45;&gt;Node28 -->
<g id="edge26" class="edge"><title>Node20&#45;&gt;Node28</title>
<path fill="none" stroke="midnightblue" d="M1158.33,-163.59C1177.56,-153.605 1203.24,-140.267 1219.83,-131.655"/>
<polygon fill="midnightblue" stroke="midnightblue" points="1156.47,-160.61 1149.21,-168.324 1159.7,-166.822 1156.47,-160.61"/>
</g>
<!-- Node20&#45;&gt;Node29 -->
<g id="edge27" class="edge"><title>Node20&#45;&gt;Node29</title>
<path fill="none" stroke="midnightblue" d="M1205.29,-170.086C1294.47,-161.534 1450.16,-146.344 1583.5,-132 1586.75,-131.65 1590.08,-131.287 1593.44,-130.915"/>
<polygon fill="midnightblue" stroke="midnightblue" points="1204.9,-166.607 1195.28,-171.045 1205.57,-173.575 1204.9,-166.607"/>
</g>
<!-- Node21&#45;&gt;Node13 -->
<g id="edge18" class="edge"><title>Node21&#45;&gt;Node13</title>
<path fill="none" stroke="midnightblue" d="M1552.08,-103.121C1559.15,-88.5989 1565.21,-68.5374 1553.5,-56 1511.08,-10.5882 1068.08,-9.81591 933.232,-10.6466"/>
<polygon fill="midnightblue" stroke="midnightblue" points="1548.89,-101.665 1547.23,-112.129 1555.06,-104.982 1548.89,-101.665"/>
</g>
<!-- Node22 -->
<g id="node14" class="node"><title>Node22</title>
<g id="a_node14"><a xlink:href="main_8cpp.html" target="_top" xlink:title="src/main.cpp">
<polygon fill="white" stroke="black" points="1472,-56.5 1472,-75.5 1545,-75.5 1545,-56.5 1472,-56.5"/>
<text text-anchor="middle" x="1508.5" y="-63.5" font-family="Helvetica,sans-Serif" font-size="10.00">src/main.cpp</text>
</a>
</g>
</g>
<!-- Node21&#45;&gt;Node22 -->
<g id="edge17" class="edge"><title>Node21&#45;&gt;Node22</title>
<path fill="none" stroke="midnightblue" d="M1530.67,-103.275C1525.03,-94.0454 1518.38,-83.1703 1513.85,-75.7511"/>
<polygon fill="midnightblue" stroke="midnightblue" points="1527.85,-105.375 1536.05,-112.083 1533.82,-101.725 1527.85,-105.375"/>
</g>
<!-- Node24 -->
<g id="node16" class="node"><title>Node24</title>
<g id="a_node16"><a xlink:href="__vaisseaux_8h.html" target="_top" xlink:title="src/Vaisseau/_vaisseaux.h">
<polygon fill="white" stroke="black" points="1067.5,-56.5 1067.5,-75.5 1201.5,-75.5 1201.5,-56.5 1067.5,-56.5"/>
<text text-anchor="middle" x="1134.5" y="-63.5" font-family="Helvetica,sans-Serif" font-size="10.00">src/Vaisseau/_vaisseaux.h</text>
</a>
</g>
</g>
<!-- Node23&#45;&gt;Node24 -->
<g id="edge20" class="edge"><title>Node23&#45;&gt;Node24</title>
<path fill="none" stroke="midnightblue" d="M1354.28,-110.473C1302.69,-100.268 1225.4,-84.9794 1177.56,-75.5164"/>
<polygon fill="midnightblue" stroke="midnightblue" points="1353.75,-113.937 1364.24,-112.444 1355.11,-107.07 1353.75,-113.937"/>
</g>
<!-- Node25 -->
<g id="node17" class="node"><title>Node25</title>
<g id="a_node17"><a xlink:href="_vaisseau_eclaireur_8cpp.html" target="_top" xlink:title="src/Vaisseau/VaisseauEclaireur.cpp">
<polygon fill="white" stroke="black" points="1279.5,-56.5 1279.5,-75.5 1453.5,-75.5 1453.5,-56.5 1279.5,-56.5"/>
<text text-anchor="middle" x="1366.5" y="-63.5" font-family="Helvetica,sans-Serif" font-size="10.00">src/Vaisseau/VaisseauEclaireur.cpp</text>
</a>
</g>
</g>
<!-- Node23&#45;&gt;Node25 -->
<g id="edge22" class="edge"><title>Node23&#45;&gt;Node25</title>
<path fill="none" stroke="midnightblue" d="M1394.48,-103.855C1387.38,-94.5048 1378.9,-83.3265 1373.14,-75.7511"/>
<polygon fill="midnightblue" stroke="midnightblue" points="1391.89,-106.235 1400.73,-112.083 1397.47,-102.002 1391.89,-106.235"/>
</g>
<!-- Node24&#45;&gt;Node13 -->
<g id="edge21" class="edge"><title>Node24&#45;&gt;Node13</title>
<path fill="none" stroke="midnightblue" d="M1086.58,-54.2172C1041.23,-44.0134 974.058,-28.9006 932.351,-19.5164"/>
<polygon fill="midnightblue" stroke="midnightblue" points="1085.95,-57.663 1096.47,-56.4435 1087.48,-50.8337 1085.95,-57.663"/>
</g>
<!-- Node26&#45;&gt;Node24 -->
<g id="edge24" class="edge"><title>Node26&#45;&gt;Node24</title>
<path fill="none" stroke="midnightblue" d="M1092.39,-105.537C1102.91,-95.9087 1116.07,-83.8694 1124.85,-75.8339"/>
<polygon fill="midnightblue" stroke="midnightblue" points="1089.99,-102.99 1084.98,-112.324 1094.72,-108.154 1089.99,-102.99"/>
</g>
<!-- Node27 -->
<g id="node19" class="node"><title>Node27</title>
<g id="a_node19"><a xlink:href="_vaisseau_test_8cpp.html" target="_top" xlink:title="src/Vaisseau/VaisseauTest.cpp">
<polygon fill="white" stroke="black" points="894,-56.5 894,-75.5 1049,-75.5 1049,-56.5 894,-56.5"/>
<text text-anchor="middle" x="971.5" y="-63.5" font-family="Helvetica,sans-Serif" font-size="10.00">src/Vaisseau/VaisseauTest.cpp</text>
</a>
</g>
</g>
<!-- Node26&#45;&gt;Node27 -->
<g id="edge25" class="edge"><title>Node26&#45;&gt;Node27</title>
<path fill="none" stroke="midnightblue" d="M1049.67,-107.59C1030.44,-97.6052 1004.76,-84.2672 988.168,-75.6545"/>
<polygon fill="midnightblue" stroke="midnightblue" points="1048.3,-110.822 1058.79,-112.324 1051.53,-104.61 1048.3,-110.822"/>
</g>
<!-- Node30&#45;&gt;Node11 -->
<g id="edge34" class="edge"><title>Node30&#45;&gt;Node11</title>
<path fill="none" stroke="midnightblue" d="M676.5,-213.805C676.5,-204.91 676.5,-194.78 676.5,-187.751"/>
<polygon fill="midnightblue" stroke="midnightblue" points="673,-214.083 676.5,-224.083 680,-214.083 673,-214.083"/>
</g>
<!-- Node30&#45;&gt;Node17 -->
<g id="edge35" class="edge"><title>Node30&#45;&gt;Node17</title>
<path fill="none" stroke="midnightblue" d="M709.199,-220.906C736.648,-210.754 775.168,-196.506 799.474,-187.516"/>
<polygon fill="midnightblue" stroke="midnightblue" points="707.799,-217.692 699.634,-224.444 710.227,-224.257 707.799,-217.692"/>
</g>
<!-- Node31 -->
<g id="node23" class="node"><title>Node31</title>
<g id="a_node23"><a xlink:href="__projectiles_8h.html" target="_top" xlink:title="src/Projectiles/_projectiles.h">
<polygon fill="white" stroke="black" points="155.5,-168.5 155.5,-187.5 295.5,-187.5 295.5,-168.5 155.5,-168.5"/>
<text text-anchor="middle" x="225.5" y="-175.5" font-family="Helvetica,sans-Serif" font-size="10.00">src/Projectiles/_projectiles.h</text>
</a>
</g>
</g>
<!-- Node30&#45;&gt;Node31 -->
<g id="edge36" class="edge"><title>Node30&#45;&gt;Node31</title>
<path fill="none" stroke="midnightblue" d="M602.742,-224.169C517.697,-213.986 378.932,-197.371 295.507,-187.382"/>
<polygon fill="midnightblue" stroke="midnightblue" points="602.494,-227.664 612.839,-225.378 603.326,-220.714 602.494,-227.664"/>
</g>
<!-- Node32 -->
<g id="node24" class="node"><title>Node32</title>
<g id="a_node24"><a xlink:href="_proj_test_8cpp.html" target="_top" xlink:title="src/Projectiles/ProjTest.cpp">
<polygon fill="white" stroke="black" points="458,-168.5 458,-187.5 595,-187.5 595,-168.5 458,-168.5"/>
<text text-anchor="middle" x="526.5" y="-175.5" font-family="Helvetica,sans-Serif" font-size="10.00">src/Projectiles/ProjTest.cpp</text>
</a>
</g>
</g>
<!-- Node30&#45;&gt;Node32 -->
<g id="edge38" class="edge"><title>Node30&#45;&gt;Node32</title>
<path fill="none" stroke="midnightblue" d="M643.275,-221.039C615.052,-210.879 575.238,-196.546 550.157,-187.516"/>
<polygon fill="midnightblue" stroke="midnightblue" points="642.138,-224.349 652.732,-224.444 644.509,-217.763 642.138,-224.349"/>
</g>
<!-- Node31&#45;&gt;Node13 -->
<g id="edge37" class="edge"><title>Node31&#45;&gt;Node13</title>
<path fill="none" stroke="midnightblue" d="M214.393,-159.395C206.893,-145.038 200.225,-125.065 211.5,-112 296.079,-13.9944 724.168,-9.46993 855.881,-10.4487"/>
<polygon fill="midnightblue" stroke="midnightblue" points="211.486,-161.361 219.508,-168.283 217.554,-157.87 211.486,-161.361"/>
</g>
<!-- Node33&#45;&gt;Node15 -->
<g id="edge41" class="edge"><title>Node33&#45;&gt;Node15</title>
<path fill="none" stroke="midnightblue" d="M321.805,-218.38C335.361,-208.62 352.742,-196.106 364.231,-187.834"/>
<polygon fill="midnightblue" stroke="midnightblue" points="319.62,-215.641 313.55,-224.324 323.71,-221.321 319.62,-215.641"/>
</g>
<!-- Node33&#45;&gt;Node31 -->
<g id="edge42" class="edge"><title>Node33&#45;&gt;Node31</title>
<path fill="none" stroke="midnightblue" d="M280.924,-218.38C267.188,-208.62 249.575,-196.106 237.933,-187.834"/>
<polygon fill="midnightblue" stroke="midnightblue" points="279.11,-221.385 289.289,-224.324 283.165,-215.679 279.11,-221.385"/>
</g>
<!-- Node34 -->
<g id="node26" class="node"><title>Node34</title>
<g id="a_node26"><a xlink:href="_proj_piou_8cpp.html" target="_top" xlink:title="src/Projectiles/ProjPiou.cpp">
<polygon fill="white" stroke="black" points="0,-168.5 0,-187.5 137,-187.5 137,-168.5 0,-168.5"/>
<text text-anchor="middle" x="68.5" y="-175.5" font-family="Helvetica,sans-Serif" font-size="10.00">src/Projectiles/ProjPiou.cpp</text>
</a>
</g>
</g>
<!-- Node33&#45;&gt;Node34 -->
<g id="edge43" class="edge"><title>Node33&#45;&gt;Node34</title>
<path fill="none" stroke="midnightblue" d="M254.697,-222.153C210.673,-211.95 145.653,-196.881 105.247,-187.516"/>
<polygon fill="midnightblue" stroke="midnightblue" points="254.048,-225.595 264.58,-224.444 255.629,-218.776 254.048,-225.595"/>
</g>
</g>
</svg>
        <g id="navigator" transform="translate(0 0)" fill="#404254">
                <rect fill="#f2f5e9" fill-opacity="0.5" stroke="#606060" stroke-width=".5" x="0" y="0" width="60" height="60"/>
                <use id="zoomplus" xlink:href="#zoomPlus" x="17" y="9" onmousedown="handleZoom(evt,'in')"/>
                <use id="zoomminus" xlink:href="#zoomMin" x="42" y="9" onmousedown="handleZoom(evt,'out')"/>
                <use id="reset" xlink:href="#resetDef" x="30" y="36" onmousedown="handleReset()"/>
                <g id="arrowUp" xlink:href="#dirArrow" transform="translate(30 24)" onmousedown="handlePan(0,-1)">
                  <use xlink:href="#rim" fill="#404040">
                        <set attributeName="fill" to="#808080" begin="arrowUp.mouseover" end="arrowUp.mouseout"/>
                  </use>
                  <path fill="none" stroke="white" stroke-width="1.5" d="M0,-3.0v7 M-2.5,-0.5L0,-3.0L2.5,-0.5"/>
                </g>
                <g id="arrowRight" xlink:href="#dirArrow" transform="rotate(90) translate(36 -43)" onmousedown="handlePan(1,0)">
                  <use xlink:href="#rim" fill="#404040">
                        <set attributeName="fill" to="#808080" begin="arrowRight.mouseover" end="arrowRight.mouseout"/>
                  </use>
                  <path fill="none" stroke="white" stroke-width="1.5" d="M0,-3.0v7 M-2.5,-0.5L0,-3.0L2.5,-0.5"/>
                </g>
                <g id="arrowDown" xlink:href="#dirArrow" transform="rotate(180) translate(-30 -48)" onmousedown="handlePan(0,1)">
                  <use xlink:href="#rim" fill="#404040">
                        <set attributeName="fill" to="#808080" begin="arrowDown.mouseover" end="arrowDown.mouseout"/>
                  </use>
                  <path fill="none" stroke="white" stroke-width="1.5" d="M0,-3.0v7 M-2.5,-0.5L0,-3.0L2.5,-0.5"/>
                </g>
                <g id="arrowLeft" xlink:href="#dirArrow" transform="rotate(270) translate(-36 17)" onmousedown="handlePan(-1,0)">
                  <use xlink:href="#rim" fill="#404040">
                        <set attributeName="fill" to="#808080" begin="arrowLeft.mouseover" end="arrowLeft.mouseout"/>
                  </use>
                  <path fill="none" stroke="white" stroke-width="1.5" d="M0,-3.0v7 M-2.5,-0.5L0,-3.0L2.5,-0.5"/>
                </g>
        </g>
        <svg viewBox="0 0 15 15" width="100%" height="30px" preserveAspectRatio="xMaxYMin meet">
         <g id="arrow_out" transform="scale(0.3 0.3)">
          <a xlink:href="_projectile_8h__dep__incl_org.svg" target="_base">
           <rect id="button" ry="5" rx="5" y="6" x="6" height="38" width="38"
                fill="#f2f5e9" fill-opacity="0.5" stroke="#606060" stroke-width="1.0"/>
           <path id="arrow"
             d="M 11.500037,31.436501 C 11.940474,20.09759 22.043105,11.32322 32.158766,21.979434 L 37.068811,17.246167 C 37.068811,17.246167 37.088388,32 37.088388,32 L 22.160133,31.978069 C 22.160133,31.978069 26.997745,27.140456 26.997745,27.140456 C 18.528582,18.264221 13.291696,25.230495 11.500037,31.436501 z"
             style="fill:#404040;"/>
          </a>
         </g>
        </svg>
</svg>
