<?xml version="1.0" encoding="UTF-8" standalone="no"?>
<!DOCTYPE svg PUBLIC "-//W3C//DTD SVG 1.1//EN"
 "http://www.w3.org/Graphics/SVG/1.1/DTD/svg11.dtd">
<!-- Generated by graphviz version 2.38.0 (20140413.2041)
 -->
<!-- Title: src/Projectiles/ProjPiou.h Pages: 1 -->
<svg width="460pt" height="196pt"
 viewBox="0.00 0.00 459.50 196.00" xmlns="http://www.w3.org/2000/svg" xmlns:xlink="http://www.w3.org/1999/xlink">
<g id="graph0" class="graph" transform="scale(1 1) rotate(0) translate(4 192)">
<title>src/Projectiles/ProjPiou.h</title>
<polygon fill="white" stroke="none" points="-4,4 -4,-192 455.5,-192 455.5,4 -4,4"/>
<!-- Node0 -->
<g id="node1" class="node"><title>Node0</title>
<polygon fill="#bfbfbf" stroke="black" points="24.5,-168.5 24.5,-187.5 151.5,-187.5 151.5,-168.5 24.5,-168.5"/>
<text text-anchor="middle" x="88" y="-175.5" font-family="Helvetica,sans-Serif" font-size="10.00">src/Projectiles/ProjPiou.h</text>
</g>
<!-- Node1 -->
<g id="node2" class="node"><title>Node1</title>
<g id="a_node2"><a xlink:href="_projectile_8h.html" target="_top" xlink:title="Projectile.h">
<polygon fill="white" stroke="black" points="55.5,-112.5 55.5,-131.5 120.5,-131.5 120.5,-112.5 55.5,-112.5"/>
<text text-anchor="middle" x="88" y="-119.5" font-family="Helvetica,sans-Serif" font-size="10.00">Projectile.h</text>
</a>
</g>
</g>
<!-- Node0&#45;&gt;Node1 -->
<g id="edge1" class="edge"><title>Node0&#45;&gt;Node1</title>
<path fill="none" stroke="midnightblue" d="M88,-168.083C88,-161.006 88,-150.861 88,-141.986"/>
<polygon fill="midnightblue" stroke="midnightblue" points="91.5001,-141.751 88,-131.751 84.5001,-141.751 91.5001,-141.751"/>
</g>
<!-- Node2 -->
<g id="node3" class="node"><title>Node2</title>
<polygon fill="white" stroke="#bfbfbf" points="0,-0.5 0,-19.5 44,-19.5 44,-0.5 0,-0.5"/>
<text text-anchor="middle" x="22" y="-7.5" font-family="Helvetica,sans-Serif" font-size="10.00">vector</text>
</g>
<!-- Node1&#45;&gt;Node2 -->
<g id="edge2" class="edge"><title>Node1&#45;&gt;Node2</title>
<path fill="none" stroke="midnightblue" d="M67.6876,-112.459C53.0283,-105.114 34.2511,-93.0013 25,-76 17.3227,-61.891 17.2482,-43.4029 18.6993,-29.7527"/>
<polygon fill="midnightblue" stroke="midnightblue" points="22.1965,-30.0208 20.1438,-19.6267 15.2666,-29.0322 22.1965,-30.0208"/>
</g>
<!-- Node3 -->
<g id="node4" class="node"><title>Node3</title>
<polygon fill="white" stroke="#bfbfbf" points="34.5,-56.5 34.5,-75.5 75.5,-75.5 75.5,-56.5 34.5,-56.5"/>
<text text-anchor="middle" x="55" y="-63.5" font-family="Helvetica,sans-Serif" font-size="10.00">string</text>
</g>
<!-- Node1&#45;&gt;Node3 -->
<g id="edge3" class="edge"><title>Node1&#45;&gt;Node3</title>
<path fill="none" stroke="midnightblue" d="M82.5507,-112.083C77.9855,-104.613 71.3316,-93.7244 65.7066,-84.5199"/>
<polygon fill="midnightblue" stroke="midnightblue" points="68.5489,-82.4588 60.3479,-75.7511 62.5759,-86.109 68.5489,-82.4588"/>
</g>
<!-- Node4 -->
<g id="node5" class="node"><title>Node4</title>
<polygon fill="white" stroke="#bfbfbf" points="94,-56.5 94,-75.5 150,-75.5 150,-56.5 94,-56.5"/>
<text text-anchor="middle" x="122" y="-63.5" font-family="Helvetica,sans-Serif" font-size="10.00">algorithm</text>
</g>
<!-- Node1&#45;&gt;Node4 -->
<g id="edge4" class="edge"><title>Node1&#45;&gt;Node4</title>
<path fill="none" stroke="midnightblue" d="M93.6144,-112.083C98.3674,-104.534 105.318,-93.4948 111.152,-84.2298"/>
<polygon fill="midnightblue" stroke="midnightblue" points="114.124,-86.0783 116.49,-75.7511 108.2,-82.3486 114.124,-86.0783"/>
</g>
<!-- Node5 -->
<g id="node6" class="node"><title>Node5</title>
<g id="a_node6"><a xlink:href="_entite_8h.html" target="_top" xlink:title="../Entite.h">
<polygon fill="white" stroke="black" points="168.5,-56.5 168.5,-75.5 227.5,-75.5 227.5,-56.5 168.5,-56.5"/>
<text text-anchor="middle" x="198" y="-63.5" font-family="Helvetica,sans-Serif" font-size="10.00">../Entite.h</text>
</a>
</g>
</g>
<!-- Node1&#45;&gt;Node5 -->
<g id="edge5" class="edge"><title>Node1&#45;&gt;Node5</title>
<path fill="none" stroke="midnightblue" d="M105.673,-112.324C123.394,-103.625 150.903,-90.1202 171.288,-80.113"/>
<polygon fill="midnightblue" stroke="midnightblue" points="172.936,-83.2031 180.37,-75.6545 169.851,-76.9195 172.936,-83.2031"/>
</g>
<!-- Node5&#45;&gt;Node2 -->
<g id="edge6" class="edge"><title>Node5&#45;&gt;Node2</title>
<path fill="none" stroke="midnightblue" d="M170.112,-56.4435C138.489,-46.7411 87.0288,-30.952 53.8518,-20.7727"/>
<polygon fill="midnightblue" stroke="midnightblue" points="54.7714,-17.3939 44.1846,-17.8067 52.7181,-24.086 54.7714,-17.3939"/>
</g>
<!-- Node6 -->
<g id="node7" class="node"><title>Node6</title>
<polygon fill="white" stroke="#bfbfbf" points="70,-0.5 70,-19.5 122,-19.5 122,-0.5 70,-0.5"/>
<text text-anchor="middle" x="96" y="-7.5" font-family="Helvetica,sans-Serif" font-size="10.00">memory</text>
</g>
<!-- Node5&#45;&gt;Node6 -->
<g id="edge7" class="edge"><title>Node5&#45;&gt;Node6</title>
<path fill="none" stroke="midnightblue" d="M181.612,-56.324C165.329,-47.7034 140.133,-34.3643 121.284,-24.3855"/>
<polygon fill="midnightblue" stroke="midnightblue" points="122.823,-21.2402 112.347,-19.6545 119.548,-27.4267 122.823,-21.2402"/>
</g>
<!-- Node7 -->
<g id="node8" class="node"><title>Node7</title>
<polygon fill="white" stroke="#bfbfbf" points="140,-0.5 140,-19.5 238,-19.5 238,-0.5 140,-0.5"/>
<text text-anchor="middle" x="189" y="-7.5" font-family="Helvetica,sans-Serif" font-size="10.00">SFML/System.hpp</text>
</g>
<!-- Node5&#45;&gt;Node7 -->
<g id="edge8" class="edge"><title>Node5&#45;&gt;Node7</title>
<path fill="none" stroke="midnightblue" d="M196.514,-56.083C195.321,-48.9272 193.606,-38.6353 192.115,-29.6911"/>
<polygon fill="midnightblue" stroke="midnightblue" points="195.555,-29.0396 190.459,-19.7511 188.65,-30.1904 195.555,-29.0396"/>
</g>
<!-- Node8 -->
<g id="node9" class="node"><title>Node8</title>
<polygon fill="white" stroke="#bfbfbf" points="256,-0.5 256,-19.5 360,-19.5 360,-0.5 256,-0.5"/>
<text text-anchor="middle" x="308" y="-7.5" font-family="Helvetica,sans-Serif" font-size="10.00">SFML/Graphics.hpp</text>
</g>
<!-- Node5&#45;&gt;Node8 -->
<g id="edge9" class="edge"><title>Node5&#45;&gt;Node8</title>
<path fill="none" stroke="midnightblue" d="M215.673,-56.324C233.394,-47.6247 260.903,-34.1202 281.288,-24.113"/>
<polygon fill="midnightblue" stroke="midnightblue" points="282.936,-27.2031 290.37,-19.6545 279.851,-20.9195 282.936,-27.2031"/>
</g>
<!-- Node9 -->
<g id="node10" class="node"><title>Node9</title>
<g id="a_node10"><a xlink:href="constantes_8h.html" target="_top" xlink:title="constantes.h">
<polygon fill="white" stroke="black" points="378.5,-0.5 378.5,-19.5 451.5,-19.5 451.5,-0.5 378.5,-0.5"/>
<text text-anchor="middle" x="415" y="-7.5" font-family="Helvetica,sans-Serif" font-size="10.00">constantes.h</text>
</a>
</g>
</g>
<!-- Node5&#45;&gt;Node9 -->
<g id="edge10" class="edge"><title>Node5&#45;&gt;Node9</title>
<path fill="none" stroke="midnightblue" d="M227.718,-57.6048C264.684,-48.4057 328.123,-32.6193 370.799,-21.9994"/>
<polygon fill="midnightblue" stroke="midnightblue" points="371.779,-25.3622 380.638,-19.5509 370.089,-18.5694 371.779,-25.3622"/>
</g>
</g>
</svg>
