<?xml version="1.0" encoding="UTF-8" standalone="no"?>
<!DOCTYPE svg PUBLIC "-//W3C//DTD SVG 1.1//EN"
 "http://www.w3.org/Graphics/SVG/1.1/DTD/svg11.dtd">
<!-- Generated by graphviz version 2.38.0 (20140413.2041)
 -->
<!-- Title: src/Utilitaires/Trajectoire.h Pages: 1 -->
<!--zoomable 252 -->
<svg id="main" version="1.1" xmlns="http://www.w3.org/2000/svg" xmlns:xlink="http://www.w3.org/1999/xlink" xml:space="preserve" onload="init(evt)">
<style type="text/css"><![CDATA[
.edge:hover path { stroke: red; }
.edge:hover polygon { stroke: red; fill: red; }
]]></style>
<script type="text/javascript"><![CDATA[
var edges = document.getElementsByTagName('g');
if (edges && edges.length) {
  for (var i=0;i<edges.length;i++) {
    if (edges[i].id.substr(0,4)=='edge') {
      edges[i].setAttribute('class','edge');
    }
  }
}
]]></script>
        <defs>
                <circle id="rim" cx="0" cy="0" r="7"/>
                <circle id="rim2" cx="0" cy="0" r="3.5"/>
                <g id="zoomPlus">
                        <use xlink:href="#rim" fill="#404040">
                                <set attributeName="fill" to="#808080" begin="zoomplus.mouseover" end="zoomplus.mouseout"/>
                        </use>
                        <path d="M-4,0h8M0,-4v8" fill="none" stroke="white" stroke-width="1.5" pointer-events="none"/>
                </g>
                <g id="zoomMin">
                        <use xlink:href="#rim" fill="#404040">
                                <set attributeName="fill" to="#808080" begin="zoomminus.mouseover" end="zoomminus.mouseout"/>
                        </use>
                        <path d="M-4,0h8" fill="none" stroke="white" stroke-width="1.5" pointer-events="none"/>
                </g>
                <g id="dirArrow">
                        <path fill="none" stroke="white" stroke-width="1.5" d="M0,-3.0v7 M-2.5,-0.5L0,-3.0L2.5,-0.5"/>
                </g>
               <g id="resetDef">
                       <use xlink:href="#rim2" fill="#404040">
                               <set attributeName="fill" to="#808080" begin="reset.mouseover" end="reset.mouseout"/>
                       </use>
               </g>
        </defs>

<script type="text/javascript">
var viewWidth = 792;
var viewHeight = 252;
var sectionId = 'dynsection-1';
</script>
<script xlink:href="svgpan.js"/>
<svg id="graph" class="graph">
<g id="viewport">
<title>src/Utilitaires/Trajectoire.h</title>
<polygon fill="white" stroke="none" points="-4,4 -4,-248 788,-248 788,4 -4,4"/>
<!-- Node4 -->
<g id="node1" class="node"><title>Node4</title>
<polygon fill="#bfbfbf" stroke="black" points="383.5,-224.5 383.5,-243.5 514.5,-243.5 514.5,-224.5 383.5,-224.5"/>
<text text-anchor="middle" x="449" y="-231.5" font-family="Helvetica,sans-Serif" font-size="10.00">src/Utilitaires/Trajectoire.h</text>
</g>
<!-- Node5 -->
<g id="node2" class="node"><title>Node5</title>
<g id="a_node2"><a xlink:href="_vaisseau_eclaireur_8h.html" target="_top" xlink:title="src/Vaisseau/VaisseauEclaireur.h">
<polygon fill="white" stroke="black" points="460,-168.5 460,-187.5 624,-187.5 624,-168.5 460,-168.5"/>
<text text-anchor="middle" x="542" y="-175.5" font-family="Helvetica,sans-Serif" font-size="10.00">src/Vaisseau/VaisseauEclaireur.h</text>
</a>
</g>
</g>
<!-- Node4&#45;&gt;Node5 -->
<g id="edge1" class="edge"><title>Node4&#45;&gt;Node5</title>
<path fill="none" stroke="midnightblue" d="M472.806,-219.177C489.919,-209.241 512.465,-196.149 527.095,-187.655"/>
<polygon fill="midnightblue" stroke="midnightblue" points="470.832,-216.276 463.942,-224.324 474.347,-222.329 470.832,-216.276"/>
</g>
<!-- Node11 -->
<g id="node8" class="node"><title>Node11</title>
<g id="a_node8"><a xlink:href="_vaisseau_attaquant_8h.html" target="_top" xlink:title="src/Vaisseau/VaisseauAttaquant.h">
<polygon fill="white" stroke="black" points="86.5,-168.5 86.5,-187.5 253.5,-187.5 253.5,-168.5 86.5,-168.5"/>
<text text-anchor="middle" x="170" y="-175.5" font-family="Helvetica,sans-Serif" font-size="10.00">src/Vaisseau/VaisseauAttaquant.h</text>
</a>
</g>
</g>
<!-- Node4&#45;&gt;Node11 -->
<g id="edge8" class="edge"><title>Node4&#45;&gt;Node11</title>
<path fill="none" stroke="midnightblue" d="M394.942,-222.537C342.213,-212.332 262.996,-196.999 214.002,-187.516"/>
<polygon fill="midnightblue" stroke="midnightblue" points="394.309,-225.979 404.792,-224.444 395.639,-219.107 394.309,-225.979"/>
</g>
<!-- Node13 -->
<g id="node10" class="node"><title>Node13</title>
<g id="a_node10"><a xlink:href="_vaisseau_defenseur_8h.html" target="_top" xlink:title="src/Vaisseau/VaisseauDefenseur.h">
<polygon fill="white" stroke="black" points="272,-168.5 272,-187.5 442,-187.5 442,-168.5 272,-168.5"/>
<text text-anchor="middle" x="357" y="-175.5" font-family="Helvetica,sans-Serif" font-size="10.00">src/Vaisseau/VaisseauDefenseur.h</text>
</a>
</g>
</g>
<!-- Node4&#45;&gt;Node13 -->
<g id="edge11" class="edge"><title>Node4&#45;&gt;Node13</title>
<path fill="none" stroke="midnightblue" d="M425.45,-219.177C408.521,-209.241 386.217,-196.149 371.745,-187.655"/>
<polygon fill="midnightblue" stroke="midnightblue" points="423.823,-222.28 434.219,-224.324 427.366,-216.243 423.823,-222.28"/>
</g>
<!-- Node15 -->
<g id="node12" class="node"><title>Node15</title>
<g id="a_node12"><a xlink:href="_trajectoire_8cpp.html" target="_top" xlink:title="src/Utilitaires/Trajectoire.cpp">
<polygon fill="white" stroke="black" points="642,-168.5 642,-187.5 784,-187.5 784,-168.5 642,-168.5"/>
<text text-anchor="middle" x="713" y="-175.5" font-family="Helvetica,sans-Serif" font-size="10.00">src/Utilitaires/Trajectoire.cpp</text>
</a>
</g>
</g>
<!-- Node4&#45;&gt;Node15 -->
<g id="edge14" class="edge"><title>Node4&#45;&gt;Node15</title>
<path fill="none" stroke="midnightblue" d="M500.775,-222.41C550.669,-212.204 625.197,-196.96 671.364,-187.516"/>
<polygon fill="midnightblue" stroke="midnightblue" points="499.927,-219.01 490.832,-224.444 501.33,-225.869 499.927,-219.01"/>
</g>
<!-- Node6 -->
<g id="node3" class="node"><title>Node6</title>
<g id="a_node3"><a xlink:href="__vaisseaux_8h.html" target="_top" xlink:title="src/Vaisseau/_vaisseaux.h">
<polygon fill="white" stroke="black" points="196,-112.5 196,-131.5 330,-131.5 330,-112.5 196,-112.5"/>
<text text-anchor="middle" x="263" y="-119.5" font-family="Helvetica,sans-Serif" font-size="10.00">src/Vaisseau/_vaisseaux.h</text>
</a>
</g>
</g>
<!-- Node5&#45;&gt;Node6 -->
<g id="edge2" class="edge"><title>Node5&#45;&gt;Node6</title>
<path fill="none" stroke="midnightblue" d="M487.942,-166.537C435.213,-156.332 355.996,-140.999 307.002,-131.516"/>
<polygon fill="midnightblue" stroke="midnightblue" points="487.309,-169.979 497.792,-168.444 488.639,-163.107 487.309,-169.979"/>
</g>
<!-- Node10 -->
<g id="node7" class="node"><title>Node10</title>
<g id="a_node7"><a xlink:href="_vaisseau_eclaireur_8cpp.html" target="_top" xlink:title="src/Vaisseau/VaisseauEclaireur.cpp">
<polygon fill="white" stroke="black" points="548,-112.5 548,-131.5 722,-131.5 722,-112.5 548,-112.5"/>
<text text-anchor="middle" x="635" y="-119.5" font-family="Helvetica,sans-Serif" font-size="10.00">src/Vaisseau/VaisseauEclaireur.cpp</text>
</a>
</g>
</g>
<!-- Node5&#45;&gt;Node10 -->
<g id="edge7" class="edge"><title>Node5&#45;&gt;Node10</title>
<path fill="none" stroke="midnightblue" d="M565.806,-163.177C582.919,-153.241 605.465,-140.149 620.095,-131.655"/>
<polygon fill="midnightblue" stroke="midnightblue" points="563.832,-160.276 556.942,-168.324 567.347,-166.329 563.832,-160.276"/>
</g>
<!-- Node7 -->
<g id="node4" class="node"><title>Node7</title>
<g id="a_node4"><a xlink:href="_partie_8cpp.html" target="_top" xlink:title="src/Partie.cpp">
<polygon fill="white" stroke="black" points="193.5,-0.5 193.5,-19.5 270.5,-19.5 270.5,-0.5 193.5,-0.5"/>
<text text-anchor="middle" x="232" y="-7.5" font-family="Helvetica,sans-Serif" font-size="10.00">src/Partie.cpp</text>
</a>
</g>
</g>
<!-- Node6&#45;&gt;Node7 -->
<g id="edge3" class="edge"><title>Node6&#45;&gt;Node7</title>
<path fill="none" stroke="midnightblue" d="M257.835,-102.674C251.058,-78.6248 239.437,-37.3881 234.421,-19.5914"/>
<polygon fill="midnightblue" stroke="midnightblue" points="254.486,-103.693 260.567,-112.368 261.224,-101.794 254.486,-103.693"/>
</g>
<!-- Node8 -->
<g id="node5" class="node"><title>Node8</title>
<g id="a_node5"><a xlink:href="vague_8h.html" target="_top" xlink:title="src/vague.h">
<polygon fill="white" stroke="black" points="260,-56.5 260,-75.5 328,-75.5 328,-56.5 260,-56.5"/>
<text text-anchor="middle" x="294" y="-63.5" font-family="Helvetica,sans-Serif" font-size="10.00">src/vague.h</text>
</a>
</g>
</g>
<!-- Node6&#45;&gt;Node8 -->
<g id="edge4" class="edge"><title>Node6&#45;&gt;Node8</title>
<path fill="none" stroke="midnightblue" d="M273.176,-103.275C278.474,-94.0454 284.717,-83.1703 288.976,-75.7511"/>
<polygon fill="midnightblue" stroke="midnightblue" points="270.062,-101.668 268.119,-112.083 276.133,-105.153 270.062,-101.668"/>
</g>
<!-- Node8&#45;&gt;Node7 -->
<g id="edge5" class="edge"><title>Node8&#45;&gt;Node7</title>
<path fill="none" stroke="midnightblue" d="M276.246,-49.5372C265.192,-39.9087 251.369,-27.8694 242.143,-19.8339"/>
<polygon fill="midnightblue" stroke="midnightblue" points="274.199,-52.3954 284.039,-56.324 278.797,-47.1168 274.199,-52.3954"/>
</g>
<!-- Node9 -->
<g id="node6" class="node"><title>Node9</title>
<g id="a_node6"><a xlink:href="vague_8cpp.html" target="_top" xlink:title="src/vague.cpp">
<polygon fill="white" stroke="black" points="289,-0.5 289,-19.5 367,-19.5 367,-0.5 289,-0.5"/>
<text text-anchor="middle" x="328" y="-7.5" font-family="Helvetica,sans-Serif" font-size="10.00">src/vague.cpp</text>
</a>
</g>
</g>
<!-- Node8&#45;&gt;Node9 -->
<g id="edge6" class="edge"><title>Node8&#45;&gt;Node9</title>
<path fill="none" stroke="midnightblue" d="M304.977,-47.5656C310.827,-38.2747 317.77,-27.2484 322.49,-19.7511"/>
<polygon fill="midnightblue" stroke="midnightblue" points="301.981,-45.7558 299.614,-56.083 307.904,-49.4855 301.981,-45.7558"/>
</g>
<!-- Node11&#45;&gt;Node6 -->
<g id="edge9" class="edge"><title>Node11&#45;&gt;Node6</title>
<path fill="none" stroke="midnightblue" d="M193.806,-163.177C210.919,-153.241 233.465,-140.149 248.095,-131.655"/>
<polygon fill="midnightblue" stroke="midnightblue" points="191.832,-160.276 184.942,-168.324 195.347,-166.329 191.832,-160.276"/>
</g>
<!-- Node12 -->
<g id="node9" class="node"><title>Node12</title>
<g id="a_node9"><a xlink:href="_vaisseau_attaquant_8cpp.html" target="_top" xlink:title="src/Vaisseau/VaisseauAttaquant.cpp">
<polygon fill="white" stroke="black" points="0,-112.5 0,-131.5 178,-131.5 178,-112.5 0,-112.5"/>
<text text-anchor="middle" x="89" y="-119.5" font-family="Helvetica,sans-Serif" font-size="10.00">src/Vaisseau/VaisseauAttaquant.cpp</text>
</a>
</g>
</g>
<!-- Node11&#45;&gt;Node12 -->
<g id="edge10" class="edge"><title>Node11&#45;&gt;Node12</title>
<path fill="none" stroke="midnightblue" d="M148.433,-162.622C133.636,-152.757 114.488,-139.992 101.982,-131.655"/>
<polygon fill="midnightblue" stroke="midnightblue" points="146.724,-165.689 156.986,-168.324 150.607,-159.865 146.724,-165.689"/>
</g>
<!-- Node13&#45;&gt;Node6 -->
<g id="edge12" class="edge"><title>Node13&#45;&gt;Node6</title>
<path fill="none" stroke="midnightblue" d="M332.938,-163.177C315.641,-153.241 292.852,-140.149 278.065,-131.655"/>
<polygon fill="midnightblue" stroke="midnightblue" points="331.483,-166.378 341.897,-168.324 334.97,-160.308 331.483,-166.378"/>
</g>
<!-- Node14 -->
<g id="node11" class="node"><title>Node14</title>
<g id="a_node11"><a xlink:href="_vaisseau_defenseur_8cpp.html" target="_top" xlink:title="src/Vaisseau/VaisseauDefenseur.cpp">
<polygon fill="white" stroke="black" points="348.5,-112.5 348.5,-131.5 529.5,-131.5 529.5,-112.5 348.5,-112.5"/>
<text text-anchor="middle" x="439" y="-119.5" font-family="Helvetica,sans-Serif" font-size="10.00">src/Vaisseau/VaisseauDefenseur.cpp</text>
</a>
</g>
</g>
<!-- Node13&#45;&gt;Node14 -->
<g id="edge13" class="edge"><title>Node13&#45;&gt;Node14</title>
<path fill="none" stroke="midnightblue" d="M378.833,-162.622C393.813,-152.757 413.197,-139.992 425.858,-131.655"/>
<polygon fill="midnightblue" stroke="midnightblue" points="376.601,-159.901 370.175,-168.324 380.451,-165.747 376.601,-159.901"/>
</g>
</g>
</svg>
        <g id="navigator" transform="translate(0 0)" fill="#404254">
                <rect fill="#f2f5e9" fill-opacity="0.5" stroke="#606060" stroke-width=".5" x="0" y="0" width="60" height="60"/>
                <use id="zoomplus" xlink:href="#zoomPlus" x="17" y="9" onmousedown="handleZoom(evt,'in')"/>
                <use id="zoomminus" xlink:href="#zoomMin" x="42" y="9" onmousedown="handleZoom(evt,'out')"/>
                <use id="reset" xlink:href="#resetDef" x="30" y="36" onmousedown="handleReset()"/>
                <g id="arrowUp" xlink:href="#dirArrow" transform="translate(30 24)" onmousedown="handlePan(0,-1)">
                  <use xlink:href="#rim" fill="#404040">
                        <set attributeName="fill" to="#808080" begin="arrowUp.mouseover" end="arrowUp.mouseout"/>
                  </use>
                  <path fill="none" stroke="white" stroke-width="1.5" d="M0,-3.0v7 M-2.5,-0.5L0,-3.0L2.5,-0.5"/>
                </g>
                <g id="arrowRight" xlink:href="#dirArrow" transform="rotate(90) translate(36 -43)" onmousedown="handlePan(1,0)">
                  <use xlink:href="#rim" fill="#404040">
                        <set attributeName="fill" to="#808080" begin="arrowRight.mouseover" end="arrowRight.mouseout"/>
                  </use>
                  <path fill="none" stroke="white" stroke-width="1.5" d="M0,-3.0v7 M-2.5,-0.5L0,-3.0L2.5,-0.5"/>
                </g>
                <g id="arrowDown" xlink:href="#dirArrow" transform="rotate(180) translate(-30 -48)" onmousedown="handlePan(0,1)">
                  <use xlink:href="#rim" fill="#404040">
                        <set attributeName="fill" to="#808080" begin="arrowDown.mouseover" end="arrowDown.mouseout"/>
                  </use>
                  <path fill="none" stroke="white" stroke-width="1.5" d="M0,-3.0v7 M-2.5,-0.5L0,-3.0L2.5,-0.5"/>
                </g>
                <g id="arrowLeft" xlink:href="#dirArrow" transform="rotate(270) translate(-36 17)" onmousedown="handlePan(-1,0)">
                  <use xlink:href="#rim" fill="#404040">
                        <set attributeName="fill" to="#808080" begin="arrowLeft.mouseover" end="arrowLeft.mouseout"/>
                  </use>
                  <path fill="none" stroke="white" stroke-width="1.5" d="M0,-3.0v7 M-2.5,-0.5L0,-3.0L2.5,-0.5"/>
                </g>
        </g>
        <svg viewBox="0 0 15 15" width="100%" height="30px" preserveAspectRatio="xMaxYMin meet">
         <g id="arrow_out" transform="scale(0.3 0.3)">
          <a xlink:href="_trajectoire_8h__dep__incl_org.svg" target="_base">
           <rect id="button" ry="5" rx="5" y="6" x="6" height="38" width="38"
                fill="#f2f5e9" fill-opacity="0.5" stroke="#606060" stroke-width="1.0"/>
           <path id="arrow"
             d="M 11.500037,31.436501 C 11.940474,20.09759 22.043105,11.32322 32.158766,21.979434 L 37.068811,17.246167 C 37.068811,17.246167 37.088388,32 37.088388,32 L 22.160133,31.978069 C 22.160133,31.978069 26.997745,27.140456 26.997745,27.140456 C 18.528582,18.264221 13.291696,25.230495 11.500037,31.436501 z"
             style="fill:#404040;"/>
          </a>
         </g>
        </svg>
</svg>
