<?xml version="1.0" encoding="UTF-8" standalone="no"?>
<!DOCTYPE svg PUBLIC "-//W3C//DTD SVG 1.1//EN"
 "http://www.w3.org/Graphics/SVG/1.1/DTD/svg11.dtd">
<!-- Generated by graphviz version 2.38.0 (20140413.2041)
 -->
<!-- Title: src/Utilitaires/Trajectoire.cpp Pages: 1 -->
<svg width="258pt" height="140pt"
 viewBox="0.00 0.00 258.00 140.00" xmlns="http://www.w3.org/2000/svg" xmlns:xlink="http://www.w3.org/1999/xlink">
<g id="graph0" class="graph" transform="scale(1 1) rotate(0) translate(4 136)">
<title>src/Utilitaires/Trajectoire.cpp</title>
<polygon fill="white" stroke="none" points="-4,4 -4,-136 254,-136 254,4 -4,4"/>
<!-- Node0 -->
<g id="node1" class="node"><title>Node0</title>
<polygon fill="#bfbfbf" stroke="black" points="90,-112.5 90,-131.5 232,-131.5 232,-112.5 90,-112.5"/>
<text text-anchor="middle" x="161" y="-119.5" font-family="Helvetica,sans-Serif" font-size="10.00">src/Utilitaires/Trajectoire.cpp</text>
</g>
<!-- Node1 -->
<g id="node2" class="node"><title>Node1</title>
<g id="a_node2"><a xlink:href="_trajectoire_8h.html" target="_top" xlink:title="Trajectoire.h">
<polygon fill="white" stroke="black" points="78.5,-56.5 78.5,-75.5 149.5,-75.5 149.5,-56.5 78.5,-56.5"/>
<text text-anchor="middle" x="114" y="-63.5" font-family="Helvetica,sans-Serif" font-size="10.00">Trajectoire.h</text>
</a>
</g>
</g>
<!-- Node0&#45;&gt;Node1 -->
<g id="edge1" class="edge"><title>Node0&#45;&gt;Node1</title>
<path fill="none" stroke="midnightblue" d="M153.239,-112.083C146.463,-104.298 136.457,-92.8015 128.245,-83.3665"/>
<polygon fill="midnightblue" stroke="midnightblue" points="130.822,-80.9963 121.617,-75.7511 125.542,-85.592 130.822,-80.9963"/>
</g>
<!-- Node5 -->
<g id="node6" class="node"><title>Node5</title>
<g id="a_node6"><a xlink:href="constantes_8h.html" target="_top" xlink:title="../constantes.h">
<polygon fill="white" stroke="black" points="168,-56.5 168,-75.5 250,-75.5 250,-56.5 168,-56.5"/>
<text text-anchor="middle" x="209" y="-63.5" font-family="Helvetica,sans-Serif" font-size="10.00">../constantes.h</text>
</a>
</g>
</g>
<!-- Node0&#45;&gt;Node5 -->
<g id="edge5" class="edge"><title>Node0&#45;&gt;Node5</title>
<path fill="none" stroke="midnightblue" d="M168.926,-112.083C175.846,-104.298 186.065,-92.8015 194.452,-83.3665"/>
<polygon fill="midnightblue" stroke="midnightblue" points="197.194,-85.5505 201.221,-75.7511 191.962,-80.8999 197.194,-85.5505"/>
</g>
<!-- Node2 -->
<g id="node3" class="node"><title>Node2</title>
<polygon fill="white" stroke="#bfbfbf" points="0,-0.5 0,-19.5 44,-19.5 44,-0.5 0,-0.5"/>
<text text-anchor="middle" x="22" y="-7.5" font-family="Helvetica,sans-Serif" font-size="10.00">vector</text>
</g>
<!-- Node1&#45;&gt;Node2 -->
<g id="edge2" class="edge"><title>Node1&#45;&gt;Node2</title>
<path fill="none" stroke="midnightblue" d="M99.2186,-56.324C84.7329,-47.8215 62.4269,-34.7288 45.5068,-24.7975"/>
<polygon fill="midnightblue" stroke="midnightblue" points="47.1406,-21.6981 36.7447,-19.6545 43.5972,-27.735 47.1406,-21.6981"/>
</g>
<!-- Node3 -->
<g id="node4" class="node"><title>Node3</title>
<polygon fill="white" stroke="#bfbfbf" points="62,-0.5 62,-19.5 166,-19.5 166,-0.5 62,-0.5"/>
<text text-anchor="middle" x="114" y="-7.5" font-family="Helvetica,sans-Serif" font-size="10.00">SFML/Graphics.hpp</text>
</g>
<!-- Node1&#45;&gt;Node3 -->
<g id="edge3" class="edge"><title>Node1&#45;&gt;Node3</title>
<path fill="none" stroke="midnightblue" d="M114,-56.083C114,-49.0059 114,-38.8611 114,-29.9865"/>
<polygon fill="midnightblue" stroke="midnightblue" points="117.5,-29.751 114,-19.7511 110.5,-29.7511 117.5,-29.751"/>
</g>
<!-- Node4 -->
<g id="node5" class="node"><title>Node4</title>
<polygon fill="white" stroke="#bfbfbf" points="184,-0.5 184,-19.5 228,-19.5 228,-0.5 184,-0.5"/>
<text text-anchor="middle" x="206" y="-7.5" font-family="Helvetica,sans-Serif" font-size="10.00">cmath</text>
</g>
<!-- Node1&#45;&gt;Node4 -->
<g id="edge4" class="edge"><title>Node1&#45;&gt;Node4</title>
<path fill="none" stroke="midnightblue" d="M128.781,-56.324C143.267,-47.8215 165.573,-34.7288 182.493,-24.7975"/>
<polygon fill="midnightblue" stroke="midnightblue" points="184.403,-27.735 191.255,-19.6545 180.859,-21.6981 184.403,-27.735"/>
</g>
</g>
</svg>
