<?xml version="1.0" encoding="UTF-8" standalone="no"?>
<!DOCTYPE svg PUBLIC "-//W3C//DTD SVG 1.1//EN"
 "http://www.w3.org/Graphics/SVG/1.1/DTD/svg11.dtd">
<!-- Generated by graphviz version 2.38.0 (20140413.2041)
 -->
<!-- Title: src/Vaisseau/VaisseauDefenseurB.h Pages: 1 -->
<svg width="431pt" height="263pt"
 viewBox="0.00 0.00 430.50 263.00" xmlns="http://www.w3.org/2000/svg" xmlns:xlink="http://www.w3.org/1999/xlink">
<g id="graph0" class="graph" transform="scale(1 1) rotate(0) translate(4 259)">
<title>src/Vaisseau/VaisseauDefenseurB.h</title>
<polygon fill="white" stroke="none" points="-4,4 -4,-259 426.5,-259 426.5,4 -4,4"/>
<!-- Node15 -->
<g id="node1" class="node"><title>Node15</title>
<polygon fill="#bfbfbf" stroke="black" points="161,-235.5 161,-254.5 338,-254.5 338,-235.5 161,-235.5"/>
<text text-anchor="middle" x="249.5" y="-242.5" font-family="Helvetica,sans-Serif" font-size="10.00">src/Vaisseau/VaisseauDefenseurB.h</text>
</g>
<!-- Node16 -->
<g id="node2" class="node"><title>Node16</title>
<g id="a_node2"><a xlink:href="_vaisseau_defenseur_8h.html" target="_top" xlink:title="src/Vaisseau/VaisseauDefenseur.h">
<polygon fill="white" stroke="black" points="72.5,-174 72.5,-193 242.5,-193 242.5,-174 72.5,-174"/>
<text text-anchor="middle" x="157.5" y="-181" font-family="Helvetica,sans-Serif" font-size="10.00">src/Vaisseau/VaisseauDefenseur.h</text>
</a>
</g>
</g>
<!-- Node15&#45;&gt;Node16 -->
<g id="edge1" class="edge"><title>Node15&#45;&gt;Node16</title>
<path fill="none" stroke="midnightblue" d="M227.744,-229.93C210.008,-218.459 185.54,-202.634 170.657,-193.009"/>
<polygon fill="midnightblue" stroke="midnightblue" points="226.021,-232.983 236.319,-235.475 229.822,-227.106 226.021,-232.983"/>
</g>
<!-- Node22 -->
<g id="node8" class="node"><title>Node22</title>
<g id="a_node8"><a xlink:href="_vaisseau_defenseur_b_8cpp.html" target="_top" xlink:title="src/Vaisseau/VaisseauDefenseur\lB.cpp">
<polygon fill="white" stroke="black" points="260.5,-168.5 260.5,-198.5 422.5,-198.5 422.5,-168.5 260.5,-168.5"/>
<text text-anchor="start" x="268.5" y="-186.5" font-family="Helvetica,sans-Serif" font-size="10.00">src/Vaisseau/VaisseauDefenseur</text>
<text text-anchor="middle" x="341.5" y="-175.5" font-family="Helvetica,sans-Serif" font-size="10.00">B.cpp</text>
</a>
</g>
</g>
<!-- Node15&#45;&gt;Node22 -->
<g id="edge8" class="edge"><title>Node15&#45;&gt;Node22</title>
<path fill="none" stroke="midnightblue" d="M271.134,-230.008C285.808,-220.518 305.133,-208.02 319.817,-198.523"/>
<polygon fill="midnightblue" stroke="midnightblue" points="269.178,-227.106 262.681,-235.475 272.979,-232.983 269.178,-227.106"/>
</g>
<!-- Node17 -->
<g id="node3" class="node"><title>Node17</title>
<g id="a_node3"><a xlink:href="__vaisseaux_8h.html" target="_top" xlink:title="src/Vaisseau/_vaisseaux.h">
<polygon fill="white" stroke="black" points="2.5,-112.5 2.5,-131.5 136.5,-131.5 136.5,-112.5 2.5,-112.5"/>
<text text-anchor="middle" x="69.5" y="-119.5" font-family="Helvetica,sans-Serif" font-size="10.00">src/Vaisseau/_vaisseaux.h</text>
</a>
</g>
</g>
<!-- Node16&#45;&gt;Node17 -->
<g id="edge2" class="edge"><title>Node16&#45;&gt;Node17</title>
<path fill="none" stroke="midnightblue" d="M136.221,-168.113C119.296,-156.669 96.1898,-141.046 82.0849,-131.509"/>
<polygon fill="midnightblue" stroke="midnightblue" points="134.647,-171.273 144.892,-173.975 138.568,-165.474 134.647,-171.273"/>
</g>
<!-- Node21 -->
<g id="node7" class="node"><title>Node21</title>
<g id="a_node7"><a xlink:href="_vaisseau_defenseur_8cpp.html" target="_top" xlink:title="src/Vaisseau/VaisseauDefenseur.cpp">
<polygon fill="white" stroke="black" points="155,-112.5 155,-131.5 336,-131.5 336,-112.5 155,-112.5"/>
<text text-anchor="middle" x="245.5" y="-119.5" font-family="Helvetica,sans-Serif" font-size="10.00">src/Vaisseau/VaisseauDefenseur.cpp</text>
</a>
</g>
</g>
<!-- Node16&#45;&gt;Node21 -->
<g id="edge7" class="edge"><title>Node16&#45;&gt;Node21</title>
<path fill="none" stroke="midnightblue" d="M178.779,-168.113C195.704,-156.669 218.81,-141.046 232.915,-131.509"/>
<polygon fill="midnightblue" stroke="midnightblue" points="176.432,-165.474 170.108,-173.975 180.353,-171.273 176.432,-165.474"/>
</g>
<!-- Node18 -->
<g id="node4" class="node"><title>Node18</title>
<g id="a_node4"><a xlink:href="_partie_8cpp.html" target="_top" xlink:title="src/Partie.cpp">
<polygon fill="white" stroke="black" points="0,-0.5 0,-19.5 77,-19.5 77,-0.5 0,-0.5"/>
<text text-anchor="middle" x="38.5" y="-7.5" font-family="Helvetica,sans-Serif" font-size="10.00">src/Partie.cpp</text>
</a>
</g>
</g>
<!-- Node17&#45;&gt;Node18 -->
<g id="edge3" class="edge"><title>Node17&#45;&gt;Node18</title>
<path fill="none" stroke="midnightblue" d="M64.3354,-102.674C57.5579,-78.6248 45.9367,-37.3881 40.9212,-19.5914"/>
<polygon fill="midnightblue" stroke="midnightblue" points="60.9861,-103.693 67.0675,-112.368 67.7237,-101.794 60.9861,-103.693"/>
</g>
<!-- Node19 -->
<g id="node5" class="node"><title>Node19</title>
<g id="a_node5"><a xlink:href="vague_8h.html" target="_top" xlink:title="src/vague.h">
<polygon fill="white" stroke="black" points="66.5,-56.5 66.5,-75.5 134.5,-75.5 134.5,-56.5 66.5,-56.5"/>
<text text-anchor="middle" x="100.5" y="-63.5" font-family="Helvetica,sans-Serif" font-size="10.00">src/vague.h</text>
</a>
</g>
</g>
<!-- Node17&#45;&gt;Node19 -->
<g id="edge4" class="edge"><title>Node17&#45;&gt;Node19</title>
<path fill="none" stroke="midnightblue" d="M79.6756,-103.275C84.9739,-94.0454 91.217,-83.1703 95.4762,-75.7511"/>
<polygon fill="midnightblue" stroke="midnightblue" points="76.5624,-101.668 74.619,-112.083 82.6331,-105.153 76.5624,-101.668"/>
</g>
<!-- Node19&#45;&gt;Node18 -->
<g id="edge5" class="edge"><title>Node19&#45;&gt;Node18</title>
<path fill="none" stroke="midnightblue" d="M82.7464,-49.5372C71.6915,-39.9087 57.8685,-27.8694 48.6426,-19.8339"/>
<polygon fill="midnightblue" stroke="midnightblue" points="80.699,-52.3954 90.5386,-56.324 85.2965,-47.1168 80.699,-52.3954"/>
</g>
<!-- Node20 -->
<g id="node6" class="node"><title>Node20</title>
<g id="a_node6"><a xlink:href="vague_8cpp.html" target="_top" xlink:title="src/vague.cpp">
<polygon fill="white" stroke="black" points="95.5,-0.5 95.5,-19.5 173.5,-19.5 173.5,-0.5 95.5,-0.5"/>
<text text-anchor="middle" x="134.5" y="-7.5" font-family="Helvetica,sans-Serif" font-size="10.00">src/vague.cpp</text>
</a>
</g>
</g>
<!-- Node19&#45;&gt;Node20 -->
<g id="edge6" class="edge"><title>Node19&#45;&gt;Node20</title>
<path fill="none" stroke="midnightblue" d="M111.477,-47.5656C117.327,-38.2747 124.27,-27.2484 128.99,-19.7511"/>
<polygon fill="midnightblue" stroke="midnightblue" points="108.481,-45.7558 106.114,-56.083 114.404,-49.4855 108.481,-45.7558"/>
</g>
</g>
</svg>
