<?xml version="1.0" encoding="UTF-8" standalone="no"?>
<!DOCTYPE svg PUBLIC "-//W3C//DTD SVG 1.1//EN"
 "http://www.w3.org/Graphics/SVG/1.1/DTD/svg11.dtd">
<!-- Generated by graphviz version 2.38.0 (20140413.2041)
 -->
<!-- Title: src/Vaisseau/Vaisseau.cpp Pages: 1 -->
<!--zoomable 308 -->
<svg id="main" version="1.1" xmlns="http://www.w3.org/2000/svg" xmlns:xlink="http://www.w3.org/1999/xlink" xml:space="preserve" onload="init(evt)">
<style type="text/css"><![CDATA[
.edge:hover path { stroke: red; }
.edge:hover polygon { stroke: red; fill: red; }
]]></style>
<script type="text/javascript"><![CDATA[
var edges = document.getElementsByTagName('g');
if (edges && edges.length) {
  for (var i=0;i<edges.length;i++) {
    if (edges[i].id.substr(0,4)=='edge') {
      edges[i].setAttribute('class','edge');
    }
  }
}
]]></script>
        <defs>
                <circle id="rim" cx="0" cy="0" r="7"/>
                <circle id="rim2" cx="0" cy="0" r="3.5"/>
                <g id="zoomPlus">
                        <use xlink:href="#rim" fill="#404040">
                                <set attributeName="fill" to="#808080" begin="zoomplus.mouseover" end="zoomplus.mouseout"/>
                        </use>
                        <path d="M-4,0h8M0,-4v8" fill="none" stroke="white" stroke-width="1.5" pointer-events="none"/>
                </g>
                <g id="zoomMin">
                        <use xlink:href="#rim" fill="#404040">
                                <set attributeName="fill" to="#808080" begin="zoomminus.mouseover" end="zoomminus.mouseout"/>
                        </use>
                        <path d="M-4,0h8" fill="none" stroke="white" stroke-width="1.5" pointer-events="none"/>
                </g>
                <g id="dirArrow">
                        <path fill="none" stroke="white" stroke-width="1.5" d="M0,-3.0v7 M-2.5,-0.5L0,-3.0L2.5,-0.5"/>
                </g>
               <g id="resetDef">
                       <use xlink:href="#rim2" fill="#404040">
                               <set attributeName="fill" to="#808080" begin="reset.mouseover" end="reset.mouseout"/>
                       </use>
               </g>
        </defs>

<script type="text/javascript">
var viewWidth = 779;
var viewHeight = 308;
var sectionId = 'dynsection-0';
</script>
<script xlink:href="svgpan.js"/>
<svg id="graph" class="graph">
<g id="viewport">
<title>src/Vaisseau/Vaisseau.cpp</title>
<polygon fill="white" stroke="none" points="-4,4 -4,-304 774.5,-304 774.5,4 -4,4"/>
<!-- Node0 -->
<g id="node1" class="node"><title>Node0</title>
<polygon fill="#bfbfbf" stroke="black" points="119,-280.5 119,-299.5 255,-299.5 255,-280.5 119,-280.5"/>
<text text-anchor="middle" x="187" y="-287.5" font-family="Helvetica,sans-Serif" font-size="10.00">src/Vaisseau/Vaisseau.cpp</text>
</g>
<!-- Node1 -->
<g id="node2" class="node"><title>Node1</title>
<polygon fill="white" stroke="#bfbfbf" points="199,-0.5 199,-19.5 243,-19.5 243,-0.5 199,-0.5"/>
<text text-anchor="middle" x="221" y="-7.5" font-family="Helvetica,sans-Serif" font-size="10.00">vector</text>
</g>
<!-- Node0&#45;&gt;Node1 -->
<g id="edge1" class="edge"><title>Node0&#45;&gt;Node1</title>
<path fill="none" stroke="midnightblue" d="M131.653,-280.47C76.5111,-268.458 0,-240.677 0,-179 0,-179 0,-179 0,-121 0,-37.9153 126.733,-17.5853 188.258,-12.6111"/>
<polygon fill="midnightblue" stroke="midnightblue" points="188.869,-16.0764 198.593,-11.871 188.369,-9.09431 188.869,-16.0764"/>
</g>
<!-- Node2 -->
<g id="node3" class="node"><title>Node2</title>
<polygon fill="white" stroke="#bfbfbf" points="463.5,-56.5 463.5,-75.5 504.5,-75.5 504.5,-56.5 463.5,-56.5"/>
<text text-anchor="middle" x="484" y="-63.5" font-family="Helvetica,sans-Serif" font-size="10.00">string</text>
</g>
<!-- Node0&#45;&gt;Node2 -->
<g id="edge2" class="edge"><title>Node0&#45;&gt;Node2</title>
<path fill="none" stroke="midnightblue" d="M255.406,-286.944C297.95,-282.701 351.98,-271.652 392,-244 447.516,-205.641 471.819,-123.139 480.262,-85.9103"/>
<polygon fill="midnightblue" stroke="midnightblue" points="483.732,-86.4184 482.39,-75.9089 476.886,-84.9614 483.732,-86.4184"/>
</g>
<!-- Node3 -->
<g id="node4" class="node"><title>Node3</title>
<polygon fill="white" stroke="#bfbfbf" points="58,-56.5 58,-75.5 114,-75.5 114,-56.5 58,-56.5"/>
<text text-anchor="middle" x="86" y="-63.5" font-family="Helvetica,sans-Serif" font-size="10.00">algorithm</text>
</g>
<!-- Node0&#45;&gt;Node3 -->
<g id="edge3" class="edge"><title>Node0&#45;&gt;Node3</title>
<path fill="none" stroke="midnightblue" d="M180.922,-280.25C165.146,-257.137 122.559,-192.1 100,-132 94.3525,-116.954 90.7071,-99.0496 88.5564,-85.8452"/>
<polygon fill="midnightblue" stroke="midnightblue" points="91.9719,-85.0175 87.0384,-75.6413 85.0481,-86.0475 91.9719,-85.0175"/>
</g>
<!-- Node4 -->
<g id="node5" class="node"><title>Node4</title>
<g id="a_node5"><a xlink:href="_capacite_8h.html" target="_top" xlink:title="../Capacites/Capacite.h">
<polygon fill="white" stroke="black" points="184,-168.5 184,-187.5 304,-187.5 304,-168.5 184,-168.5"/>
<text text-anchor="middle" x="244" y="-175.5" font-family="Helvetica,sans-Serif" font-size="10.00">../Capacites/Capacite.h</text>
</a>
</g>
</g>
<!-- Node0&#45;&gt;Node4 -->
<g id="edge4" class="edge"><title>Node0&#45;&gt;Node4</title>
<path fill="none" stroke="midnightblue" d="M191.473,-280.368C200.796,-262.376 222.469,-220.55 234.866,-196.627"/>
<polygon fill="midnightblue" stroke="midnightblue" points="238.055,-198.081 239.548,-187.591 231.84,-194.86 238.055,-198.081"/>
</g>
<!-- Node5 -->
<g id="node6" class="node"><title>Node5</title>
<g id="a_node6"><a xlink:href="_projectile_8h.html" target="_top" xlink:title="../Projectiles/Projectile.h">
<polygon fill="white" stroke="black" points="180.5,-112.5 180.5,-131.5 303.5,-131.5 303.5,-112.5 180.5,-112.5"/>
<text text-anchor="middle" x="242" y="-119.5" font-family="Helvetica,sans-Serif" font-size="10.00">../Projectiles/Projectile.h</text>
</a>
</g>
</g>
<!-- Node0&#45;&gt;Node5 -->
<g id="edge31" class="edge"><title>Node0&#45;&gt;Node5</title>
<path fill="none" stroke="midnightblue" d="M183.078,-280.451C174.2,-259.743 154.844,-205.817 175,-168 182.55,-153.834 196.761,-143.335 210.158,-136.058"/>
<polygon fill="midnightblue" stroke="midnightblue" points="211.834,-139.133 219.212,-131.529 208.702,-132.872 211.834,-139.133"/>
</g>
<!-- Node11 -->
<g id="node12" class="node"><title>Node11</title>
<g id="a_node12"><a xlink:href="_vaisseau_8h.html" target="_top" xlink:title="Vaisseau.h">
<polygon fill="white" stroke="black" points="318.5,-224.5 318.5,-243.5 383.5,-243.5 383.5,-224.5 318.5,-224.5"/>
<text text-anchor="middle" x="351" y="-231.5" font-family="Helvetica,sans-Serif" font-size="10.00">Vaisseau.h</text>
</a>
</g>
</g>
<!-- Node0&#45;&gt;Node11 -->
<g id="edge19" class="edge"><title>Node0&#45;&gt;Node11</title>
<path fill="none" stroke="midnightblue" d="M212.986,-280.444C240.696,-271.32 284.752,-256.813 315.616,-246.651"/>
<polygon fill="midnightblue" stroke="midnightblue" points="316.732,-249.968 325.135,-243.516 314.542,-243.32 316.732,-249.968"/>
</g>
<!-- Node4&#45;&gt;Node1 -->
<g id="edge5" class="edge"><title>Node4&#45;&gt;Node1</title>
<path fill="none" stroke="midnightblue" d="M217.789,-168.414C201.15,-161.445 180.943,-149.809 171,-132 150.979,-96.1387 184.132,-50.6185 205.369,-26.9413"/>
<polygon fill="midnightblue" stroke="midnightblue" points="208.019,-29.2307 212.277,-19.5289 202.898,-24.4582 208.019,-29.2307"/>
</g>
<!-- Node4&#45;&gt;Node2 -->
<g id="edge6" class="edge"><title>Node4&#45;&gt;Node2</title>
<path fill="none" stroke="midnightblue" d="M263.201,-168.44C283.356,-159.437 315.95,-144.822 344,-132 383.024,-114.161 428.002,-93.2086 456.218,-80.0163"/>
<polygon fill="midnightblue" stroke="midnightblue" points="457.888,-83.0994 465.462,-75.6915 454.921,-76.7589 457.888,-83.0994"/>
</g>
<!-- Node4&#45;&gt;Node3 -->
<g id="edge7" class="edge"><title>Node4&#45;&gt;Node3</title>
<path fill="none" stroke="midnightblue" d="M213.118,-168.381C190.761,-161.122 160.621,-149.153 138,-132 120.619,-118.821 105.657,-98.5866 96.3036,-84.1983"/>
<polygon fill="midnightblue" stroke="midnightblue" points="99.2699,-82.3403 90.998,-75.7201 93.336,-86.0538 99.2699,-82.3403"/>
</g>
<!-- Node4&#45;&gt;Node5 -->
<g id="edge8" class="edge"><title>Node4&#45;&gt;Node5</title>
<path fill="none" stroke="midnightblue" d="M243.67,-168.083C243.408,-161.006 243.032,-150.861 242.703,-141.986"/>
<polygon fill="midnightblue" stroke="midnightblue" points="246.192,-141.615 242.324,-131.751 239.197,-141.874 246.192,-141.615"/>
</g>
<!-- Node6 -->
<g id="node7" class="node"><title>Node6</title>
<g id="a_node7"><a xlink:href="_entite_8h.html" target="_top" xlink:title="../Entite.h">
<polygon fill="white" stroke="black" points="386.5,-56.5 386.5,-75.5 445.5,-75.5 445.5,-56.5 386.5,-56.5"/>
<text text-anchor="middle" x="416" y="-63.5" font-family="Helvetica,sans-Serif" font-size="10.00">../Entite.h</text>
</a>
</g>
</g>
<!-- Node4&#45;&gt;Node6 -->
<g id="edge18" class="edge"><title>Node4&#45;&gt;Node6</title>
<path fill="none" stroke="midnightblue" d="M257.497,-168.368C287.012,-149.492 357.544,-104.385 393.739,-81.2367"/>
<polygon fill="midnightblue" stroke="midnightblue" points="396.027,-83.9278 402.566,-75.5914 392.256,-78.0306 396.027,-83.9278"/>
</g>
<!-- Node5&#45;&gt;Node1 -->
<g id="edge9" class="edge"><title>Node5&#45;&gt;Node1</title>
<path fill="none" stroke="midnightblue" d="M240.352,-112.368C236.963,-94.617 229.145,-53.6664 224.55,-29.5974"/>
<polygon fill="midnightblue" stroke="midnightblue" points="227.953,-28.7577 222.64,-19.5914 221.078,-30.0704 227.953,-28.7577"/>
</g>
<!-- Node5&#45;&gt;Node2 -->
<g id="edge10" class="edge"><title>Node5&#45;&gt;Node2</title>
<path fill="none" stroke="midnightblue" d="M287.742,-112.421C328.744,-104.477 390.715,-91.848 453.7,-75.9031"/>
<polygon fill="midnightblue" stroke="midnightblue" points="454.584,-79.2897 463.406,-73.4214 452.85,-72.5079 454.584,-79.2897"/>
</g>
<!-- Node5&#45;&gt;Node3 -->
<g id="edge11" class="edge"><title>Node5&#45;&gt;Node3</title>
<path fill="none" stroke="midnightblue" d="M217.281,-112.444C191.152,-103.399 149.741,-89.064 120.424,-78.9158"/>
<polygon fill="midnightblue" stroke="midnightblue" points="121.198,-75.4801 110.603,-75.5164 118.908,-82.0951 121.198,-75.4801"/>
</g>
<!-- Node5&#45;&gt;Node6 -->
<g id="edge12" class="edge"><title>Node5&#45;&gt;Node6</title>
<path fill="none" stroke="midnightblue" d="M269.571,-112.444C299.097,-103.28 346.118,-88.6876 378.883,-78.5192"/>
<polygon fill="midnightblue" stroke="midnightblue" points="380.045,-81.8232 388.558,-75.5164 377.97,-75.1378 380.045,-81.8232"/>
</g>
<!-- Node6&#45;&gt;Node1 -->
<g id="edge13" class="edge"><title>Node6&#45;&gt;Node1</title>
<path fill="none" stroke="midnightblue" d="M386.336,-57.0019C355.386,-48.6258 305.204,-34.9587 252.809,-20.1993"/>
<polygon fill="midnightblue" stroke="midnightblue" points="253.579,-16.7799 243.004,-17.4317 251.677,-23.5166 253.579,-16.7799"/>
</g>
<!-- Node7 -->
<g id="node8" class="node"><title>Node7</title>
<polygon fill="white" stroke="#bfbfbf" points="261,-0.5 261,-19.5 313,-19.5 313,-0.5 261,-0.5"/>
<text text-anchor="middle" x="287" y="-7.5" font-family="Helvetica,sans-Serif" font-size="10.00">memory</text>
</g>
<!-- Node6&#45;&gt;Node7 -->
<g id="edge14" class="edge"><title>Node6&#45;&gt;Node7</title>
<path fill="none" stroke="midnightblue" d="M395.56,-56.4435C374.33,-47.5566 340.901,-33.5632 316.745,-23.4514"/>
<polygon fill="midnightblue" stroke="midnightblue" points="317.921,-20.1493 307.345,-19.5164 315.218,-26.6064 317.921,-20.1493"/>
</g>
<!-- Node8 -->
<g id="node9" class="node"><title>Node8</title>
<polygon fill="white" stroke="#bfbfbf" points="331,-0.5 331,-19.5 429,-19.5 429,-0.5 331,-0.5"/>
<text text-anchor="middle" x="380" y="-7.5" font-family="Helvetica,sans-Serif" font-size="10.00">SFML/System.hpp</text>
</g>
<!-- Node6&#45;&gt;Node8 -->
<g id="edge15" class="edge"><title>Node6&#45;&gt;Node8</title>
<path fill="none" stroke="midnightblue" d="M410.055,-56.083C405.023,-48.5341 397.663,-37.4948 391.487,-28.2298"/>
<polygon fill="midnightblue" stroke="midnightblue" points="394.293,-26.1301 385.834,-19.7511 388.469,-30.0131 394.293,-26.1301"/>
</g>
<!-- Node9 -->
<g id="node10" class="node"><title>Node9</title>
<polygon fill="white" stroke="#bfbfbf" points="539,-0.5 539,-19.5 643,-19.5 643,-0.5 539,-0.5"/>
<text text-anchor="middle" x="591" y="-7.5" font-family="Helvetica,sans-Serif" font-size="10.00">SFML/Graphics.hpp</text>
</g>
<!-- Node6&#45;&gt;Node9 -->
<g id="edge16" class="edge"><title>Node6&#45;&gt;Node9</title>
<path fill="none" stroke="midnightblue" d="M443.729,-56.4435C473.426,-47.2801 520.716,-32.6876 553.669,-22.5192"/>
<polygon fill="midnightblue" stroke="midnightblue" points="554.877,-25.8094 563.4,-19.5164 552.813,-19.1206 554.877,-25.8094"/>
</g>
<!-- Node10 -->
<g id="node11" class="node"><title>Node10</title>
<g id="a_node11"><a xlink:href="constantes_8h.html" target="_top" xlink:title="constantes.h">
<polygon fill="white" stroke="black" points="447.5,-0.5 447.5,-19.5 520.5,-19.5 520.5,-0.5 447.5,-0.5"/>
<text text-anchor="middle" x="484" y="-7.5" font-family="Helvetica,sans-Serif" font-size="10.00">constantes.h</text>
</a>
</g>
</g>
<!-- Node6&#45;&gt;Node10 -->
<g id="edge17" class="edge"><title>Node6&#45;&gt;Node10</title>
<path fill="none" stroke="midnightblue" d="M426.925,-56.324C437.175,-48.1849 452.721,-35.8395 465.001,-26.0874"/>
<polygon fill="midnightblue" stroke="midnightblue" points="467.221,-28.7937 472.876,-19.8339 462.868,-23.3119 467.221,-28.7937"/>
</g>
<!-- Node11&#45;&gt;Node1 -->
<g id="edge20" class="edge"><title>Node11&#45;&gt;Node1</title>
<path fill="none" stroke="midnightblue" d="M349.323,-224.473C346.765,-211.942 341.492,-187.886 335,-168 326.65,-142.422 326.327,-134.775 312,-112 290.792,-78.2875 258.002,-45.1339 238.115,-26.451"/>
<polygon fill="midnightblue" stroke="midnightblue" points="240.413,-23.8084 230.694,-19.5892 235.661,-28.948 240.413,-23.8084"/>
</g>
<!-- Node11&#45;&gt;Node2 -->
<g id="edge21" class="edge"><title>Node11&#45;&gt;Node2</title>
<path fill="none" stroke="midnightblue" d="M362.28,-224.423C373.136,-215.864 389.674,-202.005 402,-188 431.765,-154.18 459.684,-109.073 474.001,-84.6005"/>
<polygon fill="midnightblue" stroke="midnightblue" points="477.146,-86.1542 479.114,-75.7438 471.083,-82.6545 477.146,-86.1542"/>
</g>
<!-- Node11&#45;&gt;Node3 -->
<g id="edge22" class="edge"><title>Node11&#45;&gt;Node3</title>
<path fill="none" stroke="midnightblue" d="M318.398,-229.587C281.661,-224.659 221.068,-213.204 175,-188 142.999,-170.492 136.187,-161.693 115,-132 104.693,-117.555 96.8235,-98.8613 91.9007,-85.2318"/>
<polygon fill="midnightblue" stroke="midnightblue" points="95.1422,-83.8937 88.5941,-75.5647 88.5189,-86.1593 95.1422,-83.8937"/>
</g>
<!-- Node11&#45;&gt;Node4 -->
<g id="edge23" class="edge"><title>Node11&#45;&gt;Node4</title>
<path fill="none" stroke="midnightblue" d="M333.809,-224.324C316.649,-215.664 290.054,-202.242 270.253,-192.249"/>
<polygon fill="midnightblue" stroke="midnightblue" points="271.653,-189.035 261.149,-187.655 268.499,-195.285 271.653,-189.035"/>
</g>
<!-- Node11&#45;&gt;Node5 -->
<g id="edge25" class="edge"><title>Node11&#45;&gt;Node5</title>
<path fill="none" stroke="midnightblue" d="M347.451,-224.138C341.756,-210.751 329.518,-185.121 313,-168 300.532,-155.077 283.647,-144.18 269.471,-136.348"/>
<polygon fill="midnightblue" stroke="midnightblue" points="271.095,-133.248 260.62,-131.653 267.814,-139.431 271.095,-133.248"/>
</g>
<!-- Node11&#45;&gt;Node6 -->
<g id="edge24" class="edge"><title>Node11&#45;&gt;Node6</title>
<path fill="none" stroke="midnightblue" d="M358.905,-224.338C366.378,-215.716 377.402,-201.812 384,-188 400.333,-153.809 409.263,-110.053 413.297,-85.6287"/>
<polygon fill="midnightblue" stroke="midnightblue" points="416.779,-86.0121 414.855,-75.5935 409.862,-84.9381 416.779,-86.0121"/>
</g>
<!-- Node12 -->
<g id="node13" class="node"><title>Node12</title>
<g id="a_node13"><a xlink:href="_input_8h.html" target="_top" xlink:title="../Interface/Input.h">
<polygon fill="white" stroke="black" points="542.5,-56.5 542.5,-75.5 639.5,-75.5 639.5,-56.5 542.5,-56.5"/>
<text text-anchor="middle" x="591" y="-63.5" font-family="Helvetica,sans-Serif" font-size="10.00">../Interface/Input.h</text>
</a>
</g>
</g>
<!-- Node11&#45;&gt;Node12 -->
<g id="edge26" class="edge"><title>Node11&#45;&gt;Node12</title>
<path fill="none" stroke="midnightblue" d="M365.97,-224.393C381.082,-215.588 404.984,-201.347 425,-188 479.551,-151.624 541.366,-105.088 571.875,-81.7473"/>
<polygon fill="midnightblue" stroke="midnightblue" points="574.155,-84.4096 579.958,-75.5453 569.894,-78.8561 574.155,-84.4096"/>
</g>
<!-- Node12&#45;&gt;Node9 -->
<g id="edge27" class="edge"><title>Node12&#45;&gt;Node9</title>
<path fill="none" stroke="midnightblue" d="M591,-56.083C591,-49.0059 591,-38.8611 591,-29.9865"/>
<polygon fill="midnightblue" stroke="midnightblue" points="594.5,-29.751 591,-19.7511 587.5,-29.7511 594.5,-29.751"/>
</g>
<!-- Node12&#45;&gt;Node10 -->
<g id="edge30" class="edge"><title>Node12&#45;&gt;Node10</title>
<path fill="none" stroke="midnightblue" d="M573.809,-56.324C556.649,-47.6641 530.054,-34.2424 510.253,-24.249"/>
<polygon fill="midnightblue" stroke="midnightblue" points="511.653,-21.0354 501.149,-19.6545 508.499,-27.2847 511.653,-21.0354"/>
</g>
<!-- Node13 -->
<g id="node14" class="node"><title>Node13</title>
<polygon fill="white" stroke="#bfbfbf" points="661,-0.5 661,-19.5 711,-19.5 711,-0.5 661,-0.5"/>
<text text-anchor="middle" x="686" y="-7.5" font-family="Helvetica,sans-Serif" font-size="10.00">optional</text>
</g>
<!-- Node12&#45;&gt;Node13 -->
<g id="edge28" class="edge"><title>Node12&#45;&gt;Node13</title>
<path fill="none" stroke="midnightblue" d="M606.263,-56.324C621.221,-47.8215 644.255,-34.7288 661.727,-24.7975"/>
<polygon fill="midnightblue" stroke="midnightblue" points="663.81,-27.639 670.774,-19.6545 660.351,-21.5534 663.81,-27.639"/>
</g>
<!-- Node14 -->
<g id="node15" class="node"><title>Node14</title>
<polygon fill="white" stroke="#bfbfbf" points="729.5,-0.5 729.5,-19.5 770.5,-19.5 770.5,-0.5 729.5,-0.5"/>
<text text-anchor="middle" x="750" y="-7.5" font-family="Helvetica,sans-Serif" font-size="10.00">bitset</text>
</g>
<!-- Node12&#45;&gt;Node14 -->
<g id="edge29" class="edge"><title>Node12&#45;&gt;Node14</title>
<path fill="none" stroke="midnightblue" d="M616.194,-56.4435C644.359,-46.8782 689.942,-31.3969 719.945,-21.2075"/>
<polygon fill="midnightblue" stroke="midnightblue" points="721.131,-24.501 729.474,-17.971 718.88,-17.8728 721.131,-24.501"/>
</g>
</g>
</svg>
        <g id="navigator" transform="translate(0 0)" fill="#404254">
                <rect fill="#f2f5e9" fill-opacity="0.5" stroke="#606060" stroke-width=".5" x="0" y="0" width="60" height="60"/>
                <use id="zoomplus" xlink:href="#zoomPlus" x="17" y="9" onmousedown="handleZoom(evt,'in')"/>
                <use id="zoomminus" xlink:href="#zoomMin" x="42" y="9" onmousedown="handleZoom(evt,'out')"/>
                <use id="reset" xlink:href="#resetDef" x="30" y="36" onmousedown="handleReset()"/>
                <g id="arrowUp" xlink:href="#dirArrow" transform="translate(30 24)" onmousedown="handlePan(0,-1)">
                  <use xlink:href="#rim" fill="#404040">
                        <set attributeName="fill" to="#808080" begin="arrowUp.mouseover" end="arrowUp.mouseout"/>
                  </use>
                  <path fill="none" stroke="white" stroke-width="1.5" d="M0,-3.0v7 M-2.5,-0.5L0,-3.0L2.5,-0.5"/>
                </g>
                <g id="arrowRight" xlink:href="#dirArrow" transform="rotate(90) translate(36 -43)" onmousedown="handlePan(1,0)">
                  <use xlink:href="#rim" fill="#404040">
                        <set attributeName="fill" to="#808080" begin="arrowRight.mouseover" end="arrowRight.mouseout"/>
                  </use>
                  <path fill="none" stroke="white" stroke-width="1.5" d="M0,-3.0v7 M-2.5,-0.5L0,-3.0L2.5,-0.5"/>
                </g>
                <g id="arrowDown" xlink:href="#dirArrow" transform="rotate(180) translate(-30 -48)" onmousedown="handlePan(0,1)">
                  <use xlink:href="#rim" fill="#404040">
                        <set attributeName="fill" to="#808080" begin="arrowDown.mouseover" end="arrowDown.mouseout"/>
                  </use>
                  <path fill="none" stroke="white" stroke-width="1.5" d="M0,-3.0v7 M-2.5,-0.5L0,-3.0L2.5,-0.5"/>
                </g>
                <g id="arrowLeft" xlink:href="#dirArrow" transform="rotate(270) translate(-36 17)" onmousedown="handlePan(-1,0)">
                  <use xlink:href="#rim" fill="#404040">
                        <set attributeName="fill" to="#808080" begin="arrowLeft.mouseover" end="arrowLeft.mouseout"/>
                  </use>
                  <path fill="none" stroke="white" stroke-width="1.5" d="M0,-3.0v7 M-2.5,-0.5L0,-3.0L2.5,-0.5"/>
                </g>
        </g>
        <svg viewBox="0 0 15 15" width="100%" height="30px" preserveAspectRatio="xMaxYMin meet">
         <g id="arrow_out" transform="scale(0.3 0.3)">
          <a xlink:href="_vaisseau_8cpp__incl_org.svg" target="_base">
           <rect id="button" ry="5" rx="5" y="6" x="6" height="38" width="38"
                fill="#f2f5e9" fill-opacity="0.5" stroke="#606060" stroke-width="1.0"/>
           <path id="arrow"
             d="M 11.500037,31.436501 C 11.940474,20.09759 22.043105,11.32322 32.158766,21.979434 L 37.068811,17.246167 C 37.068811,17.246167 37.088388,32 37.088388,32 L 22.160133,31.978069 C 22.160133,31.978069 26.997745,27.140456 26.997745,27.140456 C 18.528582,18.264221 13.291696,25.230495 11.500037,31.436501 z"
             style="fill:#404040;"/>
          </a>
         </g>
        </svg>
</svg>
