<?xml version="1.0" encoding="UTF-8" standalone="no"?>
<!DOCTYPE svg PUBLIC "-//W3C//DTD SVG 1.1//EN"
 "http://www.w3.org/Graphics/SVG/1.1/DTD/svg11.dtd">
<!-- Generated by graphviz version 2.38.0 (20140413.2041)
 -->
<!-- Title: src/Vaisseau/VaisseauEclaireur.h Pages: 1 -->
<svg width="783pt" height="308pt"
 viewBox="0.00 0.00 782.50 308.00" xmlns="http://www.w3.org/2000/svg" xmlns:xlink="http://www.w3.org/1999/xlink">
<g id="graph0" class="graph" transform="scale(1 1) rotate(0) translate(4 304)">
<title>src/Vaisseau/VaisseauEclaireur.h</title>
<polygon fill="white" stroke="none" points="-4,4 -4,-304 778.5,-304 778.5,4 -4,4"/>
<!-- Node0 -->
<g id="node1" class="node"><title>Node0</title>
<polygon fill="#bfbfbf" stroke="black" points="436.5,-280.5 436.5,-299.5 600.5,-299.5 600.5,-280.5 436.5,-280.5"/>
<text text-anchor="middle" x="518.5" y="-287.5" font-family="Helvetica,sans-Serif" font-size="10.00">src/Vaisseau/VaisseauEclaireur.h</text>
</g>
<!-- Node1 -->
<g id="node2" class="node"><title>Node1</title>
<polygon fill="white" stroke="#bfbfbf" points="548.5,-0.5 548.5,-19.5 592.5,-19.5 592.5,-0.5 548.5,-0.5"/>
<text text-anchor="middle" x="570.5" y="-7.5" font-family="Helvetica,sans-Serif" font-size="10.00">vector</text>
</g>
<!-- Node0&#45;&gt;Node1 -->
<g id="edge1" class="edge"><title>Node0&#45;&gt;Node1</title>
<path fill="none" stroke="midnightblue" d="M536.615,-280.298C566.412,-264.572 622.5,-228.409 622.5,-179 622.5,-179 622.5,-179 622.5,-121 622.5,-85.1188 599.606,-48.4243 584.2,-27.7932"/>
<polygon fill="midnightblue" stroke="midnightblue" points="586.848,-25.4965 577.95,-19.7441 581.318,-29.7894 586.848,-25.4965"/>
</g>
<!-- Node2 -->
<g id="node3" class="node"><title>Node2</title>
<g id="a_node3"><a xlink:href="constantes_8h.html" target="_top" xlink:title="../constantes.h">
<polygon fill="white" stroke="black" points="59.5,-0.5 59.5,-19.5 141.5,-19.5 141.5,-0.5 59.5,-0.5"/>
<text text-anchor="middle" x="100.5" y="-7.5" font-family="Helvetica,sans-Serif" font-size="10.00">../constantes.h</text>
</a>
</g>
</g>
<!-- Node0&#45;&gt;Node2 -->
<g id="edge2" class="edge"><title>Node0&#45;&gt;Node2</title>
<path fill="none" stroke="midnightblue" d="M436.415,-284.056C314.683,-274.442 100.5,-247.756 100.5,-179 100.5,-179 100.5,-179 100.5,-121 100.5,-88.948 100.5,-51.6426 100.5,-29.7489"/>
<polygon fill="midnightblue" stroke="midnightblue" points="104,-29.5577 100.5,-19.5578 97.0001,-29.5578 104,-29.5577"/>
</g>
<!-- Node3 -->
<g id="node4" class="node"><title>Node3</title>
<g id="a_node4"><a xlink:href="_vaisseau_8h.html" target="_top" xlink:title="Vaisseau.h">
<polygon fill="white" stroke="black" points="382,-224.5 382,-243.5 447,-243.5 447,-224.5 382,-224.5"/>
<text text-anchor="middle" x="414.5" y="-231.5" font-family="Helvetica,sans-Serif" font-size="10.00">Vaisseau.h</text>
</a>
</g>
</g>
<!-- Node0&#45;&gt;Node3 -->
<g id="edge3" class="edge"><title>Node0&#45;&gt;Node3</title>
<path fill="none" stroke="midnightblue" d="M501.791,-280.324C485.188,-271.703 459.498,-258.364 440.28,-248.386"/>
<polygon fill="midnightblue" stroke="midnightblue" points="441.656,-245.156 431.168,-243.655 438.43,-251.369 441.656,-245.156"/>
</g>
<!-- Node15 -->
<g id="node16" class="node"><title>Node15</title>
<g id="a_node16"><a xlink:href="_trajectoire_8h.html" target="_top" xlink:title="../Utilitaires/Trajectoire.h">
<polygon fill="white" stroke="black" points="650.5,-56.5 650.5,-75.5 774.5,-75.5 774.5,-56.5 650.5,-56.5"/>
<text text-anchor="middle" x="712.5" y="-63.5" font-family="Helvetica,sans-Serif" font-size="10.00">../Utilitaires/Trajectoire.h</text>
</a>
</g>
</g>
<!-- Node0&#45;&gt;Node15 -->
<g id="edge29" class="edge"><title>Node0&#45;&gt;Node15</title>
<path fill="none" stroke="midnightblue" d="M564.618,-280.46C588.585,-273.97 616.883,-262.824 636.5,-244 683.095,-199.288 702.638,-121.321 709.429,-85.707"/>
<polygon fill="midnightblue" stroke="midnightblue" points="712.899,-86.1866 711.204,-75.7282 706.007,-84.9608 712.899,-86.1866"/>
</g>
<!-- Node3&#45;&gt;Node1 -->
<g id="edge4" class="edge"><title>Node3&#45;&gt;Node1</title>
<path fill="none" stroke="midnightblue" d="M447.048,-231.113C477.36,-227.51 521.388,-217.208 545.5,-188 583.486,-141.986 578.516,-65.2501 573.686,-29.8937"/>
<polygon fill="midnightblue" stroke="midnightblue" points="577.083,-28.9521 572.116,-19.5937 570.163,-30.007 577.083,-28.9521"/>
</g>
<!-- Node4 -->
<g id="node5" class="node"><title>Node4</title>
<polygon fill="white" stroke="#bfbfbf" points="366,-56.5 366,-75.5 407,-75.5 407,-56.5 366,-56.5"/>
<text text-anchor="middle" x="386.5" y="-63.5" font-family="Helvetica,sans-Serif" font-size="10.00">string</text>
</g>
<!-- Node3&#45;&gt;Node4 -->
<g id="edge5" class="edge"><title>Node3&#45;&gt;Node4</title>
<path fill="none" stroke="midnightblue" d="M407.946,-224.255C401.864,-215.573 393.211,-201.624 389.5,-188 379.96,-152.979 381.928,-110.129 384.218,-85.9604"/>
<polygon fill="midnightblue" stroke="midnightblue" points="387.731,-86.029 385.319,-75.7124 380.771,-85.2814 387.731,-86.029"/>
</g>
<!-- Node5 -->
<g id="node6" class="node"><title>Node5</title>
<polygon fill="white" stroke="#bfbfbf" points="425.5,-56.5 425.5,-75.5 481.5,-75.5 481.5,-56.5 425.5,-56.5"/>
<text text-anchor="middle" x="453.5" y="-63.5" font-family="Helvetica,sans-Serif" font-size="10.00">algorithm</text>
</g>
<!-- Node3&#45;&gt;Node5 -->
<g id="edge6" class="edge"><title>Node3&#45;&gt;Node5</title>
<path fill="none" stroke="midnightblue" d="M447.168,-229.773C473.744,-225.232 509.663,-214.303 527.5,-188 552.783,-150.717 504.141,-104.928 474.318,-81.8301"/>
<polygon fill="midnightblue" stroke="midnightblue" points="476.225,-78.8853 466.126,-75.6831 472.024,-84.4844 476.225,-78.8853"/>
</g>
<!-- Node6 -->
<g id="node7" class="node"><title>Node6</title>
<g id="a_node7"><a xlink:href="_capacite_8h.html" target="_top" xlink:title="../Capacites/Capacite.h">
<polygon fill="white" stroke="black" points="398.5,-168.5 398.5,-187.5 518.5,-187.5 518.5,-168.5 398.5,-168.5"/>
<text text-anchor="middle" x="458.5" y="-175.5" font-family="Helvetica,sans-Serif" font-size="10.00">../Capacites/Capacite.h</text>
</a>
</g>
</g>
<!-- Node3&#45;&gt;Node6 -->
<g id="edge7" class="edge"><title>Node3&#45;&gt;Node6</title>
<path fill="none" stroke="midnightblue" d="M421.766,-224.083C428.045,-216.377 437.288,-205.033 444.931,-195.653"/>
<polygon fill="midnightblue" stroke="midnightblue" points="447.766,-197.714 451.369,-187.751 442.339,-193.293 447.766,-197.714"/>
</g>
<!-- Node7 -->
<g id="node8" class="node"><title>Node7</title>
<g id="a_node8"><a xlink:href="_projectile_8h.html" target="_top" xlink:title="../Projectiles/Projectile.h">
<polygon fill="white" stroke="black" points="243,-112.5 243,-131.5 366,-131.5 366,-112.5 243,-112.5"/>
<text text-anchor="middle" x="304.5" y="-119.5" font-family="Helvetica,sans-Serif" font-size="10.00">../Projectiles/Projectile.h</text>
</a>
</g>
</g>
<!-- Node3&#45;&gt;Node7 -->
<g id="edge23" class="edge"><title>Node3&#45;&gt;Node7</title>
<path fill="none" stroke="midnightblue" d="M401.815,-224.478C389.576,-215.962 370.844,-202.132 356.5,-188 341.277,-173.002 326.29,-153.643 316.346,-139.965"/>
<polygon fill="midnightblue" stroke="midnightblue" points="318.983,-137.635 310.326,-131.527 313.285,-141.7 318.983,-137.635"/>
</g>
<!-- Node8 -->
<g id="node9" class="node"><title>Node8</title>
<g id="a_node9"><a xlink:href="_entite_8h.html" target="_top" xlink:title="../Entite.h">
<polygon fill="white" stroke="black" points="250,-56.5 250,-75.5 309,-75.5 309,-56.5 250,-56.5"/>
<text text-anchor="middle" x="279.5" y="-63.5" font-family="Helvetica,sans-Serif" font-size="10.00">../Entite.h</text>
</a>
</g>
</g>
<!-- Node3&#45;&gt;Node8 -->
<g id="edge22" class="edge"><title>Node3&#45;&gt;Node8</title>
<path fill="none" stroke="midnightblue" d="M381.662,-226.311C337.184,-215.292 259.452,-188.64 225.5,-132 213.988,-112.795 235.396,-93.3856 254.564,-80.8421"/>
<polygon fill="midnightblue" stroke="midnightblue" points="256.411,-83.815 263.086,-75.5874 252.737,-77.8565 256.411,-83.815"/>
</g>
<!-- Node12 -->
<g id="node13" class="node"><title>Node12</title>
<g id="a_node13"><a xlink:href="_input_8h.html" target="_top" xlink:title="../Interface/Input.h">
<polygon fill="white" stroke="black" points="129,-56.5 129,-75.5 226,-75.5 226,-56.5 129,-56.5"/>
<text text-anchor="middle" x="177.5" y="-63.5" font-family="Helvetica,sans-Serif" font-size="10.00">../Interface/Input.h</text>
</a>
</g>
</g>
<!-- Node3&#45;&gt;Node12 -->
<g id="edge24" class="edge"><title>Node3&#45;&gt;Node12</title>
<path fill="none" stroke="midnightblue" d="M381.785,-230.608C347.176,-226.629 292.431,-216.054 254.5,-188 218.254,-161.193 194.763,-111.78 184.115,-85.1465"/>
<polygon fill="midnightblue" stroke="midnightblue" points="187.287,-83.6432 180.445,-75.5538 180.749,-86.1442 187.287,-83.6432"/>
</g>
<!-- Node6&#45;&gt;Node1 -->
<g id="edge8" class="edge"><title>Node6&#45;&gt;Node1</title>
<path fill="none" stroke="midnightblue" d="M464.522,-168.075C482.38,-141.606 535.275,-63.2089 558.889,-28.2097"/>
<polygon fill="midnightblue" stroke="midnightblue" points="562.027,-29.8153 564.719,-19.5681 556.225,-25.9002 562.027,-29.8153"/>
</g>
<!-- Node6&#45;&gt;Node4 -->
<g id="edge9" class="edge"><title>Node6&#45;&gt;Node4</title>
<path fill="none" stroke="midnightblue" d="M452.85,-168.368C440.968,-150.215 413.206,-107.802 397.621,-83.9902"/>
<polygon fill="midnightblue" stroke="midnightblue" points="400.529,-82.0416 392.123,-75.5914 394.672,-85.8753 400.529,-82.0416"/>
</g>
<!-- Node6&#45;&gt;Node5 -->
<g id="edge10" class="edge"><title>Node6&#45;&gt;Node5</title>
<path fill="none" stroke="midnightblue" d="M458.108,-168.368C457.301,-150.617 455.439,-109.666 454.345,-85.5974"/>
<polygon fill="midnightblue" stroke="midnightblue" points="457.841,-85.4221 453.891,-75.5914 450.848,-85.7401 457.841,-85.4221"/>
</g>
<!-- Node6&#45;&gt;Node7 -->
<g id="edge11" class="edge"><title>Node6&#45;&gt;Node7</title>
<path fill="none" stroke="midnightblue" d="M434.098,-168.444C408.303,-159.399 367.423,-145.064 338.482,-134.916"/>
<polygon fill="midnightblue" stroke="midnightblue" points="339.382,-131.523 328.788,-131.516 337.066,-138.128 339.382,-131.523"/>
</g>
<!-- Node6&#45;&gt;Node8 -->
<g id="edge21" class="edge"><title>Node6&#45;&gt;Node8</title>
<path fill="none" stroke="midnightblue" d="M398.319,-173.37C338.886,-168.381 253.989,-156.992 233.5,-132 219.942,-115.462 239.564,-95.1776 257.219,-81.7126"/>
<polygon fill="midnightblue" stroke="midnightblue" points="259.503,-84.3803 265.573,-75.6966 255.413,-78.6998 259.503,-84.3803"/>
</g>
<!-- Node7&#45;&gt;Node1 -->
<g id="edge12" class="edge"><title>Node7&#45;&gt;Node1</title>
<path fill="none" stroke="midnightblue" d="M308.903,-112.238C316.53,-98.0173 333.608,-70.0877 356.5,-56 358.449,-54.8004 478.988,-29.854 538.276,-17.6323"/>
<polygon fill="midnightblue" stroke="midnightblue" points="539.166,-21.0225 548.254,-15.5764 537.753,-14.1665 539.166,-21.0225"/>
</g>
<!-- Node7&#45;&gt;Node4 -->
<g id="edge13" class="edge"><title>Node7&#45;&gt;Node4</title>
<path fill="none" stroke="midnightblue" d="M317.675,-112.324C330.347,-103.979 349.733,-91.2122 364.706,-81.3524"/>
<polygon fill="midnightblue" stroke="midnightblue" points="366.931,-84.0776 373.358,-75.6545 363.081,-78.2313 366.931,-84.0776"/>
</g>
<!-- Node7&#45;&gt;Node5 -->
<g id="edge14" class="edge"><title>Node7&#45;&gt;Node5</title>
<path fill="none" stroke="midnightblue" d="M328.109,-112.444C352.958,-103.438 392.274,-89.1891 420.254,-79.049"/>
<polygon fill="midnightblue" stroke="midnightblue" points="421.792,-82.2144 430.001,-75.5164 419.407,-75.6332 421.792,-82.2144"/>
</g>
<!-- Node7&#45;&gt;Node8 -->
<g id="edge15" class="edge"><title>Node7&#45;&gt;Node8</title>
<path fill="none" stroke="midnightblue" d="M300.372,-112.083C296.986,-104.77 292.084,-94.1814 287.881,-85.1034"/>
<polygon fill="midnightblue" stroke="midnightblue" points="290.929,-83.3553 283.551,-75.7511 284.577,-86.2962 290.929,-83.3553"/>
</g>
<!-- Node8&#45;&gt;Node1 -->
<g id="edge16" class="edge"><title>Node8&#45;&gt;Node1</title>
<path fill="none" stroke="midnightblue" d="M309.301,-58.7941C314.047,-57.8377 318.905,-56.8773 323.5,-56 413.504,-38.8174 436.496,-37.1826 526.5,-20 530.243,-19.2854 534.161,-18.5156 538.05,-17.7377"/>
<polygon fill="midnightblue" stroke="midnightblue" points="539.033,-21.1096 548.139,-15.6922 537.642,-14.2492 539.033,-21.1096"/>
</g>
<!-- Node8&#45;&gt;Node2 -->
<g id="edge20" class="edge"><title>Node8&#45;&gt;Node2</title>
<path fill="none" stroke="midnightblue" d="M251.137,-56.4435C220.762,-47.2801 172.39,-32.6876 138.684,-22.5192"/>
<polygon fill="midnightblue" stroke="midnightblue" points="139.315,-19.0538 128.73,-19.5164 137.293,-25.7555 139.315,-19.0538"/>
</g>
<!-- Node9 -->
<g id="node10" class="node"><title>Node9</title>
<polygon fill="white" stroke="#bfbfbf" points="465.5,-0.5 465.5,-19.5 517.5,-19.5 517.5,-0.5 465.5,-0.5"/>
<text text-anchor="middle" x="491.5" y="-7.5" font-family="Helvetica,sans-Serif" font-size="10.00">memory</text>
</g>
<!-- Node8&#45;&gt;Node9 -->
<g id="edge17" class="edge"><title>Node8&#45;&gt;Node9</title>
<path fill="none" stroke="midnightblue" d="M309.258,-57.4608C342.511,-49.0303 398.219,-34.8898 455.226,-20.3211"/>
<polygon fill="midnightblue" stroke="midnightblue" points="456.307,-23.6573 465.129,-17.7894 454.573,-16.8755 456.307,-23.6573"/>
</g>
<!-- Node10 -->
<g id="node11" class="node"><title>Node10</title>
<polygon fill="white" stroke="#bfbfbf" points="349.5,-0.5 349.5,-19.5 447.5,-19.5 447.5,-0.5 349.5,-0.5"/>
<text text-anchor="middle" x="398.5" y="-7.5" font-family="Helvetica,sans-Serif" font-size="10.00">SFML/System.hpp</text>
</g>
<!-- Node8&#45;&gt;Node10 -->
<g id="edge18" class="edge"><title>Node8&#45;&gt;Node10</title>
<path fill="none" stroke="midnightblue" d="M298.356,-56.4435C317.766,-47.6356 348.23,-33.8116 370.465,-23.722"/>
<polygon fill="midnightblue" stroke="midnightblue" points="372.072,-26.836 379.732,-19.5164 369.18,-20.4615 372.072,-26.836"/>
</g>
<!-- Node11 -->
<g id="node12" class="node"><title>Node11</title>
<polygon fill="white" stroke="#bfbfbf" points="227.5,-0.5 227.5,-19.5 331.5,-19.5 331.5,-0.5 227.5,-0.5"/>
<text text-anchor="middle" x="279.5" y="-7.5" font-family="Helvetica,sans-Serif" font-size="10.00">SFML/Graphics.hpp</text>
</g>
<!-- Node8&#45;&gt;Node11 -->
<g id="edge19" class="edge"><title>Node8&#45;&gt;Node11</title>
<path fill="none" stroke="midnightblue" d="M279.5,-56.083C279.5,-49.0059 279.5,-38.8611 279.5,-29.9865"/>
<polygon fill="midnightblue" stroke="midnightblue" points="283,-29.751 279.5,-19.7511 276,-29.7511 283,-29.751"/>
</g>
<!-- Node12&#45;&gt;Node2 -->
<g id="edge28" class="edge"><title>Node12&#45;&gt;Node2</title>
<path fill="none" stroke="midnightblue" d="M165.129,-56.324C153.342,-48.0577 135.368,-35.4527 121.364,-25.6322"/>
<polygon fill="midnightblue" stroke="midnightblue" points="123.038,-22.5307 112.841,-19.6545 119.018,-28.2619 123.038,-22.5307"/>
</g>
<!-- Node12&#45;&gt;Node11 -->
<g id="edge25" class="edge"><title>Node12&#45;&gt;Node11</title>
<path fill="none" stroke="midnightblue" d="M193.888,-56.324C210.171,-47.7034 235.367,-34.3643 254.216,-24.3855"/>
<polygon fill="midnightblue" stroke="midnightblue" points="255.952,-27.4267 263.153,-19.6545 252.677,-21.2402 255.952,-27.4267"/>
</g>
<!-- Node13 -->
<g id="node14" class="node"><title>Node13</title>
<polygon fill="white" stroke="#bfbfbf" points="159.5,-0.5 159.5,-19.5 209.5,-19.5 209.5,-0.5 159.5,-0.5"/>
<text text-anchor="middle" x="184.5" y="-7.5" font-family="Helvetica,sans-Serif" font-size="10.00">optional</text>
</g>
<!-- Node12&#45;&gt;Node13 -->
<g id="edge26" class="edge"><title>Node12&#45;&gt;Node13</title>
<path fill="none" stroke="midnightblue" d="M178.656,-56.083C179.584,-48.9272 180.918,-38.6353 182.077,-29.6911"/>
<polygon fill="midnightblue" stroke="midnightblue" points="185.551,-30.1181 183.366,-19.7511 178.609,-29.2181 185.551,-30.1181"/>
</g>
<!-- Node14 -->
<g id="node15" class="node"><title>Node14</title>
<polygon fill="white" stroke="#bfbfbf" points="0,-0.5 0,-19.5 41,-19.5 41,-0.5 0,-0.5"/>
<text text-anchor="middle" x="20.5" y="-7.5" font-family="Helvetica,sans-Serif" font-size="10.00">bitset</text>
</g>
<!-- Node12&#45;&gt;Node14 -->
<g id="edge27" class="edge"><title>Node12&#45;&gt;Node14</title>
<path fill="none" stroke="midnightblue" d="M152.623,-56.4435C125.088,-46.973 80.6926,-31.7032 51.0626,-21.512"/>
<polygon fill="midnightblue" stroke="midnightblue" points="51.8443,-18.0797 41.2497,-18.1368 49.5676,-24.6991 51.8443,-18.0797"/>
</g>
<!-- Node15&#45;&gt;Node1 -->
<g id="edge30" class="edge"><title>Node15&#45;&gt;Node1</title>
<path fill="none" stroke="midnightblue" d="M690,-56.4435C666.423,-47.4776 629.178,-33.314 602.536,-23.1827"/>
<polygon fill="midnightblue" stroke="midnightblue" points="603.486,-19.7995 592.895,-19.5164 600.998,-26.3424 603.486,-19.7995"/>
</g>
<!-- Node15&#45;&gt;Node11 -->
<g id="edge31" class="edge"><title>Node15&#45;&gt;Node11</title>
<path fill="none" stroke="midnightblue" d="M650.237,-57.971C578.399,-49.7482 456.454,-35.4437 341.741,-20.1384"/>
<polygon fill="midnightblue" stroke="midnightblue" points="342.107,-16.6562 331.731,-18.7977 341.178,-23.5943 342.107,-16.6562"/>
</g>
<!-- Node16 -->
<g id="node17" class="node"><title>Node16</title>
<polygon fill="white" stroke="#bfbfbf" points="690.5,-0.5 690.5,-19.5 734.5,-19.5 734.5,-0.5 690.5,-0.5"/>
<text text-anchor="middle" x="712.5" y="-7.5" font-family="Helvetica,sans-Serif" font-size="10.00">cmath</text>
</g>
<!-- Node15&#45;&gt;Node16 -->
<g id="edge32" class="edge"><title>Node15&#45;&gt;Node16</title>
<path fill="none" stroke="midnightblue" d="M712.5,-56.083C712.5,-49.0059 712.5,-38.8611 712.5,-29.9865"/>
<polygon fill="midnightblue" stroke="midnightblue" points="716,-29.751 712.5,-19.7511 709,-29.7511 716,-29.751"/>
</g>
</g>
</svg>
