<?xml version="1.0" encoding="UTF-8" standalone="no"?>
<!DOCTYPE svg PUBLIC "-//W3C//DTD SVG 1.1//EN"
 "http://www.w3.org/Graphics/SVG/1.1/DTD/svg11.dtd">
<!-- Generated by graphviz version 2.38.0 (20140413.2041)
 -->
<!-- Title: src/Vaisseau/Vaisseau.cpp Pages: 1 -->
<svg width="494pt" height="308pt"
 viewBox="0.00 0.00 493.50 308.00" xmlns="http://www.w3.org/2000/svg" xmlns:xlink="http://www.w3.org/1999/xlink">
<g id="graph0" class="graph" transform="scale(1 1) rotate(0) translate(4 304)">
<title>src/Vaisseau/Vaisseau.cpp</title>
<polygon fill="white" stroke="none" points="-4,4 -4,-304 489.5,-304 489.5,4 -4,4"/>
<!-- Node0 -->
<g id="node1" class="node"><title>Node0</title>
<polygon fill="#bfbfbf" stroke="black" points="190,-280.5 190,-299.5 326,-299.5 326,-280.5 190,-280.5"/>
<text text-anchor="middle" x="258" y="-287.5" font-family="Helvetica,sans-Serif" font-size="10.00">src/Vaisseau/Vaisseau.cpp</text>
</g>
<!-- Node1 -->
<g id="node2" class="node"><title>Node1</title>
<polygon fill="white" stroke="#bfbfbf" points="128,-0.5 128,-19.5 172,-19.5 172,-0.5 128,-0.5"/>
<text text-anchor="middle" x="150" y="-7.5" font-family="Helvetica,sans-Serif" font-size="10.00">vector</text>
</g>
<!-- Node0&#45;&gt;Node1 -->
<g id="edge1" class="edge"><title>Node0&#45;&gt;Node1</title>
<path fill="none" stroke="midnightblue" d="M189.876,-288.102C113.438,-283.061 0,-261.656 0,-179 0,-179 0,-179 0,-121 0,-62.8779 74.1416,-32.1106 118.175,-18.9631"/>
<polygon fill="midnightblue" stroke="midnightblue" points="119.206,-22.3087 127.867,-16.2068 117.291,-15.5756 119.206,-22.3087"/>
</g>
<!-- Node2 -->
<g id="node3" class="node"><title>Node2</title>
<polygon fill="white" stroke="#bfbfbf" points="444.5,-56.5 444.5,-75.5 485.5,-75.5 485.5,-56.5 444.5,-56.5"/>
<text text-anchor="middle" x="465" y="-63.5" font-family="Helvetica,sans-Serif" font-size="10.00">string</text>
</g>
<!-- Node0&#45;&gt;Node2 -->
<g id="edge2" class="edge"><title>Node0&#45;&gt;Node2</title>
<path fill="none" stroke="midnightblue" d="M281.273,-280.383C300.361,-272.635 327.484,-260.019 348,-244 399.676,-203.653 411.963,-189.2 444,-132 452.149,-117.45 457.682,-99.2714 461.014,-85.8412"/>
<polygon fill="midnightblue" stroke="midnightblue" points="464.479,-86.3901 463.304,-75.8606 457.657,-84.8244 464.479,-86.3901"/>
</g>
<!-- Node3 -->
<g id="node4" class="node"><title>Node3</title>
<polygon fill="white" stroke="#bfbfbf" points="96,-56.5 96,-75.5 152,-75.5 152,-56.5 96,-56.5"/>
<text text-anchor="middle" x="124" y="-63.5" font-family="Helvetica,sans-Serif" font-size="10.00">algorithm</text>
</g>
<!-- Node0&#45;&gt;Node3 -->
<g id="edge3" class="edge"><title>Node0&#45;&gt;Node3</title>
<path fill="none" stroke="midnightblue" d="M243.443,-280.358C218.712,-264.936 168.507,-230.289 141,-188 120.638,-156.696 120.241,-111.228 121.98,-85.878"/>
<polygon fill="midnightblue" stroke="midnightblue" points="125.479,-86.0369 122.865,-75.7697 118.506,-85.4263 125.479,-86.0369"/>
</g>
<!-- Node4 -->
<g id="node5" class="node"><title>Node4</title>
<g id="a_node5"><a xlink:href="_capacite_8h.html" target="_top" xlink:title="../Capacites/Capacite.h">
<polygon fill="white" stroke="black" points="168,-168.5 168,-187.5 288,-187.5 288,-168.5 168,-168.5"/>
<text text-anchor="middle" x="228" y="-175.5" font-family="Helvetica,sans-Serif" font-size="10.00">../Capacites/Capacite.h</text>
</a>
</g>
</g>
<!-- Node0&#45;&gt;Node4 -->
<g id="edge4" class="edge"><title>Node0&#45;&gt;Node4</title>
<path fill="none" stroke="midnightblue" d="M255.646,-280.368C250.783,-262.537 239.535,-221.295 232.983,-197.272"/>
<polygon fill="midnightblue" stroke="midnightblue" points="236.351,-196.318 230.343,-187.591 229.598,-198.16 236.351,-196.318"/>
</g>
<!-- Node5 -->
<g id="node6" class="node"><title>Node5</title>
<g id="a_node6"><a xlink:href="_projectile_8h.html" target="_top" xlink:title="../Projectiles/Projectile.h">
<polygon fill="white" stroke="black" points="256.5,-112.5 256.5,-131.5 379.5,-131.5 379.5,-112.5 256.5,-112.5"/>
<text text-anchor="middle" x="318" y="-119.5" font-family="Helvetica,sans-Serif" font-size="10.00">../Projectiles/Projectile.h</text>
</a>
</g>
</g>
<!-- Node0&#45;&gt;Node5 -->
<g id="edge25" class="edge"><title>Node0&#45;&gt;Node5</title>
<path fill="none" stroke="midnightblue" d="M283.504,-280.472C299.987,-273.478 320.139,-261.792 330,-244 348.177,-211.204 335.353,-165.666 325.797,-140.858"/>
<polygon fill="midnightblue" stroke="midnightblue" points="329.031,-139.519 322.001,-131.592 322.553,-142.172 329.031,-139.519"/>
</g>
<!-- Node10 -->
<g id="node11" class="node"><title>Node10</title>
<g id="a_node11"><a xlink:href="_vaisseau_8h.html" target="_top" xlink:title="Vaisseau.h">
<polygon fill="white" stroke="black" points="256.5,-224.5 256.5,-243.5 321.5,-243.5 321.5,-224.5 256.5,-224.5"/>
<text text-anchor="middle" x="289" y="-231.5" font-family="Helvetica,sans-Serif" font-size="10.00">Vaisseau.h</text>
</a>
</g>
</g>
<!-- Node0&#45;&gt;Node10 -->
<g id="edge18" class="edge"><title>Node0&#45;&gt;Node10</title>
<path fill="none" stroke="midnightblue" d="M263.119,-280.083C267.408,-272.613 273.658,-261.724 278.942,-252.52"/>
<polygon fill="midnightblue" stroke="midnightblue" points="282.033,-254.166 283.976,-243.751 275.962,-250.681 282.033,-254.166"/>
</g>
<!-- Node4&#45;&gt;Node1 -->
<g id="edge5" class="edge"><title>Node4&#45;&gt;Node1</title>
<path fill="none" stroke="midnightblue" d="M223.806,-168.075C211.422,-141.719 174.846,-63.878 158.298,-28.6608"/>
<polygon fill="midnightblue" stroke="midnightblue" points="161.446,-27.1303 154.026,-19.5681 155.111,-30.1072 161.446,-27.1303"/>
</g>
<!-- Node4&#45;&gt;Node2 -->
<g id="edge6" class="edge"><title>Node4&#45;&gt;Node2</title>
<path fill="none" stroke="midnightblue" d="M279.105,-168.424C311.604,-161.597 353.84,-150.116 388,-132 412.255,-119.136 435.709,-97.6166 450.229,-82.888"/>
<polygon fill="midnightblue" stroke="midnightblue" points="452.921,-85.1384 457.325,-75.5023 447.873,-80.2887 452.921,-85.1384"/>
</g>
<!-- Node4&#45;&gt;Node3 -->
<g id="edge7" class="edge"><title>Node4&#45;&gt;Node3</title>
<path fill="none" stroke="midnightblue" d="M216.723,-168.241C205.821,-159.549 189.078,-145.593 176,-132 161.346,-116.769 146.464,-97.7268 136.397,-84.1985"/>
<polygon fill="midnightblue" stroke="midnightblue" points="138.995,-81.8227 130.259,-75.8284 133.351,-85.9623 138.995,-81.8227"/>
</g>
<!-- Node4&#45;&gt;Node5 -->
<g id="edge8" class="edge"><title>Node4&#45;&gt;Node5</title>
<path fill="none" stroke="midnightblue" d="M242.46,-168.324C256.5,-159.9 278.048,-146.971 294.543,-137.074"/>
<polygon fill="midnightblue" stroke="midnightblue" points="296.802,-139.801 303.576,-131.655 293.2,-133.798 296.802,-139.801"/>
</g>
<!-- Node6 -->
<g id="node7" class="node"><title>Node6</title>
<g id="a_node7"><a xlink:href="_entite_8h.html" target="_top" xlink:title="../Entite.h">
<polygon fill="white" stroke="black" points="288.5,-56.5 288.5,-75.5 347.5,-75.5 347.5,-56.5 288.5,-56.5"/>
<text text-anchor="middle" x="318" y="-63.5" font-family="Helvetica,sans-Serif" font-size="10.00">../Entite.h</text>
</a>
</g>
</g>
<!-- Node4&#45;&gt;Node6 -->
<g id="edge17" class="edge"><title>Node4&#45;&gt;Node6</title>
<path fill="none" stroke="midnightblue" d="M228.62,-168.132C229.958,-154.737 234.133,-129.097 247,-112 257.438,-98.1303 273.504,-87.4345 287.714,-79.9574"/>
<polygon fill="midnightblue" stroke="midnightblue" points="289.297,-83.0796 296.707,-75.5077 286.192,-76.8057 289.297,-83.0796"/>
</g>
<!-- Node5&#45;&gt;Node1 -->
<g id="edge9" class="edge"><title>Node5&#45;&gt;Node1</title>
<path fill="none" stroke="midnightblue" d="M304.817,-112.368C275.988,-93.4924 207.097,-48.385 171.743,-25.2367"/>
<polygon fill="midnightblue" stroke="midnightblue" points="173.405,-22.1412 163.121,-19.5914 169.57,-27.9975 173.405,-22.1412"/>
</g>
<!-- Node5&#45;&gt;Node2 -->
<g id="edge10" class="edge"><title>Node5&#45;&gt;Node2</title>
<path fill="none" stroke="midnightblue" d="M341.293,-112.444C366.528,-103.173 406.89,-88.3464 434.606,-78.1652"/>
<polygon fill="midnightblue" stroke="midnightblue" points="436.013,-81.3769 444.193,-74.6433 433.6,-74.8062 436.013,-81.3769"/>
</g>
<!-- Node5&#45;&gt;Node3 -->
<g id="edge11" class="edge"><title>Node5&#45;&gt;Node3</title>
<path fill="none" stroke="midnightblue" d="M287.26,-112.444C253.275,-102.984 198.502,-87.7377 161.889,-77.5465"/>
<polygon fill="midnightblue" stroke="midnightblue" points="162.649,-74.1249 152.076,-74.8151 160.772,-80.8685 162.649,-74.1249"/>
</g>
<!-- Node5&#45;&gt;Node6 -->
<g id="edge12" class="edge"><title>Node5&#45;&gt;Node6</title>
<path fill="none" stroke="midnightblue" d="M318,-112.083C318,-105.006 318,-94.8611 318,-85.9865"/>
<polygon fill="midnightblue" stroke="midnightblue" points="321.5,-85.751 318,-75.7511 314.5,-85.7511 321.5,-85.751"/>
</g>
<!-- Node6&#45;&gt;Node1 -->
<g id="edge13" class="edge"><title>Node6&#45;&gt;Node1</title>
<path fill="none" stroke="midnightblue" d="M291.38,-56.4435C261.659,-46.8902 213.579,-31.436 181.877,-21.2461"/>
<polygon fill="midnightblue" stroke="midnightblue" points="182.795,-17.8649 172.203,-18.1368 180.653,-24.5291 182.795,-17.8649"/>
</g>
<!-- Node7 -->
<g id="node8" class="node"><title>Node7</title>
<polygon fill="white" stroke="#bfbfbf" points="428,-0.5 428,-19.5 480,-19.5 480,-0.5 428,-0.5"/>
<text text-anchor="middle" x="454" y="-7.5" font-family="Helvetica,sans-Serif" font-size="10.00">memory</text>
</g>
<!-- Node6&#45;&gt;Node7 -->
<g id="edge14" class="edge"><title>Node6&#45;&gt;Node7</title>
<path fill="none" stroke="midnightblue" d="M339.55,-56.4435C362.031,-47.5171 397.488,-33.4387 422.98,-23.3168"/>
<polygon fill="midnightblue" stroke="midnightblue" points="424.549,-26.4598 432.551,-19.5164 421.965,-19.9539 424.549,-26.4598"/>
</g>
<!-- Node8 -->
<g id="node9" class="node"><title>Node8</title>
<polygon fill="white" stroke="#bfbfbf" points="190,-0.5 190,-19.5 288,-19.5 288,-0.5 190,-0.5"/>
<text text-anchor="middle" x="239" y="-7.5" font-family="Helvetica,sans-Serif" font-size="10.00">SFML/System.hpp</text>
</g>
<!-- Node6&#45;&gt;Node8 -->
<g id="edge15" class="edge"><title>Node6&#45;&gt;Node8</title>
<path fill="none" stroke="midnightblue" d="M305.307,-56.324C293.099,-47.979 274.422,-35.2122 259.997,-25.3524"/>
<polygon fill="midnightblue" stroke="midnightblue" points="261.892,-22.4082 251.661,-19.6545 257.942,-28.1871 261.892,-22.4082"/>
</g>
<!-- Node9 -->
<g id="node10" class="node"><title>Node9</title>
<polygon fill="white" stroke="#bfbfbf" points="306,-0.5 306,-19.5 410,-19.5 410,-0.5 306,-0.5"/>
<text text-anchor="middle" x="358" y="-7.5" font-family="Helvetica,sans-Serif" font-size="10.00">SFML/Graphics.hpp</text>
</g>
<!-- Node6&#45;&gt;Node9 -->
<g id="edge16" class="edge"><title>Node6&#45;&gt;Node9</title>
<path fill="none" stroke="midnightblue" d="M324.605,-56.083C330.255,-48.4554 338.545,-37.2645 345.451,-27.9408"/>
<polygon fill="midnightblue" stroke="midnightblue" points="348.378,-29.87 351.518,-19.7511 342.753,-25.7034 348.378,-29.87"/>
</g>
<!-- Node10&#45;&gt;Node1 -->
<g id="edge19" class="edge"><title>Node10&#45;&gt;Node1</title>
<path fill="none" stroke="midnightblue" d="M256.244,-230.593C223.597,-226.611 173.734,-216.043 141,-188 92.8626,-146.762 57.9958,-112.361 87,-56 94.0773,-42.2475 107.521,-31.7663 120.178,-24.3942"/>
<polygon fill="midnightblue" stroke="midnightblue" points="121.999,-27.3888 129.153,-19.5733 118.687,-21.2221 121.999,-27.3888"/>
</g>
<!-- Node10&#45;&gt;Node2 -->
<g id="edge20" class="edge"><title>Node10&#45;&gt;Node2</title>
<path fill="none" stroke="midnightblue" d="M309.544,-224.4C326.99,-216.499 352.128,-203.656 371,-188 407.871,-157.413 439.386,-109.978 454.833,-84.538"/>
<polygon fill="midnightblue" stroke="midnightblue" points="458.009,-86.0449 460.11,-75.6605 451.992,-82.468 458.009,-86.0449"/>
</g>
<!-- Node10&#45;&gt;Node3 -->
<g id="edge21" class="edge"><title>Node10&#45;&gt;Node3</title>
<path fill="none" stroke="midnightblue" d="M256.449,-230.091C227.044,-225.748 184.574,-214.931 159,-188 132.109,-159.683 125.704,-111.995 124.289,-85.7388"/>
<polygon fill="midnightblue" stroke="midnightblue" points="127.783,-85.4956 123.938,-75.6229 120.787,-85.7381 127.783,-85.4956"/>
</g>
<!-- Node10&#45;&gt;Node4 -->
<g id="edge22" class="edge"><title>Node10&#45;&gt;Node4</title>
<path fill="none" stroke="midnightblue" d="M279.199,-224.324C270.182,-216.341 256.594,-204.313 245.682,-194.653"/>
<polygon fill="midnightblue" stroke="midnightblue" points="247.787,-191.842 237.979,-187.834 243.147,-197.083 247.787,-191.842"/>
</g>
<!-- Node10&#45;&gt;Node5 -->
<g id="edge24" class="edge"><title>Node10&#45;&gt;Node5</title>
<path fill="none" stroke="midnightblue" d="M291.276,-224.368C295.977,-206.537 306.849,-165.295 313.183,-141.272"/>
<polygon fill="midnightblue" stroke="midnightblue" points="316.57,-142.153 315.735,-131.591 309.801,-140.369 316.57,-142.153"/>
</g>
<!-- Node10&#45;&gt;Node6 -->
<g id="edge23" class="edge"><title>Node10&#45;&gt;Node6</title>
<path fill="none" stroke="midnightblue" d="M302.551,-224.453C325.338,-209.173 370.549,-174.735 388,-132 391.361,-123.771 392.259,-119.802 388,-112 380.181,-97.6789 365.638,-87.2355 351.824,-80.0358"/>
<polygon fill="midnightblue" stroke="midnightblue" points="353.001,-76.7188 342.469,-75.5617 349.981,-83.0338 353.001,-76.7188"/>
</g>
</g>
</svg>
