<?xml version="1.0" encoding="UTF-8" standalone="no"?>
<!DOCTYPE svg PUBLIC "-//W3C//DTD SVG 1.1//EN"
 "http://www.w3.org/Graphics/SVG/1.1/DTD/svg11.dtd">
<!-- Generated by graphviz version 2.38.0 (20140413.2041)
 -->
<!-- Title: src/Vaisseau/VaisseauAttaquant.cpp Pages: 1 -->
<svg width="871pt" height="364pt"
 viewBox="0.00 0.00 871.00 364.00" xmlns="http://www.w3.org/2000/svg" xmlns:xlink="http://www.w3.org/1999/xlink">
<g id="graph0" class="graph" transform="scale(1 1) rotate(0) translate(4 360)">
<title>src/Vaisseau/VaisseauAttaquant.cpp</title>
<polygon fill="white" stroke="none" points="-4,4 -4,-360 867,-360 867,4 -4,4"/>
<!-- Node0 -->
<g id="node1" class="node"><title>Node0</title>
<polygon fill="#bfbfbf" stroke="black" points="608.5,-336.5 608.5,-355.5 786.5,-355.5 786.5,-336.5 608.5,-336.5"/>
<text text-anchor="middle" x="697.5" y="-343.5" font-family="Helvetica,sans-Serif" font-size="10.00">src/Vaisseau/VaisseauAttaquant.cpp</text>
</g>
<!-- Node1 -->
<g id="node2" class="node"><title>Node1</title>
<g id="a_node2"><a xlink:href="_vaisseau_attaquant_8h.html" target="_top" xlink:title="VaisseauAttaquant.h">
<polygon fill="white" stroke="black" points="548,-280.5 548,-299.5 655,-299.5 655,-280.5 548,-280.5"/>
<text text-anchor="middle" x="601.5" y="-287.5" font-family="Helvetica,sans-Serif" font-size="10.00">VaisseauAttaquant.h</text>
</a>
</g>
</g>
<!-- Node0&#45;&gt;Node1 -->
<g id="edge1" class="edge"><title>Node0&#45;&gt;Node1</title>
<path fill="none" stroke="midnightblue" d="M682.076,-336.324C666.96,-327.822 643.685,-314.729 626.029,-304.797"/>
<polygon fill="midnightblue" stroke="midnightblue" points="627.317,-301.507 616.886,-299.655 623.886,-307.608 627.317,-301.507"/>
</g>
<!-- Node19 -->
<g id="node20" class="node"><title>Node19</title>
<polygon fill="white" stroke="#bfbfbf" points="656.5,-168.5 656.5,-187.5 700.5,-187.5 700.5,-168.5 656.5,-168.5"/>
<text text-anchor="middle" x="678.5" y="-175.5" font-family="Helvetica,sans-Serif" font-size="10.00">cmath</text>
</g>
<!-- Node0&#45;&gt;Node19 -->
<g id="edge37" class="edge"><title>Node0&#45;&gt;Node19</title>
<path fill="none" stroke="midnightblue" d="M696.478,-336.075C693.488,-309.945 684.705,-233.211 680.626,-197.577"/>
<polygon fill="midnightblue" stroke="midnightblue" points="684.095,-197.105 679.481,-187.568 677.141,-197.901 684.095,-197.105"/>
</g>
<!-- Node2 -->
<g id="node3" class="node"><title>Node2</title>
<g id="a_node3"><a xlink:href="constantes_8h.html" target="_top" xlink:title="../constantes.h">
<polygon fill="white" stroke="black" points="721.5,-0.5 721.5,-19.5 803.5,-19.5 803.5,-0.5 721.5,-0.5"/>
<text text-anchor="middle" x="762.5" y="-7.5" font-family="Helvetica,sans-Serif" font-size="10.00">../constantes.h</text>
</a>
</g>
</g>
<!-- Node1&#45;&gt;Node2 -->
<g id="edge2" class="edge"><title>Node1&#45;&gt;Node2</title>
<path fill="none" stroke="midnightblue" d="M637.218,-280.429C682.711,-267.134 755.5,-236.827 755.5,-179 755.5,-179 755.5,-179 755.5,-121 755.5,-88.8832 758.509,-51.5979 760.581,-29.7258"/>
<polygon fill="midnightblue" stroke="midnightblue" points="764.087,-29.8412 761.585,-19.546 757.12,-29.1543 764.087,-29.8412"/>
</g>
<!-- Node3 -->
<g id="node4" class="node"><title>Node3</title>
<g id="a_node4"><a xlink:href="_vaisseau_8h.html" target="_top" xlink:title="Vaisseau.h">
<polygon fill="white" stroke="black" points="360,-224.5 360,-243.5 425,-243.5 425,-224.5 360,-224.5"/>
<text text-anchor="middle" x="392.5" y="-231.5" font-family="Helvetica,sans-Serif" font-size="10.00">Vaisseau.h</text>
</a>
</g>
</g>
<!-- Node1&#45;&gt;Node3 -->
<g id="edge3" class="edge"><title>Node1&#45;&gt;Node3</title>
<path fill="none" stroke="midnightblue" d="M568.383,-280.444C532.277,-271.115 474.391,-256.158 434.967,-245.972"/>
<polygon fill="midnightblue" stroke="midnightblue" points="435.675,-242.54 425.118,-243.428 433.924,-249.318 435.675,-242.54"/>
</g>
<!-- Node16 -->
<g id="node17" class="node"><title>Node16</title>
<g id="a_node17"><a xlink:href="_cap_missile_8h.html" target="_top" xlink:title="../Capacites/CapMissile.h">
<polygon fill="white" stroke="black" points="144.5,-224.5 144.5,-243.5 274.5,-243.5 274.5,-224.5 144.5,-224.5"/>
<text text-anchor="middle" x="209.5" y="-231.5" font-family="Helvetica,sans-Serif" font-size="10.00">../Capacites/CapMissile.h</text>
</a>
</g>
</g>
<!-- Node1&#45;&gt;Node16 -->
<g id="edge29" class="edge"><title>Node1&#45;&gt;Node16</title>
<path fill="none" stroke="midnightblue" d="M547.816,-281.605C478.683,-272.081 358.3,-255.498 281.336,-244.896"/>
<polygon fill="midnightblue" stroke="midnightblue" points="281.625,-241.403 271.241,-243.505 280.67,-248.337 281.625,-241.403"/>
</g>
<!-- Node18 -->
<g id="node19" class="node"><title>Node18</title>
<g id="a_node19"><a xlink:href="_trajectoire_8h.html" target="_top" xlink:title="../Utilitaires/Trajectoire.h">
<polygon fill="white" stroke="black" points="539.5,-224.5 539.5,-243.5 663.5,-243.5 663.5,-224.5 539.5,-224.5"/>
<text text-anchor="middle" x="601.5" y="-231.5" font-family="Helvetica,sans-Serif" font-size="10.00">../Utilitaires/Trajectoire.h</text>
</a>
</g>
</g>
<!-- Node1&#45;&gt;Node18 -->
<g id="edge33" class="edge"><title>Node1&#45;&gt;Node18</title>
<path fill="none" stroke="midnightblue" d="M601.5,-280.083C601.5,-273.006 601.5,-262.861 601.5,-253.986"/>
<polygon fill="midnightblue" stroke="midnightblue" points="605,-253.751 601.5,-243.751 598,-253.751 605,-253.751"/>
</g>
<!-- Node4 -->
<g id="node5" class="node"><title>Node4</title>
<polygon fill="white" stroke="#bfbfbf" points="283.5,-0.5 283.5,-19.5 327.5,-19.5 327.5,-0.5 283.5,-0.5"/>
<text text-anchor="middle" x="305.5" y="-7.5" font-family="Helvetica,sans-Serif" font-size="10.00">vector</text>
</g>
<!-- Node3&#45;&gt;Node4 -->
<g id="edge4" class="edge"><title>Node3&#45;&gt;Node4</title>
<path fill="none" stroke="midnightblue" d="M393.399,-224.433C395.806,-197.333 399.989,-111.963 364.5,-56 356.308,-43.0826 343.024,-32.4673 331.132,-24.7974"/>
<polygon fill="midnightblue" stroke="midnightblue" points="332.784,-21.706 322.418,-19.517 329.156,-27.6927 332.784,-21.706"/>
</g>
<!-- Node5 -->
<g id="node6" class="node"><title>Node5</title>
<polygon fill="white" stroke="#bfbfbf" points="315,-56.5 315,-75.5 356,-75.5 356,-56.5 315,-56.5"/>
<text text-anchor="middle" x="335.5" y="-63.5" font-family="Helvetica,sans-Serif" font-size="10.00">string</text>
</g>
<!-- Node3&#45;&gt;Node5 -->
<g id="edge5" class="edge"><title>Node3&#45;&gt;Node5</title>
<path fill="none" stroke="midnightblue" d="M389.435,-224.075C380.424,-197.832 353.886,-120.545 341.721,-85.1165"/>
<polygon fill="midnightblue" stroke="midnightblue" points="345,-83.8894 338.442,-75.5681 338.379,-86.1628 345,-83.8894"/>
</g>
<!-- Node6 -->
<g id="node7" class="node"><title>Node6</title>
<polygon fill="white" stroke="#bfbfbf" points="127.5,-56.5 127.5,-75.5 183.5,-75.5 183.5,-56.5 127.5,-56.5"/>
<text text-anchor="middle" x="155.5" y="-63.5" font-family="Helvetica,sans-Serif" font-size="10.00">algorithm</text>
</g>
<!-- Node3&#45;&gt;Node6 -->
<g id="edge6" class="edge"><title>Node3&#45;&gt;Node6</title>
<path fill="none" stroke="midnightblue" d="M376.569,-224.38C360.162,-215.449 333.899,-201.003 311.5,-188 296.668,-179.39 294.023,-175.29 278.5,-168 234.226,-147.208 208.232,-167.421 174.5,-132 162.728,-119.639 158.198,-100.392 156.481,-86.045"/>
<polygon fill="midnightblue" stroke="midnightblue" points="159.947,-85.4876 155.623,-75.8151 152.971,-86.0727 159.947,-85.4876"/>
</g>
<!-- Node7 -->
<g id="node8" class="node"><title>Node7</title>
<g id="a_node8"><a xlink:href="_capacite_8h.html" target="_top" xlink:title="../Capacites/Capacite.h">
<polygon fill="white" stroke="black" points="149.5,-168.5 149.5,-187.5 269.5,-187.5 269.5,-168.5 149.5,-168.5"/>
<text text-anchor="middle" x="209.5" y="-175.5" font-family="Helvetica,sans-Serif" font-size="10.00">../Capacites/Capacite.h</text>
</a>
</g>
</g>
<!-- Node3&#45;&gt;Node7 -->
<g id="edge7" class="edge"><title>Node3&#45;&gt;Node7</title>
<path fill="none" stroke="midnightblue" d="M363.503,-224.444C332.315,-215.241 282.57,-200.562 248.092,-190.388"/>
<polygon fill="midnightblue" stroke="midnightblue" points="248.943,-186.99 238.361,-187.516 246.962,-193.704 248.943,-186.99"/>
</g>
<!-- Node8 -->
<g id="node9" class="node"><title>Node8</title>
<g id="a_node9"><a xlink:href="_projectile_8h.html" target="_top" xlink:title="../Projectiles/Projectile.h">
<polygon fill="white" stroke="black" points="184,-112.5 184,-131.5 307,-131.5 307,-112.5 184,-112.5"/>
<text text-anchor="middle" x="245.5" y="-119.5" font-family="Helvetica,sans-Serif" font-size="10.00">../Projectiles/Projectile.h</text>
</a>
</g>
</g>
<!-- Node3&#45;&gt;Node8 -->
<g id="edge23" class="edge"><title>Node3&#45;&gt;Node8</title>
<path fill="none" stroke="midnightblue" d="M382.219,-224.321C367.032,-211.602 337.584,-187.312 311.5,-168 297.15,-157.375 280.54,-146.055 267.573,-137.427"/>
<polygon fill="midnightblue" stroke="midnightblue" points="269.132,-134.262 258.859,-131.668 265.272,-140.102 269.132,-134.262"/>
</g>
<!-- Node9 -->
<g id="node10" class="node"><title>Node9</title>
<g id="a_node10"><a xlink:href="_entite_8h.html" target="_top" xlink:title="../Entite.h">
<polygon fill="white" stroke="black" points="478,-56.5 478,-75.5 537,-75.5 537,-56.5 478,-56.5"/>
<text text-anchor="middle" x="507.5" y="-63.5" font-family="Helvetica,sans-Serif" font-size="10.00">../Entite.h</text>
</a>
</g>
</g>
<!-- Node3&#45;&gt;Node9 -->
<g id="edge22" class="edge"><title>Node3&#45;&gt;Node9</title>
<path fill="none" stroke="midnightblue" d="M398.922,-224.442C405.643,-215.44 416.455,-200.826 425.5,-188 451.335,-151.363 480.562,-107.669 496.198,-84.1055"/>
<polygon fill="midnightblue" stroke="midnightblue" points="499.238,-85.8531 501.842,-75.5832 493.402,-81.988 499.238,-85.8531"/>
</g>
<!-- Node13 -->
<g id="node14" class="node"><title>Node13</title>
<g id="a_node14"><a xlink:href="_input_8h.html" target="_top" xlink:title="../Interface/Input.h">
<polygon fill="white" stroke="black" points="630,-56.5 630,-75.5 727,-75.5 727,-56.5 630,-56.5"/>
<text text-anchor="middle" x="678.5" y="-63.5" font-family="Helvetica,sans-Serif" font-size="10.00">../Interface/Input.h</text>
</a>
</g>
</g>
<!-- Node3&#45;&gt;Node13 -->
<g id="edge24" class="edge"><title>Node3&#45;&gt;Node13</title>
<path fill="none" stroke="midnightblue" d="M407.474,-224.309C454.29,-197.136 598.151,-113.636 655.018,-80.6297"/>
<polygon fill="midnightblue" stroke="midnightblue" points="656.783,-83.6521 663.674,-75.6051 653.269,-77.598 656.783,-83.6521"/>
</g>
<!-- Node7&#45;&gt;Node4 -->
<g id="edge8" class="edge"><title>Node7&#45;&gt;Node4</title>
<path fill="none" stroke="midnightblue" d="M185.935,-168.355C169.264,-161.083 147.624,-149.109 134.5,-132 113.491,-104.612 97.1372,-83.1134 118.5,-56 137.416,-31.9918 224.906,-19.3084 273.221,-14.0303"/>
<polygon fill="midnightblue" stroke="midnightblue" points="273.6,-17.5098 283.181,-12.9864 272.871,-10.5479 273.6,-17.5098"/>
</g>
<!-- Node7&#45;&gt;Node5 -->
<g id="edge9" class="edge"><title>Node7&#45;&gt;Node5</title>
<path fill="none" stroke="midnightblue" d="M250.69,-168.444C272.686,-161.899 298.628,-150.705 315.5,-132 326.981,-119.271 331.873,-100.073 333.956,-85.8383"/>
<polygon fill="midnightblue" stroke="midnightblue" points="337.456,-86.0333 335.097,-75.7045 330.5,-85.2501 337.456,-86.0333"/>
</g>
<!-- Node7&#45;&gt;Node6 -->
<g id="edge10" class="edge"><title>Node7&#45;&gt;Node6</title>
<path fill="none" stroke="midnightblue" d="M186.046,-168.408C170.339,-161.28 150.881,-149.458 141.5,-132 133.575,-117.253 139.123,-98.3529 145.422,-84.7388"/>
<polygon fill="midnightblue" stroke="midnightblue" points="148.705,-86.0073 150.174,-75.5147 142.483,-82.8013 148.705,-86.0073"/>
</g>
<!-- Node7&#45;&gt;Node8 -->
<g id="edge11" class="edge"><title>Node7&#45;&gt;Node8</title>
<path fill="none" stroke="midnightblue" d="M215.445,-168.083C220.477,-160.534 227.837,-149.495 234.013,-140.23"/>
<polygon fill="midnightblue" stroke="midnightblue" points="237.031,-142.013 239.666,-131.751 231.207,-138.13 237.031,-142.013"/>
</g>
<!-- Node7&#45;&gt;Node9 -->
<g id="edge21" class="edge"><title>Node7&#45;&gt;Node9</title>
<path fill="none" stroke="midnightblue" d="M234.175,-168.338C259.612,-159.373 300.398,-144.9 335.5,-132 384.588,-113.961 441.289,-92.3899 475.755,-79.1954"/>
<polygon fill="midnightblue" stroke="midnightblue" points="477.198,-82.3908 485.283,-75.5443 474.693,-75.8543 477.198,-82.3908"/>
</g>
<!-- Node8&#45;&gt;Node4 -->
<g id="edge12" class="edge"><title>Node8&#45;&gt;Node4</title>
<path fill="none" stroke="midnightblue" d="M250.208,-112.368C260.022,-94.376 282.836,-52.5503 295.885,-28.6267"/>
<polygon fill="midnightblue" stroke="midnightblue" points="299.098,-30.0464 300.814,-19.5914 292.953,-26.6944 299.098,-30.0464"/>
</g>
<!-- Node8&#45;&gt;Node5 -->
<g id="edge13" class="edge"><title>Node8&#45;&gt;Node5</title>
<path fill="none" stroke="midnightblue" d="M259.96,-112.324C274,-103.9 295.548,-90.9709 312.043,-81.0741"/>
<polygon fill="midnightblue" stroke="midnightblue" points="314.302,-83.8007 321.076,-75.6545 310.7,-77.7983 314.302,-83.8007"/>
</g>
<!-- Node8&#45;&gt;Node6 -->
<g id="edge14" class="edge"><title>Node8&#45;&gt;Node6</title>
<path fill="none" stroke="midnightblue" d="M231.04,-112.324C217,-103.9 195.452,-90.9709 178.957,-81.0741"/>
<polygon fill="midnightblue" stroke="midnightblue" points="180.3,-77.7983 169.924,-75.6545 176.698,-83.8007 180.3,-77.7983"/>
</g>
<!-- Node8&#45;&gt;Node9 -->
<g id="edge15" class="edge"><title>Node8&#45;&gt;Node9</title>
<path fill="none" stroke="midnightblue" d="M287.015,-112.444C336.722,-102.198 419.357,-85.1669 468.105,-75.1195"/>
<polygon fill="midnightblue" stroke="midnightblue" points="468.882,-78.5331 477.969,-73.0865 467.469,-71.6772 468.882,-78.5331"/>
</g>
<!-- Node9&#45;&gt;Node2 -->
<g id="edge20" class="edge"><title>Node9&#45;&gt;Node2</title>
<path fill="none" stroke="midnightblue" d="M537.001,-58.7528C579.773,-49.6952 659.596,-32.7915 711.884,-21.7186"/>
<polygon fill="midnightblue" stroke="midnightblue" points="712.898,-25.0817 721.956,-19.5858 711.448,-18.2335 712.898,-25.0817"/>
</g>
<!-- Node9&#45;&gt;Node4 -->
<g id="edge16" class="edge"><title>Node9&#45;&gt;Node4</title>
<path fill="none" stroke="midnightblue" d="M477.783,-57.4221C445.559,-49.1522 392.372,-35.3488 337.693,-20.2829"/>
<polygon fill="midnightblue" stroke="midnightblue" points="338.403,-16.848 327.832,-17.5564 336.538,-23.5948 338.403,-16.848"/>
</g>
<!-- Node10 -->
<g id="node11" class="node"><title>Node10</title>
<polygon fill="white" stroke="#bfbfbf" points="461.5,-0.5 461.5,-19.5 513.5,-19.5 513.5,-0.5 461.5,-0.5"/>
<text text-anchor="middle" x="487.5" y="-7.5" font-family="Helvetica,sans-Serif" font-size="10.00">memory</text>
</g>
<!-- Node9&#45;&gt;Node10 -->
<g id="edge17" class="edge"><title>Node9&#45;&gt;Node10</title>
<path fill="none" stroke="midnightblue" d="M504.197,-56.083C501.518,-48.8486 497.651,-38.4087 494.314,-29.3968"/>
<polygon fill="midnightblue" stroke="midnightblue" points="497.496,-27.9129 490.741,-19.7511 490.932,-30.3442 497.496,-27.9129"/>
</g>
<!-- Node11 -->
<g id="node12" class="node"><title>Node11</title>
<polygon fill="white" stroke="#bfbfbf" points="345.5,-0.5 345.5,-19.5 443.5,-19.5 443.5,-0.5 345.5,-0.5"/>
<text text-anchor="middle" x="394.5" y="-7.5" font-family="Helvetica,sans-Serif" font-size="10.00">SFML/System.hpp</text>
</g>
<!-- Node9&#45;&gt;Node11 -->
<g id="edge18" class="edge"><title>Node9&#45;&gt;Node11</title>
<path fill="none" stroke="midnightblue" d="M489.595,-56.4435C471.246,-47.6751 442.495,-33.9355 421.406,-23.8579"/>
<polygon fill="midnightblue" stroke="midnightblue" points="422.853,-20.6703 412.321,-19.5164 419.835,-26.9862 422.853,-20.6703"/>
</g>
<!-- Node12 -->
<g id="node13" class="node"><title>Node12</title>
<polygon fill="white" stroke="#bfbfbf" points="531.5,-0.5 531.5,-19.5 635.5,-19.5 635.5,-0.5 531.5,-0.5"/>
<text text-anchor="middle" x="583.5" y="-7.5" font-family="Helvetica,sans-Serif" font-size="10.00">SFML/Graphics.hpp</text>
</g>
<!-- Node9&#45;&gt;Node12 -->
<g id="edge19" class="edge"><title>Node9&#45;&gt;Node12</title>
<path fill="none" stroke="midnightblue" d="M519.711,-56.324C531.276,-48.1066 548.875,-35.6017 562.661,-25.8069"/>
<polygon fill="midnightblue" stroke="midnightblue" points="564.943,-28.4791 571.067,-19.8339 560.888,-22.7729 564.943,-28.4791"/>
</g>
<!-- Node13&#45;&gt;Node2 -->
<g id="edge28" class="edge"><title>Node13&#45;&gt;Node2</title>
<path fill="none" stroke="midnightblue" d="M691.996,-56.324C705.1,-47.9002 725.212,-34.9709 740.607,-25.0741"/>
<polygon fill="midnightblue" stroke="midnightblue" points="742.518,-28.0063 749.037,-19.6545 738.733,-22.118 742.518,-28.0063"/>
</g>
<!-- Node13&#45;&gt;Node12 -->
<g id="edge25" class="edge"><title>Node13&#45;&gt;Node12</title>
<path fill="none" stroke="midnightblue" d="M663.237,-56.324C648.279,-47.8215 625.245,-34.7288 607.773,-24.7975"/>
<polygon fill="midnightblue" stroke="midnightblue" points="609.149,-21.5534 598.726,-19.6545 605.69,-27.639 609.149,-21.5534"/>
</g>
<!-- Node14 -->
<g id="node15" class="node"><title>Node14</title>
<polygon fill="white" stroke="#bfbfbf" points="653.5,-0.5 653.5,-19.5 703.5,-19.5 703.5,-0.5 653.5,-0.5"/>
<text text-anchor="middle" x="678.5" y="-7.5" font-family="Helvetica,sans-Serif" font-size="10.00">optional</text>
</g>
<!-- Node13&#45;&gt;Node14 -->
<g id="edge26" class="edge"><title>Node13&#45;&gt;Node14</title>
<path fill="none" stroke="midnightblue" d="M678.5,-56.083C678.5,-49.0059 678.5,-38.8611 678.5,-29.9865"/>
<polygon fill="midnightblue" stroke="midnightblue" points="682,-29.751 678.5,-19.7511 675,-29.7511 682,-29.751"/>
</g>
<!-- Node15 -->
<g id="node16" class="node"><title>Node15</title>
<polygon fill="white" stroke="#bfbfbf" points="822,-0.5 822,-19.5 863,-19.5 863,-0.5 822,-0.5"/>
<text text-anchor="middle" x="842.5" y="-7.5" font-family="Helvetica,sans-Serif" font-size="10.00">bitset</text>
</g>
<!-- Node13&#45;&gt;Node15 -->
<g id="edge27" class="edge"><title>Node13&#45;&gt;Node15</title>
<path fill="none" stroke="midnightblue" d="M704.486,-56.4435C733.699,-46.8247 781.08,-31.2238 812.017,-21.0372"/>
<polygon fill="midnightblue" stroke="midnightblue" points="813.424,-24.2586 821.828,-17.8067 811.235,-17.6098 813.424,-24.2586"/>
</g>
<!-- Node16&#45;&gt;Node7 -->
<g id="edge30" class="edge"><title>Node16&#45;&gt;Node7</title>
<path fill="none" stroke="midnightblue" d="M209.5,-224.083C209.5,-217.006 209.5,-206.861 209.5,-197.986"/>
<polygon fill="midnightblue" stroke="midnightblue" points="213,-197.751 209.5,-187.751 206,-197.751 213,-197.751"/>
</g>
<!-- Node17 -->
<g id="node18" class="node"><title>Node17</title>
<g id="a_node18"><a xlink:href="_proj_missile_8h.html" target="_top" xlink:title="../Projectiles/ProjMissile.h">
<polygon fill="white" stroke="black" points="0,-168.5 0,-187.5 131,-187.5 131,-168.5 0,-168.5"/>
<text text-anchor="middle" x="65.5" y="-175.5" font-family="Helvetica,sans-Serif" font-size="10.00">../Projectiles/ProjMissile.h</text>
</a>
</g>
</g>
<!-- Node16&#45;&gt;Node17 -->
<g id="edge31" class="edge"><title>Node16&#45;&gt;Node17</title>
<path fill="none" stroke="midnightblue" d="M186.683,-224.444C162.668,-215.438 124.671,-201.189 97.6308,-191.049"/>
<polygon fill="midnightblue" stroke="midnightblue" points="98.8027,-187.751 88.2105,-187.516 96.3448,-194.305 98.8027,-187.751"/>
</g>
<!-- Node17&#45;&gt;Node8 -->
<g id="edge32" class="edge"><title>Node17&#45;&gt;Node8</title>
<path fill="none" stroke="midnightblue" d="M94.0215,-168.444C124.566,-159.28 173.208,-144.688 207.103,-134.519"/>
<polygon fill="midnightblue" stroke="midnightblue" points="208.539,-137.742 217.112,-131.516 206.528,-131.038 208.539,-137.742"/>
</g>
<!-- Node18&#45;&gt;Node4 -->
<g id="edge34" class="edge"><title>Node18&#45;&gt;Node4</title>
<path fill="none" stroke="midnightblue" d="M592.006,-224.276C562.538,-197.419 469.507,-114.281 384.5,-56 367.466,-44.3215 347.207,-32.8255 331.47,-24.3763"/>
<polygon fill="midnightblue" stroke="midnightblue" points="332.8,-21.1204 322.325,-19.5348 329.525,-27.3069 332.8,-21.1204"/>
</g>
<!-- Node18&#45;&gt;Node12 -->
<g id="edge35" class="edge"><title>Node18&#45;&gt;Node12</title>
<path fill="none" stroke="midnightblue" d="M600.794,-224.297C598.146,-191.633 588.759,-75.8661 585.037,-29.9573"/>
<polygon fill="midnightblue" stroke="midnightblue" points="588.517,-29.5681 584.22,-19.8837 581.54,-30.1339 588.517,-29.5681"/>
</g>
<!-- Node18&#45;&gt;Node19 -->
<g id="edge36" class="edge"><title>Node18&#45;&gt;Node19</title>
<path fill="none" stroke="midnightblue" d="M613.871,-224.324C625.658,-216.058 643.632,-203.453 657.636,-193.632"/>
<polygon fill="midnightblue" stroke="midnightblue" points="659.982,-196.262 666.159,-187.655 655.962,-190.531 659.982,-196.262"/>
</g>
</g>
</svg>
