<?xml version="1.0" encoding="UTF-8" standalone="no"?>
<!DOCTYPE svg PUBLIC "-//W3C//DTD SVG 1.1//EN"
 "http://www.w3.org/Graphics/SVG/1.1/DTD/svg11.dtd">
<!-- Generated by graphviz version 2.38.0 (20140413.2041)
 -->
<!-- Title: src/Vaisseau/Vaisseau.h Pages: 1 -->
<svg width="891pt" height="196pt"
 viewBox="0.00 0.00 891.00 196.00" xmlns="http://www.w3.org/2000/svg" xmlns:xlink="http://www.w3.org/1999/xlink">
<g id="graph0" class="graph" transform="scale(1 1) rotate(0) translate(4 192)">
<title>src/Vaisseau/Vaisseau.h</title>
<polygon fill="white" stroke="none" points="-4,4 -4,-192 887,-192 887,4 -4,4"/>
<!-- Node11 -->
<g id="node1" class="node"><title>Node11</title>
<polygon fill="#bfbfbf" stroke="black" points="347.5,-168.5 347.5,-187.5 472.5,-187.5 472.5,-168.5 347.5,-168.5"/>
<text text-anchor="middle" x="410" y="-175.5" font-family="Helvetica,sans-Serif" font-size="10.00">src/Vaisseau/Vaisseau.h</text>
</g>
<!-- Node12 -->
<g id="node2" class="node"><title>Node12</title>
<g id="a_node2"><a xlink:href="_capacite_8cpp.html" target="_top" xlink:title="src/Capacites/Capacite.cpp">
<polygon fill="white" stroke="black" points="0,-112.5 0,-131.5 138,-131.5 138,-112.5 0,-112.5"/>
<text text-anchor="middle" x="69" y="-119.5" font-family="Helvetica,sans-Serif" font-size="10.00">src/Capacites/Capacite.cpp</text>
</a>
</g>
</g>
<!-- Node11&#45;&gt;Node12 -->
<g id="edge1" class="edge"><title>Node11&#45;&gt;Node12</title>
<path fill="none" stroke="midnightblue" d="M345.928,-166.854C281.499,-156.651 183.284,-141.098 122.78,-131.516"/>
<polygon fill="midnightblue" stroke="midnightblue" points="345.543,-170.336 355.968,-168.444 346.638,-163.422 345.543,-170.336"/>
</g>
<!-- Node13 -->
<g id="node3" class="node"><title>Node13</title>
<g id="a_node3"><a xlink:href="_partie_8h.html" target="_top" xlink:title="src/Partie.h">
<polygon fill="white" stroke="black" points="156.5,-112.5 156.5,-131.5 223.5,-131.5 223.5,-112.5 156.5,-112.5"/>
<text text-anchor="middle" x="190" y="-119.5" font-family="Helvetica,sans-Serif" font-size="10.00">src/Partie.h</text>
</a>
</g>
</g>
<!-- Node11&#45;&gt;Node13 -->
<g id="edge2" class="edge"><title>Node11&#45;&gt;Node13</title>
<path fill="none" stroke="midnightblue" d="M365.191,-166.001C323.238,-155.704 261.492,-140.548 223.614,-131.251"/>
<polygon fill="midnightblue" stroke="midnightblue" points="364.594,-169.459 375.14,-168.444 366.263,-162.661 364.594,-169.459"/>
</g>
<!-- Node16 -->
<g id="node6" class="node"><title>Node16</title>
<g id="a_node6"><a xlink:href="_vaisseau_eclaireur_8h.html" target="_top" xlink:title="src/Vaisseau/VaisseauEclaireur.h">
<polygon fill="white" stroke="black" points="242,-112.5 242,-131.5 406,-131.5 406,-112.5 242,-112.5"/>
<text text-anchor="middle" x="324" y="-119.5" font-family="Helvetica,sans-Serif" font-size="10.00">src/Vaisseau/VaisseauEclaireur.h</text>
</a>
</g>
</g>
<!-- Node11&#45;&gt;Node16 -->
<g id="edge5" class="edge"><title>Node11&#45;&gt;Node16</title>
<path fill="none" stroke="midnightblue" d="M387.545,-162.901C371.776,-152.999 351.186,-140.071 337.783,-131.655"/>
<polygon fill="midnightblue" stroke="midnightblue" points="385.852,-165.97 396.183,-168.324 389.575,-160.042 385.852,-165.97"/>
</g>
<!-- Node19 -->
<g id="node9" class="node"><title>Node19</title>
<g id="a_node9"><a xlink:href="_vaisseau_test_8h.html" target="_top" xlink:title="src/Vaisseau/VaisseauTest.h">
<polygon fill="white" stroke="black" points="424.5,-112.5 424.5,-131.5 569.5,-131.5 569.5,-112.5 424.5,-112.5"/>
<text text-anchor="middle" x="497" y="-119.5" font-family="Helvetica,sans-Serif" font-size="10.00">src/Vaisseau/VaisseauTest.h</text>
</a>
</g>
</g>
<!-- Node11&#45;&gt;Node19 -->
<g id="edge9" class="edge"><title>Node11&#45;&gt;Node19</title>
<path fill="none" stroke="midnightblue" d="M432.716,-162.901C448.669,-152.999 469.497,-140.071 483.057,-131.655"/>
<polygon fill="midnightblue" stroke="midnightblue" points="430.629,-160.077 423.978,-168.324 434.32,-166.024 430.629,-160.077"/>
</g>
<!-- Node21 -->
<g id="node11" class="node"><title>Node21</title>
<g id="a_node11"><a xlink:href="_projectile_8cpp.html" target="_top" xlink:title="src/Projectiles/Projectile.cpp">
<polygon fill="white" stroke="black" points="587.5,-112.5 587.5,-131.5 728.5,-131.5 728.5,-112.5 587.5,-112.5"/>
<text text-anchor="middle" x="658" y="-119.5" font-family="Helvetica,sans-Serif" font-size="10.00">src/Projectiles/Projectile.cpp</text>
</a>
</g>
</g>
<!-- Node11&#45;&gt;Node21 -->
<g id="edge12" class="edge"><title>Node11&#45;&gt;Node21</title>
<path fill="none" stroke="midnightblue" d="M459.226,-166.281C506.091,-156.077 575.699,-140.92 618.888,-131.516"/>
<polygon fill="midnightblue" stroke="midnightblue" points="458.323,-162.896 449.296,-168.444 459.812,-169.736 458.323,-162.896"/>
</g>
<!-- Node22 -->
<g id="node12" class="node"><title>Node22</title>
<g id="a_node12"><a xlink:href="_vaisseau_8cpp.html" target="_top" xlink:title="src/Vaisseau/Vaisseau.cpp">
<polygon fill="white" stroke="black" points="747,-112.5 747,-131.5 883,-131.5 883,-112.5 747,-112.5"/>
<text text-anchor="middle" x="815" y="-119.5" font-family="Helvetica,sans-Serif" font-size="10.00">src/Vaisseau/Vaisseau.cpp</text>
</a>
</g>
</g>
<!-- Node11&#45;&gt;Node22 -->
<g id="edge13" class="edge"><title>Node11&#45;&gt;Node22</title>
<path fill="none" stroke="midnightblue" d="M482.862,-167.285C559.256,-157.099 678.122,-141.25 751.012,-131.532"/>
<polygon fill="midnightblue" stroke="midnightblue" points="482.287,-163.831 472.837,-168.622 483.212,-170.769 482.287,-163.831"/>
</g>
<!-- Node14 -->
<g id="node4" class="node"><title>Node14</title>
<g id="a_node4"><a xlink:href="main_8cpp.html" target="_top" xlink:title="src/main.cpp">
<polygon fill="white" stroke="black" points="97.5,-56.5 97.5,-75.5 170.5,-75.5 170.5,-56.5 97.5,-56.5"/>
<text text-anchor="middle" x="134" y="-63.5" font-family="Helvetica,sans-Serif" font-size="10.00">src/main.cpp</text>
</a>
</g>
</g>
<!-- Node13&#45;&gt;Node14 -->
<g id="edge3" class="edge"><title>Node13&#45;&gt;Node14</title>
<path fill="none" stroke="midnightblue" d="M173.67,-105.253C163.735,-95.6731 151.412,-83.7906 143.161,-75.8339"/>
<polygon fill="midnightblue" stroke="midnightblue" points="171.375,-107.902 181.003,-112.324 176.234,-102.863 171.375,-107.902"/>
</g>
<!-- Node15 -->
<g id="node5" class="node"><title>Node15</title>
<g id="a_node5"><a xlink:href="_partie_8cpp.html" target="_top" xlink:title="src/Partie.cpp">
<polygon fill="white" stroke="black" points="303.5,-0.5 303.5,-19.5 380.5,-19.5 380.5,-0.5 303.5,-0.5"/>
<text text-anchor="middle" x="342" y="-7.5" font-family="Helvetica,sans-Serif" font-size="10.00">src/Partie.cpp</text>
</a>
</g>
</g>
<!-- Node13&#45;&gt;Node15 -->
<g id="edge4" class="edge"><title>Node13&#45;&gt;Node15</title>
<path fill="none" stroke="midnightblue" d="M193.788,-102.312C197.615,-87.885 204.893,-68.3605 218,-56 241.409,-33.9243 276.474,-22.5255 303.349,-16.7336"/>
<polygon fill="midnightblue" stroke="midnightblue" points="190.357,-101.615 191.495,-112.148 197.174,-103.204 190.357,-101.615"/>
</g>
<!-- Node17 -->
<g id="node7" class="node"><title>Node17</title>
<g id="a_node7"><a xlink:href="__vaisseaux_8h.html" target="_top" xlink:title="src/Vaisseau/_vaisseaux.h">
<polygon fill="white" stroke="black" points="419,-56.5 419,-75.5 553,-75.5 553,-56.5 419,-56.5"/>
<text text-anchor="middle" x="486" y="-63.5" font-family="Helvetica,sans-Serif" font-size="10.00">src/Vaisseau/_vaisseaux.h</text>
</a>
</g>
</g>
<!-- Node16&#45;&gt;Node17 -->
<g id="edge6" class="edge"><title>Node16&#45;&gt;Node17</title>
<path fill="none" stroke="midnightblue" d="M359.484,-109.172C389.988,-99.0039 433.245,-84.5852 460.451,-75.5164"/>
<polygon fill="midnightblue" stroke="midnightblue" points="358.049,-105.961 349.669,-112.444 360.263,-112.602 358.049,-105.961"/>
</g>
<!-- Node18 -->
<g id="node8" class="node"><title>Node18</title>
<g id="a_node8"><a xlink:href="_vaisseau_eclaireur_8cpp.html" target="_top" xlink:title="src/Vaisseau/VaisseauEclaireur.cpp">
<polygon fill="white" stroke="black" points="227,-56.5 227,-75.5 401,-75.5 401,-56.5 227,-56.5"/>
<text text-anchor="middle" x="314" y="-63.5" font-family="Helvetica,sans-Serif" font-size="10.00">src/Vaisseau/VaisseauEclaireur.cpp</text>
</a>
</g>
</g>
<!-- Node16&#45;&gt;Node18 -->
<g id="edge8" class="edge"><title>Node16&#45;&gt;Node18</title>
<path fill="none" stroke="midnightblue" d="M320.5,-102.101C318.84,-93.1357 316.937,-82.8579 315.621,-75.7511"/>
<polygon fill="midnightblue" stroke="midnightblue" points="317.086,-102.888 322.349,-112.083 323.969,-101.613 317.086,-102.888"/>
</g>
<!-- Node17&#45;&gt;Node15 -->
<g id="edge7" class="edge"><title>Node17&#45;&gt;Node15</title>
<path fill="none" stroke="midnightblue" d="M453.749,-52.9058C426.676,-42.7536 388.683,-28.5063 364.71,-19.5164"/>
<polygon fill="midnightblue" stroke="midnightblue" points="452.591,-56.2094 463.183,-56.4435 455.048,-49.6551 452.591,-56.2094"/>
</g>
<!-- Node19&#45;&gt;Node17 -->
<g id="edge10" class="edge"><title>Node19&#45;&gt;Node17</title>
<path fill="none" stroke="midnightblue" d="M493.15,-102.101C491.324,-93.1357 489.23,-82.8579 487.783,-75.7511"/>
<polygon fill="midnightblue" stroke="midnightblue" points="489.758,-102.983 495.184,-112.083 496.617,-101.586 489.758,-102.983"/>
</g>
<!-- Node20 -->
<g id="node10" class="node"><title>Node20</title>
<g id="a_node10"><a xlink:href="_vaisseau_test_8cpp.html" target="_top" xlink:title="src/Vaisseau/VaisseauTest.cpp">
<polygon fill="white" stroke="black" points="571.5,-56.5 571.5,-75.5 726.5,-75.5 726.5,-56.5 571.5,-56.5"/>
<text text-anchor="middle" x="649" y="-63.5" font-family="Helvetica,sans-Serif" font-size="10.00">src/Vaisseau/VaisseauTest.cpp</text>
</a>
</g>
</g>
<!-- Node19&#45;&gt;Node20 -->
<g id="edge11" class="edge"><title>Node19&#45;&gt;Node20</title>
<path fill="none" stroke="midnightblue" d="M530.668,-109.039C559.268,-98.8786 599.612,-84.5457 625.028,-75.5164"/>
<polygon fill="midnightblue" stroke="midnightblue" points="529.336,-105.798 521.085,-112.444 531.68,-112.394 529.336,-105.798"/>
</g>
</g>
</svg>
