<?xml version="1.0" encoding="UTF-8" standalone="no"?>
<!DOCTYPE svg PUBLIC "-//W3C//DTD SVG 1.1//EN"
 "http://www.w3.org/Graphics/SVG/1.1/DTD/svg11.dtd">
<!-- Generated by graphviz version 2.38.0 (20140413.2041)
 -->
<!-- Title: src/Vaisseau/Vaisseau.h Pages: 1 -->
<svg width="426pt" height="252pt"
 viewBox="0.00 0.00 426.41 252.00" xmlns="http://www.w3.org/2000/svg" xmlns:xlink="http://www.w3.org/1999/xlink">
<g id="graph0" class="graph" transform="scale(1 1) rotate(0) translate(4 248)">
<title>src/Vaisseau/Vaisseau.h</title>
<polygon fill="white" stroke="none" points="-4,4 -4,-248 422.407,-248 422.407,4 -4,4"/>
<!-- Node0 -->
<g id="node1" class="node"><title>Node0</title>
<polygon fill="#bfbfbf" stroke="black" points="71.9065,-224.5 71.9065,-243.5 196.907,-243.5 196.907,-224.5 71.9065,-224.5"/>
<text text-anchor="middle" x="134.407" y="-231.5" font-family="Helvetica,sans-Serif" font-size="10.00">src/Vaisseau/Vaisseau.h</text>
</g>
<!-- Node1 -->
<g id="node2" class="node"><title>Node1</title>
<polygon fill="white" stroke="#bfbfbf" points="77.4065,-0.5 77.4065,-19.5 121.407,-19.5 121.407,-0.5 77.4065,-0.5"/>
<text text-anchor="middle" x="99.4065" y="-7.5" font-family="Helvetica,sans-Serif" font-size="10.00">vector</text>
</g>
<!-- Node0&#45;&gt;Node1 -->
<g id="edge1" class="edge"><title>Node0&#45;&gt;Node1</title>
<path fill="none" stroke="midnightblue" d="M71.7513,-225.192C48.8978,-218.97 25.28,-207.848 11.4065,-188 -27.18,-132.795 45.1231,-58.2017 80.966,-26.3966"/>
<polygon fill="midnightblue" stroke="midnightblue" points="83.5404,-28.7971 88.8075,-19.6043 78.9573,-23.506 83.5404,-28.7971"/>
</g>
<!-- Node2 -->
<g id="node3" class="node"><title>Node2</title>
<polygon fill="white" stroke="#bfbfbf" points="68.9065,-56.5 68.9065,-75.5 109.907,-75.5 109.907,-56.5 68.9065,-56.5"/>
<text text-anchor="middle" x="89.4065" y="-63.5" font-family="Helvetica,sans-Serif" font-size="10.00">string</text>
</g>
<!-- Node0&#45;&gt;Node2 -->
<g id="edge2" class="edge"><title>Node0&#45;&gt;Node2</title>
<path fill="none" stroke="midnightblue" d="M78.493,-224.458C56.9341,-218.136 34.3843,-207.137 21.4065,-188 -3.35206,-151.491 42.0703,-105.323 69.9629,-81.9787"/>
<polygon fill="midnightblue" stroke="midnightblue" points="72.3909,-84.5162 77.9593,-75.5027 67.9854,-79.0764 72.3909,-84.5162"/>
</g>
<!-- Node3 -->
<g id="node4" class="node"><title>Node3</title>
<polygon fill="white" stroke="#bfbfbf" points="128.407,-56.5 128.407,-75.5 184.407,-75.5 184.407,-56.5 128.407,-56.5"/>
<text text-anchor="middle" x="156.407" y="-63.5" font-family="Helvetica,sans-Serif" font-size="10.00">algorithm</text>
</g>
<!-- Node0&#45;&gt;Node3 -->
<g id="edge3" class="edge"><title>Node0&#45;&gt;Node3</title>
<path fill="none" stroke="midnightblue" d="M141.035,-224.275C147.172,-215.607 155.864,-201.669 159.407,-188 168.553,-152.703 163.922,-109.665 159.988,-85.5958"/>
<polygon fill="midnightblue" stroke="midnightblue" points="163.425,-84.9275 158.23,-75.6937 156.532,-86.1518 163.425,-84.9275"/>
</g>
<!-- Node4 -->
<g id="node5" class="node"><title>Node4</title>
<g id="a_node5"><a xlink:href="_capacite_8h.html" target="_top" xlink:title="../Capacites/Capacite.h">
<polygon fill="white" stroke="black" points="30.4065,-168.5 30.4065,-187.5 150.407,-187.5 150.407,-168.5 30.4065,-168.5"/>
<text text-anchor="middle" x="90.4065" y="-175.5" font-family="Helvetica,sans-Serif" font-size="10.00">../Capacites/Capacite.h</text>
</a>
</g>
</g>
<!-- Node0&#45;&gt;Node4 -->
<g id="edge4" class="edge"><title>Node0&#45;&gt;Node4</title>
<path fill="none" stroke="midnightblue" d="M127.141,-224.083C120.862,-216.377 111.619,-205.033 103.976,-195.653"/>
<polygon fill="midnightblue" stroke="midnightblue" points="106.567,-193.293 97.5371,-187.751 101.14,-197.714 106.567,-193.293"/>
</g>
<!-- Node5 -->
<g id="node6" class="node"><title>Node5</title>
<g id="a_node6"><a xlink:href="_projectile_8h.html" target="_top" xlink:title="../Projectiles/Projectile.h">
<polygon fill="white" stroke="black" points="182.907,-112.5 182.907,-131.5 305.907,-131.5 305.907,-112.5 182.907,-112.5"/>
<text text-anchor="middle" x="244.407" y="-119.5" font-family="Helvetica,sans-Serif" font-size="10.00">../Projectiles/Projectile.h</text>
</a>
</g>
</g>
<!-- Node0&#45;&gt;Node5 -->
<g id="edge18" class="edge"><title>Node0&#45;&gt;Node5</title>
<path fill="none" stroke="midnightblue" d="M147.092,-224.478C159.331,-215.962 178.062,-202.132 192.407,-188 207.63,-173.002 222.616,-153.643 232.561,-139.965"/>
<polygon fill="midnightblue" stroke="midnightblue" points="235.622,-141.7 238.58,-131.527 229.923,-137.635 235.622,-141.7"/>
</g>
<!-- Node6 -->
<g id="node7" class="node"><title>Node6</title>
<g id="a_node7"><a xlink:href="_entite_8h.html" target="_top" xlink:title="../Entite.h">
<polygon fill="white" stroke="black" points="280.907,-56.5 280.907,-75.5 339.907,-75.5 339.907,-56.5 280.907,-56.5"/>
<text text-anchor="middle" x="310.407" y="-63.5" font-family="Helvetica,sans-Serif" font-size="10.00">../Entite.h</text>
</a>
</g>
</g>
<!-- Node0&#45;&gt;Node6 -->
<g id="edge17" class="edge"><title>Node0&#45;&gt;Node6</title>
<path fill="none" stroke="midnightblue" d="M178.639,-224.476C226.07,-212.718 299.05,-186.461 332.407,-132 341.608,-116.977 332.839,-97.6213 323.79,-83.9512"/>
<polygon fill="midnightblue" stroke="midnightblue" points="326.391,-81.575 317.697,-75.5188 320.717,-85.6743 326.391,-81.575"/>
</g>
<!-- Node4&#45;&gt;Node1 -->
<g id="edge5" class="edge"><title>Node4&#45;&gt;Node1</title>
<path fill="none" stroke="midnightblue" d="M84.5837,-168.286C71.8612,-148.099 43.9163,-96.7423 59.4065,-56 63.7417,-44.5976 72.4371,-34.2394 80.6163,-26.343"/>
<polygon fill="midnightblue" stroke="midnightblue" points="83.048,-28.8633 88.141,-19.5728 78.366,-23.6595 83.048,-28.8633"/>
</g>
<!-- Node4&#45;&gt;Node2 -->
<g id="edge6" class="edge"><title>Node4&#45;&gt;Node2</title>
<path fill="none" stroke="midnightblue" d="M90.3281,-168.368C90.1667,-150.617 89.7944,-109.666 89.5756,-85.5974"/>
<polygon fill="midnightblue" stroke="midnightblue" points="93.0755,-85.5592 89.4846,-75.5914 86.0758,-85.6229 93.0755,-85.5592"/>
</g>
<!-- Node4&#45;&gt;Node3 -->
<g id="edge7" class="edge"><title>Node4&#45;&gt;Node3</title>
<path fill="none" stroke="midnightblue" d="M95.5855,-168.368C106.429,-150.296 131.701,-108.176 146.022,-84.3074"/>
<polygon fill="midnightblue" stroke="midnightblue" points="149.108,-85.9671 151.252,-75.5914 143.105,-82.3656 149.108,-85.9671"/>
</g>
<!-- Node4&#45;&gt;Node5 -->
<g id="edge8" class="edge"><title>Node4&#45;&gt;Node5</title>
<path fill="none" stroke="midnightblue" d="M114.808,-168.444C140.603,-159.399 181.483,-145.064 210.424,-134.916"/>
<polygon fill="midnightblue" stroke="midnightblue" points="211.84,-138.128 220.119,-131.516 209.524,-131.523 211.84,-138.128"/>
</g>
<!-- Node4&#45;&gt;Node6 -->
<g id="edge16" class="edge"><title>Node4&#45;&gt;Node6</title>
<path fill="none" stroke="midnightblue" d="M150.587,-173.37C210.02,-168.381 294.918,-156.992 315.407,-132 325.928,-119.166 322.757,-99.7107 318.126,-85.4286"/>
<polygon fill="midnightblue" stroke="midnightblue" points="321.276,-83.8584 314.504,-75.7109 314.717,-86.3035 321.276,-83.8584"/>
</g>
<!-- Node5&#45;&gt;Node1 -->
<g id="edge9" class="edge"><title>Node5&#45;&gt;Node1</title>
<path fill="none" stroke="midnightblue" d="M239.459,-112.386C231.334,-98.8677 213.995,-72.513 193.407,-56 174.777,-41.058 150.369,-29.5613 131.094,-21.9294"/>
<polygon fill="midnightblue" stroke="midnightblue" points="132.131,-18.5792 121.54,-18.2928 129.641,-25.1213 132.131,-18.5792"/>
</g>
<!-- Node5&#45;&gt;Node2 -->
<g id="edge10" class="edge"><title>Node5&#45;&gt;Node2</title>
<path fill="none" stroke="midnightblue" d="M219.846,-112.444C192.815,-103.026 149.324,-87.8746 120.074,-77.6842"/>
<polygon fill="midnightblue" stroke="midnightblue" points="120.967,-74.289 110.372,-74.3042 118.664,-80.8993 120.967,-74.289"/>
</g>
<!-- Node5&#45;&gt;Node3 -->
<g id="edge11" class="edge"><title>Node5&#45;&gt;Node3</title>
<path fill="none" stroke="midnightblue" d="M230.268,-112.324C216.54,-103.9 195.47,-90.9709 179.342,-81.0741"/>
<polygon fill="midnightblue" stroke="midnightblue" points="180.864,-77.9016 170.51,-75.6545 177.203,-83.8678 180.864,-77.9016"/>
</g>
<!-- Node5&#45;&gt;Node6 -->
<g id="edge12" class="edge"><title>Node5&#45;&gt;Node6</title>
<path fill="none" stroke="midnightblue" d="M255.011,-112.324C264.863,-104.263 279.757,-92.0765 291.622,-82.3695"/>
<polygon fill="midnightblue" stroke="midnightblue" points="294.086,-84.8752 299.61,-75.8339 289.654,-79.4575 294.086,-84.8752"/>
</g>
<!-- Node6&#45;&gt;Node1 -->
<g id="edge13" class="edge"><title>Node6&#45;&gt;Node1</title>
<path fill="none" stroke="midnightblue" d="M280.623,-57.3776C241.226,-47.295 172.055,-29.5925 131.522,-19.2191"/>
<polygon fill="midnightblue" stroke="midnightblue" points="132.182,-15.7753 121.626,-16.6866 130.446,-22.5567 132.182,-15.7753"/>
</g>
<!-- Node7 -->
<g id="node8" class="node"><title>Node7</title>
<polygon fill="white" stroke="#bfbfbf" points="320.407,-0.5 320.407,-19.5 418.407,-19.5 418.407,-0.5 320.407,-0.5"/>
<text text-anchor="middle" x="369.407" y="-7.5" font-family="Helvetica,sans-Serif" font-size="10.00">SFML/System.hpp</text>
</g>
<!-- Node6&#45;&gt;Node7 -->
<g id="edge14" class="edge"><title>Node6&#45;&gt;Node7</title>
<path fill="none" stroke="midnightblue" d="M319.886,-56.324C328.608,-48.3414 341.75,-36.3128 352.304,-26.6529"/>
<polygon fill="midnightblue" stroke="midnightblue" points="354.741,-29.1674 359.755,-19.8339 350.015,-24.0036 354.741,-29.1674"/>
</g>
<!-- Node8 -->
<g id="node9" class="node"><title>Node8</title>
<polygon fill="white" stroke="#bfbfbf" points="198.407,-0.5 198.407,-19.5 302.407,-19.5 302.407,-0.5 198.407,-0.5"/>
<text text-anchor="middle" x="250.407" y="-7.5" font-family="Helvetica,sans-Serif" font-size="10.00">SFML/Graphics.hpp</text>
</g>
<!-- Node6&#45;&gt;Node8 -->
<g id="edge15" class="edge"><title>Node6&#45;&gt;Node8</title>
<path fill="none" stroke="midnightblue" d="M300.767,-56.324C291.897,-48.3414 278.532,-36.3128 267.799,-26.6529"/>
<polygon fill="midnightblue" stroke="midnightblue" points="269.996,-23.922 260.222,-19.8339 265.314,-29.1251 269.996,-23.922"/>
</g>
</g>
</svg>
