<?xml version="1.0" encoding="UTF-8" standalone="no"?>
<!DOCTYPE svg PUBLIC "-//W3C//DTD SVG 1.1//EN"
 "http://www.w3.org/Graphics/SVG/1.1/DTD/svg11.dtd">
<!-- Generated by graphviz version 2.38.0 (20140413.2041)
 -->
<!-- Title: src/Vaisseau/VaisseauEclaireur.cpp Pages: 1 -->
<!--zoomable 364 -->
<svg id="main" version="1.1" xmlns="http://www.w3.org/2000/svg" xmlns:xlink="http://www.w3.org/1999/xlink" xml:space="preserve" onload="init(evt)">
<style type="text/css"><![CDATA[
.edge:hover path { stroke: red; }
.edge:hover polygon { stroke: red; fill: red; }
]]></style>
<script type="text/javascript"><![CDATA[
var edges = document.getElementsByTagName('g');
if (edges && edges.length) {
  for (var i=0;i<edges.length;i++) {
    if (edges[i].id.substr(0,4)=='edge') {
      edges[i].setAttribute('class','edge');
    }
  }
}
]]></script>
        <defs>
                <circle id="rim" cx="0" cy="0" r="7"/>
                <circle id="rim2" cx="0" cy="0" r="3.5"/>
                <g id="zoomPlus">
                        <use xlink:href="#rim" fill="#404040">
                                <set attributeName="fill" to="#808080" begin="zoomplus.mouseover" end="zoomplus.mouseout"/>
                        </use>
                        <path d="M-4,0h8M0,-4v8" fill="none" stroke="white" stroke-width="1.5" pointer-events="none"/>
                </g>
                <g id="zoomMin">
                        <use xlink:href="#rim" fill="#404040">
                                <set attributeName="fill" to="#808080" begin="zoomminus.mouseover" end="zoomminus.mouseout"/>
                        </use>
                        <path d="M-4,0h8" fill="none" stroke="white" stroke-width="1.5" pointer-events="none"/>
                </g>
                <g id="dirArrow">
                        <path fill="none" stroke="white" stroke-width="1.5" d="M0,-3.0v7 M-2.5,-0.5L0,-3.0L2.5,-0.5"/>
                </g>
               <g id="resetDef">
                       <use xlink:href="#rim2" fill="#404040">
                               <set attributeName="fill" to="#808080" begin="reset.mouseover" end="reset.mouseout"/>
                       </use>
               </g>
        </defs>

<script type="text/javascript">
var viewWidth = 564;
var viewHeight = 364;
var sectionId = 'dynsection-0';
</script>
<script xlink:href="svgpan.js"/>
<svg id="graph" class="graph">
<g id="viewport">
<title>src/Vaisseau/VaisseauEclaireur.cpp</title>
<polygon fill="white" stroke="none" points="-4,4 -4,-360 559.925,-360 559.925,4 -4,4"/>
<!-- Node0 -->
<g id="node1" class="node"><title>Node0</title>
<polygon fill="#bfbfbf" stroke="black" points="199,-336.5 199,-355.5 373,-355.5 373,-336.5 199,-336.5"/>
<text text-anchor="middle" x="286" y="-343.5" font-family="Helvetica,sans-Serif" font-size="10.00">src/Vaisseau/VaisseauEclaireur.cpp</text>
</g>
<!-- Node1 -->
<g id="node2" class="node"><title>Node1</title>
<g id="a_node2"><a xlink:href="_vaisseau_eclaireur_8h.html" target="_top" xlink:title="VaisseauEclaireur.h">
<polygon fill="white" stroke="black" points="188,-280.5 188,-299.5 292,-299.5 292,-280.5 188,-280.5"/>
<text text-anchor="middle" x="240" y="-287.5" font-family="Helvetica,sans-Serif" font-size="10.00">VaisseauEclaireur.h</text>
</a>
</g>
</g>
<!-- Node0&#45;&gt;Node1 -->
<g id="edge1" class="edge"><title>Node0&#45;&gt;Node1</title>
<path fill="none" stroke="midnightblue" d="M278.404,-336.083C271.773,-328.298 261.979,-316.801 253.942,-307.367"/>
<polygon fill="midnightblue" stroke="midnightblue" points="256.604,-305.094 247.455,-299.751 251.275,-309.633 256.604,-305.094"/>
</g>
<!-- Node13 -->
<g id="node14" class="node"><title>Node13</title>
<polygon fill="white" stroke="#bfbfbf" points="310,-280.5 310,-299.5 354,-299.5 354,-280.5 310,-280.5"/>
<text text-anchor="middle" x="332" y="-287.5" font-family="Helvetica,sans-Serif" font-size="10.00">cmath</text>
</g>
<!-- Node0&#45;&gt;Node13 -->
<g id="edge24" class="edge"><title>Node0&#45;&gt;Node13</title>
<path fill="none" stroke="midnightblue" d="M293.596,-336.083C300.227,-328.298 310.021,-316.801 318.058,-307.367"/>
<polygon fill="midnightblue" stroke="midnightblue" points="320.725,-309.633 324.545,-299.751 315.396,-305.094 320.725,-309.633"/>
</g>
<!-- Node2 -->
<g id="node3" class="node"><title>Node2</title>
<g id="a_node3"><a xlink:href="constantes_8h.html" target="_top" xlink:title="../constantes.h">
<polygon fill="white" stroke="black" points="0,-0.5 0,-19.5 82,-19.5 82,-0.5 0,-0.5"/>
<text text-anchor="middle" x="41" y="-7.5" font-family="Helvetica,sans-Serif" font-size="10.00">../constantes.h</text>
</a>
</g>
</g>
<!-- Node1&#45;&gt;Node2 -->
<g id="edge2" class="edge"><title>Node1&#45;&gt;Node2</title>
<path fill="none" stroke="midnightblue" d="M207.376,-280.389C164.069,-266.755 93,-235.738 93,-179 93,-179 93,-179 93,-121 93,-85.1188 70.106,-48.4243 54.6996,-27.7932"/>
<polygon fill="midnightblue" stroke="midnightblue" points="57.3475,-25.4965 48.4503,-19.7441 51.8183,-29.7894 57.3475,-25.4965"/>
</g>
<!-- Node3 -->
<g id="node4" class="node"><title>Node3</title>
<g id="a_node4"><a xlink:href="_vaisseau_8h.html" target="_top" xlink:title="Vaisseau.h">
<polygon fill="white" stroke="black" points="303.5,-224.5 303.5,-243.5 368.5,-243.5 368.5,-224.5 303.5,-224.5"/>
<text text-anchor="middle" x="336" y="-231.5" font-family="Helvetica,sans-Serif" font-size="10.00">Vaisseau.h</text>
</a>
</g>
</g>
<!-- Node1&#45;&gt;Node3 -->
<g id="edge3" class="edge"><title>Node1&#45;&gt;Node3</title>
<path fill="none" stroke="midnightblue" d="M255.424,-280.324C270.54,-271.822 293.815,-258.729 311.471,-248.797"/>
<polygon fill="midnightblue" stroke="midnightblue" points="313.614,-251.608 320.614,-243.655 310.183,-245.507 313.614,-251.608"/>
</g>
<!-- Node4 -->
<g id="node5" class="node"><title>Node4</title>
<polygon fill="white" stroke="#bfbfbf" points="408,-0.5 408,-19.5 452,-19.5 452,-0.5 408,-0.5"/>
<text text-anchor="middle" x="430" y="-7.5" font-family="Helvetica,sans-Serif" font-size="10.00">vector</text>
</g>
<!-- Node3&#45;&gt;Node4 -->
<g id="edge4" class="edge"><title>Node3&#45;&gt;Node4</title>
<path fill="none" stroke="midnightblue" d="M368.666,-229.11C401.199,-223.976 451.432,-212.53 488,-188 535.796,-155.939 543.177,-132.709 553,-76 554.517,-67.2415 558.092,-63.2856 553,-56 532.697,-26.9524 491.523,-16.5946 462.418,-12.9359"/>
<polygon fill="midnightblue" stroke="midnightblue" points="462.615,-9.43726 452.303,-11.8689 461.88,-16.3986 462.615,-9.43726"/>
</g>
<!-- Node5 -->
<g id="node6" class="node"><title>Node5</title>
<polygon fill="white" stroke="#bfbfbf" points="266.5,-56.5 266.5,-75.5 307.5,-75.5 307.5,-56.5 266.5,-56.5"/>
<text text-anchor="middle" x="287" y="-63.5" font-family="Helvetica,sans-Serif" font-size="10.00">string</text>
</g>
<!-- Node3&#45;&gt;Node5 -->
<g id="edge5" class="edge"><title>Node3&#45;&gt;Node5</title>
<path fill="none" stroke="midnightblue" d="M312.212,-224.499C296.279,-217.413 276.537,-205.605 267,-188 248.986,-154.746 265.599,-109.386 277.459,-84.7287"/>
<polygon fill="midnightblue" stroke="midnightblue" points="280.726,-86.0251 282.136,-75.5245 274.485,-82.8539 280.726,-86.0251"/>
</g>
<!-- Node6 -->
<g id="node7" class="node"><title>Node6</title>
<polygon fill="white" stroke="#bfbfbf" points="488,-56.5 488,-75.5 544,-75.5 544,-56.5 488,-56.5"/>
<text text-anchor="middle" x="516" y="-63.5" font-family="Helvetica,sans-Serif" font-size="10.00">algorithm</text>
</g>
<!-- Node3&#45;&gt;Node6 -->
<g id="edge6" class="edge"><title>Node3&#45;&gt;Node6</title>
<path fill="none" stroke="midnightblue" d="M368.522,-225.848C411.636,-214.399 485.883,-187.369 517,-132 524.941,-117.871 523.658,-99.1387 521.001,-85.4144"/>
<polygon fill="midnightblue" stroke="midnightblue" points="524.406,-84.6078 518.725,-75.6651 517.59,-86.1989 524.406,-84.6078"/>
</g>
<!-- Node7 -->
<g id="node8" class="node"><title>Node7</title>
<g id="a_node8"><a xlink:href="_capacite_8h.html" target="_top" xlink:title="../Capacites/Capacite.h">
<polygon fill="white" stroke="black" points="276,-168.5 276,-187.5 396,-187.5 396,-168.5 276,-168.5"/>
<text text-anchor="middle" x="336" y="-175.5" font-family="Helvetica,sans-Serif" font-size="10.00">../Capacites/Capacite.h</text>
</a>
</g>
</g>
<!-- Node3&#45;&gt;Node7 -->
<g id="edge7" class="edge"><title>Node3&#45;&gt;Node7</title>
<path fill="none" stroke="midnightblue" d="M336,-224.083C336,-217.006 336,-206.861 336,-197.986"/>
<polygon fill="midnightblue" stroke="midnightblue" points="339.5,-197.751 336,-187.751 332.5,-197.751 339.5,-197.751"/>
</g>
<!-- Node8 -->
<g id="node9" class="node"><title>Node8</title>
<g id="a_node9"><a xlink:href="_projectile_8h.html" target="_top" xlink:title="../Projectiles/Projectile.h">
<polygon fill="white" stroke="black" points="364.5,-112.5 364.5,-131.5 487.5,-131.5 487.5,-112.5 364.5,-112.5"/>
<text text-anchor="middle" x="426" y="-119.5" font-family="Helvetica,sans-Serif" font-size="10.00">../Projectiles/Projectile.h</text>
</a>
</g>
</g>
<!-- Node3&#45;&gt;Node8 -->
<g id="edge23" class="edge"><title>Node3&#45;&gt;Node8</title>
<path fill="none" stroke="midnightblue" d="M356.247,-224.403C371.659,-216.892 392.319,-204.588 405,-188 415.343,-174.47 420.69,-155.665 423.392,-141.761"/>
<polygon fill="midnightblue" stroke="midnightblue" points="426.851,-142.294 425.036,-131.855 419.946,-141.147 426.851,-142.294"/>
</g>
<!-- Node9 -->
<g id="node10" class="node"><title>Node9</title>
<g id="a_node10"><a xlink:href="_entite_8h.html" target="_top" xlink:title="../Entite.h">
<polygon fill="white" stroke="black" points="189.5,-56.5 189.5,-75.5 248.5,-75.5 248.5,-56.5 189.5,-56.5"/>
<text text-anchor="middle" x="219" y="-63.5" font-family="Helvetica,sans-Serif" font-size="10.00">../Entite.h</text>
</a>
</g>
</g>
<!-- Node3&#45;&gt;Node9 -->
<g id="edge22" class="edge"><title>Node3&#45;&gt;Node9</title>
<path fill="none" stroke="midnightblue" d="M310.955,-224.404C293.518,-217.216 270.971,-205.324 257,-188 232.548,-157.679 223.744,-111.482 220.638,-85.8305"/>
<polygon fill="midnightblue" stroke="midnightblue" points="224.092,-85.2055 219.576,-75.6212 217.13,-85.9297 224.092,-85.2055"/>
</g>
<!-- Node7&#45;&gt;Node4 -->
<g id="edge8" class="edge"><title>Node7&#45;&gt;Node4</title>
<path fill="none" stroke="midnightblue" d="M337.538,-168.225C340.011,-155.385 345.575,-130.948 355,-112 371.268,-79.2941 398.291,-46.2135 415.073,-27.2075"/>
<polygon fill="midnightblue" stroke="midnightblue" points="417.702,-29.5188 421.783,-19.7414 412.495,-24.8399 417.702,-29.5188"/>
</g>
<!-- Node7&#45;&gt;Node5 -->
<g id="edge9" class="edge"><title>Node7&#45;&gt;Node5</title>
<path fill="none" stroke="midnightblue" d="M332.155,-168.368C324.176,-150.456 305.675,-108.923 294.995,-84.9482"/>
<polygon fill="midnightblue" stroke="midnightblue" points="298.093,-83.3019 290.827,-75.5914 291.699,-86.1503 298.093,-83.3019"/>
</g>
<!-- Node7&#45;&gt;Node6 -->
<g id="edge10" class="edge"><title>Node7&#45;&gt;Node6</title>
<path fill="none" stroke="midnightblue" d="M396.289,-174.139C430.012,-169.45 470.473,-158.214 497,-132 509.141,-120.002 513.622,-100.706 515.227,-86.2489"/>
<polygon fill="midnightblue" stroke="midnightblue" points="518.743,-86.1546 515.988,-75.9242 511.762,-85.6397 518.743,-86.1546"/>
</g>
<!-- Node7&#45;&gt;Node8 -->
<g id="edge11" class="edge"><title>Node7&#45;&gt;Node8</title>
<path fill="none" stroke="midnightblue" d="M350.46,-168.324C364.5,-159.9 386.048,-146.971 402.543,-137.074"/>
<polygon fill="midnightblue" stroke="midnightblue" points="404.802,-139.801 411.576,-131.655 401.2,-133.798 404.802,-139.801"/>
</g>
<!-- Node7&#45;&gt;Node9 -->
<g id="edge21" class="edge"><title>Node7&#45;&gt;Node9</title>
<path fill="none" stroke="midnightblue" d="M326.819,-168.368C307.169,-149.894 260.793,-106.293 235.745,-82.7436"/>
<polygon fill="midnightblue" stroke="midnightblue" points="237.821,-79.8912 228.138,-75.5914 233.026,-84.9912 237.821,-79.8912"/>
</g>
<!-- Node8&#45;&gt;Node4 -->
<g id="edge12" class="edge"><title>Node8&#45;&gt;Node4</title>
<path fill="none" stroke="midnightblue" d="M426.314,-112.368C426.959,-94.617 428.448,-53.6664 429.324,-29.5974"/>
<polygon fill="midnightblue" stroke="midnightblue" points="432.822,-29.712 429.688,-19.5914 425.826,-29.4576 432.822,-29.712"/>
</g>
<!-- Node8&#45;&gt;Node5 -->
<g id="edge13" class="edge"><title>Node8&#45;&gt;Node5</title>
<path fill="none" stroke="midnightblue" d="M403.975,-112.444C380.489,-103.319 343.147,-88.8125 316.988,-78.6501"/>
<polygon fill="midnightblue" stroke="midnightblue" points="318.151,-75.3471 307.563,-74.9883 315.616,-81.8721 318.151,-75.3471"/>
</g>
<!-- Node8&#45;&gt;Node6 -->
<g id="edge14" class="edge"><title>Node8&#45;&gt;Node6</title>
<path fill="none" stroke="midnightblue" d="M440.46,-112.324C454.5,-103.9 476.048,-90.9709 492.543,-81.0741"/>
<polygon fill="midnightblue" stroke="midnightblue" points="494.802,-83.8007 501.576,-75.6545 491.2,-77.7983 494.802,-83.8007"/>
</g>
<!-- Node8&#45;&gt;Node9 -->
<g id="edge15" class="edge"><title>Node8&#45;&gt;Node9</title>
<path fill="none" stroke="midnightblue" d="M393.2,-112.444C356.678,-102.916 297.656,-87.5191 258.592,-77.3284"/>
<polygon fill="midnightblue" stroke="midnightblue" points="259.188,-73.8667 248.628,-74.729 257.421,-80.64 259.188,-73.8667"/>
</g>
<!-- Node9&#45;&gt;Node2 -->
<g id="edge20" class="edge"><title>Node9&#45;&gt;Node2</title>
<path fill="none" stroke="midnightblue" d="M190.795,-56.4435C160.59,-47.2801 112.489,-32.6876 78.9707,-22.5192"/>
<polygon fill="midnightblue" stroke="midnightblue" points="79.6581,-19.0703 69.0727,-19.5164 77.6259,-25.7688 79.6581,-19.0703"/>
</g>
<!-- Node9&#45;&gt;Node4 -->
<g id="edge16" class="edge"><title>Node9&#45;&gt;Node4</title>
<path fill="none" stroke="midnightblue" d="M248.71,-57.9346C282.583,-49.8001 339.842,-35.8107 397.966,-20.2093"/>
<polygon fill="midnightblue" stroke="midnightblue" points="398.934,-23.5733 407.677,-17.5894 397.111,-16.8149 398.934,-23.5733"/>
</g>
<!-- Node10 -->
<g id="node11" class="node"><title>Node10</title>
<polygon fill="white" stroke="#bfbfbf" points="100,-0.5 100,-19.5 152,-19.5 152,-0.5 100,-0.5"/>
<text text-anchor="middle" x="126" y="-7.5" font-family="Helvetica,sans-Serif" font-size="10.00">memory</text>
</g>
<!-- Node9&#45;&gt;Node10 -->
<g id="edge17" class="edge"><title>Node9&#45;&gt;Node10</title>
<path fill="none" stroke="midnightblue" d="M204.058,-56.324C189.415,-47.8215 166.866,-34.7288 149.762,-24.7975"/>
<polygon fill="midnightblue" stroke="midnightblue" points="151.31,-21.6491 140.905,-19.6545 147.795,-27.7027 151.31,-21.6491"/>
</g>
<!-- Node11 -->
<g id="node12" class="node"><title>Node11</title>
<polygon fill="white" stroke="#bfbfbf" points="170,-0.5 170,-19.5 268,-19.5 268,-0.5 170,-0.5"/>
<text text-anchor="middle" x="219" y="-7.5" font-family="Helvetica,sans-Serif" font-size="10.00">SFML/System.hpp</text>
</g>
<!-- Node9&#45;&gt;Node11 -->
<g id="edge18" class="edge"><title>Node9&#45;&gt;Node11</title>
<path fill="none" stroke="midnightblue" d="M219,-56.083C219,-49.0059 219,-38.8611 219,-29.9865"/>
<polygon fill="midnightblue" stroke="midnightblue" points="222.5,-29.751 219,-19.7511 215.5,-29.7511 222.5,-29.751"/>
</g>
<!-- Node12 -->
<g id="node13" class="node"><title>Node12</title>
<polygon fill="white" stroke="#bfbfbf" points="286,-0.5 286,-19.5 390,-19.5 390,-0.5 286,-0.5"/>
<text text-anchor="middle" x="338" y="-7.5" font-family="Helvetica,sans-Serif" font-size="10.00">SFML/Graphics.hpp</text>
</g>
<!-- Node9&#45;&gt;Node12 -->
<g id="edge19" class="edge"><title>Node9&#45;&gt;Node12</title>
<path fill="none" stroke="midnightblue" d="M237.856,-56.4435C257.266,-47.6356 287.73,-33.8116 309.965,-23.722"/>
<polygon fill="midnightblue" stroke="midnightblue" points="311.572,-26.836 319.232,-19.5164 308.68,-20.4615 311.572,-26.836"/>
</g>
</g>
</svg>
        <g id="navigator" transform="translate(0 0)" fill="#404254">
                <rect fill="#f2f5e9" fill-opacity="0.5" stroke="#606060" stroke-width=".5" x="0" y="0" width="60" height="60"/>
                <use id="zoomplus" xlink:href="#zoomPlus" x="17" y="9" onmousedown="handleZoom(evt,'in')"/>
                <use id="zoomminus" xlink:href="#zoomMin" x="42" y="9" onmousedown="handleZoom(evt,'out')"/>
                <use id="reset" xlink:href="#resetDef" x="30" y="36" onmousedown="handleReset()"/>
                <g id="arrowUp" xlink:href="#dirArrow" transform="translate(30 24)" onmousedown="handlePan(0,-1)">
                  <use xlink:href="#rim" fill="#404040">
                        <set attributeName="fill" to="#808080" begin="arrowUp.mouseover" end="arrowUp.mouseout"/>
                  </use>
                  <path fill="none" stroke="white" stroke-width="1.5" d="M0,-3.0v7 M-2.5,-0.5L0,-3.0L2.5,-0.5"/>
                </g>
                <g id="arrowRight" xlink:href="#dirArrow" transform="rotate(90) translate(36 -43)" onmousedown="handlePan(1,0)">
                  <use xlink:href="#rim" fill="#404040">
                        <set attributeName="fill" to="#808080" begin="arrowRight.mouseover" end="arrowRight.mouseout"/>
                  </use>
                  <path fill="none" stroke="white" stroke-width="1.5" d="M0,-3.0v7 M-2.5,-0.5L0,-3.0L2.5,-0.5"/>
                </g>
                <g id="arrowDown" xlink:href="#dirArrow" transform="rotate(180) translate(-30 -48)" onmousedown="handlePan(0,1)">
                  <use xlink:href="#rim" fill="#404040">
                        <set attributeName="fill" to="#808080" begin="arrowDown.mouseover" end="arrowDown.mouseout"/>
                  </use>
                  <path fill="none" stroke="white" stroke-width="1.5" d="M0,-3.0v7 M-2.5,-0.5L0,-3.0L2.5,-0.5"/>
                </g>
                <g id="arrowLeft" xlink:href="#dirArrow" transform="rotate(270) translate(-36 17)" onmousedown="handlePan(-1,0)">
                  <use xlink:href="#rim" fill="#404040">
                        <set attributeName="fill" to="#808080" begin="arrowLeft.mouseover" end="arrowLeft.mouseout"/>
                  </use>
                  <path fill="none" stroke="white" stroke-width="1.5" d="M0,-3.0v7 M-2.5,-0.5L0,-3.0L2.5,-0.5"/>
                </g>
        </g>
        <svg viewBox="0 0 15 15" width="100%" height="30px" preserveAspectRatio="xMaxYMin meet">
         <g id="arrow_out" transform="scale(0.3 0.3)">
          <a xlink:href="_vaisseau_eclaireur_8cpp__incl_org.svg" target="_base">
           <rect id="button" ry="5" rx="5" y="6" x="6" height="38" width="38"
                fill="#f2f5e9" fill-opacity="0.5" stroke="#606060" stroke-width="1.0"/>
           <path id="arrow"
             d="M 11.500037,31.436501 C 11.940474,20.09759 22.043105,11.32322 32.158766,21.979434 L 37.068811,17.246167 C 37.068811,17.246167 37.088388,32 37.088388,32 L 22.160133,31.978069 C 22.160133,31.978069 26.997745,27.140456 26.997745,27.140456 C 18.528582,18.264221 13.291696,25.230495 11.500037,31.436501 z"
             style="fill:#404040;"/>
          </a>
         </g>
        </svg>
</svg>
