<?xml version="1.0" encoding="UTF-8" standalone="no"?>
<!DOCTYPE svg PUBLIC "-//W3C//DTD SVG 1.1//EN"
 "http://www.w3.org/Graphics/SVG/1.1/DTD/svg11.dtd">
<!-- Generated by graphviz version 2.38.0 (20140413.2041)
 -->
<!-- Title: src/Vaisseau/Vaisseau.cpp Pages: 1 -->
<svg width="494pt" height="308pt"
 viewBox="0.00 0.00 493.50 308.00" xmlns="http://www.w3.org/2000/svg" xmlns:xlink="http://www.w3.org/1999/xlink">
<g id="graph0" class="graph" transform="scale(1 1) rotate(0) translate(4 304)">
<title>src/Vaisseau/Vaisseau.cpp</title>
<polygon fill="white" stroke="none" points="-4,4 -4,-304 489.5,-304 489.5,4 -4,4"/>
<!-- Node0 -->
<g id="node1" class="node"><title>Node0</title>
<polygon fill="#bfbfbf" stroke="black" points="190,-280.5 190,-299.5 326,-299.5 326,-280.5 190,-280.5"/>
<text text-anchor="middle" x="258" y="-287.5" font-family="Helvetica,sans-Serif" font-size="10.00">src/Vaisseau/Vaisseau.cpp</text>
</g>
<!-- Node1 -->
<g id="node2" class="node"><title>Node1</title>
<polygon fill="white" stroke="#bfbfbf" points="168,-0.5 168,-19.5 212,-19.5 212,-0.5 168,-0.5"/>
<text text-anchor="middle" x="190" y="-7.5" font-family="Helvetica,sans-Serif" font-size="10.00">vector</text>
</g>
<!-- Node0&#45;&gt;Node1 -->
<g id="edge1" class="edge"><title>Node0&#45;&gt;Node1</title>
<path fill="none" stroke="midnightblue" d="M189.876,-288.102C113.438,-283.061 0,-261.656 0,-179 0,-179 0,-179 0,-121 0,-48.9975 103.459,-23.3614 157.688,-14.8695"/>
<polygon fill="midnightblue" stroke="midnightblue" points="158.442,-18.2967 167.833,-13.391 157.432,-11.3699 158.442,-18.2967"/>
</g>
<!-- Node2 -->
<g id="node3" class="node"><title>Node2</title>
<polygon fill="white" stroke="#bfbfbf" points="444.5,-56.5 444.5,-75.5 485.5,-75.5 485.5,-56.5 444.5,-56.5"/>
<text text-anchor="middle" x="465" y="-63.5" font-family="Helvetica,sans-Serif" font-size="10.00">string</text>
</g>
<!-- Node0&#45;&gt;Node2 -->
<g id="edge2" class="edge"><title>Node0&#45;&gt;Node2</title>
<path fill="none" stroke="midnightblue" d="M281.273,-280.383C300.361,-272.635 327.484,-260.019 348,-244 399.676,-203.653 411.963,-189.2 444,-132 452.149,-117.45 457.682,-99.2714 461.014,-85.8412"/>
<polygon fill="midnightblue" stroke="midnightblue" points="464.479,-86.3901 463.304,-75.8606 457.657,-84.8244 464.479,-86.3901"/>
</g>
<!-- Node3 -->
<g id="node4" class="node"><title>Node3</title>
<polygon fill="white" stroke="#bfbfbf" points="96,-56.5 96,-75.5 152,-75.5 152,-56.5 96,-56.5"/>
<text text-anchor="middle" x="124" y="-63.5" font-family="Helvetica,sans-Serif" font-size="10.00">algorithm</text>
</g>
<!-- Node0&#45;&gt;Node3 -->
<g id="edge3" class="edge"><title>Node0&#45;&gt;Node3</title>
<path fill="none" stroke="midnightblue" d="M243.443,-280.358C218.712,-264.936 168.507,-230.289 141,-188 120.638,-156.696 120.241,-111.228 121.98,-85.878"/>
<polygon fill="midnightblue" stroke="midnightblue" points="125.479,-86.0369 122.865,-75.7697 118.506,-85.4263 125.479,-86.0369"/>
</g>
<!-- Node4 -->
<g id="node5" class="node"><title>Node4</title>
<g id="a_node5"><a xlink:href="_capacite_8h.html" target="_top" xlink:title="../Capacites/Capacite.h">
<polygon fill="white" stroke="black" points="168,-168.5 168,-187.5 288,-187.5 288,-168.5 168,-168.5"/>
<text text-anchor="middle" x="228" y="-175.5" font-family="Helvetica,sans-Serif" font-size="10.00">../Capacites/Capacite.h</text>
</a>
</g>
</g>
<!-- Node0&#45;&gt;Node4 -->
<g id="edge4" class="edge"><title>Node0&#45;&gt;Node4</title>
<path fill="none" stroke="midnightblue" d="M255.646,-280.368C250.783,-262.537 239.535,-221.295 232.983,-197.272"/>
<polygon fill="midnightblue" stroke="midnightblue" points="236.351,-196.318 230.343,-187.591 229.598,-198.16 236.351,-196.318"/>
</g>
<!-- Node5 -->
<g id="node6" class="node"><title>Node5</title>
<g id="a_node6"><a xlink:href="_projectile_8h.html" target="_top" xlink:title="../Projectiles/Projectile.h">
<polygon fill="white" stroke="black" points="256.5,-112.5 256.5,-131.5 379.5,-131.5 379.5,-112.5 256.5,-112.5"/>
<text text-anchor="middle" x="318" y="-119.5" font-family="Helvetica,sans-Serif" font-size="10.00">../Projectiles/Projectile.h</text>
</a>
</g>
</g>
<!-- Node0&#45;&gt;Node5 -->
<g id="edge24" class="edge"><title>Node0&#45;&gt;Node5</title>
<path fill="none" stroke="midnightblue" d="M283.504,-280.472C299.987,-273.478 320.139,-261.792 330,-244 348.177,-211.204 335.353,-165.666 325.797,-140.858"/>
<polygon fill="midnightblue" stroke="midnightblue" points="329.031,-139.519 322.001,-131.592 322.553,-142.172 329.031,-139.519"/>
</g>
<!-- Node9 -->
<g id="node10" class="node"><title>Node9</title>
<g id="a_node10"><a xlink:href="_vaisseau_8h.html" target="_top" xlink:title="Vaisseau.h">
<polygon fill="white" stroke="black" points="256.5,-224.5 256.5,-243.5 321.5,-243.5 321.5,-224.5 256.5,-224.5"/>
<text text-anchor="middle" x="289" y="-231.5" font-family="Helvetica,sans-Serif" font-size="10.00">Vaisseau.h</text>
</a>
</g>
</g>
<!-- Node0&#45;&gt;Node9 -->
<g id="edge17" class="edge"><title>Node0&#45;&gt;Node9</title>
<path fill="none" stroke="midnightblue" d="M263.119,-280.083C267.408,-272.613 273.658,-261.724 278.942,-252.52"/>
<polygon fill="midnightblue" stroke="midnightblue" points="282.033,-254.166 283.976,-243.751 275.962,-250.681 282.033,-254.166"/>
</g>
<!-- Node4&#45;&gt;Node1 -->
<g id="edge5" class="edge"><title>Node4&#45;&gt;Node1</title>
<path fill="none" stroke="midnightblue" d="M225.957,-168.075C219.975,-141.945 202.41,-65.2106 194.253,-29.577"/>
<polygon fill="midnightblue" stroke="midnightblue" points="197.605,-28.5349 191.961,-19.5681 190.781,-30.097 197.605,-28.5349"/>
</g>
<!-- Node4&#45;&gt;Node2 -->
<g id="edge6" class="edge"><title>Node4&#45;&gt;Node2</title>
<path fill="none" stroke="midnightblue" d="M279.105,-168.424C311.604,-161.597 353.84,-150.116 388,-132 412.255,-119.136 435.709,-97.6166 450.229,-82.888"/>
<polygon fill="midnightblue" stroke="midnightblue" points="452.921,-85.1384 457.325,-75.5023 447.873,-80.2887 452.921,-85.1384"/>
</g>
<!-- Node4&#45;&gt;Node3 -->
<g id="edge7" class="edge"><title>Node4&#45;&gt;Node3</title>
<path fill="none" stroke="midnightblue" d="M216.723,-168.241C205.821,-159.549 189.078,-145.593 176,-132 161.346,-116.769 146.464,-97.7268 136.397,-84.1985"/>
<polygon fill="midnightblue" stroke="midnightblue" points="138.995,-81.8227 130.259,-75.8284 133.351,-85.9623 138.995,-81.8227"/>
</g>
<!-- Node4&#45;&gt;Node5 -->
<g id="edge8" class="edge"><title>Node4&#45;&gt;Node5</title>
<path fill="none" stroke="midnightblue" d="M242.46,-168.324C256.5,-159.9 278.048,-146.971 294.543,-137.074"/>
<polygon fill="midnightblue" stroke="midnightblue" points="296.802,-139.801 303.576,-131.655 293.2,-133.798 296.802,-139.801"/>
</g>
<!-- Node6 -->
<g id="node7" class="node"><title>Node6</title>
<g id="a_node7"><a xlink:href="_entite_8h.html" target="_top" xlink:title="../Entite.h">
<polygon fill="white" stroke="black" points="272.5,-56.5 272.5,-75.5 331.5,-75.5 331.5,-56.5 272.5,-56.5"/>
<text text-anchor="middle" x="302" y="-63.5" font-family="Helvetica,sans-Serif" font-size="10.00">../Entite.h</text>
</a>
</g>
</g>
<!-- Node4&#45;&gt;Node6 -->
<g id="edge16" class="edge"><title>Node4&#45;&gt;Node6</title>
<path fill="none" stroke="midnightblue" d="M228.884,-168.319C230.569,-155.168 235.189,-129.843 247,-112 255.168,-99.6612 267.754,-89.0066 278.827,-81.1664"/>
<polygon fill="midnightblue" stroke="midnightblue" points="280.914,-83.9811 287.269,-75.5037 277.014,-78.1678 280.914,-83.9811"/>
</g>
<!-- Node5&#45;&gt;Node1 -->
<g id="edge9" class="edge"><title>Node5&#45;&gt;Node1</title>
<path fill="none" stroke="midnightblue" d="M306.931,-112.169C295.744,-103.19 278.013,-88.8163 263,-76 243.58,-59.4219 221.769,-39.8763 207.088,-26.5789"/>
<polygon fill="midnightblue" stroke="midnightblue" points="209.095,-23.6736 199.339,-19.5412 204.388,-28.8554 209.095,-23.6736"/>
</g>
<!-- Node5&#45;&gt;Node2 -->
<g id="edge10" class="edge"><title>Node5&#45;&gt;Node2</title>
<path fill="none" stroke="midnightblue" d="M341.293,-112.444C366.528,-103.173 406.89,-88.3464 434.606,-78.1652"/>
<polygon fill="midnightblue" stroke="midnightblue" points="436.013,-81.3769 444.193,-74.6433 433.6,-74.8062 436.013,-81.3769"/>
</g>
<!-- Node5&#45;&gt;Node3 -->
<g id="edge11" class="edge"><title>Node5&#45;&gt;Node3</title>
<path fill="none" stroke="midnightblue" d="M287.26,-112.444C253.275,-102.984 198.502,-87.7377 161.889,-77.5465"/>
<polygon fill="midnightblue" stroke="midnightblue" points="162.649,-74.1249 152.076,-74.8151 160.772,-80.8685 162.649,-74.1249"/>
</g>
<!-- Node5&#45;&gt;Node6 -->
<g id="edge12" class="edge"><title>Node5&#45;&gt;Node6</title>
<path fill="none" stroke="midnightblue" d="M315.358,-112.083C313.214,-104.849 310.121,-94.4087 307.451,-85.3968"/>
<polygon fill="midnightblue" stroke="midnightblue" points="310.79,-84.3447 304.593,-75.7511 304.078,-86.3334 310.79,-84.3447"/>
</g>
<!-- Node6&#45;&gt;Node1 -->
<g id="edge13" class="edge"><title>Node6&#45;&gt;Node1</title>
<path fill="none" stroke="midnightblue" d="M284.005,-56.324C265.962,-47.6247 237.953,-34.1202 217.197,-24.113"/>
<polygon fill="midnightblue" stroke="midnightblue" points="218.478,-20.8449 207.95,-19.6545 215.438,-27.1502 218.478,-20.8449"/>
</g>
<!-- Node7 -->
<g id="node8" class="node"><title>Node7</title>
<polygon fill="white" stroke="#bfbfbf" points="362,-0.5 362,-19.5 460,-19.5 460,-0.5 362,-0.5"/>
<text text-anchor="middle" x="411" y="-7.5" font-family="Helvetica,sans-Serif" font-size="10.00">SFML/System.hpp</text>
</g>
<!-- Node6&#45;&gt;Node7 -->
<g id="edge14" class="edge"><title>Node6&#45;&gt;Node7</title>
<path fill="none" stroke="midnightblue" d="M319.513,-56.324C337.072,-47.6247 364.331,-34.1202 384.531,-24.113"/>
<polygon fill="midnightblue" stroke="midnightblue" points="386.124,-27.23 393.531,-19.6545 383.016,-20.9575 386.124,-27.23"/>
</g>
<!-- Node8 -->
<g id="node9" class="node"><title>Node8</title>
<polygon fill="white" stroke="#bfbfbf" points="240,-0.5 240,-19.5 344,-19.5 344,-0.5 240,-0.5"/>
<text text-anchor="middle" x="292" y="-7.5" font-family="Helvetica,sans-Serif" font-size="10.00">SFML/Graphics.hpp</text>
</g>
<!-- Node6&#45;&gt;Node8 -->
<g id="edge15" class="edge"><title>Node6&#45;&gt;Node8</title>
<path fill="none" stroke="midnightblue" d="M300.349,-56.083C299.024,-48.9272 297.118,-38.6353 295.461,-29.6911"/>
<polygon fill="midnightblue" stroke="midnightblue" points="298.883,-28.9466 293.621,-19.7511 292,-30.2212 298.883,-28.9466"/>
</g>
<!-- Node9&#45;&gt;Node1 -->
<g id="edge18" class="edge"><title>Node9&#45;&gt;Node1</title>
<path fill="none" stroke="midnightblue" d="M256.244,-230.593C223.597,-226.611 173.734,-216.043 141,-188 99.0326,-152.048 99.3093,-129.873 87,-76 85.02,-67.3344 82.1328,-63.4379 87,-56 102.544,-32.2462 133.682,-20.9577 157.672,-15.638"/>
<polygon fill="midnightblue" stroke="midnightblue" points="158.644,-19.0139 167.779,-13.6474 157.291,-12.1459 158.644,-19.0139"/>
</g>
<!-- Node9&#45;&gt;Node2 -->
<g id="edge19" class="edge"><title>Node9&#45;&gt;Node2</title>
<path fill="none" stroke="midnightblue" d="M309.544,-224.4C326.99,-216.499 352.128,-203.656 371,-188 407.871,-157.413 439.386,-109.978 454.833,-84.538"/>
<polygon fill="midnightblue" stroke="midnightblue" points="458.009,-86.0449 460.11,-75.6605 451.992,-82.468 458.009,-86.0449"/>
</g>
<!-- Node9&#45;&gt;Node3 -->
<g id="edge20" class="edge"><title>Node9&#45;&gt;Node3</title>
<path fill="none" stroke="midnightblue" d="M256.449,-230.091C227.044,-225.748 184.574,-214.931 159,-188 132.109,-159.683 125.704,-111.995 124.289,-85.7388"/>
<polygon fill="midnightblue" stroke="midnightblue" points="127.783,-85.4956 123.938,-75.6229 120.787,-85.7381 127.783,-85.4956"/>
</g>
<!-- Node9&#45;&gt;Node4 -->
<g id="edge21" class="edge"><title>Node9&#45;&gt;Node4</title>
<path fill="none" stroke="midnightblue" d="M279.199,-224.324C270.182,-216.341 256.594,-204.313 245.682,-194.653"/>
<polygon fill="midnightblue" stroke="midnightblue" points="247.787,-191.842 237.979,-187.834 243.147,-197.083 247.787,-191.842"/>
</g>
<!-- Node9&#45;&gt;Node5 -->
<g id="edge23" class="edge"><title>Node9&#45;&gt;Node5</title>
<path fill="none" stroke="midnightblue" d="M291.276,-224.368C295.977,-206.537 306.849,-165.295 313.183,-141.272"/>
<polygon fill="midnightblue" stroke="midnightblue" points="316.57,-142.153 315.735,-131.591 309.801,-140.369 316.57,-142.153"/>
</g>
<!-- Node9&#45;&gt;Node6 -->
<g id="edge22" class="edge"><title>Node9&#45;&gt;Node6</title>
<path fill="none" stroke="midnightblue" d="M302.551,-224.453C325.338,-209.173 370.549,-174.735 388,-132 398.412,-106.504 368.439,-88.8425 341.069,-78.4327"/>
<polygon fill="midnightblue" stroke="midnightblue" points="342.161,-75.1065 331.567,-75.052 339.815,-81.7015 342.161,-75.1065"/>
</g>
</g>
</svg>
