<?xml version="1.0" encoding="UTF-8" standalone="no"?>
<!DOCTYPE svg PUBLIC "-//W3C//DTD SVG 1.1//EN"
 "http://www.w3.org/Graphics/SVG/1.1/DTD/svg11.dtd">
<!-- Generated by graphviz version 2.38.0 (20140413.2041)
 -->
<!-- Title: src/Vaisseau/VaisseauDefenseur.cpp Pages: 1 -->
<svg width="777pt" height="420pt"
 viewBox="0.00 0.00 776.50 420.00" xmlns="http://www.w3.org/2000/svg" xmlns:xlink="http://www.w3.org/1999/xlink">
<g id="graph0" class="graph" transform="scale(1 1) rotate(0) translate(4 416)">
<title>src/Vaisseau/VaisseauDefenseur.cpp</title>
<polygon fill="white" stroke="none" points="-4,4 -4,-416 772.5,-416 772.5,4 -4,4"/>
<!-- Node0 -->
<g id="node1" class="node"><title>Node0</title>
<polygon fill="#bfbfbf" stroke="black" points="392.5,-392.5 392.5,-411.5 573.5,-411.5 573.5,-392.5 392.5,-392.5"/>
<text text-anchor="middle" x="483" y="-399.5" font-family="Helvetica,sans-Serif" font-size="10.00">src/Vaisseau/VaisseauDefenseur.cpp</text>
</g>
<!-- Node1 -->
<g id="node2" class="node"><title>Node1</title>
<g id="a_node2"><a xlink:href="_vaisseau_defenseur_8h.html" target="_top" xlink:title="VaisseauDefenseur.h">
<polygon fill="white" stroke="black" points="211,-336.5 211,-355.5 321,-355.5 321,-336.5 211,-336.5"/>
<text text-anchor="middle" x="266" y="-343.5" font-family="Helvetica,sans-Serif" font-size="10.00">VaisseauDefenseur.h</text>
</a>
</g>
</g>
<!-- Node0&#45;&gt;Node1 -->
<g id="edge1" class="edge"><title>Node0&#45;&gt;Node1</title>
<path fill="none" stroke="midnightblue" d="M448.616,-392.444C411.078,-383.102 350.869,-368.119 309.933,-357.933"/>
<polygon fill="midnightblue" stroke="midnightblue" points="310.773,-354.535 300.223,-355.516 309.082,-361.328 310.773,-354.535"/>
</g>
<!-- Node17 -->
<g id="node18" class="node"><title>Node17</title>
<polygon fill="white" stroke="#bfbfbf" points="644,-224.5 644,-243.5 688,-243.5 688,-224.5 644,-224.5"/>
<text text-anchor="middle" x="666" y="-231.5" font-family="Helvetica,sans-Serif" font-size="10.00">cmath</text>
</g>
<!-- Node0&#45;&gt;Node17 -->
<g id="edge36" class="edge"><title>Node0&#45;&gt;Node17</title>
<path fill="none" stroke="midnightblue" d="M502.665,-392.428C534.472,-377.695 597.521,-344.78 636,-300 647.633,-286.463 655.655,-267.659 660.457,-253.757"/>
<polygon fill="midnightblue" stroke="midnightblue" points="663.911,-254.444 663.625,-243.853 657.244,-252.311 663.911,-254.444"/>
</g>
<!-- Node2 -->
<g id="node3" class="node"><title>Node2</title>
<polygon fill="white" stroke="#bfbfbf" points="189,-0.5 189,-19.5 233,-19.5 233,-0.5 189,-0.5"/>
<text text-anchor="middle" x="211" y="-7.5" font-family="Helvetica,sans-Serif" font-size="10.00">vector</text>
</g>
<!-- Node1&#45;&gt;Node2 -->
<g id="edge2" class="edge"><title>Node1&#45;&gt;Node2</title>
<path fill="none" stroke="midnightblue" d="M210.885,-345.499C132.972,-342.987 0,-325.452 0,-235 0,-235 0,-235 0,-121 0,-41.469 119.328,-19.347 178.51,-13.2661"/>
<polygon fill="midnightblue" stroke="midnightblue" points="179.185,-16.7185 188.818,-12.3071 178.537,-9.74859 179.185,-16.7185"/>
</g>
<!-- Node3 -->
<g id="node4" class="node"><title>Node3</title>
<g id="a_node4"><a xlink:href="constantes_8h.html" target="_top" xlink:title="../constantes.h">
<polygon fill="white" stroke="black" points="251,-0.5 251,-19.5 333,-19.5 333,-0.5 251,-0.5"/>
<text text-anchor="middle" x="292" y="-7.5" font-family="Helvetica,sans-Serif" font-size="10.00">../constantes.h</text>
</a>
</g>
</g>
<!-- Node1&#45;&gt;Node3 -->
<g id="edge3" class="edge"><title>Node1&#45;&gt;Node3</title>
<path fill="none" stroke="midnightblue" d="M210.808,-341.91C143.33,-334.807 38,-311.472 38,-235 38,-235 38,-235 38,-121 38,-76.8901 73.8787,-76.3765 113,-56 135.062,-44.5091 196.202,-30.4045 240.906,-21.083"/>
<polygon fill="midnightblue" stroke="midnightblue" points="241.657,-24.502 250.743,-19.0533 240.242,-17.6464 241.657,-24.502"/>
</g>
<!-- Node4 -->
<g id="node5" class="node"><title>Node4</title>
<g id="a_node5"><a xlink:href="_vaisseau_8h.html" target="_top" xlink:title="Vaisseau.h">
<polygon fill="white" stroke="black" points="233.5,-224.5 233.5,-243.5 298.5,-243.5 298.5,-224.5 233.5,-224.5"/>
<text text-anchor="middle" x="266" y="-231.5" font-family="Helvetica,sans-Serif" font-size="10.00">Vaisseau.h</text>
</a>
</g>
</g>
<!-- Node1&#45;&gt;Node4 -->
<g id="edge4" class="edge"><title>Node1&#45;&gt;Node4</title>
<path fill="none" stroke="midnightblue" d="M259.633,-336.232C253.74,-327.532 245.393,-313.572 242,-300 237.821,-283.284 245.832,-264.925 253.7,-251.995"/>
<polygon fill="midnightblue" stroke="midnightblue" points="256.628,-253.911 259.227,-243.64 250.79,-250.049 256.628,-253.911"/>
</g>
<!-- Node16 -->
<g id="node17" class="node"><title>Node16</title>
<g id="a_node17"><a xlink:href="_trajectoire_8h.html" target="_top" xlink:title="../Utilitaires/Trajectoire.h">
<polygon fill="white" stroke="black" points="503,-280.5 503,-299.5 627,-299.5 627,-280.5 503,-280.5"/>
<text text-anchor="middle" x="565" y="-287.5" font-family="Helvetica,sans-Serif" font-size="10.00">../Utilitaires/Trajectoire.h</text>
</a>
</g>
</g>
<!-- Node1&#45;&gt;Node16 -->
<g id="edge30" class="edge"><title>Node1&#45;&gt;Node16</title>
<path fill="none" stroke="midnightblue" d="M313.377,-336.444C366.084,-326.925 451.229,-311.547 507.657,-301.356"/>
<polygon fill="midnightblue" stroke="midnightblue" points="508.625,-304.738 517.844,-299.516 507.381,-297.849 508.625,-304.738"/>
</g>
<!-- Node18 -->
<g id="node19" class="node"><title>Node18</title>
<g id="a_node19"><a xlink:href="_vaisseau_defenseur_b_8h.html" target="_top" xlink:title="VaisseauDefenseurB.h">
<polygon fill="white" stroke="black" points="251.5,-280.5 251.5,-299.5 368.5,-299.5 368.5,-280.5 251.5,-280.5"/>
<text text-anchor="middle" x="310" y="-287.5" font-family="Helvetica,sans-Serif" font-size="10.00">VaisseauDefenseurB.h</text>
</a>
</g>
</g>
<!-- Node1&#45;&gt;Node18 -->
<g id="edge34" class="edge"><title>Node1&#45;&gt;Node18</title>
<path fill="none" stroke="midnightblue" d="M273.266,-336.083C279.545,-328.377 288.788,-317.033 296.431,-307.653"/>
<polygon fill="midnightblue" stroke="midnightblue" points="299.266,-309.714 302.869,-299.751 293.839,-305.293 299.266,-309.714"/>
</g>
<!-- Node4&#45;&gt;Node2 -->
<g id="edge5" class="edge"><title>Node4&#45;&gt;Node2</title>
<path fill="none" stroke="midnightblue" d="M236.046,-224.432C215.691,-217.369 189.253,-205.617 171,-188 130.666,-149.071 126.266,-130.464 113,-76 110.896,-67.3636 108.202,-63.4828 113,-56 127.46,-33.4493 156.371,-22.049 179.062,-16.3794"/>
<polygon fill="midnightblue" stroke="midnightblue" points="179.982,-19.76 188.975,-14.1583 178.452,-12.9293 179.982,-19.76"/>
</g>
<!-- Node5 -->
<g id="node6" class="node"><title>Node5</title>
<polygon fill="white" stroke="#bfbfbf" points="122.5,-56.5 122.5,-75.5 163.5,-75.5 163.5,-56.5 122.5,-56.5"/>
<text text-anchor="middle" x="143" y="-63.5" font-family="Helvetica,sans-Serif" font-size="10.00">string</text>
</g>
<!-- Node4&#45;&gt;Node5 -->
<g id="edge6" class="edge"><title>Node4&#45;&gt;Node5</title>
<path fill="none" stroke="midnightblue" d="M241.554,-224.368C224.18,-217.102 201.455,-205.13 187,-188 161.384,-157.642 150.129,-111.127 145.641,-85.5131"/>
<polygon fill="midnightblue" stroke="midnightblue" points="149.098,-84.9607 144.069,-75.6354 142.185,-86.0613 149.098,-84.9607"/>
</g>
<!-- Node6 -->
<g id="node7" class="node"><title>Node6</title>
<polygon fill="white" stroke="#bfbfbf" points="182,-56.5 182,-75.5 238,-75.5 238,-56.5 182,-56.5"/>
<text text-anchor="middle" x="210" y="-63.5" font-family="Helvetica,sans-Serif" font-size="10.00">algorithm</text>
</g>
<!-- Node4&#45;&gt;Node6 -->
<g id="edge7" class="edge"><title>Node4&#45;&gt;Node6</title>
<path fill="none" stroke="midnightblue" d="M242.212,-224.499C226.279,-217.413 206.537,-205.605 197,-188 179.125,-155.002 192.314,-109.543 202.064,-84.8008"/>
<polygon fill="midnightblue" stroke="midnightblue" points="205.299,-86.1381 205.932,-75.5622 198.842,-83.4348 205.299,-86.1381"/>
</g>
<!-- Node7 -->
<g id="node8" class="node"><title>Node7</title>
<g id="a_node8"><a xlink:href="_capacite_8h.html" target="_top" xlink:title="../Capacites/Capacite.h">
<polygon fill="white" stroke="black" points="206,-168.5 206,-187.5 326,-187.5 326,-168.5 206,-168.5"/>
<text text-anchor="middle" x="266" y="-175.5" font-family="Helvetica,sans-Serif" font-size="10.00">../Capacites/Capacite.h</text>
</a>
</g>
</g>
<!-- Node4&#45;&gt;Node7 -->
<g id="edge8" class="edge"><title>Node4&#45;&gt;Node7</title>
<path fill="none" stroke="midnightblue" d="M266,-224.083C266,-217.006 266,-206.861 266,-197.986"/>
<polygon fill="midnightblue" stroke="midnightblue" points="269.5,-197.751 266,-187.751 262.5,-197.751 269.5,-197.751"/>
</g>
<!-- Node8 -->
<g id="node9" class="node"><title>Node8</title>
<g id="a_node9"><a xlink:href="_projectile_8h.html" target="_top" xlink:title="../Projectiles/Projectile.h">
<polygon fill="white" stroke="black" points="294.5,-112.5 294.5,-131.5 417.5,-131.5 417.5,-112.5 294.5,-112.5"/>
<text text-anchor="middle" x="356" y="-119.5" font-family="Helvetica,sans-Serif" font-size="10.00">../Projectiles/Projectile.h</text>
</a>
</g>
</g>
<!-- Node4&#45;&gt;Node8 -->
<g id="edge24" class="edge"><title>Node4&#45;&gt;Node8</title>
<path fill="none" stroke="midnightblue" d="M286.247,-224.403C301.659,-216.892 322.319,-204.588 335,-188 345.343,-174.47 350.69,-155.665 353.392,-141.761"/>
<polygon fill="midnightblue" stroke="midnightblue" points="356.851,-142.294 355.036,-131.855 349.946,-141.147 356.851,-142.294"/>
</g>
<!-- Node9 -->
<g id="node10" class="node"><title>Node9</title>
<g id="a_node10"><a xlink:href="_entite_8h.html" target="_top" xlink:title="../Entite.h">
<polygon fill="white" stroke="black" points="413.5,-56.5 413.5,-75.5 472.5,-75.5 472.5,-56.5 413.5,-56.5"/>
<text text-anchor="middle" x="443" y="-63.5" font-family="Helvetica,sans-Serif" font-size="10.00">../Entite.h</text>
</a>
</g>
</g>
<!-- Node4&#45;&gt;Node9 -->
<g id="edge23" class="edge"><title>Node4&#45;&gt;Node9</title>
<path fill="none" stroke="midnightblue" d="M298.735,-225.704C341.694,-214.147 415.236,-187.054 446,-132 453.914,-117.838 452.005,-99.11 448.803,-85.3955"/>
<polygon fill="midnightblue" stroke="midnightblue" points="452.15,-84.3669 446.121,-75.6547 445.401,-86.225 452.15,-84.3669"/>
</g>
<!-- Node13 -->
<g id="node14" class="node"><title>Node13</title>
<g id="a_node14"><a xlink:href="_input_8h.html" target="_top" xlink:title="../Interface/Input.h">
<polygon fill="white" stroke="black" points="490.5,-56.5 490.5,-75.5 587.5,-75.5 587.5,-56.5 490.5,-56.5"/>
<text text-anchor="middle" x="539" y="-63.5" font-family="Helvetica,sans-Serif" font-size="10.00">../Interface/Input.h</text>
</a>
</g>
</g>
<!-- Node4&#45;&gt;Node13 -->
<g id="edge25" class="edge"><title>Node4&#45;&gt;Node13</title>
<path fill="none" stroke="midnightblue" d="M298.732,-228.149C330.865,-222.312 380.392,-210.371 418,-188 464.821,-160.149 506.652,-110.111 526.616,-83.9633"/>
<polygon fill="midnightblue" stroke="midnightblue" points="529.547,-85.889 532.739,-75.7863 523.943,-81.6936 529.547,-85.889"/>
</g>
<!-- Node7&#45;&gt;Node2 -->
<g id="edge9" class="edge"><title>Node7&#45;&gt;Node2</title>
<path fill="none" stroke="midnightblue" d="M266.134,-168.366C266.14,-147.918 264.328,-95.3036 247,-56 242.327,-45.4007 234.517,-35.1842 227.364,-27.1723"/>
<polygon fill="midnightblue" stroke="midnightblue" points="229.716,-24.5655 220.306,-19.6975 224.626,-29.3713 229.716,-24.5655"/>
</g>
<!-- Node7&#45;&gt;Node5 -->
<g id="edge10" class="edge"><title>Node7&#45;&gt;Node5</title>
<path fill="none" stroke="midnightblue" d="M256.348,-168.368C235.601,-149.814 186.512,-105.913 160.262,-82.4376"/>
<polygon fill="midnightblue" stroke="midnightblue" points="162.394,-79.6487 152.607,-75.5914 157.728,-84.8665 162.394,-79.6487"/>
</g>
<!-- Node7&#45;&gt;Node6 -->
<g id="edge11" class="edge"><title>Node7&#45;&gt;Node6</title>
<path fill="none" stroke="midnightblue" d="M261.606,-168.368C252.446,-150.376 231.153,-108.55 218.974,-84.6267"/>
<polygon fill="midnightblue" stroke="midnightblue" points="222.03,-82.9152 214.374,-75.5914 215.792,-86.091 222.03,-82.9152"/>
</g>
<!-- Node7&#45;&gt;Node8 -->
<g id="edge12" class="edge"><title>Node7&#45;&gt;Node8</title>
<path fill="none" stroke="midnightblue" d="M280.46,-168.324C294.5,-159.9 316.048,-146.971 332.543,-137.074"/>
<polygon fill="midnightblue" stroke="midnightblue" points="334.802,-139.801 341.576,-131.655 331.2,-133.798 334.802,-139.801"/>
</g>
<!-- Node7&#45;&gt;Node9 -->
<g id="edge22" class="edge"><title>Node7&#45;&gt;Node9</title>
<path fill="none" stroke="midnightblue" d="M326.2,-174.321C359.811,-169.693 400.023,-158.459 426,-132 437.864,-119.916 441.739,-100.631 442.871,-86.2006"/>
<polygon fill="midnightblue" stroke="midnightblue" points="446.381,-86.0325 443.29,-75.8984 439.386,-85.7477 446.381,-86.0325"/>
</g>
<!-- Node8&#45;&gt;Node2 -->
<g id="edge13" class="edge"><title>Node8&#45;&gt;Node2</title>
<path fill="none" stroke="midnightblue" d="M346.497,-112.168C332.426,-99.2568 305.016,-74.7314 280,-56 265.211,-44.926 247.776,-33.569 234.133,-25.0348"/>
<polygon fill="midnightblue" stroke="midnightblue" points="235.718,-21.8997 225.372,-19.6156 232.035,-27.8528 235.718,-21.8997"/>
</g>
<!-- Node8&#45;&gt;Node5 -->
<g id="edge14" class="edge"><title>Node8&#45;&gt;Node5</title>
<path fill="none" stroke="midnightblue" d="M319.056,-112.492C284.02,-104.295 229.695,-91.2571 173.404,-76.0031"/>
<polygon fill="midnightblue" stroke="midnightblue" points="174.186,-72.5888 163.618,-73.334 172.344,-79.3421 174.186,-72.5888"/>
</g>
<!-- Node8&#45;&gt;Node6 -->
<g id="edge15" class="edge"><title>Node8&#45;&gt;Node6</title>
<path fill="none" stroke="midnightblue" d="M332.866,-112.444C308.518,-103.438 269.993,-89.1891 242.577,-79.049"/>
<polygon fill="midnightblue" stroke="midnightblue" points="243.619,-75.7028 233.026,-75.5164 241.191,-82.2681 243.619,-75.7028"/>
</g>
<!-- Node8&#45;&gt;Node9 -->
<g id="edge16" class="edge"><title>Node8&#45;&gt;Node9</title>
<path fill="none" stroke="midnightblue" d="M369.978,-112.324C383.55,-103.9 404.38,-90.9709 420.325,-81.0741"/>
<polygon fill="midnightblue" stroke="midnightblue" points="422.406,-83.9019 429.057,-75.6545 418.714,-77.9544 422.406,-83.9019"/>
</g>
<!-- Node9&#45;&gt;Node2 -->
<g id="edge17" class="edge"><title>Node9&#45;&gt;Node2</title>
<path fill="none" stroke="midnightblue" d="M413.232,-58.9412C375.719,-51.1742 309.066,-36.9388 243.039,-20.1508"/>
<polygon fill="midnightblue" stroke="midnightblue" points="243.861,-16.7485 233.305,-17.6558 242.123,-23.5293 243.861,-16.7485"/>
</g>
<!-- Node9&#45;&gt;Node3 -->
<g id="edge21" class="edge"><title>Node9&#45;&gt;Node3</title>
<path fill="none" stroke="midnightblue" d="M419.074,-56.4435C393.781,-47.3986 353.698,-33.064 325.32,-22.9158"/>
<polygon fill="midnightblue" stroke="midnightblue" points="326.409,-19.5882 315.814,-19.5164 324.052,-26.1794 326.409,-19.5882"/>
</g>
<!-- Node10 -->
<g id="node11" class="node"><title>Node10</title>
<polygon fill="white" stroke="#bfbfbf" points="351,-0.5 351,-19.5 403,-19.5 403,-0.5 351,-0.5"/>
<text text-anchor="middle" x="377" y="-7.5" font-family="Helvetica,sans-Serif" font-size="10.00">memory</text>
</g>
<!-- Node9&#45;&gt;Node10 -->
<g id="edge18" class="edge"><title>Node9&#45;&gt;Node10</title>
<path fill="none" stroke="midnightblue" d="M432.396,-56.324C422.544,-48.2631 407.649,-36.0765 395.785,-26.3695"/>
<polygon fill="midnightblue" stroke="midnightblue" points="397.753,-23.4575 387.797,-19.8339 393.32,-28.8752 397.753,-23.4575"/>
</g>
<!-- Node11 -->
<g id="node12" class="node"><title>Node11</title>
<polygon fill="white" stroke="#bfbfbf" points="421,-0.5 421,-19.5 519,-19.5 519,-0.5 421,-0.5"/>
<text text-anchor="middle" x="470" y="-7.5" font-family="Helvetica,sans-Serif" font-size="10.00">SFML/System.hpp</text>
</g>
<!-- Node9&#45;&gt;Node11 -->
<g id="edge19" class="edge"><title>Node9&#45;&gt;Node11</title>
<path fill="none" stroke="midnightblue" d="M447.459,-56.083C451.154,-48.6913 456.523,-37.9533 461.094,-28.8111"/>
<polygon fill="midnightblue" stroke="midnightblue" points="464.283,-30.2606 465.624,-19.7511 458.022,-27.1301 464.283,-30.2606"/>
</g>
<!-- Node12 -->
<g id="node13" class="node"><title>Node12</title>
<polygon fill="white" stroke="#bfbfbf" points="537,-0.5 537,-19.5 641,-19.5 641,-0.5 537,-0.5"/>
<text text-anchor="middle" x="589" y="-7.5" font-family="Helvetica,sans-Serif" font-size="10.00">SFML/Graphics.hpp</text>
</g>
<!-- Node9&#45;&gt;Node12 -->
<g id="edge20" class="edge"><title>Node9&#45;&gt;Node12</title>
<path fill="none" stroke="midnightblue" d="M466.134,-56.4435C490.482,-47.4381 529.007,-33.1891 556.423,-23.049"/>
<polygon fill="midnightblue" stroke="midnightblue" points="557.809,-26.2681 565.974,-19.5164 555.381,-19.7028 557.809,-26.2681"/>
</g>
<!-- Node13&#45;&gt;Node3 -->
<g id="edge29" class="edge"><title>Node13&#45;&gt;Node3</title>
<path fill="none" stroke="midnightblue" d="M499.862,-56.4435C456.774,-47.0234 387.441,-31.8656 340.829,-21.6752"/>
<polygon fill="midnightblue" stroke="midnightblue" points="341.472,-18.2331 330.955,-19.5164 339.976,-25.0715 341.472,-18.2331"/>
</g>
<!-- Node13&#45;&gt;Node12 -->
<g id="edge26" class="edge"><title>Node13&#45;&gt;Node12</title>
<path fill="none" stroke="midnightblue" d="M547.256,-56.083C554.465,-48.2982 565.11,-36.8015 573.846,-27.3665"/>
<polygon fill="midnightblue" stroke="midnightblue" points="576.671,-29.4666 580.897,-19.7511 571.535,-24.7108 576.671,-29.4666"/>
</g>
<!-- Node14 -->
<g id="node15" class="node"><title>Node14</title>
<polygon fill="white" stroke="#bfbfbf" points="659,-0.5 659,-19.5 709,-19.5 709,-0.5 659,-0.5"/>
<text text-anchor="middle" x="684" y="-7.5" font-family="Helvetica,sans-Serif" font-size="10.00">optional</text>
</g>
<!-- Node13&#45;&gt;Node14 -->
<g id="edge27" class="edge"><title>Node13&#45;&gt;Node14</title>
<path fill="none" stroke="midnightblue" d="M561.976,-56.4435C586.157,-47.4381 624.418,-33.1891 651.646,-23.049"/>
<polygon fill="midnightblue" stroke="midnightblue" points="652.982,-26.2864 661.132,-19.5164 650.539,-19.7265 652.982,-26.2864"/>
</g>
<!-- Node15 -->
<g id="node16" class="node"><title>Node15</title>
<polygon fill="white" stroke="#bfbfbf" points="727.5,-0.5 727.5,-19.5 768.5,-19.5 768.5,-0.5 727.5,-0.5"/>
<text text-anchor="middle" x="748" y="-7.5" font-family="Helvetica,sans-Serif" font-size="10.00">bitset</text>
</g>
<!-- Node13&#45;&gt;Node15 -->
<g id="edge28" class="edge"><title>Node13&#45;&gt;Node15</title>
<path fill="none" stroke="midnightblue" d="M575.125,-56.4256C609.315,-48.1982 662.297,-35.16 717.428,-20.0612"/>
<polygon fill="midnightblue" stroke="midnightblue" points="718.667,-23.3503 727.379,-17.3199 716.808,-16.6018 718.667,-23.3503"/>
</g>
<!-- Node16&#45;&gt;Node2 -->
<g id="edge31" class="edge"><title>Node16&#45;&gt;Node2</title>
<path fill="none" stroke="midnightblue" d="M560.287,-280.475C544.601,-252.769 491.428,-164.062 426,-112 368.668,-66.3802 287.363,-35.436 242.972,-20.7694"/>
<polygon fill="midnightblue" stroke="midnightblue" points="243.89,-17.3882 233.299,-17.6391 241.735,-24.0481 243.89,-17.3882"/>
</g>
<!-- Node16&#45;&gt;Node12 -->
<g id="edge32" class="edge"><title>Node16&#45;&gt;Node12</title>
<path fill="none" stroke="midnightblue" d="M572.307,-280.231C586.409,-262.385 616,-220.047 616,-179 616,-179 616,-179 616,-121 616,-87.8606 604.299,-50.6823 596.303,-29.1445"/>
<polygon fill="midnightblue" stroke="midnightblue" points="599.509,-27.7302 592.641,-19.6622 592.978,-30.2517 599.509,-27.7302"/>
</g>
<!-- Node16&#45;&gt;Node17 -->
<g id="edge33" class="edge"><title>Node16&#45;&gt;Node17</title>
<path fill="none" stroke="midnightblue" d="M581.227,-280.324C597.351,-271.703 622.3,-258.364 640.964,-248.386"/>
<polygon fill="midnightblue" stroke="midnightblue" points="642.644,-251.456 649.813,-243.655 639.344,-245.283 642.644,-251.456"/>
</g>
<!-- Node18&#45;&gt;Node4 -->
<g id="edge35" class="edge"><title>Node18&#45;&gt;Node4</title>
<path fill="none" stroke="midnightblue" d="M302.734,-280.083C296.455,-272.377 287.212,-261.033 279.569,-251.653"/>
<polygon fill="midnightblue" stroke="midnightblue" points="282.161,-249.293 273.131,-243.751 276.734,-253.714 282.161,-249.293"/>
</g>
</g>
</svg>
