<?xml version="1.0" encoding="UTF-8" standalone="no"?>
<!DOCTYPE svg PUBLIC "-//W3C//DTD SVG 1.1//EN"
 "http://www.w3.org/Graphics/SVG/1.1/DTD/svg11.dtd">
<!-- Generated by graphviz version 2.38.0 (20140413.2041)
 -->
<!-- Title: src/Vaisseau/Vaisseau.h Pages: 1 -->
<svg width="680pt" height="252pt"
 viewBox="0.00 0.00 679.96 252.00" xmlns="http://www.w3.org/2000/svg" xmlns:xlink="http://www.w3.org/1999/xlink">
<g id="graph0" class="graph" transform="scale(1 1) rotate(0) translate(4 248)">
<title>src/Vaisseau/Vaisseau.h</title>
<polygon fill="white" stroke="none" points="-4,4 -4,-248 675.962,-248 675.962,4 -4,4"/>
<!-- Node0 -->
<g id="node1" class="node"><title>Node0</title>
<polygon fill="#bfbfbf" stroke="black" points="150.462,-224.5 150.462,-243.5 275.462,-243.5 275.462,-224.5 150.462,-224.5"/>
<text text-anchor="middle" x="212.962" y="-231.5" font-family="Helvetica,sans-Serif" font-size="10.00">src/Vaisseau/Vaisseau.h</text>
</g>
<!-- Node1 -->
<g id="node2" class="node"><title>Node1</title>
<polygon fill="white" stroke="#bfbfbf" points="100.962,-0.5 100.962,-19.5 144.962,-19.5 144.962,-0.5 100.962,-0.5"/>
<text text-anchor="middle" x="122.962" y="-7.5" font-family="Helvetica,sans-Serif" font-size="10.00">vector</text>
</g>
<!-- Node0&#45;&gt;Node1 -->
<g id="edge1" class="edge"><title>Node0&#45;&gt;Node1</title>
<path fill="none" stroke="midnightblue" d="M155.664,-224.474C126.731,-218.041 92.2825,-206.942 65.9618,-188 19.6059,-154.639 14.0201,-132.032 2.96181,-76 1.24071,-67.2793 -2.10126,-63.306 2.96181,-56 22.5156,-27.7838 62.0881,-17.2333 90.4463,-13.3037"/>
<polygon fill="midnightblue" stroke="midnightblue" points="91.1775,-16.7419 100.701,-12.0988 90.3606,-9.78976 91.1775,-16.7419"/>
</g>
<!-- Node2 -->
<g id="node3" class="node"><title>Node2</title>
<polygon fill="white" stroke="#bfbfbf" points="12.4618,-56.5 12.4618,-75.5 53.4618,-75.5 53.4618,-56.5 12.4618,-56.5"/>
<text text-anchor="middle" x="32.9618" y="-63.5" font-family="Helvetica,sans-Serif" font-size="10.00">string</text>
</g>
<!-- Node0&#45;&gt;Node2 -->
<g id="edge2" class="edge"><title>Node0&#45;&gt;Node2</title>
<path fill="none" stroke="midnightblue" d="M178.765,-224.483C136.791,-212.01 67.3302,-184.352 35.9618,-132 27.706,-118.221 27.6956,-99.6968 29.3181,-85.9487"/>
<polygon fill="midnightblue" stroke="midnightblue" points="32.8286,-86.1542 30.92,-75.7328 25.9131,-85.0699 32.8286,-86.1542"/>
</g>
<!-- Node3 -->
<g id="node4" class="node"><title>Node3</title>
<polygon fill="white" stroke="#bfbfbf" points="166.962,-56.5 166.962,-75.5 222.962,-75.5 222.962,-56.5 166.962,-56.5"/>
<text text-anchor="middle" x="194.962" y="-63.5" font-family="Helvetica,sans-Serif" font-size="10.00">algorithm</text>
</g>
<!-- Node0&#45;&gt;Node3 -->
<g id="edge3" class="edge"><title>Node0&#45;&gt;Node3</title>
<path fill="none" stroke="midnightblue" d="M236.75,-224.499C252.683,-217.413 272.425,-205.605 281.962,-188 286.196,-180.184 285.056,-176.333 281.962,-168 268.52,-131.8 235.643,-99.8835 214.375,-82.0442"/>
<polygon fill="midnightblue" stroke="midnightblue" points="216.556,-79.3068 206.591,-75.7072 212.136,-84.7352 216.556,-79.3068"/>
</g>
<!-- Node4 -->
<g id="node5" class="node"><title>Node4</title>
<g id="a_node5"><a xlink:href="_capacite_8h.html" target="_top" xlink:title="../Capacites/Capacite.h">
<polygon fill="white" stroke="black" points="152.962,-168.5 152.962,-187.5 272.962,-187.5 272.962,-168.5 152.962,-168.5"/>
<text text-anchor="middle" x="212.962" y="-175.5" font-family="Helvetica,sans-Serif" font-size="10.00">../Capacites/Capacite.h</text>
</a>
</g>
</g>
<!-- Node0&#45;&gt;Node4 -->
<g id="edge4" class="edge"><title>Node0&#45;&gt;Node4</title>
<path fill="none" stroke="midnightblue" d="M212.962,-224.083C212.962,-217.006 212.962,-206.861 212.962,-197.986"/>
<polygon fill="midnightblue" stroke="midnightblue" points="216.462,-197.751 212.962,-187.751 209.462,-197.751 216.462,-197.751"/>
</g>
<!-- Node5 -->
<g id="node6" class="node"><title>Node5</title>
<g id="a_node6"><a xlink:href="_projectile_8h.html" target="_top" xlink:title="../Projectiles/Projectile.h">
<polygon fill="white" stroke="black" points="61.4618,-112.5 61.4618,-131.5 184.462,-131.5 184.462,-112.5 61.4618,-112.5"/>
<text text-anchor="middle" x="122.962" y="-119.5" font-family="Helvetica,sans-Serif" font-size="10.00">../Projectiles/Projectile.h</text>
</a>
</g>
</g>
<!-- Node0&#45;&gt;Node5 -->
<g id="edge20" class="edge"><title>Node0&#45;&gt;Node5</title>
<path fill="none" stroke="midnightblue" d="M192.715,-224.403C177.302,-216.892 156.643,-204.588 143.962,-188 133.619,-174.47 128.271,-155.665 125.57,-141.761"/>
<polygon fill="midnightblue" stroke="midnightblue" points="129.016,-141.147 123.926,-131.855 122.11,-142.294 129.016,-141.147"/>
</g>
<!-- Node6 -->
<g id="node7" class="node"><title>Node6</title>
<g id="a_node7"><a xlink:href="_entite_8h.html" target="_top" xlink:title="../Entite.h">
<polygon fill="white" stroke="black" points="279.462,-56.5 279.462,-75.5 338.462,-75.5 338.462,-56.5 279.462,-56.5"/>
<text text-anchor="middle" x="308.962" y="-63.5" font-family="Helvetica,sans-Serif" font-size="10.00">../Entite.h</text>
</a>
</g>
</g>
<!-- Node0&#45;&gt;Node6 -->
<g id="edge19" class="edge"><title>Node0&#45;&gt;Node6</title>
<path fill="none" stroke="midnightblue" d="M244.874,-224.469C263.532,-217.738 285.749,-206.348 297.962,-188 318.638,-156.936 315.991,-111.023 312.382,-85.6179"/>
<polygon fill="midnightblue" stroke="midnightblue" points="315.798,-84.8223 310.736,-75.5152 308.889,-85.9479 315.798,-84.8223"/>
</g>
<!-- Node11 -->
<g id="node12" class="node"><title>Node11</title>
<g id="a_node12"><a xlink:href="_input_8h.html" target="_top" xlink:title="../Interface/Input.h">
<polygon fill="white" stroke="black" points="459.462,-56.5 459.462,-75.5 556.462,-75.5 556.462,-56.5 459.462,-56.5"/>
<text text-anchor="middle" x="507.962" y="-63.5" font-family="Helvetica,sans-Serif" font-size="10.00">../Interface/Input.h</text>
</a>
</g>
</g>
<!-- Node0&#45;&gt;Node11 -->
<g id="edge21" class="edge"><title>Node0&#45;&gt;Node11</title>
<path fill="none" stroke="midnightblue" d="M235.343,-224.495C256.729,-216.095 289.659,-202.442 316.962,-188 381.622,-153.799 453.352,-105.275 487.598,-81.4022"/>
<polygon fill="midnightblue" stroke="midnightblue" points="489.668,-84.2255 495.849,-75.6206 485.651,-78.4928 489.668,-84.2255"/>
</g>
<!-- Node4&#45;&gt;Node1 -->
<g id="edge5" class="edge"><title>Node4&#45;&gt;Node1</title>
<path fill="none" stroke="midnightblue" d="M218.154,-168.202C229.953,-146.94 255.965,-91.8777 231.962,-56 227.352,-49.1098 184.942,-32.9246 154.409,-21.9645"/>
<polygon fill="midnightblue" stroke="midnightblue" points="155.571,-18.663 144.976,-18.608 153.224,-25.2579 155.571,-18.663"/>
</g>
<!-- Node4&#45;&gt;Node2 -->
<g id="edge6" class="edge"><title>Node4&#45;&gt;Node2</title>
<path fill="none" stroke="midnightblue" d="M152.673,-174.139C118.95,-169.45 78.4884,-158.214 51.9618,-132 39.8205,-120.002 35.3396,-100.706 33.7352,-86.2489"/>
<polygon fill="midnightblue" stroke="midnightblue" points="37.1998,-85.6397 32.9738,-75.9242 30.2188,-86.1546 37.1998,-85.6397"/>
</g>
<!-- Node4&#45;&gt;Node3 -->
<g id="edge7" class="edge"><title>Node4&#45;&gt;Node3</title>
<path fill="none" stroke="midnightblue" d="M211.549,-168.368C208.645,-150.617 201.944,-109.666 198.005,-85.5974"/>
<polygon fill="midnightblue" stroke="midnightblue" points="201.437,-84.8949 196.368,-75.5914 194.529,-86.0254 201.437,-84.8949"/>
</g>
<!-- Node4&#45;&gt;Node5 -->
<g id="edge8" class="edge"><title>Node4&#45;&gt;Node5</title>
<path fill="none" stroke="midnightblue" d="M198.502,-168.324C184.462,-159.9 162.913,-146.971 146.419,-137.074"/>
<polygon fill="midnightblue" stroke="midnightblue" points="147.762,-133.798 137.386,-131.655 144.16,-139.801 147.762,-133.798"/>
</g>
<!-- Node4&#45;&gt;Node6 -->
<g id="edge18" class="edge"><title>Node4&#45;&gt;Node6</title>
<path fill="none" stroke="midnightblue" d="M224.481,-168.466C235.563,-159.939 252.435,-146.104 264.962,-132 278.215,-117.079 290.705,-97.9566 298.967,-84.3237"/>
<polygon fill="midnightblue" stroke="midnightblue" points="302.105,-85.8938 304.186,-75.5055 296.081,-82.3282 302.105,-85.8938"/>
</g>
<!-- Node5&#45;&gt;Node1 -->
<g id="edge9" class="edge"><title>Node5&#45;&gt;Node1</title>
<path fill="none" stroke="midnightblue" d="M122.962,-112.368C122.962,-94.617 122.962,-53.6664 122.962,-29.5974"/>
<polygon fill="midnightblue" stroke="midnightblue" points="126.462,-29.5914 122.962,-19.5914 119.462,-29.5915 126.462,-29.5914"/>
</g>
<!-- Node5&#45;&gt;Node2 -->
<g id="edge10" class="edge"><title>Node5&#45;&gt;Node2</title>
<path fill="none" stroke="midnightblue" d="M108.502,-112.324C94.4622,-103.9 72.9133,-90.9709 56.4187,-81.0741"/>
<polygon fill="midnightblue" stroke="midnightblue" points="57.7617,-77.7983 47.386,-75.6545 54.1602,-83.8007 57.7617,-77.7983"/>
</g>
<!-- Node5&#45;&gt;Node3 -->
<g id="edge11" class="edge"><title>Node5&#45;&gt;Node3</title>
<path fill="none" stroke="midnightblue" d="M134.53,-112.324C145.382,-104.185 161.842,-91.8395 174.845,-82.0874"/>
<polygon fill="midnightblue" stroke="midnightblue" points="177.283,-84.6339 183.183,-75.8339 173.083,-79.0339 177.283,-84.6339"/>
</g>
<!-- Node5&#45;&gt;Node6 -->
<g id="edge12" class="edge"><title>Node5&#45;&gt;Node6</title>
<path fill="none" stroke="midnightblue" d="M152.434,-112.444C184.133,-103.241 234.694,-88.5617 269.737,-78.3879"/>
<polygon fill="midnightblue" stroke="midnightblue" points="271,-81.6658 279.627,-75.5164 269.048,-74.9434 271,-81.6658"/>
</g>
<!-- Node6&#45;&gt;Node1 -->
<g id="edge13" class="edge"><title>Node6&#45;&gt;Node1</title>
<path fill="none" stroke="midnightblue" d="M279.49,-56.4435C245.46,-46.5639 189.692,-30.3734 154.722,-20.2208"/>
<polygon fill="midnightblue" stroke="midnightblue" points="155.595,-16.8296 145.015,-17.4026 153.643,-23.552 155.595,-16.8296"/>
</g>
<!-- Node7 -->
<g id="node8" class="node"><title>Node7</title>
<polygon fill="white" stroke="#bfbfbf" points="278.962,-0.5 278.962,-19.5 330.962,-19.5 330.962,-0.5 278.962,-0.5"/>
<text text-anchor="middle" x="304.962" y="-7.5" font-family="Helvetica,sans-Serif" font-size="10.00">memory</text>
</g>
<!-- Node6&#45;&gt;Node7 -->
<g id="edge14" class="edge"><title>Node6&#45;&gt;Node7</title>
<path fill="none" stroke="midnightblue" d="M308.301,-56.083C307.777,-49.0059 307.026,-38.8611 306.368,-29.9865"/>
<polygon fill="midnightblue" stroke="midnightblue" points="309.839,-29.4652 305.61,-19.7511 302.858,-29.9823 309.839,-29.4652"/>
</g>
<!-- Node8 -->
<g id="node9" class="node"><title>Node8</title>
<polygon fill="white" stroke="#bfbfbf" points="162.962,-0.5 162.962,-19.5 260.962,-19.5 260.962,-0.5 162.962,-0.5"/>
<text text-anchor="middle" x="211.962" y="-7.5" font-family="Helvetica,sans-Serif" font-size="10.00">SFML/System.hpp</text>
</g>
<!-- Node6&#45;&gt;Node8 -->
<g id="edge15" class="edge"><title>Node6&#45;&gt;Node8</title>
<path fill="none" stroke="midnightblue" d="M293.377,-56.324C277.963,-47.7428 254.15,-34.486 236.252,-24.5224"/>
<polygon fill="midnightblue" stroke="midnightblue" points="237.948,-21.4606 227.508,-19.6545 234.543,-27.5767 237.948,-21.4606"/>
</g>
<!-- Node9 -->
<g id="node10" class="node"><title>Node9</title>
<polygon fill="white" stroke="#bfbfbf" points="348.962,-0.5 348.962,-19.5 452.962,-19.5 452.962,-0.5 348.962,-0.5"/>
<text text-anchor="middle" x="400.962" y="-7.5" font-family="Helvetica,sans-Serif" font-size="10.00">SFML/Graphics.hpp</text>
</g>
<!-- Node6&#45;&gt;Node9 -->
<g id="edge16" class="edge"><title>Node6&#45;&gt;Node9</title>
<path fill="none" stroke="midnightblue" d="M323.743,-56.324C338.229,-47.8215 360.535,-34.7288 377.455,-24.7975"/>
<polygon fill="midnightblue" stroke="midnightblue" points="379.365,-27.735 386.217,-19.6545 375.821,-21.6981 379.365,-27.735"/>
</g>
<!-- Node10 -->
<g id="node11" class="node"><title>Node10</title>
<g id="a_node11"><a xlink:href="constantes_8h.html" target="_top" xlink:title="constantes.h">
<polygon fill="white" stroke="black" points="471.462,-0.5 471.462,-19.5 544.462,-19.5 544.462,-0.5 471.462,-0.5"/>
<text text-anchor="middle" x="507.962" y="-7.5" font-family="Helvetica,sans-Serif" font-size="10.00">constantes.h</text>
</a>
</g>
</g>
<!-- Node6&#45;&gt;Node10 -->
<g id="edge17" class="edge"><title>Node6&#45;&gt;Node10</title>
<path fill="none" stroke="midnightblue" d="M338.754,-56.9157C372.695,-47.7057 428.382,-32.5946 466.538,-22.2407"/>
<polygon fill="midnightblue" stroke="midnightblue" points="467.584,-25.5833 476.319,-19.5865 465.751,-18.8276 467.584,-25.5833"/>
</g>
<!-- Node11&#45;&gt;Node9 -->
<g id="edge22" class="edge"><title>Node11&#45;&gt;Node9</title>
<path fill="none" stroke="midnightblue" d="M490.77,-56.324C473.611,-47.6641 447.016,-34.2424 427.215,-24.249"/>
<polygon fill="midnightblue" stroke="midnightblue" points="428.615,-21.0354 418.111,-19.6545 425.461,-27.2847 428.615,-21.0354"/>
</g>
<!-- Node11&#45;&gt;Node10 -->
<g id="edge25" class="edge"><title>Node11&#45;&gt;Node10</title>
<path fill="none" stroke="midnightblue" d="M507.962,-56.083C507.962,-49.0059 507.962,-38.8611 507.962,-29.9865"/>
<polygon fill="midnightblue" stroke="midnightblue" points="511.462,-29.751 507.962,-19.7511 504.462,-29.7511 511.462,-29.751"/>
</g>
<!-- Node12 -->
<g id="node13" class="node"><title>Node12</title>
<polygon fill="white" stroke="#bfbfbf" points="621.962,-0.5 621.962,-19.5 671.962,-19.5 671.962,-0.5 621.962,-0.5"/>
<text text-anchor="middle" x="646.962" y="-7.5" font-family="Helvetica,sans-Serif" font-size="10.00">optional</text>
</g>
<!-- Node11&#45;&gt;Node12 -->
<g id="edge23" class="edge"><title>Node11&#45;&gt;Node12</title>
<path fill="none" stroke="midnightblue" d="M529.987,-56.4435C553.066,-47.4776 589.524,-33.314 615.603,-23.1827"/>
<polygon fill="midnightblue" stroke="midnightblue" points="616.986,-26.4002 625.04,-19.5164 614.451,-19.8753 616.986,-26.4002"/>
</g>
<!-- Node13 -->
<g id="node14" class="node"><title>Node13</title>
<polygon fill="white" stroke="#bfbfbf" points="562.462,-0.5 562.462,-19.5 603.462,-19.5 603.462,-0.5 562.462,-0.5"/>
<text text-anchor="middle" x="582.962" y="-7.5" font-family="Helvetica,sans-Serif" font-size="10.00">bitset</text>
</g>
<!-- Node11&#45;&gt;Node13 -->
<g id="edge24" class="edge"><title>Node11&#45;&gt;Node13</title>
<path fill="none" stroke="midnightblue" d="M520.012,-56.324C531.425,-48.1066 548.793,-35.6017 562.397,-25.8069"/>
<polygon fill="midnightblue" stroke="midnightblue" points="564.622,-28.5174 570.693,-19.8339 560.532,-22.8366 564.622,-28.5174"/>
</g>
</g>
</svg>
