<?xml version="1.0" encoding="UTF-8" standalone="no"?>
<!DOCTYPE svg PUBLIC "-//W3C//DTD SVG 1.1//EN"
 "http://www.w3.org/Graphics/SVG/1.1/DTD/svg11.dtd">
<!-- Generated by graphviz version 2.38.0 (20140413.2041)
 -->
<!-- Title: src/Vaisseau/Vaisseau.h Pages: 1 -->
<svg width="493pt" height="252pt"
 viewBox="0.00 0.00 492.96 252.00" xmlns="http://www.w3.org/2000/svg" xmlns:xlink="http://www.w3.org/1999/xlink">
<g id="graph0" class="graph" transform="scale(1 1) rotate(0) translate(4 248)">
<title>src/Vaisseau/Vaisseau.h</title>
<polygon fill="white" stroke="none" points="-4,4 -4,-248 488.958,-248 488.958,4 -4,4"/>
<!-- Node0 -->
<g id="node1" class="node"><title>Node0</title>
<polygon fill="#bfbfbf" stroke="black" points="74.4583,-224.5 74.4583,-243.5 199.458,-243.5 199.458,-224.5 74.4583,-224.5"/>
<text text-anchor="middle" x="136.958" y="-231.5" font-family="Helvetica,sans-Serif" font-size="10.00">src/Vaisseau/Vaisseau.h</text>
</g>
<!-- Node1 -->
<g id="node2" class="node"><title>Node1</title>
<polygon fill="white" stroke="#bfbfbf" points="30.9583,-0.5 30.9583,-19.5 74.9583,-19.5 74.9583,-0.5 30.9583,-0.5"/>
<text text-anchor="middle" x="52.9583" y="-7.5" font-family="Helvetica,sans-Serif" font-size="10.00">vector</text>
</g>
<!-- Node0&#45;&gt;Node1 -->
<g id="edge1" class="edge"><title>Node0&#45;&gt;Node1</title>
<path fill="none" stroke="midnightblue" d="M74.303,-225.192C51.4496,-218.97 27.8318,-207.848 13.9583,-188 -20.9892,-138.001 19.3586,-62.2242 41.0041,-28.3843"/>
<polygon fill="midnightblue" stroke="midnightblue" points="44.1807,-29.9259 46.777,-19.6541 38.3418,-26.0649 44.1807,-29.9259"/>
</g>
<!-- Node2 -->
<g id="node3" class="node"><title>Node2</title>
<polygon fill="white" stroke="#bfbfbf" points="71.4583,-56.5 71.4583,-75.5 112.458,-75.5 112.458,-56.5 71.4583,-56.5"/>
<text text-anchor="middle" x="91.9583" y="-63.5" font-family="Helvetica,sans-Serif" font-size="10.00">string</text>
</g>
<!-- Node0&#45;&gt;Node2 -->
<g id="edge2" class="edge"><title>Node0&#45;&gt;Node2</title>
<path fill="none" stroke="midnightblue" d="M81.0447,-224.458C59.4858,-218.136 36.936,-207.137 23.9583,-188 -0.800298,-151.491 44.6221,-105.323 72.5147,-81.9787"/>
<polygon fill="midnightblue" stroke="midnightblue" points="74.9426,-84.5162 80.5111,-75.5027 70.5371,-79.0764 74.9426,-84.5162"/>
</g>
<!-- Node3 -->
<g id="node4" class="node"><title>Node3</title>
<polygon fill="white" stroke="#bfbfbf" points="130.958,-56.5 130.958,-75.5 186.958,-75.5 186.958,-56.5 130.958,-56.5"/>
<text text-anchor="middle" x="158.958" y="-63.5" font-family="Helvetica,sans-Serif" font-size="10.00">algorithm</text>
</g>
<!-- Node0&#45;&gt;Node3 -->
<g id="edge3" class="edge"><title>Node0&#45;&gt;Node3</title>
<path fill="none" stroke="midnightblue" d="M143.587,-224.275C149.723,-215.607 158.416,-201.669 161.958,-188 171.105,-152.703 166.474,-109.665 162.54,-85.5958"/>
<polygon fill="midnightblue" stroke="midnightblue" points="165.976,-84.9275 160.781,-75.6937 159.084,-86.1518 165.976,-84.9275"/>
</g>
<!-- Node4 -->
<g id="node5" class="node"><title>Node4</title>
<g id="a_node5"><a xlink:href="_capacite_8h.html" target="_top" xlink:title="../Capacites/Capacite.h">
<polygon fill="white" stroke="black" points="32.9583,-168.5 32.9583,-187.5 152.958,-187.5 152.958,-168.5 32.9583,-168.5"/>
<text text-anchor="middle" x="92.9583" y="-175.5" font-family="Helvetica,sans-Serif" font-size="10.00">../Capacites/Capacite.h</text>
</a>
</g>
</g>
<!-- Node0&#45;&gt;Node4 -->
<g id="edge4" class="edge"><title>Node0&#45;&gt;Node4</title>
<path fill="none" stroke="midnightblue" d="M129.693,-224.083C123.413,-216.377 114.171,-205.033 106.527,-195.653"/>
<polygon fill="midnightblue" stroke="midnightblue" points="109.119,-193.293 100.089,-187.751 103.692,-197.714 109.119,-193.293"/>
</g>
<!-- Node5 -->
<g id="node6" class="node"><title>Node5</title>
<g id="a_node6"><a xlink:href="_projectile_8h.html" target="_top" xlink:title="../Projectiles/Projectile.h">
<polygon fill="white" stroke="black" points="185.458,-112.5 185.458,-131.5 308.458,-131.5 308.458,-112.5 185.458,-112.5"/>
<text text-anchor="middle" x="246.958" y="-119.5" font-family="Helvetica,sans-Serif" font-size="10.00">../Projectiles/Projectile.h</text>
</a>
</g>
</g>
<!-- Node0&#45;&gt;Node5 -->
<g id="edge20" class="edge"><title>Node0&#45;&gt;Node5</title>
<path fill="none" stroke="midnightblue" d="M149.643,-224.478C161.882,-215.962 180.614,-202.132 194.958,-188 210.181,-173.002 225.168,-153.643 235.112,-139.965"/>
<polygon fill="midnightblue" stroke="midnightblue" points="238.174,-141.7 241.132,-131.527 232.475,-137.635 238.174,-141.7"/>
</g>
<!-- Node6 -->
<g id="node7" class="node"><title>Node6</title>
<g id="a_node7"><a xlink:href="_entite_8h.html" target="_top" xlink:title="../Entite.h">
<polygon fill="white" stroke="black" points="274.458,-56.5 274.458,-75.5 333.458,-75.5 333.458,-56.5 274.458,-56.5"/>
<text text-anchor="middle" x="303.958" y="-63.5" font-family="Helvetica,sans-Serif" font-size="10.00">../Entite.h</text>
</a>
</g>
</g>
<!-- Node0&#45;&gt;Node6 -->
<g id="edge19" class="edge"><title>Node0&#45;&gt;Node6</title>
<path fill="none" stroke="midnightblue" d="M180.975,-224.407C228.173,-212.588 300.791,-186.277 333.958,-132 343.619,-116.191 331.858,-96.7549 320.346,-83.2751"/>
<polygon fill="midnightblue" stroke="midnightblue" points="322.754,-80.7225 313.405,-75.7375 317.604,-85.4644 322.754,-80.7225"/>
</g>
<!-- Node4&#45;&gt;Node1 -->
<g id="edge5" class="edge"><title>Node4&#45;&gt;Node1</title>
<path fill="none" stroke="midnightblue" d="M89.8326,-168.478C83.6264,-151.245 69.6833,-110.923 61.9583,-76 58.5709,-60.6861 56.2239,-43.0447 54.7781,-30.0081"/>
<polygon fill="midnightblue" stroke="midnightblue" points="58.2442,-29.4991 53.7359,-19.9113 51.2812,-30.2178 58.2442,-29.4991"/>
</g>
<!-- Node4&#45;&gt;Node2 -->
<g id="edge6" class="edge"><title>Node4&#45;&gt;Node2</title>
<path fill="none" stroke="midnightblue" d="M92.8798,-168.368C92.7185,-150.617 92.3462,-109.666 92.1274,-85.5974"/>
<polygon fill="midnightblue" stroke="midnightblue" points="95.6273,-85.5592 92.0364,-75.5914 88.6276,-85.6229 95.6273,-85.5592"/>
</g>
<!-- Node4&#45;&gt;Node3 -->
<g id="edge7" class="edge"><title>Node4&#45;&gt;Node3</title>
<path fill="none" stroke="midnightblue" d="M98.1372,-168.368C108.981,-150.296 134.252,-108.176 148.574,-84.3074"/>
<polygon fill="midnightblue" stroke="midnightblue" points="151.66,-85.9671 153.803,-75.5914 145.657,-82.3656 151.66,-85.9671"/>
</g>
<!-- Node4&#45;&gt;Node5 -->
<g id="edge8" class="edge"><title>Node4&#45;&gt;Node5</title>
<path fill="none" stroke="midnightblue" d="M117.36,-168.444C143.155,-159.399 184.035,-145.064 212.976,-134.916"/>
<polygon fill="midnightblue" stroke="midnightblue" points="214.392,-138.128 222.671,-131.516 212.076,-131.523 214.392,-138.128"/>
</g>
<!-- Node4&#45;&gt;Node6 -->
<g id="edge18" class="edge"><title>Node4&#45;&gt;Node6</title>
<path fill="none" stroke="midnightblue" d="M153.139,-173.37C212.572,-168.381 297.47,-156.992 317.958,-132 328.899,-118.654 322.287,-98.7283 314.892,-84.4592"/>
<polygon fill="midnightblue" stroke="midnightblue" points="317.851,-82.5833 309.853,-75.6347 311.772,-86.0543 317.851,-82.5833"/>
</g>
<!-- Node5&#45;&gt;Node1 -->
<g id="edge9" class="edge"><title>Node5&#45;&gt;Node1</title>
<path fill="none" stroke="midnightblue" d="M242.526,-112.483C234.88,-98.6137 217.899,-71.1783 195.958,-56 177.89,-43.5003 121.456,-27.9152 85.1202,-18.751"/>
<polygon fill="midnightblue" stroke="midnightblue" points="85.5528,-15.252 75.0036,-16.234 83.8627,-22.0449 85.5528,-15.252"/>
</g>
<!-- Node5&#45;&gt;Node2 -->
<g id="edge10" class="edge"><title>Node5&#45;&gt;Node2</title>
<path fill="none" stroke="midnightblue" d="M222.398,-112.444C195.367,-103.026 151.876,-87.8746 122.626,-77.6842"/>
<polygon fill="midnightblue" stroke="midnightblue" points="123.519,-74.289 112.924,-74.3042 121.216,-80.8993 123.519,-74.289"/>
</g>
<!-- Node5&#45;&gt;Node3 -->
<g id="edge11" class="edge"><title>Node5&#45;&gt;Node3</title>
<path fill="none" stroke="midnightblue" d="M232.82,-112.324C219.092,-103.9 198.022,-90.9709 181.894,-81.0741"/>
<polygon fill="midnightblue" stroke="midnightblue" points="183.416,-77.9016 173.062,-75.6545 179.755,-83.8678 183.416,-77.9016"/>
</g>
<!-- Node5&#45;&gt;Node6 -->
<g id="edge12" class="edge"><title>Node5&#45;&gt;Node6</title>
<path fill="none" stroke="midnightblue" d="M256.116,-112.324C264.46,-104.42 276.991,-92.5482 287.135,-82.9377"/>
<polygon fill="midnightblue" stroke="midnightblue" points="289.781,-85.2522 294.634,-75.8339 284.967,-80.1705 289.781,-85.2522"/>
</g>
<!-- Node6&#45;&gt;Node1 -->
<g id="edge13" class="edge"><title>Node6&#45;&gt;Node1</title>
<path fill="none" stroke="midnightblue" d="M274.387,-58.712C233.726,-50.0546 158.273,-33.9496 93.9583,-20 91.0873,-19.3773 88.1038,-18.7275 85.1144,-18.0746"/>
<polygon fill="midnightblue" stroke="midnightblue" points="85.6005,-14.5982 75.0832,-15.8779 84.103,-21.4362 85.6005,-14.5982"/>
</g>
<!-- Node7 -->
<g id="node8" class="node"><title>Node7</title>
<polygon fill="white" stroke="#bfbfbf" points="194.958,-0.5 194.958,-19.5 246.958,-19.5 246.958,-0.5 194.958,-0.5"/>
<text text-anchor="middle" x="220.958" y="-7.5" font-family="Helvetica,sans-Serif" font-size="10.00">memory</text>
</g>
<!-- Node6&#45;&gt;Node7 -->
<g id="edge14" class="edge"><title>Node6&#45;&gt;Node7</title>
<path fill="none" stroke="midnightblue" d="M290.623,-56.324C277.796,-47.979 258.173,-35.2122 243.018,-25.3524"/>
<polygon fill="midnightblue" stroke="midnightblue" points="244.551,-22.1742 234.261,-19.6545 240.734,-28.0417 244.551,-22.1742"/>
</g>
<!-- Node8 -->
<g id="node9" class="node"><title>Node8</title>
<polygon fill="white" stroke="#bfbfbf" points="264.958,-0.5 264.958,-19.5 362.958,-19.5 362.958,-0.5 264.958,-0.5"/>
<text text-anchor="middle" x="313.958" y="-7.5" font-family="Helvetica,sans-Serif" font-size="10.00">SFML/System.hpp</text>
</g>
<!-- Node6&#45;&gt;Node8 -->
<g id="edge15" class="edge"><title>Node6&#45;&gt;Node8</title>
<path fill="none" stroke="midnightblue" d="M305.61,-56.083C306.935,-48.9272 308.841,-38.6353 310.497,-29.6911"/>
<polygon fill="midnightblue" stroke="midnightblue" points="313.958,-30.2212 312.338,-19.7511 307.075,-28.9466 313.958,-30.2212"/>
</g>
<!-- Node9 -->
<g id="node10" class="node"><title>Node9</title>
<polygon fill="white" stroke="#bfbfbf" points="380.958,-0.5 380.958,-19.5 484.958,-19.5 484.958,-0.5 380.958,-0.5"/>
<text text-anchor="middle" x="432.958" y="-7.5" font-family="Helvetica,sans-Serif" font-size="10.00">SFML/Graphics.hpp</text>
</g>
<!-- Node6&#45;&gt;Node9 -->
<g id="edge16" class="edge"><title>Node6&#45;&gt;Node9</title>
<path fill="none" stroke="midnightblue" d="M324.399,-56.4435C345.629,-47.5566 379.057,-33.5632 403.213,-23.4514"/>
<polygon fill="midnightblue" stroke="midnightblue" points="404.741,-26.6064 412.614,-19.5164 402.038,-20.1493 404.741,-26.6064"/>
</g>
<!-- Node10 -->
<g id="node11" class="node"><title>Node10</title>
<g id="a_node11"><a xlink:href="constantes_8h.html" target="_top" xlink:title="constantes.h">
<polygon fill="white" stroke="black" points="103.458,-0.5 103.458,-19.5 176.458,-19.5 176.458,-0.5 103.458,-0.5"/>
<text text-anchor="middle" x="139.958" y="-7.5" font-family="Helvetica,sans-Serif" font-size="10.00">constantes.h</text>
</a>
</g>
</g>
<!-- Node6&#45;&gt;Node10 -->
<g id="edge17" class="edge"><title>Node6&#45;&gt;Node10</title>
<path fill="none" stroke="midnightblue" d="M277.972,-56.4435C250.262,-47.3196 206.206,-32.8133 175.343,-22.6509"/>
<polygon fill="midnightblue" stroke="midnightblue" points="176.416,-19.3196 165.823,-19.5164 174.227,-25.9684 176.416,-19.3196"/>
</g>
</g>
</svg>
