<?xml version="1.0" encoding="UTF-8" standalone="no"?>
<!DOCTYPE svg PUBLIC "-//W3C//DTD SVG 1.1//EN"
 "http://www.w3.org/Graphics/SVG/1.1/DTD/svg11.dtd">
<!-- Generated by graphviz version 2.38.0 (20140413.2041)
 -->
<!-- Title: src/Vaisseau/Vaisseau.h Pages: 1 -->
<svg width="708pt" height="140pt"
 viewBox="0.00 0.00 708.00 140.00" xmlns="http://www.w3.org/2000/svg" xmlns:xlink="http://www.w3.org/1999/xlink">
<g id="graph0" class="graph" transform="scale(1 1) rotate(0) translate(4 136)">
<title>src/Vaisseau/Vaisseau.h</title>
<polygon fill="white" stroke="none" points="-4,4 -4,-136 704,-136 704,4 -4,4"/>
<!-- Node10 -->
<g id="node1" class="node"><title>Node10</title>
<polygon fill="#bfbfbf" stroke="black" points="251.5,-112.5 251.5,-131.5 376.5,-131.5 376.5,-112.5 251.5,-112.5"/>
<text text-anchor="middle" x="314" y="-119.5" font-family="Helvetica,sans-Serif" font-size="10.00">src/Vaisseau/Vaisseau.h</text>
</g>
<!-- Node11 -->
<g id="node2" class="node"><title>Node11</title>
<g id="a_node2"><a xlink:href="_capacite_8cpp.html" target="_top" xlink:title="src/Capacites/Capacite.cpp">
<polygon fill="white" stroke="black" points="0,-56.5 0,-75.5 138,-75.5 138,-56.5 0,-56.5"/>
<text text-anchor="middle" x="69" y="-63.5" font-family="Helvetica,sans-Serif" font-size="10.00">src/Capacites/Capacite.cpp</text>
</a>
</g>
</g>
<!-- Node10&#45;&gt;Node11 -->
<g id="edge1" class="edge"><title>Node10&#45;&gt;Node11</title>
<path fill="none" stroke="midnightblue" d="M265.37,-110.281C219.071,-100.077 150.305,-84.9203 107.639,-75.5164"/>
<polygon fill="midnightblue" stroke="midnightblue" points="264.66,-113.709 275.179,-112.444 266.167,-106.873 264.66,-113.709"/>
</g>
<!-- Node12 -->
<g id="node3" class="node"><title>Node12</title>
<g id="a_node3"><a xlink:href="_partie_8h.html" target="_top" xlink:title="src/Partie.h">
<polygon fill="white" stroke="black" points="156.5,-56.5 156.5,-75.5 223.5,-75.5 223.5,-56.5 156.5,-56.5"/>
<text text-anchor="middle" x="190" y="-63.5" font-family="Helvetica,sans-Serif" font-size="10.00">src/Partie.h</text>
</a>
</g>
</g>
<!-- Node10&#45;&gt;Node12 -->
<g id="edge2" class="edge"><title>Node10&#45;&gt;Node12</title>
<path fill="none" stroke="midnightblue" d="M284.993,-108.368C261.771,-98.2553 229.837,-84.3486 209.556,-75.5164"/>
<polygon fill="midnightblue" stroke="midnightblue" points="283.786,-111.66 294.352,-112.444 286.581,-105.242 283.786,-111.66"/>
</g>
<!-- Node15 -->
<g id="node6" class="node"><title>Node15</title>
<g id="a_node6"><a xlink:href="_vaisseau_test_8h.html" target="_top" xlink:title="src/Vaisseau/VaisseauTest.h">
<polygon fill="white" stroke="black" points="241.5,-56.5 241.5,-75.5 386.5,-75.5 386.5,-56.5 241.5,-56.5"/>
<text text-anchor="middle" x="314" y="-63.5" font-family="Helvetica,sans-Serif" font-size="10.00">src/Vaisseau/VaisseauTest.h</text>
</a>
</g>
</g>
<!-- Node10&#45;&gt;Node15 -->
<g id="edge5" class="edge"><title>Node10&#45;&gt;Node15</title>
<path fill="none" stroke="midnightblue" d="M314,-101.805C314,-92.9102 314,-82.7798 314,-75.7511"/>
<polygon fill="midnightblue" stroke="midnightblue" points="310.5,-102.083 314,-112.083 317.5,-102.083 310.5,-102.083"/>
</g>
<!-- Node17 -->
<g id="node8" class="node"><title>Node17</title>
<g id="a_node8"><a xlink:href="_projectile_8cpp.html" target="_top" xlink:title="src/Projectiles/Projectile.cpp">
<polygon fill="white" stroke="black" points="404.5,-56.5 404.5,-75.5 545.5,-75.5 545.5,-56.5 404.5,-56.5"/>
<text text-anchor="middle" x="475" y="-63.5" font-family="Helvetica,sans-Serif" font-size="10.00">src/Projectiles/Projectile.cpp</text>
</a>
</g>
</g>
<!-- Node10&#45;&gt;Node17 -->
<g id="edge8" class="edge"><title>Node10&#45;&gt;Node17</title>
<path fill="none" stroke="midnightblue" d="M349.265,-109.172C379.581,-99.0039 422.57,-84.5852 449.608,-75.5164"/>
<polygon fill="midnightblue" stroke="midnightblue" points="347.879,-105.945 339.511,-112.444 350.105,-112.582 347.879,-105.945"/>
</g>
<!-- Node18 -->
<g id="node9" class="node"><title>Node18</title>
<g id="a_node9"><a xlink:href="_vaisseau_8cpp.html" target="_top" xlink:title="src/Vaisseau/Vaisseau.cpp">
<polygon fill="white" stroke="black" points="564,-56.5 564,-75.5 700,-75.5 700,-56.5 564,-56.5"/>
<text text-anchor="middle" x="632" y="-63.5" font-family="Helvetica,sans-Serif" font-size="10.00">src/Vaisseau/Vaisseau.cpp</text>
</a>
</g>
</g>
<!-- Node10&#45;&gt;Node18 -->
<g id="edge9" class="edge"><title>Node10&#45;&gt;Node18</title>
<path fill="none" stroke="midnightblue" d="M374.494,-110.727C434.587,-100.523 525.657,-85.0583 581.848,-75.5164"/>
<polygon fill="midnightblue" stroke="midnightblue" points="373.661,-107.319 364.388,-112.444 374.833,-114.22 373.661,-107.319"/>
</g>
<!-- Node13 -->
<g id="node4" class="node"><title>Node13</title>
<g id="a_node4"><a xlink:href="main_8cpp.html" target="_top" xlink:title="src/main.cpp">
<polygon fill="white" stroke="black" points="106.5,-0.5 106.5,-19.5 179.5,-19.5 179.5,-0.5 106.5,-0.5"/>
<text text-anchor="middle" x="143" y="-7.5" font-family="Helvetica,sans-Serif" font-size="10.00">src/main.cpp</text>
</a>
</g>
</g>
<!-- Node12&#45;&gt;Node13 -->
<g id="edge3" class="edge"><title>Node12&#45;&gt;Node13</title>
<path fill="none" stroke="midnightblue" d="M175.579,-48.4314C167.342,-38.9673 157.346,-27.4827 150.617,-19.7511"/>
<polygon fill="midnightblue" stroke="midnightblue" points="173.034,-50.8378 182.239,-56.083 178.314,-46.2421 173.034,-50.8378"/>
</g>
<!-- Node14 -->
<g id="node5" class="node"><title>Node14</title>
<g id="a_node5"><a xlink:href="_partie_8cpp.html" target="_top" xlink:title="src/Partie.cpp">
<polygon fill="white" stroke="black" points="197.5,-0.5 197.5,-19.5 274.5,-19.5 274.5,-0.5 197.5,-0.5"/>
<text text-anchor="middle" x="236" y="-7.5" font-family="Helvetica,sans-Serif" font-size="10.00">src/Partie.cpp</text>
</a>
</g>
</g>
<!-- Node12&#45;&gt;Node14 -->
<g id="edge4" class="edge"><title>Node12&#45;&gt;Node14</title>
<path fill="none" stroke="midnightblue" d="M204.114,-48.4314C212.176,-38.9673 221.959,-27.4827 228.545,-19.7511"/>
<polygon fill="midnightblue" stroke="midnightblue" points="201.416,-46.2009 197.596,-56.083 206.745,-50.7402 201.416,-46.2009"/>
</g>
<!-- Node15&#45;&gt;Node14 -->
<g id="edge6" class="edge"><title>Node15&#45;&gt;Node14</title>
<path fill="none" stroke="midnightblue" d="M293.232,-50.6221C278.983,-40.7574 260.544,-27.9919 248.501,-19.6545"/>
<polygon fill="midnightblue" stroke="midnightblue" points="291.254,-53.5095 301.468,-56.324 295.238,-47.7541 291.254,-53.5095"/>
</g>
<!-- Node16 -->
<g id="node7" class="node"><title>Node16</title>
<g id="a_node7"><a xlink:href="_vaisseau_test_8cpp.html" target="_top" xlink:title="src/Vaisseau/VaisseauTest.cpp">
<polygon fill="white" stroke="black" points="292.5,-0.5 292.5,-19.5 447.5,-19.5 447.5,-0.5 292.5,-0.5"/>
<text text-anchor="middle" x="370" y="-7.5" font-family="Helvetica,sans-Serif" font-size="10.00">src/Vaisseau/VaisseauTest.cpp</text>
</a>
</g>
</g>
<!-- Node15&#45;&gt;Node16 -->
<g id="edge7" class="edge"><title>Node15&#45;&gt;Node16</title>
<path fill="none" stroke="midnightblue" d="M330.33,-49.2533C340.265,-39.6731 352.588,-27.7906 360.839,-19.8339"/>
<polygon fill="midnightblue" stroke="midnightblue" points="327.766,-46.8631 322.997,-56.324 332.625,-51.902 327.766,-46.8631"/>
</g>
</g>
</svg>
