<?xml version="1.0" encoding="UTF-8" standalone="no"?>
<!DOCTYPE svg PUBLIC "-//W3C//DTD SVG 1.1//EN"
 "http://www.w3.org/Graphics/SVG/1.1/DTD/svg11.dtd">
<!-- Generated by graphviz version 2.38.0 (20140413.2041)
 -->
<!-- Title: src/Vaisseau/VaisseauAttaquant.h Pages: 1 -->
<!--zoomable 308 -->
<svg id="main" version="1.1" xmlns="http://www.w3.org/2000/svg" xmlns:xlink="http://www.w3.org/1999/xlink" xml:space="preserve" onload="init(evt)">
<style type="text/css"><![CDATA[
.edge:hover path { stroke: red; }
.edge:hover polygon { stroke: red; fill: red; }
]]></style>
<script type="text/javascript"><![CDATA[
var edges = document.getElementsByTagName('g');
if (edges && edges.length) {
  for (var i=0;i<edges.length;i++) {
    if (edges[i].id.substr(0,4)=='edge') {
      edges[i].setAttribute('class','edge');
    }
  }
}
]]></script>
        <defs>
                <circle id="rim" cx="0" cy="0" r="7"/>
                <circle id="rim2" cx="0" cy="0" r="3.5"/>
                <g id="zoomPlus">
                        <use xlink:href="#rim" fill="#404040">
                                <set attributeName="fill" to="#808080" begin="zoomplus.mouseover" end="zoomplus.mouseout"/>
                        </use>
                        <path d="M-4,0h8M0,-4v8" fill="none" stroke="white" stroke-width="1.5" pointer-events="none"/>
                </g>
                <g id="zoomMin">
                        <use xlink:href="#rim" fill="#404040">
                                <set attributeName="fill" to="#808080" begin="zoomminus.mouseover" end="zoomminus.mouseout"/>
                        </use>
                        <path d="M-4,0h8" fill="none" stroke="white" stroke-width="1.5" pointer-events="none"/>
                </g>
                <g id="dirArrow">
                        <path fill="none" stroke="white" stroke-width="1.5" d="M0,-3.0v7 M-2.5,-0.5L0,-3.0L2.5,-0.5"/>
                </g>
               <g id="resetDef">
                       <use xlink:href="#rim2" fill="#404040">
                               <set attributeName="fill" to="#808080" begin="reset.mouseover" end="reset.mouseout"/>
                       </use>
               </g>
        </defs>

<script type="text/javascript">
var viewWidth = 763;
var viewHeight = 308;
var sectionId = 'dynsection-0';
</script>
<script xlink:href="svgpan.js"/>
<svg id="graph" class="graph">
<g id="viewport">
<title>src/Vaisseau/VaisseauAttaquant.h</title>
<polygon fill="white" stroke="none" points="-4,4 -4,-304 759,-304 759,4 -4,4"/>
<!-- Node0 -->
<g id="node1" class="node"><title>Node0</title>
<polygon fill="#bfbfbf" stroke="black" points="293.5,-280.5 293.5,-299.5 460.5,-299.5 460.5,-280.5 293.5,-280.5"/>
<text text-anchor="middle" x="377" y="-287.5" font-family="Helvetica,sans-Serif" font-size="10.00">src/Vaisseau/VaisseauAttaquant.h</text>
</g>
<!-- Node1 -->
<g id="node2" class="node"><title>Node1</title>
<g id="a_node2"><a xlink:href="constantes_8h.html" target="_top" xlink:title="../constantes.h">
<polygon fill="white" stroke="black" points="68,-0.5 68,-19.5 150,-19.5 150,-0.5 68,-0.5"/>
<text text-anchor="middle" x="109" y="-7.5" font-family="Helvetica,sans-Serif" font-size="10.00">../constantes.h</text>
</a>
</g>
</g>
<!-- Node0&#45;&gt;Node1 -->
<g id="edge1" class="edge"><title>Node0&#45;&gt;Node1</title>
<path fill="none" stroke="midnightblue" d="M293.306,-288.225C214.671,-282.535 109,-259.848 109,-179 109,-179 109,-179 109,-121 109,-88.948 109,-51.6426 109,-29.7489"/>
<polygon fill="midnightblue" stroke="midnightblue" points="112.5,-29.5577 109,-19.5578 105.5,-29.5578 112.5,-29.5577"/>
</g>
<!-- Node2 -->
<g id="node3" class="node"><title>Node2</title>
<g id="a_node3"><a xlink:href="_vaisseau_8h.html" target="_top" xlink:title="Vaisseau.h">
<polygon fill="white" stroke="black" points="281.5,-224.5 281.5,-243.5 346.5,-243.5 346.5,-224.5 281.5,-224.5"/>
<text text-anchor="middle" x="314" y="-231.5" font-family="Helvetica,sans-Serif" font-size="10.00">Vaisseau.h</text>
</a>
</g>
</g>
<!-- Node0&#45;&gt;Node2 -->
<g id="edge2" class="edge"><title>Node0&#45;&gt;Node2</title>
<path fill="none" stroke="midnightblue" d="M366.878,-280.324C357.474,-272.263 343.256,-260.077 331.931,-250.369"/>
<polygon fill="midnightblue" stroke="midnightblue" points="334.177,-247.684 324.306,-243.834 329.621,-252.999 334.177,-247.684"/>
</g>
<!-- Node15 -->
<g id="node16" class="node"><title>Node15</title>
<g id="a_node16"><a xlink:href="_cap_missile_8h.html" target="_top" xlink:title="../Capacites/CapMissile.h">
<polygon fill="white" stroke="black" points="370,-224.5 370,-243.5 500,-243.5 500,-224.5 370,-224.5"/>
<text text-anchor="middle" x="435" y="-231.5" font-family="Helvetica,sans-Serif" font-size="10.00">../Capacites/CapMissile.h</text>
</a>
</g>
</g>
<!-- Node0&#45;&gt;Node15 -->
<g id="edge28" class="edge"><title>Node0&#45;&gt;Node15</title>
<path fill="none" stroke="midnightblue" d="M386.319,-280.324C394.893,-272.341 407.812,-260.313 418.188,-250.653"/>
<polygon fill="midnightblue" stroke="midnightblue" points="420.578,-253.21 425.512,-243.834 415.808,-248.086 420.578,-253.21"/>
</g>
<!-- Node17 -->
<g id="node18" class="node"><title>Node17</title>
<g id="a_node18"><a xlink:href="_trajectoire_8h.html" target="_top" xlink:title="../Utilitaires/Trajectoire.h">
<polygon fill="white" stroke="black" points="631,-56.5 631,-75.5 755,-75.5 755,-56.5 631,-56.5"/>
<text text-anchor="middle" x="693" y="-63.5" font-family="Helvetica,sans-Serif" font-size="10.00">../Utilitaires/Trajectoire.h</text>
</a>
</g>
</g>
<!-- Node0&#45;&gt;Node17 -->
<g id="edge32" class="edge"><title>Node0&#45;&gt;Node17</title>
<path fill="none" stroke="midnightblue" d="M460.73,-287.504C534.508,-281.212 638.216,-259.182 691,-188 713.238,-158.01 705.567,-111.352 698.794,-85.6165"/>
<polygon fill="midnightblue" stroke="midnightblue" points="702.067,-84.3351 695.946,-75.6877 695.339,-86.2651 702.067,-84.3351"/>
</g>
<!-- Node3 -->
<g id="node4" class="node"><title>Node3</title>
<polygon fill="white" stroke="#bfbfbf" points="536,-0.5 536,-19.5 580,-19.5 580,-0.5 536,-0.5"/>
<text text-anchor="middle" x="558" y="-7.5" font-family="Helvetica,sans-Serif" font-size="10.00">vector</text>
</g>
<!-- Node2&#45;&gt;Node3 -->
<g id="edge3" class="edge"><title>Node2&#45;&gt;Node3</title>
<path fill="none" stroke="midnightblue" d="M313.314,-224.472C311.53,-195.99 309.893,-103.282 359,-56 411.752,-5.20847 449.731,-35.8841 525.736,-19.9859"/>
<polygon fill="midnightblue" stroke="midnightblue" points="526.747,-23.3445 535.701,-17.6804 525.169,-16.5247 526.747,-23.3445"/>
</g>
<!-- Node4 -->
<g id="node5" class="node"><title>Node4</title>
<polygon fill="white" stroke="#bfbfbf" points="368.5,-56.5 368.5,-75.5 409.5,-75.5 409.5,-56.5 368.5,-56.5"/>
<text text-anchor="middle" x="389" y="-63.5" font-family="Helvetica,sans-Serif" font-size="10.00">string</text>
</g>
<!-- Node2&#45;&gt;Node4 -->
<g id="edge4" class="edge"><title>Node2&#45;&gt;Node4</title>
<path fill="none" stroke="midnightblue" d="M317.919,-224.159C323.471,-211.644 333.961,-188.052 343,-168 356.149,-138.832 371.594,-105.008 380.824,-84.8408"/>
<polygon fill="midnightblue" stroke="midnightblue" points="384.058,-86.1857 385.039,-75.6365 377.693,-83.2711 384.058,-86.1857"/>
</g>
<!-- Node5 -->
<g id="node6" class="node"><title>Node5</title>
<polygon fill="white" stroke="#bfbfbf" points="519,-56.5 519,-75.5 575,-75.5 575,-56.5 519,-56.5"/>
<text text-anchor="middle" x="547" y="-63.5" font-family="Helvetica,sans-Serif" font-size="10.00">algorithm</text>
</g>
<!-- Node2&#45;&gt;Node5 -->
<g id="edge5" class="edge"><title>Node2&#45;&gt;Node5</title>
<path fill="none" stroke="midnightblue" d="M346.556,-226.257C397.127,-215.639 490.211,-195.461 504,-188 535.798,-170.796 548.73,-165.218 563,-132 569.58,-116.684 563.763,-98.1249 557.376,-84.7655"/>
<polygon fill="midnightblue" stroke="midnightblue" points="560.35,-82.902 552.576,-75.7029 554.163,-86.1781 560.35,-82.902"/>
</g>
<!-- Node6 -->
<g id="node7" class="node"><title>Node6</title>
<g id="a_node7"><a xlink:href="_capacite_8h.html" target="_top" xlink:title="../Capacites/Capacite.h">
<polygon fill="white" stroke="black" points="375,-168.5 375,-187.5 495,-187.5 495,-168.5 375,-168.5"/>
<text text-anchor="middle" x="435" y="-175.5" font-family="Helvetica,sans-Serif" font-size="10.00">../Capacites/Capacite.h</text>
</a>
</g>
</g>
<!-- Node2&#45;&gt;Node6 -->
<g id="edge6" class="edge"><title>Node2&#45;&gt;Node6</title>
<path fill="none" stroke="midnightblue" d="M333.173,-224.444C352.909,-215.636 383.885,-201.812 406.493,-191.722"/>
<polygon fill="midnightblue" stroke="midnightblue" points="408.211,-194.788 415.917,-187.516 405.359,-188.396 408.211,-194.788"/>
</g>
<!-- Node7 -->
<g id="node8" class="node"><title>Node7</title>
<g id="a_node8"><a xlink:href="_projectile_8h.html" target="_top" xlink:title="../Projectiles/Projectile.h">
<polygon fill="white" stroke="black" points="413.5,-112.5 413.5,-131.5 536.5,-131.5 536.5,-112.5 413.5,-112.5"/>
<text text-anchor="middle" x="475" y="-119.5" font-family="Helvetica,sans-Serif" font-size="10.00">../Projectiles/Projectile.h</text>
</a>
</g>
</g>
<!-- Node2&#45;&gt;Node7 -->
<g id="edge22" class="edge"><title>Node2&#45;&gt;Node7</title>
<path fill="none" stroke="midnightblue" d="M318.979,-224.255C327.173,-210.557 344.732,-183.961 366,-168 386.022,-152.974 411.784,-142.036 433.235,-134.709"/>
<polygon fill="midnightblue" stroke="midnightblue" points="434.336,-138.031 442.752,-131.595 432.159,-131.378 434.336,-138.031"/>
</g>
<!-- Node8 -->
<g id="node9" class="node"><title>Node8</title>
<g id="a_node9"><a xlink:href="_entite_8h.html" target="_top" xlink:title="../Entite.h">
<polygon fill="white" stroke="black" points="252.5,-56.5 252.5,-75.5 311.5,-75.5 311.5,-56.5 252.5,-56.5"/>
<text text-anchor="middle" x="282" y="-63.5" font-family="Helvetica,sans-Serif" font-size="10.00">../Entite.h</text>
</a>
</g>
</g>
<!-- Node2&#45;&gt;Node8 -->
<g id="edge21" class="edge"><title>Node2&#45;&gt;Node8</title>
<path fill="none" stroke="midnightblue" d="M295.918,-224.39C282.438,-216.872 265.028,-204.565 257,-188 242.27,-157.603 248.527,-144.698 257,-112 259.546,-102.175 264.753,-92.2118 269.759,-84.166"/>
<polygon fill="midnightblue" stroke="midnightblue" points="272.749,-85.9903 275.371,-75.7252 266.92,-82.1143 272.749,-85.9903"/>
</g>
<!-- Node12 -->
<g id="node13" class="node"><title>Node12</title>
<g id="a_node13"><a xlink:href="_input_8h.html" target="_top" xlink:title="../Interface/Input.h">
<polygon fill="white" stroke="black" points="137.5,-56.5 137.5,-75.5 234.5,-75.5 234.5,-56.5 137.5,-56.5"/>
<text text-anchor="middle" x="186" y="-63.5" font-family="Helvetica,sans-Serif" font-size="10.00">../Interface/Input.h</text>
</a>
</g>
</g>
<!-- Node2&#45;&gt;Node12 -->
<g id="edge23" class="edge"><title>Node2&#45;&gt;Node12</title>
<path fill="none" stroke="midnightblue" d="M295.908,-224.431C280.984,-216.632 260.054,-203.919 246,-188 218.423,-156.764 200.22,-110.59 191.666,-85.2667"/>
<polygon fill="midnightblue" stroke="midnightblue" points="194.916,-83.9436 188.502,-75.5106 188.257,-86.1026 194.916,-83.9436"/>
</g>
<!-- Node6&#45;&gt;Node3 -->
<g id="edge7" class="edge"><title>Node6&#45;&gt;Node3</title>
<path fill="none" stroke="midnightblue" d="M490.782,-168.418C515.611,-162.057 543.564,-151.038 563,-132 588.035,-107.478 593.075,-89.848 584,-56 581.346,-46.1031 575.931,-36.1315 570.726,-28.099"/>
<polygon fill="midnightblue" stroke="midnightblue" points="573.464,-25.9055 564.89,-19.6811 567.711,-29.8935 573.464,-25.9055"/>
</g>
<!-- Node6&#45;&gt;Node4 -->
<g id="edge8" class="edge"><title>Node6&#45;&gt;Node4</title>
<path fill="none" stroke="midnightblue" d="M427.506,-168.296C420.436,-159.643 410.044,-145.717 404,-132 397.499,-117.245 393.633,-99.3152 391.458,-86.027"/>
<polygon fill="midnightblue" stroke="midnightblue" points="394.865,-85.1315 389.959,-75.7409 387.938,-86.1411 394.865,-85.1315"/>
</g>
<!-- Node6&#45;&gt;Node5 -->
<g id="edge9" class="edge"><title>Node6&#45;&gt;Node5</title>
<path fill="none" stroke="midnightblue" d="M487.181,-168.494C508.718,-162.168 531.708,-151.156 545,-132 554.243,-118.679 553.745,-99.8487 551.527,-85.882"/>
<polygon fill="midnightblue" stroke="midnightblue" points="554.928,-85.0397 549.532,-75.9219 548.064,-86.4146 554.928,-85.0397"/>
</g>
<!-- Node6&#45;&gt;Node7 -->
<g id="edge10" class="edge"><title>Node6&#45;&gt;Node7</title>
<path fill="none" stroke="midnightblue" d="M441.605,-168.083C447.255,-160.455 455.545,-149.264 462.451,-139.941"/>
<polygon fill="midnightblue" stroke="midnightblue" points="465.378,-141.87 468.518,-131.751 459.753,-137.703 465.378,-141.87"/>
</g>
<!-- Node6&#45;&gt;Node8 -->
<g id="edge20" class="edge"><title>Node6&#45;&gt;Node8</title>
<path fill="none" stroke="midnightblue" d="M422.994,-168.368C396.851,-149.573 334.532,-104.768 302.215,-81.5334"/>
<polygon fill="midnightblue" stroke="midnightblue" points="304.112,-78.5871 293.95,-75.5914 300.026,-84.2707 304.112,-78.5871"/>
</g>
<!-- Node7&#45;&gt;Node3 -->
<g id="edge11" class="edge"><title>Node7&#45;&gt;Node3</title>
<path fill="none" stroke="midnightblue" d="M478.517,-112.481C484.087,-99.5413 495.776,-74.4877 510,-56 518.404,-45.0767 529.549,-34.4538 538.984,-26.2747"/>
<polygon fill="midnightblue" stroke="midnightblue" points="541.32,-28.8833 546.724,-19.7699 536.816,-23.5246 541.32,-28.8833"/>
</g>
<!-- Node7&#45;&gt;Node4 -->
<g id="edge12" class="edge"><title>Node7&#45;&gt;Node4</title>
<path fill="none" stroke="midnightblue" d="M461.183,-112.324C447.767,-103.9 427.176,-90.9709 411.414,-81.0741"/>
<polygon fill="midnightblue" stroke="midnightblue" points="413.113,-78.0081 402.783,-75.6545 409.391,-83.9364 413.113,-78.0081"/>
</g>
<!-- Node7&#45;&gt;Node5 -->
<g id="edge13" class="edge"><title>Node7&#45;&gt;Node5</title>
<path fill="none" stroke="midnightblue" d="M486.568,-112.324C497.42,-104.185 513.881,-91.8395 526.883,-82.0874"/>
<polygon fill="midnightblue" stroke="midnightblue" points="529.321,-84.6339 535.221,-75.8339 525.121,-79.0339 529.321,-84.6339"/>
</g>
<!-- Node7&#45;&gt;Node8 -->
<g id="edge14" class="edge"><title>Node7&#45;&gt;Node8</title>
<path fill="none" stroke="midnightblue" d="M444.419,-112.444C411.191,-103.147 357.991,-88.2617 321.594,-78.0781"/>
<polygon fill="midnightblue" stroke="midnightblue" points="322.377,-74.663 311.804,-75.339 320.491,-81.4041 322.377,-74.663"/>
</g>
<!-- Node8&#45;&gt;Node1 -->
<g id="edge19" class="edge"><title>Node8&#45;&gt;Node1</title>
<path fill="none" stroke="midnightblue" d="M254.588,-56.4435C225.231,-47.2801 178.481,-32.6876 145.904,-22.5192"/>
<polygon fill="midnightblue" stroke="midnightblue" points="146.873,-19.1551 136.284,-19.5164 144.787,-25.8371 146.873,-19.1551"/>
</g>
<!-- Node8&#45;&gt;Node3 -->
<g id="edge15" class="edge"><title>Node8&#45;&gt;Node3</title>
<path fill="none" stroke="midnightblue" d="M311.802,-58.801C316.548,-57.8437 321.406,-56.8812 326,-56 411.997,-39.5062 436.899,-40.5789 525.75,-20.0983"/>
<polygon fill="midnightblue" stroke="midnightblue" points="526.78,-23.4521 535.723,-17.7718 525.189,-16.6352 526.78,-23.4521"/>
</g>
<!-- Node9 -->
<g id="node10" class="node"><title>Node9</title>
<polygon fill="white" stroke="#bfbfbf" points="350,-0.5 350,-19.5 402,-19.5 402,-0.5 350,-0.5"/>
<text text-anchor="middle" x="376" y="-7.5" font-family="Helvetica,sans-Serif" font-size="10.00">memory</text>
</g>
<!-- Node8&#45;&gt;Node9 -->
<g id="edge16" class="edge"><title>Node8&#45;&gt;Node9</title>
<path fill="none" stroke="midnightblue" d="M297.103,-56.324C311.903,-47.8215 334.694,-34.7288 351.982,-24.7975"/>
<polygon fill="midnightblue" stroke="midnightblue" points="354.007,-27.6707 360.935,-19.6545 350.52,-21.6009 354.007,-27.6707"/>
</g>
<!-- Node10 -->
<g id="node11" class="node"><title>Node10</title>
<polygon fill="white" stroke="#bfbfbf" points="420,-0.5 420,-19.5 518,-19.5 518,-0.5 420,-0.5"/>
<text text-anchor="middle" x="469" y="-7.5" font-family="Helvetica,sans-Serif" font-size="10.00">SFML/System.hpp</text>
</g>
<!-- Node8&#45;&gt;Node10 -->
<g id="edge17" class="edge"><title>Node8&#45;&gt;Node10</title>
<path fill="none" stroke="midnightblue" d="M311.631,-56.4435C343.5,-47.2406 394.333,-32.5617 429.564,-22.3879"/>
<polygon fill="midnightblue" stroke="midnightblue" points="430.872,-25.6534 439.508,-19.5164 428.929,-18.9282 430.872,-25.6534"/>
</g>
<!-- Node11 -->
<g id="node12" class="node"><title>Node11</title>
<polygon fill="white" stroke="#bfbfbf" points="228,-0.5 228,-19.5 332,-19.5 332,-0.5 228,-0.5"/>
<text text-anchor="middle" x="280" y="-7.5" font-family="Helvetica,sans-Serif" font-size="10.00">SFML/Graphics.hpp</text>
</g>
<!-- Node8&#45;&gt;Node11 -->
<g id="edge18" class="edge"><title>Node8&#45;&gt;Node11</title>
<path fill="none" stroke="midnightblue" d="M281.67,-56.083C281.408,-49.0059 281.032,-38.8611 280.703,-29.9865"/>
<polygon fill="midnightblue" stroke="midnightblue" points="284.192,-29.6147 280.324,-19.7511 277.197,-29.8738 284.192,-29.6147"/>
</g>
<!-- Node12&#45;&gt;Node1 -->
<g id="edge27" class="edge"><title>Node12&#45;&gt;Node1</title>
<path fill="none" stroke="midnightblue" d="M173.629,-56.324C161.842,-48.0577 143.868,-35.4527 129.864,-25.6322"/>
<polygon fill="midnightblue" stroke="midnightblue" points="131.538,-22.5307 121.341,-19.6545 127.518,-28.2619 131.538,-22.5307"/>
</g>
<!-- Node12&#45;&gt;Node11 -->
<g id="edge24" class="edge"><title>Node12&#45;&gt;Node11</title>
<path fill="none" stroke="midnightblue" d="M201.103,-56.324C215.903,-47.8215 238.694,-34.7288 255.982,-24.7975"/>
<polygon fill="midnightblue" stroke="midnightblue" points="258.007,-27.6707 264.935,-19.6545 254.52,-21.6009 258.007,-27.6707"/>
</g>
<!-- Node13 -->
<g id="node14" class="node"><title>Node13</title>
<polygon fill="white" stroke="#bfbfbf" points="0,-0.5 0,-19.5 50,-19.5 50,-0.5 0,-0.5"/>
<text text-anchor="middle" x="25" y="-7.5" font-family="Helvetica,sans-Serif" font-size="10.00">optional</text>
</g>
<!-- Node12&#45;&gt;Node13 -->
<g id="edge25" class="edge"><title>Node12&#45;&gt;Node13</title>
<path fill="none" stroke="midnightblue" d="M160.489,-56.4435C133.324,-47.3324 90.1569,-32.8539 59.8644,-22.6936"/>
<polygon fill="midnightblue" stroke="midnightblue" points="60.7205,-19.2892 50.1265,-19.4275 58.4945,-25.9259 60.7205,-19.2892"/>
</g>
<!-- Node14 -->
<g id="node15" class="node"><title>Node14</title>
<polygon fill="white" stroke="#bfbfbf" points="168.5,-0.5 168.5,-19.5 209.5,-19.5 209.5,-0.5 168.5,-0.5"/>
<text text-anchor="middle" x="189" y="-7.5" font-family="Helvetica,sans-Serif" font-size="10.00">bitset</text>
</g>
<!-- Node12&#45;&gt;Node14 -->
<g id="edge26" class="edge"><title>Node12&#45;&gt;Node14</title>
<path fill="none" stroke="midnightblue" d="M186.495,-56.083C186.889,-49.0059 187.452,-38.8611 187.945,-29.9865"/>
<polygon fill="midnightblue" stroke="midnightblue" points="191.454,-29.9299 188.514,-19.7511 184.464,-29.5415 191.454,-29.9299"/>
</g>
<!-- Node15&#45;&gt;Node6 -->
<g id="edge29" class="edge"><title>Node15&#45;&gt;Node6</title>
<path fill="none" stroke="midnightblue" d="M435,-224.083C435,-217.006 435,-206.861 435,-197.986"/>
<polygon fill="midnightblue" stroke="midnightblue" points="438.5,-197.751 435,-187.751 431.5,-197.751 438.5,-197.751"/>
</g>
<!-- Node16 -->
<g id="node17" class="node"><title>Node16</title>
<g id="a_node17"><a xlink:href="_proj_missile_8h.html" target="_top" xlink:title="../Projectiles/ProjMissile.h">
<polygon fill="white" stroke="black" points="551.5,-168.5 551.5,-187.5 682.5,-187.5 682.5,-168.5 551.5,-168.5"/>
<text text-anchor="middle" x="617" y="-175.5" font-family="Helvetica,sans-Serif" font-size="10.00">../Projectiles/ProjMissile.h</text>
</a>
</g>
</g>
<!-- Node15&#45;&gt;Node16 -->
<g id="edge30" class="edge"><title>Node15&#45;&gt;Node16</title>
<path fill="none" stroke="midnightblue" d="M463.838,-224.444C494.856,-215.241 544.329,-200.562 578.618,-190.388"/>
<polygon fill="midnightblue" stroke="midnightblue" points="579.705,-193.716 588.296,-187.516 577.714,-187.006 579.705,-193.716"/>
</g>
<!-- Node16&#45;&gt;Node7 -->
<g id="edge31" class="edge"><title>Node16&#45;&gt;Node7</title>
<path fill="none" stroke="midnightblue" d="M594.5,-168.444C570.923,-159.478 533.678,-145.314 507.036,-135.183"/>
<polygon fill="midnightblue" stroke="midnightblue" points="507.986,-131.8 497.395,-131.516 505.498,-138.342 507.986,-131.8"/>
</g>
<!-- Node17&#45;&gt;Node3 -->
<g id="edge33" class="edge"><title>Node17&#45;&gt;Node3</title>
<path fill="none" stroke="midnightblue" d="M671.609,-56.4435C649.293,-47.5171 614.097,-33.4387 588.792,-23.3168"/>
<polygon fill="midnightblue" stroke="midnightblue" points="589.876,-19.9807 579.291,-19.5164 587.276,-26.4801 589.876,-19.9807"/>
</g>
<!-- Node17&#45;&gt;Node11 -->
<g id="edge34" class="edge"><title>Node17&#45;&gt;Node11</title>
<path fill="none" stroke="midnightblue" d="M630.956,-57.4363C562.728,-49.0357 449.576,-34.8604 342.266,-20.1532"/>
<polygon fill="midnightblue" stroke="midnightblue" points="342.617,-16.6688 332.234,-18.7744 341.664,-23.6036 342.617,-16.6688"/>
</g>
<!-- Node18 -->
<g id="node19" class="node"><title>Node18</title>
<polygon fill="white" stroke="#bfbfbf" points="671,-0.5 671,-19.5 715,-19.5 715,-0.5 671,-0.5"/>
<text text-anchor="middle" x="693" y="-7.5" font-family="Helvetica,sans-Serif" font-size="10.00">cmath</text>
</g>
<!-- Node17&#45;&gt;Node18 -->
<g id="edge35" class="edge"><title>Node17&#45;&gt;Node18</title>
<path fill="none" stroke="midnightblue" d="M693,-56.083C693,-49.0059 693,-38.8611 693,-29.9865"/>
<polygon fill="midnightblue" stroke="midnightblue" points="696.5,-29.751 693,-19.7511 689.5,-29.7511 696.5,-29.751"/>
</g>
</g>
</svg>
        <g id="navigator" transform="translate(0 0)" fill="#404254">
                <rect fill="#f2f5e9" fill-opacity="0.5" stroke="#606060" stroke-width=".5" x="0" y="0" width="60" height="60"/>
                <use id="zoomplus" xlink:href="#zoomPlus" x="17" y="9" onmousedown="handleZoom(evt,'in')"/>
                <use id="zoomminus" xlink:href="#zoomMin" x="42" y="9" onmousedown="handleZoom(evt,'out')"/>
                <use id="reset" xlink:href="#resetDef" x="30" y="36" onmousedown="handleReset()"/>
                <g id="arrowUp" xlink:href="#dirArrow" transform="translate(30 24)" onmousedown="handlePan(0,-1)">
                  <use xlink:href="#rim" fill="#404040">
                        <set attributeName="fill" to="#808080" begin="arrowUp.mouseover" end="arrowUp.mouseout"/>
                  </use>
                  <path fill="none" stroke="white" stroke-width="1.5" d="M0,-3.0v7 M-2.5,-0.5L0,-3.0L2.5,-0.5"/>
                </g>
                <g id="arrowRight" xlink:href="#dirArrow" transform="rotate(90) translate(36 -43)" onmousedown="handlePan(1,0)">
                  <use xlink:href="#rim" fill="#404040">
                        <set attributeName="fill" to="#808080" begin="arrowRight.mouseover" end="arrowRight.mouseout"/>
                  </use>
                  <path fill="none" stroke="white" stroke-width="1.5" d="M0,-3.0v7 M-2.5,-0.5L0,-3.0L2.5,-0.5"/>
                </g>
                <g id="arrowDown" xlink:href="#dirArrow" transform="rotate(180) translate(-30 -48)" onmousedown="handlePan(0,1)">
                  <use xlink:href="#rim" fill="#404040">
                        <set attributeName="fill" to="#808080" begin="arrowDown.mouseover" end="arrowDown.mouseout"/>
                  </use>
                  <path fill="none" stroke="white" stroke-width="1.5" d="M0,-3.0v7 M-2.5,-0.5L0,-3.0L2.5,-0.5"/>
                </g>
                <g id="arrowLeft" xlink:href="#dirArrow" transform="rotate(270) translate(-36 17)" onmousedown="handlePan(-1,0)">
                  <use xlink:href="#rim" fill="#404040">
                        <set attributeName="fill" to="#808080" begin="arrowLeft.mouseover" end="arrowLeft.mouseout"/>
                  </use>
                  <path fill="none" stroke="white" stroke-width="1.5" d="M0,-3.0v7 M-2.5,-0.5L0,-3.0L2.5,-0.5"/>
                </g>
        </g>
        <svg viewBox="0 0 15 15" width="100%" height="30px" preserveAspectRatio="xMaxYMin meet">
         <g id="arrow_out" transform="scale(0.3 0.3)">
          <a xlink:href="_vaisseau_attaquant_8h__incl_org.svg" target="_base">
           <rect id="button" ry="5" rx="5" y="6" x="6" height="38" width="38"
                fill="#f2f5e9" fill-opacity="0.5" stroke="#606060" stroke-width="1.0"/>
           <path id="arrow"
             d="M 11.500037,31.436501 C 11.940474,20.09759 22.043105,11.32322 32.158766,21.979434 L 37.068811,17.246167 C 37.068811,17.246167 37.088388,32 37.088388,32 L 22.160133,31.978069 C 22.160133,31.978069 26.997745,27.140456 26.997745,27.140456 C 18.528582,18.264221 13.291696,25.230495 11.500037,31.436501 z"
             style="fill:#404040;"/>
          </a>
         </g>
        </svg>
</svg>
