<?xml version="1.0" encoding="UTF-8" standalone="no"?>
<!DOCTYPE svg PUBLIC "-//W3C//DTD SVG 1.1//EN"
 "http://www.w3.org/Graphics/SVG/1.1/DTD/svg11.dtd">
<!-- Generated by graphviz version 2.38.0 (20140413.2041)
 -->
<!-- Title: src/Vaisseau/Vaisseau.h Pages: 1 -->
<!--zoomable 319 -->
<svg id="main" version="1.1" xmlns="http://www.w3.org/2000/svg" xmlns:xlink="http://www.w3.org/1999/xlink" xml:space="preserve" onload="init(evt)">
<style type="text/css"><![CDATA[
.edge:hover path { stroke: red; }
.edge:hover polygon { stroke: red; fill: red; }
]]></style>
<script type="text/javascript"><![CDATA[
var edges = document.getElementsByTagName('g');
if (edges && edges.length) {
  for (var i=0;i<edges.length;i++) {
    if (edges[i].id.substr(0,4)=='edge') {
      edges[i].setAttribute('class','edge');
    }
  }
}
]]></script>
        <defs>
                <circle id="rim" cx="0" cy="0" r="7"/>
                <circle id="rim2" cx="0" cy="0" r="3.5"/>
                <g id="zoomPlus">
                        <use xlink:href="#rim" fill="#404040">
                                <set attributeName="fill" to="#808080" begin="zoomplus.mouseover" end="zoomplus.mouseout"/>
                        </use>
                        <path d="M-4,0h8M0,-4v8" fill="none" stroke="white" stroke-width="1.5" pointer-events="none"/>
                </g>
                <g id="zoomMin">
                        <use xlink:href="#rim" fill="#404040">
                                <set attributeName="fill" to="#808080" begin="zoomminus.mouseover" end="zoomminus.mouseout"/>
                        </use>
                        <path d="M-4,0h8" fill="none" stroke="white" stroke-width="1.5" pointer-events="none"/>
                </g>
                <g id="dirArrow">
                        <path fill="none" stroke="white" stroke-width="1.5" d="M0,-3.0v7 M-2.5,-0.5L0,-3.0L2.5,-0.5"/>
                </g>
               <g id="resetDef">
                       <use xlink:href="#rim2" fill="#404040">
                               <set attributeName="fill" to="#808080" begin="reset.mouseover" end="reset.mouseout"/>
                       </use>
               </g>
        </defs>

<script type="text/javascript">
var viewWidth = 1607;
var viewHeight = 319;
var sectionId = 'dynsection-1';
</script>
<script xlink:href="svgpan.js"/>
<svg id="graph" class="graph">
<g id="viewport">
<title>src/Vaisseau/Vaisseau.h</title>
<polygon fill="white" stroke="none" points="-4,4 -4,-315 1603,-315 1603,4 -4,4"/>
<!-- Node14 -->
<g id="node1" class="node"><title>Node14</title>
<polygon fill="#bfbfbf" stroke="black" points="782.5,-291.5 782.5,-310.5 907.5,-310.5 907.5,-291.5 782.5,-291.5"/>
<text text-anchor="middle" x="845" y="-298.5" font-family="Helvetica,sans-Serif" font-size="10.00">src/Vaisseau/Vaisseau.h</text>
</g>
<!-- Node15 -->
<g id="node2" class="node"><title>Node15</title>
<g id="a_node2"><a xlink:href="_capacite_8cpp.html" target="_top" xlink:title="src/Capacites/Capacite.cpp">
<polygon fill="white" stroke="black" points="0,-235.5 0,-254.5 138,-254.5 138,-235.5 0,-235.5"/>
<text text-anchor="middle" x="69" y="-242.5" font-family="Helvetica,sans-Serif" font-size="10.00">src/Capacites/Capacite.cpp</text>
</a>
</g>
</g>
<!-- Node14&#45;&gt;Node15 -->
<g id="edge1" class="edge"><title>Node14&#45;&gt;Node15</title>
<path fill="none" stroke="midnightblue" d="M772.353,-296.527C645.372,-290.187 374.857,-275.477 147,-255 144.149,-254.744 141.241,-254.469 138.304,-254.181"/>
<polygon fill="midnightblue" stroke="midnightblue" points="772.188,-300.023 782.35,-297.024 772.536,-293.032 772.188,-300.023"/>
</g>
<!-- Node16 -->
<g id="node3" class="node"><title>Node16</title>
<g id="a_node3"><a xlink:href="_partie_8h.html" target="_top" xlink:title="src/Partie.h">
<polygon fill="white" stroke="black" points="156.5,-235.5 156.5,-254.5 223.5,-254.5 223.5,-235.5 156.5,-235.5"/>
<text text-anchor="middle" x="190" y="-242.5" font-family="Helvetica,sans-Serif" font-size="10.00">src/Partie.h</text>
</a>
</g>
</g>
<!-- Node14&#45;&gt;Node16 -->
<g id="edge2" class="edge"><title>Node14&#45;&gt;Node16</title>
<path fill="none" stroke="midnightblue" d="M772.009,-295.819C660.577,-289.121 441.425,-274.708 256,-255 245.42,-253.876 233.921,-252.397 223.529,-250.964"/>
<polygon fill="midnightblue" stroke="midnightblue" points="771.935,-299.321 782.126,-296.424 772.353,-292.333 771.935,-299.321"/>
</g>
<!-- Node19 -->
<g id="node6" class="node"><title>Node19</title>
<g id="a_node6"><a xlink:href="_vaisseau_eclaireur_8h.html" target="_top" xlink:title="src/Vaisseau/VaisseauEclaireur.h">
<polygon fill="white" stroke="black" points="524,-235.5 524,-254.5 688,-254.5 688,-235.5 524,-235.5"/>
<text text-anchor="middle" x="606" y="-242.5" font-family="Helvetica,sans-Serif" font-size="10.00">src/Vaisseau/VaisseauEclaireur.h</text>
</a>
</g>
</g>
<!-- Node14&#45;&gt;Node19 -->
<g id="edge5" class="edge"><title>Node14&#45;&gt;Node19</title>
<path fill="none" stroke="midnightblue" d="M797.276,-289.217C752.115,-279.013 685.227,-263.901 643.693,-254.516"/>
<polygon fill="midnightblue" stroke="midnightblue" points="796.604,-292.654 807.13,-291.444 798.147,-285.826 796.604,-292.654"/>
</g>
<!-- Node21 -->
<g id="node8" class="node"><title>Node21</title>
<g id="a_node8"><a xlink:href="vague_8h.html" target="_top" xlink:title="src/vague.h">
<polygon fill="white" stroke="black" points="651,-56.5 651,-75.5 719,-75.5 719,-56.5 651,-56.5"/>
<text text-anchor="middle" x="685" y="-63.5" font-family="Helvetica,sans-Serif" font-size="10.00">src/vague.h</text>
</a>
</g>
</g>
<!-- Node14&#45;&gt;Node21 -->
<g id="edge24" class="edge"><title>Node14&#45;&gt;Node21</title>
<path fill="none" stroke="midnightblue" d="M917.734,-292.141C972.607,-285.19 1049.38,-273.273 1115,-255 1185.94,-235.245 1299.37,-227.512 1256,-168 1192.27,-80.5361 832.838,-68.7451 719.343,-67.2118"/>
<polygon fill="midnightblue" stroke="midnightblue" points="917.243,-288.675 907.751,-293.382 918.106,-295.622 917.243,-288.675"/>
</g>
<!-- Node24 -->
<g id="node11" class="node"><title>Node24</title>
<g id="a_node11"><a xlink:href="_vaisseau_test_8h.html" target="_top" xlink:title="src/Vaisseau/VaisseauTest.h">
<polygon fill="white" stroke="black" points="264.5,-235.5 264.5,-254.5 409.5,-254.5 409.5,-235.5 264.5,-235.5"/>
<text text-anchor="middle" x="337" y="-242.5" font-family="Helvetica,sans-Serif" font-size="10.00">src/Vaisseau/VaisseauTest.h</text>
</a>
</g>
</g>
<!-- Node14&#45;&gt;Node24 -->
<g id="edge12" class="edge"><title>Node14&#45;&gt;Node24</title>
<path fill="none" stroke="midnightblue" d="M772.486,-292.292C675.934,-282.028 506.145,-263.98 409.567,-253.714"/>
<polygon fill="midnightblue" stroke="midnightblue" points="772.141,-295.775 782.455,-293.351 772.881,-288.814 772.141,-295.775"/>
</g>
<!-- Node26 -->
<g id="node13" class="node"><title>Node26</title>
<g id="a_node13"><a xlink:href="_vaisseau_attaquant_8h.html" target="_top" xlink:title="src/Vaisseau/VaisseauAttaquant.h">
<polygon fill="white" stroke="black" points="706.5,-235.5 706.5,-254.5 873.5,-254.5 873.5,-235.5 706.5,-235.5"/>
<text text-anchor="middle" x="790" y="-242.5" font-family="Helvetica,sans-Serif" font-size="10.00">src/Vaisseau/VaisseauAttaquant.h</text>
</a>
</g>
</g>
<!-- Node14&#45;&gt;Node26 -->
<g id="edge15" class="edge"><title>Node14&#45;&gt;Node26</title>
<path fill="none" stroke="midnightblue" d="M828.706,-284.002C818.959,-274.433 806.947,-262.639 798.913,-254.751"/>
<polygon fill="midnightblue" stroke="midnightblue" points="826.33,-286.575 835.918,-291.083 831.234,-281.58 826.33,-286.575"/>
</g>
<!-- Node28 -->
<g id="node15" class="node"><title>Node28</title>
<g id="a_node15"><a xlink:href="_vaisseau_defenseur_8h.html" target="_top" xlink:title="src/Vaisseau/VaisseauDefenseur.h">
<polygon fill="white" stroke="black" points="897,-174 897,-193 1067,-193 1067,-174 897,-174"/>
<text text-anchor="middle" x="982" y="-181" font-family="Helvetica,sans-Serif" font-size="10.00">src/Vaisseau/VaisseauDefenseur.h</text>
</a>
</g>
</g>
<!-- Node14&#45;&gt;Node28 -->
<g id="edge18" class="edge"><title>Node14&#45;&gt;Node28</title>
<path fill="none" stroke="midnightblue" d="M862.186,-284.843C877.305,-271.572 899.965,-251.835 920,-235 937.644,-220.175 958.475,-203.342 970.941,-193.339"/>
<polygon fill="midnightblue" stroke="midnightblue" points="859.825,-282.258 854.627,-291.491 864.448,-287.515 859.825,-282.258"/>
</g>
<!-- Node30 -->
<g id="node17" class="node"><title>Node30</title>
<g id="a_node17"><a xlink:href="_vaisseau_defenseur_b_8h.html" target="_top" xlink:title="src/Vaisseau/VaisseauDefenseurB.h">
<polygon fill="white" stroke="black" points="928.5,-235.5 928.5,-254.5 1105.5,-254.5 1105.5,-235.5 928.5,-235.5"/>
<text text-anchor="middle" x="1017" y="-242.5" font-family="Helvetica,sans-Serif" font-size="10.00">src/Vaisseau/VaisseauDefenseurB.h</text>
</a>
</g>
</g>
<!-- Node14&#45;&gt;Node30 -->
<g id="edge21" class="edge"><title>Node14&#45;&gt;Node30</title>
<path fill="none" stroke="midnightblue" d="M881.832,-288.436C914.262,-278.255 960.737,-263.664 989.874,-254.516"/>
<polygon fill="midnightblue" stroke="midnightblue" points="880.746,-285.109 872.254,-291.444 882.843,-291.787 880.746,-285.109"/>
</g>
<!-- Node32 -->
<g id="node19" class="node"><title>Node32</title>
<g id="a_node19"><a xlink:href="_projectile_8cpp.html" target="_top" xlink:title="src/Projectiles/Projectile.cpp">
<polygon fill="white" stroke="black" points="1303.5,-235.5 1303.5,-254.5 1444.5,-254.5 1444.5,-235.5 1303.5,-235.5"/>
<text text-anchor="middle" x="1374" y="-242.5" font-family="Helvetica,sans-Serif" font-size="10.00">src/Projectiles/Projectile.cpp</text>
</a>
</g>
</g>
<!-- Node14&#45;&gt;Node32 -->
<g id="edge25" class="edge"><title>Node14&#45;&gt;Node32</title>
<path fill="none" stroke="midnightblue" d="M917.645,-292.738C1005.58,-283.924 1158.16,-268.557 1289,-255 1293.58,-254.526 1298.29,-254.035 1303.04,-253.537"/>
<polygon fill="midnightblue" stroke="midnightblue" points="917.11,-289.274 907.509,-293.754 917.808,-296.239 917.11,-289.274"/>
</g>
<!-- Node33 -->
<g id="node20" class="node"><title>Node33</title>
<g id="a_node20"><a xlink:href="_vaisseau_8cpp.html" target="_top" xlink:title="src/Vaisseau/Vaisseau.cpp">
<polygon fill="white" stroke="black" points="1463,-235.5 1463,-254.5 1599,-254.5 1599,-235.5 1463,-235.5"/>
<text text-anchor="middle" x="1531" y="-242.5" font-family="Helvetica,sans-Serif" font-size="10.00">src/Vaisseau/Vaisseau.cpp</text>
</a>
</g>
</g>
<!-- Node14&#45;&gt;Node33 -->
<g id="edge26" class="edge"><title>Node14&#45;&gt;Node33</title>
<path fill="none" stroke="midnightblue" d="M917.792,-295.627C1032.1,-288.533 1260.63,-273.436 1454,-255 1456.95,-254.719 1459.96,-254.42 1463,-254.108"/>
<polygon fill="midnightblue" stroke="midnightblue" points="917.523,-292.137 907.758,-296.247 917.955,-299.124 917.523,-292.137"/>
</g>
<!-- Node17 -->
<g id="node4" class="node"><title>Node17</title>
<g id="a_node4"><a xlink:href="main_8cpp.html" target="_top" xlink:title="src/main.cpp">
<polygon fill="white" stroke="black" points="129.5,-174 129.5,-193 202.5,-193 202.5,-174 129.5,-174"/>
<text text-anchor="middle" x="166" y="-181" font-family="Helvetica,sans-Serif" font-size="10.00">src/main.cpp</text>
</a>
</g>
</g>
<!-- Node16&#45;&gt;Node17 -->
<g id="edge3" class="edge"><title>Node16&#45;&gt;Node17</title>
<path fill="none" stroke="midnightblue" d="M182.738,-225.997C178.323,-215.05 172.887,-201.575 169.432,-193.009"/>
<polygon fill="midnightblue" stroke="midnightblue" points="179.575,-227.51 186.561,-235.475 186.066,-224.892 179.575,-227.51"/>
</g>
<!-- Node18 -->
<g id="node5" class="node"><title>Node18</title>
<g id="a_node5"><a xlink:href="_partie_8cpp.html" target="_top" xlink:title="src/Partie.cpp">
<polygon fill="white" stroke="black" points="558.5,-0.5 558.5,-19.5 635.5,-19.5 635.5,-0.5 558.5,-0.5"/>
<text text-anchor="middle" x="597" y="-7.5" font-family="Helvetica,sans-Serif" font-size="10.00">src/Partie.cpp</text>
</a>
</g>
</g>
<!-- Node16&#45;&gt;Node18 -->
<g id="edge4" class="edge"><title>Node16&#45;&gt;Node18</title>
<path fill="none" stroke="midnightblue" d="M156.176,-230.964C142.362,-223.764 127.819,-213.321 120,-199 113.398,-186.907 111.923,-179.162 120,-168 173.091,-94.6331 454.151,-36.9486 558.211,-17.8105"/>
<polygon fill="midnightblue" stroke="midnightblue" points="154.999,-234.281 165.531,-235.438 158.019,-227.966 154.999,-234.281"/>
</g>
<!-- Node20 -->
<g id="node7" class="node"><title>Node20</title>
<g id="a_node7"><a xlink:href="__vaisseaux_8h.html" target="_top" xlink:title="src/Vaisseau/_vaisseaux.h">
<polygon fill="white" stroke="black" points="587,-112.5 587,-131.5 721,-131.5 721,-112.5 587,-112.5"/>
<text text-anchor="middle" x="654" y="-119.5" font-family="Helvetica,sans-Serif" font-size="10.00">src/Vaisseau/_vaisseaux.h</text>
</a>
</g>
</g>
<!-- Node19&#45;&gt;Node20 -->
<g id="edge6" class="edge"><title>Node19&#45;&gt;Node20</title>
<path fill="none" stroke="midnightblue" d="M613.259,-225.7C623.773,-199.197 642.826,-151.169 650.579,-131.623"/>
<polygon fill="midnightblue" stroke="midnightblue" points="609.886,-224.712 609.452,-235.298 616.393,-227.293 609.886,-224.712"/>
</g>
<!-- Node23 -->
<g id="node10" class="node"><title>Node23</title>
<g id="a_node10"><a xlink:href="_vaisseau_eclaireur_8cpp.html" target="_top" xlink:title="src/Vaisseau/VaisseauEclaireur.cpp">
<polygon fill="white" stroke="black" points="433,-174 433,-193 607,-193 607,-174 433,-174"/>
<text text-anchor="middle" x="520" y="-181" font-family="Helvetica,sans-Serif" font-size="10.00">src/Vaisseau/VaisseauEclaireur.cpp</text>
</a>
</g>
</g>
<!-- Node19&#45;&gt;Node23 -->
<g id="edge11" class="edge"><title>Node19&#45;&gt;Node23</title>
<path fill="none" stroke="midnightblue" d="M585.205,-229.613C568.665,-218.169 546.083,-202.546 532.299,-193.009"/>
<polygon fill="midnightblue" stroke="midnightblue" points="583.463,-232.664 593.678,-235.475 587.446,-226.907 583.463,-232.664"/>
</g>
<!-- Node20&#45;&gt;Node18 -->
<g id="edge7" class="edge"><title>Node20&#45;&gt;Node18</title>
<path fill="none" stroke="midnightblue" d="M644.839,-103.32C632.428,-79.3697 610.757,-37.5484 601.452,-19.5914"/>
<polygon fill="midnightblue" stroke="midnightblue" points="641.819,-105.1 649.527,-112.368 648.034,-101.879 641.819,-105.1"/>
</g>
<!-- Node20&#45;&gt;Node21 -->
<g id="edge8" class="edge"><title>Node20&#45;&gt;Node21</title>
<path fill="none" stroke="midnightblue" d="M664.176,-103.275C669.474,-94.0454 675.717,-83.1703 679.976,-75.7511"/>
<polygon fill="midnightblue" stroke="midnightblue" points="661.062,-101.668 659.119,-112.083 667.133,-105.153 661.062,-101.668"/>
</g>
<!-- Node21&#45;&gt;Node18 -->
<g id="edge9" class="edge"><title>Node21&#45;&gt;Node18</title>
<path fill="none" stroke="midnightblue" d="M662.023,-50.9005C645.887,-40.9986 624.819,-28.0705 611.104,-19.6545"/>
<polygon fill="midnightblue" stroke="midnightblue" points="660.507,-54.0769 670.861,-56.324 664.169,-48.1106 660.507,-54.0769"/>
</g>
<!-- Node22 -->
<g id="node9" class="node"><title>Node22</title>
<g id="a_node9"><a xlink:href="vague_8cpp.html" target="_top" xlink:title="src/vague.cpp">
<polygon fill="white" stroke="black" points="654,-0.5 654,-19.5 732,-19.5 732,-0.5 654,-0.5"/>
<text text-anchor="middle" x="693" y="-7.5" font-family="Helvetica,sans-Serif" font-size="10.00">src/vague.cpp</text>
</a>
</g>
</g>
<!-- Node21&#45;&gt;Node22 -->
<g id="edge10" class="edge"><title>Node21&#45;&gt;Node22</title>
<path fill="none" stroke="midnightblue" d="M687.8,-46.1005C689.128,-37.1357 690.651,-26.8579 691.704,-19.7511"/>
<polygon fill="midnightblue" stroke="midnightblue" points="684.324,-45.678 686.321,-56.083 691.249,-46.7039 684.324,-45.678"/>
</g>
<!-- Node24&#45;&gt;Node20 -->
<g id="edge13" class="edge"><title>Node24&#45;&gt;Node20</title>
<path fill="none" stroke="midnightblue" d="M293.38,-231.849C277.153,-224.978 260.41,-214.545 251,-199 243.865,-187.214 241.814,-178.269 251,-168 272.943,-143.47 477.863,-130.766 586.734,-125.699"/>
<polygon fill="midnightblue" stroke="midnightblue" points="292.226,-235.155 302.816,-235.493 294.749,-228.625 292.226,-235.155"/>
</g>
<!-- Node25 -->
<g id="node12" class="node"><title>Node25</title>
<g id="a_node12"><a xlink:href="_vaisseau_test_8cpp.html" target="_top" xlink:title="src/Vaisseau/VaisseauTest.cpp">
<polygon fill="white" stroke="black" points="259.5,-174 259.5,-193 414.5,-193 414.5,-174 259.5,-174"/>
<text text-anchor="middle" x="337" y="-181" font-family="Helvetica,sans-Serif" font-size="10.00">src/Vaisseau/VaisseauTest.cpp</text>
</a>
</g>
</g>
<!-- Node24&#45;&gt;Node25 -->
<g id="edge14" class="edge"><title>Node24&#45;&gt;Node25</title>
<path fill="none" stroke="midnightblue" d="M337,-225.317C337,-214.496 337,-201.398 337,-193.009"/>
<polygon fill="midnightblue" stroke="midnightblue" points="333.5,-225.475 337,-235.475 340.5,-225.475 333.5,-225.475"/>
</g>
<!-- Node26&#45;&gt;Node20 -->
<g id="edge16" class="edge"><title>Node26&#45;&gt;Node20</title>
<path fill="none" stroke="midnightblue" d="M748.459,-232.015C729.441,-224.877 707.698,-214.186 692,-199 671.855,-179.512 660.681,-147.088 656.258,-131.664"/>
<polygon fill="midnightblue" stroke="midnightblue" points="747.515,-235.393 758.11,-235.429 749.85,-228.794 747.515,-235.393"/>
</g>
<!-- Node27 -->
<g id="node14" class="node"><title>Node27</title>
<g id="a_node14"><a xlink:href="_vaisseau_attaquant_8cpp.html" target="_top" xlink:title="src/Vaisseau/VaisseauAttaquant.cpp">
<polygon fill="white" stroke="black" points="701,-174 701,-193 879,-193 879,-174 701,-174"/>
<text text-anchor="middle" x="790" y="-181" font-family="Helvetica,sans-Serif" font-size="10.00">src/Vaisseau/VaisseauAttaquant.cpp</text>
</a>
</g>
</g>
<!-- Node26&#45;&gt;Node27 -->
<g id="edge17" class="edge"><title>Node26&#45;&gt;Node27</title>
<path fill="none" stroke="midnightblue" d="M790,-225.317C790,-214.496 790,-201.398 790,-193.009"/>
<polygon fill="midnightblue" stroke="midnightblue" points="786.5,-225.475 790,-235.475 793.5,-225.475 786.5,-225.475"/>
</g>
<!-- Node28&#45;&gt;Node20 -->
<g id="edge19" class="edge"><title>Node28&#45;&gt;Node20</title>
<path fill="none" stroke="midnightblue" d="M925.155,-172.188C861.66,-160.67 760.052,-142.238 700.907,-131.509"/>
<polygon fill="midnightblue" stroke="midnightblue" points="924.541,-175.634 935.006,-173.975 925.791,-168.746 924.541,-175.634"/>
</g>
<!-- Node29 -->
<g id="node16" class="node"><title>Node29</title>
<g id="a_node16"><a xlink:href="_vaisseau_defenseur_8cpp.html" target="_top" xlink:title="src/Vaisseau/VaisseauDefenseur.cpp">
<polygon fill="white" stroke="black" points="891.5,-112.5 891.5,-131.5 1072.5,-131.5 1072.5,-112.5 891.5,-112.5"/>
<text text-anchor="middle" x="982" y="-119.5" font-family="Helvetica,sans-Serif" font-size="10.00">src/Vaisseau/VaisseauDefenseur.cpp</text>
</a>
</g>
</g>
<!-- Node28&#45;&gt;Node29 -->
<g id="edge20" class="edge"><title>Node28&#45;&gt;Node29</title>
<path fill="none" stroke="midnightblue" d="M982,-163.817C982,-152.996 982,-139.898 982,-131.509"/>
<polygon fill="midnightblue" stroke="midnightblue" points="978.5,-163.975 982,-173.975 985.5,-163.975 978.5,-163.975"/>
</g>
<!-- Node30&#45;&gt;Node28 -->
<g id="edge22" class="edge"><title>Node30&#45;&gt;Node28</title>
<path fill="none" stroke="midnightblue" d="M1006.81,-226.671C1000.3,-215.608 992.148,-201.751 987.005,-193.009"/>
<polygon fill="midnightblue" stroke="midnightblue" points="1003.9,-228.63 1011.99,-235.475 1009.93,-225.081 1003.9,-228.63"/>
</g>
<!-- Node31 -->
<g id="node18" class="node"><title>Node31</title>
<g id="a_node18"><a xlink:href="_vaisseau_defenseur_b_8cpp.html" target="_top" xlink:title="src/Vaisseau/VaisseauDefenseur\lB.cpp">
<polygon fill="white" stroke="black" points="1085,-168.5 1085,-198.5 1247,-198.5 1247,-168.5 1085,-168.5"/>
<text text-anchor="start" x="1093" y="-186.5" font-family="Helvetica,sans-Serif" font-size="10.00">src/Vaisseau/VaisseauDefenseur</text>
<text text-anchor="middle" x="1166" y="-175.5" font-family="Helvetica,sans-Serif" font-size="10.00">B.cpp</text>
</a>
</g>
</g>
<!-- Node30&#45;&gt;Node31 -->
<g id="edge23" class="edge"><title>Node30&#45;&gt;Node31</title>
<path fill="none" stroke="midnightblue" d="M1047.75,-231.719C1071.94,-222.062 1105.64,-208.602 1130.88,-198.523"/>
<polygon fill="midnightblue" stroke="midnightblue" points="1046.34,-228.516 1038.35,-235.475 1048.93,-235.017 1046.34,-228.516"/>
</g>
</g>
</svg>
        <g id="navigator" transform="translate(0 0)" fill="#404254">
                <rect fill="#f2f5e9" fill-opacity="0.5" stroke="#606060" stroke-width=".5" x="0" y="0" width="60" height="60"/>
                <use id="zoomplus" xlink:href="#zoomPlus" x="17" y="9" onmousedown="handleZoom(evt,'in')"/>
                <use id="zoomminus" xlink:href="#zoomMin" x="42" y="9" onmousedown="handleZoom(evt,'out')"/>
                <use id="reset" xlink:href="#resetDef" x="30" y="36" onmousedown="handleReset()"/>
                <g id="arrowUp" xlink:href="#dirArrow" transform="translate(30 24)" onmousedown="handlePan(0,-1)">
                  <use xlink:href="#rim" fill="#404040">
                        <set attributeName="fill" to="#808080" begin="arrowUp.mouseover" end="arrowUp.mouseout"/>
                  </use>
                  <path fill="none" stroke="white" stroke-width="1.5" d="M0,-3.0v7 M-2.5,-0.5L0,-3.0L2.5,-0.5"/>
                </g>
                <g id="arrowRight" xlink:href="#dirArrow" transform="rotate(90) translate(36 -43)" onmousedown="handlePan(1,0)">
                  <use xlink:href="#rim" fill="#404040">
                        <set attributeName="fill" to="#808080" begin="arrowRight.mouseover" end="arrowRight.mouseout"/>
                  </use>
                  <path fill="none" stroke="white" stroke-width="1.5" d="M0,-3.0v7 M-2.5,-0.5L0,-3.0L2.5,-0.5"/>
                </g>
                <g id="arrowDown" xlink:href="#dirArrow" transform="rotate(180) translate(-30 -48)" onmousedown="handlePan(0,1)">
                  <use xlink:href="#rim" fill="#404040">
                        <set attributeName="fill" to="#808080" begin="arrowDown.mouseover" end="arrowDown.mouseout"/>
                  </use>
                  <path fill="none" stroke="white" stroke-width="1.5" d="M0,-3.0v7 M-2.5,-0.5L0,-3.0L2.5,-0.5"/>
                </g>
                <g id="arrowLeft" xlink:href="#dirArrow" transform="rotate(270) translate(-36 17)" onmousedown="handlePan(-1,0)">
                  <use xlink:href="#rim" fill="#404040">
                        <set attributeName="fill" to="#808080" begin="arrowLeft.mouseover" end="arrowLeft.mouseout"/>
                  </use>
                  <path fill="none" stroke="white" stroke-width="1.5" d="M0,-3.0v7 M-2.5,-0.5L0,-3.0L2.5,-0.5"/>
                </g>
        </g>
        <svg viewBox="0 0 15 15" width="100%" height="30px" preserveAspectRatio="xMaxYMin meet">
         <g id="arrow_out" transform="scale(0.3 0.3)">
          <a xlink:href="_vaisseau_8h__dep__incl_org.svg" target="_base">
           <rect id="button" ry="5" rx="5" y="6" x="6" height="38" width="38"
                fill="#f2f5e9" fill-opacity="0.5" stroke="#606060" stroke-width="1.0"/>
           <path id="arrow"
             d="M 11.500037,31.436501 C 11.940474,20.09759 22.043105,11.32322 32.158766,21.979434 L 37.068811,17.246167 C 37.068811,17.246167 37.088388,32 37.088388,32 L 22.160133,31.978069 C 22.160133,31.978069 26.997745,27.140456 26.997745,27.140456 C 18.528582,18.264221 13.291696,25.230495 11.500037,31.436501 z"
             style="fill:#404040;"/>
          </a>
         </g>
        </svg>
</svg>
