<?xml version="1.0" encoding="UTF-8" standalone="no"?>
<!DOCTYPE svg PUBLIC "-//W3C//DTD SVG 1.1//EN"
 "http://www.w3.org/Graphics/SVG/1.1/DTD/svg11.dtd">
<!-- Generated by graphviz version 2.38.0 (20140413.2041)
 -->
<!-- Title: src/Vaisseau/VaisseauEclaireur.cpp Pages: 1 -->
<!--zoomable 364 -->
<svg id="main" version="1.1" xmlns="http://www.w3.org/2000/svg" xmlns:xlink="http://www.w3.org/1999/xlink" xml:space="preserve" onload="init(evt)">
<style type="text/css"><![CDATA[
.edge:hover path { stroke: red; }
.edge:hover polygon { stroke: red; fill: red; }
]]></style>
<script type="text/javascript"><![CDATA[
var edges = document.getElementsByTagName('g');
if (edges && edges.length) {
  for (var i=0;i<edges.length;i++) {
    if (edges[i].id.substr(0,4)=='edge') {
      edges[i].setAttribute('class','edge');
    }
  }
}
]]></script>
        <defs>
                <circle id="rim" cx="0" cy="0" r="7"/>
                <circle id="rim2" cx="0" cy="0" r="3.5"/>
                <g id="zoomPlus">
                        <use xlink:href="#rim" fill="#404040">
                                <set attributeName="fill" to="#808080" begin="zoomplus.mouseover" end="zoomplus.mouseout"/>
                        </use>
                        <path d="M-4,0h8M0,-4v8" fill="none" stroke="white" stroke-width="1.5" pointer-events="none"/>
                </g>
                <g id="zoomMin">
                        <use xlink:href="#rim" fill="#404040">
                                <set attributeName="fill" to="#808080" begin="zoomminus.mouseover" end="zoomminus.mouseout"/>
                        </use>
                        <path d="M-4,0h8" fill="none" stroke="white" stroke-width="1.5" pointer-events="none"/>
                </g>
                <g id="dirArrow">
                        <path fill="none" stroke="white" stroke-width="1.5" d="M0,-3.0v7 M-2.5,-0.5L0,-3.0L2.5,-0.5"/>
                </g>
               <g id="resetDef">
                       <use xlink:href="#rim2" fill="#404040">
                               <set attributeName="fill" to="#808080" begin="reset.mouseover" end="reset.mouseout"/>
                       </use>
               </g>
        </defs>

<script type="text/javascript">
var viewWidth = 795;
var viewHeight = 364;
var sectionId = 'dynsection-0';
</script>
<script xlink:href="svgpan.js"/>
<svg id="graph" class="graph">
<g id="viewport">
<title>src/Vaisseau/VaisseauEclaireur.cpp</title>
<polygon fill="white" stroke="none" points="-4,4 -4,-360 790.5,-360 790.5,4 -4,4"/>
<!-- Node0 -->
<g id="node1" class="node"><title>Node0</title>
<polygon fill="#bfbfbf" stroke="black" points="606.5,-336.5 606.5,-355.5 780.5,-355.5 780.5,-336.5 606.5,-336.5"/>
<text text-anchor="middle" x="693.5" y="-343.5" font-family="Helvetica,sans-Serif" font-size="10.00">src/Vaisseau/VaisseauEclaireur.cpp</text>
</g>
<!-- Node1 -->
<g id="node2" class="node"><title>Node1</title>
<g id="a_node2"><a xlink:href="_vaisseau_eclaireur_8h.html" target="_top" xlink:title="VaisseauEclaireur.h">
<polygon fill="white" stroke="black" points="596.5,-280.5 596.5,-299.5 700.5,-299.5 700.5,-280.5 596.5,-280.5"/>
<text text-anchor="middle" x="648.5" y="-287.5" font-family="Helvetica,sans-Serif" font-size="10.00">VaisseauEclaireur.h</text>
</a>
</g>
</g>
<!-- Node0&#45;&gt;Node1 -->
<g id="edge1" class="edge"><title>Node0&#45;&gt;Node1</title>
<path fill="none" stroke="midnightblue" d="M686.069,-336.083C679.647,-328.377 670.194,-317.033 662.378,-307.653"/>
<polygon fill="midnightblue" stroke="midnightblue" points="664.883,-305.193 655.793,-299.751 659.506,-309.674 664.883,-305.193"/>
</g>
<!-- Node17 -->
<g id="node18" class="node"><title>Node17</title>
<polygon fill="white" stroke="#bfbfbf" points="714.5,-168.5 714.5,-187.5 758.5,-187.5 758.5,-168.5 714.5,-168.5"/>
<text text-anchor="middle" x="736.5" y="-175.5" font-family="Helvetica,sans-Serif" font-size="10.00">cmath</text>
</g>
<!-- Node0&#45;&gt;Node17 -->
<g id="edge34" class="edge"><title>Node0&#45;&gt;Node17</title>
<path fill="none" stroke="midnightblue" d="M696.883,-336.475C700.361,-327.499 705.78,-312.907 709.5,-300 719.795,-264.275 728.49,-221.672 733.056,-197.737"/>
<polygon fill="midnightblue" stroke="midnightblue" points="736.554,-198.073 734.956,-187.599 729.674,-196.784 736.554,-198.073"/>
</g>
<!-- Node2 -->
<g id="node3" class="node"><title>Node2</title>
<polygon fill="white" stroke="#bfbfbf" points="600.5,-0.5 600.5,-19.5 644.5,-19.5 644.5,-0.5 600.5,-0.5"/>
<text text-anchor="middle" x="622.5" y="-7.5" font-family="Helvetica,sans-Serif" font-size="10.00">vector</text>
</g>
<!-- Node1&#45;&gt;Node2 -->
<g id="edge2" class="edge"><title>Node1&#45;&gt;Node2</title>
<path fill="none" stroke="midnightblue" d="M677.094,-280.487C717.515,-266.482 786.5,-234.455 786.5,-179 786.5,-179 786.5,-179 786.5,-121 786.5,-58.078 702.207,-28.8387 654.484,-17.3269"/>
<polygon fill="midnightblue" stroke="midnightblue" points="655.146,-13.8881 644.618,-15.0729 653.587,-20.7122 655.146,-13.8881"/>
</g>
<!-- Node3 -->
<g id="node4" class="node"><title>Node3</title>
<g id="a_node4"><a xlink:href="constantes_8h.html" target="_top" xlink:title="../constantes.h">
<polygon fill="white" stroke="black" points="127.5,-0.5 127.5,-19.5 209.5,-19.5 209.5,-0.5 127.5,-0.5"/>
<text text-anchor="middle" x="168.5" y="-7.5" font-family="Helvetica,sans-Serif" font-size="10.00">../constantes.h</text>
</a>
</g>
</g>
<!-- Node1&#45;&gt;Node3 -->
<g id="edge3" class="edge"><title>Node1&#45;&gt;Node3</title>
<path fill="none" stroke="midnightblue" d="M596.392,-288.227C519.184,-284.365 373.92,-266.317 284.5,-188 230.898,-141.054 191.937,-63.6556 176.196,-28.8871"/>
<polygon fill="midnightblue" stroke="midnightblue" points="179.311,-27.2769 172.066,-19.5464 172.909,-30.1076 179.311,-27.2769"/>
</g>
<!-- Node4 -->
<g id="node5" class="node"><title>Node4</title>
<g id="a_node5"><a xlink:href="_vaisseau_8h.html" target="_top" xlink:title="Vaisseau.h">
<polygon fill="white" stroke="black" points="398,-224.5 398,-243.5 463,-243.5 463,-224.5 398,-224.5"/>
<text text-anchor="middle" x="430.5" y="-231.5" font-family="Helvetica,sans-Serif" font-size="10.00">Vaisseau.h</text>
</a>
</g>
</g>
<!-- Node1&#45;&gt;Node4 -->
<g id="edge4" class="edge"><title>Node1&#45;&gt;Node4</title>
<path fill="none" stroke="midnightblue" d="M613.957,-280.444C575.692,-270.965 513.976,-255.678 472.834,-245.486"/>
<polygon fill="midnightblue" stroke="midnightblue" points="473.649,-242.083 463.101,-243.075 471.966,-248.877 473.649,-242.083"/>
</g>
<!-- Node16 -->
<g id="node17" class="node"><title>Node16</title>
<g id="a_node17"><a xlink:href="_trajectoire_8h.html" target="_top" xlink:title="../Utilitaires/Trajectoire.h">
<polygon fill="white" stroke="black" points="586.5,-224.5 586.5,-243.5 710.5,-243.5 710.5,-224.5 586.5,-224.5"/>
<text text-anchor="middle" x="648.5" y="-231.5" font-family="Helvetica,sans-Serif" font-size="10.00">../Utilitaires/Trajectoire.h</text>
</a>
</g>
</g>
<!-- Node1&#45;&gt;Node16 -->
<g id="edge30" class="edge"><title>Node1&#45;&gt;Node16</title>
<path fill="none" stroke="midnightblue" d="M648.5,-280.083C648.5,-273.006 648.5,-262.861 648.5,-253.986"/>
<polygon fill="midnightblue" stroke="midnightblue" points="652,-253.751 648.5,-243.751 645,-253.751 652,-253.751"/>
</g>
<!-- Node4&#45;&gt;Node2 -->
<g id="edge5" class="edge"><title>Node4&#45;&gt;Node2</title>
<path fill="none" stroke="midnightblue" d="M444.525,-224.222C457.59,-215.731 477.285,-202.106 492.5,-188 540.367,-143.623 550.714,-129.92 587.5,-76 597.861,-60.8136 607.599,-42.2391 614.16,-28.8409"/>
<polygon fill="midnightblue" stroke="midnightblue" points="617.353,-30.2768 618.515,-19.746 611.039,-27.2534 617.353,-30.2768"/>
</g>
<!-- Node5 -->
<g id="node6" class="node"><title>Node5</title>
<polygon fill="white" stroke="#bfbfbf" points="476,-56.5 476,-75.5 517,-75.5 517,-56.5 476,-56.5"/>
<text text-anchor="middle" x="496.5" y="-63.5" font-family="Helvetica,sans-Serif" font-size="10.00">string</text>
</g>
<!-- Node4&#45;&gt;Node5 -->
<g id="edge6" class="edge"><title>Node4&#45;&gt;Node5</title>
<path fill="none" stroke="midnightblue" d="M439.905,-224.409C448.882,-215.84 462.357,-201.973 471.5,-188 486.423,-165.192 490.82,-158.658 496.5,-132 499.774,-116.634 499.487,-98.7579 498.544,-85.6456"/>
<polygon fill="midnightblue" stroke="midnightblue" points="502.015,-85.1718 497.619,-75.532 495.044,-85.8092 502.015,-85.1718"/>
</g>
<!-- Node6 -->
<g id="node7" class="node"><title>Node6</title>
<polygon fill="white" stroke="#bfbfbf" points="212.5,-56.5 212.5,-75.5 268.5,-75.5 268.5,-56.5 212.5,-56.5"/>
<text text-anchor="middle" x="240.5" y="-63.5" font-family="Helvetica,sans-Serif" font-size="10.00">algorithm</text>
</g>
<!-- Node4&#45;&gt;Node6 -->
<g id="edge7" class="edge"><title>Node4&#45;&gt;Node6</title>
<path fill="none" stroke="midnightblue" d="M397.999,-227.815C370.904,-222.066 332.643,-210.461 306.5,-188 273.943,-160.029 254.607,-111.85 245.949,-85.514"/>
<polygon fill="midnightblue" stroke="midnightblue" points="249.203,-84.1918 242.884,-75.6872 242.52,-86.2758 249.203,-84.1918"/>
</g>
<!-- Node7 -->
<g id="node8" class="node"><title>Node7</title>
<g id="a_node8"><a xlink:href="_capacite_8h.html" target="_top" xlink:title="../Capacites/Capacite.h">
<polygon fill="white" stroke="black" points="326.5,-168.5 326.5,-187.5 446.5,-187.5 446.5,-168.5 326.5,-168.5"/>
<text text-anchor="middle" x="386.5" y="-175.5" font-family="Helvetica,sans-Serif" font-size="10.00">../Capacites/Capacite.h</text>
</a>
</g>
</g>
<!-- Node4&#45;&gt;Node7 -->
<g id="edge8" class="edge"><title>Node4&#45;&gt;Node7</title>
<path fill="none" stroke="midnightblue" d="M423.234,-224.083C416.955,-216.377 407.712,-205.033 400.069,-195.653"/>
<polygon fill="midnightblue" stroke="midnightblue" points="402.661,-193.293 393.631,-187.751 397.234,-197.714 402.661,-193.293"/>
</g>
<!-- Node8 -->
<g id="node9" class="node"><title>Node8</title>
<g id="a_node9"><a xlink:href="_projectile_8h.html" target="_top" xlink:title="../Projectiles/Projectile.h">
<polygon fill="white" stroke="black" points="345,-112.5 345,-131.5 468,-131.5 468,-112.5 345,-112.5"/>
<text text-anchor="middle" x="406.5" y="-119.5" font-family="Helvetica,sans-Serif" font-size="10.00">../Projectiles/Projectile.h</text>
</a>
</g>
</g>
<!-- Node4&#45;&gt;Node8 -->
<g id="edge24" class="edge"><title>Node4&#45;&gt;Node8</title>
<path fill="none" stroke="midnightblue" d="M438.116,-224.483C448.338,-211.965 464.254,-187.925 455.5,-168 450.11,-155.732 439.542,-145.341 429.596,-137.646"/>
<polygon fill="midnightblue" stroke="midnightblue" points="431.328,-134.581 421.161,-131.598 427.248,-140.27 431.328,-134.581"/>
</g>
<!-- Node9 -->
<g id="node10" class="node"><title>Node9</title>
<g id="a_node10"><a xlink:href="_entite_8h.html" target="_top" xlink:title="../Entite.h">
<polygon fill="white" stroke="black" points="313,-56.5 313,-75.5 372,-75.5 372,-56.5 313,-56.5"/>
<text text-anchor="middle" x="342.5" y="-63.5" font-family="Helvetica,sans-Serif" font-size="10.00">../Entite.h</text>
</a>
</g>
</g>
<!-- Node4&#45;&gt;Node9 -->
<g id="edge23" class="edge"><title>Node4&#45;&gt;Node9</title>
<path fill="none" stroke="midnightblue" d="M397.832,-229.773C371.256,-225.232 335.337,-214.303 317.5,-188 295.924,-156.184 316.808,-109.616 331.278,-84.5416"/>
<polygon fill="midnightblue" stroke="midnightblue" points="334.399,-86.1439 336.586,-75.7773 328.412,-82.5171 334.399,-86.1439"/>
</g>
<!-- Node13 -->
<g id="node14" class="node"><title>Node13</title>
<g id="a_node14"><a xlink:href="_input_8h.html" target="_top" xlink:title="../Interface/Input.h">
<polygon fill="white" stroke="black" points="39,-56.5 39,-75.5 136,-75.5 136,-56.5 39,-56.5"/>
<text text-anchor="middle" x="87.5" y="-63.5" font-family="Helvetica,sans-Serif" font-size="10.00">../Interface/Input.h</text>
</a>
</g>
</g>
<!-- Node4&#45;&gt;Node13 -->
<g id="edge25" class="edge"><title>Node4&#45;&gt;Node13</title>
<path fill="none" stroke="midnightblue" d="M397.746,-225.427C367.578,-217.869 321.956,-204.947 284.5,-188 216.019,-157.016 142.312,-106.615 107.668,-81.7834"/>
<polygon fill="midnightblue" stroke="midnightblue" points="109.504,-78.7914 99.3485,-75.7712 105.404,-84.4651 109.504,-78.7914"/>
</g>
<!-- Node7&#45;&gt;Node2 -->
<g id="edge9" class="edge"><title>Node7&#45;&gt;Node2</title>
<path fill="none" stroke="midnightblue" d="M415.516,-168.468C438.579,-160.922 471.075,-148.539 496.5,-132 542.892,-101.821 587.169,-53.1838 608.773,-27.7381"/>
<polygon fill="midnightblue" stroke="midnightblue" points="611.704,-29.6892 615.435,-19.7732 606.335,-25.198 611.704,-29.6892"/>
</g>
<!-- Node7&#45;&gt;Node5 -->
<g id="edge10" class="edge"><title>Node7&#45;&gt;Node5</title>
<path fill="none" stroke="midnightblue" d="M417.596,-168.404C437.062,-161.525 461.256,-149.995 476.5,-132 487.58,-118.92 492.525,-99.7696 494.73,-85.6411"/>
<polygon fill="midnightblue" stroke="midnightblue" points="498.218,-85.9539 495.976,-75.599 491.272,-85.092 498.218,-85.9539"/>
</g>
<!-- Node7&#45;&gt;Node6 -->
<g id="edge11" class="edge"><title>Node7&#45;&gt;Node6</title>
<path fill="none" stroke="midnightblue" d="M375.044,-168.368C350.203,-149.653 291.137,-105.151 260.187,-81.8324"/>
<polygon fill="midnightblue" stroke="midnightblue" points="261.996,-78.8135 251.903,-75.5914 257.784,-84.4044 261.996,-78.8135"/>
</g>
<!-- Node7&#45;&gt;Node8 -->
<g id="edge12" class="edge"><title>Node7&#45;&gt;Node8</title>
<path fill="none" stroke="midnightblue" d="M389.803,-168.083C392.482,-160.849 396.349,-150.409 399.686,-141.397"/>
<polygon fill="midnightblue" stroke="midnightblue" points="403.068,-142.344 403.259,-131.751 396.504,-139.913 403.068,-142.344"/>
</g>
<!-- Node7&#45;&gt;Node9 -->
<g id="edge22" class="edge"><title>Node7&#45;&gt;Node9</title>
<path fill="none" stroke="midnightblue" d="M370.766,-168.236C358.611,-160.481 342.688,-147.929 335.5,-132 328.869,-117.306 331.751,-98.9092 335.631,-85.4409"/>
<polygon fill="midnightblue" stroke="midnightblue" points="338.982,-86.4543 338.794,-75.8612 332.335,-84.2596 338.982,-86.4543"/>
</g>
<!-- Node8&#45;&gt;Node2 -->
<g id="edge13" class="edge"><title>Node8&#45;&gt;Node2</title>
<path fill="none" stroke="midnightblue" d="M412.053,-112.444C421.534,-98.5195 442.194,-71.0061 466.5,-56 505.24,-32.0823 557.196,-20.4321 590.269,-15.0905"/>
<polygon fill="midnightblue" stroke="midnightblue" points="590.94,-18.5289 600.303,-13.5703 589.891,-11.6079 590.94,-18.5289"/>
</g>
<!-- Node8&#45;&gt;Node5 -->
<g id="edge14" class="edge"><title>Node8&#45;&gt;Node5</title>
<path fill="none" stroke="midnightblue" d="M420.96,-112.324C435,-103.9 456.548,-90.9709 473.043,-81.0741"/>
<polygon fill="midnightblue" stroke="midnightblue" points="475.302,-83.8007 482.076,-75.6545 471.7,-77.7983 475.302,-83.8007"/>
</g>
<!-- Node8&#45;&gt;Node6 -->
<g id="edge15" class="edge"><title>Node8&#45;&gt;Node6</title>
<path fill="none" stroke="midnightblue" d="M380.197,-112.444C352.149,-103.32 307.556,-88.8133 276.316,-78.6509"/>
<polygon fill="midnightblue" stroke="midnightblue" points="277.272,-75.2816 266.68,-75.5164 275.107,-81.9383 277.272,-75.2816"/>
</g>
<!-- Node8&#45;&gt;Node9 -->
<g id="edge16" class="edge"><title>Node8&#45;&gt;Node9</title>
<path fill="none" stroke="midnightblue" d="M396.217,-112.324C386.664,-104.263 372.22,-92.0765 360.716,-82.3695"/>
<polygon fill="midnightblue" stroke="midnightblue" points="362.87,-79.6076 352.97,-75.8339 358.356,-84.9577 362.87,-79.6076"/>
</g>
<!-- Node9&#45;&gt;Node2 -->
<g id="edge17" class="edge"><title>Node9&#45;&gt;Node2</title>
<path fill="none" stroke="midnightblue" d="M372.2,-59.2722C425.221,-49.0466 535.725,-27.7352 590.417,-17.1874"/>
<polygon fill="midnightblue" stroke="midnightblue" points="591.11,-20.6184 600.266,-15.288 589.784,-13.7451 591.11,-20.6184"/>
</g>
<!-- Node9&#45;&gt;Node3 -->
<g id="edge21" class="edge"><title>Node9&#45;&gt;Node3</title>
<path fill="none" stroke="midnightblue" d="M314.929,-56.4435C285.403,-47.2801 238.382,-32.6876 205.617,-22.5192"/>
<polygon fill="midnightblue" stroke="midnightblue" points="206.53,-19.1378 195.942,-19.5164 204.455,-25.8232 206.53,-19.1378"/>
</g>
<!-- Node10 -->
<g id="node11" class="node"><title>Node10</title>
<polygon fill="white" stroke="#bfbfbf" points="465.5,-0.5 465.5,-19.5 517.5,-19.5 517.5,-0.5 465.5,-0.5"/>
<text text-anchor="middle" x="491.5" y="-7.5" font-family="Helvetica,sans-Serif" font-size="10.00">memory</text>
</g>
<!-- Node9&#45;&gt;Node10 -->
<g id="edge18" class="edge"><title>Node9&#45;&gt;Node10</title>
<path fill="none" stroke="midnightblue" d="M366.109,-56.4435C390.958,-47.4381 430.274,-33.1891 458.254,-23.049"/>
<polygon fill="midnightblue" stroke="midnightblue" points="459.792,-26.2144 468.001,-19.5164 457.407,-19.6332 459.792,-26.2144"/>
</g>
<!-- Node11 -->
<g id="node12" class="node"><title>Node11</title>
<polygon fill="white" stroke="#bfbfbf" points="349.5,-0.5 349.5,-19.5 447.5,-19.5 447.5,-0.5 349.5,-0.5"/>
<text text-anchor="middle" x="398.5" y="-7.5" font-family="Helvetica,sans-Serif" font-size="10.00">SFML/System.hpp</text>
</g>
<!-- Node9&#45;&gt;Node11 -->
<g id="edge19" class="edge"><title>Node9&#45;&gt;Node11</title>
<path fill="none" stroke="midnightblue" d="M351.497,-56.324C359.694,-48.4196 372.006,-36.5482 381.972,-26.9377"/>
<polygon fill="midnightblue" stroke="midnightblue" points="384.57,-29.2947 389.339,-19.8339 379.711,-24.2558 384.57,-29.2947"/>
</g>
<!-- Node12 -->
<g id="node13" class="node"><title>Node12</title>
<polygon fill="white" stroke="#bfbfbf" points="227.5,-0.5 227.5,-19.5 331.5,-19.5 331.5,-0.5 227.5,-0.5"/>
<text text-anchor="middle" x="279.5" y="-7.5" font-family="Helvetica,sans-Serif" font-size="10.00">SFML/Graphics.hpp</text>
</g>
<!-- Node9&#45;&gt;Node12 -->
<g id="edge20" class="edge"><title>Node9&#45;&gt;Node12</title>
<path fill="none" stroke="midnightblue" d="M332.378,-56.324C322.974,-48.2631 308.756,-36.0765 297.431,-26.3695"/>
<polygon fill="midnightblue" stroke="midnightblue" points="299.677,-23.6844 289.806,-19.8339 295.121,-28.9993 299.677,-23.6844"/>
</g>
<!-- Node13&#45;&gt;Node3 -->
<g id="edge29" class="edge"><title>Node13&#45;&gt;Node3</title>
<path fill="none" stroke="midnightblue" d="M100.514,-56.324C113.032,-47.979 132.182,-35.2122 146.971,-25.3524"/>
<polygon fill="midnightblue" stroke="midnightblue" points="149.139,-28.1137 155.518,-19.6545 145.256,-22.2894 149.139,-28.1137"/>
</g>
<!-- Node13&#45;&gt;Node12 -->
<g id="edge26" class="edge"><title>Node13&#45;&gt;Node12</title>
<path fill="none" stroke="midnightblue" d="M117.923,-56.4435C150.785,-47.2011 203.285,-32.4356 239.474,-22.2572"/>
<polygon fill="midnightblue" stroke="midnightblue" points="240.54,-25.5932 249.219,-19.5164 238.645,-18.8547 240.54,-25.5932"/>
</g>
<!-- Node14 -->
<g id="node15" class="node"><title>Node14</title>
<polygon fill="white" stroke="#bfbfbf" points="59.5,-0.5 59.5,-19.5 109.5,-19.5 109.5,-0.5 59.5,-0.5"/>
<text text-anchor="middle" x="84.5" y="-7.5" font-family="Helvetica,sans-Serif" font-size="10.00">optional</text>
</g>
<!-- Node13&#45;&gt;Node14 -->
<g id="edge27" class="edge"><title>Node13&#45;&gt;Node14</title>
<path fill="none" stroke="midnightblue" d="M87.0046,-56.083C86.6114,-49.0059 86.0478,-38.8611 85.5548,-29.9865"/>
<polygon fill="midnightblue" stroke="midnightblue" points="89.0356,-29.5415 84.9862,-19.7511 82.0464,-29.9299 89.0356,-29.5415"/>
</g>
<!-- Node15 -->
<g id="node16" class="node"><title>Node15</title>
<polygon fill="white" stroke="#bfbfbf" points="0,-0.5 0,-19.5 41,-19.5 41,-0.5 0,-0.5"/>
<text text-anchor="middle" x="20.5" y="-7.5" font-family="Helvetica,sans-Serif" font-size="10.00">bitset</text>
</g>
<!-- Node13&#45;&gt;Node15 -->
<g id="edge28" class="edge"><title>Node13&#45;&gt;Node15</title>
<path fill="none" stroke="midnightblue" d="M76.7353,-56.324C66.7339,-48.2631 51.6135,-36.0765 39.5695,-26.3695"/>
<polygon fill="midnightblue" stroke="midnightblue" points="41.4429,-23.3841 31.4606,-19.8339 37.0502,-28.8343 41.4429,-23.3841"/>
</g>
<!-- Node16&#45;&gt;Node2 -->
<g id="edge31" class="edge"><title>Node16&#45;&gt;Node2</title>
<path fill="none" stroke="midnightblue" d="M652.1,-224.222C655.556,-215.285 660.533,-200.942 662.5,-188 671.314,-129.999 683.349,-110.837 662.5,-56 658.165,-44.5976 649.469,-34.2394 641.29,-26.343"/>
<polygon fill="midnightblue" stroke="midnightblue" points="643.541,-23.6595 633.766,-19.5728 638.858,-28.8633 643.541,-23.6595"/>
</g>
<!-- Node16&#45;&gt;Node12 -->
<g id="edge32" class="edge"><title>Node16&#45;&gt;Node12</title>
<path fill="none" stroke="midnightblue" d="M645.25,-224.186C633.922,-194.799 593.138,-99.5649 525.5,-56 517.748,-51.0072 411.939,-32.8219 341.638,-21.1535"/>
<polygon fill="midnightblue" stroke="midnightblue" points="341.977,-17.662 331.54,-19.4816 340.834,-24.568 341.977,-17.662"/>
</g>
<!-- Node16&#45;&gt;Node17 -->
<g id="edge33" class="edge"><title>Node16&#45;&gt;Node17</title>
<path fill="none" stroke="midnightblue" d="M662.639,-224.324C676.366,-215.9 697.436,-202.971 713.564,-193.074"/>
<polygon fill="midnightblue" stroke="midnightblue" points="715.704,-195.868 722.396,-187.655 712.043,-189.902 715.704,-195.868"/>
</g>
</g>
</svg>
        <g id="navigator" transform="translate(0 0)" fill="#404254">
                <rect fill="#f2f5e9" fill-opacity="0.5" stroke="#606060" stroke-width=".5" x="0" y="0" width="60" height="60"/>
                <use id="zoomplus" xlink:href="#zoomPlus" x="17" y="9" onmousedown="handleZoom(evt,'in')"/>
                <use id="zoomminus" xlink:href="#zoomMin" x="42" y="9" onmousedown="handleZoom(evt,'out')"/>
                <use id="reset" xlink:href="#resetDef" x="30" y="36" onmousedown="handleReset()"/>
                <g id="arrowUp" xlink:href="#dirArrow" transform="translate(30 24)" onmousedown="handlePan(0,-1)">
                  <use xlink:href="#rim" fill="#404040">
                        <set attributeName="fill" to="#808080" begin="arrowUp.mouseover" end="arrowUp.mouseout"/>
                  </use>
                  <path fill="none" stroke="white" stroke-width="1.5" d="M0,-3.0v7 M-2.5,-0.5L0,-3.0L2.5,-0.5"/>
                </g>
                <g id="arrowRight" xlink:href="#dirArrow" transform="rotate(90) translate(36 -43)" onmousedown="handlePan(1,0)">
                  <use xlink:href="#rim" fill="#404040">
                        <set attributeName="fill" to="#808080" begin="arrowRight.mouseover" end="arrowRight.mouseout"/>
                  </use>
                  <path fill="none" stroke="white" stroke-width="1.5" d="M0,-3.0v7 M-2.5,-0.5L0,-3.0L2.5,-0.5"/>
                </g>
                <g id="arrowDown" xlink:href="#dirArrow" transform="rotate(180) translate(-30 -48)" onmousedown="handlePan(0,1)">
                  <use xlink:href="#rim" fill="#404040">
                        <set attributeName="fill" to="#808080" begin="arrowDown.mouseover" end="arrowDown.mouseout"/>
                  </use>
                  <path fill="none" stroke="white" stroke-width="1.5" d="M0,-3.0v7 M-2.5,-0.5L0,-3.0L2.5,-0.5"/>
                </g>
                <g id="arrowLeft" xlink:href="#dirArrow" transform="rotate(270) translate(-36 17)" onmousedown="handlePan(-1,0)">
                  <use xlink:href="#rim" fill="#404040">
                        <set attributeName="fill" to="#808080" begin="arrowLeft.mouseover" end="arrowLeft.mouseout"/>
                  </use>
                  <path fill="none" stroke="white" stroke-width="1.5" d="M0,-3.0v7 M-2.5,-0.5L0,-3.0L2.5,-0.5"/>
                </g>
        </g>
        <svg viewBox="0 0 15 15" width="100%" height="30px" preserveAspectRatio="xMaxYMin meet">
         <g id="arrow_out" transform="scale(0.3 0.3)">
          <a xlink:href="_vaisseau_eclaireur_8cpp__incl_org.svg" target="_base">
           <rect id="button" ry="5" rx="5" y="6" x="6" height="38" width="38"
                fill="#f2f5e9" fill-opacity="0.5" stroke="#606060" stroke-width="1.0"/>
           <path id="arrow"
             d="M 11.500037,31.436501 C 11.940474,20.09759 22.043105,11.32322 32.158766,21.979434 L 37.068811,17.246167 C 37.068811,17.246167 37.088388,32 37.088388,32 L 22.160133,31.978069 C 22.160133,31.978069 26.997745,27.140456 26.997745,27.140456 C 18.528582,18.264221 13.291696,25.230495 11.500037,31.436501 z"
             style="fill:#404040;"/>
          </a>
         </g>
        </svg>
</svg>
