<?xml version="1.0" encoding="UTF-8" standalone="no"?>
<!DOCTYPE svg PUBLIC "-//W3C//DTD SVG 1.1//EN"
 "http://www.w3.org/Graphics/SVG/1.1/DTD/svg11.dtd">
<!-- Generated by graphviz version 2.38.0 (20140413.2041)
 -->
<!-- Title: src/Vaisseau/Vaisseau.h Pages: 1 -->
<svg width="490pt" height="252pt"
 viewBox="0.00 0.00 489.52 252.00" xmlns="http://www.w3.org/2000/svg" xmlns:xlink="http://www.w3.org/1999/xlink">
<g id="graph0" class="graph" transform="scale(1 1) rotate(0) translate(4 248)">
<title>src/Vaisseau/Vaisseau.h</title>
<polygon fill="white" stroke="none" points="-4,4 -4,-248 485.52,-248 485.52,4 -4,4"/>
<!-- Node0 -->
<g id="node1" class="node"><title>Node0</title>
<polygon fill="#bfbfbf" stroke="black" points="72.0197,-224.5 72.0197,-243.5 197.02,-243.5 197.02,-224.5 72.0197,-224.5"/>
<text text-anchor="middle" x="134.52" y="-231.5" font-family="Helvetica,sans-Serif" font-size="10.00">src/Vaisseau/Vaisseau.h</text>
</g>
<!-- Node1 -->
<g id="node2" class="node"><title>Node1</title>
<polygon fill="white" stroke="#bfbfbf" points="73.5197,-0.5 73.5197,-19.5 117.52,-19.5 117.52,-0.5 73.5197,-0.5"/>
<text text-anchor="middle" x="95.5197" y="-7.5" font-family="Helvetica,sans-Serif" font-size="10.00">vector</text>
</g>
<!-- Node0&#45;&gt;Node1 -->
<g id="edge1" class="edge"><title>Node0&#45;&gt;Node1</title>
<path fill="none" stroke="midnightblue" d="M71.8644,-225.192C49.011,-218.97 25.3932,-207.848 11.5197,-188 -26.7256,-133.283 43.0444,-58.4296 77.6866,-26.4763"/>
<polygon fill="midnightblue" stroke="midnightblue" points="80.1775,-28.9432 85.2672,-19.651 75.4937,-23.7411 80.1775,-28.9432"/>
</g>
<!-- Node2 -->
<g id="node3" class="node"><title>Node2</title>
<polygon fill="white" stroke="#bfbfbf" points="69.0197,-56.5 69.0197,-75.5 110.02,-75.5 110.02,-56.5 69.0197,-56.5"/>
<text text-anchor="middle" x="89.5197" y="-63.5" font-family="Helvetica,sans-Serif" font-size="10.00">string</text>
</g>
<!-- Node0&#45;&gt;Node2 -->
<g id="edge2" class="edge"><title>Node0&#45;&gt;Node2</title>
<path fill="none" stroke="midnightblue" d="M78.6061,-224.458C57.0472,-218.136 34.4974,-207.137 21.5197,-188 -3.2389,-151.491 42.1835,-105.323 70.0761,-81.9787"/>
<polygon fill="midnightblue" stroke="midnightblue" points="72.504,-84.5162 78.0725,-75.5027 68.0985,-79.0764 72.504,-84.5162"/>
</g>
<!-- Node3 -->
<g id="node4" class="node"><title>Node3</title>
<polygon fill="white" stroke="#bfbfbf" points="128.52,-56.5 128.52,-75.5 184.52,-75.5 184.52,-56.5 128.52,-56.5"/>
<text text-anchor="middle" x="156.52" y="-63.5" font-family="Helvetica,sans-Serif" font-size="10.00">algorithm</text>
</g>
<!-- Node0&#45;&gt;Node3 -->
<g id="edge3" class="edge"><title>Node0&#45;&gt;Node3</title>
<path fill="none" stroke="midnightblue" d="M141.148,-224.275C147.285,-215.607 155.978,-201.669 159.52,-188 168.666,-152.703 164.035,-109.665 160.102,-85.5958"/>
<polygon fill="midnightblue" stroke="midnightblue" points="163.538,-84.9275 158.343,-75.6937 156.646,-86.1518 163.538,-84.9275"/>
</g>
<!-- Node4 -->
<g id="node5" class="node"><title>Node4</title>
<g id="a_node5"><a xlink:href="_capacite_8h.html" target="_top" xlink:title="../Capacites/Capacite.h">
<polygon fill="white" stroke="black" points="30.5197,-168.5 30.5197,-187.5 150.52,-187.5 150.52,-168.5 30.5197,-168.5"/>
<text text-anchor="middle" x="90.5197" y="-175.5" font-family="Helvetica,sans-Serif" font-size="10.00">../Capacites/Capacite.h</text>
</a>
</g>
</g>
<!-- Node0&#45;&gt;Node4 -->
<g id="edge4" class="edge"><title>Node0&#45;&gt;Node4</title>
<path fill="none" stroke="midnightblue" d="M127.254,-224.083C120.975,-216.377 111.732,-205.033 104.089,-195.653"/>
<polygon fill="midnightblue" stroke="midnightblue" points="106.68,-193.293 97.6502,-187.751 101.254,-197.714 106.68,-193.293"/>
</g>
<!-- Node5 -->
<g id="node6" class="node"><title>Node5</title>
<g id="a_node6"><a xlink:href="_projectile_8h.html" target="_top" xlink:title="../Projectiles/Projectile.h">
<polygon fill="white" stroke="black" points="183.02,-112.5 183.02,-131.5 306.02,-131.5 306.02,-112.5 183.02,-112.5"/>
<text text-anchor="middle" x="244.52" y="-119.5" font-family="Helvetica,sans-Serif" font-size="10.00">../Projectiles/Projectile.h</text>
</a>
</g>
</g>
<!-- Node0&#45;&gt;Node5 -->
<g id="edge19" class="edge"><title>Node0&#45;&gt;Node5</title>
<path fill="none" stroke="midnightblue" d="M147.205,-224.478C159.444,-215.962 178.175,-202.132 192.52,-188 207.743,-173.002 222.73,-153.643 232.674,-139.965"/>
<polygon fill="midnightblue" stroke="midnightblue" points="235.735,-141.7 238.693,-131.527 230.036,-137.635 235.735,-141.7"/>
</g>
<!-- Node6 -->
<g id="node7" class="node"><title>Node6</title>
<g id="a_node7"><a xlink:href="_entite_8h.html" target="_top" xlink:title="../Entite.h">
<polygon fill="white" stroke="black" points="281.02,-56.5 281.02,-75.5 340.02,-75.5 340.02,-56.5 281.02,-56.5"/>
<text text-anchor="middle" x="310.52" y="-63.5" font-family="Helvetica,sans-Serif" font-size="10.00">../Entite.h</text>
</a>
</g>
</g>
<!-- Node0&#45;&gt;Node6 -->
<g id="edge18" class="edge"><title>Node0&#45;&gt;Node6</title>
<path fill="none" stroke="midnightblue" d="M178.752,-224.476C226.183,-212.718 299.163,-186.461 332.52,-132 341.721,-116.977 332.952,-97.6213 323.903,-83.9512"/>
<polygon fill="midnightblue" stroke="midnightblue" points="326.504,-81.575 317.811,-75.5188 320.83,-85.6743 326.504,-81.575"/>
</g>
<!-- Node4&#45;&gt;Node1 -->
<g id="edge5" class="edge"><title>Node4&#45;&gt;Node1</title>
<path fill="none" stroke="midnightblue" d="M84.844,-168.34C72.4308,-148.266 45.0919,-97.1306 59.5197,-56 63.3049,-45.2094 70.8862,-35.084 78.1195,-27.1808"/>
<polygon fill="midnightblue" stroke="midnightblue" points="80.8453,-29.4005 85.3576,-19.8145 75.8523,-24.4943 80.8453,-29.4005"/>
</g>
<!-- Node4&#45;&gt;Node2 -->
<g id="edge6" class="edge"><title>Node4&#45;&gt;Node2</title>
<path fill="none" stroke="midnightblue" d="M90.4412,-168.368C90.2799,-150.617 89.9076,-109.666 89.6888,-85.5974"/>
<polygon fill="midnightblue" stroke="midnightblue" points="93.1887,-85.5592 89.5978,-75.5914 86.189,-85.6229 93.1887,-85.5592"/>
</g>
<!-- Node4&#45;&gt;Node3 -->
<g id="edge7" class="edge"><title>Node4&#45;&gt;Node3</title>
<path fill="none" stroke="midnightblue" d="M95.6986,-168.368C106.542,-150.296 131.814,-108.176 146.135,-84.3074"/>
<polygon fill="midnightblue" stroke="midnightblue" points="149.221,-85.9671 151.365,-75.5914 143.219,-82.3656 149.221,-85.9671"/>
</g>
<!-- Node4&#45;&gt;Node5 -->
<g id="edge8" class="edge"><title>Node4&#45;&gt;Node5</title>
<path fill="none" stroke="midnightblue" d="M114.921,-168.444C140.716,-159.399 181.596,-145.064 210.537,-134.916"/>
<polygon fill="midnightblue" stroke="midnightblue" points="211.954,-138.128 220.232,-131.516 209.637,-131.523 211.954,-138.128"/>
</g>
<!-- Node4&#45;&gt;Node6 -->
<g id="edge17" class="edge"><title>Node4&#45;&gt;Node6</title>
<path fill="none" stroke="midnightblue" d="M150.7,-173.37C210.133,-168.381 295.031,-156.992 315.52,-132 326.041,-119.166 322.87,-99.7107 318.239,-85.4286"/>
<polygon fill="midnightblue" stroke="midnightblue" points="321.389,-83.8584 314.617,-75.7109 314.83,-86.3035 321.389,-83.8584"/>
</g>
<!-- Node5&#45;&gt;Node1 -->
<g id="edge9" class="edge"><title>Node5&#45;&gt;Node1</title>
<path fill="none" stroke="midnightblue" d="M239.603,-112.347C231.521,-98.7746 214.24,-72.3476 193.52,-56 173.689,-40.3539 147.54,-28.7003 127.241,-21.1769"/>
<polygon fill="midnightblue" stroke="midnightblue" points="128.394,-17.8723 117.799,-17.816 126.046,-24.4669 128.394,-17.8723"/>
</g>
<!-- Node5&#45;&gt;Node2 -->
<g id="edge10" class="edge"><title>Node5&#45;&gt;Node2</title>
<path fill="none" stroke="midnightblue" d="M219.959,-112.444C192.928,-103.026 149.437,-87.8746 120.187,-77.6842"/>
<polygon fill="midnightblue" stroke="midnightblue" points="121.08,-74.289 110.485,-74.3042 118.777,-80.8993 121.08,-74.289"/>
</g>
<!-- Node5&#45;&gt;Node3 -->
<g id="edge11" class="edge"><title>Node5&#45;&gt;Node3</title>
<path fill="none" stroke="midnightblue" d="M230.381,-112.324C216.653,-103.9 195.583,-90.9709 179.455,-81.0741"/>
<polygon fill="midnightblue" stroke="midnightblue" points="180.977,-77.9016 170.623,-75.6545 177.316,-83.8678 180.977,-77.9016"/>
</g>
<!-- Node5&#45;&gt;Node6 -->
<g id="edge12" class="edge"><title>Node5&#45;&gt;Node6</title>
<path fill="none" stroke="midnightblue" d="M255.124,-112.324C264.976,-104.263 279.871,-92.0765 291.735,-82.3695"/>
<polygon fill="midnightblue" stroke="midnightblue" points="294.199,-84.8752 299.723,-75.8339 289.767,-79.4575 294.199,-84.8752"/>
</g>
<!-- Node6&#45;&gt;Node1 -->
<g id="edge13" class="edge"><title>Node6&#45;&gt;Node1</title>
<path fill="none" stroke="midnightblue" d="M280.625,-57.4915C240.311,-47.3662 168.819,-29.4101 127.474,-19.0258"/>
<polygon fill="midnightblue" stroke="midnightblue" points="128.201,-15.5997 117.65,-16.5582 126.496,-22.3888 128.201,-15.5997"/>
</g>
<!-- Node7 -->
<g id="node8" class="node"><title>Node7</title>
<polygon fill="white" stroke="#bfbfbf" points="191.52,-0.5 191.52,-19.5 243.52,-19.5 243.52,-0.5 191.52,-0.5"/>
<text text-anchor="middle" x="217.52" y="-7.5" font-family="Helvetica,sans-Serif" font-size="10.00">memory</text>
</g>
<!-- Node6&#45;&gt;Node7 -->
<g id="edge14" class="edge"><title>Node6&#45;&gt;Node7</title>
<path fill="none" stroke="midnightblue" d="M295.578,-56.324C280.935,-47.8215 258.386,-34.7288 241.282,-24.7975"/>
<polygon fill="midnightblue" stroke="midnightblue" points="242.83,-21.6491 232.425,-19.6545 239.315,-27.7027 242.83,-21.6491"/>
</g>
<!-- Node8 -->
<g id="node9" class="node"><title>Node8</title>
<polygon fill="white" stroke="#bfbfbf" points="261.52,-0.5 261.52,-19.5 359.52,-19.5 359.52,-0.5 261.52,-0.5"/>
<text text-anchor="middle" x="310.52" y="-7.5" font-family="Helvetica,sans-Serif" font-size="10.00">SFML/System.hpp</text>
</g>
<!-- Node6&#45;&gt;Node8 -->
<g id="edge15" class="edge"><title>Node6&#45;&gt;Node8</title>
<path fill="none" stroke="midnightblue" d="M310.52,-56.083C310.52,-49.0059 310.52,-38.8611 310.52,-29.9865"/>
<polygon fill="midnightblue" stroke="midnightblue" points="314.02,-29.751 310.52,-19.7511 307.02,-29.7511 314.02,-29.751"/>
</g>
<!-- Node9 -->
<g id="node10" class="node"><title>Node9</title>
<polygon fill="white" stroke="#bfbfbf" points="377.52,-0.5 377.52,-19.5 481.52,-19.5 481.52,-0.5 377.52,-0.5"/>
<text text-anchor="middle" x="429.52" y="-7.5" font-family="Helvetica,sans-Serif" font-size="10.00">SFML/Graphics.hpp</text>
</g>
<!-- Node6&#45;&gt;Node9 -->
<g id="edge16" class="edge"><title>Node6&#45;&gt;Node9</title>
<path fill="none" stroke="midnightblue" d="M329.376,-56.4435C348.786,-47.6356 379.25,-33.8116 401.484,-23.722"/>
<polygon fill="midnightblue" stroke="midnightblue" points="403.092,-26.836 410.752,-19.5164 400.199,-20.4615 403.092,-26.836"/>
</g>
</g>
</svg>
