<?xml version="1.0" encoding="UTF-8" standalone="no"?>
<!DOCTYPE svg PUBLIC "-//W3C//DTD SVG 1.1//EN"
 "http://www.w3.org/Graphics/SVG/1.1/DTD/svg11.dtd">
<!-- Generated by graphviz version 2.38.0 (20140413.2041)
 -->
<!-- Title: Projectile Pages: 1 -->
<svg width="174pt" height="551pt"
 viewBox="0.00 0.00 174.00 551.00" xmlns="http://www.w3.org/2000/svg" xmlns:xlink="http://www.w3.org/1999/xlink">
<g id="graph0" class="graph" transform="scale(1 1) rotate(0) translate(4 547)">
<title>Projectile</title>
<polygon fill="white" stroke="none" points="-4,4 -4,-547 170,-547 170,4 -4,4"/>
<!-- Node0 -->
<g id="node1" class="node"><title>Node0</title>
<polygon fill="#bfbfbf" stroke="black" points="47,-127.5 47,-206.5 119,-206.5 119,-127.5 47,-127.5"/>
<text text-anchor="middle" x="83" y="-194.5" font-family="Helvetica,sans-Serif" font-size="10.00">Projectile</text>
<polyline fill="none" stroke="black" points="47,-187.5 119,-187.5 "/>
<text text-anchor="start" x="55" y="-175.5" font-family="Helvetica,sans-Serif" font-size="10.00"># age_</text>
<polyline fill="none" stroke="black" points="47,-168.5 119,-168.5 "/>
<text text-anchor="start" x="55" y="-156.5" font-family="Helvetica,sans-Serif" font-size="10.00">+ Projectile()</text>
<text text-anchor="start" x="55" y="-145.5" font-family="Helvetica,sans-Serif" font-size="10.00">+ agit()</text>
<text text-anchor="start" x="55" y="-134.5" font-family="Helvetica,sans-Serif" font-size="10.00">+ gestion()</text>
</g>
<!-- Node2 -->
<g id="node3" class="node"><title>Node2</title>
<g id="a_node3"><a xlink:href="class_proj_piou.html" target="_top" xlink:title="{ProjPiou\n||+ ProjPiou()\l+ ProjPiou()\l+ ~ProjPiou()\l+ gestion()\l}">
<polygon fill="white" stroke="black" points="0,-0.5 0,-90.5 74,-90.5 74,-0.5 0,-0.5"/>
<text text-anchor="middle" x="37" y="-78.5" font-family="Helvetica,sans-Serif" font-size="10.00">ProjPiou</text>
<polyline fill="none" stroke="black" points="0,-71.5 74,-71.5 "/>
<text text-anchor="middle" x="37" y="-59.5" font-family="Helvetica,sans-Serif" font-size="10.00"> </text>
<polyline fill="none" stroke="black" points="0,-52.5 74,-52.5 "/>
<text text-anchor="start" x="8" y="-40.5" font-family="Helvetica,sans-Serif" font-size="10.00">+ ProjPiou()</text>
<text text-anchor="start" x="8" y="-29.5" font-family="Helvetica,sans-Serif" font-size="10.00">+ ProjPiou()</text>
<text text-anchor="start" x="8" y="-18.5" font-family="Helvetica,sans-Serif" font-size="10.00">+ ~ProjPiou()</text>
<text text-anchor="start" x="8" y="-7.5" font-family="Helvetica,sans-Serif" font-size="10.00">+ gestion()</text>
</a>
</g>
</g>
<!-- Node0&#45;&gt;Node2 -->
<g id="edge2" class="edge"><title>Node0&#45;&gt;Node2</title>
<path fill="none" stroke="midnightblue" d="M64.4282,-117.754C61.0138,-108.884 57.464,-99.6619 54.0955,-90.9111"/>
<polygon fill="none" stroke="midnightblue" points="61.2063,-119.127 68.0651,-127.202 67.739,-116.612 61.2063,-119.127"/>
</g>
<!-- Node3 -->
<g id="node4" class="node"><title>Node3</title>
<g id="a_node4"><a xlink:href="class_proj_test.html" target="_top" xlink:title="Projectile de test. ">
<polygon fill="white" stroke="black" points="92,-0.5 92,-90.5 166,-90.5 166,-0.5 92,-0.5"/>
<text text-anchor="middle" x="129" y="-78.5" font-family="Helvetica,sans-Serif" font-size="10.00">ProjTest</text>
<polyline fill="none" stroke="black" points="92,-71.5 166,-71.5 "/>
<text text-anchor="middle" x="129" y="-59.5" font-family="Helvetica,sans-Serif" font-size="10.00"> </text>
<polyline fill="none" stroke="black" points="92,-52.5 166,-52.5 "/>
<text text-anchor="start" x="100" y="-40.5" font-family="Helvetica,sans-Serif" font-size="10.00">+ ProjTest()</text>
<text text-anchor="start" x="100" y="-29.5" font-family="Helvetica,sans-Serif" font-size="10.00">+ ProjTest()</text>
<text text-anchor="start" x="100" y="-18.5" font-family="Helvetica,sans-Serif" font-size="10.00">+ ~ProjTest()</text>
<text text-anchor="start" x="100" y="-7.5" font-family="Helvetica,sans-Serif" font-size="10.00">+ gestion()</text>
</a>
</g>
</g>
<!-- Node0&#45;&gt;Node3 -->
<g id="edge3" class="edge"><title>Node0&#45;&gt;Node3</title>
<path fill="none" stroke="midnightblue" d="M101.572,-117.754C104.986,-108.884 108.536,-99.6619 111.904,-90.9111"/>
<polygon fill="none" stroke="midnightblue" points="98.261,-116.612 97.9349,-127.202 104.794,-119.127 98.261,-116.612"/>
</g>
<!-- Node1 -->
<g id="node2" class="node"><title>Node1</title>
<g id="a_node2"><a xlink:href="class_entite.html" target="_top" xlink:title="Classe virtuelle qui définit une entité ">
<polygon fill="white" stroke="black" points="33,-243.5 33,-542.5 133,-542.5 133,-243.5 33,-243.5"/>
<text text-anchor="middle" x="83" y="-530.5" font-family="Helvetica,sans-Serif" font-size="10.00">Entite</text>
<polyline fill="none" stroke="black" points="33,-523.5 133,-523.5 "/>
<text text-anchor="start" x="41" y="-511.5" font-family="Helvetica,sans-Serif" font-size="10.00"># collisionable_</text>
<text text-anchor="start" x="41" y="-500.5" font-family="Helvetica,sans-Serif" font-size="10.00"># equipe_</text>
<text text-anchor="start" x="41" y="-489.5" font-family="Helvetica,sans-Serif" font-size="10.00"># position_</text>
<text text-anchor="start" x="41" y="-478.5" font-family="Helvetica,sans-Serif" font-size="10.00"># angle_</text>
<text text-anchor="start" x="41" y="-467.5" font-family="Helvetica,sans-Serif" font-size="10.00"># scale_</text>
<text text-anchor="start" x="41" y="-456.5" font-family="Helvetica,sans-Serif" font-size="10.00"># cercleEnglobant_</text>
<text text-anchor="start" x="41" y="-445.5" font-family="Helvetica,sans-Serif" font-size="10.00"># forme_</text>
<text text-anchor="start" x="41" y="-434.5" font-family="Helvetica,sans-Serif" font-size="10.00"># texture_</text>
<text text-anchor="start" x="41" y="-423.5" font-family="Helvetica,sans-Serif" font-size="10.00"># sprite_</text>
<text text-anchor="start" x="41" y="-412.5" font-family="Helvetica,sans-Serif" font-size="10.00"># vit_</text>
<polyline fill="none" stroke="black" points="33,-405.5 133,-405.5 "/>
<text text-anchor="start" x="41" y="-393.5" font-family="Helvetica,sans-Serif" font-size="10.00">+ ~Entite()</text>
<text text-anchor="start" x="41" y="-382.5" font-family="Helvetica,sans-Serif" font-size="10.00">+ getForme()</text>
<text text-anchor="start" x="41" y="-371.5" font-family="Helvetica,sans-Serif" font-size="10.00">+ afficher()</text>
<text text-anchor="start" x="41" y="-360.5" font-family="Helvetica,sans-Serif" font-size="10.00">+ move()</text>
<text text-anchor="start" x="41" y="-349.5" font-family="Helvetica,sans-Serif" font-size="10.00">+ setPosition()</text>
<text text-anchor="start" x="41" y="-338.5" font-family="Helvetica,sans-Serif" font-size="10.00">+ getPosition()</text>
<text text-anchor="start" x="41" y="-327.5" font-family="Helvetica,sans-Serif" font-size="10.00">+ estDehors()</text>
<text text-anchor="start" x="41" y="-316.5" font-family="Helvetica,sans-Serif" font-size="10.00">+ rotate()</text>
<text text-anchor="start" x="41" y="-305.5" font-family="Helvetica,sans-Serif" font-size="10.00">+ setRotation()</text>
<text text-anchor="start" x="41" y="-294.5" font-family="Helvetica,sans-Serif" font-size="10.00">+ getRotation()</text>
<text text-anchor="start" x="41" y="-283.5" font-family="Helvetica,sans-Serif" font-size="10.00">+ scale()</text>
<text text-anchor="start" x="41" y="-272.5" font-family="Helvetica,sans-Serif" font-size="10.00">+ setScale()</text>
<text text-anchor="start" x="41" y="-261.5" font-family="Helvetica,sans-Serif" font-size="10.00">+ getScale()</text>
<text text-anchor="start" x="41" y="-250.5" font-family="Helvetica,sans-Serif" font-size="10.00">+ changeSpeed()</text>
</a>
</g>
</g>
<!-- Node1&#45;&gt;Node0 -->
<g id="edge1" class="edge"><title>Node1&#45;&gt;Node0</title>
<path fill="none" stroke="midnightblue" d="M83,-233.131C83,-223.634 83,-214.685 83,-206.638"/>
<polygon fill="none" stroke="midnightblue" points="79.5001,-233.212 83,-243.212 86.5001,-233.212 79.5001,-233.212"/>
</g>
</g>
</svg>
