<?xml version="1.0" encoding="UTF-8" standalone="no"?>
<!DOCTYPE svg PUBLIC "-//W3C//DTD SVG 1.1//EN"
 "http://www.w3.org/Graphics/SVG/1.1/DTD/svg11.dtd">
<!-- Generated by graphviz version 2.38.0 (20140413.2041)
 -->
<!-- Title: Entite Pages: 1 -->
<svg width="290pt" height="738pt"
 viewBox="0.00 0.00 290.00 738.00" xmlns="http://www.w3.org/2000/svg" xmlns:xlink="http://www.w3.org/1999/xlink">
<g id="graph0" class="graph" transform="scale(1 1) rotate(0) translate(4 734)">
<title>Entite</title>
<polygon fill="white" stroke="none" points="-4,4 -4,-734 286,-734 286,4 -4,4"/>
<!-- Node0 -->
<g id="node1" class="node"><title>Node0</title>
<polygon fill="#bfbfbf" stroke="black" points="129,-430.5 129,-729.5 229,-729.5 229,-430.5 129,-430.5"/>
<text text-anchor="middle" x="179" y="-717.5" font-family="Helvetica,sans-Serif" font-size="10.00">Entite</text>
<polyline fill="none" stroke="black" points="129,-710.5 229,-710.5 "/>
<text text-anchor="start" x="137" y="-698.5" font-family="Helvetica,sans-Serif" font-size="10.00"># collisionable_</text>
<text text-anchor="start" x="137" y="-687.5" font-family="Helvetica,sans-Serif" font-size="10.00"># equipe_</text>
<text text-anchor="start" x="137" y="-676.5" font-family="Helvetica,sans-Serif" font-size="10.00"># position_</text>
<text text-anchor="start" x="137" y="-665.5" font-family="Helvetica,sans-Serif" font-size="10.00"># angle_</text>
<text text-anchor="start" x="137" y="-654.5" font-family="Helvetica,sans-Serif" font-size="10.00"># scale_</text>
<text text-anchor="start" x="137" y="-643.5" font-family="Helvetica,sans-Serif" font-size="10.00"># cercleEnglobant_</text>
<text text-anchor="start" x="137" y="-632.5" font-family="Helvetica,sans-Serif" font-size="10.00"># forme_</text>
<text text-anchor="start" x="137" y="-621.5" font-family="Helvetica,sans-Serif" font-size="10.00"># texture_</text>
<text text-anchor="start" x="137" y="-610.5" font-family="Helvetica,sans-Serif" font-size="10.00"># sprite_</text>
<text text-anchor="start" x="137" y="-599.5" font-family="Helvetica,sans-Serif" font-size="10.00"># vit_</text>
<polyline fill="none" stroke="black" points="129,-592.5 229,-592.5 "/>
<text text-anchor="start" x="137" y="-580.5" font-family="Helvetica,sans-Serif" font-size="10.00">+ ~Entite()</text>
<text text-anchor="start" x="137" y="-569.5" font-family="Helvetica,sans-Serif" font-size="10.00">+ getForme()</text>
<text text-anchor="start" x="137" y="-558.5" font-family="Helvetica,sans-Serif" font-size="10.00">+ afficher()</text>
<text text-anchor="start" x="137" y="-547.5" font-family="Helvetica,sans-Serif" font-size="10.00">+ move()</text>
<text text-anchor="start" x="137" y="-536.5" font-family="Helvetica,sans-Serif" font-size="10.00">+ setPosition()</text>
<text text-anchor="start" x="137" y="-525.5" font-family="Helvetica,sans-Serif" font-size="10.00">+ getPosition()</text>
<text text-anchor="start" x="137" y="-514.5" font-family="Helvetica,sans-Serif" font-size="10.00">+ estDehors()</text>
<text text-anchor="start" x="137" y="-503.5" font-family="Helvetica,sans-Serif" font-size="10.00">+ rotate()</text>
<text text-anchor="start" x="137" y="-492.5" font-family="Helvetica,sans-Serif" font-size="10.00">+ setRotation()</text>
<text text-anchor="start" x="137" y="-481.5" font-family="Helvetica,sans-Serif" font-size="10.00">+ getRotation()</text>
<text text-anchor="start" x="137" y="-470.5" font-family="Helvetica,sans-Serif" font-size="10.00">+ scale()</text>
<text text-anchor="start" x="137" y="-459.5" font-family="Helvetica,sans-Serif" font-size="10.00">+ setScale()</text>
<text text-anchor="start" x="137" y="-448.5" font-family="Helvetica,sans-Serif" font-size="10.00">+ getScale()</text>
<text text-anchor="start" x="137" y="-437.5" font-family="Helvetica,sans-Serif" font-size="10.00">+ changeSpeed()</text>
</g>
<!-- Node1 -->
<g id="node2" class="node"><title>Node1</title>
<g id="a_node2"><a xlink:href="class_projectile.html" target="_top" xlink:title="Classe abstraite qui définit la structure générale d&#39;un projectile, à faire hériter pour chaque proje...">
<polygon fill="white" stroke="black" points="93,-221 93,-300 165,-300 165,-221 93,-221"/>
<text text-anchor="middle" x="129" y="-288" font-family="Helvetica,sans-Serif" font-size="10.00">Projectile</text>
<polyline fill="none" stroke="black" points="93,-281 165,-281 "/>
<text text-anchor="start" x="101" y="-269" font-family="Helvetica,sans-Serif" font-size="10.00"># age_</text>
<polyline fill="none" stroke="black" points="93,-262 165,-262 "/>
<text text-anchor="start" x="101" y="-250" font-family="Helvetica,sans-Serif" font-size="10.00">+ Projectile()</text>
<text text-anchor="start" x="101" y="-239" font-family="Helvetica,sans-Serif" font-size="10.00">+ agit()</text>
<text text-anchor="start" x="101" y="-228" font-family="Helvetica,sans-Serif" font-size="10.00">+ gestion()</text>
</a>
</g>
</g>
<!-- Node0&#45;&gt;Node1 -->
<g id="edge1" class="edge"><title>Node0&#45;&gt;Node1</title>
<path fill="none" stroke="midnightblue" d="M154.011,-420.318C146.956,-375.522 139.901,-330.719 135.091,-300.176"/>
<polygon fill="none" stroke="midnightblue" points="150.597,-421.142 155.61,-430.476 157.512,-420.053 150.597,-421.142"/>
</g>
<!-- Node4 -->
<g id="node5" class="node"><title>Node4</title>
<g id="a_node5"><a xlink:href="class_vaisseau.html" target="_top" xlink:title="classe du vaisseau (véhicule) d&#39;un joueur ou d&#39;un ennemi ">
<polygon fill="white" stroke="black" points="186,-127.5 186,-393.5 272,-393.5 272,-127.5 186,-127.5"/>
<text text-anchor="middle" x="229" y="-381.5" font-family="Helvetica,sans-Serif" font-size="10.00">Vaisseau</text>
<polyline fill="none" stroke="black" points="186,-374.5 272,-374.5 "/>
<text text-anchor="start" x="194" y="-362.5" font-family="Helvetica,sans-Serif" font-size="10.00"># nom_</text>
<text text-anchor="start" x="194" y="-351.5" font-family="Helvetica,sans-Serif" font-size="10.00"># Nskin_</text>
<text text-anchor="start" x="194" y="-340.5" font-family="Helvetica,sans-Serif" font-size="10.00"># pvM_</text>
<text text-anchor="start" x="194" y="-329.5" font-family="Helvetica,sans-Serif" font-size="10.00"># atqM_</text>
<text text-anchor="start" x="194" y="-318.5" font-family="Helvetica,sans-Serif" font-size="10.00"># defM_</text>
<text text-anchor="start" x="194" y="-307.5" font-family="Helvetica,sans-Serif" font-size="10.00"># vitM_</text>
<text text-anchor="start" x="194" y="-296.5" font-family="Helvetica,sans-Serif" font-size="10.00"># pv_</text>
<text text-anchor="start" x="194" y="-285.5" font-family="Helvetica,sans-Serif" font-size="10.00"># atq_</text>
<text text-anchor="start" x="194" y="-274.5" font-family="Helvetica,sans-Serif" font-size="10.00"># def_</text>
<text text-anchor="start" x="194" y="-263.5" font-family="Helvetica,sans-Serif" font-size="10.00"># skills_</text>
<polyline fill="none" stroke="black" points="186,-256.5 272,-256.5 "/>
<text text-anchor="start" x="194" y="-244.5" font-family="Helvetica,sans-Serif" font-size="10.00">+ Vaisseau()</text>
<text text-anchor="start" x="194" y="-233.5" font-family="Helvetica,sans-Serif" font-size="10.00">+ ~Vaisseau()</text>
<text text-anchor="start" x="194" y="-222.5" font-family="Helvetica,sans-Serif" font-size="10.00">+ setEquipe()</text>
<text text-anchor="start" x="194" y="-211.5" font-family="Helvetica,sans-Serif" font-size="10.00">+ addCapacite()</text>
<text text-anchor="start" x="194" y="-200.5" font-family="Helvetica,sans-Serif" font-size="10.00">+ setnom()</text>
<text text-anchor="start" x="194" y="-189.5" font-family="Helvetica,sans-Serif" font-size="10.00">+ setNskin()</text>
<text text-anchor="start" x="194" y="-178.5" font-family="Helvetica,sans-Serif" font-size="10.00">+ setpvM()</text>
<text text-anchor="start" x="194" y="-167.5" font-family="Helvetica,sans-Serif" font-size="10.00">+ setatqM()</text>
<text text-anchor="start" x="194" y="-156.5" font-family="Helvetica,sans-Serif" font-size="10.00">+ setdefM()</text>
<text text-anchor="start" x="194" y="-145.5" font-family="Helvetica,sans-Serif" font-size="10.00">+ setvitM()</text>
<text text-anchor="start" x="194" y="-134.5" font-family="Helvetica,sans-Serif" font-size="10.00">et 15 de plus...</text>
</a>
</g>
</g>
<!-- Node0&#45;&gt;Node4 -->
<g id="edge4" class="edge"><title>Node0&#45;&gt;Node4</title>
<path fill="none" stroke="midnightblue" d="M203.976,-420.402C205.382,-411.473 206.788,-402.544 208.177,-393.728"/>
<polygon fill="none" stroke="midnightblue" points="200.488,-420.053 202.39,-430.476 207.403,-421.142 200.488,-420.053"/>
</g>
<!-- Node2 -->
<g id="node3" class="node"><title>Node2</title>
<g id="a_node3"><a xlink:href="class_proj_piou.html" target="_top" xlink:title="{ProjPiou\n||+ ProjPiou()\l+ ProjPiou()\l+ ~ProjPiou()\l+ gestion()\l}">
<polygon fill="white" stroke="black" points="0,-0.5 0,-90.5 74,-90.5 74,-0.5 0,-0.5"/>
<text text-anchor="middle" x="37" y="-78.5" font-family="Helvetica,sans-Serif" font-size="10.00">ProjPiou</text>
<polyline fill="none" stroke="black" points="0,-71.5 74,-71.5 "/>
<text text-anchor="middle" x="37" y="-59.5" font-family="Helvetica,sans-Serif" font-size="10.00"> </text>
<polyline fill="none" stroke="black" points="0,-52.5 74,-52.5 "/>
<text text-anchor="start" x="8" y="-40.5" font-family="Helvetica,sans-Serif" font-size="10.00">+ ProjPiou()</text>
<text text-anchor="start" x="8" y="-29.5" font-family="Helvetica,sans-Serif" font-size="10.00">+ ProjPiou()</text>
<text text-anchor="start" x="8" y="-18.5" font-family="Helvetica,sans-Serif" font-size="10.00">+ ~ProjPiou()</text>
<text text-anchor="start" x="8" y="-7.5" font-family="Helvetica,sans-Serif" font-size="10.00">+ gestion()</text>
</a>
</g>
</g>
<!-- Node1&#45;&gt;Node2 -->
<g id="edge2" class="edge"><title>Node1&#45;&gt;Node2</title>
<path fill="none" stroke="midnightblue" d="M108.288,-211.546C92.6358,-175.309 71.3168,-125.951 56.079,-90.6721"/>
<polygon fill="none" stroke="midnightblue" points="105.161,-213.135 112.339,-220.927 111.587,-210.359 105.161,-213.135"/>
</g>
<!-- Node3 -->
<g id="node4" class="node"><title>Node3</title>
<g id="a_node4"><a xlink:href="class_proj_test.html" target="_top" xlink:title="Projectile de test. ">
<polygon fill="white" stroke="black" points="92,-0.5 92,-90.5 166,-90.5 166,-0.5 92,-0.5"/>
<text text-anchor="middle" x="129" y="-78.5" font-family="Helvetica,sans-Serif" font-size="10.00">ProjTest</text>
<polyline fill="none" stroke="black" points="92,-71.5 166,-71.5 "/>
<text text-anchor="middle" x="129" y="-59.5" font-family="Helvetica,sans-Serif" font-size="10.00"> </text>
<polyline fill="none" stroke="black" points="92,-52.5 166,-52.5 "/>
<text text-anchor="start" x="100" y="-40.5" font-family="Helvetica,sans-Serif" font-size="10.00">+ ProjTest()</text>
<text text-anchor="start" x="100" y="-29.5" font-family="Helvetica,sans-Serif" font-size="10.00">+ ProjTest()</text>
<text text-anchor="start" x="100" y="-18.5" font-family="Helvetica,sans-Serif" font-size="10.00">+ ~ProjTest()</text>
<text text-anchor="start" x="100" y="-7.5" font-family="Helvetica,sans-Serif" font-size="10.00">+ gestion()</text>
</a>
</g>
</g>
<!-- Node1&#45;&gt;Node3 -->
<g id="edge3" class="edge"><title>Node1&#45;&gt;Node3</title>
<path fill="none" stroke="midnightblue" d="M129,-210.618C129,-174.47 129,-125.651 129,-90.6721"/>
<polygon fill="none" stroke="midnightblue" points="125.5,-210.927 129,-220.927 132.5,-210.927 125.5,-210.927"/>
</g>
<!-- Node5 -->
<g id="node6" class="node"><title>Node5</title>
<g id="a_node6"><a xlink:href="class_vaisseau_test.html" target="_top" xlink:title="{VaisseauTest\n||+ VaisseauTest()\l+ ~VaisseauTest()\l+ gestion()\l}">
<polygon fill="white" stroke="black" points="184,-6 184,-85 282,-85 282,-6 184,-6"/>
<text text-anchor="middle" x="233" y="-73" font-family="Helvetica,sans-Serif" font-size="10.00">VaisseauTest</text>
<polyline fill="none" stroke="black" points="184,-66 282,-66 "/>
<text text-anchor="middle" x="233" y="-54" font-family="Helvetica,sans-Serif" font-size="10.00"> </text>
<polyline fill="none" stroke="black" points="184,-47 282,-47 "/>
<text text-anchor="start" x="192" y="-35" font-family="Helvetica,sans-Serif" font-size="10.00">+ VaisseauTest()</text>
<text text-anchor="start" x="192" y="-24" font-family="Helvetica,sans-Serif" font-size="10.00">+ ~VaisseauTest()</text>
<text text-anchor="start" x="192" y="-13" font-family="Helvetica,sans-Serif" font-size="10.00">+ gestion()</text>
</a>
</g>
</g>
<!-- Node4&#45;&gt;Node5 -->
<g id="edge5" class="edge"><title>Node4&#45;&gt;Node5</title>
<path fill="none" stroke="midnightblue" d="M231.675,-117.08C231.89,-105.583 232.094,-94.7189 232.275,-85.1171"/>
<polygon fill="none" stroke="midnightblue" points="228.171,-117.266 231.482,-127.33 235.169,-117.397 228.171,-117.266"/>
</g>
</g>
</svg>
