<?xml version="1.0" encoding="UTF-8" standalone="no"?>
<!DOCTYPE svg PUBLIC "-//W3C//DTD SVG 1.1//EN"
 "http://www.w3.org/Graphics/SVG/1.1/DTD/svg11.dtd">
<!-- Generated by graphviz version 2.38.0 (20140413.2041)
 -->
<!-- Title: Projectile Pages: 1 -->
<svg width="278pt" height="540pt"
 viewBox="0.00 0.00 278.00 540.00" xmlns="http://www.w3.org/2000/svg" xmlns:xlink="http://www.w3.org/1999/xlink">
<g id="graph0" class="graph" transform="scale(1 1) rotate(0) translate(4 536)">
<title>Projectile</title>
<polygon fill="white" stroke="none" points="-4,4 -4,-536 274,-536 274,4 -4,4"/>
<!-- Node0 -->
<g id="node1" class="node"><title>Node0</title>
<polygon fill="#bfbfbf" stroke="black" points="101,-138.5 101,-217.5 181,-217.5 181,-138.5 101,-138.5"/>
<text text-anchor="middle" x="141" y="-205.5" font-family="Helvetica,sans-Serif" font-size="10.00">Projectile</text>
<polyline fill="none" stroke="black" points="101,-198.5 181,-198.5 "/>
<text text-anchor="start" x="109" y="-186.5" font-family="Helvetica,sans-Serif" font-size="10.00"># age_</text>
<polyline fill="none" stroke="black" points="101,-179.5 181,-179.5 "/>
<text text-anchor="start" x="109" y="-167.5" font-family="Helvetica,sans-Serif" font-size="10.00">+ Projectile()</text>
<text text-anchor="start" x="109" y="-156.5" font-family="Helvetica,sans-Serif" font-size="10.00">+ gestion()</text>
<text text-anchor="start" x="109" y="-145.5" font-family="Helvetica,sans-Serif" font-size="10.00">+ destruction()</text>
</g>
<!-- Node2 -->
<g id="node3" class="node"><title>Node2</title>
<g id="a_node3"><a xlink:href="class_proj_missile.html" target="_top" xlink:title="{ProjMissile\n||+ ProjMissile()\l+ ProjMissile()\l+ ~ProjMissile()\l+ gestion()\l+ agit()\l}">
<polygon fill="white" stroke="black" points="0,-0.5 0,-101.5 86,-101.5 86,-0.5 0,-0.5"/>
<text text-anchor="middle" x="43" y="-89.5" font-family="Helvetica,sans-Serif" font-size="10.00">ProjMissile</text>
<polyline fill="none" stroke="black" points="0,-82.5 86,-82.5 "/>
<text text-anchor="middle" x="43" y="-70.5" font-family="Helvetica,sans-Serif" font-size="10.00"> </text>
<polyline fill="none" stroke="black" points="0,-63.5 86,-63.5 "/>
<text text-anchor="start" x="8" y="-51.5" font-family="Helvetica,sans-Serif" font-size="10.00">+ ProjMissile()</text>
<text text-anchor="start" x="8" y="-40.5" font-family="Helvetica,sans-Serif" font-size="10.00">+ ProjMissile()</text>
<text text-anchor="start" x="8" y="-29.5" font-family="Helvetica,sans-Serif" font-size="10.00">+ ~ProjMissile()</text>
<text text-anchor="start" x="8" y="-18.5" font-family="Helvetica,sans-Serif" font-size="10.00">+ gestion()</text>
<text text-anchor="start" x="8" y="-7.5" font-family="Helvetica,sans-Serif" font-size="10.00">+ agit()</text>
</a>
</g>
</g>
<!-- Node0&#45;&gt;Node2 -->
<g id="edge2" class="edge"><title>Node0&#45;&gt;Node2</title>
<path fill="none" stroke="midnightblue" d="M104.465,-130.4C97.1224,-121.034 89.3795,-111.157 81.9577,-101.691"/>
<polygon fill="none" stroke="midnightblue" points="101.873,-132.766 110.797,-138.476 107.382,-128.447 101.873,-132.766"/>
</g>
<!-- Node3 -->
<g id="node4" class="node"><title>Node3</title>
<g id="a_node4"><a xlink:href="class_proj_piou.html" target="_top" xlink:title="Projectile de test. ">
<polygon fill="white" stroke="black" points="104,-0.5 104,-101.5 178,-101.5 178,-0.5 104,-0.5"/>
<text text-anchor="middle" x="141" y="-89.5" font-family="Helvetica,sans-Serif" font-size="10.00">ProjPiou</text>
<polyline fill="none" stroke="black" points="104,-82.5 178,-82.5 "/>
<text text-anchor="middle" x="141" y="-70.5" font-family="Helvetica,sans-Serif" font-size="10.00"> </text>
<polyline fill="none" stroke="black" points="104,-63.5 178,-63.5 "/>
<text text-anchor="start" x="112" y="-51.5" font-family="Helvetica,sans-Serif" font-size="10.00">+ ProjPiou()</text>
<text text-anchor="start" x="112" y="-40.5" font-family="Helvetica,sans-Serif" font-size="10.00">+ ProjPiou()</text>
<text text-anchor="start" x="112" y="-29.5" font-family="Helvetica,sans-Serif" font-size="10.00">+ ~ProjPiou()</text>
<text text-anchor="start" x="112" y="-18.5" font-family="Helvetica,sans-Serif" font-size="10.00">+ gestion()</text>
<text text-anchor="start" x="112" y="-7.5" font-family="Helvetica,sans-Serif" font-size="10.00">+ agit()</text>
</a>
</g>
</g>
<!-- Node0&#45;&gt;Node3 -->
<g id="edge3" class="edge"><title>Node0&#45;&gt;Node3</title>
<path fill="none" stroke="midnightblue" d="M141,-128.406C141,-119.639 141,-110.488 141,-101.691"/>
<polygon fill="none" stroke="midnightblue" points="137.5,-128.476 141,-138.476 144.5,-128.476 137.5,-128.476"/>
</g>
<!-- Node4 -->
<g id="node5" class="node"><title>Node4</title>
<g id="a_node5"><a xlink:href="class_proj_test.html" target="_top" xlink:title="Projectile de test. ">
<polygon fill="white" stroke="black" points="196,-0.5 196,-101.5 270,-101.5 270,-0.5 196,-0.5"/>
<text text-anchor="middle" x="233" y="-89.5" font-family="Helvetica,sans-Serif" font-size="10.00">ProjTest</text>
<polyline fill="none" stroke="black" points="196,-82.5 270,-82.5 "/>
<text text-anchor="middle" x="233" y="-70.5" font-family="Helvetica,sans-Serif" font-size="10.00"> </text>
<polyline fill="none" stroke="black" points="196,-63.5 270,-63.5 "/>
<text text-anchor="start" x="204" y="-51.5" font-family="Helvetica,sans-Serif" font-size="10.00">+ ProjTest()</text>
<text text-anchor="start" x="204" y="-40.5" font-family="Helvetica,sans-Serif" font-size="10.00">+ ProjTest()</text>
<text text-anchor="start" x="204" y="-29.5" font-family="Helvetica,sans-Serif" font-size="10.00">+ ~ProjTest()</text>
<text text-anchor="start" x="204" y="-18.5" font-family="Helvetica,sans-Serif" font-size="10.00">+ gestion()</text>
<text text-anchor="start" x="204" y="-7.5" font-family="Helvetica,sans-Serif" font-size="10.00">+ agit()</text>
</a>
</g>
</g>
<!-- Node0&#45;&gt;Node4 -->
<g id="edge4" class="edge"><title>Node0&#45;&gt;Node4</title>
<path fill="none" stroke="midnightblue" d="M175.298,-130.4C182.191,-121.034 189.46,-111.157 196.428,-101.691"/>
<polygon fill="none" stroke="midnightblue" points="172.463,-128.347 169.354,-138.476 178.1,-132.497 172.463,-128.347"/>
</g>
<!-- Node1 -->
<g id="node2" class="node"><title>Node1</title>
<g id="a_node2"><a xlink:href="class_entite.html" target="_top" xlink:title="Classe virtuelle qui définit une entité ">
<polygon fill="white" stroke="black" points="91,-254.5 91,-531.5 191,-531.5 191,-254.5 91,-254.5"/>
<text text-anchor="middle" x="141" y="-519.5" font-family="Helvetica,sans-Serif" font-size="10.00">Entite</text>
<polyline fill="none" stroke="black" points="91,-512.5 191,-512.5 "/>
<text text-anchor="start" x="99" y="-500.5" font-family="Helvetica,sans-Serif" font-size="10.00"># collisionable_</text>
<text text-anchor="start" x="99" y="-489.5" font-family="Helvetica,sans-Serif" font-size="10.00"># detruit_</text>
<text text-anchor="start" x="99" y="-478.5" font-family="Helvetica,sans-Serif" font-size="10.00"># actif_</text>
<text text-anchor="start" x="99" y="-467.5" font-family="Helvetica,sans-Serif" font-size="10.00"># equipe_</text>
<text text-anchor="start" x="99" y="-456.5" font-family="Helvetica,sans-Serif" font-size="10.00"># position_</text>
<text text-anchor="start" x="99" y="-445.5" font-family="Helvetica,sans-Serif" font-size="10.00"># angle_</text>
<text text-anchor="start" x="99" y="-434.5" font-family="Helvetica,sans-Serif" font-size="10.00"># scale_</text>
<text text-anchor="start" x="99" y="-423.5" font-family="Helvetica,sans-Serif" font-size="10.00"># cercleEnglobant_</text>
<text text-anchor="start" x="99" y="-412.5" font-family="Helvetica,sans-Serif" font-size="10.00"># forme_</text>
<text text-anchor="start" x="99" y="-401.5" font-family="Helvetica,sans-Serif" font-size="10.00"># texture_</text>
<text text-anchor="start" x="99" y="-390.5" font-family="Helvetica,sans-Serif" font-size="10.00">et 13 de plus...</text>
<polyline fill="none" stroke="black" points="91,-383.5 191,-383.5 "/>
<text text-anchor="start" x="99" y="-371.5" font-family="Helvetica,sans-Serif" font-size="10.00">+ ~Entite()</text>
<text text-anchor="start" x="99" y="-360.5" font-family="Helvetica,sans-Serif" font-size="10.00">+ getForme()</text>
<text text-anchor="start" x="99" y="-349.5" font-family="Helvetica,sans-Serif" font-size="10.00">+ afficher()</text>
<text text-anchor="start" x="99" y="-338.5" font-family="Helvetica,sans-Serif" font-size="10.00">+ move()</text>
<text text-anchor="start" x="99" y="-327.5" font-family="Helvetica,sans-Serif" font-size="10.00">+ setPosition()</text>
<text text-anchor="start" x="99" y="-316.5" font-family="Helvetica,sans-Serif" font-size="10.00">+ getPosition()</text>
<text text-anchor="start" x="99" y="-305.5" font-family="Helvetica,sans-Serif" font-size="10.00">+ rotate()</text>
<text text-anchor="start" x="99" y="-294.5" font-family="Helvetica,sans-Serif" font-size="10.00">+ setRotation()</text>
<text text-anchor="start" x="99" y="-283.5" font-family="Helvetica,sans-Serif" font-size="10.00">+ getRotation()</text>
<text text-anchor="start" x="99" y="-272.5" font-family="Helvetica,sans-Serif" font-size="10.00">+ scale()</text>
<text text-anchor="start" x="99" y="-261.5" font-family="Helvetica,sans-Serif" font-size="10.00">et 18 de plus...</text>
</a>
</g>
</g>
<!-- Node1&#45;&gt;Node0 -->
<g id="edge1" class="edge"><title>Node1&#45;&gt;Node0</title>
<path fill="none" stroke="midnightblue" d="M141,-244.252C141,-234.685 141,-225.643 141,-217.51"/>
<polygon fill="none" stroke="midnightblue" points="137.5,-244.396 141,-254.396 144.5,-244.396 137.5,-244.396"/>
</g>
</g>
</svg>
