<?xml version="1.0" encoding="UTF-8" standalone="no"?>
<!DOCTYPE svg PUBLIC "-//W3C//DTD SVG 1.1//EN"
 "http://www.w3.org/Graphics/SVG/1.1/DTD/svg11.dtd">
<!-- Generated by graphviz version 2.38.0 (20140413.2041)
 -->
<!-- Title: Entite Pages: 1 -->
<svg width="227pt" height="140pt"
 viewBox="0.00 0.00 227.00 140.00" xmlns="http://www.w3.org/2000/svg" xmlns:xlink="http://www.w3.org/1999/xlink">
<g id="graph0" class="graph" transform="scale(1 1) rotate(0) translate(4 136)">
<title>Entite</title>
<polygon fill="white" stroke="none" points="-4,4 -4,-136 223,-136 223,4 -4,4"/>
<!-- Node0 -->
<g id="node1" class="node"><title>Node0</title>
<polygon fill="#bfbfbf" stroke="black" points="115.5,-112.5 115.5,-131.5 157.5,-131.5 157.5,-112.5 115.5,-112.5"/>
<text text-anchor="middle" x="136.5" y="-119.5" font-family="Helvetica,sans-Serif" font-size="10.00">Entite</text>
</g>
<!-- Node1 -->
<g id="node2" class="node"><title>Node1</title>
<g id="a_node2"><a xlink:href="class_projectile.html" target="_top" xlink:title="Classe abstraite qui définit la structure générale d&#39;un projectile, à faire hériter pour chaque proje...">
<polygon fill="white" stroke="black" points="69,-56.5 69,-75.5 126,-75.5 126,-56.5 69,-56.5"/>
<text text-anchor="middle" x="97.5" y="-63.5" font-family="Helvetica,sans-Serif" font-size="10.00">Projectile</text>
</a>
</g>
</g>
<!-- Node0&#45;&gt;Node1 -->
<g id="edge1" class="edge"><title>Node0&#45;&gt;Node1</title>
<path fill="none" stroke="midnightblue" d="M124.118,-103.855C117.365,-94.5048 109.291,-83.3265 103.82,-75.7511"/>
<polygon fill="midnightblue" stroke="midnightblue" points="121.368,-106.025 130.06,-112.083 127.042,-101.927 121.368,-106.025"/>
</g>
<!-- Node4 -->
<g id="node5" class="node"><title>Node4</title>
<g id="a_node5"><a xlink:href="class_vaisseau.html" target="_top" xlink:title="classe du vaisseau (véhicule) d&#39;un joueur ou d&#39;un ennemi ">
<polygon fill="white" stroke="black" points="148,-56.5 148,-75.5 205,-75.5 205,-56.5 148,-56.5"/>
<text text-anchor="middle" x="176.5" y="-63.5" font-family="Helvetica,sans-Serif" font-size="10.00">Vaisseau</text>
</a>
</g>
</g>
<!-- Node0&#45;&gt;Node4 -->
<g id="edge4" class="edge"><title>Node0&#45;&gt;Node4</title>
<path fill="none" stroke="midnightblue" d="M149.2,-103.855C156.126,-94.5048 164.406,-83.3265 170.018,-75.7511"/>
<polygon fill="midnightblue" stroke="midnightblue" points="146.245,-101.964 143.105,-112.083 151.87,-106.131 146.245,-101.964"/>
</g>
<!-- Node2 -->
<g id="node3" class="node"><title>Node2</title>
<g id="a_node3"><a xlink:href="class_proj_piou.html" target="_top" xlink:title="ProjPiou">
<polygon fill="white" stroke="black" points="0,-0.5 0,-19.5 53,-19.5 53,-0.5 0,-0.5"/>
<text text-anchor="middle" x="26.5" y="-7.5" font-family="Helvetica,sans-Serif" font-size="10.00">ProjPiou</text>
</a>
</g>
</g>
<!-- Node1&#45;&gt;Node2 -->
<g id="edge2" class="edge"><title>Node1&#45;&gt;Node2</title>
<path fill="none" stroke="midnightblue" d="M77.9103,-50.1008C65.1324,-40.3824 48.8873,-28.0269 38.1149,-19.8339"/>
<polygon fill="midnightblue" stroke="midnightblue" points="76.0143,-53.0561 86.0926,-56.324 80.2519,-47.4844 76.0143,-53.0561"/>
</g>
<!-- Node3 -->
<g id="node4" class="node"><title>Node3</title>
<g id="a_node4"><a xlink:href="class_proj_test.html" target="_top" xlink:title="Projectile de test. ">
<polygon fill="white" stroke="black" points="71,-0.5 71,-19.5 124,-19.5 124,-0.5 71,-0.5"/>
<text text-anchor="middle" x="97.5" y="-7.5" font-family="Helvetica,sans-Serif" font-size="10.00">ProjTest</text>
</a>
</g>
</g>
<!-- Node1&#45;&gt;Node3 -->
<g id="edge3" class="edge"><title>Node1&#45;&gt;Node3</title>
<path fill="none" stroke="midnightblue" d="M97.5,-45.8045C97.5,-36.9102 97.5,-26.7798 97.5,-19.7511"/>
<polygon fill="midnightblue" stroke="midnightblue" points="94.0001,-46.083 97.5,-56.083 101,-46.083 94.0001,-46.083"/>
</g>
<!-- Node5 -->
<g id="node6" class="node"><title>Node5</title>
<g id="a_node6"><a xlink:href="class_vaisseau_test.html" target="_top" xlink:title="VaisseauTest">
<polygon fill="white" stroke="black" points="142,-0.5 142,-19.5 219,-19.5 219,-0.5 142,-0.5"/>
<text text-anchor="middle" x="180.5" y="-7.5" font-family="Helvetica,sans-Serif" font-size="10.00">VaisseauTest</text>
</a>
</g>
</g>
<!-- Node4&#45;&gt;Node5 -->
<g id="edge5" class="edge"><title>Node4&#45;&gt;Node5</title>
<path fill="none" stroke="midnightblue" d="M177.9,-46.1005C178.564,-37.1357 179.325,-26.8579 179.852,-19.7511"/>
<polygon fill="midnightblue" stroke="midnightblue" points="174.409,-45.8517 177.161,-56.083 181.39,-46.3689 174.409,-45.8517"/>
</g>
</g>
</svg>
