<?xml version="1.0" encoding="UTF-8" standalone="no"?>
<!DOCTYPE svg PUBLIC "-//W3C//DTD SVG 1.1//EN"
 "http://www.w3.org/Graphics/SVG/1.1/DTD/svg11.dtd">
<!-- Generated by graphviz version 2.38.0 (20140413.2041)
 -->
<!-- Title: ProjPiou Pages: 1 -->
<svg width="65pt" height="140pt"
 viewBox="0.00 0.00 65.00 140.00" xmlns="http://www.w3.org/2000/svg" xmlns:xlink="http://www.w3.org/1999/xlink">
<g id="graph0" class="graph" transform="scale(1 1) rotate(0) translate(4 136)">
<title>ProjPiou</title>
<polygon fill="white" stroke="none" points="-4,4 -4,-136 61,-136 61,4 -4,4"/>
<!-- Node0 -->
<g id="node1" class="node"><title>Node0</title>
<polygon fill="#bfbfbf" stroke="black" points="2,-0.5 2,-19.5 55,-19.5 55,-0.5 2,-0.5"/>
<text text-anchor="middle" x="28.5" y="-7.5" font-family="Helvetica,sans-Serif" font-size="10.00">ProjPiou</text>
</g>
<!-- Node1 -->
<g id="node2" class="node"><title>Node1</title>
<g id="a_node2"><a xlink:href="class_projectile.html" target="_top" xlink:title="Classe abstraite qui définit la structure générale d&#39;un projectile, à faire hériter pour chaque proje...">
<polygon fill="white" stroke="black" points="0,-56.5 0,-75.5 57,-75.5 57,-56.5 0,-56.5"/>
<text text-anchor="middle" x="28.5" y="-63.5" font-family="Helvetica,sans-Serif" font-size="10.00">Projectile</text>
</a>
</g>
</g>
<!-- Node1&#45;&gt;Node0 -->
<g id="edge1" class="edge"><title>Node1&#45;&gt;Node0</title>
<path fill="none" stroke="midnightblue" d="M28.5,-45.8045C28.5,-36.9102 28.5,-26.7798 28.5,-19.7511"/>
<polygon fill="midnightblue" stroke="midnightblue" points="25.0001,-46.083 28.5,-56.083 32.0001,-46.083 25.0001,-46.083"/>
</g>
<!-- Node2 -->
<g id="node3" class="node"><title>Node2</title>
<g id="a_node3"><a xlink:href="class_entite.html" target="_top" xlink:title="Classe virtuelle qui définit une entité ">
<polygon fill="white" stroke="black" points="7.5,-112.5 7.5,-131.5 49.5,-131.5 49.5,-112.5 7.5,-112.5"/>
<text text-anchor="middle" x="28.5" y="-119.5" font-family="Helvetica,sans-Serif" font-size="10.00">Entite</text>
</a>
</g>
</g>
<!-- Node2&#45;&gt;Node1 -->
<g id="edge2" class="edge"><title>Node2&#45;&gt;Node1</title>
<path fill="none" stroke="midnightblue" d="M28.5,-101.805C28.5,-92.9102 28.5,-82.7798 28.5,-75.7511"/>
<polygon fill="midnightblue" stroke="midnightblue" points="25.0001,-102.083 28.5,-112.083 32.0001,-102.083 25.0001,-102.083"/>
</g>
</g>
</svg>
