<?xml version="1.0" encoding="UTF-8" standalone="no"?>
<!DOCTYPE svg PUBLIC "-//W3C//DTD SVG 1.1//EN"
 "http://www.w3.org/Graphics/SVG/1.1/DTD/svg11.dtd">
<!-- Generated by graphviz version 2.38.0 (20140413.2041)
 -->
<!-- Title: Vaisseau Pages: 1 -->
<svg width="668pt" height="727pt"
 viewBox="0.00 0.00 668.00 727.00" xmlns="http://www.w3.org/2000/svg" xmlns:xlink="http://www.w3.org/1999/xlink">
<g id="graph0" class="graph" transform="scale(1 1) rotate(0) translate(4 723)">
<title>Vaisseau</title>
<polygon fill="white" stroke="none" points="-4,4 -4,-723 664,-723 664,4 -4,4"/>
<!-- Node0 -->
<g id="node1" class="node"><title>Node0</title>
<polygon fill="#bfbfbf" stroke="black" points="294,-127.5 294,-404.5 396,-404.5 396,-127.5 294,-127.5"/>
<text text-anchor="middle" x="345" y="-392.5" font-family="Helvetica,sans-Serif" font-size="10.00">Vaisseau</text>
<polyline fill="none" stroke="black" points="294,-385.5 396,-385.5 "/>
<text text-anchor="start" x="302" y="-373.5" font-family="Helvetica,sans-Serif" font-size="10.00"># nom_</text>
<text text-anchor="start" x="302" y="-362.5" font-family="Helvetica,sans-Serif" font-size="10.00"># Nskin_</text>
<text text-anchor="start" x="302" y="-351.5" font-family="Helvetica,sans-Serif" font-size="10.00"># pvM_</text>
<text text-anchor="start" x="302" y="-340.5" font-family="Helvetica,sans-Serif" font-size="10.00"># atqM_</text>
<text text-anchor="start" x="302" y="-329.5" font-family="Helvetica,sans-Serif" font-size="10.00"># defM_</text>
<text text-anchor="start" x="302" y="-318.5" font-family="Helvetica,sans-Serif" font-size="10.00"># vitM_</text>
<text text-anchor="start" x="302" y="-307.5" font-family="Helvetica,sans-Serif" font-size="10.00"># capacites_</text>
<text text-anchor="start" x="302" y="-296.5" font-family="Helvetica,sans-Serif" font-size="10.00"># annexes_</text>
<text text-anchor="start" x="302" y="-285.5" font-family="Helvetica,sans-Serif" font-size="10.00"># annexesB_</text>
<text text-anchor="start" x="302" y="-274.5" font-family="Helvetica,sans-Serif" font-size="10.00"># createur_</text>
<text text-anchor="start" x="302" y="-263.5" font-family="Helvetica,sans-Serif" font-size="10.00"># nbModule_</text>
<polyline fill="none" stroke="black" points="294,-256.5 396,-256.5 "/>
<text text-anchor="start" x="302" y="-244.5" font-family="Helvetica,sans-Serif" font-size="10.00">+ Vaisseau()</text>
<text text-anchor="start" x="302" y="-233.5" font-family="Helvetica,sans-Serif" font-size="10.00">+ ~Vaisseau()</text>
<text text-anchor="start" x="302" y="-222.5" font-family="Helvetica,sans-Serif" font-size="10.00">+ gestion()</text>
<text text-anchor="start" x="302" y="-211.5" font-family="Helvetica,sans-Serif" font-size="10.00">+ gestionCapacite()</text>
<text text-anchor="start" x="302" y="-200.5" font-family="Helvetica,sans-Serif" font-size="10.00">+ agit()</text>
<text text-anchor="start" x="302" y="-189.5" font-family="Helvetica,sans-Serif" font-size="10.00">+ destruction()</text>
<text text-anchor="start" x="302" y="-178.5" font-family="Helvetica,sans-Serif" font-size="10.00">+ setEquipe()</text>
<text text-anchor="start" x="302" y="-167.5" font-family="Helvetica,sans-Serif" font-size="10.00">+ addCapacite()</text>
<text text-anchor="start" x="302" y="-156.5" font-family="Helvetica,sans-Serif" font-size="10.00">+ setnom()</text>
<text text-anchor="start" x="302" y="-145.5" font-family="Helvetica,sans-Serif" font-size="10.00">+ setNskin()</text>
<text text-anchor="start" x="302" y="-134.5" font-family="Helvetica,sans-Serif" font-size="10.00">et 16 de plus...</text>
</g>
<!-- Node2 -->
<g id="node3" class="node"><title>Node2</title>
<g id="a_node3"><a xlink:href="class_vaisseau_attaquant.html" target="_top" xlink:title="classe d&#39;un ennemi de base : l&#39;attaquant ">
<polygon fill="white" stroke="black" points="0,-0.5 0,-90.5 120,-90.5 120,-0.5 0,-0.5"/>
<text text-anchor="middle" x="60" y="-78.5" font-family="Helvetica,sans-Serif" font-size="10.00">VaisseauAttaquant</text>
<polyline fill="none" stroke="black" points="0,-71.5 120,-71.5 "/>
<text text-anchor="middle" x="60" y="-59.5" font-family="Helvetica,sans-Serif" font-size="10.00"> </text>
<polyline fill="none" stroke="black" points="0,-52.5 120,-52.5 "/>
<text text-anchor="start" x="8" y="-40.5" font-family="Helvetica,sans-Serif" font-size="10.00">+ VaisseauAttaquant()</text>
<text text-anchor="start" x="8" y="-29.5" font-family="Helvetica,sans-Serif" font-size="10.00">+ ~VaisseauAttaquant()</text>
<text text-anchor="start" x="8" y="-18.5" font-family="Helvetica,sans-Serif" font-size="10.00">+ gestion()</text>
<text text-anchor="start" x="8" y="-7.5" font-family="Helvetica,sans-Serif" font-size="10.00">+ destruction()</text>
</a>
</g>
</g>
<!-- Node0&#45;&gt;Node2 -->
<g id="edge2" class="edge"><title>Node0&#45;&gt;Node2</title>
<path fill="none" stroke="midnightblue" d="M285.667,-219.511C236.269,-181.64 166.36,-128.042 117.483,-90.5706"/>
<polygon fill="none" stroke="midnightblue" points="283.653,-222.378 293.719,-225.684 287.912,-216.822 283.653,-222.378"/>
</g>
<!-- Node3 -->
<g id="node4" class="node"><title>Node3</title>
<g id="a_node4"><a xlink:href="class_vaisseau_defenseur.html" target="_top" xlink:title="{VaisseauDefenseur\n||+ VaisseauDefenseur()\l+ ~VaisseauDefenseur()\l+ gestion()\l+ destruction()\l}">
<polygon fill="white" stroke="black" points="138.5,-0.5 138.5,-90.5 261.5,-90.5 261.5,-0.5 138.5,-0.5"/>
<text text-anchor="middle" x="200" y="-78.5" font-family="Helvetica,sans-Serif" font-size="10.00">VaisseauDefenseur</text>
<polyline fill="none" stroke="black" points="138.5,-71.5 261.5,-71.5 "/>
<text text-anchor="middle" x="200" y="-59.5" font-family="Helvetica,sans-Serif" font-size="10.00"> </text>
<polyline fill="none" stroke="black" points="138.5,-52.5 261.5,-52.5 "/>
<text text-anchor="start" x="146.5" y="-40.5" font-family="Helvetica,sans-Serif" font-size="10.00">+ VaisseauDefenseur()</text>
<text text-anchor="start" x="146.5" y="-29.5" font-family="Helvetica,sans-Serif" font-size="10.00">+ ~VaisseauDefenseur()</text>
<text text-anchor="start" x="146.5" y="-18.5" font-family="Helvetica,sans-Serif" font-size="10.00">+ gestion()</text>
<text text-anchor="start" x="146.5" y="-7.5" font-family="Helvetica,sans-Serif" font-size="10.00">+ destruction()</text>
</a>
</g>
</g>
<!-- Node0&#45;&gt;Node3 -->
<g id="edge3" class="edge"><title>Node0&#45;&gt;Node3</title>
<path fill="none" stroke="midnightblue" d="M288.252,-179.486C268.123,-149.154 246.292,-116.257 229.379,-90.7712"/>
<polygon fill="none" stroke="midnightblue" points="285.433,-181.568 293.878,-187.965 291.265,-177.698 285.433,-181.568"/>
</g>
<!-- Node4 -->
<g id="node5" class="node"><title>Node4</title>
<g id="a_node5"><a xlink:href="class_vaisseau_defenseur_b.html" target="_top" xlink:title="classe du bouclier du VaisseauDefenseur ">
<polygon fill="white" stroke="black" points="280,-0.5 280,-90.5 410,-90.5 410,-0.5 280,-0.5"/>
<text text-anchor="middle" x="345" y="-78.5" font-family="Helvetica,sans-Serif" font-size="10.00">VaisseauDefenseurB</text>
<polyline fill="none" stroke="black" points="280,-71.5 410,-71.5 "/>
<text text-anchor="middle" x="345" y="-59.5" font-family="Helvetica,sans-Serif" font-size="10.00"> </text>
<polyline fill="none" stroke="black" points="280,-52.5 410,-52.5 "/>
<text text-anchor="start" x="288" y="-40.5" font-family="Helvetica,sans-Serif" font-size="10.00">+ VaisseauDefenseurB()</text>
<text text-anchor="start" x="288" y="-29.5" font-family="Helvetica,sans-Serif" font-size="10.00">+ ~VaisseauDefenseurB()</text>
<text text-anchor="start" x="288" y="-18.5" font-family="Helvetica,sans-Serif" font-size="10.00">+ gestion()</text>
<text text-anchor="start" x="288" y="-7.5" font-family="Helvetica,sans-Serif" font-size="10.00">+ destruction()</text>
</a>
</g>
</g>
<!-- Node0&#45;&gt;Node4 -->
<g id="edge4" class="edge"><title>Node0&#45;&gt;Node4</title>
<path fill="none" stroke="midnightblue" d="M345,-117.055C345,-107.808 345,-98.9864 345,-90.906"/>
<polygon fill="none" stroke="midnightblue" points="341.5,-117.241 345,-127.241 348.5,-117.241 341.5,-117.241"/>
</g>
<!-- Node5 -->
<g id="node6" class="node"><title>Node5</title>
<g id="a_node6"><a xlink:href="class_vaisseau_eclaireur.html" target="_top" xlink:title="classe d&#39;un ennemi de base : l&#39;éclaireur ">
<polygon fill="white" stroke="black" points="428,-0.5 428,-90.5 544,-90.5 544,-0.5 428,-0.5"/>
<text text-anchor="middle" x="486" y="-78.5" font-family="Helvetica,sans-Serif" font-size="10.00">VaisseauEclaireur</text>
<polyline fill="none" stroke="black" points="428,-71.5 544,-71.5 "/>
<text text-anchor="middle" x="486" y="-59.5" font-family="Helvetica,sans-Serif" font-size="10.00"> </text>
<polyline fill="none" stroke="black" points="428,-52.5 544,-52.5 "/>
<text text-anchor="start" x="436" y="-40.5" font-family="Helvetica,sans-Serif" font-size="10.00">+ VaisseauEclaireur()</text>
<text text-anchor="start" x="436" y="-29.5" font-family="Helvetica,sans-Serif" font-size="10.00">+ ~VaisseauEclaireur()</text>
<text text-anchor="start" x="436" y="-18.5" font-family="Helvetica,sans-Serif" font-size="10.00">+ gestion()</text>
<text text-anchor="start" x="436" y="-7.5" font-family="Helvetica,sans-Serif" font-size="10.00">+ destruction()</text>
</a>
</g>
</g>
<!-- Node0&#45;&gt;Node5 -->
<g id="edge5" class="edge"><title>Node0&#45;&gt;Node5</title>
<path fill="none" stroke="midnightblue" d="M401.743,-177.068C420.947,-147.309 441.567,-115.355 457.602,-90.5067"/>
<polygon fill="none" stroke="midnightblue" points="398.585,-175.507 396.104,-185.808 404.467,-179.303 398.585,-175.507"/>
</g>
<!-- Node6 -->
<g id="node7" class="node"><title>Node6</title>
<g id="a_node7"><a xlink:href="class_vaisseau_test.html" target="_top" xlink:title="{VaisseauTest\n||+ VaisseauTest()\l+ ~VaisseauTest()\l+ gestion()\l+ destruction()\l}">
<polygon fill="white" stroke="black" points="562,-0.5 562,-90.5 660,-90.5 660,-0.5 562,-0.5"/>
<text text-anchor="middle" x="611" y="-78.5" font-family="Helvetica,sans-Serif" font-size="10.00">VaisseauTest</text>
<polyline fill="none" stroke="black" points="562,-71.5 660,-71.5 "/>
<text text-anchor="middle" x="611" y="-59.5" font-family="Helvetica,sans-Serif" font-size="10.00"> </text>
<polyline fill="none" stroke="black" points="562,-52.5 660,-52.5 "/>
<text text-anchor="start" x="570" y="-40.5" font-family="Helvetica,sans-Serif" font-size="10.00">+ VaisseauTest()</text>
<text text-anchor="start" x="570" y="-29.5" font-family="Helvetica,sans-Serif" font-size="10.00">+ ~VaisseauTest()</text>
<text text-anchor="start" x="570" y="-18.5" font-family="Helvetica,sans-Serif" font-size="10.00">+ gestion()</text>
<text text-anchor="start" x="570" y="-7.5" font-family="Helvetica,sans-Serif" font-size="10.00">+ destruction()</text>
</a>
</g>
</g>
<!-- Node0&#45;&gt;Node6 -->
<g id="edge6" class="edge"><title>Node0&#45;&gt;Node6</title>
<path fill="none" stroke="midnightblue" d="M404.019,-216.52C451.375,-177.62 517.083,-123.646 561.669,-87.0222"/>
<polygon fill="none" stroke="midnightblue" points="401.793,-213.819 396.287,-222.871 406.236,-219.228 401.793,-213.819"/>
</g>
<!-- Node1 -->
<g id="node2" class="node"><title>Node1</title>
<g id="a_node2"><a xlink:href="class_entite.html" target="_top" xlink:title="Classe virtuelle qui définit une entité ">
<polygon fill="white" stroke="black" points="295,-441.5 295,-718.5 395,-718.5 395,-441.5 295,-441.5"/>
<text text-anchor="middle" x="345" y="-706.5" font-family="Helvetica,sans-Serif" font-size="10.00">Entite</text>
<polyline fill="none" stroke="black" points="295,-699.5 395,-699.5 "/>
<text text-anchor="start" x="303" y="-687.5" font-family="Helvetica,sans-Serif" font-size="10.00"># collisionable_</text>
<text text-anchor="start" x="303" y="-676.5" font-family="Helvetica,sans-Serif" font-size="10.00"># detruit_</text>
<text text-anchor="start" x="303" y="-665.5" font-family="Helvetica,sans-Serif" font-size="10.00"># actif_</text>
<text text-anchor="start" x="303" y="-654.5" font-family="Helvetica,sans-Serif" font-size="10.00"># equipe_</text>
<text text-anchor="start" x="303" y="-643.5" font-family="Helvetica,sans-Serif" font-size="10.00"># position_</text>
<text text-anchor="start" x="303" y="-632.5" font-family="Helvetica,sans-Serif" font-size="10.00"># angle_</text>
<text text-anchor="start" x="303" y="-621.5" font-family="Helvetica,sans-Serif" font-size="10.00"># scale_</text>
<text text-anchor="start" x="303" y="-610.5" font-family="Helvetica,sans-Serif" font-size="10.00"># cercleEnglobant_</text>
<text text-anchor="start" x="303" y="-599.5" font-family="Helvetica,sans-Serif" font-size="10.00"># forme_</text>
<text text-anchor="start" x="303" y="-588.5" font-family="Helvetica,sans-Serif" font-size="10.00"># texture_</text>
<text text-anchor="start" x="303" y="-577.5" font-family="Helvetica,sans-Serif" font-size="10.00">et 13 de plus...</text>
<polyline fill="none" stroke="black" points="295,-570.5 395,-570.5 "/>
<text text-anchor="start" x="303" y="-558.5" font-family="Helvetica,sans-Serif" font-size="10.00">+ ~Entite()</text>
<text text-anchor="start" x="303" y="-547.5" font-family="Helvetica,sans-Serif" font-size="10.00">+ getForme()</text>
<text text-anchor="start" x="303" y="-536.5" font-family="Helvetica,sans-Serif" font-size="10.00">+ afficher()</text>
<text text-anchor="start" x="303" y="-525.5" font-family="Helvetica,sans-Serif" font-size="10.00">+ move()</text>
<text text-anchor="start" x="303" y="-514.5" font-family="Helvetica,sans-Serif" font-size="10.00">+ setPosition()</text>
<text text-anchor="start" x="303" y="-503.5" font-family="Helvetica,sans-Serif" font-size="10.00">+ getPosition()</text>
<text text-anchor="start" x="303" y="-492.5" font-family="Helvetica,sans-Serif" font-size="10.00">+ rotate()</text>
<text text-anchor="start" x="303" y="-481.5" font-family="Helvetica,sans-Serif" font-size="10.00">+ setRotation()</text>
<text text-anchor="start" x="303" y="-470.5" font-family="Helvetica,sans-Serif" font-size="10.00">+ getRotation()</text>
<text text-anchor="start" x="303" y="-459.5" font-family="Helvetica,sans-Serif" font-size="10.00">+ scale()</text>
<text text-anchor="start" x="303" y="-448.5" font-family="Helvetica,sans-Serif" font-size="10.00">et 18 de plus...</text>
</a>
</g>
</g>
<!-- Node1&#45;&gt;Node0 -->
<g id="edge1" class="edge"><title>Node1&#45;&gt;Node0</title>
<path fill="none" stroke="midnightblue" d="M345,-431.023C345,-422.297 345,-413.538 345,-404.855"/>
<polygon fill="none" stroke="midnightblue" points="341.5,-431.244 345,-441.244 348.5,-431.244 341.5,-431.244"/>
</g>
</g>
</svg>
