<?xml version="1.0" encoding="UTF-8" standalone="no"?>
<!DOCTYPE svg PUBLIC "-//W3C//DTD SVG 1.1//EN"
 "http://www.w3.org/Graphics/SVG/1.1/DTD/svg11.dtd">
<!-- Generated by graphviz version 2.38.0 (20140413.2041)
 -->
<!-- Title: Capacite Pages: 1 -->
<svg width="366pt" height="314pt"
 viewBox="0.00 0.00 365.50 314.00" xmlns="http://www.w3.org/2000/svg" xmlns:xlink="http://www.w3.org/1999/xlink">
<g id="graph0" class="graph" transform="scale(1 1) rotate(0) translate(4 310)">
<title>Capacite</title>
<polygon fill="white" stroke="none" points="-4,4 -4,-310 361.5,-310 361.5,4 -4,4"/>
<!-- Node0 -->
<g id="node1" class="node"><title>Node0</title>
<polygon fill="#bfbfbf" stroke="black" points="134.5,-127.5 134.5,-305.5 223.5,-305.5 223.5,-127.5 134.5,-127.5"/>
<text text-anchor="middle" x="179" y="-293.5" font-family="Helvetica,sans-Serif" font-size="10.00">Capacite</text>
<polyline fill="none" stroke="black" points="134.5,-286.5 223.5,-286.5 "/>
<text text-anchor="start" x="142.5" y="-274.5" font-family="Helvetica,sans-Serif" font-size="10.00"># debutX_</text>
<text text-anchor="start" x="142.5" y="-263.5" font-family="Helvetica,sans-Serif" font-size="10.00"># debutY_</text>
<text text-anchor="start" x="142.5" y="-252.5" font-family="Helvetica,sans-Serif" font-size="10.00"># cooldown_</text>
<text text-anchor="start" x="142.5" y="-241.5" font-family="Helvetica,sans-Serif" font-size="10.00"># t_</text>
<text text-anchor="start" x="142.5" y="-230.5" font-family="Helvetica,sans-Serif" font-size="10.00"># frames_</text>
<text text-anchor="start" x="142.5" y="-219.5" font-family="Helvetica,sans-Serif" font-size="10.00"># nom_</text>
<polyline fill="none" stroke="black" points="134.5,-212.5 223.5,-212.5 "/>
<text text-anchor="start" x="142.5" y="-200.5" font-family="Helvetica,sans-Serif" font-size="10.00">+ Capacite()</text>
<text text-anchor="start" x="142.5" y="-189.5" font-family="Helvetica,sans-Serif" font-size="10.00">+ ~Capacite()</text>
<text text-anchor="start" x="142.5" y="-178.5" font-family="Helvetica,sans-Serif" font-size="10.00">+ utiliser()</text>
<text text-anchor="start" x="142.5" y="-167.5" font-family="Helvetica,sans-Serif" font-size="10.00">+ actualiser()</text>
<text text-anchor="start" x="142.5" y="-156.5" font-family="Helvetica,sans-Serif" font-size="10.00">+ getCooldown()</text>
<text text-anchor="start" x="142.5" y="-145.5" font-family="Helvetica,sans-Serif" font-size="10.00">+ getTime()</text>
<text text-anchor="start" x="142.5" y="-134.5" font-family="Helvetica,sans-Serif" font-size="10.00">+ getNom()</text>
</g>
<!-- Node1 -->
<g id="node2" class="node"><title>Node1</title>
<g id="a_node2"><a xlink:href="class_cap_dash.html" target="_top" xlink:title="Classe Capacité permettant de dash. ">
<polygon fill="white" stroke="black" points="0,-6 0,-85 74,-85 74,-6 0,-6"/>
<text text-anchor="middle" x="37" y="-73" font-family="Helvetica,sans-Serif" font-size="10.00">CapDash</text>
<polyline fill="none" stroke="black" points="0,-66 74,-66 "/>
<text text-anchor="middle" x="37" y="-54" font-family="Helvetica,sans-Serif" font-size="10.00"> </text>
<polyline fill="none" stroke="black" points="0,-47 74,-47 "/>
<text text-anchor="start" x="8" y="-35" font-family="Helvetica,sans-Serif" font-size="10.00">+ CapDash()</text>
<text text-anchor="start" x="8" y="-24" font-family="Helvetica,sans-Serif" font-size="10.00">+ utiliser()</text>
<text text-anchor="start" x="8" y="-13" font-family="Helvetica,sans-Serif" font-size="10.00">+ actualiser()</text>
</a>
</g>
</g>
<!-- Node0&#45;&gt;Node1 -->
<g id="edge1" class="edge"><title>Node0&#45;&gt;Node1</title>
<path fill="none" stroke="midnightblue" d="M127.939,-154.73C108.434,-131.517 86.7454,-105.704 69.4421,-85.1106"/>
<polygon fill="none" stroke="midnightblue" points="125.347,-157.086 134.46,-162.491 130.707,-152.583 125.347,-157.086"/>
</g>
<!-- Node2 -->
<g id="node3" class="node"><title>Node2</title>
<g id="a_node3"><a xlink:href="class_cap_missile.html" target="_top" xlink:title="Classe Capacité de base. ">
<polygon fill="white" stroke="black" points="92,-6 92,-85 172,-85 172,-6 92,-6"/>
<text text-anchor="middle" x="132" y="-73" font-family="Helvetica,sans-Serif" font-size="10.00">CapMissile</text>
<polyline fill="none" stroke="black" points="92,-66 172,-66 "/>
<text text-anchor="middle" x="132" y="-54" font-family="Helvetica,sans-Serif" font-size="10.00"> </text>
<polyline fill="none" stroke="black" points="92,-47 172,-47 "/>
<text text-anchor="start" x="100" y="-35" font-family="Helvetica,sans-Serif" font-size="10.00">+ CapMissile()</text>
<text text-anchor="start" x="100" y="-24" font-family="Helvetica,sans-Serif" font-size="10.00">+ utiliser()</text>
<text text-anchor="start" x="100" y="-13" font-family="Helvetica,sans-Serif" font-size="10.00">+ actualiser()</text>
</a>
</g>
</g>
<!-- Node0&#45;&gt;Node2 -->
<g id="edge2" class="edge"><title>Node0&#45;&gt;Node2</title>
<path fill="none" stroke="midnightblue" d="M151.634,-117.098C148.508,-105.859 145.476,-94.958 142.768,-85.219"/>
<polygon fill="none" stroke="midnightblue" points="148.347,-118.344 154.399,-127.04 155.091,-116.468 148.347,-118.344"/>
</g>
<!-- Node3 -->
<g id="node4" class="node"><title>Node3</title>
<g id="a_node4"><a xlink:href="class_cap_piou.html" target="_top" xlink:title="Classe Capacité de base. ">
<polygon fill="white" stroke="black" points="190,-6 190,-85 264,-85 264,-6 190,-6"/>
<text text-anchor="middle" x="227" y="-73" font-family="Helvetica,sans-Serif" font-size="10.00">CapPiou</text>
<polyline fill="none" stroke="black" points="190,-66 264,-66 "/>
<text text-anchor="middle" x="227" y="-54" font-family="Helvetica,sans-Serif" font-size="10.00"> </text>
<polyline fill="none" stroke="black" points="190,-47 264,-47 "/>
<text text-anchor="start" x="198" y="-35" font-family="Helvetica,sans-Serif" font-size="10.00">+ CapPiou()</text>
<text text-anchor="start" x="198" y="-24" font-family="Helvetica,sans-Serif" font-size="10.00">+ utiliser()</text>
<text text-anchor="start" x="198" y="-13" font-family="Helvetica,sans-Serif" font-size="10.00">+ actualiser()</text>
</a>
</g>
</g>
<!-- Node0&#45;&gt;Node3 -->
<g id="edge3" class="edge"><title>Node0&#45;&gt;Node3</title>
<path fill="none" stroke="midnightblue" d="M206.949,-117.098C210.141,-105.859 213.237,-94.958 216.003,-85.219"/>
<polygon fill="none" stroke="midnightblue" points="203.49,-116.465 204.125,-127.04 210.224,-118.377 203.49,-116.465"/>
</g>
<!-- Node4 -->
<g id="node5" class="node"><title>Node4</title>
<g id="a_node5"><a xlink:href="class_cap_test.html" target="_top" xlink:title="Classe Capacité de test. ">
<polygon fill="white" stroke="black" points="282.5,-0.5 282.5,-90.5 357.5,-90.5 357.5,-0.5 282.5,-0.5"/>
<text text-anchor="middle" x="320" y="-78.5" font-family="Helvetica,sans-Serif" font-size="10.00">CapTest</text>
<polyline fill="none" stroke="black" points="282.5,-71.5 357.5,-71.5 "/>
<text text-anchor="middle" x="320" y="-59.5" font-family="Helvetica,sans-Serif" font-size="10.00"> </text>
<polyline fill="none" stroke="black" points="282.5,-52.5 357.5,-52.5 "/>
<text text-anchor="start" x="290.5" y="-40.5" font-family="Helvetica,sans-Serif" font-size="10.00">+ CapTest()</text>
<text text-anchor="start" x="290.5" y="-29.5" font-family="Helvetica,sans-Serif" font-size="10.00">+ ~CapTest()</text>
<text text-anchor="start" x="290.5" y="-18.5" font-family="Helvetica,sans-Serif" font-size="10.00">+ utiliser()</text>
<text text-anchor="start" x="290.5" y="-7.5" font-family="Helvetica,sans-Serif" font-size="10.00">+ actualiser()</text>
</a>
</g>
</g>
<!-- Node0&#45;&gt;Node4 -->
<g id="edge4" class="edge"><title>Node0&#45;&gt;Node4</title>
<path fill="none" stroke="midnightblue" d="M230.243,-154.081C247.789,-133.05 267.059,-109.955 283.23,-90.5718"/>
<polygon fill="none" stroke="midnightblue" points="227.332,-152.107 223.613,-162.027 232.707,-156.591 227.332,-152.107"/>
</g>
</g>
</svg>
