<?xml version="1.0" encoding="UTF-8" standalone="no"?>
<!DOCTYPE svg PUBLIC "-//W3C//DTD SVG 1.1//EN"
 "http://www.w3.org/Graphics/SVG/1.1/DTD/svg11.dtd">
<!-- Generated by graphviz version 2.38.0 (20140413.2041)
 -->
<!-- Title: VaisseauDefenseurB Pages: 1 -->
<svg width="191pt" height="718pt"
 viewBox="0.00 0.00 191.00 718.00" xmlns="http://www.w3.org/2000/svg" xmlns:xlink="http://www.w3.org/1999/xlink">
<g id="graph0" class="graph" transform="scale(1 1) rotate(0) translate(4 714)">
<title>VaisseauDefenseurB</title>
<polygon fill="white" stroke="none" points="-4,4 -4,-714 187,-714 187,4 -4,4"/>
<!-- Node3 -->
<g id="node1" class="node"><title>Node3</title>
<polygon fill="#bfbfbf" stroke="black" points="0,-0.5 0,-90.5 130,-90.5 130,-0.5 0,-0.5"/>
<text text-anchor="middle" x="65" y="-78.5" font-family="Helvetica,sans-Serif" font-size="10.00">VaisseauDefenseurB</text>
<polyline fill="none" stroke="black" points="0,-71.5 130,-71.5 "/>
<text text-anchor="middle" x="65" y="-59.5" font-family="Helvetica,sans-Serif" font-size="10.00"> </text>
<polyline fill="none" stroke="black" points="0,-52.5 130,-52.5 "/>
<text text-anchor="start" x="8" y="-40.5" font-family="Helvetica,sans-Serif" font-size="10.00">+ VaisseauDefenseurB()</text>
<text text-anchor="start" x="8" y="-29.5" font-family="Helvetica,sans-Serif" font-size="10.00">+ ~VaisseauDefenseurB()</text>
<text text-anchor="start" x="8" y="-18.5" font-family="Helvetica,sans-Serif" font-size="10.00">+ gestion()</text>
<text text-anchor="start" x="8" y="-7.5" font-family="Helvetica,sans-Serif" font-size="10.00">+ destruction()</text>
</g>
<!-- Node4 -->
<g id="node2" class="node"><title>Node4</title>
<g id="a_node2"><a xlink:href="class_vaisseau.html" target="_top" xlink:title="classe du vaisseau (véhicule) d&#39;un joueur ou d&#39;un ennemi ">
<polygon fill="white" stroke="black" points="14,-128.5 14,-394.5 116,-394.5 116,-128.5 14,-128.5"/>
<text text-anchor="middle" x="65" y="-382.5" font-family="Helvetica,sans-Serif" font-size="10.00">Vaisseau</text>
<polyline fill="none" stroke="black" points="14,-375.5 116,-375.5 "/>
<text text-anchor="start" x="22" y="-363.5" font-family="Helvetica,sans-Serif" font-size="10.00"># nom_</text>
<text text-anchor="start" x="22" y="-352.5" font-family="Helvetica,sans-Serif" font-size="10.00"># Nskin_</text>
<text text-anchor="start" x="22" y="-341.5" font-family="Helvetica,sans-Serif" font-size="10.00"># pvM_</text>
<text text-anchor="start" x="22" y="-330.5" font-family="Helvetica,sans-Serif" font-size="10.00"># atqM_</text>
<text text-anchor="start" x="22" y="-319.5" font-family="Helvetica,sans-Serif" font-size="10.00"># defM_</text>
<text text-anchor="start" x="22" y="-308.5" font-family="Helvetica,sans-Serif" font-size="10.00"># vitM_</text>
<text text-anchor="start" x="22" y="-297.5" font-family="Helvetica,sans-Serif" font-size="10.00"># capacites_</text>
<text text-anchor="start" x="22" y="-286.5" font-family="Helvetica,sans-Serif" font-size="10.00"># annexes_</text>
<text text-anchor="start" x="22" y="-275.5" font-family="Helvetica,sans-Serif" font-size="10.00"># annexesB_</text>
<text text-anchor="start" x="22" y="-264.5" font-family="Helvetica,sans-Serif" font-size="10.00"># nbModule_</text>
<polyline fill="none" stroke="black" points="14,-257.5 116,-257.5 "/>
<text text-anchor="start" x="22" y="-245.5" font-family="Helvetica,sans-Serif" font-size="10.00">+ Vaisseau()</text>
<text text-anchor="start" x="22" y="-234.5" font-family="Helvetica,sans-Serif" font-size="10.00">+ ~Vaisseau()</text>
<text text-anchor="start" x="22" y="-223.5" font-family="Helvetica,sans-Serif" font-size="10.00">+ gestion()</text>
<text text-anchor="start" x="22" y="-212.5" font-family="Helvetica,sans-Serif" font-size="10.00">+ gestionCapacite()</text>
<text text-anchor="start" x="22" y="-201.5" font-family="Helvetica,sans-Serif" font-size="10.00">+ agit()</text>
<text text-anchor="start" x="22" y="-190.5" font-family="Helvetica,sans-Serif" font-size="10.00">+ destruction()</text>
<text text-anchor="start" x="22" y="-179.5" font-family="Helvetica,sans-Serif" font-size="10.00">+ setEquipe()</text>
<text text-anchor="start" x="22" y="-168.5" font-family="Helvetica,sans-Serif" font-size="10.00">+ addCapacite()</text>
<text text-anchor="start" x="22" y="-157.5" font-family="Helvetica,sans-Serif" font-size="10.00">+ setnom()</text>
<text text-anchor="start" x="22" y="-146.5" font-family="Helvetica,sans-Serif" font-size="10.00">+ setNskin()</text>
<text text-anchor="start" x="22" y="-135.5" font-family="Helvetica,sans-Serif" font-size="10.00">et 16 de plus...</text>
</a>
</g>
</g>
<!-- Node4&#45;&gt;Node3 -->
<g id="edge1" class="edge"><title>Node4&#45;&gt;Node3</title>
<path fill="none" stroke="midnightblue" d="M65,-118.099C65,-108.428 65,-99.1907 65,-90.7578"/>
<polygon fill="none" stroke="midnightblue" points="61.5001,-118.32 65,-128.32 68.5001,-118.32 61.5001,-118.32"/>
</g>
<!-- Node4&#45;&gt;Node4 -->
<g id="edge3" class="edge"><title>Node4&#45;&gt;Node4</title>
<path fill="none" stroke="#404040" d="M116.155,-288.913C126.553,-285.927 134,-276.789 134,-261.5 134,-252.183 131.235,-245.151 126.721,-240.402"/>
<polygon fill="none" stroke="#404040" points="126.455,-240.243 119.253,-240.599 116.155,-234.087 123.357,-233.732 126.455,-240.243"/>
<text text-anchor="middle" x="158.5" y="-259" font-family="Helvetica,sans-Serif" font-size="10.00"> #createur_</text>
</g>
<!-- Node5 -->
<g id="node3" class="node"><title>Node5</title>
<g id="a_node3"><a xlink:href="class_entite.html" target="_top" xlink:title="Classe virtuelle qui définit une entité ">
<polygon fill="white" stroke="black" points="15,-432.5 15,-709.5 115,-709.5 115,-432.5 15,-432.5"/>
<text text-anchor="middle" x="65" y="-697.5" font-family="Helvetica,sans-Serif" font-size="10.00">Entite</text>
<polyline fill="none" stroke="black" points="15,-690.5 115,-690.5 "/>
<text text-anchor="start" x="23" y="-678.5" font-family="Helvetica,sans-Serif" font-size="10.00"># collisionable_</text>
<text text-anchor="start" x="23" y="-667.5" font-family="Helvetica,sans-Serif" font-size="10.00"># detruit_</text>
<text text-anchor="start" x="23" y="-656.5" font-family="Helvetica,sans-Serif" font-size="10.00"># actif_</text>
<text text-anchor="start" x="23" y="-645.5" font-family="Helvetica,sans-Serif" font-size="10.00"># equipe_</text>
<text text-anchor="start" x="23" y="-634.5" font-family="Helvetica,sans-Serif" font-size="10.00"># position_</text>
<text text-anchor="start" x="23" y="-623.5" font-family="Helvetica,sans-Serif" font-size="10.00"># angle_</text>
<text text-anchor="start" x="23" y="-612.5" font-family="Helvetica,sans-Serif" font-size="10.00"># scale_</text>
<text text-anchor="start" x="23" y="-601.5" font-family="Helvetica,sans-Serif" font-size="10.00"># cercleEnglobant_</text>
<text text-anchor="start" x="23" y="-590.5" font-family="Helvetica,sans-Serif" font-size="10.00"># forme_</text>
<text text-anchor="start" x="23" y="-579.5" font-family="Helvetica,sans-Serif" font-size="10.00"># texture_</text>
<text text-anchor="start" x="23" y="-568.5" font-family="Helvetica,sans-Serif" font-size="10.00">et 13 de plus...</text>
<polyline fill="none" stroke="black" points="15,-561.5 115,-561.5 "/>
<text text-anchor="start" x="23" y="-549.5" font-family="Helvetica,sans-Serif" font-size="10.00">+ ~Entite()</text>
<text text-anchor="start" x="23" y="-538.5" font-family="Helvetica,sans-Serif" font-size="10.00">+ getForme()</text>
<text text-anchor="start" x="23" y="-527.5" font-family="Helvetica,sans-Serif" font-size="10.00">+ afficher()</text>
<text text-anchor="start" x="23" y="-516.5" font-family="Helvetica,sans-Serif" font-size="10.00">+ move()</text>
<text text-anchor="start" x="23" y="-505.5" font-family="Helvetica,sans-Serif" font-size="10.00">+ setPosition()</text>
<text text-anchor="start" x="23" y="-494.5" font-family="Helvetica,sans-Serif" font-size="10.00">+ getPosition()</text>
<text text-anchor="start" x="23" y="-483.5" font-family="Helvetica,sans-Serif" font-size="10.00">+ rotate()</text>
<text text-anchor="start" x="23" y="-472.5" font-family="Helvetica,sans-Serif" font-size="10.00">+ setRotation()</text>
<text text-anchor="start" x="23" y="-461.5" font-family="Helvetica,sans-Serif" font-size="10.00">+ getRotation()</text>
<text text-anchor="start" x="23" y="-450.5" font-family="Helvetica,sans-Serif" font-size="10.00">+ scale()</text>
<text text-anchor="start" x="23" y="-439.5" font-family="Helvetica,sans-Serif" font-size="10.00">et 18 de plus...</text>
</a>
</g>
</g>
<!-- Node5&#45;&gt;Node4 -->
<g id="edge2" class="edge"><title>Node5&#45;&gt;Node4</title>
<path fill="none" stroke="midnightblue" d="M65,-422.182C65,-413.081 65,-403.952 65,-394.922"/>
<polygon fill="none" stroke="midnightblue" points="61.5001,-422.439 65,-432.439 68.5001,-422.439 61.5001,-422.439"/>
</g>
</g>
</svg>
