<?xml version="1.0" encoding="UTF-8" standalone="no"?>
<!DOCTYPE svg PUBLIC "-//W3C//DTD SVG 1.1//EN"
 "http://www.w3.org/Graphics/SVG/1.1/DTD/svg11.dtd">
<!-- Generated by graphviz version 2.38.0 (20140413.2041)
 -->
<!-- Title: VaisseauDefenseur Pages: 1 -->
<svg width="188pt" height="718pt"
 viewBox="0.00 0.00 187.50 718.00" xmlns="http://www.w3.org/2000/svg" xmlns:xlink="http://www.w3.org/1999/xlink">
<g id="graph0" class="graph" transform="scale(1 1) rotate(0) translate(4 714)">
<title>VaisseauDefenseur</title>
<polygon fill="white" stroke="none" points="-4,4 -4,-714 183.5,-714 183.5,4 -4,4"/>
<!-- Node3 -->
<g id="node1" class="node"><title>Node3</title>
<polygon fill="#bfbfbf" stroke="black" points="0,-0.5 0,-90.5 123,-90.5 123,-0.5 0,-0.5"/>
<text text-anchor="middle" x="61.5" y="-78.5" font-family="Helvetica,sans-Serif" font-size="10.00">VaisseauDefenseur</text>
<polyline fill="none" stroke="black" points="0,-71.5 123,-71.5 "/>
<text text-anchor="middle" x="61.5" y="-59.5" font-family="Helvetica,sans-Serif" font-size="10.00"> </text>
<polyline fill="none" stroke="black" points="0,-52.5 123,-52.5 "/>
<text text-anchor="start" x="8" y="-40.5" font-family="Helvetica,sans-Serif" font-size="10.00">+ VaisseauDefenseur()</text>
<text text-anchor="start" x="8" y="-29.5" font-family="Helvetica,sans-Serif" font-size="10.00">+ ~VaisseauDefenseur()</text>
<text text-anchor="start" x="8" y="-18.5" font-family="Helvetica,sans-Serif" font-size="10.00">+ gestion()</text>
<text text-anchor="start" x="8" y="-7.5" font-family="Helvetica,sans-Serif" font-size="10.00">+ destruction()</text>
</g>
<!-- Node4 -->
<g id="node2" class="node"><title>Node4</title>
<g id="a_node2"><a xlink:href="class_vaisseau.html" target="_top" xlink:title="classe du vaisseau (véhicule) d&#39;un joueur ou d&#39;un ennemi ">
<polygon fill="white" stroke="black" points="10.5,-128.5 10.5,-394.5 112.5,-394.5 112.5,-128.5 10.5,-128.5"/>
<text text-anchor="middle" x="61.5" y="-382.5" font-family="Helvetica,sans-Serif" font-size="10.00">Vaisseau</text>
<polyline fill="none" stroke="black" points="10.5,-375.5 112.5,-375.5 "/>
<text text-anchor="start" x="18.5" y="-363.5" font-family="Helvetica,sans-Serif" font-size="10.00"># nom_</text>
<text text-anchor="start" x="18.5" y="-352.5" font-family="Helvetica,sans-Serif" font-size="10.00"># Nskin_</text>
<text text-anchor="start" x="18.5" y="-341.5" font-family="Helvetica,sans-Serif" font-size="10.00"># pvM_</text>
<text text-anchor="start" x="18.5" y="-330.5" font-family="Helvetica,sans-Serif" font-size="10.00"># atqM_</text>
<text text-anchor="start" x="18.5" y="-319.5" font-family="Helvetica,sans-Serif" font-size="10.00"># defM_</text>
<text text-anchor="start" x="18.5" y="-308.5" font-family="Helvetica,sans-Serif" font-size="10.00"># vitM_</text>
<text text-anchor="start" x="18.5" y="-297.5" font-family="Helvetica,sans-Serif" font-size="10.00"># capacites_</text>
<text text-anchor="start" x="18.5" y="-286.5" font-family="Helvetica,sans-Serif" font-size="10.00"># annexes_</text>
<text text-anchor="start" x="18.5" y="-275.5" font-family="Helvetica,sans-Serif" font-size="10.00"># annexesB_</text>
<text text-anchor="start" x="18.5" y="-264.5" font-family="Helvetica,sans-Serif" font-size="10.00"># nbModule_</text>
<polyline fill="none" stroke="black" points="10.5,-257.5 112.5,-257.5 "/>
<text text-anchor="start" x="18.5" y="-245.5" font-family="Helvetica,sans-Serif" font-size="10.00">+ Vaisseau()</text>
<text text-anchor="start" x="18.5" y="-234.5" font-family="Helvetica,sans-Serif" font-size="10.00">+ ~Vaisseau()</text>
<text text-anchor="start" x="18.5" y="-223.5" font-family="Helvetica,sans-Serif" font-size="10.00">+ gestion()</text>
<text text-anchor="start" x="18.5" y="-212.5" font-family="Helvetica,sans-Serif" font-size="10.00">+ gestionCapacite()</text>
<text text-anchor="start" x="18.5" y="-201.5" font-family="Helvetica,sans-Serif" font-size="10.00">+ agit()</text>
<text text-anchor="start" x="18.5" y="-190.5" font-family="Helvetica,sans-Serif" font-size="10.00">+ destruction()</text>
<text text-anchor="start" x="18.5" y="-179.5" font-family="Helvetica,sans-Serif" font-size="10.00">+ setEquipe()</text>
<text text-anchor="start" x="18.5" y="-168.5" font-family="Helvetica,sans-Serif" font-size="10.00">+ addCapacite()</text>
<text text-anchor="start" x="18.5" y="-157.5" font-family="Helvetica,sans-Serif" font-size="10.00">+ setnom()</text>
<text text-anchor="start" x="18.5" y="-146.5" font-family="Helvetica,sans-Serif" font-size="10.00">+ setNskin()</text>
<text text-anchor="start" x="18.5" y="-135.5" font-family="Helvetica,sans-Serif" font-size="10.00">et 16 de plus...</text>
</a>
</g>
</g>
<!-- Node4&#45;&gt;Node3 -->
<g id="edge1" class="edge"><title>Node4&#45;&gt;Node3</title>
<path fill="none" stroke="midnightblue" d="M61.5,-118.099C61.5,-108.428 61.5,-99.1907 61.5,-90.7578"/>
<polygon fill="none" stroke="midnightblue" points="58.0001,-118.32 61.5,-128.32 65.0001,-118.32 58.0001,-118.32"/>
</g>
<!-- Node4&#45;&gt;Node4 -->
<g id="edge3" class="edge"><title>Node4&#45;&gt;Node4</title>
<path fill="none" stroke="#404040" d="M112.655,-288.913C123.053,-285.927 130.5,-276.789 130.5,-261.5 130.5,-252.183 127.735,-245.151 123.221,-240.402"/>
<polygon fill="none" stroke="#404040" points="122.955,-240.243 115.753,-240.599 112.655,-234.087 119.857,-233.732 122.955,-240.243"/>
<text text-anchor="middle" x="155" y="-259" font-family="Helvetica,sans-Serif" font-size="10.00"> #createur_</text>
</g>
<!-- Node5 -->
<g id="node3" class="node"><title>Node5</title>
<g id="a_node3"><a xlink:href="class_entite.html" target="_top" xlink:title="Classe virtuelle qui définit une entité ">
<polygon fill="white" stroke="black" points="11.5,-432.5 11.5,-709.5 111.5,-709.5 111.5,-432.5 11.5,-432.5"/>
<text text-anchor="middle" x="61.5" y="-697.5" font-family="Helvetica,sans-Serif" font-size="10.00">Entite</text>
<polyline fill="none" stroke="black" points="11.5,-690.5 111.5,-690.5 "/>
<text text-anchor="start" x="19.5" y="-678.5" font-family="Helvetica,sans-Serif" font-size="10.00"># collisionable_</text>
<text text-anchor="start" x="19.5" y="-667.5" font-family="Helvetica,sans-Serif" font-size="10.00"># detruit_</text>
<text text-anchor="start" x="19.5" y="-656.5" font-family="Helvetica,sans-Serif" font-size="10.00"># actif_</text>
<text text-anchor="start" x="19.5" y="-645.5" font-family="Helvetica,sans-Serif" font-size="10.00"># equipe_</text>
<text text-anchor="start" x="19.5" y="-634.5" font-family="Helvetica,sans-Serif" font-size="10.00"># position_</text>
<text text-anchor="start" x="19.5" y="-623.5" font-family="Helvetica,sans-Serif" font-size="10.00"># angle_</text>
<text text-anchor="start" x="19.5" y="-612.5" font-family="Helvetica,sans-Serif" font-size="10.00"># scale_</text>
<text text-anchor="start" x="19.5" y="-601.5" font-family="Helvetica,sans-Serif" font-size="10.00"># cercleEnglobant_</text>
<text text-anchor="start" x="19.5" y="-590.5" font-family="Helvetica,sans-Serif" font-size="10.00"># forme_</text>
<text text-anchor="start" x="19.5" y="-579.5" font-family="Helvetica,sans-Serif" font-size="10.00"># texture_</text>
<text text-anchor="start" x="19.5" y="-568.5" font-family="Helvetica,sans-Serif" font-size="10.00">et 13 de plus...</text>
<polyline fill="none" stroke="black" points="11.5,-561.5 111.5,-561.5 "/>
<text text-anchor="start" x="19.5" y="-549.5" font-family="Helvetica,sans-Serif" font-size="10.00">+ ~Entite()</text>
<text text-anchor="start" x="19.5" y="-538.5" font-family="Helvetica,sans-Serif" font-size="10.00">+ getForme()</text>
<text text-anchor="start" x="19.5" y="-527.5" font-family="Helvetica,sans-Serif" font-size="10.00">+ afficher()</text>
<text text-anchor="start" x="19.5" y="-516.5" font-family="Helvetica,sans-Serif" font-size="10.00">+ move()</text>
<text text-anchor="start" x="19.5" y="-505.5" font-family="Helvetica,sans-Serif" font-size="10.00">+ setPosition()</text>
<text text-anchor="start" x="19.5" y="-494.5" font-family="Helvetica,sans-Serif" font-size="10.00">+ getPosition()</text>
<text text-anchor="start" x="19.5" y="-483.5" font-family="Helvetica,sans-Serif" font-size="10.00">+ rotate()</text>
<text text-anchor="start" x="19.5" y="-472.5" font-family="Helvetica,sans-Serif" font-size="10.00">+ setRotation()</text>
<text text-anchor="start" x="19.5" y="-461.5" font-family="Helvetica,sans-Serif" font-size="10.00">+ getRotation()</text>
<text text-anchor="start" x="19.5" y="-450.5" font-family="Helvetica,sans-Serif" font-size="10.00">+ scale()</text>
<text text-anchor="start" x="19.5" y="-439.5" font-family="Helvetica,sans-Serif" font-size="10.00">et 18 de plus...</text>
</a>
</g>
</g>
<!-- Node5&#45;&gt;Node4 -->
<g id="edge2" class="edge"><title>Node5&#45;&gt;Node4</title>
<path fill="none" stroke="midnightblue" d="M61.5,-422.182C61.5,-413.081 61.5,-403.952 61.5,-394.922"/>
<polygon fill="none" stroke="midnightblue" points="58.0001,-422.439 61.5,-432.439 65.0001,-422.439 58.0001,-422.439"/>
</g>
</g>
</svg>
