<?xml version="1.0" encoding="UTF-8" standalone="no"?>
<!DOCTYPE svg PUBLIC "-//W3C//DTD SVG 1.1//EN"
 "http://www.w3.org/Graphics/SVG/1.1/DTD/svg11.dtd">
<!-- Generated by graphviz version 2.38.0 (20140413.2041)
 -->
<!-- Title: Projectile Pages: 1 -->
<svg width="132pt" height="140pt"
 viewBox="0.00 0.00 132.00 140.00" xmlns="http://www.w3.org/2000/svg" xmlns:xlink="http://www.w3.org/1999/xlink">
<g id="graph0" class="graph" transform="scale(1 1) rotate(0) translate(4 136)">
<title>Projectile</title>
<polygon fill="white" stroke="none" points="-4,4 -4,-136 128,-136 128,4 -4,4"/>
<!-- Node0 -->
<g id="node1" class="node"><title>Node0</title>
<polygon fill="#bfbfbf" stroke="black" points="33,-56.5 33,-75.5 90,-75.5 90,-56.5 33,-56.5"/>
<text text-anchor="middle" x="61.5" y="-63.5" font-family="Helvetica,sans-Serif" font-size="10.00">Projectile</text>
</g>
<!-- Node2 -->
<g id="node3" class="node"><title>Node2</title>
<g id="a_node3"><a xlink:href="class_proj_piou.html" target="_top" xlink:title="ProjPiou">
<polygon fill="white" stroke="black" points="0,-0.5 0,-19.5 53,-19.5 53,-0.5 0,-0.5"/>
<text text-anchor="middle" x="26.5" y="-7.5" font-family="Helvetica,sans-Serif" font-size="10.00">ProjPiou</text>
</a>
</g>
</g>
<!-- Node0&#45;&gt;Node2 -->
<g id="edge2" class="edge"><title>Node0&#45;&gt;Node2</title>
<path fill="none" stroke="midnightblue" d="M50.1999,-47.5656C44.1781,-38.2747 37.0314,-27.2484 32.172,-19.7511"/>
<polygon fill="midnightblue" stroke="midnightblue" points="47.3444,-49.5951 55.7205,-56.083 53.2185,-45.7878 47.3444,-49.5951"/>
</g>
<!-- Node3 -->
<g id="node4" class="node"><title>Node3</title>
<g id="a_node4"><a xlink:href="class_proj_test.html" target="_top" xlink:title="Projectile de test. ">
<polygon fill="white" stroke="black" points="71,-0.5 71,-19.5 124,-19.5 124,-0.5 71,-0.5"/>
<text text-anchor="middle" x="97.5" y="-7.5" font-family="Helvetica,sans-Serif" font-size="10.00">ProjTest</text>
</a>
</g>
</g>
<!-- Node0&#45;&gt;Node3 -->
<g id="edge3" class="edge"><title>Node0&#45;&gt;Node3</title>
<path fill="none" stroke="midnightblue" d="M73.1229,-47.5656C79.3168,-38.2747 86.6677,-27.2484 91.6659,-19.7511"/>
<polygon fill="midnightblue" stroke="midnightblue" points="70.0795,-45.821 67.4447,-56.083 75.9039,-49.7039 70.0795,-45.821"/>
</g>
<!-- Node1 -->
<g id="node2" class="node"><title>Node1</title>
<g id="a_node2"><a xlink:href="class_entite.html" target="_top" xlink:title="Classe virtuelle qui définit une entité ">
<polygon fill="white" stroke="black" points="40.5,-112.5 40.5,-131.5 82.5,-131.5 82.5,-112.5 40.5,-112.5"/>
<text text-anchor="middle" x="61.5" y="-119.5" font-family="Helvetica,sans-Serif" font-size="10.00">Entite</text>
</a>
</g>
</g>
<!-- Node1&#45;&gt;Node0 -->
<g id="edge1" class="edge"><title>Node1&#45;&gt;Node0</title>
<path fill="none" stroke="midnightblue" d="M61.5,-101.805C61.5,-92.9102 61.5,-82.7798 61.5,-75.7511"/>
<polygon fill="midnightblue" stroke="midnightblue" points="58.0001,-102.083 61.5,-112.083 65.0001,-102.083 58.0001,-102.083"/>
</g>
</g>
</svg>
