<?xml version="1.0" encoding="UTF-8" standalone="no"?>
<!DOCTYPE svg PUBLIC "-//W3C//DTD SVG 1.1//EN"
 "http://www.w3.org/Graphics/SVG/1.1/DTD/svg11.dtd">
<!-- Generated by graphviz version 2.38.0 (20140413.2041)
 -->
<!-- Title: VaisseauAttaquant Pages: 1 -->
<!--zoomable 718 -->
<svg id="main" version="1.1" xmlns="http://www.w3.org/2000/svg" xmlns:xlink="http://www.w3.org/1999/xlink" xml:space="preserve" onload="init(evt)">
<style type="text/css"><![CDATA[
.edge:hover path { stroke: red; }
.edge:hover polygon { stroke: red; fill: red; }
]]></style>
<script type="text/javascript"><![CDATA[
var edges = document.getElementsByTagName('g');
if (edges && edges.length) {
  for (var i=0;i<edges.length;i++) {
    if (edges[i].id.substr(0,4)=='edge') {
      edges[i].setAttribute('class','edge');
    }
  }
}
]]></script>
        <defs>
                <circle id="rim" cx="0" cy="0" r="7"/>
                <circle id="rim2" cx="0" cy="0" r="3.5"/>
                <g id="zoomPlus">
                        <use xlink:href="#rim" fill="#404040">
                                <set attributeName="fill" to="#808080" begin="zoomplus.mouseover" end="zoomplus.mouseout"/>
                        </use>
                        <path d="M-4,0h8M0,-4v8" fill="none" stroke="white" stroke-width="1.5" pointer-events="none"/>
                </g>
                <g id="zoomMin">
                        <use xlink:href="#rim" fill="#404040">
                                <set attributeName="fill" to="#808080" begin="zoomminus.mouseover" end="zoomminus.mouseout"/>
                        </use>
                        <path d="M-4,0h8" fill="none" stroke="white" stroke-width="1.5" pointer-events="none"/>
                </g>
                <g id="dirArrow">
                        <path fill="none" stroke="white" stroke-width="1.5" d="M0,-3.0v7 M-2.5,-0.5L0,-3.0L2.5,-0.5"/>
                </g>
               <g id="resetDef">
                       <use xlink:href="#rim2" fill="#404040">
                               <set attributeName="fill" to="#808080" begin="reset.mouseover" end="reset.mouseout"/>
                       </use>
               </g>
        </defs>

<script type="text/javascript">
var viewWidth = 186;
var viewHeight = 718;
var sectionId = 'dynsection-1';
</script>
<script xlink:href="svgpan.js"/>
<svg id="graph" class="graph">
<g id="viewport">
<title>VaisseauAttaquant</title>
<polygon fill="white" stroke="none" points="-4,4 -4,-714 182,-714 182,4 -4,4"/>
<!-- Node3 -->
<g id="node1" class="node"><title>Node3</title>
<polygon fill="#bfbfbf" stroke="black" points="-7.10543e-15,-0.5 -7.10543e-15,-90.5 120,-90.5 120,-0.5 -7.10543e-15,-0.5"/>
<text text-anchor="middle" x="60" y="-78.5" font-family="Helvetica,sans-Serif" font-size="10.00">VaisseauAttaquant</text>
<polyline fill="none" stroke="black" points="-7.10543e-15,-71.5 120,-71.5 "/>
<text text-anchor="middle" x="60" y="-59.5" font-family="Helvetica,sans-Serif" font-size="10.00"> </text>
<polyline fill="none" stroke="black" points="-7.10543e-15,-52.5 120,-52.5 "/>
<text text-anchor="start" x="8" y="-40.5" font-family="Helvetica,sans-Serif" font-size="10.00">+ VaisseauAttaquant()</text>
<text text-anchor="start" x="8" y="-29.5" font-family="Helvetica,sans-Serif" font-size="10.00">+ ~VaisseauAttaquant()</text>
<text text-anchor="start" x="8" y="-18.5" font-family="Helvetica,sans-Serif" font-size="10.00">+ gestion()</text>
<text text-anchor="start" x="8" y="-7.5" font-family="Helvetica,sans-Serif" font-size="10.00">+ destruction()</text>
</g>
<!-- Node4 -->
<g id="node2" class="node"><title>Node4</title>
<g id="a_node2"><a xlink:href="class_vaisseau.html" target="_top" xlink:title="classe du vaisseau (véhicule) d&#39;un joueur ou d&#39;un ennemi ">
<polygon fill="white" stroke="black" points="9,-128.5 9,-394.5 111,-394.5 111,-128.5 9,-128.5"/>
<text text-anchor="middle" x="60" y="-382.5" font-family="Helvetica,sans-Serif" font-size="10.00">Vaisseau</text>
<polyline fill="none" stroke="black" points="9,-375.5 111,-375.5 "/>
<text text-anchor="start" x="17" y="-363.5" font-family="Helvetica,sans-Serif" font-size="10.00"># nom_</text>
<text text-anchor="start" x="17" y="-352.5" font-family="Helvetica,sans-Serif" font-size="10.00"># Nskin_</text>
<text text-anchor="start" x="17" y="-341.5" font-family="Helvetica,sans-Serif" font-size="10.00"># pvM_</text>
<text text-anchor="start" x="17" y="-330.5" font-family="Helvetica,sans-Serif" font-size="10.00"># atqM_</text>
<text text-anchor="start" x="17" y="-319.5" font-family="Helvetica,sans-Serif" font-size="10.00"># defM_</text>
<text text-anchor="start" x="17" y="-308.5" font-family="Helvetica,sans-Serif" font-size="10.00"># vitM_</text>
<text text-anchor="start" x="17" y="-297.5" font-family="Helvetica,sans-Serif" font-size="10.00"># capacites_</text>
<text text-anchor="start" x="17" y="-286.5" font-family="Helvetica,sans-Serif" font-size="10.00"># annexes_</text>
<text text-anchor="start" x="17" y="-275.5" font-family="Helvetica,sans-Serif" font-size="10.00"># annexesB_</text>
<text text-anchor="start" x="17" y="-264.5" font-family="Helvetica,sans-Serif" font-size="10.00"># nbModule_</text>
<polyline fill="none" stroke="black" points="9,-257.5 111,-257.5 "/>
<text text-anchor="start" x="17" y="-245.5" font-family="Helvetica,sans-Serif" font-size="10.00">+ Vaisseau()</text>
<text text-anchor="start" x="17" y="-234.5" font-family="Helvetica,sans-Serif" font-size="10.00">+ ~Vaisseau()</text>
<text text-anchor="start" x="17" y="-223.5" font-family="Helvetica,sans-Serif" font-size="10.00">+ gestion()</text>
<text text-anchor="start" x="17" y="-212.5" font-family="Helvetica,sans-Serif" font-size="10.00">+ gestionCapacite()</text>
<text text-anchor="start" x="17" y="-201.5" font-family="Helvetica,sans-Serif" font-size="10.00">+ agit()</text>
<text text-anchor="start" x="17" y="-190.5" font-family="Helvetica,sans-Serif" font-size="10.00">+ destruction()</text>
<text text-anchor="start" x="17" y="-179.5" font-family="Helvetica,sans-Serif" font-size="10.00">+ setEquipe()</text>
<text text-anchor="start" x="17" y="-168.5" font-family="Helvetica,sans-Serif" font-size="10.00">+ addCapacite()</text>
<text text-anchor="start" x="17" y="-157.5" font-family="Helvetica,sans-Serif" font-size="10.00">+ setnom()</text>
<text text-anchor="start" x="17" y="-146.5" font-family="Helvetica,sans-Serif" font-size="10.00">+ setNskin()</text>
<text text-anchor="start" x="17" y="-135.5" font-family="Helvetica,sans-Serif" font-size="10.00">et 16 de plus...</text>
</a>
</g>
</g>
<!-- Node4&#45;&gt;Node3 -->
<g id="edge1" class="edge"><title>Node4&#45;&gt;Node3</title>
<path fill="none" stroke="midnightblue" d="M60,-118.099C60,-108.428 60,-99.1907 60,-90.7578"/>
<polygon fill="none" stroke="midnightblue" points="56.5001,-118.32 60,-128.32 63.5001,-118.32 56.5001,-118.32"/>
</g>
<!-- Node4&#45;&gt;Node4 -->
<g id="edge3" class="edge"><title>Node4&#45;&gt;Node4</title>
<path fill="none" stroke="#404040" d="M111.155,-288.913C121.553,-285.927 129,-276.789 129,-261.5 129,-252.183 126.235,-245.151 121.721,-240.402"/>
<polygon fill="none" stroke="#404040" points="121.455,-240.243 114.253,-240.599 111.155,-234.087 118.357,-233.732 121.455,-240.243"/>
<text text-anchor="middle" x="153.5" y="-259" font-family="Helvetica,sans-Serif" font-size="10.00"> #createur_</text>
</g>
<!-- Node5 -->
<g id="node3" class="node"><title>Node5</title>
<g id="a_node3"><a xlink:href="class_entite.html" target="_top" xlink:title="Classe virtuelle qui définit une entité ">
<polygon fill="white" stroke="black" points="10,-432.5 10,-709.5 110,-709.5 110,-432.5 10,-432.5"/>
<text text-anchor="middle" x="60" y="-697.5" font-family="Helvetica,sans-Serif" font-size="10.00">Entite</text>
<polyline fill="none" stroke="black" points="10,-690.5 110,-690.5 "/>
<text text-anchor="start" x="18" y="-678.5" font-family="Helvetica,sans-Serif" font-size="10.00"># collisionable_</text>
<text text-anchor="start" x="18" y="-667.5" font-family="Helvetica,sans-Serif" font-size="10.00"># detruit_</text>
<text text-anchor="start" x="18" y="-656.5" font-family="Helvetica,sans-Serif" font-size="10.00"># actif_</text>
<text text-anchor="start" x="18" y="-645.5" font-family="Helvetica,sans-Serif" font-size="10.00"># equipe_</text>
<text text-anchor="start" x="18" y="-634.5" font-family="Helvetica,sans-Serif" font-size="10.00"># position_</text>
<text text-anchor="start" x="18" y="-623.5" font-family="Helvetica,sans-Serif" font-size="10.00"># angle_</text>
<text text-anchor="start" x="18" y="-612.5" font-family="Helvetica,sans-Serif" font-size="10.00"># scale_</text>
<text text-anchor="start" x="18" y="-601.5" font-family="Helvetica,sans-Serif" font-size="10.00"># cercleEnglobant_</text>
<text text-anchor="start" x="18" y="-590.5" font-family="Helvetica,sans-Serif" font-size="10.00"># forme_</text>
<text text-anchor="start" x="18" y="-579.5" font-family="Helvetica,sans-Serif" font-size="10.00"># texture_</text>
<text text-anchor="start" x="18" y="-568.5" font-family="Helvetica,sans-Serif" font-size="10.00">et 13 de plus...</text>
<polyline fill="none" stroke="black" points="10,-561.5 110,-561.5 "/>
<text text-anchor="start" x="18" y="-549.5" font-family="Helvetica,sans-Serif" font-size="10.00">+ ~Entite()</text>
<text text-anchor="start" x="18" y="-538.5" font-family="Helvetica,sans-Serif" font-size="10.00">+ getForme()</text>
<text text-anchor="start" x="18" y="-527.5" font-family="Helvetica,sans-Serif" font-size="10.00">+ afficher()</text>
<text text-anchor="start" x="18" y="-516.5" font-family="Helvetica,sans-Serif" font-size="10.00">+ move()</text>
<text text-anchor="start" x="18" y="-505.5" font-family="Helvetica,sans-Serif" font-size="10.00">+ setPosition()</text>
<text text-anchor="start" x="18" y="-494.5" font-family="Helvetica,sans-Serif" font-size="10.00">+ getPosition()</text>
<text text-anchor="start" x="18" y="-483.5" font-family="Helvetica,sans-Serif" font-size="10.00">+ rotate()</text>
<text text-anchor="start" x="18" y="-472.5" font-family="Helvetica,sans-Serif" font-size="10.00">+ setRotation()</text>
<text text-anchor="start" x="18" y="-461.5" font-family="Helvetica,sans-Serif" font-size="10.00">+ getRotation()</text>
<text text-anchor="start" x="18" y="-450.5" font-family="Helvetica,sans-Serif" font-size="10.00">+ scale()</text>
<text text-anchor="start" x="18" y="-439.5" font-family="Helvetica,sans-Serif" font-size="10.00">et 18 de plus...</text>
</a>
</g>
</g>
<!-- Node5&#45;&gt;Node4 -->
<g id="edge2" class="edge"><title>Node5&#45;&gt;Node4</title>
<path fill="none" stroke="midnightblue" d="M60,-422.182C60,-413.081 60,-403.952 60,-394.922"/>
<polygon fill="none" stroke="midnightblue" points="56.5001,-422.439 60,-432.439 63.5001,-422.439 56.5001,-422.439"/>
</g>
</g>
</svg>
        <g id="navigator" transform="translate(0 0)" fill="#404254">
                <rect fill="#f2f5e9" fill-opacity="0.5" stroke="#606060" stroke-width=".5" x="0" y="0" width="60" height="60"/>
                <use id="zoomplus" xlink:href="#zoomPlus" x="17" y="9" onmousedown="handleZoom(evt,'in')"/>
                <use id="zoomminus" xlink:href="#zoomMin" x="42" y="9" onmousedown="handleZoom(evt,'out')"/>
                <use id="reset" xlink:href="#resetDef" x="30" y="36" onmousedown="handleReset()"/>
                <g id="arrowUp" xlink:href="#dirArrow" transform="translate(30 24)" onmousedown="handlePan(0,-1)">
                  <use xlink:href="#rim" fill="#404040">
                        <set attributeName="fill" to="#808080" begin="arrowUp.mouseover" end="arrowUp.mouseout"/>
                  </use>
                  <path fill="none" stroke="white" stroke-width="1.5" d="M0,-3.0v7 M-2.5,-0.5L0,-3.0L2.5,-0.5"/>
                </g>
                <g id="arrowRight" xlink:href="#dirArrow" transform="rotate(90) translate(36 -43)" onmousedown="handlePan(1,0)">
                  <use xlink:href="#rim" fill="#404040">
                        <set attributeName="fill" to="#808080" begin="arrowRight.mouseover" end="arrowRight.mouseout"/>
                  </use>
                  <path fill="none" stroke="white" stroke-width="1.5" d="M0,-3.0v7 M-2.5,-0.5L0,-3.0L2.5,-0.5"/>
                </g>
                <g id="arrowDown" xlink:href="#dirArrow" transform="rotate(180) translate(-30 -48)" onmousedown="handlePan(0,1)">
                  <use xlink:href="#rim" fill="#404040">
                        <set attributeName="fill" to="#808080" begin="arrowDown.mouseover" end="arrowDown.mouseout"/>
                  </use>
                  <path fill="none" stroke="white" stroke-width="1.5" d="M0,-3.0v7 M-2.5,-0.5L0,-3.0L2.5,-0.5"/>
                </g>
                <g id="arrowLeft" xlink:href="#dirArrow" transform="rotate(270) translate(-36 17)" onmousedown="handlePan(-1,0)">
                  <use xlink:href="#rim" fill="#404040">
                        <set attributeName="fill" to="#808080" begin="arrowLeft.mouseover" end="arrowLeft.mouseout"/>
                  </use>
                  <path fill="none" stroke="white" stroke-width="1.5" d="M0,-3.0v7 M-2.5,-0.5L0,-3.0L2.5,-0.5"/>
                </g>
        </g>
        <svg viewBox="0 0 15 15" width="100%" height="30px" preserveAspectRatio="xMaxYMin meet">
         <g id="arrow_out" transform="scale(0.3 0.3)">
          <a xlink:href="class_vaisseau_attaquant__coll__graph_org.svg" target="_base">
           <rect id="button" ry="5" rx="5" y="6" x="6" height="38" width="38"
                fill="#f2f5e9" fill-opacity="0.5" stroke="#606060" stroke-width="1.0"/>
           <path id="arrow"
             d="M 11.500037,31.436501 C 11.940474,20.09759 22.043105,11.32322 32.158766,21.979434 L 37.068811,17.246167 C 37.068811,17.246167 37.088388,32 37.088388,32 L 22.160133,31.978069 C 22.160133,31.978069 26.997745,27.140456 26.997745,27.140456 C 18.528582,18.264221 13.291696,25.230495 11.500037,31.436501 z"
             style="fill:#404040;"/>
          </a>
         </g>
        </svg>
</svg>
