<?xml version="1.0" encoding="UTF-8" standalone="no"?>
<!DOCTYPE svg PUBLIC "-//W3C//DTD SVG 1.1//EN"
 "http://www.w3.org/Graphics/SVG/1.1/DTD/svg11.dtd">
<!-- Generated by graphviz version 2.38.0 (20140413.2041)
 -->
<!-- Title: Entite Pages: 1 -->
<svg width="956pt" height="738pt"
 viewBox="0.00 0.00 956.00 738.00" xmlns="http://www.w3.org/2000/svg" xmlns:xlink="http://www.w3.org/1999/xlink">
<g id="graph0" class="graph" transform="scale(1 1) rotate(0) translate(4 734)">
<title>Entite</title>
<polygon fill="white" stroke="none" points="-4,4 -4,-734 952,-734 952,4 -4,4"/>
<!-- Node0 -->
<g id="node1" class="node"><title>Node0</title>
<polygon fill="#bfbfbf" stroke="black" points="310,-452.5 310,-729.5 410,-729.5 410,-452.5 310,-452.5"/>
<text text-anchor="middle" x="360" y="-717.5" font-family="Helvetica,sans-Serif" font-size="10.00">Entite</text>
<polyline fill="none" stroke="black" points="310,-710.5 410,-710.5 "/>
<text text-anchor="start" x="318" y="-698.5" font-family="Helvetica,sans-Serif" font-size="10.00"># collisionable_</text>
<text text-anchor="start" x="318" y="-687.5" font-family="Helvetica,sans-Serif" font-size="10.00"># detruit_</text>
<text text-anchor="start" x="318" y="-676.5" font-family="Helvetica,sans-Serif" font-size="10.00"># actif_</text>
<text text-anchor="start" x="318" y="-665.5" font-family="Helvetica,sans-Serif" font-size="10.00"># equipe_</text>
<text text-anchor="start" x="318" y="-654.5" font-family="Helvetica,sans-Serif" font-size="10.00"># position_</text>
<text text-anchor="start" x="318" y="-643.5" font-family="Helvetica,sans-Serif" font-size="10.00"># angle_</text>
<text text-anchor="start" x="318" y="-632.5" font-family="Helvetica,sans-Serif" font-size="10.00"># scale_</text>
<text text-anchor="start" x="318" y="-621.5" font-family="Helvetica,sans-Serif" font-size="10.00"># cercleEnglobant_</text>
<text text-anchor="start" x="318" y="-610.5" font-family="Helvetica,sans-Serif" font-size="10.00"># forme_</text>
<text text-anchor="start" x="318" y="-599.5" font-family="Helvetica,sans-Serif" font-size="10.00"># texture_</text>
<text text-anchor="start" x="318" y="-588.5" font-family="Helvetica,sans-Serif" font-size="10.00">et 13 de plus...</text>
<polyline fill="none" stroke="black" points="310,-581.5 410,-581.5 "/>
<text text-anchor="start" x="318" y="-569.5" font-family="Helvetica,sans-Serif" font-size="10.00">+ ~Entite()</text>
<text text-anchor="start" x="318" y="-558.5" font-family="Helvetica,sans-Serif" font-size="10.00">+ getForme()</text>
<text text-anchor="start" x="318" y="-547.5" font-family="Helvetica,sans-Serif" font-size="10.00">+ afficher()</text>
<text text-anchor="start" x="318" y="-536.5" font-family="Helvetica,sans-Serif" font-size="10.00">+ move()</text>
<text text-anchor="start" x="318" y="-525.5" font-family="Helvetica,sans-Serif" font-size="10.00">+ setPosition()</text>
<text text-anchor="start" x="318" y="-514.5" font-family="Helvetica,sans-Serif" font-size="10.00">+ getPosition()</text>
<text text-anchor="start" x="318" y="-503.5" font-family="Helvetica,sans-Serif" font-size="10.00">+ rotate()</text>
<text text-anchor="start" x="318" y="-492.5" font-family="Helvetica,sans-Serif" font-size="10.00">+ setRotation()</text>
<text text-anchor="start" x="318" y="-481.5" font-family="Helvetica,sans-Serif" font-size="10.00">+ getRotation()</text>
<text text-anchor="start" x="318" y="-470.5" font-family="Helvetica,sans-Serif" font-size="10.00">+ scale()</text>
<text text-anchor="start" x="318" y="-459.5" font-family="Helvetica,sans-Serif" font-size="10.00">et 18 de plus...</text>
</g>
<!-- Node1 -->
<g id="node2" class="node"><title>Node1</title>
<g id="a_node2"><a xlink:href="class_projectile.html" target="_top" xlink:title="Classe abstraite qui définit la structure générale d&#39;un projectile, à faire hériter pour chaque proje...">
<polygon fill="white" stroke="black" points="147,-237.5 147,-316.5 227,-316.5 227,-237.5 147,-237.5"/>
<text text-anchor="middle" x="187" y="-304.5" font-family="Helvetica,sans-Serif" font-size="10.00">Projectile</text>
<polyline fill="none" stroke="black" points="147,-297.5 227,-297.5 "/>
<text text-anchor="start" x="155" y="-285.5" font-family="Helvetica,sans-Serif" font-size="10.00"># age_</text>
<polyline fill="none" stroke="black" points="147,-278.5 227,-278.5 "/>
<text text-anchor="start" x="155" y="-266.5" font-family="Helvetica,sans-Serif" font-size="10.00">+ Projectile()</text>
<text text-anchor="start" x="155" y="-255.5" font-family="Helvetica,sans-Serif" font-size="10.00">+ gestion()</text>
<text text-anchor="start" x="155" y="-244.5" font-family="Helvetica,sans-Serif" font-size="10.00">+ destruction()</text>
</a>
</g>
</g>
<!-- Node0&#45;&gt;Node1 -->
<g id="edge1" class="edge"><title>Node0&#45;&gt;Node1</title>
<path fill="none" stroke="midnightblue" d="M304.974,-490.762C272.21,-431.673 232.47,-360.004 208.489,-316.754"/>
<polygon fill="none" stroke="midnightblue" points="302.051,-492.708 309.961,-499.757 308.173,-489.314 302.051,-492.708"/>
</g>
<!-- Node5 -->
<g id="node6" class="node"><title>Node5</title>
<g id="a_node6"><a xlink:href="class_vaisseau.html" target="_top" xlink:title="classe du vaisseau (véhicule) d&#39;un joueur ou d&#39;un ennemi ">
<polygon fill="white" stroke="black" points="509,-138.5 509,-415.5 611,-415.5 611,-138.5 509,-138.5"/>
<text text-anchor="middle" x="560" y="-403.5" font-family="Helvetica,sans-Serif" font-size="10.00">Vaisseau</text>
<polyline fill="none" stroke="black" points="509,-396.5 611,-396.5 "/>
<text text-anchor="start" x="517" y="-384.5" font-family="Helvetica,sans-Serif" font-size="10.00"># nom_</text>
<text text-anchor="start" x="517" y="-373.5" font-family="Helvetica,sans-Serif" font-size="10.00"># Nskin_</text>
<text text-anchor="start" x="517" y="-362.5" font-family="Helvetica,sans-Serif" font-size="10.00"># pvM_</text>
<text text-anchor="start" x="517" y="-351.5" font-family="Helvetica,sans-Serif" font-size="10.00"># atqM_</text>
<text text-anchor="start" x="517" y="-340.5" font-family="Helvetica,sans-Serif" font-size="10.00"># defM_</text>
<text text-anchor="start" x="517" y="-329.5" font-family="Helvetica,sans-Serif" font-size="10.00"># vitM_</text>
<text text-anchor="start" x="517" y="-318.5" font-family="Helvetica,sans-Serif" font-size="10.00"># capacites_</text>
<text text-anchor="start" x="517" y="-307.5" font-family="Helvetica,sans-Serif" font-size="10.00"># annexes_</text>
<text text-anchor="start" x="517" y="-296.5" font-family="Helvetica,sans-Serif" font-size="10.00"># annexesB_</text>
<text text-anchor="start" x="517" y="-285.5" font-family="Helvetica,sans-Serif" font-size="10.00"># createur_</text>
<text text-anchor="start" x="517" y="-274.5" font-family="Helvetica,sans-Serif" font-size="10.00"># nbModule_</text>
<polyline fill="none" stroke="black" points="509,-267.5 611,-267.5 "/>
<text text-anchor="start" x="517" y="-255.5" font-family="Helvetica,sans-Serif" font-size="10.00">+ Vaisseau()</text>
<text text-anchor="start" x="517" y="-244.5" font-family="Helvetica,sans-Serif" font-size="10.00">+ ~Vaisseau()</text>
<text text-anchor="start" x="517" y="-233.5" font-family="Helvetica,sans-Serif" font-size="10.00">+ gestion()</text>
<text text-anchor="start" x="517" y="-222.5" font-family="Helvetica,sans-Serif" font-size="10.00">+ gestionCapacite()</text>
<text text-anchor="start" x="517" y="-211.5" font-family="Helvetica,sans-Serif" font-size="10.00">+ agit()</text>
<text text-anchor="start" x="517" y="-200.5" font-family="Helvetica,sans-Serif" font-size="10.00">+ destruction()</text>
<text text-anchor="start" x="517" y="-189.5" font-family="Helvetica,sans-Serif" font-size="10.00">+ setEquipe()</text>
<text text-anchor="start" x="517" y="-178.5" font-family="Helvetica,sans-Serif" font-size="10.00">+ addCapacite()</text>
<text text-anchor="start" x="517" y="-167.5" font-family="Helvetica,sans-Serif" font-size="10.00">+ setnom()</text>
<text text-anchor="start" x="517" y="-156.5" font-family="Helvetica,sans-Serif" font-size="10.00">+ setNskin()</text>
<text text-anchor="start" x="517" y="-145.5" font-family="Helvetica,sans-Serif" font-size="10.00">et 16 de plus...</text>
</a>
</g>
</g>
<!-- Node0&#45;&gt;Node5 -->
<g id="edge5" class="edge"><title>Node0&#45;&gt;Node5</title>
<path fill="none" stroke="midnightblue" d="M415.771,-502.997C444.955,-457.47 480.433,-402.124 508.899,-357.718"/>
<polygon fill="none" stroke="midnightblue" points="412.66,-501.364 410.21,-511.672 418.554,-505.142 412.66,-501.364"/>
</g>
<!-- Node2 -->
<g id="node3" class="node"><title>Node2</title>
<g id="a_node3"><a xlink:href="class_proj_missile.html" target="_top" xlink:title="{ProjMissile\n||+ ProjMissile()\l+ ProjMissile()\l+ ~ProjMissile()\l+ gestion()\l+ agit()\l}">
<polygon fill="white" stroke="black" points="0,-0.5 0,-101.5 86,-101.5 86,-0.5 0,-0.5"/>
<text text-anchor="middle" x="43" y="-89.5" font-family="Helvetica,sans-Serif" font-size="10.00">ProjMissile</text>
<polyline fill="none" stroke="black" points="0,-82.5 86,-82.5 "/>
<text text-anchor="middle" x="43" y="-70.5" font-family="Helvetica,sans-Serif" font-size="10.00"> </text>
<polyline fill="none" stroke="black" points="0,-63.5 86,-63.5 "/>
<text text-anchor="start" x="8" y="-51.5" font-family="Helvetica,sans-Serif" font-size="10.00">+ ProjMissile()</text>
<text text-anchor="start" x="8" y="-40.5" font-family="Helvetica,sans-Serif" font-size="10.00">+ ProjMissile()</text>
<text text-anchor="start" x="8" y="-29.5" font-family="Helvetica,sans-Serif" font-size="10.00">+ ~ProjMissile()</text>
<text text-anchor="start" x="8" y="-18.5" font-family="Helvetica,sans-Serif" font-size="10.00">+ gestion()</text>
<text text-anchor="start" x="8" y="-7.5" font-family="Helvetica,sans-Serif" font-size="10.00">+ agit()</text>
</a>
</g>
</g>
<!-- Node1&#45;&gt;Node2 -->
<g id="edge2" class="edge"><title>Node1&#45;&gt;Node2</title>
<path fill="none" stroke="midnightblue" d="M156.674,-228.827C132.718,-191.561 99.3736,-139.692 74.9946,-101.769"/>
<polygon fill="none" stroke="midnightblue" points="153.894,-230.974 162.246,-237.493 159.782,-227.189 153.894,-230.974"/>
</g>
<!-- Node3 -->
<g id="node4" class="node"><title>Node3</title>
<g id="a_node4"><a xlink:href="class_proj_piou.html" target="_top" xlink:title="Projectile de test. ">
<polygon fill="white" stroke="black" points="104,-0.5 104,-101.5 178,-101.5 178,-0.5 104,-0.5"/>
<text text-anchor="middle" x="141" y="-89.5" font-family="Helvetica,sans-Serif" font-size="10.00">ProjPiou</text>
<polyline fill="none" stroke="black" points="104,-82.5 178,-82.5 "/>
<text text-anchor="middle" x="141" y="-70.5" font-family="Helvetica,sans-Serif" font-size="10.00"> </text>
<polyline fill="none" stroke="black" points="104,-63.5 178,-63.5 "/>
<text text-anchor="start" x="112" y="-51.5" font-family="Helvetica,sans-Serif" font-size="10.00">+ ProjPiou()</text>
<text text-anchor="start" x="112" y="-40.5" font-family="Helvetica,sans-Serif" font-size="10.00">+ ProjPiou()</text>
<text text-anchor="start" x="112" y="-29.5" font-family="Helvetica,sans-Serif" font-size="10.00">+ ~ProjPiou()</text>
<text text-anchor="start" x="112" y="-18.5" font-family="Helvetica,sans-Serif" font-size="10.00">+ gestion()</text>
<text text-anchor="start" x="112" y="-7.5" font-family="Helvetica,sans-Serif" font-size="10.00">+ agit()</text>
</a>
</g>
</g>
<!-- Node1&#45;&gt;Node3 -->
<g id="edge3" class="edge"><title>Node1&#45;&gt;Node3</title>
<path fill="none" stroke="midnightblue" d="M177.021,-227.404C169.391,-190.25 158.91,-139.212 151.22,-101.769"/>
<polygon fill="none" stroke="midnightblue" points="173.652,-228.402 179.092,-237.493 180.509,-226.993 173.652,-228.402"/>
</g>
<!-- Node4 -->
<g id="node5" class="node"><title>Node4</title>
<g id="a_node5"><a xlink:href="class_proj_test.html" target="_top" xlink:title="Projectile de test. ">
<polygon fill="white" stroke="black" points="196,-0.5 196,-101.5 270,-101.5 270,-0.5 196,-0.5"/>
<text text-anchor="middle" x="233" y="-89.5" font-family="Helvetica,sans-Serif" font-size="10.00">ProjTest</text>
<polyline fill="none" stroke="black" points="196,-82.5 270,-82.5 "/>
<text text-anchor="middle" x="233" y="-70.5" font-family="Helvetica,sans-Serif" font-size="10.00"> </text>
<polyline fill="none" stroke="black" points="196,-63.5 270,-63.5 "/>
<text text-anchor="start" x="204" y="-51.5" font-family="Helvetica,sans-Serif" font-size="10.00">+ ProjTest()</text>
<text text-anchor="start" x="204" y="-40.5" font-family="Helvetica,sans-Serif" font-size="10.00">+ ProjTest()</text>
<text text-anchor="start" x="204" y="-29.5" font-family="Helvetica,sans-Serif" font-size="10.00">+ ~ProjTest()</text>
<text text-anchor="start" x="204" y="-18.5" font-family="Helvetica,sans-Serif" font-size="10.00">+ gestion()</text>
<text text-anchor="start" x="204" y="-7.5" font-family="Helvetica,sans-Serif" font-size="10.00">+ agit()</text>
</a>
</g>
</g>
<!-- Node1&#45;&gt;Node4 -->
<g id="edge4" class="edge"><title>Node1&#45;&gt;Node4</title>
<path fill="none" stroke="midnightblue" d="M196.979,-227.404C204.609,-190.25 215.09,-139.212 222.78,-101.769"/>
<polygon fill="none" stroke="midnightblue" points="193.491,-226.993 194.908,-237.493 200.348,-228.402 193.491,-226.993"/>
</g>
<!-- Node6 -->
<g id="node7" class="node"><title>Node6</title>
<g id="a_node7"><a xlink:href="class_vaisseau_attaquant.html" target="_top" xlink:title="classe d&#39;un ennemi de base : l&#39;attaquant ">
<polygon fill="white" stroke="black" points="288,-6 288,-96 408,-96 408,-6 288,-6"/>
<text text-anchor="middle" x="348" y="-84" font-family="Helvetica,sans-Serif" font-size="10.00">VaisseauAttaquant</text>
<polyline fill="none" stroke="black" points="288,-77 408,-77 "/>
<text text-anchor="middle" x="348" y="-65" font-family="Helvetica,sans-Serif" font-size="10.00"> </text>
<polyline fill="none" stroke="black" points="288,-58 408,-58 "/>
<text text-anchor="start" x="296" y="-46" font-family="Helvetica,sans-Serif" font-size="10.00">+ VaisseauAttaquant()</text>
<text text-anchor="start" x="296" y="-35" font-family="Helvetica,sans-Serif" font-size="10.00">+ ~VaisseauAttaquant()</text>
<text text-anchor="start" x="296" y="-24" font-family="Helvetica,sans-Serif" font-size="10.00">+ gestion()</text>
<text text-anchor="start" x="296" y="-13" font-family="Helvetica,sans-Serif" font-size="10.00">+ destruction()</text>
</a>
</g>
</g>
<!-- Node5&#45;&gt;Node6 -->
<g id="edge6" class="edge"><title>Node5&#45;&gt;Node6</title>
<path fill="none" stroke="midnightblue" d="M501.971,-214.686C466.429,-177.133 421.769,-129.945 389.713,-96.0745"/>
<polygon fill="none" stroke="midnightblue" points="499.535,-217.204 508.951,-222.061 504.619,-212.393 499.535,-217.204"/>
</g>
<!-- Node7 -->
<g id="node8" class="node"><title>Node7</title>
<g id="a_node8"><a xlink:href="class_vaisseau_defenseur.html" target="_top" xlink:title="{VaisseauDefenseur\n||+ VaisseauDefenseur()\l+ ~VaisseauDefenseur()\l+ gestion()\l+ destruction()\l}">
<polygon fill="white" stroke="black" points="426.5,-6 426.5,-96 549.5,-96 549.5,-6 426.5,-6"/>
<text text-anchor="middle" x="488" y="-84" font-family="Helvetica,sans-Serif" font-size="10.00">VaisseauDefenseur</text>
<polyline fill="none" stroke="black" points="426.5,-77 549.5,-77 "/>
<text text-anchor="middle" x="488" y="-65" font-family="Helvetica,sans-Serif" font-size="10.00"> </text>
<polyline fill="none" stroke="black" points="426.5,-58 549.5,-58 "/>
<text text-anchor="start" x="434.5" y="-46" font-family="Helvetica,sans-Serif" font-size="10.00">+ VaisseauDefenseur()</text>
<text text-anchor="start" x="434.5" y="-35" font-family="Helvetica,sans-Serif" font-size="10.00">+ ~VaisseauDefenseur()</text>
<text text-anchor="start" x="434.5" y="-24" font-family="Helvetica,sans-Serif" font-size="10.00">+ gestion()</text>
<text text-anchor="start" x="434.5" y="-13" font-family="Helvetica,sans-Serif" font-size="10.00">+ destruction()</text>
</a>
</g>
</g>
<!-- Node5&#45;&gt;Node7 -->
<g id="edge7" class="edge"><title>Node5&#45;&gt;Node7</title>
<path fill="none" stroke="midnightblue" d="M512.606,-128.552C508.927,-117.107 505.426,-106.213 502.278,-96.4194"/>
<polygon fill="none" stroke="midnightblue" points="509.342,-129.835 515.734,-138.284 516.006,-127.692 509.342,-129.835"/>
</g>
<!-- Node8 -->
<g id="node9" class="node"><title>Node8</title>
<g id="a_node9"><a xlink:href="class_vaisseau_defenseur_b.html" target="_top" xlink:title="classe du bouclier du VaisseauDefenseur ">
<polygon fill="white" stroke="black" points="568,-6 568,-96 698,-96 698,-6 568,-6"/>
<text text-anchor="middle" x="633" y="-84" font-family="Helvetica,sans-Serif" font-size="10.00">VaisseauDefenseurB</text>
<polyline fill="none" stroke="black" points="568,-77 698,-77 "/>
<text text-anchor="middle" x="633" y="-65" font-family="Helvetica,sans-Serif" font-size="10.00"> </text>
<polyline fill="none" stroke="black" points="568,-58 698,-58 "/>
<text text-anchor="start" x="576" y="-46" font-family="Helvetica,sans-Serif" font-size="10.00">+ VaisseauDefenseurB()</text>
<text text-anchor="start" x="576" y="-35" font-family="Helvetica,sans-Serif" font-size="10.00">+ ~VaisseauDefenseurB()</text>
<text text-anchor="start" x="576" y="-24" font-family="Helvetica,sans-Serif" font-size="10.00">+ gestion()</text>
<text text-anchor="start" x="576" y="-13" font-family="Helvetica,sans-Serif" font-size="10.00">+ destruction()</text>
</a>
</g>
</g>
<!-- Node5&#45;&gt;Node8 -->
<g id="edge8" class="edge"><title>Node5&#45;&gt;Node8</title>
<path fill="none" stroke="midnightblue" d="M608.052,-128.552C611.782,-117.107 615.332,-106.213 618.524,-96.4194"/>
<polygon fill="none" stroke="midnightblue" points="604.652,-127.691 604.881,-138.284 611.307,-129.861 604.652,-127.691"/>
</g>
<!-- Node9 -->
<g id="node10" class="node"><title>Node9</title>
<g id="a_node10"><a xlink:href="class_vaisseau_eclaireur.html" target="_top" xlink:title="classe d&#39;un ennemi de base : l&#39;éclaireur ">
<polygon fill="white" stroke="black" points="716,-6 716,-96 832,-96 832,-6 716,-6"/>
<text text-anchor="middle" x="774" y="-84" font-family="Helvetica,sans-Serif" font-size="10.00">VaisseauEclaireur</text>
<polyline fill="none" stroke="black" points="716,-77 832,-77 "/>
<text text-anchor="middle" x="774" y="-65" font-family="Helvetica,sans-Serif" font-size="10.00"> </text>
<polyline fill="none" stroke="black" points="716,-58 832,-58 "/>
<text text-anchor="start" x="724" y="-46" font-family="Helvetica,sans-Serif" font-size="10.00">+ VaisseauEclaireur()</text>
<text text-anchor="start" x="724" y="-35" font-family="Helvetica,sans-Serif" font-size="10.00">+ ~VaisseauEclaireur()</text>
<text text-anchor="start" x="724" y="-24" font-family="Helvetica,sans-Serif" font-size="10.00">+ gestion()</text>
<text text-anchor="start" x="724" y="-13" font-family="Helvetica,sans-Serif" font-size="10.00">+ destruction()</text>
</a>
</g>
</g>
<!-- Node5&#45;&gt;Node9 -->
<g id="edge9" class="edge"><title>Node5&#45;&gt;Node9</title>
<path fill="none" stroke="midnightblue" d="M618.304,-214.971C654.186,-177.413 699.354,-130.134 731.786,-96.1862"/>
<polygon fill="none" stroke="midnightblue" points="615.635,-212.698 611.258,-222.346 620.697,-217.534 615.635,-212.698"/>
</g>
<!-- Node10 -->
<g id="node11" class="node"><title>Node10</title>
<g id="a_node11"><a xlink:href="class_vaisseau_test.html" target="_top" xlink:title="{VaisseauTest\n||+ VaisseauTest()\l+ ~VaisseauTest()\l+ gestion()\l+ destruction()\l}">
<polygon fill="white" stroke="black" points="850,-6 850,-96 948,-96 948,-6 850,-6"/>
<text text-anchor="middle" x="899" y="-84" font-family="Helvetica,sans-Serif" font-size="10.00">VaisseauTest</text>
<polyline fill="none" stroke="black" points="850,-77 948,-77 "/>
<text text-anchor="middle" x="899" y="-65" font-family="Helvetica,sans-Serif" font-size="10.00"> </text>
<polyline fill="none" stroke="black" points="850,-58 948,-58 "/>
<text text-anchor="start" x="858" y="-46" font-family="Helvetica,sans-Serif" font-size="10.00">+ VaisseauTest()</text>
<text text-anchor="start" x="858" y="-35" font-family="Helvetica,sans-Serif" font-size="10.00">+ ~VaisseauTest()</text>
<text text-anchor="start" x="858" y="-24" font-family="Helvetica,sans-Serif" font-size="10.00">+ gestion()</text>
<text text-anchor="start" x="858" y="-13" font-family="Helvetica,sans-Serif" font-size="10.00">+ destruction()</text>
</a>
</g>
</g>
<!-- Node5&#45;&gt;Node10 -->
<g id="edge10" class="edge"><title>Node5&#45;&gt;Node10</title>
<path fill="none" stroke="midnightblue" d="M619.727,-242.686C677.844,-209.429 767.84,-155.673 841,-102 843.894,-99.8767 846.823,-97.6451 849.747,-95.3517"/>
<polygon fill="none" stroke="midnightblue" points="617.988,-239.649 611.035,-247.643 621.456,-245.729 617.988,-239.649"/>
</g>
</g>
</svg>
