<?xml version="1.0" encoding="UTF-8" standalone="no"?>
<!DOCTYPE svg PUBLIC "-//W3C//DTD SVG 1.1//EN"
 "http://www.w3.org/Graphics/SVG/1.1/DTD/svg11.dtd">
<!-- Generated by graphviz version 2.38.0 (20140413.2041)
 -->
<!-- Title: src/constantes.h Pages: 1 -->
<svg width="331pt" height="84pt"
 viewBox="0.00 0.00 331.00 84.00" xmlns="http://www.w3.org/2000/svg" xmlns:xlink="http://www.w3.org/1999/xlink">
<g id="graph0" class="graph" transform="scale(1 1) rotate(0) translate(4 80)">
<title>src/constantes.h</title>
<polygon fill="white" stroke="none" points="-4,4 -4,-80 327,-80 327,4 -4,4"/>
<!-- Node1 -->
<g id="node1" class="node"><title>Node1</title>
<polygon fill="#bfbfbf" stroke="black" points="87,-56.5 87,-75.5 176,-75.5 176,-56.5 87,-56.5"/>
<text text-anchor="middle" x="131.5" y="-63.5" font-family="Helvetica,sans-Serif" font-size="10.00">src/constantes.h</text>
</g>
<!-- Node2 -->
<g id="node2" class="node"><title>Node2</title>
<g id="a_node2"><a xlink:href="_entite_8cpp.html" target="_top" xlink:title="src/Entite.cpp">
<polygon fill="white" stroke="black" points="0,-0.5 0,-19.5 77,-19.5 77,-0.5 0,-0.5"/>
<text text-anchor="middle" x="38.5" y="-7.5" font-family="Helvetica,sans-Serif" font-size="10.00">src/Entite.cpp</text>
</a>
</g>
</g>
<!-- Node1&#45;&gt;Node2 -->
<g id="edge1" class="edge"><title>Node1&#45;&gt;Node2</title>
<path fill="none" stroke="midnightblue" d="M107.694,-51.1774C90.5811,-41.2407 68.0347,-28.1492 53.405,-19.6545"/>
<polygon fill="midnightblue" stroke="midnightblue" points="106.153,-54.3293 116.558,-56.324 109.668,-48.2758 106.153,-54.3293"/>
</g>
<!-- Node3 -->
<g id="node3" class="node"><title>Node3</title>
<g id="a_node3"><a xlink:href="main_8cpp.html" target="_top" xlink:title="src/main.cpp">
<polygon fill="white" stroke="black" points="95,-0.5 95,-19.5 168,-19.5 168,-0.5 95,-0.5"/>
<text text-anchor="middle" x="131.5" y="-7.5" font-family="Helvetica,sans-Serif" font-size="10.00">src/main.cpp</text>
</a>
</g>
</g>
<!-- Node1&#45;&gt;Node3 -->
<g id="edge2" class="edge"><title>Node1&#45;&gt;Node3</title>
<path fill="none" stroke="midnightblue" d="M131.5,-45.8045C131.5,-36.9102 131.5,-26.7798 131.5,-19.7511"/>
<polygon fill="midnightblue" stroke="midnightblue" points="128,-46.083 131.5,-56.083 135,-46.083 128,-46.083"/>
</g>
<!-- Node4 -->
<g id="node4" class="node"><title>Node4</title>
<g id="a_node4"><a xlink:href="_proj_test_8cpp.html" target="_top" xlink:title="src/Projectiles/ProjTest.cpp">
<polygon fill="white" stroke="black" points="186,-0.5 186,-19.5 323,-19.5 323,-0.5 186,-0.5"/>
<text text-anchor="middle" x="254.5" y="-7.5" font-family="Helvetica,sans-Serif" font-size="10.00">src/Projectiles/ProjTest.cpp</text>
</a>
</g>
</g>
<!-- Node1&#45;&gt;Node4 -->
<g id="edge3" class="edge"><title>Node1&#45;&gt;Node4</title>
<path fill="none" stroke="midnightblue" d="M160.273,-52.3678C183.307,-42.2553 214.984,-28.3486 235.101,-19.5164"/>
<polygon fill="midnightblue" stroke="midnightblue" points="158.739,-49.2188 150.99,-56.4435 161.553,-55.6283 158.739,-49.2188"/>
</g>
</g>
</svg>
