<?xml version="1.0" encoding="UTF-8" standalone="no"?>
<!DOCTYPE svg PUBLIC "-//W3C//DTD SVG 1.1//EN"
 "http://www.w3.org/Graphics/SVG/1.1/DTD/svg11.dtd">
<!-- Generated by graphviz version 2.38.0 (20140413.2041)
 -->
<!-- Title: src/constantes.h Pages: 1 -->
<svg width="1672pt" height="420pt"
 viewBox="0.00 0.00 1672.00 420.00" xmlns="http://www.w3.org/2000/svg" xmlns:xlink="http://www.w3.org/1999/xlink">
<g id="graph0" class="graph" transform="scale(1 1) rotate(0) translate(4 416)">
<title>src/constantes.h</title>
<polygon fill="white" stroke="none" points="-4,4 -4,-416 1668,-416 1668,4 -4,4"/>
<!-- Node1 -->
<g id="node1" class="node"><title>Node1</title>
<polygon fill="#bfbfbf" stroke="black" points="1408,-392.5 1408,-411.5 1497,-411.5 1497,-392.5 1408,-392.5"/>
<text text-anchor="middle" x="1452.5" y="-399.5" font-family="Helvetica,sans-Serif" font-size="10.00">src/constantes.h</text>
</g>
<!-- Node2 -->
<g id="node2" class="node"><title>Node2</title>
<g id="a_node2"><a xlink:href="_entite_8h.html" target="_top" xlink:title="src/Entite.h">
<polygon fill="white" stroke="black" points="1163,-336.5 1163,-355.5 1230,-355.5 1230,-336.5 1163,-336.5"/>
<text text-anchor="middle" x="1196.5" y="-343.5" font-family="Helvetica,sans-Serif" font-size="10.00">src/Entite.h</text>
</a>
</g>
</g>
<!-- Node1&#45;&gt;Node2 -->
<g id="edge1" class="edge"><title>Node1&#45;&gt;Node2</title>
<path fill="none" stroke="midnightblue" d="M1402.14,-390.377C1351.32,-379.658 1274.27,-363.404 1230.33,-354.137"/>
<polygon fill="midnightblue" stroke="midnightblue" points="1401.43,-393.804 1411.94,-392.444 1402.87,-386.955 1401.43,-393.804"/>
</g>
<!-- Node16 -->
<g id="node16" class="node"><title>Node16</title>
<g id="a_node16"><a xlink:href="main_8cpp.html" target="_top" xlink:title="src/main.cpp">
<polygon fill="white" stroke="black" points="1591,-56.5 1591,-75.5 1664,-75.5 1664,-56.5 1591,-56.5"/>
<text text-anchor="middle" x="1627.5" y="-63.5" font-family="Helvetica,sans-Serif" font-size="10.00">src/main.cpp</text>
</a>
</g>
</g>
<!-- Node1&#45;&gt;Node16 -->
<g id="edge57" class="edge"><title>Node1&#45;&gt;Node16</title>
<path fill="none" stroke="midnightblue" d="M1507.4,-394.074C1565.69,-383.288 1649.5,-356.407 1649.5,-291 1649.5,-291 1649.5,-291 1649.5,-177 1649.5,-138.633 1636.47,-94.1758 1630.47,-75.7215"/>
<polygon fill="midnightblue" stroke="midnightblue" points="1506.45,-390.686 1497.2,-395.847 1507.65,-397.582 1506.45,-390.686"/>
</g>
<!-- Node17 -->
<g id="node17" class="node"><title>Node17</title>
<g id="a_node17"><a xlink:href="_vaisseau_eclaireur_8h.html" target="_top" xlink:title="src/Vaisseau/VaisseauEclaireur.h">
<polygon fill="white" stroke="black" points="1419.5,-112.5 1419.5,-131.5 1583.5,-131.5 1583.5,-112.5 1419.5,-112.5"/>
<text text-anchor="middle" x="1501.5" y="-119.5" font-family="Helvetica,sans-Serif" font-size="10.00">src/Vaisseau/VaisseauEclaireur.h</text>
</a>
</g>
</g>
<!-- Node1&#45;&gt;Node17 -->
<g id="edge58" class="edge"><title>Node1&#45;&gt;Node17</title>
<path fill="none" stroke="midnightblue" d="M1469.66,-385.411C1489.51,-365.584 1519.5,-329.296 1519.5,-291 1519.5,-291 1519.5,-291 1519.5,-233 1519.5,-194.878 1508.84,-150.289 1503.93,-131.76"/>
<polygon fill="midnightblue" stroke="midnightblue" points="1467.17,-382.95 1462.39,-392.402 1472.02,-387.997 1467.17,-382.95"/>
</g>
<!-- Node26 -->
<g id="node26" class="node"><title>Node26</title>
<g id="a_node26"><a xlink:href="_proj_test_8cpp.html" target="_top" xlink:title="src/Projectiles/ProjTest.cpp">
<polygon fill="white" stroke="black" points="0,-168.5 0,-187.5 137,-187.5 137,-168.5 0,-168.5"/>
<text text-anchor="middle" x="68.5" y="-175.5" font-family="Helvetica,sans-Serif" font-size="10.00">src/Projectiles/ProjTest.cpp</text>
</a>
</g>
</g>
<!-- Node1&#45;&gt;Node26 -->
<g id="edge59" class="edge"><title>Node1&#45;&gt;Node26</title>
<path fill="none" stroke="midnightblue" d="M1397.72,-399.977C1243.16,-396.158 791.065,-378.566 425.5,-300 293.378,-271.605 142.117,-210.288 88.5614,-187.637"/>
<polygon fill="midnightblue" stroke="midnightblue" points="1397.82,-403.48 1407.9,-400.219 1397.99,-396.482 1397.82,-403.48"/>
</g>
<!-- Node29 -->
<g id="node29" class="node"><title>Node29</title>
<g id="a_node29"><a xlink:href="_entite_8cpp.html" target="_top" xlink:title="src/Entite.cpp">
<polygon fill="white" stroke="black" points="1414,-280.5 1414,-299.5 1491,-299.5 1491,-280.5 1414,-280.5"/>
<text text-anchor="middle" x="1452.5" y="-287.5" font-family="Helvetica,sans-Serif" font-size="10.00">src/Entite.cpp</text>
</a>
</g>
</g>
<!-- Node1&#45;&gt;Node29 -->
<g id="edge56" class="edge"><title>Node1&#45;&gt;Node29</title>
<path fill="none" stroke="midnightblue" d="M1452.5,-382.348C1452.5,-358.254 1452.5,-317.308 1452.5,-299.591"/>
<polygon fill="midnightblue" stroke="midnightblue" points="1449,-382.368 1452.5,-392.368 1456,-382.369 1449,-382.368"/>
</g>
<!-- Node3 -->
<g id="node3" class="node"><title>Node3</title>
<g id="a_node3"><a xlink:href="_projectile_8h.html" target="_top" xlink:title="src/Projectiles/Projectile.h">
<polygon fill="white" stroke="black" points="888,-280.5 888,-299.5 1019,-299.5 1019,-280.5 888,-280.5"/>
<text text-anchor="middle" x="953.5" y="-287.5" font-family="Helvetica,sans-Serif" font-size="10.00">src/Projectiles/Projectile.h</text>
</a>
</g>
</g>
<!-- Node2&#45;&gt;Node3 -->
<g id="edge2" class="edge"><title>Node2&#45;&gt;Node3</title>
<path fill="none" stroke="midnightblue" d="M1153.03,-335.341C1107.21,-325.157 1035.7,-309.268 991.891,-299.531"/>
<polygon fill="midnightblue" stroke="midnightblue" points="1152.45,-338.796 1162.97,-337.548 1153.96,-331.962 1152.45,-338.796"/>
</g>
<!-- Node4 -->
<g id="node4" class="node"><title>Node4</title>
<g id="a_node4"><a xlink:href="_capacite_8h.html" target="_top" xlink:title="src/Capacites/Capacite.h">
<polygon fill="white" stroke="black" points="981.5,-224.5 981.5,-243.5 1109.5,-243.5 1109.5,-224.5 981.5,-224.5"/>
<text text-anchor="middle" x="1045.5" y="-231.5" font-family="Helvetica,sans-Serif" font-size="10.00">src/Capacites/Capacite.h</text>
</a>
</g>
</g>
<!-- Node2&#45;&gt;Node4 -->
<g id="edge51" class="edge"><title>Node2&#45;&gt;Node4</title>
<path fill="none" stroke="midnightblue" d="M1176.48,-330.417C1144.54,-307.151 1083.04,-262.35 1057.29,-243.591"/>
<polygon fill="midnightblue" stroke="midnightblue" points="1174.51,-333.309 1184.65,-336.368 1178.63,-327.651 1174.51,-333.309"/>
</g>
<!-- Node11 -->
<g id="node11" class="node"><title>Node11</title>
<g id="a_node11"><a xlink:href="_cap_dash_8h.html" target="_top" xlink:title="src/Capacites/CapDash.h">
<polygon fill="white" stroke="black" points="155.5,-168.5 155.5,-187.5 285.5,-187.5 285.5,-168.5 155.5,-168.5"/>
<text text-anchor="middle" x="220.5" y="-175.5" font-family="Helvetica,sans-Serif" font-size="10.00">src/Capacites/CapDash.h</text>
</a>
</g>
</g>
<!-- Node2&#45;&gt;Node11 -->
<g id="edge52" class="edge"><title>Node2&#45;&gt;Node11</title>
<path fill="none" stroke="midnightblue" d="M1152.55,-343.594C993.676,-337.974 450.359,-313.943 293.5,-244 264.363,-231.008 238.651,-202.043 227.048,-187.572"/>
<polygon fill="midnightblue" stroke="midnightblue" points="1152.76,-347.103 1162.88,-343.952 1153.01,-340.107 1152.76,-347.103"/>
</g>
<!-- Node14 -->
<g id="node14" class="node"><title>Node14</title>
<g id="a_node14"><a xlink:href="_vaisseau_8h.html" target="_top" xlink:title="src/Vaisseau/Vaisseau.h">
<polygon fill="white" stroke="black" points="1134,-168.5 1134,-187.5 1259,-187.5 1259,-168.5 1134,-168.5"/>
<text text-anchor="middle" x="1196.5" y="-175.5" font-family="Helvetica,sans-Serif" font-size="10.00">src/Vaisseau/Vaisseau.h</text>
</a>
</g>
</g>
<!-- Node2&#45;&gt;Node14 -->
<g id="edge53" class="edge"><title>Node2&#45;&gt;Node14</title>
<path fill="none" stroke="midnightblue" d="M1196.5,-325.93C1196.5,-289.92 1196.5,-213.231 1196.5,-187.568"/>
<polygon fill="midnightblue" stroke="midnightblue" points="1193,-326.075 1196.5,-336.075 1200,-326.075 1193,-326.075"/>
</g>
<!-- Node2&#45;&gt;Node16 -->
<g id="edge55" class="edge"><title>Node2&#45;&gt;Node16</title>
<path fill="none" stroke="midnightblue" d="M1233.51,-333.284C1309.3,-307.692 1484.18,-240.273 1592.5,-132 1609.18,-115.328 1619.96,-89.0431 1624.71,-75.5764"/>
<polygon fill="midnightblue" stroke="midnightblue" points="1232.29,-329.998 1223.91,-336.478 1234.5,-336.64 1232.29,-329.998"/>
</g>
<!-- Node2&#45;&gt;Node29 -->
<g id="edge54" class="edge"><title>Node2&#45;&gt;Node29</title>
<path fill="none" stroke="midnightblue" d="M1240.16,-335.79C1288.89,-325.512 1366.99,-309.036 1413.67,-299.191"/>
<polygon fill="midnightblue" stroke="midnightblue" points="1239.29,-332.396 1230.23,-337.885 1240.74,-339.246 1239.29,-332.396"/>
</g>
<!-- Node3&#45;&gt;Node4 -->
<g id="edge3" class="edge"><title>Node3&#45;&gt;Node4</title>
<path fill="none" stroke="midnightblue" d="M977.05,-275.177C993.979,-265.241 1016.28,-252.149 1030.76,-243.655"/>
<polygon fill="midnightblue" stroke="midnightblue" points="975.134,-272.243 968.281,-280.324 978.677,-278.28 975.134,-272.243"/>
</g>
<!-- Node5 -->
<g id="node5" class="node"><title>Node5</title>
<g id="a_node5"><a xlink:href="_cap_test_8h.html" target="_top" xlink:title="src/Capacites/CapTest.h">
<polygon fill="white" stroke="black" points="303.5,-168.5 303.5,-187.5 429.5,-187.5 429.5,-168.5 303.5,-168.5"/>
<text text-anchor="middle" x="366.5" y="-175.5" font-family="Helvetica,sans-Serif" font-size="10.00">src/Capacites/CapTest.h</text>
</a>
</g>
</g>
<!-- Node3&#45;&gt;Node5 -->
<g id="edge34" class="edge"><title>Node3&#45;&gt;Node5</title>
<path fill="none" stroke="midnightblue" d="M877.575,-280.599C812.097,-272.827 715.163,-260.064 631.5,-244 545.669,-227.52 445.911,-201.033 396.882,-187.522"/>
<polygon fill="midnightblue" stroke="midnightblue" points="877.467,-284.11 887.807,-281.803 878.285,-277.158 877.467,-284.11"/>
</g>
<!-- Node9 -->
<g id="node9" class="node"><title>Node9</title>
<g id="a_node9"><a xlink:href="_cap_piou_8h.html" target="_top" xlink:title="src/Capacites/CapPiou.h">
<polygon fill="white" stroke="black" points="761.5,-168.5 761.5,-187.5 887.5,-187.5 887.5,-168.5 761.5,-168.5"/>
<text text-anchor="middle" x="824.5" y="-175.5" font-family="Helvetica,sans-Serif" font-size="10.00">src/Capacites/CapPiou.h</text>
</a>
</g>
</g>
<!-- Node3&#45;&gt;Node9 -->
<g id="edge41" class="edge"><title>Node3&#45;&gt;Node9</title>
<path fill="none" stroke="midnightblue" d="M935.693,-273.816C908.218,-250.387 856.386,-206.19 834.575,-187.591"/>
<polygon fill="midnightblue" stroke="midnightblue" points="933.497,-276.543 943.378,-280.368 938.039,-271.217 933.497,-276.543"/>
</g>
<!-- Node13 -->
<g id="node13" class="node"><title>Node13</title>
<g id="a_node13"><a xlink:href="_capacite_8cpp.html" target="_top" xlink:title="src/Capacites/Capacite.cpp">
<polygon fill="white" stroke="black" points="1263.5,-112.5 1263.5,-131.5 1401.5,-131.5 1401.5,-112.5 1263.5,-112.5"/>
<text text-anchor="middle" x="1332.5" y="-119.5" font-family="Helvetica,sans-Serif" font-size="10.00">src/Capacites/Capacite.cpp</text>
</a>
</g>
</g>
<!-- Node3&#45;&gt;Node13 -->
<g id="edge47" class="edge"><title>Node3&#45;&gt;Node13</title>
<path fill="none" stroke="midnightblue" d="M1029.19,-282.87C1080.06,-276.969 1147.89,-265.603 1204.5,-244 1248.87,-227.07 1262.5,-222.149 1295.5,-188 1311.92,-171.006 1323.7,-145.322 1329.13,-131.894"/>
<polygon fill="midnightblue" stroke="midnightblue" points="1028.8,-279.391 1019.25,-283.978 1029.58,-286.348 1028.8,-279.391"/>
</g>
<!-- Node3&#45;&gt;Node14 -->
<g id="edge46" class="edge"><title>Node3&#45;&gt;Node14</title>
<path fill="none" stroke="midnightblue" d="M1016.96,-278.339C1048.67,-271.388 1086.9,-260.471 1118.5,-244 1147.57,-228.845 1175.58,-201.399 1188.72,-187.523"/>
<polygon fill="midnightblue" stroke="midnightblue" points="1015.98,-274.97 1006.92,-280.459 1017.42,-281.819 1015.98,-274.97"/>
</g>
<!-- Node15 -->
<g id="node15" class="node"><title>Node15</title>
<g id="a_node15"><a xlink:href="_partie_8h.html" target="_top" xlink:title="src/Partie.h">
<polygon fill="white" stroke="black" points="1178,-112.5 1178,-131.5 1245,-131.5 1245,-112.5 1178,-112.5"/>
<text text-anchor="middle" x="1211.5" y="-119.5" font-family="Helvetica,sans-Serif" font-size="10.00">src/Partie.h</text>
</a>
</g>
</g>
<!-- Node3&#45;&gt;Node15 -->
<g id="edge48" class="edge"><title>Node3&#45;&gt;Node15</title>
<path fill="none" stroke="midnightblue" d="M1015.22,-278.636C1098.65,-263.143 1240.15,-231.093 1267.5,-188 1281.55,-165.865 1249.81,-143.443 1228.6,-131.591"/>
<polygon fill="midnightblue" stroke="midnightblue" points="1014.56,-275.2 1005.35,-280.443 1015.82,-282.085 1014.56,-275.2"/>
</g>
<!-- Node22 -->
<g id="node22" class="node"><title>Node22</title>
<g id="a_node22"><a xlink:href="_projectile_8cpp.html" target="_top" xlink:title="src/Projectiles/Projectile.cpp">
<polygon fill="white" stroke="black" points="701,-112.5 701,-131.5 842,-131.5 842,-112.5 701,-112.5"/>
<text text-anchor="middle" x="771.5" y="-119.5" font-family="Helvetica,sans-Serif" font-size="10.00">src/Projectiles/Projectile.cpp</text>
</a>
</g>
</g>
<!-- Node3&#45;&gt;Node22 -->
<g id="edge49" class="edge"><title>Node3&#45;&gt;Node22</title>
<path fill="none" stroke="midnightblue" d="M946.816,-270.567C935.58,-240.458 912.565,-182.611 896.5,-168 875.683,-149.067 846.319,-137.959 821.281,-131.518"/>
<polygon fill="midnightblue" stroke="midnightblue" points="943.649,-272.097 950.387,-280.273 950.219,-269.679 943.649,-272.097"/>
</g>
<!-- Node23 -->
<g id="node23" class="node"><title>Node23</title>
<g id="a_node23"><a xlink:href="_vaisseau_8cpp.html" target="_top" xlink:title="src/Vaisseau/Vaisseau.cpp">
<polygon fill="white" stroke="black" points="860.5,-112.5 860.5,-131.5 996.5,-131.5 996.5,-112.5 860.5,-112.5"/>
<text text-anchor="middle" x="928.5" y="-119.5" font-family="Helvetica,sans-Serif" font-size="10.00">src/Vaisseau/Vaisseau.cpp</text>
</a>
</g>
</g>
<!-- Node3&#45;&gt;Node23 -->
<g id="edge50" class="edge"><title>Node3&#45;&gt;Node23</title>
<path fill="none" stroke="midnightblue" d="M950.628,-269.93C945.205,-233.92 933.655,-157.231 929.79,-131.568"/>
<polygon fill="midnightblue" stroke="midnightblue" points="947.206,-270.708 952.156,-280.075 954.128,-269.665 947.206,-270.708"/>
</g>
<!-- Node24 -->
<g id="node24" class="node"><title>Node24</title>
<g id="a_node24"><a xlink:href="_proj_test_8h.html" target="_top" xlink:title="src/Projectiles/ProjTest.h">
<polygon fill="white" stroke="black" points="303,-224.5 303,-243.5 430,-243.5 430,-224.5 303,-224.5"/>
<text text-anchor="middle" x="366.5" y="-231.5" font-family="Helvetica,sans-Serif" font-size="10.00">src/Projectiles/ProjTest.h</text>
</a>
</g>
</g>
<!-- Node3&#45;&gt;Node24 -->
<g id="edge35" class="edge"><title>Node3&#45;&gt;Node24</title>
<path fill="none" stroke="midnightblue" d="M877.595,-282.017C760.865,-271.279 539.38,-250.904 430.368,-240.875"/>
<polygon fill="midnightblue" stroke="midnightblue" points="877.594,-285.532 887.872,-282.963 878.235,-278.561 877.594,-285.532"/>
</g>
<!-- Node27 -->
<g id="node27" class="node"><title>Node27</title>
<g id="a_node27"><a xlink:href="_proj_piou_8h.html" target="_top" xlink:title="src/Projectiles/ProjPiou.h">
<polygon fill="white" stroke="black" points="641,-224.5 641,-243.5 768,-243.5 768,-224.5 641,-224.5"/>
<text text-anchor="middle" x="704.5" y="-231.5" font-family="Helvetica,sans-Serif" font-size="10.00">src/Projectiles/ProjPiou.h</text>
</a>
</g>
</g>
<!-- Node3&#45;&gt;Node27 -->
<g id="edge42" class="edge"><title>Node3&#45;&gt;Node27</title>
<path fill="none" stroke="midnightblue" d="M904.076,-278.281C857.021,-268.077 787.133,-252.92 743.77,-243.516"/>
<polygon fill="midnightblue" stroke="midnightblue" points="903.531,-281.745 914.045,-280.444 905.014,-274.904 903.531,-281.745"/>
</g>
<!-- Node4&#45;&gt;Node5 -->
<g id="edge4" class="edge"><title>Node4&#45;&gt;Node5</title>
<path fill="none" stroke="midnightblue" d="M971.108,-228.695C856.557,-221.794 630.139,-207.069 438.5,-188 435.617,-187.713 432.671,-187.405 429.696,-187.082"/>
<polygon fill="midnightblue" stroke="midnightblue" points="970.979,-232.194 981.17,-229.299 971.398,-225.206 970.979,-232.194"/>
</g>
<!-- Node4&#45;&gt;Node9 -->
<g id="edge8" class="edge"><title>Node4&#45;&gt;Node9</title>
<path fill="none" stroke="midnightblue" d="M1000.58,-222.024C958.832,-211.823 897.518,-196.841 859.354,-187.516"/>
<polygon fill="midnightblue" stroke="midnightblue" points="999.937,-225.47 1010.48,-224.444 1001.6,-218.67 999.937,-225.47"/>
</g>
<!-- Node4&#45;&gt;Node11 -->
<g id="edge11" class="edge"><title>Node4&#45;&gt;Node11</title>
<path fill="none" stroke="midnightblue" d="M970.875,-230.043C835.773,-224.352 541.719,-210.419 294.5,-188 291.664,-187.743 288.77,-187.463 285.847,-187.167"/>
<polygon fill="midnightblue" stroke="midnightblue" points="970.969,-233.55 981.107,-230.471 971.262,-226.556 970.969,-233.55"/>
</g>
<!-- Node4&#45;&gt;Node13 -->
<g id="edge15" class="edge"><title>Node4&#45;&gt;Node13</title>
<path fill="none" stroke="midnightblue" d="M1119.57,-228.784C1164.56,-223.674 1221.92,-212.47 1267.5,-188 1293.65,-173.96 1316.12,-146.009 1326.44,-131.773"/>
<polygon fill="midnightblue" stroke="midnightblue" points="1119.16,-225.308 1109.58,-229.842 1119.89,-232.269 1119.16,-225.308"/>
</g>
<!-- Node4&#45;&gt;Node14 -->
<g id="edge16" class="edge"><title>Node4&#45;&gt;Node14</title>
<path fill="none" stroke="midnightblue" d="M1078.95,-221.039C1107.36,-210.879 1147.44,-196.546 1172.69,-187.516"/>
<polygon fill="midnightblue" stroke="midnightblue" points="1077.66,-217.781 1069.43,-224.444 1080.02,-224.372 1077.66,-217.781"/>
</g>
<!-- Node4&#45;&gt;Node15 -->
<g id="edge30" class="edge"><title>Node4&#45;&gt;Node15</title>
<path fill="none" stroke="midnightblue" d="M1062.39,-217.318C1077.85,-203.404 1101.73,-183.013 1124.5,-168 1146.65,-153.398 1174.11,-139.882 1192.18,-131.55"/>
<polygon fill="midnightblue" stroke="midnightblue" points="1059.75,-214.983 1054.72,-224.307 1064.47,-220.155 1059.75,-214.983"/>
</g>
<!-- Node20 -->
<g id="node20" class="node"><title>Node20</title>
<g id="a_node20"><a xlink:href="_vaisseau_test_8h.html" target="_top" xlink:title="src/Vaisseau/VaisseauTest.h">
<polygon fill="white" stroke="black" points="1015,-112.5 1015,-131.5 1160,-131.5 1160,-112.5 1015,-112.5"/>
<text text-anchor="middle" x="1087.5" y="-119.5" font-family="Helvetica,sans-Serif" font-size="10.00">src/Vaisseau/VaisseauTest.h</text>
</a>
</g>
</g>
<!-- Node4&#45;&gt;Node20 -->
<g id="edge31" class="edge"><title>Node4&#45;&gt;Node20</title>
<path fill="none" stroke="midnightblue" d="M1052.37,-214.998C1061.54,-190.997 1077.39,-149.468 1084.22,-131.591"/>
<polygon fill="midnightblue" stroke="midnightblue" points="1049.09,-213.778 1048.8,-224.368 1055.63,-216.275 1049.09,-213.778"/>
</g>
<!-- Node4&#45;&gt;Node22 -->
<g id="edge32" class="edge"><title>Node4&#45;&gt;Node22</title>
<path fill="none" stroke="midnightblue" d="M1023.91,-218.878C1001.18,-204.498 963.971,-182.335 929.5,-168 890.393,-151.737 843.49,-139.199 810.996,-131.538"/>
<polygon fill="midnightblue" stroke="midnightblue" points="1022.13,-221.893 1032.44,-224.338 1025.91,-215.998 1022.13,-221.893"/>
</g>
<!-- Node4&#45;&gt;Node23 -->
<g id="edge33" class="edge"><title>Node4&#45;&gt;Node23</title>
<path fill="none" stroke="midnightblue" d="M1037.42,-214.931C1030.47,-200.882 1019.38,-181.565 1005.5,-168 989.002,-151.874 965.624,-139.275 948.964,-131.561"/>
<polygon fill="midnightblue" stroke="midnightblue" points="1034.3,-216.52 1041.73,-224.072 1040.63,-213.534 1034.3,-216.52"/>
</g>
<!-- Node6 -->
<g id="node6" class="node"><title>Node6</title>
<g id="a_node6"><a xlink:href="___capacites_8h.html" target="_top" xlink:title="src/Capacites/_Capacites.h">
<polygon fill="white" stroke="black" points="351.5,-112.5 351.5,-131.5 489.5,-131.5 489.5,-112.5 351.5,-112.5"/>
<text text-anchor="middle" x="420.5" y="-119.5" font-family="Helvetica,sans-Serif" font-size="10.00">src/Capacites/_Capacites.h</text>
</a>
</g>
</g>
<!-- Node5&#45;&gt;Node6 -->
<g id="edge5" class="edge"><title>Node5&#45;&gt;Node6</title>
<path fill="none" stroke="midnightblue" d="M382.498,-161.002C392.067,-151.433 403.861,-139.639 411.749,-131.751"/>
<polygon fill="midnightblue" stroke="midnightblue" points="380.013,-158.537 375.417,-168.083 384.963,-163.487 380.013,-158.537"/>
</g>
<!-- Node8 -->
<g id="node8" class="node"><title>Node8</title>
<g id="a_node8"><a xlink:href="_cap_test_8cpp.html" target="_top" xlink:title="src/Capacites/CapTest.cpp">
<polygon fill="white" stroke="black" points="196,-112.5 196,-131.5 333,-131.5 333,-112.5 196,-112.5"/>
<text text-anchor="middle" x="264.5" y="-119.5" font-family="Helvetica,sans-Serif" font-size="10.00">src/Capacites/CapTest.cpp</text>
</a>
</g>
</g>
<!-- Node5&#45;&gt;Node8 -->
<g id="edge7" class="edge"><title>Node5&#45;&gt;Node8</title>
<path fill="none" stroke="midnightblue" d="M341.169,-163.59C322.31,-153.605 297.116,-140.267 280.847,-131.655"/>
<polygon fill="midnightblue" stroke="midnightblue" points="339.636,-166.738 350.112,-168.324 342.912,-160.552 339.636,-166.738"/>
</g>
<!-- Node7 -->
<g id="node7" class="node"><title>Node7</title>
<g id="a_node7"><a xlink:href="_partie_8cpp.html" target="_top" xlink:title="src/Partie.cpp">
<polygon fill="white" stroke="black" points="766,-0.5 766,-19.5 843,-19.5 843,-0.5 766,-0.5"/>
<text text-anchor="middle" x="804.5" y="-7.5" font-family="Helvetica,sans-Serif" font-size="10.00">src/Partie.cpp</text>
</a>
</g>
</g>
<!-- Node6&#45;&gt;Node7 -->
<g id="edge6" class="edge"><title>Node6&#45;&gt;Node7</title>
<path fill="none" stroke="midnightblue" d="M435.884,-104.855C451.421,-89.621 476.871,-67.4594 503.5,-56 591.833,-17.9868 706.702,-11.2792 765.731,-10.5776"/>
<polygon fill="midnightblue" stroke="midnightblue" points="433.261,-102.529 428.709,-112.096 438.234,-107.456 433.261,-102.529"/>
</g>
<!-- Node9&#45;&gt;Node6 -->
<g id="edge9" class="edge"><title>Node9&#45;&gt;Node6</title>
<path fill="none" stroke="midnightblue" d="M751.364,-167.224C675.09,-157.029 556.734,-141.209 484.181,-131.512"/>
<polygon fill="midnightblue" stroke="midnightblue" points="750.999,-170.707 761.375,-168.562 751.927,-163.768 750.999,-170.707"/>
</g>
<!-- Node10 -->
<g id="node10" class="node"><title>Node10</title>
<g id="a_node10"><a xlink:href="_cap_piou_8cpp.html" target="_top" xlink:title="src/Capacites/CapPiou.cpp">
<polygon fill="white" stroke="black" points="546,-112.5 546,-131.5 683,-131.5 683,-112.5 546,-112.5"/>
<text text-anchor="middle" x="614.5" y="-119.5" font-family="Helvetica,sans-Serif" font-size="10.00">src/Capacites/CapPiou.cpp</text>
</a>
</g>
</g>
<!-- Node9&#45;&gt;Node10 -->
<g id="edge10" class="edge"><title>Node9&#45;&gt;Node10</title>
<path fill="none" stroke="midnightblue" d="M781.31,-165.894C741.653,-155.697 683.73,-140.802 647.619,-131.516"/>
<polygon fill="midnightblue" stroke="midnightblue" points="780.668,-169.343 791.225,-168.444 782.412,-162.563 780.668,-169.343"/>
</g>
<!-- Node11&#45;&gt;Node6 -->
<g id="edge12" class="edge"><title>Node11&#45;&gt;Node6</title>
<path fill="none" stroke="midnightblue" d="M261.874,-165.829C299.636,-155.633 354.64,-140.782 388.958,-131.516"/>
<polygon fill="midnightblue" stroke="midnightblue" points="260.933,-162.458 252.191,-168.444 262.757,-169.216 260.933,-162.458"/>
</g>
<!-- Node11&#45;&gt;Node8 -->
<g id="edge14" class="edge"><title>Node11&#45;&gt;Node8</title>
<path fill="none" stroke="midnightblue" d="M234.235,-160.144C241.901,-150.736 251.133,-139.405 257.369,-131.751"/>
<polygon fill="midnightblue" stroke="midnightblue" points="231.369,-158.12 227.766,-168.083 236.796,-162.541 231.369,-158.12"/>
</g>
<!-- Node12 -->
<g id="node12" class="node"><title>Node12</title>
<g id="a_node12"><a xlink:href="_cap_dash_8cpp.html" target="_top" xlink:title="src/Capacites/CapDash.cpp">
<polygon fill="white" stroke="black" points="37.5,-112.5 37.5,-131.5 177.5,-131.5 177.5,-112.5 37.5,-112.5"/>
<text text-anchor="middle" x="107.5" y="-119.5" font-family="Helvetica,sans-Serif" font-size="10.00">src/Capacites/CapDash.cpp</text>
</a>
</g>
</g>
<!-- Node11&#45;&gt;Node12 -->
<g id="edge13" class="edge"><title>Node11&#45;&gt;Node12</title>
<path fill="none" stroke="midnightblue" d="M193.497,-164.096C172.386,-154.007 143.638,-140.27 125.321,-131.516"/>
<polygon fill="midnightblue" stroke="midnightblue" points="192.063,-167.29 202.595,-168.444 195.081,-160.974 192.063,-167.29"/>
</g>
<!-- Node14&#45;&gt;Node13 -->
<g id="edge17" class="edge"><title>Node14&#45;&gt;Node13</title>
<path fill="none" stroke="midnightblue" d="M1227.63,-164.638C1253.16,-154.504 1288.61,-140.427 1311.05,-131.516"/>
<polygon fill="midnightblue" stroke="midnightblue" points="1226.05,-161.5 1218.05,-168.444 1228.64,-168.006 1226.05,-161.5"/>
</g>
<!-- Node14&#45;&gt;Node15 -->
<g id="edge18" class="edge"><title>Node14&#45;&gt;Node15</title>
<path fill="none" stroke="midnightblue" d="M1201.67,-158.396C1204.18,-149.362 1207.07,-138.936 1209.07,-131.751"/>
<polygon fill="midnightblue" stroke="midnightblue" points="1198.28,-157.511 1198.98,-168.083 1205.03,-159.385 1198.28,-157.511"/>
</g>
<!-- Node14&#45;&gt;Node17 -->
<g id="edge21" class="edge"><title>Node14&#45;&gt;Node17</title>
<path fill="none" stroke="midnightblue" d="M1254.88,-166.664C1312.52,-156.459 1399.62,-141.039 1453.4,-131.516"/>
<polygon fill="midnightblue" stroke="midnightblue" points="1254.06,-163.254 1244.83,-168.444 1255.29,-170.146 1254.06,-163.254"/>
</g>
<!-- Node14&#45;&gt;Node20 -->
<g id="edge25" class="edge"><title>Node14&#45;&gt;Node20</title>
<path fill="none" stroke="midnightblue" d="M1169.98,-163.862C1149.77,-153.849 1122.51,-140.346 1104.97,-131.655"/>
<polygon fill="midnightblue" stroke="midnightblue" points="1168.47,-167.021 1178.99,-168.324 1171.58,-160.748 1168.47,-167.021"/>
</g>
<!-- Node14&#45;&gt;Node22 -->
<g id="edge28" class="edge"><title>Node14&#45;&gt;Node22</title>
<path fill="none" stroke="midnightblue" d="M1123.8,-167.762C1043.83,-157.602 916.38,-141.408 838.681,-131.536"/>
<polygon fill="midnightblue" stroke="midnightblue" points="1123.43,-171.244 1133.79,-169.032 1124.31,-164.299 1123.43,-171.244"/>
</g>
<!-- Node14&#45;&gt;Node23 -->
<g id="edge29" class="edge"><title>Node14&#45;&gt;Node23</title>
<path fill="none" stroke="midnightblue" d="M1143.94,-166.41C1093.29,-156.204 1017.63,-140.96 970.767,-131.516"/>
<polygon fill="midnightblue" stroke="midnightblue" points="1143.54,-169.899 1154.03,-168.444 1144.92,-163.037 1143.54,-169.899"/>
</g>
<!-- Node15&#45;&gt;Node7 -->
<g id="edge20" class="edge"><title>Node15&#45;&gt;Node7</title>
<path fill="none" stroke="midnightblue" d="M1182.59,-108.459C1162.53,-99.6388 1135.24,-87.4182 1111.5,-76 1093.95,-67.5559 1090.99,-62.1296 1072.5,-56 993.459,-29.7974 896.015,-18.3352 843.117,-13.743"/>
<polygon fill="midnightblue" stroke="midnightblue" points="1181.25,-111.693 1191.82,-112.498 1184.06,-105.281 1181.25,-111.693"/>
</g>
<!-- Node15&#45;&gt;Node16 -->
<g id="edge19" class="edge"><title>Node15&#45;&gt;Node16</title>
<path fill="none" stroke="midnightblue" d="M1255.42,-112.007C1400.65,-89.3878 1440.21,-97.561 1581.5,-76 1584.56,-75.5335 1587.72,-75.0072 1590.89,-74.4492"/>
<polygon fill="midnightblue" stroke="midnightblue" points="1254.58,-108.598 1245.24,-113.616 1255.67,-115.512 1254.58,-108.598"/>
</g>
<!-- Node18 -->
<g id="node18" class="node"><title>Node18</title>
<g id="a_node18"><a xlink:href="__vaisseaux_8h.html" target="_top" xlink:title="src/Vaisseau/_vaisseaux.h">
<polygon fill="white" stroke="black" points="1120.5,-56.5 1120.5,-75.5 1254.5,-75.5 1254.5,-56.5 1120.5,-56.5"/>
<text text-anchor="middle" x="1187.5" y="-63.5" font-family="Helvetica,sans-Serif" font-size="10.00">src/Vaisseau/_vaisseaux.h</text>
</a>
</g>
</g>
<!-- Node17&#45;&gt;Node18 -->
<g id="edge22" class="edge"><title>Node17&#45;&gt;Node18</title>
<path fill="none" stroke="midnightblue" d="M1441.77,-110.727C1382.43,-100.523 1292.51,-85.0583 1237.02,-75.5164"/>
<polygon fill="midnightblue" stroke="midnightblue" points="1441.3,-114.198 1451.75,-112.444 1442.48,-107.299 1441.3,-114.198"/>
</g>
<!-- Node19 -->
<g id="node19" class="node"><title>Node19</title>
<g id="a_node19"><a xlink:href="_vaisseau_eclaireur_8cpp.html" target="_top" xlink:title="src/Vaisseau/VaisseauEclaireur.cpp">
<polygon fill="white" stroke="black" points="1398.5,-56.5 1398.5,-75.5 1572.5,-75.5 1572.5,-56.5 1398.5,-56.5"/>
<text text-anchor="middle" x="1485.5" y="-63.5" font-family="Helvetica,sans-Serif" font-size="10.00">src/Vaisseau/VaisseauEclaireur.cpp</text>
</a>
</g>
</g>
<!-- Node17&#45;&gt;Node19 -->
<g id="edge24" class="edge"><title>Node17&#45;&gt;Node19</title>
<path fill="none" stroke="midnightblue" d="M1495.99,-102.396C1493.31,-93.362 1490.22,-82.936 1488.09,-75.7511"/>
<polygon fill="midnightblue" stroke="midnightblue" points="1492.66,-103.489 1498.86,-112.083 1499.37,-101.501 1492.66,-103.489"/>
</g>
<!-- Node18&#45;&gt;Node7 -->
<g id="edge23" class="edge"><title>Node18&#45;&gt;Node7</title>
<path fill="none" stroke="midnightblue" d="M1116.73,-55.0223C1036.03,-43.6443 907.027,-25.4555 843.057,-16.4362"/>
<polygon fill="midnightblue" stroke="midnightblue" points="1116.42,-58.5131 1126.81,-56.4435 1117.4,-51.5816 1116.42,-58.5131"/>
</g>
<!-- Node20&#45;&gt;Node18 -->
<g id="edge26" class="edge"><title>Node20&#45;&gt;Node18</title>
<path fill="none" stroke="midnightblue" d="M1112.59,-107.453C1131.05,-97.4835 1155.6,-84.2279 1171.47,-75.6545"/>
<polygon fill="midnightblue" stroke="midnightblue" points="1110.7,-104.493 1103.57,-112.324 1114.03,-110.652 1110.7,-104.493"/>
</g>
<!-- Node21 -->
<g id="node21" class="node"><title>Node21</title>
<g id="a_node21"><a xlink:href="_vaisseau_test_8cpp.html" target="_top" xlink:title="src/Vaisseau/VaisseauTest.cpp">
<polygon fill="white" stroke="black" points="909,-56.5 909,-75.5 1064,-75.5 1064,-56.5 909,-56.5"/>
<text text-anchor="middle" x="986.5" y="-63.5" font-family="Helvetica,sans-Serif" font-size="10.00">src/Vaisseau/VaisseauTest.cpp</text>
</a>
</g>
</g>
<!-- Node20&#45;&gt;Node21 -->
<g id="edge27" class="edge"><title>Node20&#45;&gt;Node21</title>
<path fill="none" stroke="midnightblue" d="M1062.42,-107.59C1043.74,-97.6052 1018.8,-84.2672 1002.69,-75.6545"/>
<polygon fill="midnightblue" stroke="midnightblue" points="1060.8,-110.696 1071.27,-112.324 1064.1,-104.522 1060.8,-110.696"/>
</g>
<!-- Node24&#45;&gt;Node5 -->
<g id="edge36" class="edge"><title>Node24&#45;&gt;Node5</title>
<path fill="none" stroke="midnightblue" d="M366.5,-213.805C366.5,-204.91 366.5,-194.78 366.5,-187.751"/>
<polygon fill="midnightblue" stroke="midnightblue" points="363,-214.083 366.5,-224.083 370,-214.083 363,-214.083"/>
</g>
<!-- Node24&#45;&gt;Node11 -->
<g id="edge37" class="edge"><title>Node24&#45;&gt;Node11</title>
<path fill="none" stroke="midnightblue" d="M333.801,-220.906C306.352,-210.754 267.832,-196.506 243.526,-187.516"/>
<polygon fill="midnightblue" stroke="midnightblue" points="332.773,-224.257 343.366,-224.444 335.201,-217.692 332.773,-224.257"/>
</g>
<!-- Node25 -->
<g id="node25" class="node"><title>Node25</title>
<g id="a_node25"><a xlink:href="__projectiles_8h.html" target="_top" xlink:title="src/Projectiles/_projectiles.h">
<polygon fill="white" stroke="black" points="447.5,-168.5 447.5,-187.5 587.5,-187.5 587.5,-168.5 447.5,-168.5"/>
<text text-anchor="middle" x="517.5" y="-175.5" font-family="Helvetica,sans-Serif" font-size="10.00">src/Projectiles/_projectiles.h</text>
</a>
</g>
</g>
<!-- Node24&#45;&gt;Node25 -->
<g id="edge38" class="edge"><title>Node24&#45;&gt;Node25</title>
<path fill="none" stroke="midnightblue" d="M399.946,-221.039C428.358,-210.879 468.437,-196.546 493.686,-187.516"/>
<polygon fill="midnightblue" stroke="midnightblue" points="398.664,-217.781 390.426,-224.444 401.021,-224.372 398.664,-217.781"/>
</g>
<!-- Node24&#45;&gt;Node26 -->
<g id="edge40" class="edge"><title>Node24&#45;&gt;Node26</title>
<path fill="none" stroke="midnightblue" d="M309.111,-222.601C252.793,-212.395 167.938,-197.019 115.498,-187.516"/>
<polygon fill="midnightblue" stroke="midnightblue" points="308.817,-226.104 319.281,-224.444 310.065,-219.217 308.817,-226.104"/>
</g>
<!-- Node25&#45;&gt;Node7 -->
<g id="edge39" class="edge"><title>Node25&#45;&gt;Node7</title>
<path fill="none" stroke="midnightblue" d="M518.576,-158.044C520.344,-143.746 524.897,-124.52 536.5,-112 598.011,-45.6253 707.517,-22.5785 765.685,-14.8006"/>
<polygon fill="midnightblue" stroke="midnightblue" points="515.07,-157.963 517.674,-168.233 522.042,-158.58 515.07,-157.963"/>
</g>
<!-- Node27&#45;&gt;Node9 -->
<g id="edge43" class="edge"><title>Node27&#45;&gt;Node9</title>
<path fill="none" stroke="midnightblue" d="M732.873,-220.232C755.32,-210.131 786.035,-196.309 805.575,-187.516"/>
<polygon fill="midnightblue" stroke="midnightblue" points="731.197,-217.148 723.514,-224.444 734.07,-223.532 731.197,-217.148"/>
</g>
<!-- Node27&#45;&gt;Node25 -->
<g id="edge44" class="edge"><title>Node27&#45;&gt;Node25</title>
<path fill="none" stroke="midnightblue" d="M664.91,-221.568C629.634,-211.381 578.806,-196.703 546.992,-187.516"/>
<polygon fill="midnightblue" stroke="midnightblue" points="664.291,-225.032 674.869,-224.444 666.233,-218.307 664.291,-225.032"/>
</g>
<!-- Node28 -->
<g id="node28" class="node"><title>Node28</title>
<g id="a_node28"><a xlink:href="_proj_piou_8cpp.html" target="_top" xlink:title="src/Projectiles/ProjPiou.cpp">
<polygon fill="white" stroke="black" points="606,-168.5 606,-187.5 743,-187.5 743,-168.5 606,-168.5"/>
<text text-anchor="middle" x="674.5" y="-175.5" font-family="Helvetica,sans-Serif" font-size="10.00">src/Projectiles/ProjPiou.cpp</text>
</a>
</g>
</g>
<!-- Node27&#45;&gt;Node28 -->
<g id="edge45" class="edge"><title>Node27&#45;&gt;Node28</title>
<path fill="none" stroke="midnightblue" d="M694.653,-215.275C689.525,-206.045 683.484,-195.17 679.362,-187.751"/>
<polygon fill="midnightblue" stroke="midnightblue" points="691.63,-217.041 699.546,-224.083 697.749,-213.642 691.63,-217.041"/>
</g>
</g>
</svg>
