<?xml version="1.0" encoding="UTF-8" standalone="no"?>
<!DOCTYPE svg PUBLIC "-//W3C//DTD SVG 1.1//EN"
 "http://www.w3.org/Graphics/SVG/1.1/DTD/svg11.dtd">
<!-- Generated by graphviz version 2.38.0 (20140413.2041)
 -->
<!-- Title: src/Capacites Pages: 1 -->
<svg width="163pt" height="151pt"
 viewBox="0.00 0.00 163.00 151.00" xmlns="http://www.w3.org/2000/svg" xmlns:xlink="http://www.w3.org/1999/xlink">
<g id="graph0" class="graph" transform="scale(1 1) rotate(0) translate(4 147)">
<title>src/Capacites</title>
<polygon fill="white" stroke="none" points="-4,4 -4,-147 159,-147 159,4 -4,4"/>
<g id="clust1" class="cluster"><title>clusterdir_68267d1309a1af8e8297ef4c3efbcdba</title>
<g id="a_clust1"><a xlink:href="dir_68267d1309a1af8e8297ef4c3efbcdba.html" target="_top" xlink:title="src">
<polygon fill="#ddddee" stroke="black" points="8,-64 8,-135 86,-135 86,-64 8,-64"/>
<text text-anchor="middle" x="47" y="-123" font-family="Helvetica,sans-Serif" font-size="10.00">src</text>
</a>
</g>
</g>
<!-- dir_e174451783f118721a576b728d4f0e04 -->
<g id="node1" class="node"><title>dir_e174451783f118721a576b728d4f0e04</title>
<g id="a_node1"><a xlink:href="dir_e174451783f118721a576b728d4f0e04.html" target="_top" xlink:title="Capacites">
<polygon fill="#eeeeff" stroke="black" points="77.5,-108 16.5,-108 16.5,-72 77.5,-72 77.5,-108"/>
<text text-anchor="middle" x="47" y="-87.5" font-family="Helvetica,sans-Serif" font-size="10.00">Capacites</text>
</a>
</g>
</g>
<!-- dir_8af96e67bfef43ea6cf541a302b9a579 -->
<g id="node2" class="node"><title>dir_8af96e67bfef43ea6cf541a302b9a579</title>
<g id="a_node2"><a xlink:href="dir_8af96e67bfef43ea6cf541a302b9a579.html" target="_top" xlink:title="Vaisseau">
<polygon fill="none" stroke="black" points="152.5,-108 95.5,-108 95.5,-72 152.5,-72 152.5,-108"/>
<text text-anchor="middle" x="124" y="-87.5" font-family="Helvetica,sans-Serif" font-size="10.00">Vaisseau</text>
</a>
</g>
</g>
<!-- dir_e174451783f118721a576b728d4f0e04&#45;&gt;dir_8af96e67bfef43ea6cf541a302b9a579 -->
<g id="edge5" class="edge"><title>dir_e174451783f118721a576b728d4f0e04&#45;&gt;dir_8af96e67bfef43ea6cf541a302b9a579</title>
<path fill="none" stroke="black" d="M77.6797,-90C80.1732,-90 82.6668,-90 85.1604,-90"/>
<polygon fill="black" stroke="black" points="85.4117,-93.5001 95.4117,-90 85.4116,-86.5001 85.4117,-93.5001"/>
<g id="a_edge5&#45;headlabel"><a xlink:href="dir_000001_000005.html" target="_top" xlink:title="1">
<text text-anchor="middle" x="81.8171" y="-93.8393" font-family="Helvetica,sans-Serif" font-size="10.00">1</text>
</a>
</g>
</g>
<!-- dir_fcac084c8285db543138d67b8fc65208 -->
<g id="node3" class="node"><title>dir_fcac084c8285db543138d67b8fc65208</title>
<g id="a_node3"><a xlink:href="dir_fcac084c8285db543138d67b8fc65208.html" target="_top" xlink:title="Projectiles">
<polygon fill="none" stroke="black" points="155,-36 93,-36 93,-0 155,-0 155,-36"/>
<text text-anchor="middle" x="124" y="-15.5" font-family="Helvetica,sans-Serif" font-size="10.00">Projectiles</text>
</a>
</g>
</g>
<!-- dir_e174451783f118721a576b728d4f0e04&#45;&gt;dir_fcac084c8285db543138d67b8fc65208 -->
<g id="edge6" class="edge"><title>dir_e174451783f118721a576b728d4f0e04&#45;&gt;dir_fcac084c8285db543138d67b8fc65208</title>
<path fill="none" stroke="black" d="M60.118,-71.6966C68.8216,-62.9655 80.4477,-52.2405 91.4447,-42.7503"/>
<polygon fill="black" stroke="black" points="93.9221,-45.2386 99.2902,-36.1043 89.3976,-39.8974 93.9221,-45.2386"/>
<g id="a_edge6&#45;headlabel"><a xlink:href="dir_000001_000003.html" target="_top" xlink:title="8">
<text text-anchor="middle" x="93.0146" y="-47.2284" font-family="Helvetica,sans-Serif" font-size="10.00">8</text>
</a>
</g>
</g>
<!-- dir_8af96e67bfef43ea6cf541a302b9a579&#45;&gt;dir_e174451783f118721a576b728d4f0e04 -->
<g id="edge2" class="edge"><title>dir_8af96e67bfef43ea6cf541a302b9a579&#45;&gt;dir_e174451783f118721a576b728d4f0e04</title>
<path fill="none" stroke="black" d="M95.4117,-90C92.9181,-90 90.4246,-90 87.931,-90"/>
<polygon fill="black" stroke="black" points="87.6797,-86.5001 77.6797,-90 87.6797,-93.5001 87.6797,-86.5001"/>
<g id="a_edge2&#45;headlabel"><a xlink:href="dir_000005_000001.html" target="_top" xlink:title="5">
<text text-anchor="middle" x="91.2743" y="-81.1607" font-family="Helvetica,sans-Serif" font-size="10.00">5</text>
</a>
</g>
</g>
<!-- dir_8af96e67bfef43ea6cf541a302b9a579&#45;&gt;dir_fcac084c8285db543138d67b8fc65208 -->
<g id="edge1" class="edge"><title>dir_8af96e67bfef43ea6cf541a302b9a579&#45;&gt;dir_fcac084c8285db543138d67b8fc65208</title>
<path fill="none" stroke="black" d="M118.084,-71.6966C117.289,-63.9827 117.062,-54.7125 117.405,-46.1124"/>
<polygon fill="black" stroke="black" points="120.898,-46.3243 118.105,-36.1043 113.915,-45.8356 120.898,-46.3243"/>
<g id="a_edge1&#45;headlabel"><a xlink:href="dir_000005_000003.html" target="_top" xlink:title="2">
<text text-anchor="middle" x="123.48" y="-47.6083" font-family="Helvetica,sans-Serif" font-size="10.00">2</text>
</a>
</g>
</g>
<!-- dir_fcac084c8285db543138d67b8fc65208&#45;&gt;dir_e174451783f118721a576b728d4f0e04 -->
<g id="edge4" class="edge"><title>dir_fcac084c8285db543138d67b8fc65208&#45;&gt;dir_e174451783f118721a576b728d4f0e04</title>
<path fill="none" stroke="black" d="M111.08,-36.1043C102.421,-44.8049 90.8129,-55.524 79.8066,-65.0328"/>
<polygon fill="black" stroke="black" points="77.312,-62.5591 71.9494,-71.6966 81.8398,-67.8977 77.312,-62.5591"/>
<g id="a_edge4&#45;headlabel"><a xlink:href="dir_000003_000001.html" target="_top" xlink:title="1">
<text text-anchor="middle" x="78.2169" y="-55.5688" font-family="Helvetica,sans-Serif" font-size="10.00">1</text>
</a>
</g>
</g>
<!-- dir_fcac084c8285db543138d67b8fc65208&#45;&gt;dir_8af96e67bfef43ea6cf541a302b9a579 -->
<g id="edge3" class="edge"><title>dir_fcac084c8285db543138d67b8fc65208&#45;&gt;dir_8af96e67bfef43ea6cf541a302b9a579</title>
<path fill="none" stroke="black" d="M129.895,-36.1043C130.701,-43.7913 130.937,-53.0537 130.604,-61.6651"/>
<polygon fill="black" stroke="black" points="127.109,-61.4805 129.916,-71.6966 134.092,-61.9597 127.109,-61.4805"/>
<g id="a_edge3&#45;headlabel"><a xlink:href="dir_000003_000005.html" target="_top" xlink:title="1">
<text text-anchor="middle" x="124.522" y="-55.2" font-family="Helvetica,sans-Serif" font-size="10.00">1</text>
</a>
</g>
</g>
</g>
</svg>
