<?xml version="1.0" encoding="UTF-8" standalone="no"?>
<!DOCTYPE svg PUBLIC "-//W3C//DTD SVG 1.1//EN"
 "http://www.w3.org/Graphics/SVG/1.1/DTD/svg11.dtd">
<!-- Generated by graphviz version 2.38.0 (20140413.2041)
 -->
<!-- Title: src/Projectiles Pages: 1 -->
<svg width="164pt" height="151pt"
 viewBox="0.00 0.00 163.50 151.00" xmlns="http://www.w3.org/2000/svg" xmlns:xlink="http://www.w3.org/1999/xlink">
<g id="graph0" class="graph" transform="scale(1 1) rotate(0) translate(4 147)">
<title>src/Projectiles</title>
<polygon fill="white" stroke="none" points="-4,4 -4,-147 159.5,-147 159.5,4 -4,4"/>
<g id="clust1" class="cluster"><title>clusterdir_68267d1309a1af8e8297ef4c3efbcdba</title>
<g id="a_clust1"><a xlink:href="dir_68267d1309a1af8e8297ef4c3efbcdba.html" target="_top" xlink:title="src">
<polygon fill="#ddddee" stroke="black" points="8,-64 8,-135 86,-135 86,-64 8,-64"/>
<text text-anchor="middle" x="47" y="-123" font-family="Helvetica,sans-Serif" font-size="10.00">src</text>
</a>
</g>
</g>
<!-- dir_fcac084c8285db543138d67b8fc65208 -->
<g id="node1" class="node"><title>dir_fcac084c8285db543138d67b8fc65208</title>
<g id="a_node1"><a xlink:href="dir_fcac084c8285db543138d67b8fc65208.html" target="_top" xlink:title="Projectiles">
<polygon fill="#eeeeff" stroke="black" points="78,-108 16,-108 16,-72 78,-72 78,-108"/>
<text text-anchor="middle" x="47" y="-87.5" font-family="Helvetica,sans-Serif" font-size="10.00">Projectiles</text>
</a>
</g>
</g>
<!-- dir_8af96e67bfef43ea6cf541a302b9a579 -->
<g id="node2" class="node"><title>dir_8af96e67bfef43ea6cf541a302b9a579</title>
<g id="a_node2"><a xlink:href="dir_8af96e67bfef43ea6cf541a302b9a579.html" target="_top" xlink:title="Vaisseau">
<polygon fill="none" stroke="black" points="153.5,-108 96.5,-108 96.5,-72 153.5,-72 153.5,-108"/>
<text text-anchor="middle" x="125" y="-87.5" font-family="Helvetica,sans-Serif" font-size="10.00">Vaisseau</text>
</a>
</g>
</g>
<!-- dir_fcac084c8285db543138d67b8fc65208&#45;&gt;dir_8af96e67bfef43ea6cf541a302b9a579 -->
<g id="edge3" class="edge"><title>dir_fcac084c8285db543138d67b8fc65208&#45;&gt;dir_8af96e67bfef43ea6cf541a302b9a579</title>
<path fill="none" stroke="black" d="M78.0781,-90C80.8465,-90 83.615,-90 86.3834,-90"/>
<polygon fill="black" stroke="black" points="86.407,-93.5001 96.407,-90 86.4069,-86.5001 86.407,-93.5001"/>
<g id="a_edge3&#45;headlabel"><a xlink:href="dir_000003_000005.html" target="_top" xlink:title="1">
<text text-anchor="middle" x="82.8124" y="-93.8393" font-family="Helvetica,sans-Serif" font-size="10.00">1</text>
</a>
</g>
</g>
<!-- dir_e174451783f118721a576b728d4f0e04 -->
<g id="node3" class="node"><title>dir_e174451783f118721a576b728d4f0e04</title>
<g id="a_node3"><a xlink:href="dir_e174451783f118721a576b728d4f0e04.html" target="_top" xlink:title="Capacites">
<polygon fill="none" stroke="black" points="155.5,-36 94.5,-36 94.5,-0 155.5,-0 155.5,-36"/>
<text text-anchor="middle" x="125" y="-15.5" font-family="Helvetica,sans-Serif" font-size="10.00">Capacites</text>
</a>
</g>
</g>
<!-- dir_fcac084c8285db543138d67b8fc65208&#45;&gt;dir_e174451783f118721a576b728d4f0e04 -->
<g id="edge4" class="edge"><title>dir_fcac084c8285db543138d67b8fc65208&#45;&gt;dir_e174451783f118721a576b728d4f0e04</title>
<path fill="none" stroke="black" d="M60.3652,-71.6966C69.1935,-62.9655 80.9728,-52.2405 92.1054,-42.7503"/>
<polygon fill="black" stroke="black" points="94.6238,-45.2066 100.046,-36.1043 90.1309,-39.8387 94.6238,-45.2066"/>
<g id="a_edge4&#45;headlabel"><a xlink:href="dir_000003_000001.html" target="_top" xlink:title="1">
<text text-anchor="middle" x="93.6896" y="-47.191" font-family="Helvetica,sans-Serif" font-size="10.00">1</text>
</a>
</g>
</g>
<!-- dir_8af96e67bfef43ea6cf541a302b9a579&#45;&gt;dir_fcac084c8285db543138d67b8fc65208 -->
<g id="edge1" class="edge"><title>dir_8af96e67bfef43ea6cf541a302b9a579&#45;&gt;dir_fcac084c8285db543138d67b8fc65208</title>
<path fill="none" stroke="black" d="M96.407,-90C93.6386,-90 90.8701,-90 88.1017,-90"/>
<polygon fill="black" stroke="black" points="88.0782,-86.5001 78.0781,-90 88.0781,-93.5001 88.0782,-86.5001"/>
<g id="a_edge1&#45;headlabel"><a xlink:href="dir_000005_000003.html" target="_top" xlink:title="2">
<text text-anchor="middle" x="91.6727" y="-81.1607" font-family="Helvetica,sans-Serif" font-size="10.00">2</text>
</a>
</g>
</g>
<!-- dir_8af96e67bfef43ea6cf541a302b9a579&#45;&gt;dir_e174451783f118721a576b728d4f0e04 -->
<g id="edge2" class="edge"><title>dir_8af96e67bfef43ea6cf541a302b9a579&#45;&gt;dir_e174451783f118721a576b728d4f0e04</title>
<path fill="none" stroke="black" d="M119.084,-71.6966C118.289,-63.9827 118.062,-54.7125 118.405,-46.1124"/>
<polygon fill="black" stroke="black" points="121.898,-46.3243 119.105,-36.1043 114.915,-45.8356 121.898,-46.3243"/>
<g id="a_edge2&#45;headlabel"><a xlink:href="dir_000005_000001.html" target="_top" xlink:title="3">
<text text-anchor="middle" x="124.48" y="-47.6083" font-family="Helvetica,sans-Serif" font-size="10.00">3</text>
</a>
</g>
</g>
<!-- dir_e174451783f118721a576b728d4f0e04&#45;&gt;dir_fcac084c8285db543138d67b8fc65208 -->
<g id="edge6" class="edge"><title>dir_e174451783f118721a576b728d4f0e04&#45;&gt;dir_fcac084c8285db543138d67b8fc65208</title>
<path fill="none" stroke="black" d="M111.836,-36.1043C103.053,-44.8049 91.2912,-55.524 80.149,-65.0328"/>
<polygon fill="black" stroke="black" points="77.6134,-62.5911 72.1966,-71.6966 82.1093,-67.9564 77.6134,-62.5911"/>
<g id="a_edge6&#45;headlabel"><a xlink:href="dir_000001_000003.html" target="_top" xlink:title="7">
<text text-anchor="middle" x="78.5449" y="-55.6062" font-family="Helvetica,sans-Serif" font-size="10.00">7</text>
</a>
</g>
</g>
<!-- dir_e174451783f118721a576b728d4f0e04&#45;&gt;dir_8af96e67bfef43ea6cf541a302b9a579 -->
<g id="edge5" class="edge"><title>dir_e174451783f118721a576b728d4f0e04&#45;&gt;dir_8af96e67bfef43ea6cf541a302b9a579</title>
<path fill="none" stroke="black" d="M130.895,-36.1043C131.701,-43.7913 131.937,-53.0537 131.604,-61.6651"/>
<polygon fill="black" stroke="black" points="128.109,-61.4805 130.916,-71.6966 135.092,-61.9597 128.109,-61.4805"/>
<g id="a_edge5&#45;headlabel"><a xlink:href="dir_000001_000005.html" target="_top" xlink:title="1">
<text text-anchor="middle" x="125.522" y="-55.2" font-family="Helvetica,sans-Serif" font-size="10.00">1</text>
</a>
</g>
</g>
</g>
</svg>
