<?xml version="1.0" encoding="UTF-8" standalone="no"?>
<!DOCTYPE svg PUBLIC "-//W3C//DTD SVG 1.1//EN"
 "http://www.w3.org/Graphics/SVG/1.1/DTD/svg11.dtd">
<!-- Generated by graphviz version 2.38.0 (20140413.2041)
 -->
<!-- Title: src Pages: 1 -->
<svg width="272pt" height="220pt"
 viewBox="0.00 0.00 272.00 220.00" xmlns="http://www.w3.org/2000/svg" xmlns:xlink="http://www.w3.org/1999/xlink">
<g id="graph0" class="graph" transform="scale(1 1) rotate(0) translate(4 216)">
<title>src</title>
<polygon fill="white" stroke="none" points="-4,4 -4,-216 268,-216 268,4 -4,4"/>
<g id="clust1" class="cluster"><title>clusterdir_68267d1309a1af8e8297ef4c3efbcdba</title>
<g id="a_clust1"><a xlink:href="dir_68267d1309a1af8e8297ef4c3efbcdba.html" target="_top">
<polygon fill="#eeeeff" stroke="black" points="8,-8 8,-204 256,-204 256,-8 8,-8"/>
</a>
</g>
</g>
<!-- dir_68267d1309a1af8e8297ef4c3efbcdba -->
<g id="node1" class="node"><title>dir_68267d1309a1af8e8297ef4c3efbcdba</title>
<text text-anchor="middle" x="195" y="-175.5" font-family="Helvetica,sans-Serif" font-size="10.00">src</text>
</g>
<!-- dir_bba04cfeda2ebb06ea600493f2bb1319 -->
<g id="node3" class="node"><title>dir_bba04cfeda2ebb06ea600493f2bb1319</title>
<g id="a_node3"><a xlink:href="dir_bba04cfeda2ebb06ea600493f2bb1319.html" target="_top" xlink:title="Interface">
<polygon fill="white" stroke="black" points="171.5,-124 116.5,-124 116.5,-88 171.5,-88 171.5,-124"/>
<text text-anchor="middle" x="144" y="-103.5" font-family="Helvetica,sans-Serif" font-size="10.00">Interface</text>
</a>
</g>
</g>
<!-- dir_68267d1309a1af8e8297ef4c3efbcdba&#45;&gt;dir_bba04cfeda2ebb06ea600493f2bb1319 -->
<g id="edge8" class="edge"><title>dir_68267d1309a1af8e8297ef4c3efbcdba&#45;&gt;dir_bba04cfeda2ebb06ea600493f2bb1319</title>
<path fill="none" stroke="black" d="M182.393,-159.697C176.403,-151.474 169.124,-141.483 162.521,-132.421"/>
<polygon fill="black" stroke="black" points="165.179,-130.126 156.462,-124.104 159.522,-134.248 165.179,-130.126"/>
<g id="a_edge8&#45;headlabel"><a xlink:href="dir_000000_000002.html" target="_top" xlink:title="4">
<text text-anchor="middle" x="169.591" y="-128.859" font-family="Helvetica,sans-Serif" font-size="10.00">4</text>
</a>
</g>
</g>
<!-- dir_7bcc001f3717f1c94ddcda8dc570557c -->
<g id="node5" class="node"><title>dir_7bcc001f3717f1c94ddcda8dc570557c</title>
<g id="a_node5"><a xlink:href="dir_7bcc001f3717f1c94ddcda8dc570557c.html" target="_top" xlink:title="Utilitaires">
<polygon fill="white" stroke="black" points="248,-124 190,-124 190,-88 248,-88 248,-124"/>
<text text-anchor="middle" x="219" y="-103.5" font-family="Helvetica,sans-Serif" font-size="10.00">Utilitaires</text>
</a>
</g>
</g>
<!-- dir_68267d1309a1af8e8297ef4c3efbcdba&#45;&gt;dir_7bcc001f3717f1c94ddcda8dc570557c -->
<g id="edge7" class="edge"><title>dir_68267d1309a1af8e8297ef4c3efbcdba&#45;&gt;dir_7bcc001f3717f1c94ddcda8dc570557c</title>
<path fill="none" stroke="black" d="M200.933,-159.697C203.606,-151.898 206.826,-142.509 209.801,-133.829"/>
<polygon fill="black" stroke="black" points="213.203,-134.699 213.136,-124.104 206.582,-132.429 213.203,-134.699"/>
<g id="a_edge7&#45;headlabel"><a xlink:href="dir_000000_000004.html" target="_top" xlink:title="6">
<text text-anchor="middle" x="214.723" y="-136.52" font-family="Helvetica,sans-Serif" font-size="10.00">6</text>
</a>
</g>
</g>
<!-- dir_e174451783f118721a576b728d4f0e04 -->
<g id="node2" class="node"><title>dir_e174451783f118721a576b728d4f0e04</title>
<g id="a_node2"><a xlink:href="dir_e174451783f118721a576b728d4f0e04.html" target="_top" xlink:title="Capacites">
<polygon fill="white" stroke="black" points="77.5,-124 16.5,-124 16.5,-88 77.5,-88 77.5,-124"/>
<text text-anchor="middle" x="47" y="-103.5" font-family="Helvetica,sans-Serif" font-size="10.00">Capacites</text>
</a>
</g>
</g>
<!-- dir_fcac084c8285db543138d67b8fc65208 -->
<g id="node4" class="node"><title>dir_fcac084c8285db543138d67b8fc65208</title>
<g id="a_node4"><a xlink:href="dir_fcac084c8285db543138d67b8fc65208.html" target="_top" xlink:title="Projectiles">
<polygon fill="white" stroke="black" points="103,-52 41,-52 41,-16 103,-16 103,-52"/>
<text text-anchor="middle" x="72" y="-31.5" font-family="Helvetica,sans-Serif" font-size="10.00">Projectiles</text>
</a>
</g>
</g>
<!-- dir_e174451783f118721a576b728d4f0e04&#45;&gt;dir_fcac084c8285db543138d67b8fc65208 -->
<g id="edge10" class="edge"><title>dir_e174451783f118721a576b728d4f0e04&#45;&gt;dir_fcac084c8285db543138d67b8fc65208</title>
<path fill="none" stroke="black" d="M47.2641,-87.6966C49.2664,-79.8132 52.4437,-70.3042 55.9473,-61.5464"/>
<polygon fill="black" stroke="black" points="59.2718,-62.6744 59.9963,-52.1043 52.8383,-59.9155 59.2718,-62.6744"/>
<g id="a_edge10&#45;headlabel"><a xlink:href="dir_000001_000003.html" target="_top" xlink:title="8">
<text text-anchor="middle" x="60.4646" y="-64.597" font-family="Helvetica,sans-Serif" font-size="10.00">8</text>
</a>
</g>
</g>
<!-- dir_8af96e67bfef43ea6cf541a302b9a579 -->
<g id="node6" class="node"><title>dir_8af96e67bfef43ea6cf541a302b9a579</title>
<g id="a_node6"><a xlink:href="dir_8af96e67bfef43ea6cf541a302b9a579.html" target="_top" xlink:title="Vaisseau">
<polygon fill="white" stroke="black" points="125.5,-196 68.5,-196 68.5,-160 125.5,-160 125.5,-196"/>
<text text-anchor="middle" x="97" y="-175.5" font-family="Helvetica,sans-Serif" font-size="10.00">Vaisseau</text>
</a>
</g>
</g>
<!-- dir_e174451783f118721a576b728d4f0e04&#45;&gt;dir_8af96e67bfef43ea6cf541a302b9a579 -->
<g id="edge9" class="edge"><title>dir_e174451783f118721a576b728d4f0e04&#45;&gt;dir_8af96e67bfef43ea6cf541a302b9a579</title>
<path fill="none" stroke="black" d="M65.1124,-124.104C71.7545,-132.214 79.0156,-142.076 85.0285,-151.078"/>
<polygon fill="black" stroke="black" points="82.2112,-153.169 90.5562,-159.697 88.1034,-149.39 82.2112,-153.169"/>
<g id="a_edge9&#45;headlabel"><a xlink:href="dir_000001_000005.html" target="_top" xlink:title="1">
<text text-anchor="middle" x="77.8807" y="-149.176" font-family="Helvetica,sans-Serif" font-size="10.00">1</text>
</a>
</g>
</g>
<!-- dir_fcac084c8285db543138d67b8fc65208&#45;&gt;dir_e174451783f118721a576b728d4f0e04 -->
<g id="edge6" class="edge"><title>dir_fcac084c8285db543138d67b8fc65208&#45;&gt;dir_e174451783f118721a576b728d4f0e04</title>
<path fill="none" stroke="black" d="M71.7863,-52.1043C69.8039,-59.9602 66.6393,-69.4616 63.1413,-78.232"/>
<polygon fill="black" stroke="black" points="59.8078,-77.1258 59.0955,-87.6966 66.2444,-79.8772 59.8078,-77.1258"/>
<g id="a_edge6&#45;headlabel"><a xlink:href="dir_000003_000001.html" target="_top" xlink:title="1">
<text text-anchor="middle" x="58.6099" y="-70.2045" font-family="Helvetica,sans-Serif" font-size="10.00">1</text>
</a>
</g>
</g>
<!-- dir_fcac084c8285db543138d67b8fc65208&#45;&gt;dir_8af96e67bfef43ea6cf541a302b9a579 -->
<g id="edge5" class="edge"><title>dir_fcac084c8285db543138d67b8fc65208&#45;&gt;dir_8af96e67bfef43ea6cf541a302b9a579</title>
<path fill="none" stroke="black" d="M84.9539,-52.0504C89.0824,-62.3745 92.656,-75.852 95,-88 98.9572,-108.508 101.788,-131.964 102.291,-149.645"/>
<polygon fill="black" stroke="black" points="98.7904,-149.831 102.292,-159.83 105.79,-149.83 98.7904,-149.831"/>
<g id="a_edge5&#45;headlabel"><a xlink:href="dir_000003_000005.html" target="_top" xlink:title="1">
<text text-anchor="middle" x="95.9507" y="-143.737" font-family="Helvetica,sans-Serif" font-size="10.00">1</text>
</a>
</g>
</g>
<!-- dir_8af96e67bfef43ea6cf541a302b9a579&#45;&gt;dir_e174451783f118721a576b728d4f0e04 -->
<g id="edge3" class="edge"><title>dir_8af96e67bfef43ea6cf541a302b9a579&#45;&gt;dir_e174451783f118721a576b728d4f0e04</title>
<path fill="none" stroke="black" d="M78.7247,-159.697C72.0726,-151.559 64.8168,-141.689 58.8244,-132.701"/>
<polygon fill="black" stroke="black" points="61.6609,-130.64 53.3223,-124.104 55.765,-134.414 61.6609,-130.64"/>
<g id="a_edge3&#45;headlabel"><a xlink:href="dir_000005_000001.html" target="_top" xlink:title="5">
<text text-anchor="middle" x="65.99" y="-129.637" font-family="Helvetica,sans-Serif" font-size="10.00">5</text>
</a>
</g>
</g>
<!-- dir_8af96e67bfef43ea6cf541a302b9a579&#45;&gt;dir_bba04cfeda2ebb06ea600493f2bb1319 -->
<g id="edge4" class="edge"><title>dir_8af96e67bfef43ea6cf541a302b9a579&#45;&gt;dir_bba04cfeda2ebb06ea600493f2bb1319</title>
<path fill="none" stroke="black" d="M108.618,-159.697C114.139,-151.474 120.847,-141.483 126.932,-132.421"/>
<polygon fill="black" stroke="black" points="129.847,-134.358 132.516,-124.104 124.035,-130.456 129.847,-134.358"/>
<g id="a_edge4&#45;headlabel"><a xlink:href="dir_000005_000002.html" target="_top" xlink:title="1">
<text text-anchor="middle" x="130.201" y="-136.425" font-family="Helvetica,sans-Serif" font-size="10.00">1</text>
</a>
</g>
</g>
<!-- dir_8af96e67bfef43ea6cf541a302b9a579&#45;&gt;dir_fcac084c8285db543138d67b8fc65208 -->
<g id="edge2" class="edge"><title>dir_8af96e67bfef43ea6cf541a302b9a579&#45;&gt;dir_fcac084c8285db543138d67b8fc65208</title>
<path fill="none" stroke="black" d="M88.8534,-159.83C84.9142,-141.827 81.7785,-112.765 77,-88 75.3519,-79.4584 73.0958,-70.2596 71.2858,-61.9618"/>
<polygon fill="black" stroke="black" points="74.6977,-61.1737 69.311,-52.0504 67.8326,-62.5416 74.6977,-61.1737"/>
<g id="a_edge2&#45;headlabel"><a xlink:href="dir_000005_000003.html" target="_top" xlink:title="2">
<text text-anchor="middle" x="78.1846" y="-61.6442" font-family="Helvetica,sans-Serif" font-size="10.00">2</text>
</a>
</g>
</g>
<!-- dir_8af96e67bfef43ea6cf541a302b9a579&#45;&gt;dir_7bcc001f3717f1c94ddcda8dc570557c -->
<g id="edge1" class="edge"><title>dir_8af96e67bfef43ea6cf541a302b9a579&#45;&gt;dir_7bcc001f3717f1c94ddcda8dc570557c</title>
<path fill="none" stroke="black" d="M125.604,-160.588C142.037,-151.159 162.888,-139.195 180.719,-128.965"/>
<polygon fill="black" stroke="black" points="182.796,-131.808 189.728,-123.795 179.313,-125.736 182.796,-131.808"/>
<g id="a_edge1&#45;headlabel"><a xlink:href="dir_000005_000004.html" target="_top" xlink:title="3">
<text text-anchor="middle" x="181.092" y="-133.559" font-family="Helvetica,sans-Serif" font-size="10.00">3</text>
</a>
</g>
</g>
</g>
</svg>
