<?xml version="1.0" encoding="UTF-8" standalone="no"?>
<!DOCTYPE svg PUBLIC "-//W3C//DTD SVG 1.1//EN"
 "http://www.w3.org/Graphics/SVG/1.1/DTD/svg11.dtd">
<!-- Generated by graphviz version 2.38.0 (20140413.2041)
 -->
<!-- Title: src Pages: 1 -->
<svg width="272pt" height="220pt"
 viewBox="0.00 0.00 272.00 220.00" xmlns="http://www.w3.org/2000/svg" xmlns:xlink="http://www.w3.org/1999/xlink">
<g id="graph0" class="graph" transform="scale(1 1) rotate(0) translate(4 216)">
<title>src</title>
<polygon fill="white" stroke="none" points="-4,4 -4,-216 268,-216 268,4 -4,4"/>
<g id="clust1" class="cluster"><title>clusterdir_68267d1309a1af8e8297ef4c3efbcdba</title>
<g id="a_clust1"><a xlink:href="dir_68267d1309a1af8e8297ef4c3efbcdba.html" target="_top">
<polygon fill="#eeeeff" stroke="black" points="8,-8 8,-204 256,-204 256,-8 8,-8"/>
</a>
</g>
</g>
<!-- dir_68267d1309a1af8e8297ef4c3efbcdba -->
<g id="node1" class="node"><title>dir_68267d1309a1af8e8297ef4c3efbcdba</title>
<text text-anchor="middle" x="181" y="-175.5" font-family="Helvetica,sans-Serif" font-size="10.00">src</text>
</g>
<!-- dir_bba04cfeda2ebb06ea600493f2bb1319 -->
<g id="node3" class="node"><title>dir_bba04cfeda2ebb06ea600493f2bb1319</title>
<g id="a_node3"><a xlink:href="dir_bba04cfeda2ebb06ea600493f2bb1319.html" target="_top" xlink:title="Interface">
<polygon fill="white" stroke="black" points="171.5,-124 116.5,-124 116.5,-88 171.5,-88 171.5,-124"/>
<text text-anchor="middle" x="144" y="-103.5" font-family="Helvetica,sans-Serif" font-size="10.00">Interface</text>
</a>
</g>
</g>
<!-- dir_68267d1309a1af8e8297ef4c3efbcdba&#45;&gt;dir_bba04cfeda2ebb06ea600493f2bb1319 -->
<g id="edge6" class="edge"><title>dir_68267d1309a1af8e8297ef4c3efbcdba&#45;&gt;dir_bba04cfeda2ebb06ea600493f2bb1319</title>
<path fill="none" stroke="black" d="M171.854,-159.697C167.597,-151.644 162.444,-141.894 157.734,-132.982"/>
<polygon fill="black" stroke="black" points="160.808,-131.31 153.041,-124.104 154.62,-134.581 160.808,-131.31"/>
<g id="a_edge6&#45;headlabel"><a xlink:href="dir_000000_000002.html" target="_top" xlink:title="1">
<text text-anchor="middle" x="164.998" y="-130.661" font-family="Helvetica,sans-Serif" font-size="10.00">1</text>
</a>
</g>
</g>
<!-- dir_7bcc001f3717f1c94ddcda8dc570557c -->
<g id="node5" class="node"><title>dir_7bcc001f3717f1c94ddcda8dc570557c</title>
<g id="a_node5"><a xlink:href="dir_7bcc001f3717f1c94ddcda8dc570557c.html" target="_top" xlink:title="Utilitaires">
<polygon fill="white" stroke="black" points="248,-124 190,-124 190,-88 248,-88 248,-124"/>
<text text-anchor="middle" x="219" y="-103.5" font-family="Helvetica,sans-Serif" font-size="10.00">Utilitaires</text>
</a>
</g>
</g>
<!-- dir_68267d1309a1af8e8297ef4c3efbcdba&#45;&gt;dir_7bcc001f3717f1c94ddcda8dc570557c -->
<g id="edge5" class="edge"><title>dir_68267d1309a1af8e8297ef4c3efbcdba&#45;&gt;dir_7bcc001f3717f1c94ddcda8dc570557c</title>
<path fill="none" stroke="black" d="M190.393,-159.697C194.765,-151.644 200.057,-141.894 204.895,-132.982"/>
<polygon fill="black" stroke="black" points="208.02,-134.563 209.715,-124.104 201.868,-131.223 208.02,-134.563"/>
<g id="a_edge5&#45;headlabel"><a xlink:href="dir_000000_000004.html" target="_top" xlink:title="2">
<text text-anchor="middle" x="208.8" y="-136.576" font-family="Helvetica,sans-Serif" font-size="10.00">2</text>
</a>
</g>
</g>
<!-- dir_e174451783f118721a576b728d4f0e04 -->
<g id="node2" class="node"><title>dir_e174451783f118721a576b728d4f0e04</title>
<g id="a_node2"><a xlink:href="dir_e174451783f118721a576b728d4f0e04.html" target="_top" xlink:title="Capacites">
<polygon fill="white" stroke="black" points="102.5,-196 41.5,-196 41.5,-160 102.5,-160 102.5,-196"/>
<text text-anchor="middle" x="72" y="-175.5" font-family="Helvetica,sans-Serif" font-size="10.00">Capacites</text>
</a>
</g>
</g>
<!-- dir_fcac084c8285db543138d67b8fc65208 -->
<g id="node4" class="node"><title>dir_fcac084c8285db543138d67b8fc65208</title>
<g id="a_node4"><a xlink:href="dir_fcac084c8285db543138d67b8fc65208.html" target="_top" xlink:title="Projectiles">
<polygon fill="white" stroke="black" points="78,-124 16,-124 16,-88 78,-88 78,-124"/>
<text text-anchor="middle" x="47" y="-103.5" font-family="Helvetica,sans-Serif" font-size="10.00">Projectiles</text>
</a>
</g>
</g>
<!-- dir_e174451783f118721a576b728d4f0e04&#45;&gt;dir_fcac084c8285db543138d67b8fc65208 -->
<g id="edge8" class="edge"><title>dir_e174451783f118721a576b728d4f0e04&#45;&gt;dir_fcac084c8285db543138d67b8fc65208</title>
<path fill="none" stroke="black" d="M59.9045,-159.697C56.3148,-151.898 52.7388,-142.509 49.9981,-133.829"/>
<polygon fill="black" stroke="black" points="53.3311,-132.755 47.2137,-124.104 46.6015,-134.681 53.3311,-132.755"/>
<g id="a_edge8&#45;headlabel"><a xlink:href="dir_000001_000003.html" target="_top" xlink:title="7">
<text text-anchor="middle" x="57.0501" y="-132.929" font-family="Helvetica,sans-Serif" font-size="10.00">7</text>
</a>
</g>
</g>
<!-- dir_8af96e67bfef43ea6cf541a302b9a579 -->
<g id="node6" class="node"><title>dir_8af96e67bfef43ea6cf541a302b9a579</title>
<g id="a_node6"><a xlink:href="dir_8af96e67bfef43ea6cf541a302b9a579.html" target="_top" xlink:title="Vaisseau">
<polygon fill="white" stroke="black" points="100.5,-52 43.5,-52 43.5,-16 100.5,-16 100.5,-52"/>
<text text-anchor="middle" x="72" y="-31.5" font-family="Helvetica,sans-Serif" font-size="10.00">Vaisseau</text>
</a>
</g>
</g>
<!-- dir_e174451783f118721a576b728d4f0e04&#45;&gt;dir_8af96e67bfef43ea6cf541a302b9a579 -->
<g id="edge7" class="edge"><title>dir_e174451783f118721a576b728d4f0e04&#45;&gt;dir_8af96e67bfef43ea6cf541a302b9a579</title>
<path fill="none" stroke="black" d="M70.363,-159.593C72.5674,-149.374 76.3174,-136.124 78,-124 80.1995,-108.152 80.1995,-103.848 78,-88 76.8169,-79.4752 74.6117,-70.3938 72.6404,-62.2008"/>
<polygon fill="black" stroke="black" points="76.037,-61.3543 70.363,-52.4069 69.2189,-62.9397 76.037,-61.3543"/>
<g id="a_edge7&#45;headlabel"><a xlink:href="dir_000001_000005.html" target="_top" xlink:title="1">
<text text-anchor="middle" x="79.6166" y="-61.7124" font-family="Helvetica,sans-Serif" font-size="10.00">1</text>
</a>
</g>
</g>
<!-- dir_fcac084c8285db543138d67b8fc65208&#45;&gt;dir_e174451783f118721a576b728d4f0e04 -->
<g id="edge4" class="edge"><title>dir_fcac084c8285db543138d67b8fc65208&#45;&gt;dir_e174451783f118721a576b728d4f0e04</title>
<path fill="none" stroke="black" d="M59.0037,-124.104C62.5936,-131.876 66.1768,-141.257 68.9317,-149.949"/>
<polygon fill="black" stroke="black" points="65.6076,-151.054 71.7359,-159.697 72.3348,-149.119 65.6076,-151.054"/>
<g id="a_edge4&#45;headlabel"><a xlink:href="dir_000003_000001.html" target="_top" xlink:title="1">
<text text-anchor="middle" x="61.8853" y="-145.884" font-family="Helvetica,sans-Serif" font-size="10.00">1</text>
</a>
</g>
</g>
<!-- dir_fcac084c8285db543138d67b8fc65208&#45;&gt;dir_8af96e67bfef43ea6cf541a302b9a579 -->
<g id="edge3" class="edge"><title>dir_fcac084c8285db543138d67b8fc65208&#45;&gt;dir_8af96e67bfef43ea6cf541a302b9a579</title>
<path fill="none" stroke="black" d="M47.2641,-87.6966C49.2664,-79.8132 52.4437,-70.3042 55.9473,-61.5464"/>
<polygon fill="black" stroke="black" points="59.2718,-62.6744 59.9963,-52.1043 52.8383,-59.9155 59.2718,-62.6744"/>
<g id="a_edge3&#45;headlabel"><a xlink:href="dir_000003_000005.html" target="_top" xlink:title="1">
<text text-anchor="middle" x="60.4646" y="-64.597" font-family="Helvetica,sans-Serif" font-size="10.00">1</text>
</a>
</g>
</g>
<!-- dir_8af96e67bfef43ea6cf541a302b9a579&#45;&gt;dir_e174451783f118721a576b728d4f0e04 -->
<g id="edge2" class="edge"><title>dir_8af96e67bfef43ea6cf541a302b9a579&#45;&gt;dir_e174451783f118721a576b728d4f0e04</title>
<path fill="none" stroke="black" d="M86.113,-52.4069C90.5674,-62.6258 94.3174,-75.8758 96,-88 98.1995,-103.848 98.1995,-108.152 96,-124 94.8037,-132.62 92.5626,-141.808 89.7663,-150.072"/>
<polygon fill="black" stroke="black" points="86.4277,-149.003 86.113,-159.593 92.9631,-151.511 86.4277,-149.003"/>
<g id="a_edge2&#45;headlabel"><a xlink:href="dir_000005_000001.html" target="_top" xlink:title="3">
<text text-anchor="middle" x="85.0645" y="-142.13" font-family="Helvetica,sans-Serif" font-size="10.00">3</text>
</a>
</g>
</g>
<!-- dir_8af96e67bfef43ea6cf541a302b9a579&#45;&gt;dir_fcac084c8285db543138d67b8fc65208 -->
<g id="edge1" class="edge"><title>dir_8af96e67bfef43ea6cf541a302b9a579&#45;&gt;dir_fcac084c8285db543138d67b8fc65208</title>
<path fill="none" stroke="black" d="M71.7863,-52.1043C69.8039,-59.9602 66.6393,-69.4616 63.1413,-78.232"/>
<polygon fill="black" stroke="black" points="59.8078,-77.1258 59.0955,-87.6966 66.2444,-79.8772 59.8078,-77.1258"/>
<g id="a_edge1&#45;headlabel"><a xlink:href="dir_000005_000003.html" target="_top" xlink:title="2">
<text text-anchor="middle" x="58.6099" y="-70.2045" font-family="Helvetica,sans-Serif" font-size="10.00">2</text>
</a>
</g>
</g>
</g>
</svg>
