<?xml version="1.0" encoding="UTF-8" standalone="no"?>
<!DOCTYPE svg PUBLIC "-//W3C//DTD SVG 1.1//EN"
 "http://www.w3.org/Graphics/SVG/1.1/DTD/svg11.dtd">
<!-- Generated by graphviz version 2.38.0 (20140413.2041)
 -->
<!-- Title: src/Vaisseau Pages: 1 -->
<svg width="220pt" height="151pt"
 viewBox="0.00 0.00 220.00 151.00" xmlns="http://www.w3.org/2000/svg" xmlns:xlink="http://www.w3.org/1999/xlink">
<g id="graph0" class="graph" transform="scale(1 1) rotate(0) translate(4 147)">
<title>src/Vaisseau</title>
<polygon fill="white" stroke="none" points="-4,4 -4,-147 216,-147 216,4 -4,4"/>
<g id="clust1" class="cluster"><title>clusterdir_68267d1309a1af8e8297ef4c3efbcdba</title>
<g id="a_clust1"><a xlink:href="dir_68267d1309a1af8e8297ef4c3efbcdba.html" target="_top" xlink:title="src">
<polygon fill="#ddddee" stroke="black" points="66,-64 66,-135 140,-135 140,-64 66,-64"/>
<text text-anchor="middle" x="103" y="-123" font-family="Helvetica,sans-Serif" font-size="10.00">src</text>
</a>
</g>
</g>
<!-- dir_8af96e67bfef43ea6cf541a302b9a579 -->
<g id="node1" class="node"><title>dir_8af96e67bfef43ea6cf541a302b9a579</title>
<g id="a_node1"><a xlink:href="dir_8af96e67bfef43ea6cf541a302b9a579.html" target="_top" xlink:title="Vaisseau">
<polygon fill="#eeeeff" stroke="black" points="131.5,-108 74.5,-108 74.5,-72 131.5,-72 131.5,-108"/>
<text text-anchor="middle" x="103" y="-87.5" font-family="Helvetica,sans-Serif" font-size="10.00">Vaisseau</text>
</a>
</g>
</g>
<!-- dir_7bcc001f3717f1c94ddcda8dc570557c -->
<g id="node2" class="node"><title>dir_7bcc001f3717f1c94ddcda8dc570557c</title>
<g id="a_node2"><a xlink:href="dir_7bcc001f3717f1c94ddcda8dc570557c.html" target="_top" xlink:title="Utilitaires">
<polygon fill="none" stroke="black" points="58,-36 3.55271e-15,-36 3.55271e-15,-0 58,-0 58,-36"/>
<text text-anchor="middle" x="29" y="-15.5" font-family="Helvetica,sans-Serif" font-size="10.00">Utilitaires</text>
</a>
</g>
</g>
<!-- dir_8af96e67bfef43ea6cf541a302b9a579&#45;&gt;dir_7bcc001f3717f1c94ddcda8dc570557c -->
<g id="edge1" class="edge"><title>dir_8af96e67bfef43ea6cf541a302b9a579&#45;&gt;dir_7bcc001f3717f1c94ddcda8dc570557c</title>
<path fill="none" stroke="black" d="M84.7079,-71.6966C75.5674,-63.0503 64.3599,-52.4486 54.4,-43.027"/>
<polygon fill="black" stroke="black" points="56.7516,-40.4337 47.0817,-36.1043 51.9412,-45.519 56.7516,-40.4337"/>
<g id="a_edge1&#45;headlabel"><a xlink:href="dir_000005_000004.html" target="_top" xlink:title="3">
<text text-anchor="middle" x="61.3141" y="-38.3413" font-family="Helvetica,sans-Serif" font-size="10.00">3</text>
</a>
</g>
</g>
<!-- dir_fcac084c8285db543138d67b8fc65208 -->
<g id="node3" class="node"><title>dir_fcac084c8285db543138d67b8fc65208</title>
<g id="a_node3"><a xlink:href="dir_fcac084c8285db543138d67b8fc65208.html" target="_top" xlink:title="Projectiles">
<polygon fill="none" stroke="black" points="212,-108 150,-108 150,-72 212,-72 212,-108"/>
<text text-anchor="middle" x="181" y="-87.5" font-family="Helvetica,sans-Serif" font-size="10.00">Projectiles</text>
</a>
</g>
</g>
<!-- dir_8af96e67bfef43ea6cf541a302b9a579&#45;&gt;dir_fcac084c8285db543138d67b8fc65208 -->
<g id="edge2" class="edge"><title>dir_8af96e67bfef43ea6cf541a302b9a579&#45;&gt;dir_fcac084c8285db543138d67b8fc65208</title>
<path fill="none" stroke="black" d="M131.641,-90C134.284,-90 136.927,-90 139.57,-90"/>
<polygon fill="black" stroke="black" points="139.765,-93.5001 149.765,-90 139.765,-86.5001 139.765,-93.5001"/>
<g id="a_edge2&#45;headlabel"><a xlink:href="dir_000005_000003.html" target="_top" xlink:title="2">
<text text-anchor="middle" x="136.17" y="-93.8393" font-family="Helvetica,sans-Serif" font-size="10.00">2</text>
</a>
</g>
</g>
<!-- dir_e174451783f118721a576b728d4f0e04 -->
<g id="node4" class="node"><title>dir_e174451783f118721a576b728d4f0e04</title>
<g id="a_node4"><a xlink:href="dir_e174451783f118721a576b728d4f0e04.html" target="_top" xlink:title="Capacites">
<polygon fill="none" stroke="black" points="211.5,-36 150.5,-36 150.5,-0 211.5,-0 211.5,-36"/>
<text text-anchor="middle" x="181" y="-15.5" font-family="Helvetica,sans-Serif" font-size="10.00">Capacites</text>
</a>
</g>
</g>
<!-- dir_8af96e67bfef43ea6cf541a302b9a579&#45;&gt;dir_e174451783f118721a576b728d4f0e04 -->
<g id="edge3" class="edge"><title>dir_8af96e67bfef43ea6cf541a302b9a579&#45;&gt;dir_e174451783f118721a576b728d4f0e04</title>
<path fill="none" stroke="black" d="M116.365,-71.6966C125.194,-62.9655 136.973,-52.2405 148.105,-42.7503"/>
<polygon fill="black" stroke="black" points="150.624,-45.2066 156.046,-36.1043 146.131,-39.8387 150.624,-45.2066"/>
<g id="a_edge3&#45;headlabel"><a xlink:href="dir_000005_000001.html" target="_top" xlink:title="5">
<text text-anchor="middle" x="149.69" y="-47.191" font-family="Helvetica,sans-Serif" font-size="10.00">5</text>
</a>
</g>
</g>
<!-- dir_bba04cfeda2ebb06ea600493f2bb1319 -->
<g id="node5" class="node"><title>dir_bba04cfeda2ebb06ea600493f2bb1319</title>
<g id="a_node5"><a xlink:href="dir_bba04cfeda2ebb06ea600493f2bb1319.html" target="_top" xlink:title="Interface">
<polygon fill="none" stroke="black" points="131.5,-36 76.5,-36 76.5,-0 131.5,-0 131.5,-36"/>
<text text-anchor="middle" x="104" y="-15.5" font-family="Helvetica,sans-Serif" font-size="10.00">Interface</text>
</a>
</g>
</g>
<!-- dir_8af96e67bfef43ea6cf541a302b9a579&#45;&gt;dir_bba04cfeda2ebb06ea600493f2bb1319 -->
<g id="edge4" class="edge"><title>dir_8af96e67bfef43ea6cf541a302b9a579&#45;&gt;dir_bba04cfeda2ebb06ea600493f2bb1319</title>
<path fill="none" stroke="black" d="M103.247,-71.6966C103.357,-63.9827 103.49,-54.7125 103.613,-46.1124"/>
<polygon fill="black" stroke="black" points="107.112,-46.1533 103.756,-36.1043 100.113,-46.0533 107.112,-46.1533"/>
<g id="a_edge4&#45;headlabel"><a xlink:href="dir_000005_000002.html" target="_top" xlink:title="1">
<text text-anchor="middle" x="109.9" y="-47.2881" font-family="Helvetica,sans-Serif" font-size="10.00">1</text>
</a>
</g>
</g>
<!-- dir_fcac084c8285db543138d67b8fc65208&#45;&gt;dir_8af96e67bfef43ea6cf541a302b9a579 -->
<g id="edge5" class="edge"><title>dir_fcac084c8285db543138d67b8fc65208&#45;&gt;dir_8af96e67bfef43ea6cf541a302b9a579</title>
<path fill="none" stroke="black" d="M149.765,-90C147.122,-90 144.479,-90 141.835,-90"/>
<polygon fill="black" stroke="black" points="141.641,-86.5001 131.641,-90 141.641,-93.5001 141.641,-86.5001"/>
<g id="a_edge5&#45;headlabel"><a xlink:href="dir_000003_000005.html" target="_top" xlink:title="1">
<text text-anchor="middle" x="145.235" y="-81.1607" font-family="Helvetica,sans-Serif" font-size="10.00">1</text>
</a>
</g>
</g>
<!-- dir_fcac084c8285db543138d67b8fc65208&#45;&gt;dir_e174451783f118721a576b728d4f0e04 -->
<g id="edge6" class="edge"><title>dir_fcac084c8285db543138d67b8fc65208&#45;&gt;dir_e174451783f118721a576b728d4f0e04</title>
<path fill="none" stroke="black" d="M175.084,-71.6966C174.289,-63.9827 174.062,-54.7125 174.405,-46.1124"/>
<polygon fill="black" stroke="black" points="177.898,-46.3243 175.105,-36.1043 170.915,-45.8356 177.898,-46.3243"/>
<g id="a_edge6&#45;headlabel"><a xlink:href="dir_000003_000001.html" target="_top" xlink:title="1">
<text text-anchor="middle" x="180.48" y="-47.6083" font-family="Helvetica,sans-Serif" font-size="10.00">1</text>
</a>
</g>
</g>
<!-- dir_e174451783f118721a576b728d4f0e04&#45;&gt;dir_8af96e67bfef43ea6cf541a302b9a579 -->
<g id="edge7" class="edge"><title>dir_e174451783f118721a576b728d4f0e04&#45;&gt;dir_8af96e67bfef43ea6cf541a302b9a579</title>
<path fill="none" stroke="black" d="M167.836,-36.1043C159.053,-44.8049 147.291,-55.524 136.149,-65.0328"/>
<polygon fill="black" stroke="black" points="133.613,-62.5911 128.197,-71.6966 138.109,-67.9564 133.613,-62.5911"/>
<g id="a_edge7&#45;headlabel"><a xlink:href="dir_000001_000005.html" target="_top" xlink:title="1">
<text text-anchor="middle" x="134.545" y="-55.6062" font-family="Helvetica,sans-Serif" font-size="10.00">1</text>
</a>
</g>
</g>
<!-- dir_e174451783f118721a576b728d4f0e04&#45;&gt;dir_fcac084c8285db543138d67b8fc65208 -->
<g id="edge8" class="edge"><title>dir_e174451783f118721a576b728d4f0e04&#45;&gt;dir_fcac084c8285db543138d67b8fc65208</title>
<path fill="none" stroke="black" d="M186.895,-36.1043C187.701,-43.7913 187.937,-53.0537 187.604,-61.6651"/>
<polygon fill="black" stroke="black" points="184.109,-61.4805 186.916,-71.6966 191.092,-61.9597 184.109,-61.4805"/>
<g id="a_edge8&#45;headlabel"><a xlink:href="dir_000001_000003.html" target="_top" xlink:title="8">
<text text-anchor="middle" x="181.522" y="-55.2" font-family="Helvetica,sans-Serif" font-size="10.00">8</text>
</a>
</g>
</g>
</g>
</svg>
