<?xml version="1.0" encoding="UTF-8" standalone="no"?>
<!DOCTYPE svg PUBLIC "-//W3C//DTD SVG 1.1//EN"
 "http://www.w3.org/Graphics/SVG/1.1/DTD/svg11.dtd">
<!-- Generated by graphviz version 2.38.0 (20140413.2041)
 -->
<!-- Title: Graphe hiérarchique des classes Pages: 1 -->
<svg width="256pt" height="104pt"
 viewBox="0.00 0.00 256.00 104.00" xmlns="http://www.w3.org/2000/svg" xmlns:xlink="http://www.w3.org/1999/xlink">
<g id="graph0" class="graph" transform="scale(1 1) rotate(0) translate(4 100)">
<title>Graphe hiérarchique des classes</title>
<polygon fill="white" stroke="none" points="-4,4 -4,-100 252,-100 252,4 -4,4"/>
<!-- Node0 -->
<g id="node1" class="node"><title>Node0</title>
<g id="a_node1"><a xlink:href="class_entite.html" target="_top" xlink:title="Classe virtuelle qui définit une entité ">
<polygon fill="white" stroke="black" points="0,-19.5 0,-38.5 42,-38.5 42,-19.5 0,-19.5"/>
<text text-anchor="middle" x="21" y="-26.5" font-family="Helvetica,sans-Serif" font-size="10.00">Entite</text>
</a>
</g>
</g>
<!-- Node1 -->
<g id="node2" class="node"><title>Node1</title>
<g id="a_node2"><a xlink:href="class_projectile.html" target="_top" xlink:title="Classe abstraite qui définit la structure générale d&#39;un projectile, à faire hériter pour chaque proje...">
<polygon fill="white" stroke="black" points="78,-38.5 78,-57.5 135,-57.5 135,-38.5 78,-38.5"/>
<text text-anchor="middle" x="106.5" y="-45.5" font-family="Helvetica,sans-Serif" font-size="10.00">Projectile</text>
</a>
</g>
</g>
<!-- Node0&#45;&gt;Node1 -->
<g id="edge1" class="edge"><title>Node0&#45;&gt;Node1</title>
<path fill="none" stroke="midnightblue" d="M52.055,-35.8389C60.49,-37.7582 69.6177,-39.8352 77.9022,-41.7203"/>
<polygon fill="midnightblue" stroke="midnightblue" points="52.7404,-32.4054 42.213,-33.5994 51.1872,-39.2309 52.7404,-32.4054"/>
</g>
<!-- Node4 -->
<g id="node5" class="node"><title>Node4</title>
<g id="a_node5"><a xlink:href="class_vaisseau.html" target="_top" xlink:title="classe du vaisseau (véhicule) d&#39;un joueur ou d&#39;un ennemi ">
<polygon fill="white" stroke="black" points="78,-0.5 78,-19.5 135,-19.5 135,-0.5 78,-0.5"/>
<text text-anchor="middle" x="106.5" y="-7.5" font-family="Helvetica,sans-Serif" font-size="10.00">Vaisseau</text>
</a>
</g>
</g>
<!-- Node0&#45;&gt;Node4 -->
<g id="edge4" class="edge"><title>Node0&#45;&gt;Node4</title>
<path fill="none" stroke="midnightblue" d="M52.055,-22.1611C60.49,-20.2418 69.6177,-18.1648 77.9022,-16.2797"/>
<polygon fill="midnightblue" stroke="midnightblue" points="51.1872,-18.7691 42.213,-24.4006 52.7404,-25.5946 51.1872,-18.7691"/>
</g>
<!-- Node2 -->
<g id="node3" class="node"><title>Node2</title>
<g id="a_node3"><a xlink:href="class_proj_piou.html" target="_top" xlink:title="ProjPiou">
<polygon fill="white" stroke="black" points="183,-76.5 183,-95.5 236,-95.5 236,-76.5 183,-76.5"/>
<text text-anchor="middle" x="209.5" y="-83.5" font-family="Helvetica,sans-Serif" font-size="10.00">ProjPiou</text>
</a>
</g>
</g>
<!-- Node1&#45;&gt;Node2 -->
<g id="edge2" class="edge"><title>Node1&#45;&gt;Node2</title>
<path fill="none" stroke="midnightblue" d="M142.366,-61.118C155.725,-66.1439 170.702,-71.7791 183.022,-76.4141"/>
<polygon fill="midnightblue" stroke="midnightblue" points="143.579,-57.8346 132.987,-57.589 141.114,-64.3863 143.579,-57.8346"/>
</g>
<!-- Node3 -->
<g id="node4" class="node"><title>Node3</title>
<g id="a_node4"><a xlink:href="class_proj_test.html" target="_top" xlink:title="Projectile de test. ">
<polygon fill="white" stroke="black" points="183,-38.5 183,-57.5 236,-57.5 236,-38.5 183,-38.5"/>
<text text-anchor="middle" x="209.5" y="-45.5" font-family="Helvetica,sans-Serif" font-size="10.00">ProjTest</text>
</a>
</g>
</g>
<!-- Node1&#45;&gt;Node3 -->
<g id="edge3" class="edge"><title>Node1&#45;&gt;Node3</title>
<path fill="none" stroke="midnightblue" d="M145.242,-48C157.715,-48 171.299,-48 182.67,-48"/>
<polygon fill="midnightblue" stroke="midnightblue" points="145.099,-44.5001 135.099,-48 145.099,-51.5001 145.099,-44.5001"/>
</g>
<!-- Node5 -->
<g id="node6" class="node"><title>Node5</title>
<g id="a_node6"><a xlink:href="class_vaisseau_test.html" target="_top" xlink:title="VaisseauTest">
<polygon fill="white" stroke="black" points="171,-0.5 171,-19.5 248,-19.5 248,-0.5 171,-0.5"/>
<text text-anchor="middle" x="209.5" y="-7.5" font-family="Helvetica,sans-Serif" font-size="10.00">VaisseauTest</text>
</a>
</g>
</g>
<!-- Node4&#45;&gt;Node5 -->
<g id="edge5" class="edge"><title>Node4&#45;&gt;Node5</title>
<path fill="none" stroke="midnightblue" d="M145.289,-10C153.599,-10 162.401,-10 170.712,-10"/>
<polygon fill="midnightblue" stroke="midnightblue" points="145.099,-6.5001 135.099,-10 145.099,-13.5001 145.099,-6.5001"/>
</g>
</g>
</svg>
