<?xml version="1.0" encoding="UTF-8" standalone="no"?>
<!DOCTYPE svg PUBLIC "-//W3C//DTD SVG 1.1//EN"
 "http://www.w3.org/Graphics/SVG/1.1/DTD/svg11.dtd">
<!-- Generated by graphviz version 2.38.0 (20140413.2041)
 -->
<!-- Title: Graphe hiérarchique des classes Pages: 1 -->
<svg width="165pt" height="142pt"
 viewBox="0.00 0.00 165.00 142.00" xmlns="http://www.w3.org/2000/svg" xmlns:xlink="http://www.w3.org/1999/xlink">
<g id="graph0" class="graph" transform="scale(1 1) rotate(0) translate(4 138)">
<title>Graphe hiérarchique des classes</title>
<polygon fill="white" stroke="none" points="-4,4 -4,-138 161,-138 161,4 -4,4"/>
<!-- Node0 -->
<g id="node1" class="node"><title>Node0</title>
<g id="a_node1"><a xlink:href="class_capacite.html" target="_top" xlink:title="Classe abstraite qui définit la structure générale d&#39;une capacité, à faire hériter de chaque capacité...">
<polygon fill="white" stroke="black" points="0,-57.5 0,-76.5 56,-76.5 56,-57.5 0,-57.5"/>
<text text-anchor="middle" x="28" y="-64.5" font-family="Helvetica,sans-Serif" font-size="10.00">Capacite</text>
</a>
</g>
</g>
<!-- Node1 -->
<g id="node2" class="node"><title>Node1</title>
<g id="a_node2"><a xlink:href="class_cap_dash.html" target="_top" xlink:title="Classe Capacité permettant de dash. ">
<polygon fill="white" stroke="black" points="95.5,-114.5 95.5,-133.5 153.5,-133.5 153.5,-114.5 95.5,-114.5"/>
<text text-anchor="middle" x="124.5" y="-121.5" font-family="Helvetica,sans-Serif" font-size="10.00">CapDash</text>
</a>
</g>
</g>
<!-- Node0&#45;&gt;Node1 -->
<g id="edge1" class="edge"><title>Node0&#45;&gt;Node1</title>
<path fill="none" stroke="midnightblue" d="M53.9025,-82.0206C70.9478,-92.3018 93.0343,-105.624 107.706,-114.474"/>
<polygon fill="midnightblue" stroke="midnightblue" points="55.4013,-78.8372 45.0306,-76.6693 51.7858,-84.8313 55.4013,-78.8372"/>
</g>
<!-- Node2 -->
<g id="node3" class="node"><title>Node2</title>
<g id="a_node3"><a xlink:href="class_cap_missile.html" target="_top" xlink:title="Classe Capacité de base. ">
<polygon fill="white" stroke="black" points="92,-76.5 92,-95.5 157,-95.5 157,-76.5 92,-76.5"/>
<text text-anchor="middle" x="124.5" y="-83.5" font-family="Helvetica,sans-Serif" font-size="10.00">CapMissile</text>
</a>
</g>
</g>
<!-- Node0&#45;&gt;Node2 -->
<g id="edge2" class="edge"><title>Node0&#45;&gt;Node2</title>
<path fill="none" stroke="midnightblue" d="M66.1109,-74.4614C74.584,-76.165 83.5136,-77.9604 91.7391,-79.6142"/>
<polygon fill="midnightblue" stroke="midnightblue" points="66.5736,-70.9845 56.0799,-72.4446 65.1938,-77.8472 66.5736,-70.9845"/>
</g>
<!-- Node3 -->
<g id="node4" class="node"><title>Node3</title>
<g id="a_node4"><a xlink:href="class_cap_piou.html" target="_top" xlink:title="Classe Capacité de base. ">
<polygon fill="white" stroke="black" points="97.5,-38.5 97.5,-57.5 151.5,-57.5 151.5,-38.5 97.5,-38.5"/>
<text text-anchor="middle" x="124.5" y="-45.5" font-family="Helvetica,sans-Serif" font-size="10.00">CapPiou</text>
</a>
</g>
</g>
<!-- Node0&#45;&gt;Node3 -->
<g id="edge3" class="edge"><title>Node0&#45;&gt;Node3</title>
<path fill="none" stroke="midnightblue" d="M66.204,-59.5198C76.6366,-57.4223 87.7542,-55.187 97.3931,-53.249"/>
<polygon fill="midnightblue" stroke="midnightblue" points="65.1938,-56.1528 56.0799,-61.5554 66.5736,-63.0155 65.1938,-56.1528"/>
</g>
<!-- Node4 -->
<g id="node5" class="node"><title>Node4</title>
<g id="a_node5"><a xlink:href="class_cap_test.html" target="_top" xlink:title="Classe Capacité de test. ">
<polygon fill="white" stroke="black" points="97.5,-0.5 97.5,-19.5 151.5,-19.5 151.5,-0.5 97.5,-0.5"/>
<text text-anchor="middle" x="124.5" y="-7.5" font-family="Helvetica,sans-Serif" font-size="10.00">CapTest</text>
</a>
</g>
</g>
<!-- Node0&#45;&gt;Node4 -->
<g id="edge4" class="edge"><title>Node0&#45;&gt;Node4</title>
<path fill="none" stroke="midnightblue" d="M53.9025,-51.9794C70.9478,-41.6982 93.0343,-28.3762 107.706,-19.5265"/>
<polygon fill="midnightblue" stroke="midnightblue" points="51.7858,-49.1687 45.0306,-57.3307 55.4013,-55.1628 51.7858,-49.1687"/>
</g>
</g>
</svg>
