<?xml version="1.0" encoding="UTF-8" standalone="no"?>
<!DOCTYPE svg PUBLIC "-//W3C//DTD SVG 1.1//EN"
 "http://www.w3.org/Graphics/SVG/1.1/DTD/svg11.dtd">
<!-- Generated by graphviz version 2.38.0 (20140413.2041)
 -->
<!-- Title: Graphe hi√©rarchique des classes Pages: 1 -->
<svg width="274pt" height="142pt"
 viewBox="0.00 0.00 274.00 142.00" xmlns="http://www.w3.org/2000/svg" xmlns:xlink="http://www.w3.org/1999/xlink">
<g id="graph0" class="graph" transform="scale(1 1) rotate(0) translate(4 138)">
<title>Graphe hi√©rarchique des classes</title>
<polygon fill="white" stroke="none" points="-4,4 -4,-138 270,-138 270,4 -4,4"/>
<!-- Node0 -->
<g id="node1" class="node"><title>Node0</title>
<g id="a_node1"><a xlink:href="class_entite.html" target="_top" xlink:title="Classe virtuelle qui d√©finit une entit√© ">
<polygon fill="white" stroke="black" points="0,-57.5 0,-76.5 42,-76.5 42,-57.5 0,-57.5"/>
<text text-anchor="middle" x="21" y="-64.5" font-family="Helvetica,sans-Serif" font-size="10.00">Entite</text>
</a>
</g>
</g>
<!-- Node1 -->
<g id="node2" class="node"><title>Node1</title>
<g id="a_node2"><a xlink:href="class_projectile.html" target="_top" xlink:title="Classe abstraite qui d√©finit la structure g√©n√©rale d&#39;un projectile, √† faire h√©riter pour chaque proje...">
<polygon fill="white" stroke="black" points="78,-76.5 78,-95.5 135,-95.5 135,-76.5 78,-76.5"/>
<text text-anchor="middle" x="106.5" y="-83.5" font-family="Helvetica,sans-Serif" font-size="10.00">Projectile</text>
</a>
</g>
</g>
<!-- Node0&#45;&gt;Node1 -->
<g id="edge1" class="edge"><title>Node0&#45;&gt;Node1</title>
<path fill="none" stroke="midnightblue" d="M52.055,-73.8389C60.49,-75.7582 69.6177,-77.8352 77.9022,-79.7203"/>
<polygon fill="midnightblue" stroke="midnightblue" points="52.7404,-70.4054 42.213,-71.5994 51.1872,-77.2309 52.7404,-70.4054"/>
</g>
<!-- Node4 -->
<g id="node5" class="node"><title>Node4</title>
<g id="a_node5"><a xlink:href="class_vaisseau.html" target="_top" xlink:title="classe du vaisseau (v√©hicule) d&#39;un joueur ou d&#39;un ennemi ">
<polygon fill="white" stroke="black" points="78,-38.5 78,-57.5 135,-57.5 135,-38.5 78,-38.5"/>
<text text-anchor="middle" x="106.5" y="-45.5" font-family="Helvetica,sans-Serif" font-size="10.00">Vaisseau</text>
</a>
</g>
</g>
<!-- Node0&#45;&gt;Node4 -->
<g id="edge4" class="edge"><title>Node0&#45;&gt;Node4</title>
<path fill="none" stroke="midnightblue" d="M52.055,-60.1611C60.49,-58.2418 69.6177,-56.1648 77.9022,-54.2797"/>
<polygon fill="midnightblue" stroke="midnightblue" points="51.1872,-56.7691 42.213,-62.4006 52.7404,-63.5946 51.1872,-56.7691"/>
</g>
<!-- Node2 -->
<g id="node3" class="node"><title>Node2</title>
<g id="a_node3"><a xlink:href="class_proj_piou.html" target="_top" xlink:title="Projectile de test. ">
<polygon fill="white" stroke="black" points="192,-114.5 192,-133.5 245,-133.5 245,-114.5 192,-114.5"/>
<text text-anchor="middle" x="218.5" y="-121.5" font-family="Helvetica,sans-Serif" font-size="10.00">ProjPiou</text>
</a>
</g>
</g>
<!-- Node1&#45;&gt;Node2 -->
<g id="edge2" class="edge"><title>Node1&#45;&gt;Node2</title>
<path fill="none" stroke="midnightblue" d="M144.998,-98.954C160.354,-104.259 177.743,-110.266 191.64,-115.067"/>
<polygon fill="midnightblue" stroke="midnightblue" points="145.852,-95.5461 135.258,-95.589 143.567,-102.162 145.852,-95.5461"/>
</g>
<!-- Node3 -->
<g id="node4" class="node"><title>Node3</title>
<g id="a_node4"><a xlink:href="class_proj_test.html" target="_top" xlink:title="Projectile de test. ">
<polygon fill="white" stroke="black" points="192,-76.5 192,-95.5 245,-95.5 245,-76.5 192,-76.5"/>
<text text-anchor="middle" x="218.5" y="-83.5" font-family="Helvetica,sans-Serif" font-size="10.00">ProjTest</text>
</a>
</g>
</g>
<!-- Node1&#45;&gt;Node3 -->
<g id="edge3" class="edge"><title>Node1&#45;&gt;Node3</title>
<path fill="none" stroke="midnightblue" d="M145.438,-86C160.685,-86 177.875,-86 191.64,-86"/>
<polygon fill="midnightblue" stroke="midnightblue" points="145.258,-82.5001 135.258,-86 145.258,-89.5001 145.258,-82.5001"/>
</g>
<!-- Node5 -->
<g id="node6" class="node"><title>Node5</title>
<g id="a_node6"><a xlink:href="class_vaisseau_eclaireur.html" target="_top" xlink:title="classe d&#39;un ennemi de base : l&#39;Èclaireur ">
<polygon fill="white" stroke="black" points="171,-38.5 171,-57.5 266,-57.5 266,-38.5 171,-38.5"/>
<text text-anchor="middle" x="218.5" y="-45.5" font-family="Helvetica,sans-Serif" font-size="10.00">VaisseauEclaireur</text>
</a>
</g>
</g>
<!-- Node4&#45;&gt;Node5 -->
<g id="edge5" class="edge"><title>Node4&#45;&gt;Node5</title>
<path fill="none" stroke="midnightblue" d="M145.328,-48C153.57,-48 162.383,-48 170.92,-48"/>
<polygon fill="midnightblue" stroke="midnightblue" points="145.258,-44.5001 135.258,-48 145.258,-51.5001 145.258,-44.5001"/>
</g>
<!-- Node6 -->
<g id="node7" class="node"><title>Node6</title>
<g id="a_node7"><a xlink:href="class_vaisseau_test.html" target="_top" xlink:title="VaisseauTest">
<polygon fill="white" stroke="black" points="180,-0.5 180,-19.5 257,-19.5 257,-0.5 180,-0.5"/>
<text text-anchor="middle" x="218.5" y="-7.5" font-family="Helvetica,sans-Serif" font-size="10.00">VaisseauTest</text>
</a>
</g>
</g>
<!-- Node4&#45;&gt;Node6 -->
<g id="edge6" class="edge"><title>Node4&#45;&gt;Node6</title>
<path fill="none" stroke="midnightblue" d="M145.05,-35.0282C159.705,-29.9656 176.204,-24.2659 189.751,-19.5859"/>
<polygon fill="midnightblue" stroke="midnightblue" points="143.567,-31.8376 135.258,-38.411 145.852,-38.4539 143.567,-31.8376"/>
</g>
</g>
</svg>
