<?xml version="1.0" encoding="UTF-8" standalone="no"?>
<!DOCTYPE svg PUBLIC "-//W3C//DTD SVG 1.1//EN"
 "http://www.w3.org/Graphics/SVG/1.1/DTD/svg11.dtd">
<!-- Generated by graphviz version 2.38.0 (20140413.2041)
 -->
<!-- Title: Graphe hiérarchique des classes Pages: 1 -->
<svg width="288pt" height="294pt"
 viewBox="0.00 0.00 288.00 294.00" xmlns="http://www.w3.org/2000/svg" xmlns:xlink="http://www.w3.org/1999/xlink">
<g id="graph0" class="graph" transform="scale(1 1) rotate(0) translate(4 290)">
<title>Graphe hiérarchique des classes</title>
<polygon fill="white" stroke="none" points="-4,4 -4,-290 284,-290 284,4 -4,4"/>
<!-- Node0 -->
<g id="node1" class="node"><title>Node0</title>
<g id="a_node1"><a xlink:href="class_entite.html" target="_top" xlink:title="Classe virtuelle qui définit une entité ">
<polygon fill="white" stroke="black" points="0,-161.5 0,-180.5 42,-180.5 42,-161.5 0,-161.5"/>
<text text-anchor="middle" x="21" y="-168.5" font-family="Helvetica,sans-Serif" font-size="10.00">Entite</text>
</a>
</g>
</g>
<!-- Node1 -->
<g id="node2" class="node"><title>Node1</title>
<g id="a_node2"><a xlink:href="class_projectile.html" target="_top" xlink:title="Classe abstraite qui définit la structure générale d&#39;un projectile, à faire hériter pour chaque proje...">
<polygon fill="white" stroke="black" points="78,-209.5 78,-228.5 135,-228.5 135,-209.5 78,-209.5"/>
<text text-anchor="middle" x="106.5" y="-216.5" font-family="Helvetica,sans-Serif" font-size="10.00">Projectile</text>
</a>
</g>
</g>
<!-- Node0&#45;&gt;Node1 -->
<g id="edge1" class="edge"><title>Node0&#45;&gt;Node1</title>
<path fill="none" stroke="midnightblue" d="M47.6863,-185.766C61.1061,-193.48 77.1386,-202.696 88.9126,-209.465"/>
<polygon fill="midnightblue" stroke="midnightblue" points="49.3114,-182.663 38.8975,-180.714 45.8228,-188.732 49.3114,-182.663"/>
</g>
<!-- Node5 -->
<g id="node6" class="node"><title>Node5</title>
<g id="a_node6"><a xlink:href="class_vaisseau.html" target="_top" xlink:title="classe du vaisseau (véhicule) d&#39;un joueur ou d&#39;un ennemi ">
<polygon fill="white" stroke="black" points="78,-95.5 78,-114.5 135,-114.5 135,-95.5 78,-95.5"/>
<text text-anchor="middle" x="106.5" y="-102.5" font-family="Helvetica,sans-Serif" font-size="10.00">Vaisseau</text>
</a>
</g>
</g>
<!-- Node0&#45;&gt;Node5 -->
<g id="edge5" class="edge"><title>Node0&#45;&gt;Node5</title>
<path fill="none" stroke="midnightblue" d="M42.5211,-154.78C58.4863,-142.161 80.0945,-125.081 93.4002,-114.564"/>
<polygon fill="midnightblue" stroke="midnightblue" points="39.9956,-152.315 34.3207,-161.261 44.3363,-157.806 39.9956,-152.315"/>
</g>
<!-- Node2 -->
<g id="node3" class="node"><title>Node2</title>
<g id="a_node3"><a xlink:href="class_proj_missile.html" target="_top" xlink:title="ProjMissile">
<polygon fill="white" stroke="black" points="193,-266.5 193,-285.5 258,-285.5 258,-266.5 193,-266.5"/>
<text text-anchor="middle" x="225.5" y="-273.5" font-family="Helvetica,sans-Serif" font-size="10.00">ProjMissile</text>
</a>
</g>
</g>
<!-- Node1&#45;&gt;Node2 -->
<g id="edge2" class="edge"><title>Node1&#45;&gt;Node2</title>
<path fill="none" stroke="midnightblue" d="M130.433,-234.228C142.244,-241.679 157.06,-250.433 171,-257 178.401,-260.486 186.626,-263.709 194.364,-266.473"/>
<polygon fill="midnightblue" stroke="midnightblue" points="131.982,-231.063 121.678,-228.598 128.196,-236.951 131.982,-231.063"/>
</g>
<!-- Node3 -->
<g id="node4" class="node"><title>Node3</title>
<g id="a_node4"><a xlink:href="class_proj_piou.html" target="_top" xlink:title="Projectile de test. ">
<polygon fill="white" stroke="black" points="199,-228.5 199,-247.5 252,-247.5 252,-228.5 199,-228.5"/>
<text text-anchor="middle" x="225.5" y="-235.5" font-family="Helvetica,sans-Serif" font-size="10.00">ProjPiou</text>
</a>
</g>
</g>
<!-- Node1&#45;&gt;Node3 -->
<g id="edge3" class="edge"><title>Node1&#45;&gt;Node3</title>
<path fill="none" stroke="midnightblue" d="M145.188,-225.12C162.769,-227.975 183.233,-231.299 198.971,-233.854"/>
<polygon fill="midnightblue" stroke="midnightblue" points="145.659,-221.651 135.227,-223.503 144.537,-228.56 145.659,-221.651"/>
</g>
<!-- Node4 -->
<g id="node5" class="node"><title>Node4</title>
<g id="a_node5"><a xlink:href="class_proj_test.html" target="_top" xlink:title="Projectile de test. ">
<polygon fill="white" stroke="black" points="199,-190.5 199,-209.5 252,-209.5 252,-190.5 199,-190.5"/>
<text text-anchor="middle" x="225.5" y="-197.5" font-family="Helvetica,sans-Serif" font-size="10.00">ProjTest</text>
</a>
</g>
</g>
<!-- Node1&#45;&gt;Node4 -->
<g id="edge4" class="edge"><title>Node1&#45;&gt;Node4</title>
<path fill="none" stroke="midnightblue" d="M145.188,-212.88C162.769,-210.025 183.233,-206.701 198.971,-204.146"/>
<polygon fill="midnightblue" stroke="midnightblue" points="144.537,-209.44 135.227,-214.497 145.659,-216.349 144.537,-209.44"/>
</g>
<!-- Node6 -->
<g id="node7" class="node"><title>Node6</title>
<g id="a_node7"><a xlink:href="class_vaisseau_attaquant.html" target="_top" xlink:title="classe d&#39;un ennemi de base : l&#39;attaquant ">
<polygon fill="white" stroke="black" points="176,-152.5 176,-171.5 275,-171.5 275,-152.5 176,-152.5"/>
<text text-anchor="middle" x="225.5" y="-159.5" font-family="Helvetica,sans-Serif" font-size="10.00">VaisseauAttaquant</text>
</a>
</g>
</g>
<!-- Node5&#45;&gt;Node6 -->
<g id="edge6" class="edge"><title>Node5&#45;&gt;Node6</title>
<path fill="none" stroke="midnightblue" d="M130.433,-120.228C142.244,-127.679 157.06,-136.433 171,-143 178.401,-146.486 186.626,-149.709 194.364,-152.473"/>
<polygon fill="midnightblue" stroke="midnightblue" points="131.982,-117.063 121.678,-114.598 128.196,-122.951 131.982,-117.063"/>
</g>
<!-- Node7 -->
<g id="node8" class="node"><title>Node7</title>
<g id="a_node8"><a xlink:href="class_vaisseau_defenseur.html" target="_top" xlink:title="VaisseauDefenseur">
<polygon fill="white" stroke="black" points="174.5,-114.5 174.5,-133.5 276.5,-133.5 276.5,-114.5 174.5,-114.5"/>
<text text-anchor="middle" x="225.5" y="-121.5" font-family="Helvetica,sans-Serif" font-size="10.00">VaisseauDefenseur</text>
</a>
</g>
</g>
<!-- Node5&#45;&gt;Node7 -->
<g id="edge7" class="edge"><title>Node5&#45;&gt;Node7</title>
<path fill="none" stroke="midnightblue" d="M145.212,-111.124C154.403,-112.617 164.381,-114.237 174.059,-115.809"/>
<polygon fill="midnightblue" stroke="midnightblue" points="145.659,-107.651 135.227,-109.503 144.537,-114.56 145.659,-107.651"/>
</g>
<!-- Node8 -->
<g id="node9" class="node"><title>Node8</title>
<g id="a_node9"><a xlink:href="class_vaisseau_defenseur_b.html" target="_top" xlink:title="classe du bouclier du VaisseauDefenseur ">
<polygon fill="white" stroke="black" points="171,-76.5 171,-95.5 280,-95.5 280,-76.5 171,-76.5"/>
<text text-anchor="middle" x="225.5" y="-83.5" font-family="Helvetica,sans-Serif" font-size="10.00">VaisseauDefenseurB</text>
</a>
</g>
</g>
<!-- Node5&#45;&gt;Node8 -->
<g id="edge8" class="edge"><title>Node5&#45;&gt;Node8</title>
<path fill="none" stroke="midnightblue" d="M145.184,-98.8803C153.354,-97.5537 162.146,-96.1259 170.797,-94.721"/>
<polygon fill="midnightblue" stroke="midnightblue" points="144.537,-95.4395 135.227,-100.497 145.659,-102.349 144.537,-95.4395"/>
</g>
<!-- Node9 -->
<g id="node10" class="node"><title>Node9</title>
<g id="a_node10"><a xlink:href="class_vaisseau_eclaireur.html" target="_top" xlink:title="classe d&#39;un ennemi de base : l&#39;éclaireur ">
<polygon fill="white" stroke="black" points="178,-38.5 178,-57.5 273,-57.5 273,-38.5 178,-38.5"/>
<text text-anchor="middle" x="225.5" y="-45.5" font-family="Helvetica,sans-Serif" font-size="10.00">VaisseauEclaireur</text>
</a>
</g>
</g>
<!-- Node5&#45;&gt;Node9 -->
<g id="edge9" class="edge"><title>Node5&#45;&gt;Node9</title>
<path fill="none" stroke="midnightblue" d="M130.433,-89.7723C142.244,-82.3214 157.06,-73.5668 171,-67 178.401,-63.5135 186.626,-60.2906 194.364,-57.5268"/>
<polygon fill="midnightblue" stroke="midnightblue" points="128.196,-87.0491 121.678,-95.4017 131.982,-92.9369 128.196,-87.0491"/>
</g>
<!-- Node10 -->
<g id="node11" class="node"><title>Node10</title>
<g id="a_node11"><a xlink:href="class_vaisseau_test.html" target="_top" xlink:title="VaisseauTest">
<polygon fill="white" stroke="black" points="187,-0.5 187,-19.5 264,-19.5 264,-0.5 187,-0.5"/>
<text text-anchor="middle" x="225.5" y="-7.5" font-family="Helvetica,sans-Serif" font-size="10.00">VaisseauTest</text>
</a>
</g>
</g>
<!-- Node5&#45;&gt;Node10 -->
<g id="edge10" class="edge"><title>Node5&#45;&gt;Node10</title>
<path fill="none" stroke="midnightblue" d="M118.536,-86.866C129.792,-69.761 148.733,-44.4968 171,-29 176.42,-25.2277 182.668,-22.1285 188.939,-19.6084"/>
<polygon fill="midnightblue" stroke="midnightblue" points="115.512,-85.0987 113.101,-95.4156 121.42,-88.8542 115.512,-85.0987"/>
</g>
</g>
</svg>
