<?xml version="1.0" encoding="UTF-8" standalone="no"?>
<!DOCTYPE svg PUBLIC "-//W3C//DTD SVG 1.1//EN"
 "http://www.w3.org/Graphics/SVG/1.1/DTD/svg11.dtd">
<!-- Generated by graphviz version 2.38.0 (20140413.2041)
 -->
<!-- Title: Graphe hiérarchique des classes Pages: 1 -->
<svg width="158pt" height="104pt"
 viewBox="0.00 0.00 158.00 104.00" xmlns="http://www.w3.org/2000/svg" xmlns:xlink="http://www.w3.org/1999/xlink">
<g id="graph0" class="graph" transform="scale(1 1) rotate(0) translate(4 100)">
<title>Graphe hiérarchique des classes</title>
<polygon fill="white" stroke="none" points="-4,4 -4,-100 154,-100 154,4 -4,4"/>
<!-- Node0 -->
<g id="node1" class="node"><title>Node0</title>
<g id="a_node1"><a xlink:href="class_capacite.html" target="_top" xlink:title="Classe abstraite qui définit la structure générale d&#39;une capacité, à faire hériter de chaque capacité...">
<polygon fill="white" stroke="black" points="0,-38.5 0,-57.5 56,-57.5 56,-38.5 0,-38.5"/>
<text text-anchor="middle" x="28" y="-45.5" font-family="Helvetica,sans-Serif" font-size="10.00">Capacite</text>
</a>
</g>
</g>
<!-- Node1 -->
<g id="node2" class="node"><title>Node1</title>
<g id="a_node2"><a xlink:href="class_cap_dash.html" target="_top" xlink:title="CapDash">
<polygon fill="white" stroke="black" points="92,-76.5 92,-95.5 150,-95.5 150,-76.5 92,-76.5"/>
<text text-anchor="middle" x="121" y="-83.5" font-family="Helvetica,sans-Serif" font-size="10.00">CapDash</text>
</a>
</g>
</g>
<!-- Node0&#45;&gt;Node1 -->
<g id="edge1" class="edge"><title>Node0&#45;&gt;Node1</title>
<path fill="none" stroke="midnightblue" d="M61.4694,-61.5587C73.234,-66.4714 86.268,-71.9141 97.0442,-76.4141"/>
<polygon fill="midnightblue" stroke="midnightblue" points="62.5396,-58.2127 51.9631,-57.589 59.8422,-64.6721 62.5396,-58.2127"/>
</g>
<!-- Node2 -->
<g id="node3" class="node"><title>Node2</title>
<g id="a_node3"><a xlink:href="class_cap_piou.html" target="_top" xlink:title="CapPiou">
<polygon fill="white" stroke="black" points="94,-38.5 94,-57.5 148,-57.5 148,-38.5 94,-38.5"/>
<text text-anchor="middle" x="121" y="-45.5" font-family="Helvetica,sans-Serif" font-size="10.00">CapPiou</text>
</a>
</g>
</g>
<!-- Node0&#45;&gt;Node2 -->
<g id="edge2" class="edge"><title>Node0&#45;&gt;Node2</title>
<path fill="none" stroke="midnightblue" d="M66.4585,-48C75.7005,-48 85.3998,-48 93.9649,-48"/>
<polygon fill="midnightblue" stroke="midnightblue" points="66.303,-44.5001 56.303,-48 66.303,-51.5001 66.303,-44.5001"/>
</g>
<!-- Node3 -->
<g id="node4" class="node"><title>Node3</title>
<g id="a_node4"><a xlink:href="class_cap_test.html" target="_top" xlink:title="Classe Capacité de test. ">
<polygon fill="white" stroke="black" points="94,-0.5 94,-19.5 148,-19.5 148,-0.5 94,-0.5"/>
<text text-anchor="middle" x="121" y="-7.5" font-family="Helvetica,sans-Serif" font-size="10.00">CapTest</text>
</a>
</g>
</g>
<!-- Node0&#45;&gt;Node3 -->
<g id="edge3" class="edge"><title>Node0&#45;&gt;Node3</title>
<path fill="none" stroke="midnightblue" d="M61.4694,-34.4413C73.234,-29.5286 86.268,-24.0859 97.0442,-19.5859"/>
<polygon fill="midnightblue" stroke="midnightblue" points="59.8422,-31.3279 51.9631,-38.411 62.5396,-37.7873 59.8422,-31.3279"/>
</g>
</g>
</svg>
