<?xml version="1.0" encoding="UTF-8" standalone="no"?>
<!DOCTYPE svg PUBLIC "-//W3C//DTD SVG 1.1//EN"
 "http://www.w3.org/Graphics/SVG/1.1/DTD/svg11.dtd">
<!-- Generated by graphviz version 2.38.0 (20140413.2041)
 -->
<!-- Title: src/main.cpp Pages: 1 -->
<svg width="1016pt" height="364pt"
 viewBox="0.00 0.00 1015.50 364.00" xmlns="http://www.w3.org/2000/svg" xmlns:xlink="http://www.w3.org/1999/xlink">
<g id="graph0" class="graph" transform="scale(1 1) rotate(0) translate(4 360)">
<title>src/main.cpp</title>
<polygon fill="white" stroke="none" points="-4,4 -4,-360 1011.5,-360 1011.5,4 -4,4"/>
<!-- Node0 -->
<g id="node1" class="node"><title>Node0</title>
<polygon fill="#bfbfbf" stroke="black" points="758.5,-336.5 758.5,-355.5 831.5,-355.5 831.5,-336.5 758.5,-336.5"/>
<text text-anchor="middle" x="795" y="-343.5" font-family="Helvetica,sans-Serif" font-size="10.00">src/main.cpp</text>
</g>
<!-- Node1 -->
<g id="node2" class="node"><title>Node1</title>
<polygon fill="white" stroke="#bfbfbf" points="622,-0.5 622,-19.5 726,-19.5 726,-0.5 622,-0.5"/>
<text text-anchor="middle" x="674" y="-7.5" font-family="Helvetica,sans-Serif" font-size="10.00">SFML/Graphics.hpp</text>
</g>
<!-- Node0&#45;&gt;Node1 -->
<g id="edge1" class="edge"><title>Node0&#45;&gt;Node1</title>
<path fill="none" stroke="midnightblue" d="M791.887,-336.408C775.905,-292.292 702.948,-90.9065 680.555,-29.0951"/>
<polygon fill="midnightblue" stroke="midnightblue" points="683.789,-27.7449 677.092,-19.5351 677.208,-30.1293 683.789,-27.7449"/>
</g>
<!-- Node2 -->
<g id="node3" class="node"><title>Node2</title>
<polygon fill="white" stroke="#bfbfbf" points="904,-280.5 904,-299.5 948,-299.5 948,-280.5 904,-280.5"/>
<text text-anchor="middle" x="926" y="-287.5" font-family="Helvetica,sans-Serif" font-size="10.00">cmath</text>
</g>
<!-- Node0&#45;&gt;Node2 -->
<g id="edge2" class="edge"><title>Node0&#45;&gt;Node2</title>
<path fill="none" stroke="midnightblue" d="M815.757,-336.444C837.316,-327.557 871.263,-313.563 895.794,-303.451"/>
<polygon fill="midnightblue" stroke="midnightblue" points="897.428,-306.563 905.34,-299.516 894.761,-300.092 897.428,-306.563"/>
</g>
<!-- Node3 -->
<g id="node4" class="node"><title>Node3</title>
<polygon fill="white" stroke="#bfbfbf" points="966.5,-280.5 966.5,-299.5 1007.5,-299.5 1007.5,-280.5 966.5,-280.5"/>
<text text-anchor="middle" x="987" y="-287.5" font-family="Helvetica,sans-Serif" font-size="10.00">ctime</text>
</g>
<!-- Node0&#45;&gt;Node3 -->
<g id="edge3" class="edge"><title>Node0&#45;&gt;Node3</title>
<path fill="none" stroke="midnightblue" d="M826.413,-336.479C857.111,-328.107 905.411,-314.816 956.459,-300.112"/>
<polygon fill="midnightblue" stroke="midnightblue" points="957.724,-303.39 966.36,-297.253 955.781,-296.665 957.724,-303.39"/>
</g>
<!-- Node4 -->
<g id="node5" class="node"><title>Node4</title>
<polygon fill="white" stroke="#bfbfbf" points="656,-224.5 656,-243.5 710,-243.5 710,-224.5 656,-224.5"/>
<text text-anchor="middle" x="683" y="-231.5" font-family="Helvetica,sans-Serif" font-size="10.00">iostream</text>
</g>
<!-- Node0&#45;&gt;Node4 -->
<g id="edge4" class="edge"><title>Node0&#45;&gt;Node4</title>
<path fill="none" stroke="midnightblue" d="M776.821,-336.372C761.47,-328.452 739.565,-315.599 724,-300 710.198,-286.168 698.769,-266.889 691.516,-252.922"/>
<polygon fill="midnightblue" stroke="midnightblue" points="694.587,-251.238 686.997,-243.845 688.32,-254.357 694.587,-251.238"/>
</g>
<!-- Node5 -->
<g id="node6" class="node"><title>Node5</title>
<g id="a_node6"><a xlink:href="constantes_8h.html" target="_top" xlink:title="constantes.h">
<polygon fill="white" stroke="black" points="791.5,-0.5 791.5,-19.5 864.5,-19.5 864.5,-0.5 791.5,-0.5"/>
<text text-anchor="middle" x="828" y="-7.5" font-family="Helvetica,sans-Serif" font-size="10.00">constantes.h</text>
</a>
</g>
</g>
<!-- Node0&#45;&gt;Node5 -->
<g id="edge5" class="edge"><title>Node0&#45;&gt;Node5</title>
<path fill="none" stroke="midnightblue" d="M807.656,-336.35C830.438,-319.643 876,-280.535 876,-235 876,-235 876,-235 876,-121 876,-85.5849 854.841,-48.707 840.619,-27.9203"/>
<polygon fill="midnightblue" stroke="midnightblue" points="843.324,-25.6838 834.674,-19.565 837.62,-29.7421 843.324,-25.6838"/>
</g>
<!-- Node6 -->
<g id="node7" class="node"><title>Node6</title>
<g id="a_node7"><a xlink:href="_entite_8h.html" target="_top" xlink:title="Entite.h">
<polygon fill="white" stroke="black" points="516,-56.5 516,-75.5 566,-75.5 566,-56.5 516,-56.5"/>
<text text-anchor="middle" x="541" y="-63.5" font-family="Helvetica,sans-Serif" font-size="10.00">Entite.h</text>
</a>
</g>
</g>
<!-- Node0&#45;&gt;Node6 -->
<g id="edge6" class="edge"><title>Node0&#45;&gt;Node6</title>
<path fill="none" stroke="midnightblue" d="M788.108,-336.254C781.202,-327.342 770.415,-313.018 762,-300 740.933,-267.406 743.447,-254.142 719,-224 670.186,-163.814 597.031,-107.328 561.641,-81.5863"/>
<polygon fill="midnightblue" stroke="midnightblue" points="563.655,-78.7238 553.495,-75.7207 559.565,-84.4044 563.655,-78.7238"/>
</g>
<!-- Node10 -->
<g id="node11" class="node"><title>Node10</title>
<g id="a_node11"><a xlink:href="_collision_8h.html" target="_top" xlink:title="Utilitaires/Collision.h">
<polygon fill="white" stroke="black" points="740.5,-112.5 740.5,-131.5 847.5,-131.5 847.5,-112.5 740.5,-112.5"/>
<text text-anchor="middle" x="794" y="-119.5" font-family="Helvetica,sans-Serif" font-size="10.00">Utilitaires/Collision.h</text>
</a>
</g>
</g>
<!-- Node0&#45;&gt;Node10 -->
<g id="edge12" class="edge"><title>Node0&#45;&gt;Node10</title>
<path fill="none" stroke="midnightblue" d="M794.961,-336.297C794.814,-303.633 794.292,-187.866 794.085,-141.957"/>
<polygon fill="midnightblue" stroke="midnightblue" points="797.585,-141.868 794.04,-131.884 790.585,-141.899 797.585,-141.868"/>
</g>
<!-- Node11 -->
<g id="node12" class="node"><title>Node11</title>
<g id="a_node12"><a xlink:href="_partie_8h.html" target="_top" xlink:title="Partie.h">
<polygon fill="white" stroke="black" points="421,-280.5 421,-299.5 471,-299.5 471,-280.5 421,-280.5"/>
<text text-anchor="middle" x="446" y="-287.5" font-family="Helvetica,sans-Serif" font-size="10.00">Partie.h</text>
</a>
</g>
</g>
<!-- Node0&#45;&gt;Node11 -->
<g id="edge14" class="edge"><title>Node0&#45;&gt;Node11</title>
<path fill="none" stroke="midnightblue" d="M758.311,-339.323C690.699,-328.862 547.306,-306.675 480.989,-296.414"/>
<polygon fill="midnightblue" stroke="midnightblue" points="481.448,-292.943 471.03,-294.873 480.377,-299.861 481.448,-292.943"/>
</g>
<!-- Node6&#45;&gt;Node1 -->
<g id="edge10" class="edge"><title>Node6&#45;&gt;Node1</title>
<path fill="none" stroke="midnightblue" d="M562.074,-56.4435C584.06,-47.5171 618.734,-33.4387 643.664,-23.3168"/>
<polygon fill="midnightblue" stroke="midnightblue" points="645.076,-26.5213 653.024,-19.5164 642.442,-20.0355 645.076,-26.5213"/>
</g>
<!-- Node6&#45;&gt;Node5 -->
<g id="edge11" class="edge"><title>Node6&#45;&gt;Node5</title>
<path fill="none" stroke="midnightblue" d="M566.218,-60.2552C614.319,-51.2048 719.837,-31.3512 781.21,-19.8037"/>
<polygon fill="midnightblue" stroke="midnightblue" points="782.218,-23.1755 791.399,-17.8867 780.924,-16.2962 782.218,-23.1755"/>
</g>
<!-- Node7 -->
<g id="node8" class="node"><title>Node7</title>
<polygon fill="white" stroke="#bfbfbf" points="206,-0.5 206,-19.5 250,-19.5 250,-0.5 206,-0.5"/>
<text text-anchor="middle" x="228" y="-7.5" font-family="Helvetica,sans-Serif" font-size="10.00">vector</text>
</g>
<!-- Node6&#45;&gt;Node7 -->
<g id="edge7" class="edge"><title>Node6&#45;&gt;Node7</title>
<path fill="none" stroke="midnightblue" d="M515.915,-60.6722C459.554,-50.9485 322.94,-27.3794 260.325,-16.5769"/>
<polygon fill="midnightblue" stroke="midnightblue" points="260.68,-13.0865 250.231,-14.8354 259.49,-19.9846 260.68,-13.0865"/>
</g>
<!-- Node8 -->
<g id="node9" class="node"><title>Node8</title>
<polygon fill="white" stroke="#bfbfbf" points="515,-0.5 515,-19.5 567,-19.5 567,-0.5 515,-0.5"/>
<text text-anchor="middle" x="541" y="-7.5" font-family="Helvetica,sans-Serif" font-size="10.00">memory</text>
</g>
<!-- Node6&#45;&gt;Node8 -->
<g id="edge8" class="edge"><title>Node6&#45;&gt;Node8</title>
<path fill="none" stroke="midnightblue" d="M541,-56.083C541,-49.0059 541,-38.8611 541,-29.9865"/>
<polygon fill="midnightblue" stroke="midnightblue" points="544.5,-29.751 541,-19.7511 537.5,-29.7511 544.5,-29.751"/>
</g>
<!-- Node9 -->
<g id="node10" class="node"><title>Node9</title>
<polygon fill="white" stroke="#bfbfbf" points="21,-0.5 21,-19.5 119,-19.5 119,-0.5 21,-0.5"/>
<text text-anchor="middle" x="70" y="-7.5" font-family="Helvetica,sans-Serif" font-size="10.00">SFML/System.hpp</text>
</g>
<!-- Node6&#45;&gt;Node9 -->
<g id="edge9" class="edge"><title>Node6&#45;&gt;Node9</title>
<path fill="none" stroke="midnightblue" d="M515.677,-62.0967C443.096,-53.7753 232.905,-29.677 129.238,-17.7916"/>
<polygon fill="midnightblue" stroke="midnightblue" points="129.579,-14.3078 119.245,-16.6459 128.781,-21.2623 129.579,-14.3078"/>
</g>
<!-- Node10&#45;&gt;Node1 -->
<g id="edge13" class="edge"><title>Node10&#45;&gt;Node1</title>
<path fill="none" stroke="midnightblue" d="M785.329,-112.445C772.53,-99.8797 747.746,-75.7805 726,-56 714.96,-45.9582 702.304,-34.994 692.241,-26.4023"/>
<polygon fill="midnightblue" stroke="midnightblue" points="694.378,-23.6249 684.492,-19.8157 689.845,-28.9587 694.378,-23.6249"/>
</g>
<!-- Node11&#45;&gt;Node1 -->
<g id="edge19" class="edge"><title>Node11&#45;&gt;Node1</title>
<path fill="none" stroke="midnightblue" d="M471.184,-289.22C506.734,-288.13 571.474,-280.786 609,-244 669.565,-184.629 675.025,-73.9279 674.63,-29.8318"/>
<polygon fill="midnightblue" stroke="midnightblue" points="678.127,-29.6151 674.42,-19.6901 671.128,-29.7607 678.127,-29.6151"/>
</g>
<!-- Node11&#45;&gt;Node4 -->
<g id="edge18" class="edge"><title>Node11&#45;&gt;Node4</title>
<path fill="none" stroke="midnightblue" d="M471.363,-283.221C513.281,-273.67 597.202,-254.549 645.827,-243.47"/>
<polygon fill="midnightblue" stroke="midnightblue" points="646.667,-246.868 655.64,-241.234 645.112,-240.043 646.667,-246.868"/>
</g>
<!-- Node11&#45;&gt;Node7 -->
<g id="edge15" class="edge"><title>Node11&#45;&gt;Node7</title>
<path fill="none" stroke="midnightblue" d="M420.786,-287.68C331.832,-282.344 38,-258.69 38,-179 38,-179 38,-179 38,-121 38,-48.9975 141.459,-23.3614 195.688,-14.8695"/>
<polygon fill="midnightblue" stroke="midnightblue" points="196.442,-18.2967 205.833,-13.391 195.432,-11.3699 196.442,-18.2967"/>
</g>
<!-- Node11&#45;&gt;Node9 -->
<g id="edge20" class="edge"><title>Node11&#45;&gt;Node9</title>
<path fill="none" stroke="midnightblue" d="M420.816,-287.801C348.124,-284.046 139.189,-271.12 77,-244 35.9483,-226.098 0,-223.785 0,-179 0,-179 0,-179 0,-121 0,-82.2321 31.3299,-46.1035 52.0698,-26.4341"/>
<polygon fill="midnightblue" stroke="midnightblue" points="54.6397,-28.8274 59.6713,-19.5036 49.9235,-23.6547 54.6397,-28.8274"/>
</g>
<!-- Node12 -->
<g id="node13" class="node"><title>Node12</title>
<polygon fill="white" stroke="#bfbfbf" points="144.5,-56.5 144.5,-75.5 185.5,-75.5 185.5,-56.5 144.5,-56.5"/>
<text text-anchor="middle" x="165" y="-63.5" font-family="Helvetica,sans-Serif" font-size="10.00">string</text>
</g>
<!-- Node11&#45;&gt;Node12 -->
<g id="edge16" class="edge"><title>Node11&#45;&gt;Node12</title>
<path fill="none" stroke="midnightblue" d="M420.787,-288.991C363.469,-287.418 223.958,-274.469 167,-188 146.462,-156.821 153.473,-110.625 159.683,-85.2828"/>
<polygon fill="midnightblue" stroke="midnightblue" points="163.092,-86.0836 162.296,-75.5187 156.33,-84.2744 163.092,-86.0836"/>
</g>
<!-- Node13 -->
<g id="node14" class="node"><title>Node13</title>
<polygon fill="white" stroke="#bfbfbf" points="364,-56.5 364,-75.5 420,-75.5 420,-56.5 364,-56.5"/>
<text text-anchor="middle" x="392" y="-63.5" font-family="Helvetica,sans-Serif" font-size="10.00">algorithm</text>
</g>
<!-- Node11&#45;&gt;Node13 -->
<g id="edge17" class="edge"><title>Node11&#45;&gt;Node13</title>
<path fill="none" stroke="midnightblue" d="M448.005,-280.366C453.729,-253.766 468.055,-171.291 441,-112 435.437,-99.8093 424.853,-89.4259 414.941,-81.7155"/>
<polygon fill="midnightblue" stroke="midnightblue" points="416.702,-78.6697 406.547,-75.6494 412.602,-84.3434 416.702,-78.6697"/>
</g>
<!-- Node14 -->
<g id="node15" class="node"><title>Node14</title>
<g id="a_node15"><a xlink:href="_capacite_8h.html" target="_top" xlink:title="Capacites/Capacite.h">
<polygon fill="white" stroke="black" points="192.5,-168.5 192.5,-187.5 303.5,-187.5 303.5,-168.5 192.5,-168.5"/>
<text text-anchor="middle" x="248" y="-175.5" font-family="Helvetica,sans-Serif" font-size="10.00">Capacites/Capacite.h</text>
</a>
</g>
</g>
<!-- Node11&#45;&gt;Node14 -->
<g id="edge21" class="edge"><title>Node11&#45;&gt;Node14</title>
<path fill="none" stroke="midnightblue" d="M420.834,-289.912C382.675,-289.881 310.167,-284.074 268,-244 255.439,-232.063 250.707,-212.449 248.956,-197.884"/>
<polygon fill="midnightblue" stroke="midnightblue" points="252.412,-197.205 248.098,-187.529 245.436,-197.784 252.412,-197.205"/>
</g>
<!-- Node15 -->
<g id="node16" class="node"><title>Node15</title>
<g id="a_node16"><a xlink:href="_projectile_8h.html" target="_top" xlink:title="../Projectiles/Projectile.h">
<polygon fill="white" stroke="black" points="294.5,-112.5 294.5,-131.5 417.5,-131.5 417.5,-112.5 294.5,-112.5"/>
<text text-anchor="middle" x="356" y="-119.5" font-family="Helvetica,sans-Serif" font-size="10.00">../Projectiles/Projectile.h</text>
</a>
</g>
</g>
<!-- Node11&#45;&gt;Node15 -->
<g id="edge31" class="edge"><title>Node11&#45;&gt;Node15</title>
<path fill="none" stroke="midnightblue" d="M441.161,-280.075C426.872,-253.719 384.669,-175.878 365.575,-140.661"/>
<polygon fill="midnightblue" stroke="midnightblue" points="368.489,-138.691 360.645,-131.568 362.335,-142.027 368.489,-138.691"/>
</g>
<!-- Node16 -->
<g id="node17" class="node"><title>Node16</title>
<g id="a_node17"><a xlink:href="_vaisseau_8h.html" target="_top" xlink:title="Vaisseau/Vaisseau.h">
<polygon fill="white" stroke="black" points="277.5,-224.5 277.5,-243.5 386.5,-243.5 386.5,-224.5 277.5,-224.5"/>
<text text-anchor="middle" x="332" y="-231.5" font-family="Helvetica,sans-Serif" font-size="10.00">Vaisseau/Vaisseau.h</text>
</a>
</g>
</g>
<!-- Node11&#45;&gt;Node16 -->
<g id="edge32" class="edge"><title>Node11&#45;&gt;Node16</title>
<path fill="none" stroke="midnightblue" d="M427.936,-280.444C409.425,-271.675 380.419,-257.935 359.145,-247.858"/>
<polygon fill="midnightblue" stroke="midnightblue" points="360.515,-244.634 349.979,-243.516 357.518,-250.96 360.515,-244.634"/>
</g>
<!-- Node17 -->
<g id="node18" class="node"><title>Node17</title>
<g id="a_node18"><a xlink:href="_input_8h.html" target="_top" xlink:title="Interface/Input.h">
<polygon fill="white" stroke="black" points="512,-224.5 512,-243.5 600,-243.5 600,-224.5 512,-224.5"/>
<text text-anchor="middle" x="556" y="-231.5" font-family="Helvetica,sans-Serif" font-size="10.00">Interface/Input.h</text>
</a>
</g>
</g>
<!-- Node11&#45;&gt;Node17 -->
<g id="edge39" class="edge"><title>Node11&#45;&gt;Node17</title>
<path fill="none" stroke="midnightblue" d="M463.673,-280.324C481.394,-271.625 508.903,-258.12 529.288,-248.113"/>
<polygon fill="midnightblue" stroke="midnightblue" points="530.936,-251.203 538.37,-243.655 527.851,-244.919 530.936,-251.203"/>
</g>
<!-- Node14&#45;&gt;Node6 -->
<g id="edge30" class="edge"><title>Node14&#45;&gt;Node6</title>
<path fill="none" stroke="midnightblue" d="M295.933,-168.498C332.398,-161.174 383.392,-149.069 426,-132 460.615,-118.133 497.651,-95.6591 520.069,-81.1061"/>
<polygon fill="midnightblue" stroke="midnightblue" points="522.029,-84.0063 528.458,-75.5851 518.18,-78.159 522.029,-84.0063"/>
</g>
<!-- Node14&#45;&gt;Node7 -->
<g id="edge22" class="edge"><title>Node14&#45;&gt;Node7</title>
<path fill="none" stroke="midnightblue" d="M246.925,-168.075C243.777,-141.945 234.531,-65.2106 230.238,-29.577"/>
<polygon fill="midnightblue" stroke="midnightblue" points="233.703,-29.0776 229.032,-19.5681 226.754,-29.915 233.703,-29.0776"/>
</g>
<!-- Node14&#45;&gt;Node12 -->
<g id="edge23" class="edge"><title>Node14&#45;&gt;Node12</title>
<path fill="none" stroke="midnightblue" d="M241.479,-168.375C234.633,-159.319 223.556,-144.661 214,-132 201.688,-115.686 187.648,-97.0597 177.763,-83.9404"/>
<polygon fill="midnightblue" stroke="midnightblue" points="180.468,-81.7142 171.654,-75.8337 174.877,-85.9266 180.468,-81.7142"/>
</g>
<!-- Node14&#45;&gt;Node13 -->
<g id="edge24" class="edge"><title>Node14&#45;&gt;Node13</title>
<path fill="none" stroke="midnightblue" d="M250.893,-168.23C255.833,-154.498 267.128,-127.856 285,-112 304.609,-94.6028 331.916,-83.267 354.036,-76.3245"/>
<polygon fill="midnightblue" stroke="midnightblue" points="355.192,-79.6323 363.787,-73.4378 353.205,-72.9202 355.192,-79.6323"/>
</g>
<!-- Node14&#45;&gt;Node15 -->
<g id="edge25" class="edge"><title>Node14&#45;&gt;Node15</title>
<path fill="none" stroke="midnightblue" d="M265.352,-168.324C282.672,-159.664 309.515,-146.242 329.502,-136.249"/>
<polygon fill="midnightblue" stroke="midnightblue" points="331.312,-139.257 338.691,-131.655 328.181,-132.996 331.312,-139.257"/>
</g>
<!-- Node15&#45;&gt;Node6 -->
<g id="edge29" class="edge"><title>Node15&#45;&gt;Node6</title>
<path fill="none" stroke="midnightblue" d="M385.314,-112.444C418.141,-102.862 471.305,-87.3435 506.21,-77.1548"/>
<polygon fill="midnightblue" stroke="midnightblue" points="507.358,-80.466 515.976,-74.3042 505.396,-73.7464 507.358,-80.466"/>
</g>
<!-- Node15&#45;&gt;Node7 -->
<g id="edge26" class="edge"><title>Node15&#45;&gt;Node7</title>
<path fill="none" stroke="midnightblue" d="M345.956,-112.368C324.272,-93.7334 272.838,-49.5324 245.61,-26.1338"/>
<polygon fill="midnightblue" stroke="midnightblue" points="247.863,-23.4546 237.997,-19.5914 243.3,-28.7636 247.863,-23.4546"/>
</g>
<!-- Node15&#45;&gt;Node12 -->
<g id="edge27" class="edge"><title>Node15&#45;&gt;Node12</title>
<path fill="none" stroke="midnightblue" d="M325.735,-112.444C290.121,-102.374 231.32,-85.7501 195.572,-75.6434"/>
<polygon fill="midnightblue" stroke="midnightblue" points="196.279,-72.2062 185.704,-72.8536 194.375,-78.9422 196.279,-72.2062"/>
</g>
<!-- Node15&#45;&gt;Node13 -->
<g id="edge28" class="edge"><title>Node15&#45;&gt;Node13</title>
<path fill="none" stroke="midnightblue" d="M361.945,-112.083C366.977,-104.534 374.337,-93.4948 380.513,-84.2298"/>
<polygon fill="midnightblue" stroke="midnightblue" points="383.531,-86.0131 386.166,-75.7511 377.707,-82.1301 383.531,-86.0131"/>
</g>
<!-- Node16&#45;&gt;Node6 -->
<g id="edge37" class="edge"><title>Node16&#45;&gt;Node6</title>
<path fill="none" stroke="midnightblue" d="M344.515,-224.254C357.156,-215.342 377.166,-201.018 394,-188 441.425,-151.325 495.437,-105.882 522.897,-82.5033"/>
<polygon fill="midnightblue" stroke="midnightblue" points="525.503,-84.8809 530.838,-75.7273 520.959,-79.5561 525.503,-84.8809"/>
</g>
<!-- Node16&#45;&gt;Node7 -->
<g id="edge33" class="edge"><title>Node16&#45;&gt;Node7</title>
<path fill="none" stroke="midnightblue" d="M277.336,-231.445C241.487,-227.547 196.042,-216.694 167,-188 124.058,-145.573 102.931,-107.143 135,-56 148.266,-34.8439 174.607,-23.3897 195.879,-17.342"/>
<polygon fill="midnightblue" stroke="midnightblue" points="197.018,-20.6632 205.835,-14.7885 195.279,-13.8826 197.018,-20.6632"/>
</g>
<!-- Node16&#45;&gt;Node12 -->
<g id="edge34" class="edge"><title>Node16&#45;&gt;Node12</title>
<path fill="none" stroke="midnightblue" d="M277.405,-230.551C245.206,-226.111 206.32,-214.99 183,-188 158.204,-159.303 159.243,-111.765 162.139,-85.6344"/>
<polygon fill="midnightblue" stroke="midnightblue" points="165.629,-85.9433 163.469,-75.5709 158.689,-85.026 165.629,-85.9433"/>
</g>
<!-- Node16&#45;&gt;Node13 -->
<g id="edge35" class="edge"><title>Node16&#45;&gt;Node13</title>
<path fill="none" stroke="midnightblue" d="M340.226,-224.331C362.927,-200.388 424.855,-134.912 426,-132 432.872,-114.53 420.557,-95.628 408.873,-82.735"/>
<polygon fill="midnightblue" stroke="midnightblue" points="411.348,-80.2594 401.857,-75.5504 406.339,-85.1502 411.348,-80.2594"/>
</g>
<!-- Node16&#45;&gt;Node14 -->
<g id="edge36" class="edge"><title>Node16&#45;&gt;Node14</title>
<path fill="none" stroke="midnightblue" d="M318.504,-224.324C305.4,-215.9 285.288,-202.971 269.893,-193.074"/>
<polygon fill="midnightblue" stroke="midnightblue" points="271.767,-190.118 261.463,-187.655 267.982,-196.006 271.767,-190.118"/>
</g>
<!-- Node16&#45;&gt;Node15 -->
<g id="edge38" class="edge"><title>Node16&#45;&gt;Node15</title>
<path fill="none" stroke="midnightblue" d="M333.883,-224.368C337.756,-206.617 346.691,-165.666 351.942,-141.597"/>
<polygon fill="midnightblue" stroke="midnightblue" points="355.413,-142.108 354.126,-131.591 348.574,-140.615 355.413,-142.108"/>
</g>
<!-- Node17&#45;&gt;Node1 -->
<g id="edge40" class="edge"><title>Node17&#45;&gt;Node1</title>
<path fill="none" stroke="midnightblue" d="M560.626,-224.297C578.135,-191.356 640.568,-73.898 664.536,-28.8052"/>
<polygon fill="midnightblue" stroke="midnightblue" points="667.675,-30.3566 669.278,-19.8837 661.494,-27.0711 667.675,-30.3566"/>
</g>
<!-- Node18 -->
<g id="node19" class="node"><title>Node18</title>
<polygon fill="white" stroke="#bfbfbf" points="520,-168.5 520,-187.5 570,-187.5 570,-168.5 520,-168.5"/>
<text text-anchor="middle" x="545" y="-175.5" font-family="Helvetica,sans-Serif" font-size="10.00">optional</text>
</g>
<!-- Node17&#45;&gt;Node18 -->
<g id="edge41" class="edge"><title>Node17&#45;&gt;Node18</title>
<path fill="none" stroke="midnightblue" d="M554.184,-224.083C552.726,-216.927 550.629,-206.635 548.807,-197.691"/>
<polygon fill="midnightblue" stroke="midnightblue" points="552.208,-196.851 546.783,-187.751 545.349,-198.248 552.208,-196.851"/>
</g>
</g>
</svg>
