<?xml version="1.0" encoding="UTF-8" standalone="no"?>
<!DOCTYPE svg PUBLIC "-//W3C//DTD SVG 1.1//EN"
 "http://www.w3.org/Graphics/SVG/1.1/DTD/svg11.dtd">
<!-- Generated by graphviz version 2.38.0 (20140413.2041)
 -->
<!-- Title: src/main.cpp Pages: 1 -->
<!--zoomable 364 -->
<svg id="main" version="1.1" xmlns="http://www.w3.org/2000/svg" xmlns:xlink="http://www.w3.org/1999/xlink" xml:space="preserve" onload="init(evt)">
<style type="text/css"><![CDATA[
.edge:hover path { stroke: red; }
.edge:hover polygon { stroke: red; fill: red; }
]]></style>
<script type="text/javascript"><![CDATA[
var edges = document.getElementsByTagName('g');
if (edges && edges.length) {
  for (var i=0;i<edges.length;i++) {
    if (edges[i].id.substr(0,4)=='edge') {
      edges[i].setAttribute('class','edge');
    }
  }
}
]]></script>
        <defs>
                <circle id="rim" cx="0" cy="0" r="7"/>
                <circle id="rim2" cx="0" cy="0" r="3.5"/>
                <g id="zoomPlus">
                        <use xlink:href="#rim" fill="#404040">
                                <set attributeName="fill" to="#808080" begin="zoomplus.mouseover" end="zoomplus.mouseout"/>
                        </use>
                        <path d="M-4,0h8M0,-4v8" fill="none" stroke="white" stroke-width="1.5" pointer-events="none"/>
                </g>
                <g id="zoomMin">
                        <use xlink:href="#rim" fill="#404040">
                                <set attributeName="fill" to="#808080" begin="zoomminus.mouseover" end="zoomminus.mouseout"/>
                        </use>
                        <path d="M-4,0h8" fill="none" stroke="white" stroke-width="1.5" pointer-events="none"/>
                </g>
                <g id="dirArrow">
                        <path fill="none" stroke="white" stroke-width="1.5" d="M0,-3.0v7 M-2.5,-0.5L0,-3.0L2.5,-0.5"/>
                </g>
               <g id="resetDef">
                       <use xlink:href="#rim2" fill="#404040">
                               <set attributeName="fill" to="#808080" begin="reset.mouseover" end="reset.mouseout"/>
                       </use>
               </g>
        </defs>

<script type="text/javascript">
var viewWidth = 1133;
var viewHeight = 364;
var sectionId = 'dynsection-0';
</script>
<script xlink:href="svgpan.js"/>
<svg id="graph" class="graph">
<g id="viewport">
<title>src/main.cpp</title>
<polygon fill="white" stroke="none" points="-4,4 -4,-360 1128.5,-360 1128.5,4 -4,4"/>
<!-- Node0 -->
<g id="node1" class="node"><title>Node0</title>
<polygon fill="#bfbfbf" stroke="black" points="846.5,-336.5 846.5,-355.5 919.5,-355.5 919.5,-336.5 846.5,-336.5"/>
<text text-anchor="middle" x="883" y="-343.5" font-family="Helvetica,sans-Serif" font-size="10.00">src/main.cpp</text>
</g>
<!-- Node1 -->
<g id="node2" class="node"><title>Node1</title>
<polygon fill="white" stroke="#bfbfbf" points="690,-0.5 690,-19.5 794,-19.5 794,-0.5 690,-0.5"/>
<text text-anchor="middle" x="742" y="-7.5" font-family="Helvetica,sans-Serif" font-size="10.00">SFML/Graphics.hpp</text>
</g>
<!-- Node0&#45;&gt;Node1 -->
<g id="edge1" class="edge"><title>Node0&#45;&gt;Node1</title>
<path fill="none" stroke="midnightblue" d="M885.868,-336.294C895.905,-304.19 926.691,-190.243 886,-112 862.819,-67.4258 809.953,-38.4279 775.135,-23.3965"/>
<polygon fill="midnightblue" stroke="midnightblue" points="776.41,-20.1361 765.833,-19.5258 773.721,-26.599 776.41,-20.1361"/>
</g>
<!-- Node2 -->
<g id="node3" class="node"><title>Node2</title>
<polygon fill="white" stroke="#bfbfbf" points="930,-280.5 930,-299.5 974,-299.5 974,-280.5 930,-280.5"/>
<text text-anchor="middle" x="952" y="-287.5" font-family="Helvetica,sans-Serif" font-size="10.00">cmath</text>
</g>
<!-- Node0&#45;&gt;Node2 -->
<g id="edge2" class="edge"><title>Node0&#45;&gt;Node2</title>
<path fill="none" stroke="midnightblue" d="M894.086,-336.324C904.486,-328.185 920.261,-315.839 932.722,-306.087"/>
<polygon fill="midnightblue" stroke="midnightblue" points="934.994,-308.753 940.712,-299.834 930.68,-303.241 934.994,-308.753"/>
</g>
<!-- Node3 -->
<g id="node4" class="node"><title>Node3</title>
<polygon fill="white" stroke="#bfbfbf" points="992.5,-280.5 992.5,-299.5 1033.5,-299.5 1033.5,-280.5 992.5,-280.5"/>
<text text-anchor="middle" x="1013" y="-287.5" font-family="Helvetica,sans-Serif" font-size="10.00">ctime</text>
</g>
<!-- Node0&#45;&gt;Node3 -->
<g id="edge3" class="edge"><title>Node0&#45;&gt;Node3</title>
<path fill="none" stroke="midnightblue" d="M903.599,-336.444C924.993,-327.557 958.681,-313.563 983.024,-303.451"/>
<polygon fill="midnightblue" stroke="midnightblue" points="984.605,-306.585 992.497,-299.516 981.92,-300.12 984.605,-306.585"/>
</g>
<!-- Node4 -->
<g id="node5" class="node"><title>Node4</title>
<polygon fill="white" stroke="#bfbfbf" points="778,-224.5 778,-243.5 832,-243.5 832,-224.5 778,-224.5"/>
<text text-anchor="middle" x="805" y="-231.5" font-family="Helvetica,sans-Serif" font-size="10.00">iostream</text>
</g>
<!-- Node0&#45;&gt;Node4 -->
<g id="edge4" class="edge"><title>Node0&#45;&gt;Node4</title>
<path fill="none" stroke="midnightblue" d="M876.604,-336.424C869.904,-327.407 859.108,-312.781 850,-300 838.591,-283.99 825.862,-265.547 816.861,-252.406"/>
<polygon fill="midnightblue" stroke="midnightblue" points="819.57,-250.167 811.038,-243.885 813.79,-254.116 819.57,-250.167"/>
</g>
<!-- Node5 -->
<g id="node6" class="node"><title>Node5</title>
<g id="a_node6"><a xlink:href="constantes_8h.html" target="_top" xlink:title="constantes.h">
<polygon fill="white" stroke="black" points="1051.5,-280.5 1051.5,-299.5 1124.5,-299.5 1124.5,-280.5 1051.5,-280.5"/>
<text text-anchor="middle" x="1088" y="-287.5" font-family="Helvetica,sans-Serif" font-size="10.00">constantes.h</text>
</a>
</g>
</g>
<!-- Node0&#45;&gt;Node5 -->
<g id="edge5" class="edge"><title>Node0&#45;&gt;Node5</title>
<path fill="none" stroke="midnightblue" d="M915.483,-336.444C950.72,-327.162 1007.1,-312.309 1045.76,-302.127"/>
<polygon fill="midnightblue" stroke="midnightblue" points="1046.89,-305.448 1055.67,-299.516 1045.11,-298.679 1046.89,-305.448"/>
</g>
<!-- Node6 -->
<g id="node7" class="node"><title>Node6</title>
<g id="a_node7"><a xlink:href="_entite_8h.html" target="_top" xlink:title="Entite.h">
<polygon fill="white" stroke="black" points="497,-56.5 497,-75.5 547,-75.5 547,-56.5 497,-56.5"/>
<text text-anchor="middle" x="522" y="-63.5" font-family="Helvetica,sans-Serif" font-size="10.00">Entite.h</text>
</a>
</g>
</g>
<!-- Node0&#45;&gt;Node6 -->
<g id="edge6" class="edge"><title>Node0&#45;&gt;Node6</title>
<path fill="none" stroke="midnightblue" d="M846.262,-340.411C761.604,-328.813 560,-294.905 560,-235 560,-235 560,-235 560,-177 560,-142.813 543.4,-105.764 532.143,-84.5707"/>
<polygon fill="midnightblue" stroke="midnightblue" points="535.181,-82.832 527.284,-75.769 529.053,-86.2151 535.181,-82.832"/>
</g>
<!-- Node9 -->
<g id="node10" class="node"><title>Node9</title>
<g id="a_node10"><a xlink:href="_collision_8h.html" target="_top" xlink:title="Utilitaires/Collision.h">
<polygon fill="white" stroke="black" points="770.5,-112.5 770.5,-131.5 877.5,-131.5 877.5,-112.5 770.5,-112.5"/>
<text text-anchor="middle" x="824" y="-119.5" font-family="Helvetica,sans-Serif" font-size="10.00">Utilitaires/Collision.h</text>
</a>
</g>
</g>
<!-- Node0&#45;&gt;Node9 -->
<g id="edge10" class="edge"><title>Node0&#45;&gt;Node9</title>
<path fill="none" stroke="midnightblue" d="M880.687,-336.297C871.988,-303.563 841.109,-187.375 828.961,-141.666"/>
<polygon fill="midnightblue" stroke="midnightblue" points="832.312,-140.649 826.361,-131.884 825.547,-142.447 832.312,-140.649"/>
</g>
<!-- Node10 -->
<g id="node11" class="node"><title>Node10</title>
<g id="a_node11"><a xlink:href="_partie_8h.html" target="_top" xlink:title="Partie.h">
<polygon fill="white" stroke="black" points="409,-280.5 409,-299.5 459,-299.5 459,-280.5 409,-280.5"/>
<text text-anchor="middle" x="434" y="-287.5" font-family="Helvetica,sans-Serif" font-size="10.00">Partie.h</text>
</a>
</g>
</g>
<!-- Node0&#45;&gt;Node10 -->
<g id="edge12" class="edge"><title>Node0&#45;&gt;Node10</title>
<path fill="none" stroke="midnightblue" d="M846.256,-340.581C761.296,-330.363 552.181,-305.213 468.975,-295.206"/>
<polygon fill="midnightblue" stroke="midnightblue" points="469.355,-291.727 459.009,-294.008 468.519,-298.677 469.355,-291.727"/>
</g>
<!-- Node6&#45;&gt;Node1 -->
<g id="edge9" class="edge"><title>Node6&#45;&gt;Node1</title>
<path fill="none" stroke="midnightblue" d="M547.237,-58.8055C583.857,-49.8169 652.279,-33.0224 697.49,-21.9251"/>
<polygon fill="midnightblue" stroke="midnightblue" points="698.449,-25.2938 707.326,-19.5108 696.78,-18.4956 698.449,-25.2938"/>
</g>
<!-- Node7 -->
<g id="node8" class="node"><title>Node7</title>
<polygon fill="white" stroke="#bfbfbf" points="282,-0.5 282,-19.5 326,-19.5 326,-0.5 282,-0.5"/>
<text text-anchor="middle" x="304" y="-7.5" font-family="Helvetica,sans-Serif" font-size="10.00">vector</text>
</g>
<!-- Node6&#45;&gt;Node7 -->
<g id="edge7" class="edge"><title>Node6&#45;&gt;Node7</title>
<path fill="none" stroke="midnightblue" d="M496.993,-58.8055C457.234,-48.957 379.645,-29.7377 335.927,-18.9085"/>
<polygon fill="midnightblue" stroke="midnightblue" points="336.651,-15.4821 326.103,-16.475 334.968,-22.2768 336.651,-15.4821"/>
</g>
<!-- Node8 -->
<g id="node9" class="node"><title>Node8</title>
<polygon fill="white" stroke="#bfbfbf" points="511,-0.5 511,-19.5 609,-19.5 609,-0.5 511,-0.5"/>
<text text-anchor="middle" x="560" y="-7.5" font-family="Helvetica,sans-Serif" font-size="10.00">SFML/System.hpp</text>
</g>
<!-- Node6&#45;&gt;Node8 -->
<g id="edge8" class="edge"><title>Node6&#45;&gt;Node8</title>
<path fill="none" stroke="midnightblue" d="M528.275,-56.083C533.642,-48.4554 541.518,-37.2645 548.079,-27.9408"/>
<polygon fill="midnightblue" stroke="midnightblue" points="550.949,-29.9434 553.842,-19.7511 545.225,-25.9149 550.949,-29.9434"/>
</g>
<!-- Node9&#45;&gt;Node1 -->
<g id="edge11" class="edge"><title>Node9&#45;&gt;Node1</title>
<path fill="none" stroke="midnightblue" d="M817.566,-112.368C803.973,-94.135 772.136,-51.4257 754.431,-27.6752"/>
<polygon fill="midnightblue" stroke="midnightblue" points="757.187,-25.5171 748.405,-19.5914 751.575,-29.7007 757.187,-25.5171"/>
</g>
<!-- Node10&#45;&gt;Node1 -->
<g id="edge17" class="edge"><title>Node10&#45;&gt;Node1</title>
<path fill="none" stroke="midnightblue" d="M459.182,-288.442C522.094,-286.537 683.885,-278.337 723,-244 745.619,-224.144 742,-209.098 742,-179 742,-179 742,-179 742,-121 742,-88.948 742,-51.6426 742,-29.7489"/>
<polygon fill="midnightblue" stroke="midnightblue" points="745.5,-29.5577 742,-19.5578 738.5,-29.5578 745.5,-29.5577"/>
</g>
<!-- Node10&#45;&gt;Node4 -->
<g id="edge16" class="edge"><title>Node10&#45;&gt;Node4</title>
<path fill="none" stroke="midnightblue" d="M459.106,-285.863C513.384,-279 645.669,-261.834 756,-244 759.876,-243.374 763.917,-242.686 767.944,-241.98"/>
<polygon fill="midnightblue" stroke="midnightblue" points="768.598,-245.418 777.822,-240.206 767.361,-238.528 768.598,-245.418"/>
</g>
<!-- Node10&#45;&gt;Node7 -->
<g id="edge13" class="edge"><title>Node10&#45;&gt;Node7</title>
<path fill="none" stroke="midnightblue" d="M408.79,-288.077C316.164,-284.013 0,-263.92 0,-179 0,-179 0,-179 0,-121 0,-63.7763 192.871,-27.9234 271.362,-15.702"/>
<polygon fill="midnightblue" stroke="midnightblue" points="272.288,-19.1014 281.646,-14.1346 271.233,-12.1813 272.288,-19.1014"/>
</g>
<!-- Node10&#45;&gt;Node8 -->
<g id="edge18" class="edge"><title>Node10&#45;&gt;Node8</title>
<path fill="none" stroke="midnightblue" d="M459.266,-284.235C505.269,-273.938 598,-244.996 598,-179 598,-179 598,-179 598,-121 598,-86.8131 581.4,-49.7639 570.143,-28.5707"/>
<polygon fill="midnightblue" stroke="midnightblue" points="573.181,-26.832 565.284,-19.769 567.053,-30.2151 573.181,-26.832"/>
</g>
<!-- Node11 -->
<g id="node12" class="node"><title>Node11</title>
<polygon fill="white" stroke="#bfbfbf" points="139.5,-56.5 139.5,-75.5 180.5,-75.5 180.5,-56.5 139.5,-56.5"/>
<text text-anchor="middle" x="160" y="-63.5" font-family="Helvetica,sans-Serif" font-size="10.00">string</text>
</g>
<!-- Node10&#45;&gt;Node11 -->
<g id="edge14" class="edge"><title>Node10&#45;&gt;Node11</title>
<path fill="none" stroke="midnightblue" d="M408.744,-286.347C360.51,-280.817 257.697,-266.657 231,-244 182.026,-202.437 166.504,-122.217 161.859,-85.8013"/>
<polygon fill="midnightblue" stroke="midnightblue" points="165.309,-85.1632 160.704,-75.6215 158.353,-85.9523 165.309,-85.1632"/>
</g>
<!-- Node12 -->
<g id="node13" class="node"><title>Node12</title>
<polygon fill="white" stroke="#bfbfbf" points="213,-56.5 213,-75.5 269,-75.5 269,-56.5 213,-56.5"/>
<text text-anchor="middle" x="241" y="-63.5" font-family="Helvetica,sans-Serif" font-size="10.00">algorithm</text>
</g>
<!-- Node10&#45;&gt;Node12 -->
<g id="edge15" class="edge"><title>Node10&#45;&gt;Node12</title>
<path fill="none" stroke="midnightblue" d="M408.755,-286.209C363.266,-280.664 270.196,-266.788 248,-244 206.19,-201.077 223.969,-120.958 234.849,-85.1287"/>
<polygon fill="midnightblue" stroke="midnightblue" points="238.209,-86.1125 237.931,-75.5213 231.544,-83.9744 238.209,-86.1125"/>
</g>
<!-- Node13 -->
<g id="node14" class="node"><title>Node13</title>
<g id="a_node14"><a xlink:href="_capacite_8h.html" target="_top" xlink:title="Capacites/Capacite.h">
<polygon fill="white" stroke="black" points="256.5,-168.5 256.5,-187.5 367.5,-187.5 367.5,-168.5 256.5,-168.5"/>
<text text-anchor="middle" x="312" y="-175.5" font-family="Helvetica,sans-Serif" font-size="10.00">Capacites/Capacite.h</text>
</a>
</g>
</g>
<!-- Node10&#45;&gt;Node13 -->
<g id="edge19" class="edge"><title>Node10&#45;&gt;Node13</title>
<path fill="none" stroke="midnightblue" d="M427.256,-280.467C416.802,-267.511 395.725,-242.435 375,-224 362.231,-212.642 346.607,-201.466 334.112,-193.093"/>
<polygon fill="midnightblue" stroke="midnightblue" points="335.931,-190.1 325.653,-187.529 332.084,-195.949 335.931,-190.1"/>
</g>
<!-- Node14 -->
<g id="node15" class="node"><title>Node14</title>
<g id="a_node15"><a xlink:href="_projectile_8h.html" target="_top" xlink:title="../Projectiles/Projectile.h">
<polygon fill="white" stroke="black" points="332.5,-112.5 332.5,-131.5 455.5,-131.5 455.5,-112.5 332.5,-112.5"/>
<text text-anchor="middle" x="394" y="-119.5" font-family="Helvetica,sans-Serif" font-size="10.00">../Projectiles/Projectile.h</text>
</a>
</g>
</g>
<!-- Node10&#45;&gt;Node14 -->
<g id="edge29" class="edge"><title>Node10&#45;&gt;Node14</title>
<path fill="none" stroke="midnightblue" d="M431.849,-280.075C425.553,-253.945 407.063,-177.211 398.476,-141.577"/>
<polygon fill="midnightblue" stroke="midnightblue" points="401.81,-140.47 396.065,-131.568 395.005,-142.11 401.81,-140.47"/>
</g>
<!-- Node15 -->
<g id="node16" class="node"><title>Node15</title>
<g id="a_node16"><a xlink:href="_vaisseau_8h.html" target="_top" xlink:title="Vaisseau/Vaisseau.h">
<polygon fill="white" stroke="black" points="257.5,-224.5 257.5,-243.5 366.5,-243.5 366.5,-224.5 257.5,-224.5"/>
<text text-anchor="middle" x="312" y="-231.5" font-family="Helvetica,sans-Serif" font-size="10.00">Vaisseau/Vaisseau.h</text>
</a>
</g>
</g>
<!-- Node10&#45;&gt;Node15 -->
<g id="edge30" class="edge"><title>Node10&#45;&gt;Node15</title>
<path fill="none" stroke="midnightblue" d="M414.669,-280.444C394.68,-271.596 363.257,-257.687 340.436,-247.586"/>
<polygon fill="midnightblue" stroke="midnightblue" points="341.802,-244.363 331.241,-243.516 338.968,-250.764 341.802,-244.363"/>
</g>
<!-- Node16 -->
<g id="node17" class="node"><title>Node16</title>
<g id="a_node17"><a xlink:href="_input_8h.html" target="_top" xlink:title="Interface/Input.h">
<polygon fill="white" stroke="black" points="626,-224.5 626,-243.5 714,-243.5 714,-224.5 626,-224.5"/>
<text text-anchor="middle" x="670" y="-231.5" font-family="Helvetica,sans-Serif" font-size="10.00">Interface/Input.h</text>
</a>
</g>
</g>
<!-- Node10&#45;&gt;Node16 -->
<g id="edge37" class="edge"><title>Node10&#45;&gt;Node16</title>
<path fill="none" stroke="midnightblue" d="M459.256,-283.221C498.192,-274.312 573.521,-257.076 622.769,-245.807"/>
<polygon fill="midnightblue" stroke="midnightblue" points="623.589,-249.21 632.556,-243.568 622.027,-242.386 623.589,-249.21"/>
</g>
<!-- Node13&#45;&gt;Node6 -->
<g id="edge28" class="edge"><title>Node13&#45;&gt;Node6</title>
<path fill="none" stroke="midnightblue" d="M366.404,-168.493C396.842,-161.936 434.481,-150.715 464,-132 483.489,-119.644 500.35,-98.9268 510.793,-84.2044"/>
<polygon fill="midnightblue" stroke="midnightblue" points="513.955,-85.7788 516.691,-75.5434 508.169,-81.8385 513.955,-85.7788"/>
</g>
<!-- Node13&#45;&gt;Node7 -->
<g id="edge20" class="edge"><title>Node13&#45;&gt;Node7</title>
<path fill="none" stroke="midnightblue" d="M311.57,-168.075C310.311,-141.945 306.613,-65.2106 304.895,-29.577"/>
<polygon fill="midnightblue" stroke="midnightblue" points="308.39,-29.388 304.413,-19.5681 301.398,-29.725 308.39,-29.388"/>
</g>
<!-- Node13&#45;&gt;Node11 -->
<g id="edge21" class="edge"><title>Node13&#45;&gt;Node11</title>
<path fill="none" stroke="midnightblue" d="M300.073,-168.368C274.101,-149.573 212.189,-104.768 180.082,-81.5334"/>
<polygon fill="midnightblue" stroke="midnightblue" points="182.025,-78.6187 171.872,-75.5914 177.921,-84.2896 182.025,-78.6187"/>
</g>
<!-- Node13&#45;&gt;Node12 -->
<g id="edge22" class="edge"><title>Node13&#45;&gt;Node12</title>
<path fill="none" stroke="midnightblue" d="M306.429,-168.368C294.764,-150.296 267.577,-108.176 252.171,-84.3074"/>
<polygon fill="midnightblue" stroke="midnightblue" points="254.909,-82.0952 246.545,-75.5914 249.028,-85.8913 254.909,-82.0952"/>
</g>
<!-- Node13&#45;&gt;Node14 -->
<g id="edge23" class="edge"><title>Node13&#45;&gt;Node14</title>
<path fill="none" stroke="midnightblue" d="M325.175,-168.324C337.847,-159.979 357.233,-147.212 372.206,-137.352"/>
<polygon fill="midnightblue" stroke="midnightblue" points="374.431,-140.078 380.858,-131.655 370.581,-134.231 374.431,-140.078"/>
</g>
<!-- Node14&#45;&gt;Node6 -->
<g id="edge27" class="edge"><title>Node14&#45;&gt;Node6</title>
<path fill="none" stroke="midnightblue" d="M414.282,-112.444C435.347,-103.557 468.517,-89.5632 492.486,-79.4514"/>
<polygon fill="midnightblue" stroke="midnightblue" points="493.96,-82.6283 501.813,-75.5164 491.239,-76.1787 493.96,-82.6283"/>
</g>
<!-- Node14&#45;&gt;Node7 -->
<g id="edge24" class="edge"><title>Node14&#45;&gt;Node7</title>
<path fill="none" stroke="midnightblue" d="M386.938,-112.368C371.954,-94.0547 336.767,-51.0489 317.387,-27.3624"/>
<polygon fill="midnightblue" stroke="midnightblue" points="320.071,-25.1147 311.029,-19.5914 314.653,-29.5474 320.071,-25.1147"/>
</g>
<!-- Node14&#45;&gt;Node11 -->
<g id="edge25" class="edge"><title>Node14&#45;&gt;Node11</title>
<path fill="none" stroke="midnightblue" d="M356.922,-112.444C310.848,-101.811 233.1,-83.8693 190.379,-74.0105"/>
<polygon fill="midnightblue" stroke="midnightblue" points="191.094,-70.5837 180.563,-71.7454 189.52,-77.4044 191.094,-70.5837"/>
</g>
<!-- Node14&#45;&gt;Node12 -->
<g id="edge26" class="edge"><title>Node14&#45;&gt;Node12</title>
<path fill="none" stroke="midnightblue" d="M369.757,-112.444C344.129,-103.399 303.515,-89.064 274.762,-78.9158"/>
<polygon fill="midnightblue" stroke="midnightblue" points="275.725,-75.5442 265.13,-75.5164 273.395,-82.1452 275.725,-75.5442"/>
</g>
<!-- Node15&#45;&gt;Node6 -->
<g id="edge35" class="edge"><title>Node15&#45;&gt;Node6</title>
<path fill="none" stroke="midnightblue" d="M336.998,-224.446C374.61,-210.459 446.024,-179.412 490,-132 502.542,-118.478 511.214,-99.1227 516.336,-85.0518"/>
<polygon fill="midnightblue" stroke="midnightblue" points="519.676,-86.1002 519.565,-75.506 513.045,-83.857 519.676,-86.1002"/>
</g>
<!-- Node15&#45;&gt;Node7 -->
<g id="edge31" class="edge"><title>Node15&#45;&gt;Node7</title>
<path fill="none" stroke="midnightblue" d="M289.717,-224.485C229.849,-200.375 73.7387,-128.663 130,-56 147.235,-33.741 226.621,-20.5037 271.98,-14.6289"/>
<polygon fill="midnightblue" stroke="midnightblue" points="272.426,-18.1006 281.915,-13.3893 271.559,-11.1545 272.426,-18.1006"/>
</g>
<!-- Node15&#45;&gt;Node11 -->
<g id="edge32" class="edge"><title>Node15&#45;&gt;Node11</title>
<path fill="none" stroke="midnightblue" d="M292.175,-224.499C275.737,-216.74 252.476,-204.049 236,-188 204.139,-156.964 179.628,-110.048 167.799,-84.7198"/>
<polygon fill="midnightblue" stroke="midnightblue" points="170.969,-83.2352 163.646,-75.5783 164.596,-86.1305 170.969,-83.2352"/>
</g>
<!-- Node15&#45;&gt;Node12 -->
<g id="edge33" class="edge"><title>Node15&#45;&gt;Node12</title>
<path fill="none" stroke="midnightblue" d="M290.761,-224.464C275.701,-217.185 256.537,-205.154 247,-188 229.009,-155.639 232.924,-110.567 237.125,-85.5687"/>
<polygon fill="midnightblue" stroke="midnightblue" points="240.588,-86.0876 238.997,-75.613 233.709,-84.7936 240.588,-86.0876"/>
</g>
<!-- Node15&#45;&gt;Node13 -->
<g id="edge34" class="edge"><title>Node15&#45;&gt;Node13</title>
<path fill="none" stroke="midnightblue" d="M312,-224.083C312,-217.006 312,-206.861 312,-197.986"/>
<polygon fill="midnightblue" stroke="midnightblue" points="315.5,-197.751 312,-187.751 308.5,-197.751 315.5,-197.751"/>
</g>
<!-- Node15&#45;&gt;Node14 -->
<g id="edge36" class="edge"><title>Node15&#45;&gt;Node14</title>
<path fill="none" stroke="midnightblue" d="M330.67,-224.348C345.1,-216.734 364.495,-204.319 376,-188 385.593,-174.392 390.083,-155.849 392.179,-142.05"/>
<polygon fill="midnightblue" stroke="midnightblue" points="395.694,-142.139 393.436,-131.788 388.746,-141.288 395.694,-142.139"/>
</g>
<!-- Node16&#45;&gt;Node1 -->
<g id="edge38" class="edge"><title>Node16&#45;&gt;Node1</title>
<path fill="none" stroke="midnightblue" d="M672.902,-224.382C675.943,-215.33 680.846,-200.678 685,-188 703.884,-130.37 725.746,-62.0108 736.047,-29.6995"/>
<polygon fill="midnightblue" stroke="midnightblue" points="739.484,-30.4412 739.185,-19.8506 732.815,-28.3163 739.484,-30.4412"/>
</g>
<!-- Node17 -->
<g id="node18" class="node"><title>Node17</title>
<polygon fill="white" stroke="#bfbfbf" points="626,-168.5 626,-187.5 676,-187.5 676,-168.5 626,-168.5"/>
<text text-anchor="middle" x="651" y="-175.5" font-family="Helvetica,sans-Serif" font-size="10.00">optional</text>
</g>
<!-- Node16&#45;&gt;Node17 -->
<g id="edge39" class="edge"><title>Node16&#45;&gt;Node17</title>
<path fill="none" stroke="midnightblue" d="M666.863,-224.083C664.317,-216.849 660.644,-206.409 657.473,-197.397"/>
<polygon fill="midnightblue" stroke="midnightblue" points="660.7,-196.023 654.079,-187.751 654.097,-198.346 660.7,-196.023"/>
</g>
</g>
</svg>
        <g id="navigator" transform="translate(0 0)" fill="#404254">
                <rect fill="#f2f5e9" fill-opacity="0.5" stroke="#606060" stroke-width=".5" x="0" y="0" width="60" height="60"/>
                <use id="zoomplus" xlink:href="#zoomPlus" x="17" y="9" onmousedown="handleZoom(evt,'in')"/>
                <use id="zoomminus" xlink:href="#zoomMin" x="42" y="9" onmousedown="handleZoom(evt,'out')"/>
                <use id="reset" xlink:href="#resetDef" x="30" y="36" onmousedown="handleReset()"/>
                <g id="arrowUp" xlink:href="#dirArrow" transform="translate(30 24)" onmousedown="handlePan(0,-1)">
                  <use xlink:href="#rim" fill="#404040">
                        <set attributeName="fill" to="#808080" begin="arrowUp.mouseover" end="arrowUp.mouseout"/>
                  </use>
                  <path fill="none" stroke="white" stroke-width="1.5" d="M0,-3.0v7 M-2.5,-0.5L0,-3.0L2.5,-0.5"/>
                </g>
                <g id="arrowRight" xlink:href="#dirArrow" transform="rotate(90) translate(36 -43)" onmousedown="handlePan(1,0)">
                  <use xlink:href="#rim" fill="#404040">
                        <set attributeName="fill" to="#808080" begin="arrowRight.mouseover" end="arrowRight.mouseout"/>
                  </use>
                  <path fill="none" stroke="white" stroke-width="1.5" d="M0,-3.0v7 M-2.5,-0.5L0,-3.0L2.5,-0.5"/>
                </g>
                <g id="arrowDown" xlink:href="#dirArrow" transform="rotate(180) translate(-30 -48)" onmousedown="handlePan(0,1)">
                  <use xlink:href="#rim" fill="#404040">
                        <set attributeName="fill" to="#808080" begin="arrowDown.mouseover" end="arrowDown.mouseout"/>
                  </use>
                  <path fill="none" stroke="white" stroke-width="1.5" d="M0,-3.0v7 M-2.5,-0.5L0,-3.0L2.5,-0.5"/>
                </g>
                <g id="arrowLeft" xlink:href="#dirArrow" transform="rotate(270) translate(-36 17)" onmousedown="handlePan(-1,0)">
                  <use xlink:href="#rim" fill="#404040">
                        <set attributeName="fill" to="#808080" begin="arrowLeft.mouseover" end="arrowLeft.mouseout"/>
                  </use>
                  <path fill="none" stroke="white" stroke-width="1.5" d="M0,-3.0v7 M-2.5,-0.5L0,-3.0L2.5,-0.5"/>
                </g>
        </g>
        <svg viewBox="0 0 15 15" width="100%" height="30px" preserveAspectRatio="xMaxYMin meet">
         <g id="arrow_out" transform="scale(0.3 0.3)">
          <a xlink:href="main_8cpp__incl_org.svg" target="_base">
           <rect id="button" ry="5" rx="5" y="6" x="6" height="38" width="38"
                fill="#f2f5e9" fill-opacity="0.5" stroke="#606060" stroke-width="1.0"/>
           <path id="arrow"
             d="M 11.500037,31.436501 C 11.940474,20.09759 22.043105,11.32322 32.158766,21.979434 L 37.068811,17.246167 C 37.068811,17.246167 37.088388,32 37.088388,32 L 22.160133,31.978069 C 22.160133,31.978069 26.997745,27.140456 26.997745,27.140456 C 18.528582,18.264221 13.291696,25.230495 11.500037,31.436501 z"
             style="fill:#404040;"/>
          </a>
         </g>
        </svg>
</svg>
