<?xml version="1.0" encoding="UTF-8" standalone="no"?>
<!DOCTYPE svg PUBLIC "-//W3C//DTD SVG 1.1//EN"
 "http://www.w3.org/Graphics/SVG/1.1/DTD/svg11.dtd">
<!-- Generated by graphviz version 2.38.0 (20140413.2041)
 -->
<!-- Title: src/main.cpp Pages: 1 -->
<svg width="959pt" height="364pt"
 viewBox="0.00 0.00 959.00 364.00" xmlns="http://www.w3.org/2000/svg" xmlns:xlink="http://www.w3.org/1999/xlink">
<g id="graph0" class="graph" transform="scale(1 1) rotate(0) translate(4 360)">
<title>src/main.cpp</title>
<polygon fill="white" stroke="none" points="-4,4 -4,-360 955,-360 955,4 -4,4"/>
<!-- Node0 -->
<g id="node1" class="node"><title>Node0</title>
<polygon fill="#bfbfbf" stroke="black" points="411.5,-336.5 411.5,-355.5 484.5,-355.5 484.5,-336.5 411.5,-336.5"/>
<text text-anchor="middle" x="448" y="-343.5" font-family="Helvetica,sans-Serif" font-size="10.00">src/main.cpp</text>
</g>
<!-- Node1 -->
<g id="node2" class="node"><title>Node1</title>
<polygon fill="white" stroke="#bfbfbf" points="112,-0.5 112,-19.5 216,-19.5 216,-0.5 112,-0.5"/>
<text text-anchor="middle" x="164" y="-7.5" font-family="Helvetica,sans-Serif" font-size="10.00">SFML/Graphics.hpp</text>
</g>
<!-- Node0&#45;&gt;Node1 -->
<g id="edge1" class="edge"><title>Node0&#45;&gt;Node1</title>
<path fill="none" stroke="midnightblue" d="M411.338,-343.83C304.343,-339.432 0,-319.493 0,-235 0,-235 0,-235 0,-121 0,-65.6724 65.1738,-36.3874 113.351,-22.2979"/>
<polygon fill="midnightblue" stroke="midnightblue" points="114.345,-25.6542 123.039,-19.5987 112.466,-18.911 114.345,-25.6542"/>
</g>
<!-- Node2 -->
<g id="node3" class="node"><title>Node2</title>
<polygon fill="white" stroke="#bfbfbf" points="503,-280.5 503,-299.5 547,-299.5 547,-280.5 503,-280.5"/>
<text text-anchor="middle" x="525" y="-287.5" font-family="Helvetica,sans-Serif" font-size="10.00">cmath</text>
</g>
<!-- Node0&#45;&gt;Node2 -->
<g id="edge2" class="edge"><title>Node0&#45;&gt;Node2</title>
<path fill="none" stroke="midnightblue" d="M460.371,-336.324C472.158,-328.058 490.132,-315.453 504.136,-305.632"/>
<polygon fill="midnightblue" stroke="midnightblue" points="506.482,-308.262 512.659,-299.655 502.462,-302.531 506.482,-308.262"/>
</g>
<!-- Node3 -->
<g id="node4" class="node"><title>Node3</title>
<polygon fill="white" stroke="#bfbfbf" points="565.5,-280.5 565.5,-299.5 606.5,-299.5 606.5,-280.5 565.5,-280.5"/>
<text text-anchor="middle" x="586" y="-287.5" font-family="Helvetica,sans-Serif" font-size="10.00">ctime</text>
</g>
<!-- Node0&#45;&gt;Node3 -->
<g id="edge3" class="edge"><title>Node0&#45;&gt;Node3</title>
<path fill="none" stroke="midnightblue" d="M469.867,-336.444C493.049,-327.372 529.829,-312.98 555.776,-302.827"/>
<polygon fill="midnightblue" stroke="midnightblue" points="557.102,-306.066 565.139,-299.163 554.551,-299.548 557.102,-306.066"/>
</g>
<!-- Node4 -->
<g id="node5" class="node"><title>Node4</title>
<polygon fill="white" stroke="#bfbfbf" points="897,-224.5 897,-243.5 951,-243.5 951,-224.5 897,-224.5"/>
<text text-anchor="middle" x="924" y="-231.5" font-family="Helvetica,sans-Serif" font-size="10.00">iostream</text>
</g>
<!-- Node0&#45;&gt;Node4 -->
<g id="edge4" class="edge"><title>Node0&#45;&gt;Node4</title>
<path fill="none" stroke="midnightblue" d="M451.248,-336.429C457.234,-321.959 471.492,-292.995 494,-280 569.183,-236.593 797.216,-257.332 883,-244 884.256,-243.805 885.531,-243.595 886.816,-243.372"/>
<polygon fill="midnightblue" stroke="midnightblue" points="887.576,-246.79 896.742,-241.477 886.263,-239.915 887.576,-246.79"/>
</g>
<!-- Node5 -->
<g id="node6" class="node"><title>Node5</title>
<g id="a_node6"><a xlink:href="constantes_8h.html" target="_top" xlink:title="constantes.h">
<polygon fill="white" stroke="black" points="624.5,-280.5 624.5,-299.5 697.5,-299.5 697.5,-280.5 624.5,-280.5"/>
<text text-anchor="middle" x="661" y="-287.5" font-family="Helvetica,sans-Serif" font-size="10.00">constantes.h</text>
</a>
</g>
</g>
<!-- Node0&#45;&gt;Node5 -->
<g id="edge5" class="edge"><title>Node0&#45;&gt;Node5</title>
<path fill="none" stroke="midnightblue" d="M481.75,-336.444C518.518,-327.122 577.446,-312.183 617.622,-301.997"/>
<polygon fill="midnightblue" stroke="midnightblue" points="618.574,-305.367 627.407,-299.516 616.854,-298.581 618.574,-305.367"/>
</g>
<!-- Node6 -->
<g id="node7" class="node"><title>Node6</title>
<g id="a_node7"><a xlink:href="_entite_8h.html" target="_top" xlink:title="Entite.h">
<polygon fill="white" stroke="black" points="436,-56.5 436,-75.5 486,-75.5 486,-56.5 436,-56.5"/>
<text text-anchor="middle" x="461" y="-63.5" font-family="Helvetica,sans-Serif" font-size="10.00">Entite.h</text>
</a>
</g>
</g>
<!-- Node0&#45;&gt;Node6 -->
<g id="edge6" class="edge"><title>Node0&#45;&gt;Node6</title>
<path fill="none" stroke="midnightblue" d="M411.391,-341.873C340.892,-333.945 195.39,-307.351 221,-224 248.648,-134.017 366.359,-91.3127 426.026,-75.1324"/>
<polygon fill="midnightblue" stroke="midnightblue" points="426.979,-78.5009 435.77,-72.5866 425.21,-71.7282 426.979,-78.5009"/>
</g>
<!-- Node10 -->
<g id="node11" class="node"><title>Node10</title>
<g id="a_node11"><a xlink:href="_collision_8h.html" target="_top" xlink:title="Utilitaires/Collision.h">
<polygon fill="white" stroke="black" points="28.5,-112.5 28.5,-131.5 135.5,-131.5 135.5,-112.5 28.5,-112.5"/>
<text text-anchor="middle" x="82" y="-119.5" font-family="Helvetica,sans-Serif" font-size="10.00">Utilitaires/Collision.h</text>
</a>
</g>
</g>
<!-- Node0&#45;&gt;Node10 -->
<g id="edge11" class="edge"><title>Node0&#45;&gt;Node10</title>
<path fill="none" stroke="midnightblue" d="M411.263,-343.965C340.687,-341.266 189.613,-331.833 150,-300 100.218,-259.995 86.836,-178.972 83.2738,-142.075"/>
<polygon fill="midnightblue" stroke="midnightblue" points="86.7332,-141.435 82.4286,-131.754 79.7566,-142.007 86.7332,-141.435"/>
</g>
<!-- Node11 -->
<g id="node12" class="node"><title>Node11</title>
<g id="a_node12"><a xlink:href="_partie_8h.html" target="_top" xlink:title="Partie.h">
<polygon fill="white" stroke="black" points="397,-280.5 397,-299.5 447,-299.5 447,-280.5 397,-280.5"/>
<text text-anchor="middle" x="422" y="-287.5" font-family="Helvetica,sans-Serif" font-size="10.00">Partie.h</text>
</a>
</g>
</g>
<!-- Node0&#45;&gt;Node11 -->
<g id="edge13" class="edge"><title>Node0&#45;&gt;Node11</title>
<path fill="none" stroke="midnightblue" d="M443.707,-336.083C440.148,-328.691 434.978,-317.953 430.576,-308.811"/>
<polygon fill="midnightblue" stroke="midnightblue" points="433.705,-307.243 426.213,-299.751 427.398,-310.279 433.705,-307.243"/>
</g>
<!-- Node6&#45;&gt;Node1 -->
<g id="edge10" class="edge"><title>Node6&#45;&gt;Node1</title>
<path fill="none" stroke="midnightblue" d="M435.934,-60.4425C388.742,-51.8622 285.633,-33.1151 220.814,-21.3298"/>
<polygon fill="midnightblue" stroke="midnightblue" points="221.219,-17.8461 210.754,-19.5007 219.966,-24.7332 221.219,-17.8461"/>
</g>
<!-- Node7 -->
<g id="node8" class="node"><title>Node7</title>
<polygon fill="white" stroke="#bfbfbf" points="605,-0.5 605,-19.5 649,-19.5 649,-0.5 605,-0.5"/>
<text text-anchor="middle" x="627" y="-7.5" font-family="Helvetica,sans-Serif" font-size="10.00">vector</text>
</g>
<!-- Node6&#45;&gt;Node7 -->
<g id="edge7" class="edge"><title>Node6&#45;&gt;Node7</title>
<path fill="none" stroke="midnightblue" d="M486.212,-56.7986C515.348,-47.3207 563.344,-31.7075 595.065,-21.3886"/>
<polygon fill="midnightblue" stroke="midnightblue" points="596.32,-24.6607 604.747,-18.2389 594.155,-18.0041 596.32,-24.6607"/>
</g>
<!-- Node8 -->
<g id="node9" class="node"><title>Node8</title>
<polygon fill="white" stroke="#bfbfbf" points="435,-0.5 435,-19.5 487,-19.5 487,-0.5 435,-0.5"/>
<text text-anchor="middle" x="461" y="-7.5" font-family="Helvetica,sans-Serif" font-size="10.00">memory</text>
</g>
<!-- Node6&#45;&gt;Node8 -->
<g id="edge8" class="edge"><title>Node6&#45;&gt;Node8</title>
<path fill="none" stroke="midnightblue" d="M461,-56.083C461,-49.0059 461,-38.8611 461,-29.9865"/>
<polygon fill="midnightblue" stroke="midnightblue" points="464.5,-29.751 461,-19.7511 457.5,-29.7511 464.5,-29.751"/>
</g>
<!-- Node9 -->
<g id="node10" class="node"><title>Node9</title>
<polygon fill="white" stroke="#bfbfbf" points="277,-0.5 277,-19.5 375,-19.5 375,-0.5 277,-0.5"/>
<text text-anchor="middle" x="326" y="-7.5" font-family="Helvetica,sans-Serif" font-size="10.00">SFML/System.hpp</text>
</g>
<!-- Node6&#45;&gt;Node9 -->
<g id="edge9" class="edge"><title>Node6&#45;&gt;Node9</title>
<path fill="none" stroke="midnightblue" d="M439.609,-56.4435C417.293,-47.5171 382.097,-33.4387 356.792,-23.3168"/>
<polygon fill="midnightblue" stroke="midnightblue" points="357.876,-19.9807 347.291,-19.5164 355.276,-26.4801 357.876,-19.9807"/>
</g>
<!-- Node10&#45;&gt;Node1 -->
<g id="edge12" class="edge"><title>Node10&#45;&gt;Node1</title>
<path fill="none" stroke="midnightblue" d="M88.4344,-112.368C102.027,-94.135 133.864,-51.4257 151.569,-27.6752"/>
<polygon fill="midnightblue" stroke="midnightblue" points="154.425,-29.7007 157.595,-19.5914 148.813,-25.5171 154.425,-29.7007"/>
</g>
<!-- Node11&#45;&gt;Node1 -->
<g id="edge18" class="edge"><title>Node11&#45;&gt;Node1</title>
<path fill="none" stroke="midnightblue" d="M396.7,-286.633C348.427,-281.606 245.767,-268.285 221,-244 160.949,-185.119 160.171,-74.1349 162.519,-29.8974"/>
<polygon fill="midnightblue" stroke="midnightblue" points="166.025,-29.9286 163.184,-19.7217 159.039,-29.4725 166.025,-29.9286"/>
</g>
<!-- Node11&#45;&gt;Node4 -->
<g id="edge17" class="edge"><title>Node11&#45;&gt;Node4</title>
<path fill="none" stroke="midnightblue" d="M447.073,-282.663C451.683,-281.656 456.469,-280.712 461,-280 646.952,-250.763 696.894,-272.24 883,-244 884.256,-243.809 885.532,-243.603 886.818,-243.384"/>
<polygon fill="midnightblue" stroke="midnightblue" points="887.571,-246.803 896.746,-241.504 886.269,-239.926 887.571,-246.803"/>
</g>
<!-- Node11&#45;&gt;Node7 -->
<g id="edge14" class="edge"><title>Node11&#45;&gt;Node7</title>
<path fill="none" stroke="midnightblue" d="M447.268,-284.262C507.479,-272.966 654.81,-245.293 660,-244 754.391,-220.481 869,-276.278 869,-179 869,-179 869,-179 869,-121 869,-30.069 725.647,-13.9484 659.606,-11.3465"/>
<polygon fill="midnightblue" stroke="midnightblue" points="659.437,-7.83968 649.333,-11.0271 659.219,-14.8363 659.437,-7.83968"/>
</g>
<!-- Node11&#45;&gt;Node9 -->
<g id="edge19" class="edge"><title>Node11&#45;&gt;Node9</title>
<path fill="none" stroke="midnightblue" d="M416.888,-280.474C400.392,-252.443 348.519,-160.115 329,-76 325.445,-60.6799 324.869,-42.7993 325.084,-29.674"/>
<polygon fill="midnightblue" stroke="midnightblue" points="328.586,-29.6585 325.421,-19.5476 321.59,-29.4256 328.586,-29.6585"/>
</g>
<!-- Node12 -->
<g id="node13" class="node"><title>Node12</title>
<polygon fill="white" stroke="#bfbfbf" points="715.5,-56.5 715.5,-75.5 756.5,-75.5 756.5,-56.5 715.5,-56.5"/>
<text text-anchor="middle" x="736" y="-63.5" font-family="Helvetica,sans-Serif" font-size="10.00">string</text>
</g>
<!-- Node11&#45;&gt;Node12 -->
<g id="edge15" class="edge"><title>Node11&#45;&gt;Node12</title>
<path fill="none" stroke="midnightblue" d="M447.261,-284.309C498.719,-274.634 612.18,-252.647 628,-244 689.496,-210.386 712.472,-196.868 739,-132 745.013,-117.296 743.515,-99.1326 740.943,-85.7474"/>
<polygon fill="midnightblue" stroke="midnightblue" points="744.311,-84.7772 738.671,-75.8084 737.487,-86.3369 744.311,-84.7772"/>
</g>
<!-- Node13 -->
<g id="node14" class="node"><title>Node13</title>
<polygon fill="white" stroke="#bfbfbf" points="338,-56.5 338,-75.5 394,-75.5 394,-56.5 338,-56.5"/>
<text text-anchor="middle" x="366" y="-63.5" font-family="Helvetica,sans-Serif" font-size="10.00">algorithm</text>
</g>
<!-- Node11&#45;&gt;Node13 -->
<g id="edge16" class="edge"><title>Node11&#45;&gt;Node13</title>
<path fill="none" stroke="midnightblue" d="M419.805,-280.297C411.548,-247.563 382.239,-131.375 370.709,-85.6664"/>
<polygon fill="midnightblue" stroke="midnightblue" points="374.081,-84.7239 368.241,-75.8837 367.293,-86.4361 374.081,-84.7239"/>
</g>
<!-- Node14 -->
<g id="node15" class="node"><title>Node14</title>
<g id="a_node15"><a xlink:href="_capacite_8h.html" target="_top" xlink:title="Capacites/Capacite.h">
<polygon fill="white" stroke="black" points="488.5,-168.5 488.5,-187.5 599.5,-187.5 599.5,-168.5 488.5,-168.5"/>
<text text-anchor="middle" x="544" y="-175.5" font-family="Helvetica,sans-Serif" font-size="10.00">Capacites/Capacite.h</text>
</a>
</g>
</g>
<!-- Node11&#45;&gt;Node14 -->
<g id="edge20" class="edge"><title>Node11&#45;&gt;Node14</title>
<path fill="none" stroke="midnightblue" d="M428.584,-280.435C438.801,-267.436 459.443,-242.306 480,-224 492.815,-212.588 508.569,-201.48 521.239,-193.156"/>
<polygon fill="midnightblue" stroke="midnightblue" points="523.321,-195.978 529.834,-187.622 519.531,-190.093 523.321,-195.978"/>
</g>
<!-- Node15 -->
<g id="node16" class="node"><title>Node15</title>
<g id="a_node16"><a xlink:href="_projectile_8h.html" target="_top" xlink:title="../Projectiles/Projectile.h">
<polygon fill="white" stroke="black" points="565.5,-112.5 565.5,-131.5 688.5,-131.5 688.5,-112.5 565.5,-112.5"/>
<text text-anchor="middle" x="627" y="-119.5" font-family="Helvetica,sans-Serif" font-size="10.00">../Projectiles/Projectile.h</text>
</a>
</g>
</g>
<!-- Node11&#45;&gt;Node15 -->
<g id="edge30" class="edge"><title>Node11&#45;&gt;Node15</title>
<path fill="none" stroke="midnightblue" d="M447.186,-284.231C494.948,-274.994 595.004,-254.635 607,-244 635.718,-218.541 633.911,-168.946 630.326,-141.826"/>
<polygon fill="midnightblue" stroke="midnightblue" points="633.75,-141.063 628.765,-131.714 626.832,-142.131 633.75,-141.063"/>
</g>
<!-- Node16 -->
<g id="node17" class="node"><title>Node16</title>
<g id="a_node17"><a xlink:href="_vaisseau_8h.html" target="_top" xlink:title="Vaisseau/Vaisseau.h">
<polygon fill="white" stroke="black" points="489.5,-224.5 489.5,-243.5 598.5,-243.5 598.5,-224.5 489.5,-224.5"/>
<text text-anchor="middle" x="544" y="-231.5" font-family="Helvetica,sans-Serif" font-size="10.00">Vaisseau/Vaisseau.h</text>
</a>
</g>
</g>
<!-- Node11&#45;&gt;Node16 -->
<g id="edge31" class="edge"><title>Node11&#45;&gt;Node16</title>
<path fill="none" stroke="midnightblue" d="M441.331,-280.444C461.32,-271.596 492.743,-257.687 515.564,-247.586"/>
<polygon fill="midnightblue" stroke="midnightblue" points="517.032,-250.764 524.759,-243.516 514.198,-244.363 517.032,-250.764"/>
</g>
<!-- Node17 -->
<g id="node18" class="node"><title>Node17</title>
<g id="a_node18"><a xlink:href="_input_8h.html" target="_top" xlink:title="Interface/Input.h">
<polygon fill="white" stroke="black" points="230,-224.5 230,-243.5 318,-243.5 318,-224.5 230,-224.5"/>
<text text-anchor="middle" x="274" y="-231.5" font-family="Helvetica,sans-Serif" font-size="10.00">Interface/Input.h</text>
</a>
</g>
</g>
<!-- Node11&#45;&gt;Node17 -->
<g id="edge38" class="edge"><title>Node11&#45;&gt;Node17</title>
<path fill="none" stroke="midnightblue" d="M398.549,-280.444C373.867,-271.438 334.815,-257.189 307.023,-247.049"/>
<polygon fill="midnightblue" stroke="midnightblue" points="307.935,-243.656 297.341,-243.516 305.536,-250.232 307.935,-243.656"/>
</g>
<!-- Node14&#45;&gt;Node6 -->
<g id="edge29" class="edge"><title>Node14&#45;&gt;Node6</title>
<path fill="none" stroke="midnightblue" d="M537.487,-168.368C523.729,-150.135 491.503,-107.426 473.582,-83.6752"/>
<polygon fill="midnightblue" stroke="midnightblue" points="476.3,-81.4659 467.483,-75.5914 470.712,-85.6821 476.3,-81.4659"/>
</g>
<!-- Node14&#45;&gt;Node7 -->
<g id="edge21" class="edge"><title>Node14&#45;&gt;Node7</title>
<path fill="none" stroke="midnightblue" d="M544.43,-168.251C545.318,-155.442 548.001,-131.044 556,-112 569.82,-79.0972 595.696,-46.2699 612.101,-27.3381"/>
<polygon fill="midnightblue" stroke="midnightblue" points="614.885,-29.474 618.894,-19.6671 609.644,-24.8331 614.885,-29.474"/>
</g>
<!-- Node14&#45;&gt;Node12 -->
<g id="edge22" class="edge"><title>Node14&#45;&gt;Node12</title>
<path fill="none" stroke="midnightblue" d="M599.839,-170.691C631.013,-164.841 669.073,-153.594 697,-132 712.582,-119.951 723.275,-99.7728 729.469,-85.0893"/>
<polygon fill="midnightblue" stroke="midnightblue" points="732.812,-86.1515 733.19,-75.5634 726.292,-83.6046 732.812,-86.1515"/>
</g>
<!-- Node14&#45;&gt;Node13 -->
<g id="edge23" class="edge"><title>Node14&#45;&gt;Node13</title>
<path fill="none" stroke="midnightblue" d="M530.033,-168.368C499.358,-149.412 425.874,-104.001 388.561,-80.9424"/>
<polygon fill="midnightblue" stroke="midnightblue" points="390.249,-77.8711 379.902,-75.5914 386.569,-83.8258 390.249,-77.8711"/>
</g>
<!-- Node14&#45;&gt;Node15 -->
<g id="edge24" class="edge"><title>Node14&#45;&gt;Node15</title>
<path fill="none" stroke="midnightblue" d="M557.335,-168.324C570.162,-159.979 589.785,-147.212 604.94,-137.352"/>
<polygon fill="midnightblue" stroke="midnightblue" points="607.224,-140.042 613.698,-131.655 603.407,-134.174 607.224,-140.042"/>
</g>
<!-- Node15&#45;&gt;Node6 -->
<g id="edge28" class="edge"><title>Node15&#45;&gt;Node6</title>
<path fill="none" stroke="midnightblue" d="M600.697,-112.444C572.319,-103.212 527.004,-88.4712 495.719,-78.2941"/>
<polygon fill="midnightblue" stroke="midnightblue" points="496.686,-74.9281 486.094,-75.1629 494.52,-81.5848 496.686,-74.9281"/>
</g>
<!-- Node15&#45;&gt;Node7 -->
<g id="edge25" class="edge"><title>Node15&#45;&gt;Node7</title>
<path fill="none" stroke="midnightblue" d="M627,-112.368C627,-94.617 627,-53.6664 627,-29.5974"/>
<polygon fill="midnightblue" stroke="midnightblue" points="630.5,-29.5914 627,-19.5914 623.5,-29.5915 630.5,-29.5914"/>
</g>
<!-- Node15&#45;&gt;Node12 -->
<g id="edge26" class="edge"><title>Node15&#45;&gt;Node12</title>
<path fill="none" stroke="midnightblue" d="M644.513,-112.324C662.072,-103.625 689.331,-90.1202 709.531,-80.113"/>
<polygon fill="midnightblue" stroke="midnightblue" points="711.124,-83.23 718.531,-75.6545 708.016,-76.9575 711.124,-83.23"/>
</g>
<!-- Node15&#45;&gt;Node13 -->
<g id="edge27" class="edge"><title>Node15&#45;&gt;Node13</title>
<path fill="none" stroke="midnightblue" d="M585.644,-112.444C535.828,-102.137 452.814,-84.9616 404.371,-74.9388"/>
<polygon fill="midnightblue" stroke="midnightblue" points="404.794,-71.4523 394.292,-72.8536 403.376,-78.3071 404.794,-71.4523"/>
</g>
<!-- Node16&#45;&gt;Node6 -->
<g id="edge36" class="edge"><title>Node16&#45;&gt;Node6</title>
<path fill="none" stroke="midnightblue" d="M523.865,-224.487C508.969,-217.091 489.512,-204.899 479,-188 459.252,-156.253 458.152,-110.951 459.392,-85.7485"/>
<polygon fill="midnightblue" stroke="midnightblue" points="462.888,-85.9164 460.067,-75.7041 455.904,-85.4467 462.888,-85.9164"/>
</g>
<!-- Node16&#45;&gt;Node7 -->
<g id="edge32" class="edge"><title>Node16&#45;&gt;Node7</title>
<path fill="none" stroke="midnightblue" d="M588.603,-224.471C617.337,-217.619 654.666,-206.094 684,-188 736.285,-155.749 751.754,-135.986 765,-76 766.917,-67.3202 770.221,-63.194 765,-56 741.063,-23.0175 692.298,-13.7482 659.626,-11.3942"/>
<polygon fill="midnightblue" stroke="midnightblue" points="659.395,-7.87693 649.222,-10.8368 659.02,-14.8669 659.395,-7.87693"/>
</g>
<!-- Node16&#45;&gt;Node12 -->
<g id="edge33" class="edge"><title>Node16&#45;&gt;Node12</title>
<path fill="none" stroke="midnightblue" d="M573.403,-224.448C613.108,-211.319 683.128,-182.287 720,-132 729.771,-118.674 733.624,-100.099 735.118,-86.217"/>
<polygon fill="midnightblue" stroke="midnightblue" points="738.636,-86.1126 735.897,-75.8779 731.656,-85.5867 738.636,-86.1126"/>
</g>
<!-- Node16&#45;&gt;Node13 -->
<g id="edge34" class="edge"><title>Node16&#45;&gt;Node13</title>
<path fill="none" stroke="midnightblue" d="M524.826,-224.349C508.244,-216.328 484.149,-203.34 466,-188 428.35,-156.178 393.978,-108.913 377.05,-83.9176"/>
<polygon fill="midnightblue" stroke="midnightblue" points="379.904,-81.888 371.446,-75.5069 374.078,-85.7696 379.904,-81.888"/>
</g>
<!-- Node16&#45;&gt;Node14 -->
<g id="edge35" class="edge"><title>Node16&#45;&gt;Node14</title>
<path fill="none" stroke="midnightblue" d="M544,-224.083C544,-217.006 544,-206.861 544,-197.986"/>
<polygon fill="midnightblue" stroke="midnightblue" points="547.5,-197.751 544,-187.751 540.5,-197.751 547.5,-197.751"/>
</g>
<!-- Node16&#45;&gt;Node15 -->
<g id="edge37" class="edge"><title>Node16&#45;&gt;Node15</title>
<path fill="none" stroke="midnightblue" d="M562.314,-224.459C576.738,-216.833 596.3,-204.347 608,-188 617.729,-174.406 622.512,-155.861 624.842,-142.058"/>
<polygon fill="midnightblue" stroke="midnightblue" points="628.359,-142.18 626.277,-131.792 621.426,-141.211 628.359,-142.18"/>
</g>
<!-- Node17&#45;&gt;Node1 -->
<g id="edge39" class="edge"><title>Node17&#45;&gt;Node1</title>
<path fill="none" stroke="midnightblue" d="M269.688,-224.297C253.4,-191.425 195.41,-74.3911 172.964,-29.0904"/>
<polygon fill="midnightblue" stroke="midnightblue" points="175.978,-27.2902 168.402,-19.8837 169.706,-30.3981 175.978,-27.2902"/>
</g>
<!-- Node18 -->
<g id="node19" class="node"><title>Node18</title>
<polygon fill="white" stroke="#bfbfbf" points="268,-168.5 268,-187.5 318,-187.5 318,-168.5 268,-168.5"/>
<text text-anchor="middle" x="293" y="-175.5" font-family="Helvetica,sans-Serif" font-size="10.00">optional</text>
</g>
<!-- Node17&#45;&gt;Node18 -->
<g id="edge40" class="edge"><title>Node17&#45;&gt;Node18</title>
<path fill="none" stroke="midnightblue" d="M277.137,-224.083C279.683,-216.849 283.356,-206.409 286.527,-197.397"/>
<polygon fill="midnightblue" stroke="midnightblue" points="289.903,-198.346 289.921,-187.751 283.3,-196.023 289.903,-198.346"/>
</g>
</g>
</svg>
