<?xml version="1.0" encoding="UTF-8" standalone="no"?>
<!DOCTYPE svg PUBLIC "-//W3C//DTD SVG 1.1//EN"
 "http://www.w3.org/Graphics/SVG/1.1/DTD/svg11.dtd">
<!-- Generated by graphviz version 2.38.0 (20140413.2041)
 -->
<!-- Title: src/main.cpp Pages: 1 -->
<!--zoomable 364 -->
<svg id="main" version="1.1" xmlns="http://www.w3.org/2000/svg" xmlns:xlink="http://www.w3.org/1999/xlink" xml:space="preserve" onload="init(evt)">
<style type="text/css"><![CDATA[
.edge:hover path { stroke: red; }
.edge:hover polygon { stroke: red; fill: red; }
]]></style>
<script type="text/javascript"><![CDATA[
var edges = document.getElementsByTagName('g');
if (edges && edges.length) {
  for (var i=0;i<edges.length;i++) {
    if (edges[i].id.substr(0,4)=='edge') {
      edges[i].setAttribute('class','edge');
    }
  }
}
]]></script>
        <defs>
                <circle id="rim" cx="0" cy="0" r="7"/>
                <circle id="rim2" cx="0" cy="0" r="3.5"/>
                <g id="zoomPlus">
                        <use xlink:href="#rim" fill="#404040">
                                <set attributeName="fill" to="#808080" begin="zoomplus.mouseover" end="zoomplus.mouseout"/>
                        </use>
                        <path d="M-4,0h8M0,-4v8" fill="none" stroke="white" stroke-width="1.5" pointer-events="none"/>
                </g>
                <g id="zoomMin">
                        <use xlink:href="#rim" fill="#404040">
                                <set attributeName="fill" to="#808080" begin="zoomminus.mouseover" end="zoomminus.mouseout"/>
                        </use>
                        <path d="M-4,0h8" fill="none" stroke="white" stroke-width="1.5" pointer-events="none"/>
                </g>
                <g id="dirArrow">
                        <path fill="none" stroke="white" stroke-width="1.5" d="M0,-3.0v7 M-2.5,-0.5L0,-3.0L2.5,-0.5"/>
                </g>
               <g id="resetDef">
                       <use xlink:href="#rim2" fill="#404040">
                               <set attributeName="fill" to="#808080" begin="reset.mouseover" end="reset.mouseout"/>
                       </use>
               </g>
        </defs>

<script type="text/javascript">
var viewWidth = 1562;
var viewHeight = 364;
var sectionId = 'dynsection-0';
</script>
<script xlink:href="svgpan.js"/>
<svg id="graph" class="graph">
<g id="viewport">
<title>src/main.cpp</title>
<polygon fill="white" stroke="none" points="-4,4 -4,-360 1558,-360 1558,4 -4,4"/>
<!-- Node0 -->
<g id="node1" class="node"><title>Node0</title>
<polygon fill="#bfbfbf" stroke="black" points="1119.5,-336.5 1119.5,-355.5 1192.5,-355.5 1192.5,-336.5 1119.5,-336.5"/>
<text text-anchor="middle" x="1156" y="-343.5" font-family="Helvetica,sans-Serif" font-size="10.00">src/main.cpp</text>
</g>
<!-- Node1 -->
<g id="node2" class="node"><title>Node1</title>
<polygon fill="white" stroke="#bfbfbf" points="1104,-0.5 1104,-19.5 1208,-19.5 1208,-0.5 1104,-0.5"/>
<text text-anchor="middle" x="1156" y="-7.5" font-family="Helvetica,sans-Serif" font-size="10.00">SFML/Graphics.hpp</text>
</g>
<!-- Node0&#45;&gt;Node1 -->
<g id="edge1" class="edge"><title>Node0&#45;&gt;Node1</title>
<path fill="none" stroke="midnightblue" d="M1173.18,-336.345C1187.33,-328.494 1207.08,-315.752 1220,-300 1294.23,-209.522 1389.89,-149.116 1319,-56 1306.51,-39.6001 1258.68,-27.6521 1218.04,-20.2065"/>
<polygon fill="midnightblue" stroke="midnightblue" points="1218.61,-16.7537 1208.16,-18.4566 1217.39,-23.6465 1218.61,-16.7537"/>
</g>
<!-- Node2 -->
<g id="node3" class="node"><title>Node2</title>
<polygon fill="white" stroke="#bfbfbf" points="1334,-280.5 1334,-299.5 1378,-299.5 1378,-280.5 1334,-280.5"/>
<text text-anchor="middle" x="1356" y="-287.5" font-family="Helvetica,sans-Serif" font-size="10.00">cmath</text>
</g>
<!-- Node0&#45;&gt;Node2 -->
<g id="edge2" class="edge"><title>Node0&#45;&gt;Node2</title>
<path fill="none" stroke="midnightblue" d="M1187.69,-336.444C1224.94,-326.386 1286.42,-309.787 1323.86,-299.677"/>
<polygon fill="midnightblue" stroke="midnightblue" points="1325,-302.994 1333.75,-297.008 1323.18,-296.236 1325,-302.994"/>
</g>
<!-- Node3 -->
<g id="node4" class="node"><title>Node3</title>
<polygon fill="white" stroke="#bfbfbf" points="1396.5,-280.5 1396.5,-299.5 1437.5,-299.5 1437.5,-280.5 1396.5,-280.5"/>
<text text-anchor="middle" x="1417" y="-287.5" font-family="Helvetica,sans-Serif" font-size="10.00">ctime</text>
</g>
<!-- Node0&#45;&gt;Node3 -->
<g id="edge3" class="edge"><title>Node0&#45;&gt;Node3</title>
<path fill="none" stroke="midnightblue" d="M1192.65,-339.015C1236.45,-331.61 1312.11,-318.02 1386.42,-299.931"/>
<polygon fill="midnightblue" stroke="midnightblue" points="1387.54,-303.258 1396.42,-297.467 1385.87,-296.462 1387.54,-303.258"/>
</g>
<!-- Node4 -->
<g id="node5" class="node"><title>Node4</title>
<polygon fill="white" stroke="#bfbfbf" points="979,-224.5 979,-243.5 1033,-243.5 1033,-224.5 979,-224.5"/>
<text text-anchor="middle" x="1006" y="-231.5" font-family="Helvetica,sans-Serif" font-size="10.00">iostream</text>
</g>
<!-- Node0&#45;&gt;Node4 -->
<g id="edge4" class="edge"><title>Node0&#45;&gt;Node4</title>
<path fill="none" stroke="midnightblue" d="M1120.64,-336.427C1097.73,-329.512 1068.3,-317.933 1047,-300 1031.89,-287.277 1020.54,-267.528 1013.66,-253.136"/>
<polygon fill="midnightblue" stroke="midnightblue" points="1016.75,-251.462 1009.45,-243.781 1010.36,-254.336 1016.75,-251.462"/>
</g>
<!-- Node5 -->
<g id="node6" class="node"><title>Node5</title>
<g id="a_node6"><a xlink:href="constantes_8h.html" target="_top" xlink:title="constantes.h">
<polygon fill="white" stroke="black" points="907.5,-0.5 907.5,-19.5 980.5,-19.5 980.5,-0.5 907.5,-0.5"/>
<text text-anchor="middle" x="944" y="-7.5" font-family="Helvetica,sans-Serif" font-size="10.00">constantes.h</text>
</a>
</g>
</g>
<!-- Node0&#45;&gt;Node5 -->
<g id="edge5" class="edge"><title>Node0&#45;&gt;Node5</title>
<path fill="none" stroke="midnightblue" d="M1147.83,-336.384C1132.07,-318.812 1099,-276.942 1099,-235 1099,-235 1099,-235 1099,-177 1099,-146.902 1097.2,-136.701 1080,-112 1051.83,-71.5342 1002.22,-40.7519 971.344,-24.3253"/>
<polygon fill="midnightblue" stroke="midnightblue" points="972.896,-21.1872 962.407,-19.6935 969.675,-27.4022 972.896,-21.1872"/>
</g>
<!-- Node6 -->
<g id="node7" class="node"><title>Node6</title>
<g id="a_node7"><a xlink:href="_entite_8h.html" target="_top" xlink:title="Entite.h">
<polygon fill="white" stroke="black" points="714,-56.5 714,-75.5 764,-75.5 764,-56.5 714,-56.5"/>
<text text-anchor="middle" x="739" y="-63.5" font-family="Helvetica,sans-Serif" font-size="10.00">Entite.h</text>
</a>
</g>
</g>
<!-- Node0&#45;&gt;Node6 -->
<g id="edge6" class="edge"><title>Node0&#45;&gt;Node6</title>
<path fill="none" stroke="midnightblue" d="M1137.32,-336.402C1121.87,-328.585 1100.09,-315.861 1085,-300 1058.25,-271.88 1067.97,-252.842 1042,-224 984.648,-160.301 961.83,-150 885,-112 849.058,-94.2234 804.652,-81.7493 774.312,-74.5144"/>
<polygon fill="midnightblue" stroke="midnightblue" points="774.736,-71.02 764.204,-72.1737 773.156,-77.8395 774.736,-71.02"/>
</g>
<!-- Node10 -->
<g id="node11" class="node"><title>Node10</title>
<g id="a_node11"><a xlink:href="_collision_8h.html" target="_top" xlink:title="Utilitaires/Collision.h">
<polygon fill="white" stroke="black" points="1203.5,-56.5 1203.5,-75.5 1310.5,-75.5 1310.5,-56.5 1203.5,-56.5"/>
<text text-anchor="middle" x="1257" y="-63.5" font-family="Helvetica,sans-Serif" font-size="10.00">Utilitaires/Collision.h</text>
</a>
</g>
</g>
<!-- Node0&#45;&gt;Node10 -->
<g id="edge12" class="edge"><title>Node0&#45;&gt;Node10</title>
<path fill="none" stroke="midnightblue" d="M1166.03,-336.433C1184.95,-319.268 1224,-278.556 1224,-235 1224,-235 1224,-235 1224,-177 1224,-143.245 1238.43,-106.028 1248.21,-84.6908"/>
<polygon fill="midnightblue" stroke="midnightblue" points="1251.41,-86.1095 1252.55,-75.5762 1245.09,-83.0993 1251.41,-86.1095"/>
</g>
<!-- Node11 -->
<g id="node12" class="node"><title>Node11</title>
<g id="a_node12"><a xlink:href="_partie_8h.html" target="_top" xlink:title="Partie.h">
<polygon fill="white" stroke="black" points="582,-280.5 582,-299.5 632,-299.5 632,-280.5 582,-280.5"/>
<text text-anchor="middle" x="607" y="-287.5" font-family="Helvetica,sans-Serif" font-size="10.00">Partie.h</text>
</a>
</g>
</g>
<!-- Node0&#45;&gt;Node11 -->
<g id="edge14" class="edge"><title>Node0&#45;&gt;Node11</title>
<path fill="none" stroke="midnightblue" d="M1119.13,-341.373C1018.57,-331.482 740.539,-304.135 642.102,-294.453"/>
<polygon fill="midnightblue" stroke="midnightblue" points="642.369,-290.962 632.075,-293.466 641.684,-297.929 642.369,-290.962"/>
</g>
<!-- Node21 -->
<g id="node22" class="node"><title>Node21</title>
<g id="a_node22"><a xlink:href="_divers_8h.html" target="_top" xlink:title="Utilitaires/Divers.h">
<polygon fill="white" stroke="black" points="1456,-280.5 1456,-299.5 1554,-299.5 1554,-280.5 1456,-280.5"/>
<text text-anchor="middle" x="1505" y="-287.5" font-family="Helvetica,sans-Serif" font-size="10.00">Utilitaires/Divers.h</text>
</a>
</g>
</g>
<!-- Node0&#45;&gt;Node21 -->
<g id="edge49" class="edge"><title>Node0&#45;&gt;Node21</title>
<path fill="none" stroke="midnightblue" d="M1192.69,-339.323C1252.95,-330 1373.39,-311.363 1445.83,-300.155"/>
<polygon fill="midnightblue" stroke="midnightblue" points="1446.37,-303.613 1455.72,-298.625 1445.3,-296.695 1446.37,-303.613"/>
</g>
<!-- Node23 -->
<g id="node24" class="node"><title>Node23</title>
<g id="a_node24"><a xlink:href="__projectiles_8h.html" target="_top" xlink:title="Projectiles/_projectiles.h">
<polygon fill="white" stroke="black" points="228.5,-224.5 228.5,-243.5 351.5,-243.5 351.5,-224.5 228.5,-224.5"/>
<text text-anchor="middle" x="290" y="-231.5" font-family="Helvetica,sans-Serif" font-size="10.00">Projectiles/_projectiles.h</text>
</a>
</g>
</g>
<!-- Node0&#45;&gt;Node23 -->
<g id="edge51" class="edge"><title>Node0&#45;&gt;Node23</title>
<path fill="none" stroke="midnightblue" d="M1119.29,-344.061C1026.99,-341.289 777.975,-331.273 573,-300 485.452,-286.643 384.79,-261.008 330.241,-246.236"/>
<polygon fill="midnightblue" stroke="midnightblue" points="330.853,-242.776 320.285,-243.522 329.012,-249.529 330.853,-242.776"/>
</g>
<!-- Node6&#45;&gt;Node1 -->
<g id="edge10" class="edge"><title>Node6&#45;&gt;Node1</title>
<path fill="none" stroke="midnightblue" d="M764.146,-61.7437C828.471,-53.4138 1000.48,-31.1386 1093.77,-19.0582"/>
<polygon fill="midnightblue" stroke="midnightblue" points="1094.45,-22.4992 1103.92,-17.7439 1093.56,-15.5572 1094.45,-22.4992"/>
</g>
<!-- Node6&#45;&gt;Node5 -->
<g id="edge11" class="edge"><title>Node6&#45;&gt;Node5</title>
<path fill="none" stroke="midnightblue" d="M764.137,-58.3785C798.411,-49.3503 860.275,-33.0544 901.745,-22.1307"/>
<polygon fill="midnightblue" stroke="midnightblue" points="902.781,-25.4772 911.56,-19.5453 900.998,-18.7081 902.781,-25.4772"/>
</g>
<!-- Node7 -->
<g id="node8" class="node"><title>Node7</title>
<polygon fill="white" stroke="#bfbfbf" points="489,-0.5 489,-19.5 533,-19.5 533,-0.5 489,-0.5"/>
<text text-anchor="middle" x="511" y="-7.5" font-family="Helvetica,sans-Serif" font-size="10.00">vector</text>
</g>
<!-- Node6&#45;&gt;Node7 -->
<g id="edge7" class="edge"><title>Node6&#45;&gt;Node7</title>
<path fill="none" stroke="midnightblue" d="M713.729,-59.0147C672.102,-49.1557 589.167,-29.5132 543.327,-18.6564"/>
<polygon fill="midnightblue" stroke="midnightblue" points="543.865,-15.187 533.327,-16.288 542.251,-21.9985 543.865,-15.187"/>
</g>
<!-- Node8 -->
<g id="node9" class="node"><title>Node8</title>
<polygon fill="white" stroke="#bfbfbf" points="713,-0.5 713,-19.5 765,-19.5 765,-0.5 713,-0.5"/>
<text text-anchor="middle" x="739" y="-7.5" font-family="Helvetica,sans-Serif" font-size="10.00">memory</text>
</g>
<!-- Node6&#45;&gt;Node8 -->
<g id="edge8" class="edge"><title>Node6&#45;&gt;Node8</title>
<path fill="none" stroke="midnightblue" d="M739,-56.083C739,-49.0059 739,-38.8611 739,-29.9865"/>
<polygon fill="midnightblue" stroke="midnightblue" points="742.5,-29.751 739,-19.7511 735.5,-29.7511 742.5,-29.751"/>
</g>
<!-- Node9 -->
<g id="node10" class="node"><title>Node9</title>
<polygon fill="white" stroke="#bfbfbf" points="162,-0.5 162,-19.5 260,-19.5 260,-0.5 162,-0.5"/>
<text text-anchor="middle" x="211" y="-7.5" font-family="Helvetica,sans-Serif" font-size="10.00">SFML/System.hpp</text>
</g>
<!-- Node6&#45;&gt;Node9 -->
<g id="edge9" class="edge"><title>Node6&#45;&gt;Node9</title>
<path fill="none" stroke="midnightblue" d="M713.889,-62.4318C634.115,-54.2731 384.973,-28.7927 270.098,-17.0441"/>
<polygon fill="midnightblue" stroke="midnightblue" points="270.377,-13.5544 260.072,-16.0188 269.664,-20.5181 270.377,-13.5544"/>
</g>
<!-- Node10&#45;&gt;Node1 -->
<g id="edge13" class="edge"><title>Node10&#45;&gt;Node1</title>
<path fill="none" stroke="midnightblue" d="M1240.77,-56.324C1224.65,-47.7034 1199.7,-34.3643 1181.04,-24.3855"/>
<polygon fill="midnightblue" stroke="midnightblue" points="1182.66,-21.283 1172.19,-19.6545 1179.36,-27.456 1182.66,-21.283"/>
</g>
<!-- Node11&#45;&gt;Node1 -->
<g id="edge19" class="edge"><title>Node11&#45;&gt;Node1</title>
<path fill="none" stroke="midnightblue" d="M632.052,-286.705C709.586,-278.519 949.775,-244.921 1106,-132 1131.21,-113.775 1136.37,-104.857 1148,-76 1153.92,-61.3177 1155.76,-43.3812 1156.22,-30.0722"/>
<polygon fill="midnightblue" stroke="midnightblue" points="1159.72,-29.8018 1156.33,-19.7656 1152.72,-29.7283 1159.72,-29.8018"/>
</g>
<!-- Node11&#45;&gt;Node4 -->
<g id="edge18" class="edge"><title>Node11&#45;&gt;Node4</title>
<path fill="none" stroke="midnightblue" d="M632.291,-286.621C690.987,-280.924 840.917,-265.372 965,-244 966.252,-243.784 967.524,-243.556 968.807,-243.318"/>
<polygon fill="midnightblue" stroke="midnightblue" points="969.594,-246.731 978.721,-241.351 968.231,-239.865 969.594,-246.731"/>
</g>
<!-- Node11&#45;&gt;Node7 -->
<g id="edge15" class="edge"><title>Node11&#45;&gt;Node7</title>
<path fill="none" stroke="midnightblue" d="M581.817,-289.568C471.698,-291.391 38,-291.436 38,-179 38,-179 38,-179 38,-121 38,-30.32 371.973,-14.3654 478.656,-11.5822"/>
<polygon fill="midnightblue" stroke="midnightblue" points="478.907,-15.0773 488.821,-11.3395 478.74,-8.07928 478.907,-15.0773"/>
</g>
<!-- Node11&#45;&gt;Node9 -->
<g id="edge20" class="edge"><title>Node11&#45;&gt;Node9</title>
<path fill="none" stroke="midnightblue" d="M581.864,-289.178C488.011,-289.498 158.694,-287.438 65,-244 27.9346,-226.816 0,-219.855 0,-179 0,-179 0,-179 0,-121 0,-52.2246 89.2353,-26.3804 151.643,-16.7157"/>
<polygon fill="midnightblue" stroke="midnightblue" points="152.4,-20.1427 161.796,-15.2474 151.398,-13.2147 152.4,-20.1427"/>
</g>
<!-- Node12 -->
<g id="node13" class="node"><title>Node12</title>
<polygon fill="white" stroke="#bfbfbf" points="553.5,-56.5 553.5,-75.5 594.5,-75.5 594.5,-56.5 553.5,-56.5"/>
<text text-anchor="middle" x="574" y="-63.5" font-family="Helvetica,sans-Serif" font-size="10.00">string</text>
</g>
<!-- Node11&#45;&gt;Node12 -->
<g id="edge16" class="edge"><title>Node11&#45;&gt;Node12</title>
<path fill="none" stroke="midnightblue" d="M612.384,-280.443C617.556,-271.678 625.012,-257.467 628,-244 629.925,-235.322 628.899,-232.843 628,-224 622.863,-173.444 624.924,-158.748 605,-112 600.684,-101.874 593.912,-91.6823 587.797,-83.5651"/>
<polygon fill="midnightblue" stroke="midnightblue" points="590.51,-81.3531 581.567,-75.6725 585.016,-85.6903 590.51,-81.3531"/>
</g>
<!-- Node13 -->
<g id="node14" class="node"><title>Node13</title>
<polygon fill="white" stroke="#bfbfbf" points="267,-56.5 267,-75.5 323,-75.5 323,-56.5 267,-56.5"/>
<text text-anchor="middle" x="295" y="-63.5" font-family="Helvetica,sans-Serif" font-size="10.00">algorithm</text>
</g>
<!-- Node11&#45;&gt;Node13 -->
<g id="edge17" class="edge"><title>Node11&#45;&gt;Node13</title>
<path fill="none" stroke="midnightblue" d="M581.706,-288.512C486.019,-286.04 148.873,-271.442 95,-188 52.6018,-122.331 187.222,-86.9824 256.488,-73.5033"/>
<polygon fill="midnightblue" stroke="midnightblue" points="257.426,-76.8883 266.606,-71.5992 256.131,-70.0091 257.426,-76.8883"/>
</g>
<!-- Node14 -->
<g id="node15" class="node"><title>Node14</title>
<g id="a_node15"><a xlink:href="_capacite_8h.html" target="_top" xlink:title="Capacites/Capacite.h">
<polygon fill="white" stroke="black" points="470.5,-168.5 470.5,-187.5 581.5,-187.5 581.5,-168.5 470.5,-168.5"/>
<text text-anchor="middle" x="526" y="-175.5" font-family="Helvetica,sans-Serif" font-size="10.00">Capacites/Capacite.h</text>
</a>
</g>
</g>
<!-- Node11&#45;&gt;Node14 -->
<g id="edge21" class="edge"><title>Node11&#45;&gt;Node14</title>
<path fill="none" stroke="midnightblue" d="M581.851,-286.178C556.575,-281.854 518.875,-271.008 501,-244 491.037,-228.947 501.198,-209.345 511.398,-195.618"/>
<polygon fill="midnightblue" stroke="midnightblue" points="514.348,-197.537 517.896,-187.554 508.897,-193.145 514.348,-197.537"/>
</g>
<!-- Node15 -->
<g id="node16" class="node"><title>Node15</title>
<g id="a_node16"><a xlink:href="_projectile_8h.html" target="_top" xlink:title="../Projectiles/Projectile.h">
<polygon fill="white" stroke="black" points="321.5,-112.5 321.5,-131.5 444.5,-131.5 444.5,-112.5 321.5,-112.5"/>
<text text-anchor="middle" x="383" y="-119.5" font-family="Helvetica,sans-Serif" font-size="10.00">../Projectiles/Projectile.h</text>
</a>
</g>
</g>
<!-- Node11&#45;&gt;Node15 -->
<g id="edge31" class="edge"><title>Node11&#45;&gt;Node15</title>
<path fill="none" stroke="midnightblue" d="M581.807,-281.866C557.887,-274.459 521.457,-261.498 493,-244 461.088,-224.377 455.125,-215.788 430,-188 416.341,-172.893 402.949,-153.833 393.977,-140.267"/>
<polygon fill="midnightblue" stroke="midnightblue" points="396.905,-138.349 388.523,-131.869 391.034,-142.162 396.905,-138.349"/>
</g>
<!-- Node16 -->
<g id="node17" class="node"><title>Node16</title>
<g id="a_node17"><a xlink:href="_vaisseau_8h.html" target="_top" xlink:title="Vaisseau/Vaisseau.h">
<polygon fill="white" stroke="black" points="510.5,-224.5 510.5,-243.5 619.5,-243.5 619.5,-224.5 510.5,-224.5"/>
<text text-anchor="middle" x="565" y="-231.5" font-family="Helvetica,sans-Serif" font-size="10.00">Vaisseau/Vaisseau.h</text>
</a>
</g>
</g>
<!-- Node11&#45;&gt;Node16 -->
<g id="edge32" class="edge"><title>Node11&#45;&gt;Node16</title>
<path fill="none" stroke="midnightblue" d="M600.065,-280.083C594.071,-272.377 585.248,-261.033 577.952,-251.653"/>
<polygon fill="midnightblue" stroke="midnightblue" points="580.709,-249.496 571.806,-243.751 575.183,-253.793 580.709,-249.496"/>
</g>
<!-- Node17 -->
<g id="node18" class="node"><title>Node17</title>
<g id="a_node18"><a xlink:href="_input_8h.html" target="_top" xlink:title="../Interface/Input.h">
<polygon fill="white" stroke="black" points="777.5,-168.5 777.5,-187.5 874.5,-187.5 874.5,-168.5 777.5,-168.5"/>
<text text-anchor="middle" x="826" y="-175.5" font-family="Helvetica,sans-Serif" font-size="10.00">../Interface/Input.h</text>
</a>
</g>
</g>
<!-- Node11&#45;&gt;Node17 -->
<g id="edge44" class="edge"><title>Node11&#45;&gt;Node17</title>
<path fill="none" stroke="midnightblue" d="M624.185,-280.368C662.325,-261.211 754.257,-215.036 799.686,-192.217"/>
<polygon fill="midnightblue" stroke="midnightblue" points="801.53,-195.208 808.895,-187.591 798.388,-188.952 801.53,-195.208"/>
</g>
<!-- Node20 -->
<g id="node21" class="node"><title>Node20</title>
<g id="a_node21"><a xlink:href="_overlay_8h.html" target="_top" xlink:title="Interface/Overlay.h">
<polygon fill="white" stroke="black" points="971,-112.5 971,-131.5 1071,-131.5 1071,-112.5 971,-112.5"/>
<text text-anchor="middle" x="1021" y="-119.5" font-family="Helvetica,sans-Serif" font-size="10.00">Interface/Overlay.h</text>
</a>
</g>
</g>
<!-- Node11&#45;&gt;Node20 -->
<g id="edge45" class="edge"><title>Node11&#45;&gt;Node20</title>
<path fill="none" stroke="midnightblue" d="M630.784,-280.408C655.755,-271.377 696.156,-256.741 731,-244 798.616,-219.276 816.593,-215.81 883,-188 922.55,-171.437 967.274,-149.824 994.806,-136.175"/>
<polygon fill="midnightblue" stroke="midnightblue" points="996.4,-139.291 1003.79,-131.7 993.279,-133.025 996.4,-139.291"/>
</g>
<!-- Node14&#45;&gt;Node6 -->
<g id="edge30" class="edge"><title>Node14&#45;&gt;Node6</title>
<path fill="none" stroke="midnightblue" d="M542.714,-168.368C579.809,-149.211 669.222,-103.036 713.407,-80.2172"/>
<polygon fill="midnightblue" stroke="midnightblue" points="715.085,-83.2898 722.364,-75.5914 711.873,-77.0702 715.085,-83.2898"/>
</g>
<!-- Node14&#45;&gt;Node7 -->
<g id="edge22" class="edge"><title>Node14&#45;&gt;Node7</title>
<path fill="none" stroke="midnightblue" d="M525.194,-168.075C522.832,-141.945 515.899,-65.2106 512.679,-29.577"/>
<polygon fill="midnightblue" stroke="midnightblue" points="516.16,-29.2125 511.774,-19.5681 509.188,-29.8425 516.16,-29.2125"/>
</g>
<!-- Node14&#45;&gt;Node12 -->
<g id="edge23" class="edge"><title>Node14&#45;&gt;Node12</title>
<path fill="none" stroke="midnightblue" d="M529.766,-168.368C537.583,-150.456 555.706,-108.923 566.168,-84.9482"/>
<polygon fill="midnightblue" stroke="midnightblue" points="569.459,-86.1566 570.251,-75.5914 563.044,-83.357 569.459,-86.1566"/>
</g>
<!-- Node14&#45;&gt;Node13 -->
<g id="edge24" class="edge"><title>Node14&#45;&gt;Node13</title>
<path fill="none" stroke="midnightblue" d="M518.815,-168.488C506.664,-154.626 480.662,-127.201 453,-112 415.108,-91.1773 366.688,-79.2359 333.497,-72.9591"/>
<polygon fill="midnightblue" stroke="midnightblue" points="333.751,-69.4484 323.288,-71.1161 332.507,-76.3371 333.751,-69.4484"/>
</g>
<!-- Node14&#45;&gt;Node15 -->
<g id="edge25" class="edge"><title>Node14&#45;&gt;Node15</title>
<path fill="none" stroke="midnightblue" d="M503.341,-168.444C479.598,-159.478 442.091,-145.314 415.262,-135.183"/>
<polygon fill="midnightblue" stroke="midnightblue" points="416.144,-131.775 405.553,-131.516 413.671,-138.324 416.144,-131.775"/>
</g>
<!-- Node15&#45;&gt;Node6 -->
<g id="edge29" class="edge"><title>Node15&#45;&gt;Node6</title>
<path fill="none" stroke="midnightblue" d="M439.409,-112.444C513.73,-101.17 642.221,-81.6799 703.932,-72.3193"/>
<polygon fill="midnightblue" stroke="midnightblue" points="704.586,-75.7602 713.948,-70.8 703.536,-68.8394 704.586,-75.7602"/>
</g>
<!-- Node15&#45;&gt;Node7 -->
<g id="edge26" class="edge"><title>Node15&#45;&gt;Node7</title>
<path fill="none" stroke="midnightblue" d="M393.044,-112.368C414.728,-93.7334 466.162,-49.5324 493.39,-26.1338"/>
<polygon fill="midnightblue" stroke="midnightblue" points="495.7,-28.7636 501.003,-19.5914 491.137,-23.4546 495.7,-28.7636"/>
</g>
<!-- Node15&#45;&gt;Node12 -->
<g id="edge27" class="edge"><title>Node15&#45;&gt;Node12</title>
<path fill="none" stroke="midnightblue" d="M413.265,-112.444C448.879,-102.374 507.68,-85.7501 543.428,-75.6434"/>
<polygon fill="midnightblue" stroke="midnightblue" points="544.625,-78.9422 553.296,-72.8536 542.721,-72.2062 544.625,-78.9422"/>
</g>
<!-- Node15&#45;&gt;Node13 -->
<g id="edge28" class="edge"><title>Node15&#45;&gt;Node13</title>
<path fill="none" stroke="midnightblue" d="M368.861,-112.324C355.134,-103.9 334.064,-90.9709 317.936,-81.0741"/>
<polygon fill="midnightblue" stroke="midnightblue" points="319.457,-77.9016 309.104,-75.6545 315.796,-83.8678 319.457,-77.9016"/>
</g>
<!-- Node16&#45;&gt;Node6 -->
<g id="edge37" class="edge"><title>Node16&#45;&gt;Node6</title>
<path fill="none" stroke="midnightblue" d="M619.812,-226.524C647.14,-220.642 678.794,-209.418 700,-188 727.73,-159.992 735.751,-112.182 738.065,-85.8237"/>
<polygon fill="midnightblue" stroke="midnightblue" points="741.57,-85.8817 738.764,-75.6652 734.586,-85.4016 741.57,-85.8817"/>
</g>
<!-- Node16&#45;&gt;Node7 -->
<g id="edge33" class="edge"><title>Node16&#45;&gt;Node7</title>
<path fill="none" stroke="midnightblue" d="M576.541,-224.49C586.479,-216.379 600.122,-203.178 606,-188 627.191,-133.278 634.952,-105.22 603,-56 589.605,-35.3656 563.815,-23.8909 542.942,-17.7023"/>
<polygon fill="midnightblue" stroke="midnightblue" points="543.731,-14.2904 533.166,-15.0719 541.913,-21.05 543.731,-14.2904"/>
</g>
<!-- Node16&#45;&gt;Node12 -->
<g id="edge34" class="edge"><title>Node16&#45;&gt;Node12</title>
<path fill="none" stroke="midnightblue" d="M571.629,-224.275C577.765,-215.607 586.458,-201.669 590,-188 599.265,-152.246 588.496,-109.085 580.679,-85.1793"/>
<polygon fill="midnightblue" stroke="midnightblue" points="583.957,-83.9504 577.378,-75.6462 577.343,-86.241 583.957,-83.9504"/>
</g>
<!-- Node16&#45;&gt;Node13 -->
<g id="edge35" class="edge"><title>Node16&#45;&gt;Node13</title>
<path fill="none" stroke="midnightblue" d="M510.409,-229.666C419.093,-223.526 243.494,-209.103 225,-188 195.447,-154.278 245.014,-106.204 274.89,-82.0607"/>
<polygon fill="midnightblue" stroke="midnightblue" points="277.358,-84.5728 283.066,-75.6472 273.038,-79.065 277.358,-84.5728"/>
</g>
<!-- Node16&#45;&gt;Node14 -->
<g id="edge36" class="edge"><title>Node16&#45;&gt;Node14</title>
<path fill="none" stroke="midnightblue" d="M558.56,-224.083C553.051,-216.455 544.969,-205.264 538.235,-195.941"/>
<polygon fill="midnightblue" stroke="midnightblue" points="541.013,-193.809 532.32,-187.751 535.338,-197.907 541.013,-193.809"/>
</g>
<!-- Node16&#45;&gt;Node15 -->
<g id="edge38" class="edge"><title>Node16&#45;&gt;Node15</title>
<path fill="none" stroke="midnightblue" d="M539.634,-224.355C517.938,-216.426 486.302,-203.567 461,-188 437.945,-173.816 414.483,-153.26 399.398,-139.08"/>
<polygon fill="midnightblue" stroke="midnightblue" points="401.58,-136.324 391.935,-131.94 396.741,-141.382 401.58,-136.324"/>
</g>
<!-- Node16&#45;&gt;Node17 -->
<g id="edge39" class="edge"><title>Node16&#45;&gt;Node17</title>
<path fill="none" stroke="midnightblue" d="M606.356,-224.444C652.078,-214.984 725.764,-199.738 775.022,-189.547"/>
<polygon fill="midnightblue" stroke="midnightblue" points="775.754,-192.97 784.837,-187.516 774.336,-186.115 775.754,-192.97"/>
</g>
<!-- Node17&#45;&gt;Node1 -->
<g id="edge40" class="edge"><title>Node17&#45;&gt;Node1</title>
<path fill="none" stroke="midnightblue" d="M874.516,-173.088C938.595,-167.138 1047.17,-154.107 1080,-132 1117.42,-106.801 1140.03,-56.3413 1149.98,-29.2274"/>
<polygon fill="midnightblue" stroke="midnightblue" points="1153.29,-30.3725 1153.29,-19.7777 1146.68,-28.0639 1153.29,-30.3725"/>
</g>
<!-- Node17&#45;&gt;Node5 -->
<g id="edge43" class="edge"><title>Node17&#45;&gt;Node5</title>
<path fill="none" stroke="midnightblue" d="M840.901,-168.412C853.873,-160.342 872.508,-147.246 885,-132 911.193,-100.033 929.351,-54.4949 938.077,-29.3869"/>
<polygon fill="midnightblue" stroke="midnightblue" points="941.467,-30.2865 941.327,-19.6926 934.83,-28.0617 941.467,-30.2865"/>
</g>
<!-- Node18 -->
<g id="node19" class="node"><title>Node18</title>
<polygon fill="white" stroke="#bfbfbf" points="767,-112.5 767,-131.5 817,-131.5 817,-112.5 767,-112.5"/>
<text text-anchor="middle" x="792" y="-119.5" font-family="Helvetica,sans-Serif" font-size="10.00">optional</text>
</g>
<!-- Node17&#45;&gt;Node18 -->
<g id="edge41" class="edge"><title>Node17&#45;&gt;Node18</title>
<path fill="none" stroke="midnightblue" d="M820.386,-168.083C815.633,-160.534 808.682,-149.495 802.848,-140.23"/>
<polygon fill="midnightblue" stroke="midnightblue" points="805.8,-138.349 797.51,-131.751 799.876,-142.078 805.8,-138.349"/>
</g>
<!-- Node19 -->
<g id="node20" class="node"><title>Node19</title>
<polygon fill="white" stroke="#bfbfbf" points="835.5,-112.5 835.5,-131.5 876.5,-131.5 876.5,-112.5 835.5,-112.5"/>
<text text-anchor="middle" x="856" y="-119.5" font-family="Helvetica,sans-Serif" font-size="10.00">bitset</text>
</g>
<!-- Node17&#45;&gt;Node19 -->
<g id="edge42" class="edge"><title>Node17&#45;&gt;Node19</title>
<path fill="none" stroke="midnightblue" d="M830.954,-168.083C835.104,-160.613 841.153,-149.724 846.267,-140.52"/>
<polygon fill="midnightblue" stroke="midnightblue" points="849.341,-142.192 851.138,-131.751 843.222,-138.793 849.341,-142.192"/>
</g>
<!-- Node20&#45;&gt;Node1 -->
<g id="edge46" class="edge"><title>Node20&#45;&gt;Node1</title>
<path fill="none" stroke="midnightblue" d="M1031.59,-112.368C1054.46,-93.7334 1108.71,-49.5324 1137.43,-26.1338"/>
<polygon fill="midnightblue" stroke="midnightblue" points="1139.91,-28.6215 1145.46,-19.5914 1135.49,-23.1949 1139.91,-28.6215"/>
</g>
<!-- Node20&#45;&gt;Node5 -->
<g id="edge47" class="edge"><title>Node20&#45;&gt;Node5</title>
<path fill="none" stroke="midnightblue" d="M1014.96,-112.368C1002.25,-94.2153 972.561,-51.8015 955.893,-27.9902"/>
<polygon fill="midnightblue" stroke="midnightblue" points="958.616,-25.7766 950.014,-19.5914 952.881,-29.7909 958.616,-25.7766"/>
</g>
<!-- Node20&#45;&gt;Node6 -->
<g id="edge48" class="edge"><title>Node20&#45;&gt;Node6</title>
<path fill="none" stroke="midnightblue" d="M976.316,-112.444C920.232,-101.704 825.205,-83.5073 774.068,-73.7152"/>
<polygon fill="midnightblue" stroke="midnightblue" points="774.631,-70.2595 764.152,-71.8162 773.315,-77.1346 774.631,-70.2595"/>
</g>
<!-- Node22 -->
<g id="node23" class="node"><title>Node22</title>
<polygon fill="white" stroke="#bfbfbf" points="1474,-224.5 1474,-243.5 1536,-243.5 1536,-224.5 1474,-224.5"/>
<text text-anchor="middle" x="1505" y="-231.5" font-family="Helvetica,sans-Serif" font-size="10.00">type_traits</text>
</g>
<!-- Node21&#45;&gt;Node22 -->
<g id="edge50" class="edge"><title>Node21&#45;&gt;Node22</title>
<path fill="none" stroke="midnightblue" d="M1505,-280.083C1505,-273.006 1505,-262.861 1505,-253.986"/>
<polygon fill="midnightblue" stroke="midnightblue" points="1508.5,-253.751 1505,-243.751 1501.5,-253.751 1508.5,-253.751"/>
</g>
<!-- Node24 -->
<g id="node25" class="node"><title>Node24</title>
<g id="a_node25"><a xlink:href="_proj_test_8h.html" target="_top" xlink:title="ProjTest.h">
<polygon fill="white" stroke="black" points="234,-168.5 234,-187.5 296,-187.5 296,-168.5 234,-168.5"/>
<text text-anchor="middle" x="265" y="-175.5" font-family="Helvetica,sans-Serif" font-size="10.00">ProjTest.h</text>
</a>
</g>
</g>
<!-- Node23&#45;&gt;Node24 -->
<g id="edge52" class="edge"><title>Node23&#45;&gt;Node24</title>
<path fill="none" stroke="midnightblue" d="M285.872,-224.083C282.486,-216.77 277.584,-206.181 273.381,-197.103"/>
<polygon fill="midnightblue" stroke="midnightblue" points="276.429,-195.355 269.051,-187.751 270.077,-198.296 276.429,-195.355"/>
</g>
<!-- Node25 -->
<g id="node26" class="node"><title>Node25</title>
<g id="a_node26"><a xlink:href="_proj_piou_8h.html" target="_top" xlink:title="ProjPiou.h">
<polygon fill="white" stroke="black" points="314,-168.5 314,-187.5 376,-187.5 376,-168.5 314,-168.5"/>
<text text-anchor="middle" x="345" y="-175.5" font-family="Helvetica,sans-Serif" font-size="10.00">ProjPiou.h</text>
</a>
</g>
</g>
<!-- Node23&#45;&gt;Node25 -->
<g id="edge54" class="edge"><title>Node23&#45;&gt;Node25</title>
<path fill="none" stroke="midnightblue" d="M299.082,-224.083C307.171,-216.141 319.195,-204.335 328.91,-194.797"/>
<polygon fill="midnightblue" stroke="midnightblue" points="331.403,-197.254 336.087,-187.751 326.499,-192.26 331.403,-197.254"/>
</g>
<!-- Node26 -->
<g id="node27" class="node"><title>Node26</title>
<g id="a_node27"><a xlink:href="_proj_missile_8h.html" target="_top" xlink:title="ProjMissile.h">
<polygon fill="white" stroke="black" points="104.5,-168.5 104.5,-187.5 177.5,-187.5 177.5,-168.5 104.5,-168.5"/>
<text text-anchor="middle" x="141" y="-175.5" font-family="Helvetica,sans-Serif" font-size="10.00">ProjMissile.h</text>
</a>
</g>
</g>
<!-- Node23&#45;&gt;Node26 -->
<g id="edge56" class="edge"><title>Node23&#45;&gt;Node26</title>
<path fill="none" stroke="midnightblue" d="M266.391,-224.444C241.542,-215.438 202.226,-201.189 174.246,-191.049"/>
<polygon fill="midnightblue" stroke="midnightblue" points="175.093,-187.633 164.499,-187.516 172.708,-194.214 175.093,-187.633"/>
</g>
<!-- Node24&#45;&gt;Node15 -->
<g id="edge53" class="edge"><title>Node24&#45;&gt;Node15</title>
<path fill="none" stroke="midnightblue" d="M283.697,-168.444C302.944,-159.636 333.152,-145.812 355.2,-135.722"/>
<polygon fill="midnightblue" stroke="midnightblue" points="356.753,-138.86 364.39,-131.516 353.84,-132.495 356.753,-138.86"/>
</g>
<!-- Node25&#45;&gt;Node15 -->
<g id="edge55" class="edge"><title>Node25&#45;&gt;Node15</title>
<path fill="none" stroke="midnightblue" d="M351.275,-168.083C356.642,-160.455 364.518,-149.264 371.079,-139.941"/>
<polygon fill="midnightblue" stroke="midnightblue" points="373.949,-141.943 376.842,-131.751 368.225,-137.915 373.949,-141.943"/>
</g>
<!-- Node26&#45;&gt;Node15 -->
<g id="edge57" class="edge"><title>Node26&#45;&gt;Node15</title>
<path fill="none" stroke="midnightblue" d="M177.755,-168.799C219.761,-159.425 288.659,-144.051 334.904,-133.732"/>
<polygon fill="midnightblue" stroke="midnightblue" points="335.701,-137.141 344.698,-131.547 334.176,-130.309 335.701,-137.141"/>
</g>
</g>
</svg>
        <g id="navigator" transform="translate(0 0)" fill="#404254">
                <rect fill="#f2f5e9" fill-opacity="0.5" stroke="#606060" stroke-width=".5" x="0" y="0" width="60" height="60"/>
                <use id="zoomplus" xlink:href="#zoomPlus" x="17" y="9" onmousedown="handleZoom(evt,'in')"/>
                <use id="zoomminus" xlink:href="#zoomMin" x="42" y="9" onmousedown="handleZoom(evt,'out')"/>
                <use id="reset" xlink:href="#resetDef" x="30" y="36" onmousedown="handleReset()"/>
                <g id="arrowUp" xlink:href="#dirArrow" transform="translate(30 24)" onmousedown="handlePan(0,-1)">
                  <use xlink:href="#rim" fill="#404040">
                        <set attributeName="fill" to="#808080" begin="arrowUp.mouseover" end="arrowUp.mouseout"/>
                  </use>
                  <path fill="none" stroke="white" stroke-width="1.5" d="M0,-3.0v7 M-2.5,-0.5L0,-3.0L2.5,-0.5"/>
                </g>
                <g id="arrowRight" xlink:href="#dirArrow" transform="rotate(90) translate(36 -43)" onmousedown="handlePan(1,0)">
                  <use xlink:href="#rim" fill="#404040">
                        <set attributeName="fill" to="#808080" begin="arrowRight.mouseover" end="arrowRight.mouseout"/>
                  </use>
                  <path fill="none" stroke="white" stroke-width="1.5" d="M0,-3.0v7 M-2.5,-0.5L0,-3.0L2.5,-0.5"/>
                </g>
                <g id="arrowDown" xlink:href="#dirArrow" transform="rotate(180) translate(-30 -48)" onmousedown="handlePan(0,1)">
                  <use xlink:href="#rim" fill="#404040">
                        <set attributeName="fill" to="#808080" begin="arrowDown.mouseover" end="arrowDown.mouseout"/>
                  </use>
                  <path fill="none" stroke="white" stroke-width="1.5" d="M0,-3.0v7 M-2.5,-0.5L0,-3.0L2.5,-0.5"/>
                </g>
                <g id="arrowLeft" xlink:href="#dirArrow" transform="rotate(270) translate(-36 17)" onmousedown="handlePan(-1,0)">
                  <use xlink:href="#rim" fill="#404040">
                        <set attributeName="fill" to="#808080" begin="arrowLeft.mouseover" end="arrowLeft.mouseout"/>
                  </use>
                  <path fill="none" stroke="white" stroke-width="1.5" d="M0,-3.0v7 M-2.5,-0.5L0,-3.0L2.5,-0.5"/>
                </g>
        </g>
        <svg viewBox="0 0 15 15" width="100%" height="30px" preserveAspectRatio="xMaxYMin meet">
         <g id="arrow_out" transform="scale(0.3 0.3)">
          <a xlink:href="main_8cpp__incl_org.svg" target="_base">
           <rect id="button" ry="5" rx="5" y="6" x="6" height="38" width="38"
                fill="#f2f5e9" fill-opacity="0.5" stroke="#606060" stroke-width="1.0"/>
           <path id="arrow"
             d="M 11.500037,31.436501 C 11.940474,20.09759 22.043105,11.32322 32.158766,21.979434 L 37.068811,17.246167 C 37.068811,17.246167 37.088388,32 37.088388,32 L 22.160133,31.978069 C 22.160133,31.978069 26.997745,27.140456 26.997745,27.140456 C 18.528582,18.264221 13.291696,25.230495 11.500037,31.436501 z"
             style="fill:#404040;"/>
          </a>
         </g>
        </svg>
</svg>
