<?xml version="1.0" encoding="UTF-8" standalone="no"?>
<!DOCTYPE svg PUBLIC "-//W3C//DTD SVG 1.1//EN"
 "http://www.w3.org/Graphics/SVG/1.1/DTD/svg11.dtd">
<!-- Generated by graphviz version 2.38.0 (20140413.2041)
 -->
<!-- Title: ElementVague Pages: 1 -->
<!--zoomable 706 -->
<svg id="main" version="1.1" xmlns="http://www.w3.org/2000/svg" xmlns:xlink="http://www.w3.org/1999/xlink" xml:space="preserve" onload="init(evt)">
<style type="text/css"><![CDATA[
.edge:hover path { stroke: red; }
.edge:hover polygon { stroke: red; fill: red; }
]]></style>
<script type="text/javascript"><![CDATA[
var edges = document.getElementsByTagName('g');
if (edges && edges.length) {
  for (var i=0;i<edges.length;i++) {
    if (edges[i].id.substr(0,4)=='edge') {
      edges[i].setAttribute('class','edge');
    }
  }
}
]]></script>
        <defs>
                <circle id="rim" cx="0" cy="0" r="7"/>
                <circle id="rim2" cx="0" cy="0" r="3.5"/>
                <g id="zoomPlus">
                        <use xlink:href="#rim" fill="#404040">
                                <set attributeName="fill" to="#808080" begin="zoomplus.mouseover" end="zoomplus.mouseout"/>
                        </use>
                        <path d="M-4,0h8M0,-4v8" fill="none" stroke="white" stroke-width="1.5" pointer-events="none"/>
                </g>
                <g id="zoomMin">
                        <use xlink:href="#rim" fill="#404040">
                                <set attributeName="fill" to="#808080" begin="zoomminus.mouseover" end="zoomminus.mouseout"/>
                        </use>
                        <path d="M-4,0h8" fill="none" stroke="white" stroke-width="1.5" pointer-events="none"/>
                </g>
                <g id="dirArrow">
                        <path fill="none" stroke="white" stroke-width="1.5" d="M0,-3.0v7 M-2.5,-0.5L0,-3.0L2.5,-0.5"/>
                </g>
               <g id="resetDef">
                       <use xlink:href="#rim2" fill="#404040">
                               <set attributeName="fill" to="#808080" begin="reset.mouseover" end="reset.mouseout"/>
                       </use>
               </g>
        </defs>

<script type="text/javascript">
var viewWidth = 177;
var viewHeight = 706;
var sectionId = 'dynsection-0';
</script>
<script xlink:href="svgpan.js"/>
<svg id="graph" class="graph">
<g id="viewport">
<title>ElementVague</title>
<polygon fill="white" stroke="none" points="-4,4 -4,-702 173,-702 173,4 -4,4"/>
<!-- Node1 -->
<g id="node1" class="node"><title>Node1</title>
<polygon fill="#bfbfbf" stroke="black" points="11,-0.5 11,-68.5 91,-68.5 91,-0.5 11,-0.5"/>
<text text-anchor="middle" x="51" y="-56.5" font-family="Helvetica,sans-Serif" font-size="10.00">ElementVague</text>
<polyline fill="none" stroke="black" points="11,-49.5 91,-49.5 "/>
<text text-anchor="start" x="19" y="-37.5" font-family="Helvetica,sans-Serif" font-size="10.00">+ t</text>
<text text-anchor="start" x="19" y="-26.5" font-family="Helvetica,sans-Serif" font-size="10.00">+ active</text>
<polyline fill="none" stroke="black" points="11,-19.5 91,-19.5 "/>
<text text-anchor="middle" x="51" y="-7.5" font-family="Helvetica,sans-Serif" font-size="10.00"> </text>
</g>
<!-- Node2 -->
<g id="node2" class="node"><title>Node2</title>
<g id="a_node2"><a xlink:href="class_vaisseau.html" target="_top" xlink:title="classe du vaisseau (véhicule) d&#39;un joueur ou d&#39;un ennemi ">
<polygon fill="white" stroke="black" points="-7.10543e-15,-116.5 -7.10543e-15,-382.5 102,-382.5 102,-116.5 -7.10543e-15,-116.5"/>
<text text-anchor="middle" x="51" y="-370.5" font-family="Helvetica,sans-Serif" font-size="10.00">Vaisseau</text>
<polyline fill="none" stroke="black" points="-7.10543e-15,-363.5 102,-363.5 "/>
<text text-anchor="start" x="8" y="-351.5" font-family="Helvetica,sans-Serif" font-size="10.00"># nom_</text>
<text text-anchor="start" x="8" y="-340.5" font-family="Helvetica,sans-Serif" font-size="10.00"># Nskin_</text>
<text text-anchor="start" x="8" y="-329.5" font-family="Helvetica,sans-Serif" font-size="10.00"># pvM_</text>
<text text-anchor="start" x="8" y="-318.5" font-family="Helvetica,sans-Serif" font-size="10.00"># atqM_</text>
<text text-anchor="start" x="8" y="-307.5" font-family="Helvetica,sans-Serif" font-size="10.00"># defM_</text>
<text text-anchor="start" x="8" y="-296.5" font-family="Helvetica,sans-Serif" font-size="10.00"># vitM_</text>
<text text-anchor="start" x="8" y="-285.5" font-family="Helvetica,sans-Serif" font-size="10.00"># capacites_</text>
<text text-anchor="start" x="8" y="-274.5" font-family="Helvetica,sans-Serif" font-size="10.00"># annexes_</text>
<text text-anchor="start" x="8" y="-263.5" font-family="Helvetica,sans-Serif" font-size="10.00"># annexesB_</text>
<text text-anchor="start" x="8" y="-252.5" font-family="Helvetica,sans-Serif" font-size="10.00"># nbModule_</text>
<polyline fill="none" stroke="black" points="-7.10543e-15,-245.5 102,-245.5 "/>
<text text-anchor="start" x="8" y="-233.5" font-family="Helvetica,sans-Serif" font-size="10.00">+ Vaisseau()</text>
<text text-anchor="start" x="8" y="-222.5" font-family="Helvetica,sans-Serif" font-size="10.00">+ ~Vaisseau()</text>
<text text-anchor="start" x="8" y="-211.5" font-family="Helvetica,sans-Serif" font-size="10.00">+ gestion()</text>
<text text-anchor="start" x="8" y="-200.5" font-family="Helvetica,sans-Serif" font-size="10.00">+ gestionCapacite()</text>
<text text-anchor="start" x="8" y="-189.5" font-family="Helvetica,sans-Serif" font-size="10.00">+ agit()</text>
<text text-anchor="start" x="8" y="-178.5" font-family="Helvetica,sans-Serif" font-size="10.00">+ destruction()</text>
<text text-anchor="start" x="8" y="-167.5" font-family="Helvetica,sans-Serif" font-size="10.00">+ setEquipe()</text>
<text text-anchor="start" x="8" y="-156.5" font-family="Helvetica,sans-Serif" font-size="10.00">+ addCapacite()</text>
<text text-anchor="start" x="8" y="-145.5" font-family="Helvetica,sans-Serif" font-size="10.00">+ setnom()</text>
<text text-anchor="start" x="8" y="-134.5" font-family="Helvetica,sans-Serif" font-size="10.00">+ setNskin()</text>
<text text-anchor="start" x="8" y="-123.5" font-family="Helvetica,sans-Serif" font-size="10.00">et 16 de plus...</text>
</a>
</g>
</g>
<!-- Node2&#45;&gt;Node1 -->
<g id="edge1" class="edge"><title>Node2&#45;&gt;Node1</title>
<path fill="none" stroke="#404040" d="M51,-116.33C51,-103.766 51,-91.7094 51,-80.9169"/>
<polygon fill="none" stroke="#404040" points="51.0001,-80.8736 47,-74.8737 51,-68.8736 55,-74.8736 51.0001,-80.8736"/>
<text text-anchor="middle" x="58.5" y="-90" font-family="Helvetica,sans-Serif" font-size="10.00"> +v</text>
</g>
<!-- Node2&#45;&gt;Node2 -->
<g id="edge3" class="edge"><title>Node2&#45;&gt;Node2</title>
<path fill="none" stroke="#404040" d="M102.155,-276.913C112.553,-273.927 120,-264.789 120,-249.5 120,-240.183 117.235,-233.151 112.721,-228.402"/>
<polygon fill="none" stroke="#404040" points="112.455,-228.243 105.253,-228.599 102.155,-222.087 109.357,-221.732 112.455,-228.243"/>
<text text-anchor="middle" x="144.5" y="-247" font-family="Helvetica,sans-Serif" font-size="10.00"> #createur_</text>
</g>
<!-- Node3 -->
<g id="node3" class="node"><title>Node3</title>
<g id="a_node3"><a xlink:href="class_entite.html" target="_top" xlink:title="Classe virtuelle qui définit une entité ">
<polygon fill="white" stroke="black" points="1,-420.5 1,-697.5 101,-697.5 101,-420.5 1,-420.5"/>
<text text-anchor="middle" x="51" y="-685.5" font-family="Helvetica,sans-Serif" font-size="10.00">Entite</text>
<polyline fill="none" stroke="black" points="1,-678.5 101,-678.5 "/>
<text text-anchor="start" x="9" y="-666.5" font-family="Helvetica,sans-Serif" font-size="10.00"># collisionable_</text>
<text text-anchor="start" x="9" y="-655.5" font-family="Helvetica,sans-Serif" font-size="10.00"># detruit_</text>
<text text-anchor="start" x="9" y="-644.5" font-family="Helvetica,sans-Serif" font-size="10.00"># actif_</text>
<text text-anchor="start" x="9" y="-633.5" font-family="Helvetica,sans-Serif" font-size="10.00"># equipe_</text>
<text text-anchor="start" x="9" y="-622.5" font-family="Helvetica,sans-Serif" font-size="10.00"># position_</text>
<text text-anchor="start" x="9" y="-611.5" font-family="Helvetica,sans-Serif" font-size="10.00"># angle_</text>
<text text-anchor="start" x="9" y="-600.5" font-family="Helvetica,sans-Serif" font-size="10.00"># scale_</text>
<text text-anchor="start" x="9" y="-589.5" font-family="Helvetica,sans-Serif" font-size="10.00"># cercleEnglobant_</text>
<text text-anchor="start" x="9" y="-578.5" font-family="Helvetica,sans-Serif" font-size="10.00"># forme_</text>
<text text-anchor="start" x="9" y="-567.5" font-family="Helvetica,sans-Serif" font-size="10.00"># texture_</text>
<text text-anchor="start" x="9" y="-556.5" font-family="Helvetica,sans-Serif" font-size="10.00">et 13 de plus...</text>
<polyline fill="none" stroke="black" points="1,-549.5 101,-549.5 "/>
<text text-anchor="start" x="9" y="-537.5" font-family="Helvetica,sans-Serif" font-size="10.00">+ ~Entite()</text>
<text text-anchor="start" x="9" y="-526.5" font-family="Helvetica,sans-Serif" font-size="10.00">+ getForme()</text>
<text text-anchor="start" x="9" y="-515.5" font-family="Helvetica,sans-Serif" font-size="10.00">+ afficher()</text>
<text text-anchor="start" x="9" y="-504.5" font-family="Helvetica,sans-Serif" font-size="10.00">+ move()</text>
<text text-anchor="start" x="9" y="-493.5" font-family="Helvetica,sans-Serif" font-size="10.00">+ setPosition()</text>
<text text-anchor="start" x="9" y="-482.5" font-family="Helvetica,sans-Serif" font-size="10.00">+ getPosition()</text>
<text text-anchor="start" x="9" y="-471.5" font-family="Helvetica,sans-Serif" font-size="10.00">+ rotate()</text>
<text text-anchor="start" x="9" y="-460.5" font-family="Helvetica,sans-Serif" font-size="10.00">+ setRotation()</text>
<text text-anchor="start" x="9" y="-449.5" font-family="Helvetica,sans-Serif" font-size="10.00">+ getRotation()</text>
<text text-anchor="start" x="9" y="-438.5" font-family="Helvetica,sans-Serif" font-size="10.00">+ scale()</text>
<text text-anchor="start" x="9" y="-427.5" font-family="Helvetica,sans-Serif" font-size="10.00">et 18 de plus...</text>
</a>
</g>
</g>
<!-- Node3&#45;&gt;Node2 -->
<g id="edge2" class="edge"><title>Node3&#45;&gt;Node2</title>
<path fill="none" stroke="midnightblue" d="M51,-410.182C51,-401.081 51,-391.952 51,-382.922"/>
<polygon fill="none" stroke="midnightblue" points="47.5001,-410.439 51,-420.439 54.5001,-410.439 47.5001,-410.439"/>
</g>
</g>
</svg>
        <g id="navigator" transform="translate(0 0)" fill="#404254">
                <rect fill="#f2f5e9" fill-opacity="0.5" stroke="#606060" stroke-width=".5" x="0" y="0" width="60" height="60"/>
                <use id="zoomplus" xlink:href="#zoomPlus" x="17" y="9" onmousedown="handleZoom(evt,'in')"/>
                <use id="zoomminus" xlink:href="#zoomMin" x="42" y="9" onmousedown="handleZoom(evt,'out')"/>
                <use id="reset" xlink:href="#resetDef" x="30" y="36" onmousedown="handleReset()"/>
                <g id="arrowUp" xlink:href="#dirArrow" transform="translate(30 24)" onmousedown="handlePan(0,-1)">
                  <use xlink:href="#rim" fill="#404040">
                        <set attributeName="fill" to="#808080" begin="arrowUp.mouseover" end="arrowUp.mouseout"/>
                  </use>
                  <path fill="none" stroke="white" stroke-width="1.5" d="M0,-3.0v7 M-2.5,-0.5L0,-3.0L2.5,-0.5"/>
                </g>
                <g id="arrowRight" xlink:href="#dirArrow" transform="rotate(90) translate(36 -43)" onmousedown="handlePan(1,0)">
                  <use xlink:href="#rim" fill="#404040">
                        <set attributeName="fill" to="#808080" begin="arrowRight.mouseover" end="arrowRight.mouseout"/>
                  </use>
                  <path fill="none" stroke="white" stroke-width="1.5" d="M0,-3.0v7 M-2.5,-0.5L0,-3.0L2.5,-0.5"/>
                </g>
                <g id="arrowDown" xlink:href="#dirArrow" transform="rotate(180) translate(-30 -48)" onmousedown="handlePan(0,1)">
                  <use xlink:href="#rim" fill="#404040">
                        <set attributeName="fill" to="#808080" begin="arrowDown.mouseover" end="arrowDown.mouseout"/>
                  </use>
                  <path fill="none" stroke="white" stroke-width="1.5" d="M0,-3.0v7 M-2.5,-0.5L0,-3.0L2.5,-0.5"/>
                </g>
                <g id="arrowLeft" xlink:href="#dirArrow" transform="rotate(270) translate(-36 17)" onmousedown="handlePan(-1,0)">
                  <use xlink:href="#rim" fill="#404040">
                        <set attributeName="fill" to="#808080" begin="arrowLeft.mouseover" end="arrowLeft.mouseout"/>
                  </use>
                  <path fill="none" stroke="white" stroke-width="1.5" d="M0,-3.0v7 M-2.5,-0.5L0,-3.0L2.5,-0.5"/>
                </g>
        </g>
        <svg viewBox="0 0 15 15" width="100%" height="30px" preserveAspectRatio="xMaxYMin meet">
         <g id="arrow_out" transform="scale(0.3 0.3)">
          <a xlink:href="struct_element_vague__coll__graph_org.svg" target="_base">
           <rect id="button" ry="5" rx="5" y="6" x="6" height="38" width="38"
                fill="#f2f5e9" fill-opacity="0.5" stroke="#606060" stroke-width="1.0"/>
           <path id="arrow"
             d="M 11.500037,31.436501 C 11.940474,20.09759 22.043105,11.32322 32.158766,21.979434 L 37.068811,17.246167 C 37.068811,17.246167 37.088388,32 37.088388,32 L 22.160133,31.978069 C 22.160133,31.978069 26.997745,27.140456 26.997745,27.140456 C 18.528582,18.264221 13.291696,25.230495 11.500037,31.436501 z"
             style="fill:#404040;"/>
          </a>
         </g>
        </svg>
</svg>
