<?xml version="1.0" encoding="UTF-8" standalone="no"?>
<!DOCTYPE svg PUBLIC "-//W3C//DTD SVG 1.1//EN"
 "http://www.w3.org/Graphics/SVG/1.1/DTD/svg11.dtd">
<!-- Generated by graphviz version 2.38.0 (20140413.2041)
 -->
<!-- Title: src/vague.cpp Pages: 1 -->
<!--zoomable 532 -->
<svg id="main" version="1.1" xmlns="http://www.w3.org/2000/svg" xmlns:xlink="http://www.w3.org/1999/xlink" xml:space="preserve" onload="init(evt)">
<style type="text/css"><![CDATA[
.edge:hover path { stroke: red; }
.edge:hover polygon { stroke: red; fill: red; }
]]></style>
<script type="text/javascript"><![CDATA[
var edges = document.getElementsByTagName('g');
if (edges && edges.length) {
  for (var i=0;i<edges.length;i++) {
    if (edges[i].id.substr(0,4)=='edge') {
      edges[i].setAttribute('class','edge');
    }
  }
}
]]></script>
        <defs>
                <circle id="rim" cx="0" cy="0" r="7"/>
                <circle id="rim2" cx="0" cy="0" r="3.5"/>
                <g id="zoomPlus">
                        <use xlink:href="#rim" fill="#404040">
                                <set attributeName="fill" to="#808080" begin="zoomplus.mouseover" end="zoomplus.mouseout"/>
                        </use>
                        <path d="M-4,0h8M0,-4v8" fill="none" stroke="white" stroke-width="1.5" pointer-events="none"/>
                </g>
                <g id="zoomMin">
                        <use xlink:href="#rim" fill="#404040">
                                <set attributeName="fill" to="#808080" begin="zoomminus.mouseover" end="zoomminus.mouseout"/>
                        </use>
                        <path d="M-4,0h8" fill="none" stroke="white" stroke-width="1.5" pointer-events="none"/>
                </g>
                <g id="dirArrow">
                        <path fill="none" stroke="white" stroke-width="1.5" d="M0,-3.0v7 M-2.5,-0.5L0,-3.0L2.5,-0.5"/>
                </g>
               <g id="resetDef">
                       <use xlink:href="#rim2" fill="#404040">
                               <set attributeName="fill" to="#808080" begin="reset.mouseover" end="reset.mouseout"/>
                       </use>
               </g>
        </defs>

<script type="text/javascript">
var viewWidth = 1304;
var viewHeight = 532;
var sectionId = 'dynsection-0';
</script>
<script xlink:href="svgpan.js"/>
<svg id="graph" class="graph">
<g id="viewport">
<title>src/vague.cpp</title>
<polygon fill="white" stroke="none" points="-4,4 -4,-528 1300,-528 1300,4 -4,4"/>
<!-- Node0 -->
<g id="node1" class="node"><title>Node0</title>
<polygon fill="#bfbfbf" stroke="black" points="771,-504.5 771,-523.5 849,-523.5 849,-504.5 771,-504.5"/>
<text text-anchor="middle" x="810" y="-511.5" font-family="Helvetica,sans-Serif" font-size="10.00">src/vague.cpp</text>
</g>
<!-- Node1 -->
<g id="node2" class="node"><title>Node1</title>
<g id="a_node2"><a xlink:href="vague_8h.html" target="_top" xlink:title="vague.h">
<polygon fill="white" stroke="black" points="784.5,-448.5 784.5,-467.5 835.5,-467.5 835.5,-448.5 784.5,-448.5"/>
<text text-anchor="middle" x="810" y="-455.5" font-family="Helvetica,sans-Serif" font-size="10.00">vague.h</text>
</a>
</g>
</g>
<!-- Node0&#45;&gt;Node1 -->
<g id="edge1" class="edge"><title>Node0&#45;&gt;Node1</title>
<path fill="none" stroke="midnightblue" d="M810,-504.083C810,-497.006 810,-486.861 810,-477.986"/>
<polygon fill="midnightblue" stroke="midnightblue" points="813.5,-477.751 810,-467.751 806.5,-477.751 813.5,-477.751"/>
</g>
<!-- Node2 -->
<g id="node3" class="node"><title>Node2</title>
<polygon fill="white" stroke="#bfbfbf" points="786,-0.5 786,-19.5 830,-19.5 830,-0.5 786,-0.5"/>
<text text-anchor="middle" x="808" y="-7.5" font-family="Helvetica,sans-Serif" font-size="10.00">vector</text>
</g>
<!-- Node1&#45;&gt;Node2 -->
<g id="edge2" class="edge"><title>Node1&#45;&gt;Node2</title>
<path fill="none" stroke="midnightblue" d="M784.42,-456.285C646.736,-452.106 0,-428.158 0,-347 0,-347 0,-347 0,-121 0,-81.1623 624.807,-26.3277 775.559,-13.6771"/>
<polygon fill="midnightblue" stroke="midnightblue" points="776.295,-17.1279 785.969,-12.8075 775.712,-10.1522 776.295,-17.1279"/>
</g>
<!-- Node3 -->
<g id="node4" class="node"><title>Node3</title>
<polygon fill="white" stroke="#bfbfbf" points="1192,-0.5 1192,-19.5 1296,-19.5 1296,-0.5 1192,-0.5"/>
<text text-anchor="middle" x="1244" y="-7.5" font-family="Helvetica,sans-Serif" font-size="10.00">SFML/Graphics.hpp</text>
</g>
<!-- Node1&#45;&gt;Node3 -->
<g id="edge3" class="edge"><title>Node1&#45;&gt;Node3</title>
<path fill="none" stroke="midnightblue" d="M835.592,-456.621C934.462,-454.478 1286,-440.298 1286,-347 1286,-347 1286,-347 1286,-121 1286,-86.4116 1267.65,-49.4916 1255.21,-28.4322"/>
<polygon fill="midnightblue" stroke="midnightblue" points="1258.06,-26.38 1249.84,-19.6923 1252.09,-30.0448 1258.06,-26.38"/>
</g>
<!-- Node4 -->
<g id="node5" class="node"><title>Node4</title>
<g id="a_node5"><a xlink:href="_vaisseau_8h.html" target="_top" xlink:title="Vaisseau/Vaisseau.h">
<polygon fill="white" stroke="black" points="737.5,-224.5 737.5,-243.5 846.5,-243.5 846.5,-224.5 737.5,-224.5"/>
<text text-anchor="middle" x="792" y="-231.5" font-family="Helvetica,sans-Serif" font-size="10.00">Vaisseau/Vaisseau.h</text>
</a>
</g>
</g>
<!-- Node1&#45;&gt;Node4 -->
<g id="edge4" class="edge"><title>Node1&#45;&gt;Node4</title>
<path fill="none" stroke="midnightblue" d="M803.179,-448.485C785.611,-425.938 739.069,-362.15 723,-300 720.775,-291.394 718.766,-287.816 723,-280 730.749,-265.696 745.234,-255.219 758.94,-247.992"/>
<polygon fill="midnightblue" stroke="midnightblue" points="760.738,-251.01 768.212,-243.501 757.686,-244.71 760.738,-251.01"/>
</g>
<!-- Node16 -->
<g id="node17" class="node"><title>Node16</title>
<g id="a_node17"><a xlink:href="__vaisseaux_8h.html" target="_top" xlink:title="Vaisseau/_vaisseaux.h">
<polygon fill="white" stroke="black" points="857,-392.5 857,-411.5 975,-411.5 975,-392.5 857,-392.5"/>
<text text-anchor="middle" x="916" y="-399.5" font-family="Helvetica,sans-Serif" font-size="10.00">Vaisseau/_vaisseaux.h</text>
</a>
</g>
</g>
<!-- Node1&#45;&gt;Node16 -->
<g id="edge30" class="edge"><title>Node1&#45;&gt;Node16</title>
<path fill="none" stroke="midnightblue" d="M827.031,-448.324C844.03,-439.664 870.376,-426.242 889.993,-416.249"/>
<polygon fill="midnightblue" stroke="midnightblue" points="891.69,-419.312 899.012,-411.655 888.512,-413.075 891.69,-419.312"/>
</g>
<!-- Node4&#45;&gt;Node2 -->
<g id="edge5" class="edge"><title>Node4&#45;&gt;Node2</title>
<path fill="none" stroke="midnightblue" d="M801.556,-224.45C810.088,-216.12 821.989,-202.604 827,-188 846.014,-132.583 826.449,-62.1811 815.015,-29.3752"/>
<polygon fill="midnightblue" stroke="midnightblue" points="818.227,-27.966 811.517,-19.767 811.649,-30.361 818.227,-27.966"/>
</g>
<!-- Node5 -->
<g id="node6" class="node"><title>Node5</title>
<polygon fill="white" stroke="#bfbfbf" points="606.5,-56.5 606.5,-75.5 647.5,-75.5 647.5,-56.5 606.5,-56.5"/>
<text text-anchor="middle" x="627" y="-63.5" font-family="Helvetica,sans-Serif" font-size="10.00">string</text>
</g>
<!-- Node4&#45;&gt;Node5 -->
<g id="edge6" class="edge"><title>Node4&#45;&gt;Node5</title>
<path fill="none" stroke="midnightblue" d="M793.003,-224.406C795.04,-202.64 797.24,-144.75 768,-112 766.092,-109.863 698.382,-88.8548 657.499,-76.3122"/>
<polygon fill="midnightblue" stroke="midnightblue" points="658.326,-72.9051 647.739,-73.3224 656.275,-79.5981 658.326,-72.9051"/>
</g>
<!-- Node6 -->
<g id="node7" class="node"><title>Node6</title>
<polygon fill="white" stroke="#bfbfbf" points="666,-56.5 666,-75.5 722,-75.5 722,-56.5 666,-56.5"/>
<text text-anchor="middle" x="694" y="-63.5" font-family="Helvetica,sans-Serif" font-size="10.00">algorithm</text>
</g>
<!-- Node4&#45;&gt;Node6 -->
<g id="edge7" class="edge"><title>Node4&#45;&gt;Node6</title>
<path fill="none" stroke="midnightblue" d="M796.489,-224.475C806.924,-203.356 830.158,-147.741 806,-112 789.601,-87.7382 757.731,-76.5551 732.168,-71.4016"/>
<polygon fill="midnightblue" stroke="midnightblue" points="732.476,-67.9016 722.018,-69.5964 731.25,-74.7934 732.476,-67.9016"/>
</g>
<!-- Node7 -->
<g id="node8" class="node"><title>Node7</title>
<g id="a_node8"><a xlink:href="_capacite_8h.html" target="_top" xlink:title="../Capacites/Capacite.h">
<polygon fill="white" stroke="black" points="568,-168.5 568,-187.5 688,-187.5 688,-168.5 568,-168.5"/>
<text text-anchor="middle" x="628" y="-175.5" font-family="Helvetica,sans-Serif" font-size="10.00">../Capacites/Capacite.h</text>
</a>
</g>
</g>
<!-- Node4&#45;&gt;Node7 -->
<g id="edge8" class="edge"><title>Node4&#45;&gt;Node7</title>
<path fill="none" stroke="midnightblue" d="M766.014,-224.444C738.304,-215.32 694.248,-200.813 663.384,-190.651"/>
<polygon fill="midnightblue" stroke="midnightblue" points="664.458,-187.32 653.865,-187.516 662.268,-193.968 664.458,-187.32"/>
</g>
<!-- Node8 -->
<g id="node9" class="node"><title>Node8</title>
<g id="a_node9"><a xlink:href="_projectile_8h.html" target="_top" xlink:title="../Projectiles/Projectile.h">
<polygon fill="white" stroke="black" points="438.5,-112.5 438.5,-131.5 561.5,-131.5 561.5,-112.5 438.5,-112.5"/>
<text text-anchor="middle" x="500" y="-119.5" font-family="Helvetica,sans-Serif" font-size="10.00">../Projectiles/Projectile.h</text>
</a>
</g>
</g>
<!-- Node4&#45;&gt;Node8 -->
<g id="edge24" class="edge"><title>Node4&#45;&gt;Node8</title>
<path fill="none" stroke="midnightblue" d="M782.214,-224.419C765.774,-210.459 731.055,-182.895 697,-168 657.315,-150.642 610.086,-139.56 571.821,-132.738"/>
<polygon fill="midnightblue" stroke="midnightblue" points="572.238,-129.259 561.789,-131.01 571.05,-136.157 572.238,-129.259"/>
</g>
<!-- Node9 -->
<g id="node10" class="node"><title>Node9</title>
<g id="a_node10"><a xlink:href="_entite_8h.html" target="_top" xlink:title="../Entite.h">
<polygon fill="white" stroke="black" points="529.5,-56.5 529.5,-75.5 588.5,-75.5 588.5,-56.5 529.5,-56.5"/>
<text text-anchor="middle" x="559" y="-63.5" font-family="Helvetica,sans-Serif" font-size="10.00">../Entite.h</text>
</a>
</g>
</g>
<!-- Node4&#45;&gt;Node9 -->
<g id="edge23" class="edge"><title>Node4&#45;&gt;Node9</title>
<path fill="none" stroke="midnightblue" d="M784.877,-224.29C773.818,-211.103 751.445,-185.729 729,-168 682.214,-131.044 620.668,-97.7465 585.921,-80.1522"/>
<polygon fill="midnightblue" stroke="midnightblue" points="587.374,-76.9657 576.866,-75.6161 584.239,-83.2243 587.374,-76.9657"/>
</g>
<!-- Node13 -->
<g id="node14" class="node"><title>Node13</title>
<g id="a_node14"><a xlink:href="_input_8h.html" target="_top" xlink:title="../Interface/Input.h">
<polygon fill="white" stroke="black" points="1008.5,-56.5 1008.5,-75.5 1105.5,-75.5 1105.5,-56.5 1008.5,-56.5"/>
<text text-anchor="middle" x="1057" y="-63.5" font-family="Helvetica,sans-Serif" font-size="10.00">../Interface/Input.h</text>
</a>
</g>
</g>
<!-- Node4&#45;&gt;Node13 -->
<g id="edge25" class="edge"><title>Node4&#45;&gt;Node13</title>
<path fill="none" stroke="midnightblue" d="M811.026,-224.445C829.53,-215.903 858.245,-202.056 882,-188 940.734,-153.247 1005.84,-105.631 1037.53,-81.8212"/>
<polygon fill="midnightblue" stroke="midnightblue" points="1040.03,-84.3209 1045.9,-75.5015 1035.81,-78.7347 1040.03,-84.3209"/>
</g>
<!-- Node7&#45;&gt;Node2 -->
<g id="edge9" class="edge"><title>Node7&#45;&gt;Node2</title>
<path fill="none" stroke="midnightblue" d="M637.678,-168.075C666.87,-141.153 754.311,-60.5135 791.243,-26.4534"/>
<polygon fill="midnightblue" stroke="midnightblue" points="793.731,-28.9205 798.709,-19.5681 788.985,-23.7746 793.731,-28.9205"/>
</g>
<!-- Node7&#45;&gt;Node5 -->
<g id="edge10" class="edge"><title>Node7&#45;&gt;Node5</title>
<path fill="none" stroke="midnightblue" d="M627.922,-168.368C627.76,-150.617 627.388,-109.666 627.169,-85.5974"/>
<polygon fill="midnightblue" stroke="midnightblue" points="630.669,-85.5592 627.078,-75.5914 623.669,-85.6229 630.669,-85.5592"/>
</g>
<!-- Node7&#45;&gt;Node6 -->
<g id="edge11" class="edge"><title>Node7&#45;&gt;Node6</title>
<path fill="none" stroke="midnightblue" d="M633.179,-168.368C644.023,-150.296 669.294,-108.176 683.616,-84.3074"/>
<polygon fill="midnightblue" stroke="midnightblue" points="686.701,-85.9671 688.845,-75.5914 680.699,-82.3656 686.701,-85.9671"/>
</g>
<!-- Node7&#45;&gt;Node8 -->
<g id="edge12" class="edge"><title>Node7&#45;&gt;Node8</title>
<path fill="none" stroke="midnightblue" d="M607.718,-168.444C586.653,-159.557 553.483,-145.563 529.514,-135.451"/>
<polygon fill="midnightblue" stroke="midnightblue" points="530.761,-132.179 520.187,-131.516 528.04,-138.628 530.761,-132.179"/>
</g>
<!-- Node7&#45;&gt;Node9 -->
<g id="edge22" class="edge"><title>Node7&#45;&gt;Node9</title>
<path fill="none" stroke="midnightblue" d="M622.586,-168.368C611.249,-150.296 584.829,-108.176 569.856,-84.3074"/>
<polygon fill="midnightblue" stroke="midnightblue" points="572.668,-82.2029 564.389,-75.5914 566.738,-85.9226 572.668,-82.2029"/>
</g>
<!-- Node8&#45;&gt;Node2 -->
<g id="edge13" class="edge"><title>Node8&#45;&gt;Node2</title>
<path fill="none" stroke="midnightblue" d="M499.944,-112.302C500.363,-98.1746 503.398,-70.3754 520,-56 539.15,-39.4182 704.516,-21.2474 775.668,-14.1164"/>
<polygon fill="midnightblue" stroke="midnightblue" points="776.243,-17.5767 785.849,-13.1072 775.552,-10.6108 776.243,-17.5767"/>
</g>
<!-- Node8&#45;&gt;Node5 -->
<g id="edge14" class="edge"><title>Node8&#45;&gt;Node5</title>
<path fill="none" stroke="midnightblue" d="M520.124,-112.444C541.024,-103.557 573.935,-89.5632 597.716,-79.4514"/>
<polygon fill="midnightblue" stroke="midnightblue" points="599.138,-82.6504 606.971,-75.5164 596.398,-76.2085 599.138,-82.6504"/>
</g>
<!-- Node8&#45;&gt;Node6 -->
<g id="edge15" class="edge"><title>Node8&#45;&gt;Node6</title>
<path fill="none" stroke="midnightblue" d="M530.74,-112.444C564.725,-102.984 619.498,-87.7377 656.111,-77.5465"/>
<polygon fill="midnightblue" stroke="midnightblue" points="657.228,-80.8685 665.924,-74.8151 655.351,-74.1249 657.228,-80.8685"/>
</g>
<!-- Node8&#45;&gt;Node9 -->
<g id="edge16" class="edge"><title>Node8&#45;&gt;Node9</title>
<path fill="none" stroke="midnightblue" d="M509.479,-112.324C518.201,-104.341 531.343,-92.3128 541.898,-82.6529"/>
<polygon fill="midnightblue" stroke="midnightblue" points="544.334,-85.1674 549.348,-75.8339 539.608,-80.0036 544.334,-85.1674"/>
</g>
<!-- Node9&#45;&gt;Node2 -->
<g id="edge17" class="edge"><title>Node9&#45;&gt;Node2</title>
<path fill="none" stroke="midnightblue" d="M588.856,-57.8621C591.608,-57.2244 594.354,-56.5954 597,-56 660.198,-41.7789 734.305,-26.2348 775.739,-17.6456"/>
<polygon fill="midnightblue" stroke="midnightblue" points="776.705,-21.0201 785.788,-15.5662 775.286,-14.1653 776.705,-21.0201"/>
</g>
<!-- Node9&#45;&gt;Node3 -->
<g id="edge20" class="edge"><title>Node9&#45;&gt;Node3</title>
<path fill="none" stroke="midnightblue" d="M588.777,-57.4398C591.545,-56.8908 594.317,-56.3977 597,-56 853.36,-17.9976 921.125,-45.7909 1179,-20 1179.92,-19.9082 1180.84,-19.8133 1181.77,-19.7154"/>
<polygon fill="midnightblue" stroke="midnightblue" points="1182.35,-23.1728 1191.89,-18.5694 1181.56,-16.2173 1182.35,-23.1728"/>
</g>
<!-- Node10 -->
<g id="node11" class="node"><title>Node10</title>
<polygon fill="white" stroke="#bfbfbf" points="486,-0.5 486,-19.5 538,-19.5 538,-0.5 486,-0.5"/>
<text text-anchor="middle" x="512" y="-7.5" font-family="Helvetica,sans-Serif" font-size="10.00">memory</text>
</g>
<!-- Node9&#45;&gt;Node10 -->
<g id="edge18" class="edge"><title>Node9&#45;&gt;Node10</title>
<path fill="none" stroke="midnightblue" d="M551.239,-56.083C544.463,-48.2982 534.457,-36.8015 526.245,-27.3665"/>
<polygon fill="midnightblue" stroke="midnightblue" points="528.822,-24.9963 519.617,-19.7511 523.542,-29.592 528.822,-24.9963"/>
</g>
<!-- Node11 -->
<g id="node12" class="node"><title>Node11</title>
<polygon fill="white" stroke="#bfbfbf" points="556,-0.5 556,-19.5 654,-19.5 654,-0.5 556,-0.5"/>
<text text-anchor="middle" x="605" y="-7.5" font-family="Helvetica,sans-Serif" font-size="10.00">SFML/System.hpp</text>
</g>
<!-- Node9&#45;&gt;Node11 -->
<g id="edge19" class="edge"><title>Node9&#45;&gt;Node11</title>
<path fill="none" stroke="midnightblue" d="M566.596,-56.083C573.227,-48.2982 583.021,-36.8015 591.058,-27.3665"/>
<polygon fill="midnightblue" stroke="midnightblue" points="593.725,-29.6332 597.545,-19.7511 588.396,-25.0939 593.725,-29.6332"/>
</g>
<!-- Node12 -->
<g id="node13" class="node"><title>Node12</title>
<g id="a_node13"><a xlink:href="constantes_8h.html" target="_top" xlink:title="constantes.h">
<polygon fill="white" stroke="black" points="1097.5,-0.5 1097.5,-19.5 1170.5,-19.5 1170.5,-0.5 1097.5,-0.5"/>
<text text-anchor="middle" x="1134" y="-7.5" font-family="Helvetica,sans-Serif" font-size="10.00">constantes.h</text>
</a>
</g>
</g>
<!-- Node9&#45;&gt;Node12 -->
<g id="edge21" class="edge"><title>Node9&#45;&gt;Node12</title>
<path fill="none" stroke="midnightblue" d="M588.782,-57.4729C591.549,-56.9169 594.32,-56.4132 597,-56 812.816,-22.7318 870.514,-48.5821 1087,-20 1087.11,-19.9861 1087.21,-19.972 1087.32,-19.9579"/>
<polygon fill="midnightblue" stroke="midnightblue" points="1088.01,-23.3928 1097.38,-18.438 1086.97,-16.4714 1088.01,-23.3928"/>
</g>
<!-- Node13&#45;&gt;Node3 -->
<g id="edge26" class="edge"><title>Node13&#45;&gt;Node3</title>
<path fill="none" stroke="midnightblue" d="M1086.63,-56.4435C1118.5,-47.2406 1169.33,-32.5617 1204.56,-22.3879"/>
<polygon fill="midnightblue" stroke="midnightblue" points="1205.87,-25.6534 1214.51,-19.5164 1203.93,-18.9282 1205.87,-25.6534"/>
</g>
<!-- Node13&#45;&gt;Node12 -->
<g id="edge29" class="edge"><title>Node13&#45;&gt;Node12</title>
<path fill="none" stroke="midnightblue" d="M1069.37,-56.324C1081.16,-48.0577 1099.13,-35.4527 1113.14,-25.6322"/>
<polygon fill="midnightblue" stroke="midnightblue" points="1115.48,-28.2619 1121.66,-19.6545 1111.46,-22.5307 1115.48,-28.2619"/>
</g>
<!-- Node14 -->
<g id="node15" class="node"><title>Node14</title>
<polygon fill="white" stroke="#bfbfbf" points="969,-0.5 969,-19.5 1019,-19.5 1019,-0.5 969,-0.5"/>
<text text-anchor="middle" x="994" y="-7.5" font-family="Helvetica,sans-Serif" font-size="10.00">optional</text>
</g>
<!-- Node13&#45;&gt;Node14 -->
<g id="edge27" class="edge"><title>Node13&#45;&gt;Node14</title>
<path fill="none" stroke="midnightblue" d="M1046.88,-56.324C1037.47,-48.2631 1023.26,-36.0765 1011.93,-26.3695"/>
<polygon fill="midnightblue" stroke="midnightblue" points="1014.18,-23.6844 1004.31,-19.8339 1009.62,-28.9993 1014.18,-23.6844"/>
</g>
<!-- Node15 -->
<g id="node16" class="node"><title>Node15</title>
<polygon fill="white" stroke="#bfbfbf" points="1037.5,-0.5 1037.5,-19.5 1078.5,-19.5 1078.5,-0.5 1037.5,-0.5"/>
<text text-anchor="middle" x="1058" y="-7.5" font-family="Helvetica,sans-Serif" font-size="10.00">bitset</text>
</g>
<!-- Node13&#45;&gt;Node15 -->
<g id="edge28" class="edge"><title>Node13&#45;&gt;Node15</title>
<path fill="none" stroke="midnightblue" d="M1057.17,-56.083C1057.3,-49.0059 1057.48,-38.8611 1057.65,-29.9865"/>
<polygon fill="midnightblue" stroke="midnightblue" points="1061.15,-29.8142 1057.84,-19.7511 1054.15,-29.6845 1061.15,-29.8142"/>
</g>
<!-- Node17 -->
<g id="node18" class="node"><title>Node17</title>
<g id="a_node18"><a xlink:href="_vaisseau_eclaireur_8h.html" target="_top" xlink:title="VaisseauEclaireur.h">
<polygon fill="white" stroke="black" points="1146,-280.5 1146,-299.5 1250,-299.5 1250,-280.5 1146,-280.5"/>
<text text-anchor="middle" x="1198" y="-287.5" font-family="Helvetica,sans-Serif" font-size="10.00">VaisseauEclaireur.h</text>
</a>
</g>
</g>
<!-- Node16&#45;&gt;Node17 -->
<g id="edge31" class="edge"><title>Node16&#45;&gt;Node17</title>
<path fill="none" stroke="midnightblue" d="M938.128,-392.368C987.961,-372.93 1109.11,-325.674 1166.65,-303.228"/>
<polygon fill="midnightblue" stroke="midnightblue" points="1167.93,-306.486 1175.97,-299.591 1165.39,-299.965 1167.93,-306.486"/>
</g>
<!-- Node20 -->
<g id="node21" class="node"><title>Node20</title>
<g id="a_node21"><a xlink:href="_vaisseau_test_8h.html" target="_top" xlink:title="VaisseauTest.h">
<polygon fill="white" stroke="black" points="588.5,-336.5 588.5,-355.5 673.5,-355.5 673.5,-336.5 588.5,-336.5"/>
<text text-anchor="middle" x="631" y="-343.5" font-family="Helvetica,sans-Serif" font-size="10.00">VaisseauTest.h</text>
</a>
</g>
</g>
<!-- Node16&#45;&gt;Node20 -->
<g id="edge39" class="edge"><title>Node16&#45;&gt;Node20</title>
<path fill="none" stroke="midnightblue" d="M870.841,-392.444C819.969,-382.805 737.393,-367.159 683.638,-356.974"/>
<polygon fill="midnightblue" stroke="midnightblue" points="684.097,-353.498 673.62,-355.075 682.794,-360.376 684.097,-353.498"/>
</g>
<!-- Node29 -->
<g id="node30" class="node"><title>Node29</title>
<g id="a_node30"><a xlink:href="_vaisseau_attaquant_8h.html" target="_top" xlink:title="VaisseauAttaquant.h">
<polygon fill="white" stroke="black" points="982.5,-280.5 982.5,-299.5 1089.5,-299.5 1089.5,-280.5 982.5,-280.5"/>
<text text-anchor="middle" x="1036" y="-287.5" font-family="Helvetica,sans-Serif" font-size="10.00">VaisseauAttaquant.h</text>
</a>
</g>
</g>
<!-- Node16&#45;&gt;Node29 -->
<g id="edge61" class="edge"><title>Node16&#45;&gt;Node29</title>
<path fill="none" stroke="midnightblue" d="M930.221,-392.44C943.707,-384.001 964.198,-370.32 980,-356 996.478,-341.067 1012.78,-321.444 1023.51,-307.681"/>
<polygon fill="midnightblue" stroke="midnightblue" points="1026.41,-309.659 1029.7,-299.591 1020.85,-305.405 1026.41,-309.659"/>
</g>
<!-- Node30 -->
<g id="node31" class="node"><title>Node30</title>
<g id="a_node31"><a xlink:href="_vaisseau_defenseur_8h.html" target="_top" xlink:title="VaisseauDefenseur.h">
<polygon fill="white" stroke="black" points="861,-336.5 861,-355.5 971,-355.5 971,-336.5 861,-336.5"/>
<text text-anchor="middle" x="916" y="-343.5" font-family="Helvetica,sans-Serif" font-size="10.00">VaisseauDefenseur.h</text>
</a>
</g>
</g>
<!-- Node16&#45;&gt;Node30 -->
<g id="edge66" class="edge"><title>Node16&#45;&gt;Node30</title>
<path fill="none" stroke="midnightblue" d="M916,-392.083C916,-385.006 916,-374.861 916,-365.986"/>
<polygon fill="midnightblue" stroke="midnightblue" points="919.5,-365.751 916,-355.751 912.5,-365.751 919.5,-365.751"/>
</g>
<!-- Node17&#45;&gt;Node2 -->
<g id="edge32" class="edge"><title>Node17&#45;&gt;Node2</title>
<path fill="none" stroke="midnightblue" d="M1198.38,-280.286C1198.64,-267.523 1198.04,-243.179 1191,-224 1180.64,-195.763 1175.41,-188.065 1153,-168 1073.61,-96.9115 1038.89,-98.0998 941,-56 907.244,-41.4831 867.127,-28.4596 839.844,-20.2042"/>
<polygon fill="midnightblue" stroke="midnightblue" points="840.639,-16.789 830.056,-17.2805 838.636,-23.4962 840.639,-16.789"/>
</g>
<!-- Node17&#45;&gt;Node4 -->
<g id="edge34" class="edge"><title>Node17&#45;&gt;Node4</title>
<path fill="none" stroke="midnightblue" d="M1145.75,-282.051C1071.82,-272.217 936.75,-254.252 856.609,-243.593"/>
<polygon fill="midnightblue" stroke="midnightblue" points="857.011,-240.116 846.636,-242.267 856.088,-247.055 857.011,-240.116"/>
</g>
<!-- Node17&#45;&gt;Node12 -->
<g id="edge33" class="edge"><title>Node17&#45;&gt;Node12</title>
<path fill="none" stroke="midnightblue" d="M1204.89,-280.319C1211.27,-271.684 1220.31,-257.77 1224,-244 1232.75,-211.375 1229.5,-201.327 1224,-168 1215.44,-116.137 1215.34,-99.6118 1186,-56 1178.09,-44.2374 1166.32,-33.7046 1155.99,-25.7916"/>
<polygon fill="midnightblue" stroke="midnightblue" points="1157.9,-22.8537 1147.76,-19.7915 1153.78,-28.5104 1157.9,-22.8537"/>
</g>
<!-- Node18 -->
<g id="node19" class="node"><title>Node18</title>
<g id="a_node19"><a xlink:href="_trajectoire_8h.html" target="_top" xlink:title="../Utilitaires/Trajectoire.h">
<polygon fill="white" stroke="black" points="1058,-224.5 1058,-243.5 1182,-243.5 1182,-224.5 1058,-224.5"/>
<text text-anchor="middle" x="1120" y="-231.5" font-family="Helvetica,sans-Serif" font-size="10.00">../Utilitaires/Trajectoire.h</text>
</a>
</g>
</g>
<!-- Node17&#45;&gt;Node18 -->
<g id="edge35" class="edge"><title>Node17&#45;&gt;Node18</title>
<path fill="none" stroke="midnightblue" d="M1185.47,-280.324C1173.41,-271.979 1154.97,-259.212 1140.73,-249.352"/>
<polygon fill="midnightblue" stroke="midnightblue" points="1142.72,-246.469 1132.5,-243.655 1138.73,-252.224 1142.72,-246.469"/>
</g>
<!-- Node18&#45;&gt;Node2 -->
<g id="edge36" class="edge"><title>Node18&#45;&gt;Node2</title>
<path fill="none" stroke="midnightblue" d="M1102.42,-224.343C1072.3,-208.897 1010.02,-174.215 968,-132 939.476,-103.345 949.219,-81.6931 918,-56 895.24,-37.2686 863.627,-25.4295 840.129,-18.6235"/>
<polygon fill="midnightblue" stroke="midnightblue" points="840.855,-15.1935 830.285,-15.9266 839.005,-21.9447 840.855,-15.1935"/>
</g>
<!-- Node18&#45;&gt;Node3 -->
<g id="edge37" class="edge"><title>Node18&#45;&gt;Node3</title>
<path fill="none" stroke="midnightblue" d="M1126.84,-224.222C1133.71,-215.286 1144.47,-200.944 1153,-188 1189.2,-133.067 1221.89,-61.9402 1236.27,-29.0923"/>
<polygon fill="midnightblue" stroke="midnightblue" points="1239.51,-30.4088 1240.27,-19.8414 1233.09,-27.6271 1239.51,-30.4088"/>
</g>
<!-- Node19 -->
<g id="node20" class="node"><title>Node19</title>
<polygon fill="white" stroke="#bfbfbf" points="1100,-168.5 1100,-187.5 1144,-187.5 1144,-168.5 1100,-168.5"/>
<text text-anchor="middle" x="1122" y="-175.5" font-family="Helvetica,sans-Serif" font-size="10.00">cmath</text>
</g>
<!-- Node18&#45;&gt;Node19 -->
<g id="edge38" class="edge"><title>Node18&#45;&gt;Node19</title>
<path fill="none" stroke="midnightblue" d="M1120.33,-224.083C1120.59,-217.006 1120.97,-206.861 1121.3,-197.986"/>
<polygon fill="midnightblue" stroke="midnightblue" points="1124.8,-197.874 1121.68,-187.751 1117.81,-197.615 1124.8,-197.874"/>
</g>
<!-- Node20&#45;&gt;Node4 -->
<g id="edge40" class="edge"><title>Node20&#45;&gt;Node4</title>
<path fill="none" stroke="midnightblue" d="M636.978,-336.359C646.725,-322.803 667.253,-296.399 690,-280 709.699,-265.799 734.59,-254.708 754.852,-247.091"/>
<polygon fill="midnightblue" stroke="midnightblue" points="756.177,-250.333 764.384,-243.632 753.79,-243.753 756.177,-250.333"/>
</g>
<!-- Node20&#45;&gt;Node7 -->
<g id="edge41" class="edge"><title>Node20&#45;&gt;Node7</title>
<path fill="none" stroke="midnightblue" d="M630.839,-336.075C630.366,-309.945 628.98,-233.211 628.336,-197.577"/>
<polygon fill="midnightblue" stroke="midnightblue" points="631.835,-197.503 628.155,-187.568 624.836,-197.63 631.835,-197.503"/>
</g>
<!-- Node21 -->
<g id="node22" class="node"><title>Node21</title>
<g id="a_node22"><a xlink:href="___capacites_8h.html" target="_top" xlink:title="../Capacites/_Capacites.h">
<polygon fill="white" stroke="black" points="324.5,-280.5 324.5,-299.5 455.5,-299.5 455.5,-280.5 324.5,-280.5"/>
<text text-anchor="middle" x="390" y="-287.5" font-family="Helvetica,sans-Serif" font-size="10.00">../Capacites/_Capacites.h</text>
</a>
</g>
</g>
<!-- Node20&#45;&gt;Node21 -->
<g id="edge42" class="edge"><title>Node20&#45;&gt;Node21</title>
<path fill="none" stroke="midnightblue" d="M592.813,-336.444C550.859,-327.043 483.406,-311.929 437.929,-301.739"/>
<polygon fill="midnightblue" stroke="midnightblue" points="438.532,-298.288 428.009,-299.516 437.001,-305.118 438.532,-298.288"/>
</g>
<!-- Node22 -->
<g id="node23" class="node"><title>Node22</title>
<g id="a_node23"><a xlink:href="_cap_test_8h.html" target="_top" xlink:title="CapTest.h">
<polygon fill="white" stroke="black" points="231,-224.5 231,-243.5 293,-243.5 293,-224.5 231,-224.5"/>
<text text-anchor="middle" x="262" y="-231.5" font-family="Helvetica,sans-Serif" font-size="10.00">CapTest.h</text>
</a>
</g>
</g>
<!-- Node21&#45;&gt;Node22 -->
<g id="edge43" class="edge"><title>Node21&#45;&gt;Node22</title>
<path fill="none" stroke="midnightblue" d="M369.718,-280.444C348.653,-271.557 315.483,-257.563 291.514,-247.451"/>
<polygon fill="midnightblue" stroke="midnightblue" points="292.761,-244.179 282.187,-243.516 290.04,-250.628 292.761,-244.179"/>
</g>
<!-- Node24 -->
<g id="node25" class="node"><title>Node24</title>
<g id="a_node25"><a xlink:href="_cap_piou_8h.html" target="_top" xlink:title="CapPiou.h">
<polygon fill="white" stroke="black" points="359,-224.5 359,-243.5 421,-243.5 421,-224.5 359,-224.5"/>
<text text-anchor="middle" x="390" y="-231.5" font-family="Helvetica,sans-Serif" font-size="10.00">CapPiou.h</text>
</a>
</g>
</g>
<!-- Node21&#45;&gt;Node24 -->
<g id="edge48" class="edge"><title>Node21&#45;&gt;Node24</title>
<path fill="none" stroke="midnightblue" d="M390,-280.083C390,-273.006 390,-262.861 390,-253.986"/>
<polygon fill="midnightblue" stroke="midnightblue" points="393.5,-253.751 390,-243.751 386.5,-253.751 393.5,-253.751"/>
</g>
<!-- Node26 -->
<g id="node27" class="node"><title>Node26</title>
<g id="a_node27"><a xlink:href="_cap_dash_8h.html" target="_top" xlink:title="CapDash.h">
<polygon fill="white" stroke="black" points="120,-224.5 120,-243.5 186,-243.5 186,-224.5 120,-224.5"/>
<text text-anchor="middle" x="153" y="-231.5" font-family="Helvetica,sans-Serif" font-size="10.00">CapDash.h</text>
</a>
</g>
</g>
<!-- Node21&#45;&gt;Node26 -->
<g id="edge53" class="edge"><title>Node21&#45;&gt;Node26</title>
<path fill="none" stroke="midnightblue" d="M352.447,-280.444C309.944,-270.759 240.828,-255.012 196.144,-244.83"/>
<polygon fill="midnightblue" stroke="midnightblue" points="196.699,-241.367 186.171,-242.558 195.144,-248.192 196.699,-241.367"/>
</g>
<!-- Node27 -->
<g id="node28" class="node"><title>Node27</title>
<g id="a_node28"><a xlink:href="_cap_missile_8h.html" target="_top" xlink:title="CapMissile.h">
<polygon fill="white" stroke="black" points="486,-224.5 486,-243.5 560,-243.5 560,-224.5 486,-224.5"/>
<text text-anchor="middle" x="523" y="-231.5" font-family="Helvetica,sans-Serif" font-size="10.00">CapMissile.h</text>
</a>
</g>
</g>
<!-- Node21&#45;&gt;Node27 -->
<g id="edge57" class="edge"><title>Node21&#45;&gt;Node27</title>
<path fill="none" stroke="midnightblue" d="M411.074,-280.444C433.06,-271.517 467.734,-257.439 492.664,-247.317"/>
<polygon fill="midnightblue" stroke="midnightblue" points="494.076,-250.521 502.024,-243.516 491.442,-244.035 494.076,-250.521"/>
</g>
<!-- Node22&#45;&gt;Node7 -->
<g id="edge44" class="edge"><title>Node22&#45;&gt;Node7</title>
<path fill="none" stroke="midnightblue" d="M293.205,-228.396C352.056,-219.713 480.664,-200.738 560.244,-188.997"/>
<polygon fill="midnightblue" stroke="midnightblue" points="560.795,-192.454 570.177,-187.531 559.773,-185.528 560.795,-192.454"/>
</g>
<!-- Node22&#45;&gt;Node8 -->
<g id="edge45" class="edge"><title>Node22&#45;&gt;Node8</title>
<path fill="none" stroke="midnightblue" d="M252.491,-224.151C239.263,-210.781 218.479,-185.173 233,-168 257.554,-138.962 357.719,-128.654 428.115,-125"/>
<polygon fill="midnightblue" stroke="midnightblue" points="428.453,-128.487 438.272,-124.507 428.114,-121.496 428.453,-128.487"/>
</g>
<!-- Node23 -->
<g id="node24" class="node"><title>Node23</title>
<g id="a_node24"><a xlink:href="_proj_test_8h.html" target="_top" xlink:title="../Projectiles/ProjTest.h">
<polygon fill="white" stroke="black" points="66.5,-168.5 66.5,-187.5 185.5,-187.5 185.5,-168.5 66.5,-168.5"/>
<text text-anchor="middle" x="126" y="-175.5" font-family="Helvetica,sans-Serif" font-size="10.00">../Projectiles/ProjTest.h</text>
</a>
</g>
</g>
<!-- Node22&#45;&gt;Node23 -->
<g id="edge46" class="edge"><title>Node22&#45;&gt;Node23</title>
<path fill="none" stroke="midnightblue" d="M240.45,-224.444C217.969,-215.517 182.512,-201.439 157.02,-191.317"/>
<polygon fill="midnightblue" stroke="midnightblue" points="158.035,-187.954 147.449,-187.516 155.451,-194.46 158.035,-187.954"/>
</g>
<!-- Node23&#45;&gt;Node8 -->
<g id="edge47" class="edge"><title>Node23&#45;&gt;Node8</title>
<path fill="none" stroke="midnightblue" d="M185.261,-168.444C252.009,-158.806 360.349,-143.163 430.892,-132.978"/>
<polygon fill="midnightblue" stroke="midnightblue" points="431.619,-136.41 441.016,-131.516 430.618,-129.481 431.619,-136.41"/>
</g>
<!-- Node24&#45;&gt;Node7 -->
<g id="edge49" class="edge"><title>Node24&#45;&gt;Node7</title>
<path fill="none" stroke="midnightblue" d="M421.114,-225.94C461.613,-216.752 532.796,-200.601 580.178,-189.85"/>
<polygon fill="midnightblue" stroke="midnightblue" points="581.224,-193.202 590.202,-187.576 579.675,-186.376 581.224,-193.202"/>
</g>
<!-- Node24&#45;&gt;Node8 -->
<g id="edge50" class="edge"><title>Node24&#45;&gt;Node8</title>
<path fill="none" stroke="midnightblue" d="M390.364,-224.4C391.364,-210.902 395.097,-184.574 409,-168 421.806,-152.733 441.051,-142.174 458.549,-135.142"/>
<polygon fill="midnightblue" stroke="midnightblue" points="459.899,-138.374 468.038,-131.591 457.446,-131.818 459.899,-138.374"/>
</g>
<!-- Node25 -->
<g id="node26" class="node"><title>Node25</title>
<g id="a_node26"><a xlink:href="_proj_piou_8h.html" target="_top" xlink:title="../Projectiles/ProjPiou.h">
<polygon fill="white" stroke="black" points="242.5,-168.5 242.5,-187.5 361.5,-187.5 361.5,-168.5 242.5,-168.5"/>
<text text-anchor="middle" x="302" y="-175.5" font-family="Helvetica,sans-Serif" font-size="10.00">../Projectiles/ProjPiou.h</text>
</a>
</g>
</g>
<!-- Node24&#45;&gt;Node25 -->
<g id="edge51" class="edge"><title>Node24&#45;&gt;Node25</title>
<path fill="none" stroke="midnightblue" d="M375.861,-224.324C362.134,-215.9 341.064,-202.971 324.936,-193.074"/>
<polygon fill="midnightblue" stroke="midnightblue" points="326.457,-189.902 316.104,-187.655 322.796,-195.868 326.457,-189.902"/>
</g>
<!-- Node25&#45;&gt;Node8 -->
<g id="edge52" class="edge"><title>Node25&#45;&gt;Node8</title>
<path fill="none" stroke="midnightblue" d="M333.374,-168.444C367.263,-159.201 421.403,-144.436 458.724,-134.257"/>
<polygon fill="midnightblue" stroke="midnightblue" points="460.046,-137.524 468.773,-131.516 458.205,-130.771 460.046,-137.524"/>
</g>
<!-- Node26&#45;&gt;Node7 -->
<g id="edge54" class="edge"><title>Node26&#45;&gt;Node7</title>
<path fill="none" stroke="midnightblue" d="M186.322,-228.497C197.639,-227.009 210.364,-225.382 222,-224 367.936,-206.667 407.173,-205.615 557.609,-188.021"/>
<polygon fill="midnightblue" stroke="midnightblue" points="558.158,-191.48 567.681,-186.837 557.341,-184.528 558.158,-191.48"/>
</g>
<!-- Node26&#45;&gt;Node9 -->
<g id="edge55" class="edge"><title>Node26&#45;&gt;Node9</title>
<path fill="none" stroke="midnightblue" d="M119.807,-224.7C84.1898,-214.216 35.4495,-194.318 57,-168 115.663,-96.3591 411.252,-74.4332 519.339,-68.7505"/>
<polygon fill="midnightblue" stroke="midnightblue" points="519.688,-72.2375 529.498,-68.2356 519.333,-65.2464 519.688,-72.2375"/>
</g>
<!-- Node26&#45;&gt;Node23 -->
<g id="edge56" class="edge"><title>Node26&#45;&gt;Node23</title>
<path fill="none" stroke="midnightblue" d="M148.541,-224.083C144.846,-216.691 139.477,-205.953 134.906,-196.811"/>
<polygon fill="midnightblue" stroke="midnightblue" points="137.978,-195.13 130.376,-187.751 131.717,-198.261 137.978,-195.13"/>
</g>
<!-- Node27&#45;&gt;Node7 -->
<g id="edge58" class="edge"><title>Node27&#45;&gt;Node7</title>
<path fill="none" stroke="midnightblue" d="M539.87,-224.324C556.709,-215.664 582.807,-202.242 602.238,-192.249"/>
<polygon fill="midnightblue" stroke="midnightblue" points="603.88,-195.341 611.172,-187.655 600.678,-189.116 603.88,-195.341"/>
</g>
<!-- Node28 -->
<g id="node29" class="node"><title>Node28</title>
<g id="a_node29"><a xlink:href="_proj_missile_8h.html" target="_top" xlink:title="../Projectiles/ProjMissile.h">
<polygon fill="white" stroke="black" points="418.5,-168.5 418.5,-187.5 549.5,-187.5 549.5,-168.5 418.5,-168.5"/>
<text text-anchor="middle" x="484" y="-175.5" font-family="Helvetica,sans-Serif" font-size="10.00">../Projectiles/ProjMissile.h</text>
</a>
</g>
</g>
<!-- Node27&#45;&gt;Node28 -->
<g id="edge59" class="edge"><title>Node27&#45;&gt;Node28</title>
<path fill="none" stroke="midnightblue" d="M516.56,-224.083C511.051,-216.455 502.969,-205.264 496.235,-195.941"/>
<polygon fill="midnightblue" stroke="midnightblue" points="499.013,-193.809 490.32,-187.751 493.338,-197.907 499.013,-193.809"/>
</g>
<!-- Node28&#45;&gt;Node8 -->
<g id="edge60" class="edge"><title>Node28&#45;&gt;Node8</title>
<path fill="none" stroke="midnightblue" d="M486.642,-168.083C488.786,-160.849 491.879,-150.409 494.549,-141.397"/>
<polygon fill="midnightblue" stroke="midnightblue" points="497.922,-142.333 497.407,-131.751 491.21,-140.345 497.922,-142.333"/>
</g>
<!-- Node29&#45;&gt;Node4 -->
<g id="edge63" class="edge"><title>Node29&#45;&gt;Node4</title>
<path fill="none" stroke="midnightblue" d="M997.337,-280.444C954.862,-271.043 886.569,-255.929 840.526,-245.739"/>
<polygon fill="midnightblue" stroke="midnightblue" points="841.002,-242.26 830.482,-243.516 839.489,-249.095 841.002,-242.26"/>
</g>
<!-- Node29&#45;&gt;Node12 -->
<g id="edge62" class="edge"><title>Node29&#45;&gt;Node12</title>
<path fill="none" stroke="midnightblue" d="M1036.66,-280.274C1037.86,-267.494 1041.06,-243.132 1049,-224 1079.34,-150.91 1125.01,-151.724 1148,-76 1152.76,-60.3118 1147.93,-42.0236 1142.69,-28.8495"/>
<polygon fill="midnightblue" stroke="midnightblue" points="1145.81,-27.259 1138.57,-19.5279 1139.41,-30.0893 1145.81,-27.259"/>
</g>
<!-- Node29&#45;&gt;Node18 -->
<g id="edge65" class="edge"><title>Node29&#45;&gt;Node18</title>
<path fill="none" stroke="midnightblue" d="M1049.5,-280.324C1062.6,-271.9 1082.71,-258.971 1098.11,-249.074"/>
<polygon fill="midnightblue" stroke="midnightblue" points="1100.02,-252.006 1106.54,-243.655 1096.23,-246.118 1100.02,-252.006"/>
</g>
<!-- Node29&#45;&gt;Node27 -->
<g id="edge64" class="edge"><title>Node29&#45;&gt;Node27</title>
<path fill="none" stroke="midnightblue" d="M982.07,-283.323C881.277,-272.713 665.909,-250.043 570.351,-239.984"/>
<polygon fill="midnightblue" stroke="midnightblue" points="570.433,-236.474 560.122,-238.908 569.7,-243.435 570.433,-236.474"/>
</g>
<!-- Node30&#45;&gt;Node2 -->
<g id="edge67" class="edge"><title>Node30&#45;&gt;Node2</title>
<path fill="none" stroke="midnightblue" d="M914.851,-336.094C909.926,-299.774 888.592,-159.848 840,-56 835.286,-45.9251 828.271,-35.7386 822.01,-27.6113"/>
<polygon fill="midnightblue" stroke="midnightblue" points="824.648,-25.3065 815.656,-19.7033 819.191,-29.691 824.648,-25.3065"/>
</g>
<!-- Node30&#45;&gt;Node4 -->
<g id="edge69" class="edge"><title>Node30&#45;&gt;Node4</title>
<path fill="none" stroke="midnightblue" d="M909.449,-336.398C899.275,-323.35 878.688,-298.157 858,-280 844.832,-268.443 828.587,-257.333 815.509,-249.044"/>
<polygon fill="midnightblue" stroke="midnightblue" points="816.978,-245.837 806.635,-243.541 813.289,-251.786 816.978,-245.837"/>
</g>
<!-- Node30&#45;&gt;Node12 -->
<g id="edge68" class="edge"><title>Node30&#45;&gt;Node12</title>
<path fill="none" stroke="midnightblue" d="M922.926,-336.425C954.524,-297.181 1084.72,-134.137 1114,-76 1121.47,-61.1708 1126.77,-43.0198 1130.03,-29.6711"/>
<polygon fill="midnightblue" stroke="midnightblue" points="1133.47,-30.2942 1132.29,-19.7661 1126.65,-28.7365 1133.47,-30.2942"/>
</g>
<!-- Node30&#45;&gt;Node18 -->
<g id="edge70" class="edge"><title>Node30&#45;&gt;Node18</title>
<path fill="none" stroke="midnightblue" d="M971.049,-344.85C1010.96,-341.851 1063.74,-331.502 1098,-300 1111,-288.049 1116.32,-268.148 1118.5,-253.508"/>
<polygon fill="midnightblue" stroke="midnightblue" points="1121.98,-253.888 1119.62,-243.558 1115.02,-253.101 1121.98,-253.888"/>
</g>
<!-- Node31 -->
<g id="node32" class="node"><title>Node31</title>
<g id="a_node32"><a xlink:href="_vaisseau_defenseur_b_8h.html" target="_top" xlink:title="VaisseauDefenseurB.h">
<polygon fill="white" stroke="black" points="732.5,-280.5 732.5,-299.5 849.5,-299.5 849.5,-280.5 732.5,-280.5"/>
<text text-anchor="middle" x="791" y="-287.5" font-family="Helvetica,sans-Serif" font-size="10.00">VaisseauDefenseurB.h</text>
</a>
</g>
</g>
<!-- Node30&#45;&gt;Node31 -->
<g id="edge71" class="edge"><title>Node30&#45;&gt;Node31</title>
<path fill="none" stroke="midnightblue" d="M896.193,-336.444C875.713,-327.596 843.517,-313.687 820.135,-303.586"/>
<polygon fill="midnightblue" stroke="midnightblue" points="821.282,-300.269 810.714,-299.516 818.506,-306.695 821.282,-300.269"/>
</g>
<!-- Node31&#45;&gt;Node4 -->
<g id="edge72" class="edge"><title>Node31&#45;&gt;Node4</title>
<path fill="none" stroke="midnightblue" d="M791.165,-280.083C791.296,-273.006 791.484,-262.861 791.648,-253.986"/>
<polygon fill="midnightblue" stroke="midnightblue" points="795.152,-253.814 791.838,-243.751 788.153,-253.685 795.152,-253.814"/>
</g>
</g>
</svg>
        <g id="navigator" transform="translate(0 0)" fill="#404254">
                <rect fill="#f2f5e9" fill-opacity="0.5" stroke="#606060" stroke-width=".5" x="0" y="0" width="60" height="60"/>
                <use id="zoomplus" xlink:href="#zoomPlus" x="17" y="9" onmousedown="handleZoom(evt,'in')"/>
                <use id="zoomminus" xlink:href="#zoomMin" x="42" y="9" onmousedown="handleZoom(evt,'out')"/>
                <use id="reset" xlink:href="#resetDef" x="30" y="36" onmousedown="handleReset()"/>
                <g id="arrowUp" xlink:href="#dirArrow" transform="translate(30 24)" onmousedown="handlePan(0,-1)">
                  <use xlink:href="#rim" fill="#404040">
                        <set attributeName="fill" to="#808080" begin="arrowUp.mouseover" end="arrowUp.mouseout"/>
                  </use>
                  <path fill="none" stroke="white" stroke-width="1.5" d="M0,-3.0v7 M-2.5,-0.5L0,-3.0L2.5,-0.5"/>
                </g>
                <g id="arrowRight" xlink:href="#dirArrow" transform="rotate(90) translate(36 -43)" onmousedown="handlePan(1,0)">
                  <use xlink:href="#rim" fill="#404040">
                        <set attributeName="fill" to="#808080" begin="arrowRight.mouseover" end="arrowRight.mouseout"/>
                  </use>
                  <path fill="none" stroke="white" stroke-width="1.5" d="M0,-3.0v7 M-2.5,-0.5L0,-3.0L2.5,-0.5"/>
                </g>
                <g id="arrowDown" xlink:href="#dirArrow" transform="rotate(180) translate(-30 -48)" onmousedown="handlePan(0,1)">
                  <use xlink:href="#rim" fill="#404040">
                        <set attributeName="fill" to="#808080" begin="arrowDown.mouseover" end="arrowDown.mouseout"/>
                  </use>
                  <path fill="none" stroke="white" stroke-width="1.5" d="M0,-3.0v7 M-2.5,-0.5L0,-3.0L2.5,-0.5"/>
                </g>
                <g id="arrowLeft" xlink:href="#dirArrow" transform="rotate(270) translate(-36 17)" onmousedown="handlePan(-1,0)">
                  <use xlink:href="#rim" fill="#404040">
                        <set attributeName="fill" to="#808080" begin="arrowLeft.mouseover" end="arrowLeft.mouseout"/>
                  </use>
                  <path fill="none" stroke="white" stroke-width="1.5" d="M0,-3.0v7 M-2.5,-0.5L0,-3.0L2.5,-0.5"/>
                </g>
        </g>
        <svg viewBox="0 0 15 15" width="100%" height="30px" preserveAspectRatio="xMaxYMin meet">
         <g id="arrow_out" transform="scale(0.3 0.3)">
          <a xlink:href="vague_8cpp__incl_org.svg" target="_base">
           <rect id="button" ry="5" rx="5" y="6" x="6" height="38" width="38"
                fill="#f2f5e9" fill-opacity="0.5" stroke="#606060" stroke-width="1.0"/>
           <path id="arrow"
             d="M 11.500037,31.436501 C 11.940474,20.09759 22.043105,11.32322 32.158766,21.979434 L 37.068811,17.246167 C 37.068811,17.246167 37.088388,32 37.088388,32 L 22.160133,31.978069 C 22.160133,31.978069 26.997745,27.140456 26.997745,27.140456 C 18.528582,18.264221 13.291696,25.230495 11.500037,31.436501 z"
             style="fill:#404040;"/>
          </a>
         </g>
        </svg>
</svg>
